%TF.GenerationSoftware,KiCad,Pcbnew,10.0.5*%
%TF.CreationDate,2026-10-10T15:12:48+05:30*%
%TF.ProjectId,pd1180-epr-r0.3,70643131-3830-42d6-9570-722d72302e33,rev?*%
%TF.SameCoordinates,Original*%
%TF.FileFunction,Legend,Top*%
%TF.FilePolarity,Positive*%
%FSLAX46Y46*%
G04 Gerber Fmt 4.6, Leading zero omitted, Abs format (unit mm)*
G04 Created by KiCad (PCBNEW 10.0.5) date 2026-10-10 15:12:48*
%MOMM*%
%LPD*%
G01*
G04 APERTURE LIST*
G04 Aperture macros list*
%AMRoundRect*
0 Rectangle with rounded corners*
0 $1 Rounding radius*
0 $2 $3 $4 $5 $6 $7 $8 $9 X,Y pos of 4 corners*
0 Add a 4 corners polygon primitive as box body*
4,1,4,$2,$3,$4,$5,$6,$7,$8,$9,$2,$3,0*
0 Add four circle primitives for the rounded corners*
1,1,$1+$1,$2,$3*
1,1,$1+$1,$4,$5*
1,1,$1+$1,$6,$7*
1,1,$1+$1,$8,$9*
0 Add four rect primitives between the rounded corners*
20,1,$1+$1,$2,$3,$4,$5,0*
20,1,$1+$1,$4,$5,$6,$7,0*
20,1,$1+$1,$6,$7,$8,$9,0*
20,1,$1+$1,$8,$9,$2,$3,0*%
G04 Aperture macros list end*
%ADD10C,0.120000*%
%ADD11C,0.150000*%
%ADD12C,0.100000*%
%ADD13C,0.254000*%
%ADD14C,0.299999*%
%ADD15C,0.200000*%
%ADD16R,0.950000X0.800000*%
%ADD17R,0.800000X0.950000*%
%ADD18C,1.400000*%
%ADD19R,1.321003X0.799998*%
%ADD20R,3.599993X4.599991*%
%ADD21R,1.229995X1.859991*%
%ADD22R,1.250010X0.699999*%
%ADD23R,1.207516X1.701013*%
%ADD24C,2.099996*%
%ADD25R,1.099998X0.599999*%
%ADD26R,1.400000X1.025000*%
%ADD27R,0.950011X1.150010*%
%ADD28RoundRect,0.350000X-0.000010X-0.499998X0.000010X-0.499998X0.000010X0.499998X-0.000010X0.499998X0*%
%ADD29R,3.499993X2.499995*%
%ADD30R,1.999996X1.999996*%
%ADD31RoundRect,0.294005X-0.000010X-0.605993X0.000010X-0.605993X0.000010X0.605993X-0.000010X0.605993X0*%
%ADD32R,1.150010X0.950011*%
%ADD33R,0.999998X0.799998*%
%ADD34R,1.399997X1.199998*%
%ADD35C,0.649986*%
%ADD36O,2.099996X1.099998*%
%ADD37O,1.799996X1.099998*%
%ADD38R,1.150010X0.299999*%
%ADD39R,0.250012X0.150114*%
%ADD40R,0.350012X0.499999*%
%ADD41C,4.200000*%
%ADD42RoundRect,0.284201X-0.690905X0.000010X-0.690905X-0.000010X0.690905X-0.000010X0.690905X0.000010X0*%
%ADD43R,0.270002X1.499997*%
%ADD44R,1.499997X0.270002*%
%ADD45R,1.125000X1.750000*%
%ADD46R,0.899998X0.399999*%
%ADD47R,1.025000X1.400000*%
%ADD48R,0.850011X0.350012*%
%ADD49R,0.399999X1.699997*%
%ADD50R,0.599999X0.299999*%
%ADD51R,0.350012X0.850011*%
%ADD52RoundRect,0.301003X-0.000010X-0.684491X0.000010X-0.684491X0.000010X0.684491X-0.000010X0.684491X0*%
%ADD53C,1.524000*%
%ADD54R,2.474011X5.020005*%
%ADD55R,1.999996X3.299993*%
%ADD56R,2.499995X2.499995*%
%ADD57C,2.499995*%
%ADD58R,0.299974X0.699999*%
%ADD59R,0.699999X0.299974*%
%ADD60R,2.599995X2.599995*%
%ADD61R,0.532003X1.072007*%
%ADD62R,0.200000X0.799998*%
%ADD63R,0.799998X0.200000*%
%ADD64R,1.699997X1.699997*%
%ADD65R,1.750000X1.125000*%
%ADD66RoundRect,0.140005X-0.000010X-0.670001X0.000010X-0.670001X0.000010X0.670001X-0.000010X0.670001X0*%
%ADD67R,0.399999X0.899998*%
%ADD68RoundRect,0.140005X0.000010X0.659993X-0.000010X0.659993X-0.000010X-0.659993X0.000010X-0.659993X0*%
%ADD69RoundRect,0.140005X0.659993X0.000010X-0.659993X0.000010X-0.659993X-0.000010X0.659993X-0.000010X0*%
%ADD70R,4.999990X4.999990*%
%ADD71R,2.500000X3.500000*%
%ADD72R,0.799998X1.321003*%
%ADD73R,4.599991X3.599993*%
%ADD74R,0.999998X0.650011*%
%ADD75R,1.037488X0.532003*%
%ADD76RoundRect,0.314998X-0.000010X-0.810006X0.000010X-0.810006X0.000010X0.810006X-0.000010X0.810006X0*%
%ADD77RoundRect,0.100000X-0.000010X-0.249999X0.000010X-0.249999X0.000010X0.249999X-0.000010X0.249999X0*%
%ADD78RoundRect,0.100000X-0.249999X-0.000010X0.249999X-0.000010X0.249999X0.000010X-0.249999X0.000010X0*%
%ADD79R,2.799994X2.799994*%
%ADD80R,0.599999X1.099998*%
G04 APERTURE END LIST*
D10*
X85640476Y-69563855D02*
X85640476Y-70211474D01*
X85640476Y-70211474D02*
X85678571Y-70287664D01*
X85678571Y-70287664D02*
X85716666Y-70325760D01*
X85716666Y-70325760D02*
X85792857Y-70363855D01*
X85792857Y-70363855D02*
X85945238Y-70363855D01*
X85945238Y-70363855D02*
X86021428Y-70325760D01*
X86021428Y-70325760D02*
X86059523Y-70287664D01*
X86059523Y-70287664D02*
X86097619Y-70211474D01*
X86097619Y-70211474D02*
X86097619Y-69563855D01*
X86402380Y-69563855D02*
X86897618Y-69563855D01*
X86897618Y-69563855D02*
X86630952Y-69868617D01*
X86630952Y-69868617D02*
X86745237Y-69868617D01*
X86745237Y-69868617D02*
X86821428Y-69906712D01*
X86821428Y-69906712D02*
X86859523Y-69944807D01*
X86859523Y-69944807D02*
X86897618Y-70020998D01*
X86897618Y-70020998D02*
X86897618Y-70211474D01*
X86897618Y-70211474D02*
X86859523Y-70287664D01*
X86859523Y-70287664D02*
X86821428Y-70325760D01*
X86821428Y-70325760D02*
X86745237Y-70363855D01*
X86745237Y-70363855D02*
X86516666Y-70363855D01*
X86516666Y-70363855D02*
X86440475Y-70325760D01*
X86440475Y-70325760D02*
X86402380Y-70287664D01*
X66963855Y-76109523D02*
X67611474Y-76109523D01*
X67611474Y-76109523D02*
X67687664Y-76071428D01*
X67687664Y-76071428D02*
X67725760Y-76033333D01*
X67725760Y-76033333D02*
X67763855Y-75957142D01*
X67763855Y-75957142D02*
X67763855Y-75804761D01*
X67763855Y-75804761D02*
X67725760Y-75728571D01*
X67725760Y-75728571D02*
X67687664Y-75690476D01*
X67687664Y-75690476D02*
X67611474Y-75652380D01*
X67611474Y-75652380D02*
X66963855Y-75652380D01*
X67763855Y-74852381D02*
X67763855Y-75309524D01*
X67763855Y-75080952D02*
X66963855Y-75080952D01*
X66963855Y-75080952D02*
X67078140Y-75157143D01*
X67078140Y-75157143D02*
X67154331Y-75233333D01*
X67154331Y-75233333D02*
X67192426Y-75309524D01*
X73213855Y-69990475D02*
X73861474Y-69990475D01*
X73861474Y-69990475D02*
X73937664Y-69952380D01*
X73937664Y-69952380D02*
X73975760Y-69914285D01*
X73975760Y-69914285D02*
X74013855Y-69838094D01*
X74013855Y-69838094D02*
X74013855Y-69685713D01*
X74013855Y-69685713D02*
X73975760Y-69609523D01*
X73975760Y-69609523D02*
X73937664Y-69571428D01*
X73937664Y-69571428D02*
X73861474Y-69533332D01*
X73861474Y-69533332D02*
X73213855Y-69533332D01*
X73213855Y-69228571D02*
X73213855Y-68733333D01*
X73213855Y-68733333D02*
X73518617Y-68999999D01*
X73518617Y-68999999D02*
X73518617Y-68885714D01*
X73518617Y-68885714D02*
X73556712Y-68809523D01*
X73556712Y-68809523D02*
X73594807Y-68771428D01*
X73594807Y-68771428D02*
X73670998Y-68733333D01*
X73670998Y-68733333D02*
X73861474Y-68733333D01*
X73861474Y-68733333D02*
X73937664Y-68771428D01*
X73937664Y-68771428D02*
X73975760Y-68809523D01*
X73975760Y-68809523D02*
X74013855Y-68885714D01*
X74013855Y-68885714D02*
X74013855Y-69114285D01*
X74013855Y-69114285D02*
X73975760Y-69190476D01*
X73975760Y-69190476D02*
X73937664Y-69228571D01*
X73480521Y-68047618D02*
X74013855Y-68047618D01*
X73175760Y-68238094D02*
X73747188Y-68428571D01*
X73747188Y-68428571D02*
X73747188Y-67933332D01*
X102313855Y-125490475D02*
X102961474Y-125490475D01*
X102961474Y-125490475D02*
X103037664Y-125452380D01*
X103037664Y-125452380D02*
X103075760Y-125414285D01*
X103075760Y-125414285D02*
X103113855Y-125338094D01*
X103113855Y-125338094D02*
X103113855Y-125185713D01*
X103113855Y-125185713D02*
X103075760Y-125109523D01*
X103075760Y-125109523D02*
X103037664Y-125071428D01*
X103037664Y-125071428D02*
X102961474Y-125033332D01*
X102961474Y-125033332D02*
X102313855Y-125033332D01*
X103113855Y-124233333D02*
X103113855Y-124690476D01*
X103113855Y-124461904D02*
X102313855Y-124461904D01*
X102313855Y-124461904D02*
X102428140Y-124538095D01*
X102428140Y-124538095D02*
X102504331Y-124614285D01*
X102504331Y-124614285D02*
X102542426Y-124690476D01*
X102390045Y-123928571D02*
X102351950Y-123890475D01*
X102351950Y-123890475D02*
X102313855Y-123814285D01*
X102313855Y-123814285D02*
X102313855Y-123623809D01*
X102313855Y-123623809D02*
X102351950Y-123547618D01*
X102351950Y-123547618D02*
X102390045Y-123509523D01*
X102390045Y-123509523D02*
X102466236Y-123471428D01*
X102466236Y-123471428D02*
X102542426Y-123471428D01*
X102542426Y-123471428D02*
X102656712Y-123509523D01*
X102656712Y-123509523D02*
X103113855Y-123966666D01*
X103113855Y-123966666D02*
X103113855Y-123471428D01*
D11*
X60433333Y-79162295D02*
X60433333Y-78362295D01*
X60433333Y-78362295D02*
X60738095Y-78362295D01*
X60738095Y-78362295D02*
X60814285Y-78400390D01*
X60814285Y-78400390D02*
X60852380Y-78438485D01*
X60852380Y-78438485D02*
X60890476Y-78514676D01*
X60890476Y-78514676D02*
X60890476Y-78628961D01*
X60890476Y-78628961D02*
X60852380Y-78705152D01*
X60852380Y-78705152D02*
X60814285Y-78743247D01*
X60814285Y-78743247D02*
X60738095Y-78781342D01*
X60738095Y-78781342D02*
X60433333Y-78781342D01*
X61157142Y-78362295D02*
X61347618Y-79162295D01*
X61347618Y-79162295D02*
X61499999Y-78590866D01*
X61499999Y-78590866D02*
X61652380Y-79162295D01*
X61652380Y-79162295D02*
X61842857Y-78362295D01*
X62604762Y-79162295D02*
X62338095Y-78781342D01*
X62147619Y-79162295D02*
X62147619Y-78362295D01*
X62147619Y-78362295D02*
X62452381Y-78362295D01*
X62452381Y-78362295D02*
X62528571Y-78400390D01*
X62528571Y-78400390D02*
X62566666Y-78438485D01*
X62566666Y-78438485D02*
X62604762Y-78514676D01*
X62604762Y-78514676D02*
X62604762Y-78628961D01*
X62604762Y-78628961D02*
X62566666Y-78705152D01*
X62566666Y-78705152D02*
X62528571Y-78743247D01*
X62528571Y-78743247D02*
X62452381Y-78781342D01*
X62452381Y-78781342D02*
X62147619Y-78781342D01*
X62800000Y-105662295D02*
X62800000Y-104862295D01*
X62800000Y-104862295D02*
X62990476Y-104862295D01*
X62990476Y-104862295D02*
X63104762Y-104900390D01*
X63104762Y-104900390D02*
X63180952Y-104976580D01*
X63180952Y-104976580D02*
X63219047Y-105052771D01*
X63219047Y-105052771D02*
X63257143Y-105205152D01*
X63257143Y-105205152D02*
X63257143Y-105319438D01*
X63257143Y-105319438D02*
X63219047Y-105471819D01*
X63219047Y-105471819D02*
X63180952Y-105548009D01*
X63180952Y-105548009D02*
X63104762Y-105624200D01*
X63104762Y-105624200D02*
X62990476Y-105662295D01*
X62990476Y-105662295D02*
X62800000Y-105662295D01*
X63561904Y-105433723D02*
X63942857Y-105433723D01*
X63485714Y-105662295D02*
X63752381Y-104862295D01*
X63752381Y-104862295D02*
X64019047Y-105662295D01*
X64171428Y-104862295D02*
X64628571Y-104862295D01*
X64399999Y-105662295D02*
X64399999Y-104862295D01*
X64857142Y-105433723D02*
X65238095Y-105433723D01*
X64780952Y-105662295D02*
X65047619Y-104862295D01*
X65047619Y-104862295D02*
X65314285Y-105662295D01*
X63009524Y-123062295D02*
X63009524Y-123709914D01*
X63009524Y-123709914D02*
X63047619Y-123786104D01*
X63047619Y-123786104D02*
X63085714Y-123824200D01*
X63085714Y-123824200D02*
X63161905Y-123862295D01*
X63161905Y-123862295D02*
X63314286Y-123862295D01*
X63314286Y-123862295D02*
X63390476Y-123824200D01*
X63390476Y-123824200D02*
X63428571Y-123786104D01*
X63428571Y-123786104D02*
X63466667Y-123709914D01*
X63466667Y-123709914D02*
X63466667Y-123062295D01*
X64266666Y-123862295D02*
X63809523Y-123862295D01*
X64038095Y-123862295D02*
X64038095Y-123062295D01*
X64038095Y-123062295D02*
X63961904Y-123176580D01*
X63961904Y-123176580D02*
X63885714Y-123252771D01*
X63885714Y-123252771D02*
X63809523Y-123290866D01*
X64647619Y-123862295D02*
X64800000Y-123862295D01*
X64800000Y-123862295D02*
X64876190Y-123824200D01*
X64876190Y-123824200D02*
X64914286Y-123786104D01*
X64914286Y-123786104D02*
X64990476Y-123671819D01*
X64990476Y-123671819D02*
X65028571Y-123519438D01*
X65028571Y-123519438D02*
X65028571Y-123214676D01*
X65028571Y-123214676D02*
X64990476Y-123138485D01*
X64990476Y-123138485D02*
X64952381Y-123100390D01*
X64952381Y-123100390D02*
X64876190Y-123062295D01*
X64876190Y-123062295D02*
X64723809Y-123062295D01*
X64723809Y-123062295D02*
X64647619Y-123100390D01*
X64647619Y-123100390D02*
X64609524Y-123138485D01*
X64609524Y-123138485D02*
X64571428Y-123214676D01*
X64571428Y-123214676D02*
X64571428Y-123405152D01*
X64571428Y-123405152D02*
X64609524Y-123481342D01*
X64609524Y-123481342D02*
X64647619Y-123519438D01*
X64647619Y-123519438D02*
X64723809Y-123557533D01*
X64723809Y-123557533D02*
X64876190Y-123557533D01*
X64876190Y-123557533D02*
X64952381Y-123519438D01*
X64952381Y-123519438D02*
X64990476Y-123481342D01*
X64990476Y-123481342D02*
X65028571Y-123405152D01*
X63509524Y-110062295D02*
X63509524Y-110709914D01*
X63509524Y-110709914D02*
X63547619Y-110786104D01*
X63547619Y-110786104D02*
X63585714Y-110824200D01*
X63585714Y-110824200D02*
X63661905Y-110862295D01*
X63661905Y-110862295D02*
X63814286Y-110862295D01*
X63814286Y-110862295D02*
X63890476Y-110824200D01*
X63890476Y-110824200D02*
X63928571Y-110786104D01*
X63928571Y-110786104D02*
X63966667Y-110709914D01*
X63966667Y-110709914D02*
X63966667Y-110062295D01*
X64309523Y-110138485D02*
X64347619Y-110100390D01*
X64347619Y-110100390D02*
X64423809Y-110062295D01*
X64423809Y-110062295D02*
X64614285Y-110062295D01*
X64614285Y-110062295D02*
X64690476Y-110100390D01*
X64690476Y-110100390D02*
X64728571Y-110138485D01*
X64728571Y-110138485D02*
X64766666Y-110214676D01*
X64766666Y-110214676D02*
X64766666Y-110290866D01*
X64766666Y-110290866D02*
X64728571Y-110405152D01*
X64728571Y-110405152D02*
X64271428Y-110862295D01*
X64271428Y-110862295D02*
X64766666Y-110862295D01*
X65528571Y-110862295D02*
X65071428Y-110862295D01*
X65300000Y-110862295D02*
X65300000Y-110062295D01*
X65300000Y-110062295D02*
X65223809Y-110176580D01*
X65223809Y-110176580D02*
X65147619Y-110252771D01*
X65147619Y-110252771D02*
X65071428Y-110290866D01*
X67890476Y-91562295D02*
X67890476Y-92209914D01*
X67890476Y-92209914D02*
X67928571Y-92286104D01*
X67928571Y-92286104D02*
X67966666Y-92324200D01*
X67966666Y-92324200D02*
X68042857Y-92362295D01*
X68042857Y-92362295D02*
X68195238Y-92362295D01*
X68195238Y-92362295D02*
X68271428Y-92324200D01*
X68271428Y-92324200D02*
X68309523Y-92286104D01*
X68309523Y-92286104D02*
X68347619Y-92209914D01*
X68347619Y-92209914D02*
X68347619Y-91562295D01*
X69109523Y-91562295D02*
X68728571Y-91562295D01*
X68728571Y-91562295D02*
X68690475Y-91943247D01*
X68690475Y-91943247D02*
X68728571Y-91905152D01*
X68728571Y-91905152D02*
X68804761Y-91867057D01*
X68804761Y-91867057D02*
X68995237Y-91867057D01*
X68995237Y-91867057D02*
X69071428Y-91905152D01*
X69071428Y-91905152D02*
X69109523Y-91943247D01*
X69109523Y-91943247D02*
X69147618Y-92019438D01*
X69147618Y-92019438D02*
X69147618Y-92209914D01*
X69147618Y-92209914D02*
X69109523Y-92286104D01*
X69109523Y-92286104D02*
X69071428Y-92324200D01*
X69071428Y-92324200D02*
X68995237Y-92362295D01*
X68995237Y-92362295D02*
X68804761Y-92362295D01*
X68804761Y-92362295D02*
X68728571Y-92324200D01*
X68728571Y-92324200D02*
X68690475Y-92286104D01*
X72140476Y-75812295D02*
X72140476Y-76459914D01*
X72140476Y-76459914D02*
X72178571Y-76536104D01*
X72178571Y-76536104D02*
X72216666Y-76574200D01*
X72216666Y-76574200D02*
X72292857Y-76612295D01*
X72292857Y-76612295D02*
X72445238Y-76612295D01*
X72445238Y-76612295D02*
X72521428Y-76574200D01*
X72521428Y-76574200D02*
X72559523Y-76536104D01*
X72559523Y-76536104D02*
X72597619Y-76459914D01*
X72597619Y-76459914D02*
X72597619Y-75812295D01*
X72940475Y-75888485D02*
X72978571Y-75850390D01*
X72978571Y-75850390D02*
X73054761Y-75812295D01*
X73054761Y-75812295D02*
X73245237Y-75812295D01*
X73245237Y-75812295D02*
X73321428Y-75850390D01*
X73321428Y-75850390D02*
X73359523Y-75888485D01*
X73359523Y-75888485D02*
X73397618Y-75964676D01*
X73397618Y-75964676D02*
X73397618Y-76040866D01*
X73397618Y-76040866D02*
X73359523Y-76155152D01*
X73359523Y-76155152D02*
X72902380Y-76612295D01*
X72902380Y-76612295D02*
X73397618Y-76612295D01*
X75259524Y-92362295D02*
X75259524Y-93009914D01*
X75259524Y-93009914D02*
X75297619Y-93086104D01*
X75297619Y-93086104D02*
X75335714Y-93124200D01*
X75335714Y-93124200D02*
X75411905Y-93162295D01*
X75411905Y-93162295D02*
X75564286Y-93162295D01*
X75564286Y-93162295D02*
X75640476Y-93124200D01*
X75640476Y-93124200D02*
X75678571Y-93086104D01*
X75678571Y-93086104D02*
X75716667Y-93009914D01*
X75716667Y-93009914D02*
X75716667Y-92362295D01*
X76059523Y-92438485D02*
X76097619Y-92400390D01*
X76097619Y-92400390D02*
X76173809Y-92362295D01*
X76173809Y-92362295D02*
X76364285Y-92362295D01*
X76364285Y-92362295D02*
X76440476Y-92400390D01*
X76440476Y-92400390D02*
X76478571Y-92438485D01*
X76478571Y-92438485D02*
X76516666Y-92514676D01*
X76516666Y-92514676D02*
X76516666Y-92590866D01*
X76516666Y-92590866D02*
X76478571Y-92705152D01*
X76478571Y-92705152D02*
X76021428Y-93162295D01*
X76021428Y-93162295D02*
X76516666Y-93162295D01*
X76783333Y-92362295D02*
X77278571Y-92362295D01*
X77278571Y-92362295D02*
X77011905Y-92667057D01*
X77011905Y-92667057D02*
X77126190Y-92667057D01*
X77126190Y-92667057D02*
X77202381Y-92705152D01*
X77202381Y-92705152D02*
X77240476Y-92743247D01*
X77240476Y-92743247D02*
X77278571Y-92819438D01*
X77278571Y-92819438D02*
X77278571Y-93009914D01*
X77278571Y-93009914D02*
X77240476Y-93086104D01*
X77240476Y-93086104D02*
X77202381Y-93124200D01*
X77202381Y-93124200D02*
X77126190Y-93162295D01*
X77126190Y-93162295D02*
X76897619Y-93162295D01*
X76897619Y-93162295D02*
X76821428Y-93124200D01*
X76821428Y-93124200D02*
X76783333Y-93086104D01*
X79009524Y-105812295D02*
X79009524Y-106459914D01*
X79009524Y-106459914D02*
X79047619Y-106536104D01*
X79047619Y-106536104D02*
X79085714Y-106574200D01*
X79085714Y-106574200D02*
X79161905Y-106612295D01*
X79161905Y-106612295D02*
X79314286Y-106612295D01*
X79314286Y-106612295D02*
X79390476Y-106574200D01*
X79390476Y-106574200D02*
X79428571Y-106536104D01*
X79428571Y-106536104D02*
X79466667Y-106459914D01*
X79466667Y-106459914D02*
X79466667Y-105812295D01*
X80266666Y-106612295D02*
X79809523Y-106612295D01*
X80038095Y-106612295D02*
X80038095Y-105812295D01*
X80038095Y-105812295D02*
X79961904Y-105926580D01*
X79961904Y-105926580D02*
X79885714Y-106002771D01*
X79885714Y-106002771D02*
X79809523Y-106040866D01*
X80952381Y-105812295D02*
X80800000Y-105812295D01*
X80800000Y-105812295D02*
X80723809Y-105850390D01*
X80723809Y-105850390D02*
X80685714Y-105888485D01*
X80685714Y-105888485D02*
X80609524Y-106002771D01*
X80609524Y-106002771D02*
X80571428Y-106155152D01*
X80571428Y-106155152D02*
X80571428Y-106459914D01*
X80571428Y-106459914D02*
X80609524Y-106536104D01*
X80609524Y-106536104D02*
X80647619Y-106574200D01*
X80647619Y-106574200D02*
X80723809Y-106612295D01*
X80723809Y-106612295D02*
X80876190Y-106612295D01*
X80876190Y-106612295D02*
X80952381Y-106574200D01*
X80952381Y-106574200D02*
X80990476Y-106536104D01*
X80990476Y-106536104D02*
X81028571Y-106459914D01*
X81028571Y-106459914D02*
X81028571Y-106269438D01*
X81028571Y-106269438D02*
X80990476Y-106193247D01*
X80990476Y-106193247D02*
X80952381Y-106155152D01*
X80952381Y-106155152D02*
X80876190Y-106117057D01*
X80876190Y-106117057D02*
X80723809Y-106117057D01*
X80723809Y-106117057D02*
X80647619Y-106155152D01*
X80647619Y-106155152D02*
X80609524Y-106193247D01*
X80609524Y-106193247D02*
X80571428Y-106269438D01*
X80259524Y-125562295D02*
X80259524Y-126209914D01*
X80259524Y-126209914D02*
X80297619Y-126286104D01*
X80297619Y-126286104D02*
X80335714Y-126324200D01*
X80335714Y-126324200D02*
X80411905Y-126362295D01*
X80411905Y-126362295D02*
X80564286Y-126362295D01*
X80564286Y-126362295D02*
X80640476Y-126324200D01*
X80640476Y-126324200D02*
X80678571Y-126286104D01*
X80678571Y-126286104D02*
X80716667Y-126209914D01*
X80716667Y-126209914D02*
X80716667Y-125562295D01*
X81059523Y-125638485D02*
X81097619Y-125600390D01*
X81097619Y-125600390D02*
X81173809Y-125562295D01*
X81173809Y-125562295D02*
X81364285Y-125562295D01*
X81364285Y-125562295D02*
X81440476Y-125600390D01*
X81440476Y-125600390D02*
X81478571Y-125638485D01*
X81478571Y-125638485D02*
X81516666Y-125714676D01*
X81516666Y-125714676D02*
X81516666Y-125790866D01*
X81516666Y-125790866D02*
X81478571Y-125905152D01*
X81478571Y-125905152D02*
X81021428Y-126362295D01*
X81021428Y-126362295D02*
X81516666Y-126362295D01*
X82011905Y-125562295D02*
X82088095Y-125562295D01*
X82088095Y-125562295D02*
X82164286Y-125600390D01*
X82164286Y-125600390D02*
X82202381Y-125638485D01*
X82202381Y-125638485D02*
X82240476Y-125714676D01*
X82240476Y-125714676D02*
X82278571Y-125867057D01*
X82278571Y-125867057D02*
X82278571Y-126057533D01*
X82278571Y-126057533D02*
X82240476Y-126209914D01*
X82240476Y-126209914D02*
X82202381Y-126286104D01*
X82202381Y-126286104D02*
X82164286Y-126324200D01*
X82164286Y-126324200D02*
X82088095Y-126362295D01*
X82088095Y-126362295D02*
X82011905Y-126362295D01*
X82011905Y-126362295D02*
X81935714Y-126324200D01*
X81935714Y-126324200D02*
X81897619Y-126286104D01*
X81897619Y-126286104D02*
X81859524Y-126209914D01*
X81859524Y-126209914D02*
X81821428Y-126057533D01*
X81821428Y-126057533D02*
X81821428Y-125867057D01*
X81821428Y-125867057D02*
X81859524Y-125714676D01*
X81859524Y-125714676D02*
X81897619Y-125638485D01*
X81897619Y-125638485D02*
X81935714Y-125600390D01*
X81935714Y-125600390D02*
X82011905Y-125562295D01*
X80933332Y-138824200D02*
X81047618Y-138862295D01*
X81047618Y-138862295D02*
X81238094Y-138862295D01*
X81238094Y-138862295D02*
X81314285Y-138824200D01*
X81314285Y-138824200D02*
X81352380Y-138786104D01*
X81352380Y-138786104D02*
X81390475Y-138709914D01*
X81390475Y-138709914D02*
X81390475Y-138633723D01*
X81390475Y-138633723D02*
X81352380Y-138557533D01*
X81352380Y-138557533D02*
X81314285Y-138519438D01*
X81314285Y-138519438D02*
X81238094Y-138481342D01*
X81238094Y-138481342D02*
X81085713Y-138443247D01*
X81085713Y-138443247D02*
X81009523Y-138405152D01*
X81009523Y-138405152D02*
X80971428Y-138367057D01*
X80971428Y-138367057D02*
X80933332Y-138290866D01*
X80933332Y-138290866D02*
X80933332Y-138214676D01*
X80933332Y-138214676D02*
X80971428Y-138138485D01*
X80971428Y-138138485D02*
X81009523Y-138100390D01*
X81009523Y-138100390D02*
X81085713Y-138062295D01*
X81085713Y-138062295D02*
X81276190Y-138062295D01*
X81276190Y-138062295D02*
X81390475Y-138100390D01*
X81657142Y-138062295D02*
X81847618Y-138862295D01*
X81847618Y-138862295D02*
X81999999Y-138290866D01*
X81999999Y-138290866D02*
X82152380Y-138862295D01*
X82152380Y-138862295D02*
X82342857Y-138062295D01*
X83066666Y-138862295D02*
X82609523Y-138862295D01*
X82838095Y-138862295D02*
X82838095Y-138062295D01*
X82838095Y-138062295D02*
X82761904Y-138176580D01*
X82761904Y-138176580D02*
X82685714Y-138252771D01*
X82685714Y-138252771D02*
X82609523Y-138290866D01*
X79757141Y-132324200D02*
X79871427Y-132362295D01*
X79871427Y-132362295D02*
X80061903Y-132362295D01*
X80061903Y-132362295D02*
X80138094Y-132324200D01*
X80138094Y-132324200D02*
X80176189Y-132286104D01*
X80176189Y-132286104D02*
X80214284Y-132209914D01*
X80214284Y-132209914D02*
X80214284Y-132133723D01*
X80214284Y-132133723D02*
X80176189Y-132057533D01*
X80176189Y-132057533D02*
X80138094Y-132019438D01*
X80138094Y-132019438D02*
X80061903Y-131981342D01*
X80061903Y-131981342D02*
X79909522Y-131943247D01*
X79909522Y-131943247D02*
X79833332Y-131905152D01*
X79833332Y-131905152D02*
X79795237Y-131867057D01*
X79795237Y-131867057D02*
X79757141Y-131790866D01*
X79757141Y-131790866D02*
X79757141Y-131714676D01*
X79757141Y-131714676D02*
X79795237Y-131638485D01*
X79795237Y-131638485D02*
X79833332Y-131600390D01*
X79833332Y-131600390D02*
X79909522Y-131562295D01*
X79909522Y-131562295D02*
X80099999Y-131562295D01*
X80099999Y-131562295D02*
X80214284Y-131600390D01*
X80480951Y-131562295D02*
X80671427Y-132362295D01*
X80671427Y-132362295D02*
X80823808Y-131790866D01*
X80823808Y-131790866D02*
X80976189Y-132362295D01*
X80976189Y-132362295D02*
X81166666Y-131562295D01*
X81471428Y-132362295D02*
X81471428Y-131562295D01*
X81471428Y-131562295D02*
X81661904Y-131562295D01*
X81661904Y-131562295D02*
X81776190Y-131600390D01*
X81776190Y-131600390D02*
X81852380Y-131676580D01*
X81852380Y-131676580D02*
X81890475Y-131752771D01*
X81890475Y-131752771D02*
X81928571Y-131905152D01*
X81928571Y-131905152D02*
X81928571Y-132019438D01*
X81928571Y-132019438D02*
X81890475Y-132171819D01*
X81890475Y-132171819D02*
X81852380Y-132248009D01*
X81852380Y-132248009D02*
X81776190Y-132324200D01*
X81776190Y-132324200D02*
X81661904Y-132362295D01*
X81661904Y-132362295D02*
X81471428Y-132362295D01*
X82766666Y-131562295D02*
X83223809Y-131562295D01*
X82995237Y-132362295D02*
X82995237Y-131562295D01*
X83490476Y-131943247D02*
X83757142Y-131943247D01*
X83871428Y-132362295D02*
X83490476Y-132362295D01*
X83490476Y-132362295D02*
X83490476Y-131562295D01*
X83490476Y-131562295D02*
X83871428Y-131562295D01*
X84176190Y-132324200D02*
X84290476Y-132362295D01*
X84290476Y-132362295D02*
X84480952Y-132362295D01*
X84480952Y-132362295D02*
X84557143Y-132324200D01*
X84557143Y-132324200D02*
X84595238Y-132286104D01*
X84595238Y-132286104D02*
X84633333Y-132209914D01*
X84633333Y-132209914D02*
X84633333Y-132133723D01*
X84633333Y-132133723D02*
X84595238Y-132057533D01*
X84595238Y-132057533D02*
X84557143Y-132019438D01*
X84557143Y-132019438D02*
X84480952Y-131981342D01*
X84480952Y-131981342D02*
X84328571Y-131943247D01*
X84328571Y-131943247D02*
X84252381Y-131905152D01*
X84252381Y-131905152D02*
X84214286Y-131867057D01*
X84214286Y-131867057D02*
X84176190Y-131790866D01*
X84176190Y-131790866D02*
X84176190Y-131714676D01*
X84176190Y-131714676D02*
X84214286Y-131638485D01*
X84214286Y-131638485D02*
X84252381Y-131600390D01*
X84252381Y-131600390D02*
X84328571Y-131562295D01*
X84328571Y-131562295D02*
X84519048Y-131562295D01*
X84519048Y-131562295D02*
X84633333Y-131600390D01*
X84861905Y-131562295D02*
X85319048Y-131562295D01*
X85090476Y-132362295D02*
X85090476Y-131562295D01*
X82759524Y-125562295D02*
X82759524Y-126209914D01*
X82759524Y-126209914D02*
X82797619Y-126286104D01*
X82797619Y-126286104D02*
X82835714Y-126324200D01*
X82835714Y-126324200D02*
X82911905Y-126362295D01*
X82911905Y-126362295D02*
X83064286Y-126362295D01*
X83064286Y-126362295D02*
X83140476Y-126324200D01*
X83140476Y-126324200D02*
X83178571Y-126286104D01*
X83178571Y-126286104D02*
X83216667Y-126209914D01*
X83216667Y-126209914D02*
X83216667Y-125562295D01*
X84016666Y-126362295D02*
X83559523Y-126362295D01*
X83788095Y-126362295D02*
X83788095Y-125562295D01*
X83788095Y-125562295D02*
X83711904Y-125676580D01*
X83711904Y-125676580D02*
X83635714Y-125752771D01*
X83635714Y-125752771D02*
X83559523Y-125790866D01*
X84283333Y-125562295D02*
X84816667Y-125562295D01*
X84816667Y-125562295D02*
X84473809Y-126362295D01*
X84259524Y-92362295D02*
X84259524Y-93009914D01*
X84259524Y-93009914D02*
X84297619Y-93086104D01*
X84297619Y-93086104D02*
X84335714Y-93124200D01*
X84335714Y-93124200D02*
X84411905Y-93162295D01*
X84411905Y-93162295D02*
X84564286Y-93162295D01*
X84564286Y-93162295D02*
X84640476Y-93124200D01*
X84640476Y-93124200D02*
X84678571Y-93086104D01*
X84678571Y-93086104D02*
X84716667Y-93009914D01*
X84716667Y-93009914D02*
X84716667Y-92362295D01*
X85059523Y-92438485D02*
X85097619Y-92400390D01*
X85097619Y-92400390D02*
X85173809Y-92362295D01*
X85173809Y-92362295D02*
X85364285Y-92362295D01*
X85364285Y-92362295D02*
X85440476Y-92400390D01*
X85440476Y-92400390D02*
X85478571Y-92438485D01*
X85478571Y-92438485D02*
X85516666Y-92514676D01*
X85516666Y-92514676D02*
X85516666Y-92590866D01*
X85516666Y-92590866D02*
X85478571Y-92705152D01*
X85478571Y-92705152D02*
X85021428Y-93162295D01*
X85021428Y-93162295D02*
X85516666Y-93162295D01*
X86202381Y-92628961D02*
X86202381Y-93162295D01*
X86011905Y-92324200D02*
X85821428Y-92895628D01*
X85821428Y-92895628D02*
X86316667Y-92895628D01*
X88009524Y-83312295D02*
X88009524Y-83959914D01*
X88009524Y-83959914D02*
X88047619Y-84036104D01*
X88047619Y-84036104D02*
X88085714Y-84074200D01*
X88085714Y-84074200D02*
X88161905Y-84112295D01*
X88161905Y-84112295D02*
X88314286Y-84112295D01*
X88314286Y-84112295D02*
X88390476Y-84074200D01*
X88390476Y-84074200D02*
X88428571Y-84036104D01*
X88428571Y-84036104D02*
X88466667Y-83959914D01*
X88466667Y-83959914D02*
X88466667Y-83312295D01*
X88809523Y-83388485D02*
X88847619Y-83350390D01*
X88847619Y-83350390D02*
X88923809Y-83312295D01*
X88923809Y-83312295D02*
X89114285Y-83312295D01*
X89114285Y-83312295D02*
X89190476Y-83350390D01*
X89190476Y-83350390D02*
X89228571Y-83388485D01*
X89228571Y-83388485D02*
X89266666Y-83464676D01*
X89266666Y-83464676D02*
X89266666Y-83540866D01*
X89266666Y-83540866D02*
X89228571Y-83655152D01*
X89228571Y-83655152D02*
X88771428Y-84112295D01*
X88771428Y-84112295D02*
X89266666Y-84112295D01*
X89571428Y-83388485D02*
X89609524Y-83350390D01*
X89609524Y-83350390D02*
X89685714Y-83312295D01*
X89685714Y-83312295D02*
X89876190Y-83312295D01*
X89876190Y-83312295D02*
X89952381Y-83350390D01*
X89952381Y-83350390D02*
X89990476Y-83388485D01*
X89990476Y-83388485D02*
X90028571Y-83464676D01*
X90028571Y-83464676D02*
X90028571Y-83540866D01*
X90028571Y-83540866D02*
X89990476Y-83655152D01*
X89990476Y-83655152D02*
X89533333Y-84112295D01*
X89533333Y-84112295D02*
X90028571Y-84112295D01*
X90140476Y-75562295D02*
X90140476Y-76209914D01*
X90140476Y-76209914D02*
X90178571Y-76286104D01*
X90178571Y-76286104D02*
X90216666Y-76324200D01*
X90216666Y-76324200D02*
X90292857Y-76362295D01*
X90292857Y-76362295D02*
X90445238Y-76362295D01*
X90445238Y-76362295D02*
X90521428Y-76324200D01*
X90521428Y-76324200D02*
X90559523Y-76286104D01*
X90559523Y-76286104D02*
X90597619Y-76209914D01*
X90597619Y-76209914D02*
X90597619Y-75562295D01*
X91321428Y-75828961D02*
X91321428Y-76362295D01*
X91130952Y-75524200D02*
X90940475Y-76095628D01*
X90940475Y-76095628D02*
X91435714Y-76095628D01*
X91352380Y-133343247D02*
X91619046Y-133343247D01*
X91733332Y-133762295D02*
X91352380Y-133762295D01*
X91352380Y-133762295D02*
X91352380Y-132962295D01*
X91352380Y-132962295D02*
X91733332Y-132962295D01*
X92076190Y-133762295D02*
X92076190Y-132962295D01*
X92076190Y-132962295D02*
X92533333Y-133762295D01*
X92533333Y-133762295D02*
X92533333Y-132962295D01*
X93371428Y-133686104D02*
X93333332Y-133724200D01*
X93333332Y-133724200D02*
X93219047Y-133762295D01*
X93219047Y-133762295D02*
X93142856Y-133762295D01*
X93142856Y-133762295D02*
X93028570Y-133724200D01*
X93028570Y-133724200D02*
X92952380Y-133648009D01*
X92952380Y-133648009D02*
X92914285Y-133571819D01*
X92914285Y-133571819D02*
X92876189Y-133419438D01*
X92876189Y-133419438D02*
X92876189Y-133305152D01*
X92876189Y-133305152D02*
X92914285Y-133152771D01*
X92914285Y-133152771D02*
X92952380Y-133076580D01*
X92952380Y-133076580D02*
X93028570Y-133000390D01*
X93028570Y-133000390D02*
X93142856Y-132962295D01*
X93142856Y-132962295D02*
X93219047Y-132962295D01*
X93219047Y-132962295D02*
X93333332Y-133000390D01*
X93333332Y-133000390D02*
X93371428Y-133038485D01*
X94209523Y-132962295D02*
X94666666Y-132962295D01*
X94438094Y-133762295D02*
X94438094Y-132962295D01*
X94933333Y-133343247D02*
X95199999Y-133343247D01*
X95314285Y-133762295D02*
X94933333Y-133762295D01*
X94933333Y-133762295D02*
X94933333Y-132962295D01*
X94933333Y-132962295D02*
X95314285Y-132962295D01*
X95619047Y-133724200D02*
X95733333Y-133762295D01*
X95733333Y-133762295D02*
X95923809Y-133762295D01*
X95923809Y-133762295D02*
X96000000Y-133724200D01*
X96000000Y-133724200D02*
X96038095Y-133686104D01*
X96038095Y-133686104D02*
X96076190Y-133609914D01*
X96076190Y-133609914D02*
X96076190Y-133533723D01*
X96076190Y-133533723D02*
X96038095Y-133457533D01*
X96038095Y-133457533D02*
X96000000Y-133419438D01*
X96000000Y-133419438D02*
X95923809Y-133381342D01*
X95923809Y-133381342D02*
X95771428Y-133343247D01*
X95771428Y-133343247D02*
X95695238Y-133305152D01*
X95695238Y-133305152D02*
X95657143Y-133267057D01*
X95657143Y-133267057D02*
X95619047Y-133190866D01*
X95619047Y-133190866D02*
X95619047Y-133114676D01*
X95619047Y-133114676D02*
X95657143Y-133038485D01*
X95657143Y-133038485D02*
X95695238Y-133000390D01*
X95695238Y-133000390D02*
X95771428Y-132962295D01*
X95771428Y-132962295D02*
X95961905Y-132962295D01*
X95961905Y-132962295D02*
X96076190Y-133000390D01*
X96304762Y-132962295D02*
X96761905Y-132962295D01*
X96533333Y-133762295D02*
X96533333Y-132962295D01*
X95009524Y-106562295D02*
X95009524Y-107209914D01*
X95009524Y-107209914D02*
X95047619Y-107286104D01*
X95047619Y-107286104D02*
X95085714Y-107324200D01*
X95085714Y-107324200D02*
X95161905Y-107362295D01*
X95161905Y-107362295D02*
X95314286Y-107362295D01*
X95314286Y-107362295D02*
X95390476Y-107324200D01*
X95390476Y-107324200D02*
X95428571Y-107286104D01*
X95428571Y-107286104D02*
X95466667Y-107209914D01*
X95466667Y-107209914D02*
X95466667Y-106562295D01*
X96266666Y-107362295D02*
X95809523Y-107362295D01*
X96038095Y-107362295D02*
X96038095Y-106562295D01*
X96038095Y-106562295D02*
X95961904Y-106676580D01*
X95961904Y-106676580D02*
X95885714Y-106752771D01*
X95885714Y-106752771D02*
X95809523Y-106790866D01*
X96761905Y-106562295D02*
X96838095Y-106562295D01*
X96838095Y-106562295D02*
X96914286Y-106600390D01*
X96914286Y-106600390D02*
X96952381Y-106638485D01*
X96952381Y-106638485D02*
X96990476Y-106714676D01*
X96990476Y-106714676D02*
X97028571Y-106867057D01*
X97028571Y-106867057D02*
X97028571Y-107057533D01*
X97028571Y-107057533D02*
X96990476Y-107209914D01*
X96990476Y-107209914D02*
X96952381Y-107286104D01*
X96952381Y-107286104D02*
X96914286Y-107324200D01*
X96914286Y-107324200D02*
X96838095Y-107362295D01*
X96838095Y-107362295D02*
X96761905Y-107362295D01*
X96761905Y-107362295D02*
X96685714Y-107324200D01*
X96685714Y-107324200D02*
X96647619Y-107286104D01*
X96647619Y-107286104D02*
X96609524Y-107209914D01*
X96609524Y-107209914D02*
X96571428Y-107057533D01*
X96571428Y-107057533D02*
X96571428Y-106867057D01*
X96571428Y-106867057D02*
X96609524Y-106714676D01*
X96609524Y-106714676D02*
X96647619Y-106638485D01*
X96647619Y-106638485D02*
X96685714Y-106600390D01*
X96685714Y-106600390D02*
X96761905Y-106562295D01*
X95009524Y-111562295D02*
X95009524Y-112209914D01*
X95009524Y-112209914D02*
X95047619Y-112286104D01*
X95047619Y-112286104D02*
X95085714Y-112324200D01*
X95085714Y-112324200D02*
X95161905Y-112362295D01*
X95161905Y-112362295D02*
X95314286Y-112362295D01*
X95314286Y-112362295D02*
X95390476Y-112324200D01*
X95390476Y-112324200D02*
X95428571Y-112286104D01*
X95428571Y-112286104D02*
X95466667Y-112209914D01*
X95466667Y-112209914D02*
X95466667Y-111562295D01*
X96266666Y-112362295D02*
X95809523Y-112362295D01*
X96038095Y-112362295D02*
X96038095Y-111562295D01*
X96038095Y-111562295D02*
X95961904Y-111676580D01*
X95961904Y-111676580D02*
X95885714Y-111752771D01*
X95885714Y-111752771D02*
X95809523Y-111790866D01*
X97028571Y-112362295D02*
X96571428Y-112362295D01*
X96800000Y-112362295D02*
X96800000Y-111562295D01*
X96800000Y-111562295D02*
X96723809Y-111676580D01*
X96723809Y-111676580D02*
X96647619Y-111752771D01*
X96647619Y-111752771D02*
X96571428Y-111790866D01*
X96509524Y-104162295D02*
X96509524Y-104809914D01*
X96509524Y-104809914D02*
X96547619Y-104886104D01*
X96547619Y-104886104D02*
X96585714Y-104924200D01*
X96585714Y-104924200D02*
X96661905Y-104962295D01*
X96661905Y-104962295D02*
X96814286Y-104962295D01*
X96814286Y-104962295D02*
X96890476Y-104924200D01*
X96890476Y-104924200D02*
X96928571Y-104886104D01*
X96928571Y-104886104D02*
X96966667Y-104809914D01*
X96966667Y-104809914D02*
X96966667Y-104162295D01*
X97766666Y-104962295D02*
X97309523Y-104962295D01*
X97538095Y-104962295D02*
X97538095Y-104162295D01*
X97538095Y-104162295D02*
X97461904Y-104276580D01*
X97461904Y-104276580D02*
X97385714Y-104352771D01*
X97385714Y-104352771D02*
X97309523Y-104390866D01*
X98223809Y-104505152D02*
X98147619Y-104467057D01*
X98147619Y-104467057D02*
X98109524Y-104428961D01*
X98109524Y-104428961D02*
X98071428Y-104352771D01*
X98071428Y-104352771D02*
X98071428Y-104314676D01*
X98071428Y-104314676D02*
X98109524Y-104238485D01*
X98109524Y-104238485D02*
X98147619Y-104200390D01*
X98147619Y-104200390D02*
X98223809Y-104162295D01*
X98223809Y-104162295D02*
X98376190Y-104162295D01*
X98376190Y-104162295D02*
X98452381Y-104200390D01*
X98452381Y-104200390D02*
X98490476Y-104238485D01*
X98490476Y-104238485D02*
X98528571Y-104314676D01*
X98528571Y-104314676D02*
X98528571Y-104352771D01*
X98528571Y-104352771D02*
X98490476Y-104428961D01*
X98490476Y-104428961D02*
X98452381Y-104467057D01*
X98452381Y-104467057D02*
X98376190Y-104505152D01*
X98376190Y-104505152D02*
X98223809Y-104505152D01*
X98223809Y-104505152D02*
X98147619Y-104543247D01*
X98147619Y-104543247D02*
X98109524Y-104581342D01*
X98109524Y-104581342D02*
X98071428Y-104657533D01*
X98071428Y-104657533D02*
X98071428Y-104809914D01*
X98071428Y-104809914D02*
X98109524Y-104886104D01*
X98109524Y-104886104D02*
X98147619Y-104924200D01*
X98147619Y-104924200D02*
X98223809Y-104962295D01*
X98223809Y-104962295D02*
X98376190Y-104962295D01*
X98376190Y-104962295D02*
X98452381Y-104924200D01*
X98452381Y-104924200D02*
X98490476Y-104886104D01*
X98490476Y-104886104D02*
X98528571Y-104809914D01*
X98528571Y-104809914D02*
X98528571Y-104657533D01*
X98528571Y-104657533D02*
X98490476Y-104581342D01*
X98490476Y-104581342D02*
X98452381Y-104543247D01*
X98452381Y-104543247D02*
X98376190Y-104505152D01*
X92723810Y-141862295D02*
X92723810Y-142433723D01*
X92723810Y-142433723D02*
X92685715Y-142548009D01*
X92685715Y-142548009D02*
X92609524Y-142624200D01*
X92609524Y-142624200D02*
X92495239Y-142662295D01*
X92495239Y-142662295D02*
X92419048Y-142662295D01*
X93028572Y-141862295D02*
X93561906Y-141862295D01*
X93561906Y-141862295D02*
X93219048Y-142662295D01*
X94476192Y-142662295D02*
X94476192Y-141862295D01*
X94857144Y-142662295D02*
X94857144Y-141862295D01*
X94857144Y-141862295D02*
X95314287Y-142662295D01*
X95314287Y-142662295D02*
X95314287Y-141862295D01*
X95695239Y-142662295D02*
X95695239Y-141862295D01*
X95695239Y-141862295D02*
X95885715Y-141862295D01*
X95885715Y-141862295D02*
X96000001Y-141900390D01*
X96000001Y-141900390D02*
X96076191Y-141976580D01*
X96076191Y-141976580D02*
X96114286Y-142052771D01*
X96114286Y-142052771D02*
X96152382Y-142205152D01*
X96152382Y-142205152D02*
X96152382Y-142319438D01*
X96152382Y-142319438D02*
X96114286Y-142471819D01*
X96114286Y-142471819D02*
X96076191Y-142548009D01*
X96076191Y-142548009D02*
X96000001Y-142624200D01*
X96000001Y-142624200D02*
X95885715Y-142662295D01*
X95885715Y-142662295D02*
X95695239Y-142662295D01*
X96495239Y-141862295D02*
X96495239Y-142509914D01*
X96495239Y-142509914D02*
X96533334Y-142586104D01*
X96533334Y-142586104D02*
X96571429Y-142624200D01*
X96571429Y-142624200D02*
X96647620Y-142662295D01*
X96647620Y-142662295D02*
X96800001Y-142662295D01*
X96800001Y-142662295D02*
X96876191Y-142624200D01*
X96876191Y-142624200D02*
X96914286Y-142586104D01*
X96914286Y-142586104D02*
X96952382Y-142509914D01*
X96952382Y-142509914D02*
X96952382Y-141862295D01*
X97295238Y-142624200D02*
X97409524Y-142662295D01*
X97409524Y-142662295D02*
X97600000Y-142662295D01*
X97600000Y-142662295D02*
X97676191Y-142624200D01*
X97676191Y-142624200D02*
X97714286Y-142586104D01*
X97714286Y-142586104D02*
X97752381Y-142509914D01*
X97752381Y-142509914D02*
X97752381Y-142433723D01*
X97752381Y-142433723D02*
X97714286Y-142357533D01*
X97714286Y-142357533D02*
X97676191Y-142319438D01*
X97676191Y-142319438D02*
X97600000Y-142281342D01*
X97600000Y-142281342D02*
X97447619Y-142243247D01*
X97447619Y-142243247D02*
X97371429Y-142205152D01*
X97371429Y-142205152D02*
X97333334Y-142167057D01*
X97333334Y-142167057D02*
X97295238Y-142090866D01*
X97295238Y-142090866D02*
X97295238Y-142014676D01*
X97295238Y-142014676D02*
X97333334Y-141938485D01*
X97333334Y-141938485D02*
X97371429Y-141900390D01*
X97371429Y-141900390D02*
X97447619Y-141862295D01*
X97447619Y-141862295D02*
X97638096Y-141862295D01*
X97638096Y-141862295D02*
X97752381Y-141900390D01*
X97980953Y-141862295D02*
X98438096Y-141862295D01*
X98209524Y-142662295D02*
X98209524Y-141862295D01*
X99161906Y-142662295D02*
X98895239Y-142281342D01*
X98704763Y-142662295D02*
X98704763Y-141862295D01*
X98704763Y-141862295D02*
X99009525Y-141862295D01*
X99009525Y-141862295D02*
X99085715Y-141900390D01*
X99085715Y-141900390D02*
X99123810Y-141938485D01*
X99123810Y-141938485D02*
X99161906Y-142014676D01*
X99161906Y-142014676D02*
X99161906Y-142128961D01*
X99161906Y-142128961D02*
X99123810Y-142205152D01*
X99123810Y-142205152D02*
X99085715Y-142243247D01*
X99085715Y-142243247D02*
X99009525Y-142281342D01*
X99009525Y-142281342D02*
X98704763Y-142281342D01*
X99504763Y-142662295D02*
X99504763Y-141862295D01*
X99847619Y-142433723D02*
X100228572Y-142433723D01*
X99771429Y-142662295D02*
X100038096Y-141862295D01*
X100038096Y-141862295D02*
X100304762Y-142662295D01*
X100952381Y-142662295D02*
X100571429Y-142662295D01*
X100571429Y-142662295D02*
X100571429Y-141862295D01*
X101828572Y-142662295D02*
X101828572Y-141862295D01*
X102780952Y-141824200D02*
X102095238Y-142852771D01*
X103200000Y-141862295D02*
X103352381Y-141862295D01*
X103352381Y-141862295D02*
X103428571Y-141900390D01*
X103428571Y-141900390D02*
X103504762Y-141976580D01*
X103504762Y-141976580D02*
X103542857Y-142128961D01*
X103542857Y-142128961D02*
X103542857Y-142395628D01*
X103542857Y-142395628D02*
X103504762Y-142548009D01*
X103504762Y-142548009D02*
X103428571Y-142624200D01*
X103428571Y-142624200D02*
X103352381Y-142662295D01*
X103352381Y-142662295D02*
X103200000Y-142662295D01*
X103200000Y-142662295D02*
X103123809Y-142624200D01*
X103123809Y-142624200D02*
X103047619Y-142548009D01*
X103047619Y-142548009D02*
X103009523Y-142395628D01*
X103009523Y-142395628D02*
X103009523Y-142128961D01*
X103009523Y-142128961D02*
X103047619Y-141976580D01*
X103047619Y-141976580D02*
X103123809Y-141900390D01*
X103123809Y-141900390D02*
X103200000Y-141862295D01*
X98890476Y-77562295D02*
X98890476Y-78209914D01*
X98890476Y-78209914D02*
X98928571Y-78286104D01*
X98928571Y-78286104D02*
X98966666Y-78324200D01*
X98966666Y-78324200D02*
X99042857Y-78362295D01*
X99042857Y-78362295D02*
X99195238Y-78362295D01*
X99195238Y-78362295D02*
X99271428Y-78324200D01*
X99271428Y-78324200D02*
X99309523Y-78286104D01*
X99309523Y-78286104D02*
X99347619Y-78209914D01*
X99347619Y-78209914D02*
X99347619Y-77562295D01*
X100071428Y-77562295D02*
X99919047Y-77562295D01*
X99919047Y-77562295D02*
X99842856Y-77600390D01*
X99842856Y-77600390D02*
X99804761Y-77638485D01*
X99804761Y-77638485D02*
X99728571Y-77752771D01*
X99728571Y-77752771D02*
X99690475Y-77905152D01*
X99690475Y-77905152D02*
X99690475Y-78209914D01*
X99690475Y-78209914D02*
X99728571Y-78286104D01*
X99728571Y-78286104D02*
X99766666Y-78324200D01*
X99766666Y-78324200D02*
X99842856Y-78362295D01*
X99842856Y-78362295D02*
X99995237Y-78362295D01*
X99995237Y-78362295D02*
X100071428Y-78324200D01*
X100071428Y-78324200D02*
X100109523Y-78286104D01*
X100109523Y-78286104D02*
X100147618Y-78209914D01*
X100147618Y-78209914D02*
X100147618Y-78019438D01*
X100147618Y-78019438D02*
X100109523Y-77943247D01*
X100109523Y-77943247D02*
X100071428Y-77905152D01*
X100071428Y-77905152D02*
X99995237Y-77867057D01*
X99995237Y-77867057D02*
X99842856Y-77867057D01*
X99842856Y-77867057D02*
X99766666Y-77905152D01*
X99766666Y-77905152D02*
X99728571Y-77943247D01*
X99728571Y-77943247D02*
X99690475Y-78019438D01*
X99733333Y-61062295D02*
X99733333Y-61633723D01*
X99733333Y-61633723D02*
X99695238Y-61748009D01*
X99695238Y-61748009D02*
X99619047Y-61824200D01*
X99619047Y-61824200D02*
X99504762Y-61862295D01*
X99504762Y-61862295D02*
X99428571Y-61862295D01*
X100038095Y-61062295D02*
X100533333Y-61062295D01*
X100533333Y-61062295D02*
X100266667Y-61367057D01*
X100266667Y-61367057D02*
X100380952Y-61367057D01*
X100380952Y-61367057D02*
X100457143Y-61405152D01*
X100457143Y-61405152D02*
X100495238Y-61443247D01*
X100495238Y-61443247D02*
X100533333Y-61519438D01*
X100533333Y-61519438D02*
X100533333Y-61709914D01*
X100533333Y-61709914D02*
X100495238Y-61786104D01*
X100495238Y-61786104D02*
X100457143Y-61824200D01*
X100457143Y-61824200D02*
X100380952Y-61862295D01*
X100380952Y-61862295D02*
X100152381Y-61862295D01*
X100152381Y-61862295D02*
X100076190Y-61824200D01*
X100076190Y-61824200D02*
X100038095Y-61786104D01*
X104009524Y-131562295D02*
X104009524Y-132209914D01*
X104009524Y-132209914D02*
X104047619Y-132286104D01*
X104047619Y-132286104D02*
X104085714Y-132324200D01*
X104085714Y-132324200D02*
X104161905Y-132362295D01*
X104161905Y-132362295D02*
X104314286Y-132362295D01*
X104314286Y-132362295D02*
X104390476Y-132324200D01*
X104390476Y-132324200D02*
X104428571Y-132286104D01*
X104428571Y-132286104D02*
X104466667Y-132209914D01*
X104466667Y-132209914D02*
X104466667Y-131562295D01*
X105266666Y-132362295D02*
X104809523Y-132362295D01*
X105038095Y-132362295D02*
X105038095Y-131562295D01*
X105038095Y-131562295D02*
X104961904Y-131676580D01*
X104961904Y-131676580D02*
X104885714Y-131752771D01*
X104885714Y-131752771D02*
X104809523Y-131790866D01*
X105952381Y-131828961D02*
X105952381Y-132362295D01*
X105761905Y-131524200D02*
X105571428Y-132095628D01*
X105571428Y-132095628D02*
X106066667Y-132095628D01*
X105690476Y-107562295D02*
X105690476Y-108209914D01*
X105690476Y-108209914D02*
X105728571Y-108286104D01*
X105728571Y-108286104D02*
X105766666Y-108324200D01*
X105766666Y-108324200D02*
X105842857Y-108362295D01*
X105842857Y-108362295D02*
X105995238Y-108362295D01*
X105995238Y-108362295D02*
X106071428Y-108324200D01*
X106071428Y-108324200D02*
X106109523Y-108286104D01*
X106109523Y-108286104D02*
X106147619Y-108209914D01*
X106147619Y-108209914D02*
X106147619Y-107562295D01*
X106642856Y-107905152D02*
X106566666Y-107867057D01*
X106566666Y-107867057D02*
X106528571Y-107828961D01*
X106528571Y-107828961D02*
X106490475Y-107752771D01*
X106490475Y-107752771D02*
X106490475Y-107714676D01*
X106490475Y-107714676D02*
X106528571Y-107638485D01*
X106528571Y-107638485D02*
X106566666Y-107600390D01*
X106566666Y-107600390D02*
X106642856Y-107562295D01*
X106642856Y-107562295D02*
X106795237Y-107562295D01*
X106795237Y-107562295D02*
X106871428Y-107600390D01*
X106871428Y-107600390D02*
X106909523Y-107638485D01*
X106909523Y-107638485D02*
X106947618Y-107714676D01*
X106947618Y-107714676D02*
X106947618Y-107752771D01*
X106947618Y-107752771D02*
X106909523Y-107828961D01*
X106909523Y-107828961D02*
X106871428Y-107867057D01*
X106871428Y-107867057D02*
X106795237Y-107905152D01*
X106795237Y-107905152D02*
X106642856Y-107905152D01*
X106642856Y-107905152D02*
X106566666Y-107943247D01*
X106566666Y-107943247D02*
X106528571Y-107981342D01*
X106528571Y-107981342D02*
X106490475Y-108057533D01*
X106490475Y-108057533D02*
X106490475Y-108209914D01*
X106490475Y-108209914D02*
X106528571Y-108286104D01*
X106528571Y-108286104D02*
X106566666Y-108324200D01*
X106566666Y-108324200D02*
X106642856Y-108362295D01*
X106642856Y-108362295D02*
X106795237Y-108362295D01*
X106795237Y-108362295D02*
X106871428Y-108324200D01*
X106871428Y-108324200D02*
X106909523Y-108286104D01*
X106909523Y-108286104D02*
X106947618Y-108209914D01*
X106947618Y-108209914D02*
X106947618Y-108057533D01*
X106947618Y-108057533D02*
X106909523Y-107981342D01*
X106909523Y-107981342D02*
X106871428Y-107943247D01*
X106871428Y-107943247D02*
X106795237Y-107905152D01*
X106890476Y-109262295D02*
X106890476Y-109909914D01*
X106890476Y-109909914D02*
X106928571Y-109986104D01*
X106928571Y-109986104D02*
X106966666Y-110024200D01*
X106966666Y-110024200D02*
X107042857Y-110062295D01*
X107042857Y-110062295D02*
X107195238Y-110062295D01*
X107195238Y-110062295D02*
X107271428Y-110024200D01*
X107271428Y-110024200D02*
X107309523Y-109986104D01*
X107309523Y-109986104D02*
X107347619Y-109909914D01*
X107347619Y-109909914D02*
X107347619Y-109262295D01*
X107766666Y-110062295D02*
X107919047Y-110062295D01*
X107919047Y-110062295D02*
X107995237Y-110024200D01*
X107995237Y-110024200D02*
X108033333Y-109986104D01*
X108033333Y-109986104D02*
X108109523Y-109871819D01*
X108109523Y-109871819D02*
X108147618Y-109719438D01*
X108147618Y-109719438D02*
X108147618Y-109414676D01*
X108147618Y-109414676D02*
X108109523Y-109338485D01*
X108109523Y-109338485D02*
X108071428Y-109300390D01*
X108071428Y-109300390D02*
X107995237Y-109262295D01*
X107995237Y-109262295D02*
X107842856Y-109262295D01*
X107842856Y-109262295D02*
X107766666Y-109300390D01*
X107766666Y-109300390D02*
X107728571Y-109338485D01*
X107728571Y-109338485D02*
X107690475Y-109414676D01*
X107690475Y-109414676D02*
X107690475Y-109605152D01*
X107690475Y-109605152D02*
X107728571Y-109681342D01*
X107728571Y-109681342D02*
X107766666Y-109719438D01*
X107766666Y-109719438D02*
X107842856Y-109757533D01*
X107842856Y-109757533D02*
X107995237Y-109757533D01*
X107995237Y-109757533D02*
X108071428Y-109719438D01*
X108071428Y-109719438D02*
X108109523Y-109681342D01*
X108109523Y-109681342D02*
X108147618Y-109605152D01*
X109009524Y-119562295D02*
X109009524Y-120209914D01*
X109009524Y-120209914D02*
X109047619Y-120286104D01*
X109047619Y-120286104D02*
X109085714Y-120324200D01*
X109085714Y-120324200D02*
X109161905Y-120362295D01*
X109161905Y-120362295D02*
X109314286Y-120362295D01*
X109314286Y-120362295D02*
X109390476Y-120324200D01*
X109390476Y-120324200D02*
X109428571Y-120286104D01*
X109428571Y-120286104D02*
X109466667Y-120209914D01*
X109466667Y-120209914D02*
X109466667Y-119562295D01*
X110266666Y-120362295D02*
X109809523Y-120362295D01*
X110038095Y-120362295D02*
X110038095Y-119562295D01*
X110038095Y-119562295D02*
X109961904Y-119676580D01*
X109961904Y-119676580D02*
X109885714Y-119752771D01*
X109885714Y-119752771D02*
X109809523Y-119790866D01*
X110533333Y-119562295D02*
X111028571Y-119562295D01*
X111028571Y-119562295D02*
X110761905Y-119867057D01*
X110761905Y-119867057D02*
X110876190Y-119867057D01*
X110876190Y-119867057D02*
X110952381Y-119905152D01*
X110952381Y-119905152D02*
X110990476Y-119943247D01*
X110990476Y-119943247D02*
X111028571Y-120019438D01*
X111028571Y-120019438D02*
X111028571Y-120209914D01*
X111028571Y-120209914D02*
X110990476Y-120286104D01*
X110990476Y-120286104D02*
X110952381Y-120324200D01*
X110952381Y-120324200D02*
X110876190Y-120362295D01*
X110876190Y-120362295D02*
X110647619Y-120362295D01*
X110647619Y-120362295D02*
X110571428Y-120324200D01*
X110571428Y-120324200D02*
X110533333Y-120286104D01*
X111009524Y-65012295D02*
X111009524Y-65659914D01*
X111009524Y-65659914D02*
X111047619Y-65736104D01*
X111047619Y-65736104D02*
X111085714Y-65774200D01*
X111085714Y-65774200D02*
X111161905Y-65812295D01*
X111161905Y-65812295D02*
X111314286Y-65812295D01*
X111314286Y-65812295D02*
X111390476Y-65774200D01*
X111390476Y-65774200D02*
X111428571Y-65736104D01*
X111428571Y-65736104D02*
X111466667Y-65659914D01*
X111466667Y-65659914D02*
X111466667Y-65012295D01*
X112266666Y-65812295D02*
X111809523Y-65812295D01*
X112038095Y-65812295D02*
X112038095Y-65012295D01*
X112038095Y-65012295D02*
X111961904Y-65126580D01*
X111961904Y-65126580D02*
X111885714Y-65202771D01*
X111885714Y-65202771D02*
X111809523Y-65240866D01*
X112990476Y-65012295D02*
X112609524Y-65012295D01*
X112609524Y-65012295D02*
X112571428Y-65393247D01*
X112571428Y-65393247D02*
X112609524Y-65355152D01*
X112609524Y-65355152D02*
X112685714Y-65317057D01*
X112685714Y-65317057D02*
X112876190Y-65317057D01*
X112876190Y-65317057D02*
X112952381Y-65355152D01*
X112952381Y-65355152D02*
X112990476Y-65393247D01*
X112990476Y-65393247D02*
X113028571Y-65469438D01*
X113028571Y-65469438D02*
X113028571Y-65659914D01*
X113028571Y-65659914D02*
X112990476Y-65736104D01*
X112990476Y-65736104D02*
X112952381Y-65774200D01*
X112952381Y-65774200D02*
X112876190Y-65812295D01*
X112876190Y-65812295D02*
X112685714Y-65812295D01*
X112685714Y-65812295D02*
X112609524Y-65774200D01*
X112609524Y-65774200D02*
X112571428Y-65736104D01*
X119390476Y-95562295D02*
X119390476Y-96209914D01*
X119390476Y-96209914D02*
X119428571Y-96286104D01*
X119428571Y-96286104D02*
X119466666Y-96324200D01*
X119466666Y-96324200D02*
X119542857Y-96362295D01*
X119542857Y-96362295D02*
X119695238Y-96362295D01*
X119695238Y-96362295D02*
X119771428Y-96324200D01*
X119771428Y-96324200D02*
X119809523Y-96286104D01*
X119809523Y-96286104D02*
X119847619Y-96209914D01*
X119847619Y-96209914D02*
X119847619Y-95562295D01*
X120152380Y-95562295D02*
X120685714Y-95562295D01*
X120685714Y-95562295D02*
X120342856Y-96362295D01*
X117428571Y-135562295D02*
X117428571Y-136133723D01*
X117428571Y-136133723D02*
X117390476Y-136248009D01*
X117390476Y-136248009D02*
X117314285Y-136324200D01*
X117314285Y-136324200D02*
X117200000Y-136362295D01*
X117200000Y-136362295D02*
X117123809Y-136362295D01*
X117771428Y-135638485D02*
X117809524Y-135600390D01*
X117809524Y-135600390D02*
X117885714Y-135562295D01*
X117885714Y-135562295D02*
X118076190Y-135562295D01*
X118076190Y-135562295D02*
X118152381Y-135600390D01*
X118152381Y-135600390D02*
X118190476Y-135638485D01*
X118190476Y-135638485D02*
X118228571Y-135714676D01*
X118228571Y-135714676D02*
X118228571Y-135790866D01*
X118228571Y-135790866D02*
X118190476Y-135905152D01*
X118190476Y-135905152D02*
X117733333Y-136362295D01*
X117733333Y-136362295D02*
X118228571Y-136362295D01*
X119180953Y-136362295D02*
X119180953Y-135562295D01*
X119180953Y-135562295D02*
X119447619Y-136133723D01*
X119447619Y-136133723D02*
X119714286Y-135562295D01*
X119714286Y-135562295D02*
X119714286Y-136362295D01*
X120247620Y-135562295D02*
X120400001Y-135562295D01*
X120400001Y-135562295D02*
X120476191Y-135600390D01*
X120476191Y-135600390D02*
X120552382Y-135676580D01*
X120552382Y-135676580D02*
X120590477Y-135828961D01*
X120590477Y-135828961D02*
X120590477Y-136095628D01*
X120590477Y-136095628D02*
X120552382Y-136248009D01*
X120552382Y-136248009D02*
X120476191Y-136324200D01*
X120476191Y-136324200D02*
X120400001Y-136362295D01*
X120400001Y-136362295D02*
X120247620Y-136362295D01*
X120247620Y-136362295D02*
X120171429Y-136324200D01*
X120171429Y-136324200D02*
X120095239Y-136248009D01*
X120095239Y-136248009D02*
X120057143Y-136095628D01*
X120057143Y-136095628D02*
X120057143Y-135828961D01*
X120057143Y-135828961D02*
X120095239Y-135676580D01*
X120095239Y-135676580D02*
X120171429Y-135600390D01*
X120171429Y-135600390D02*
X120247620Y-135562295D01*
X120819048Y-135562295D02*
X121276191Y-135562295D01*
X121047619Y-136362295D02*
X121047619Y-135562295D01*
X121695239Y-135562295D02*
X121847620Y-135562295D01*
X121847620Y-135562295D02*
X121923810Y-135600390D01*
X121923810Y-135600390D02*
X122000001Y-135676580D01*
X122000001Y-135676580D02*
X122038096Y-135828961D01*
X122038096Y-135828961D02*
X122038096Y-136095628D01*
X122038096Y-136095628D02*
X122000001Y-136248009D01*
X122000001Y-136248009D02*
X121923810Y-136324200D01*
X121923810Y-136324200D02*
X121847620Y-136362295D01*
X121847620Y-136362295D02*
X121695239Y-136362295D01*
X121695239Y-136362295D02*
X121619048Y-136324200D01*
X121619048Y-136324200D02*
X121542858Y-136248009D01*
X121542858Y-136248009D02*
X121504762Y-136095628D01*
X121504762Y-136095628D02*
X121504762Y-135828961D01*
X121504762Y-135828961D02*
X121542858Y-135676580D01*
X121542858Y-135676580D02*
X121619048Y-135600390D01*
X121619048Y-135600390D02*
X121695239Y-135562295D01*
X122838096Y-136362295D02*
X122571429Y-135981342D01*
X122380953Y-136362295D02*
X122380953Y-135562295D01*
X122380953Y-135562295D02*
X122685715Y-135562295D01*
X122685715Y-135562295D02*
X122761905Y-135600390D01*
X122761905Y-135600390D02*
X122800000Y-135638485D01*
X122800000Y-135638485D02*
X122838096Y-135714676D01*
X122838096Y-135714676D02*
X122838096Y-135828961D01*
X122838096Y-135828961D02*
X122800000Y-135905152D01*
X122800000Y-135905152D02*
X122761905Y-135943247D01*
X122761905Y-135943247D02*
X122685715Y-135981342D01*
X122685715Y-135981342D02*
X122380953Y-135981342D01*
%TO.C,R98*%
D10*
X118727500Y-83237258D02*
X118727500Y-82762742D01*
X119772500Y-83237258D02*
X119772500Y-82762742D01*
%TO.C,R113*%
X77762742Y-93977500D02*
X78237258Y-93977500D01*
X77762742Y-95022500D02*
X78237258Y-95022500D01*
%TO.C,R101*%
X126977500Y-86737258D02*
X126977500Y-86262742D01*
X128022500Y-86737258D02*
X128022500Y-86262742D01*
%TO.C,Q11*%
D12*
X131999804Y-98150120D02*
G75*
G02*
X131600008Y-98150120I-199898J0D01*
G01*
X131600008Y-98150120D02*
G75*
G02*
X131999804Y-98150120I199898J0D01*
G01*
%TO.C,SW1*%
X82899922Y-140000000D02*
G75*
G02*
X81100078Y-140000000I-899922J0D01*
G01*
X81100078Y-140000000D02*
G75*
G02*
X82899922Y-140000000I899922J0D01*
G01*
%TO.C,R57*%
D10*
X91762742Y-112477500D02*
X92237258Y-112477500D01*
X91762742Y-113522500D02*
X92237258Y-113522500D01*
%TO.C,C36*%
D12*
X99425000Y-108875000D02*
X101675000Y-108875000D01*
X101675000Y-107125000D02*
X99425000Y-107125000D01*
X101675000Y-108875000D02*
X101675000Y-107125000D01*
%TO.C,R41*%
D10*
X104277500Y-100762742D02*
X104277500Y-101237258D01*
X105322500Y-100762742D02*
X105322500Y-101237258D01*
%TO.C,R2*%
X65762742Y-73477500D02*
X66237258Y-73477500D01*
X65762742Y-74522500D02*
X66237258Y-74522500D01*
%TO.C,R14*%
X88237258Y-78477500D02*
X87762742Y-78477500D01*
X88237258Y-79522500D02*
X87762742Y-79522500D01*
%TO.C,C26*%
D12*
X122925000Y-92475000D02*
X122925000Y-94725000D01*
X122925000Y-94725000D02*
X124675000Y-94725000D01*
X124675000Y-94725000D02*
X124675000Y-92475000D01*
%TO.C,C75*%
X83875000Y-98825000D02*
X83875000Y-100575000D01*
X83875000Y-100575000D02*
X86125000Y-100575000D01*
X86125000Y-98825000D02*
X83875000Y-98825000D01*
%TO.C,R55*%
D10*
X95762742Y-116477500D02*
X96237258Y-116477500D01*
X95762742Y-117522500D02*
X96237258Y-117522500D01*
%TO.C,C79*%
D12*
X118075000Y-93125000D02*
X118075000Y-94875000D01*
X118075000Y-94875000D02*
X120325000Y-94875000D01*
X120325000Y-93125000D02*
X118075000Y-93125000D01*
%TO.C,C70*%
X88475000Y-102600100D02*
X88475000Y-104850100D01*
X90225000Y-102600100D02*
X88475000Y-102600100D01*
X90225000Y-104850100D02*
X90225000Y-102600100D01*
%TO.C,R115*%
X112688879Y-119420906D02*
X112688879Y-121579094D01*
X112688879Y-121579094D02*
X114048795Y-121579094D01*
X114048795Y-119420906D02*
X112688879Y-119420906D01*
X115951205Y-119420906D02*
X117311121Y-119420906D01*
X117311121Y-119420906D02*
X117311121Y-121579094D01*
X117311121Y-121579094D02*
X115951205Y-121579094D01*
%TO.C,R51*%
D10*
X141437258Y-109577500D02*
X140962742Y-109577500D01*
X141437258Y-110622500D02*
X140962742Y-110622500D01*
%TO.C,R19*%
X101262742Y-78477500D02*
X101737258Y-78477500D01*
X101262742Y-79522500D02*
X101737258Y-79522500D01*
%TO.C,C22*%
D12*
X126249797Y-72000000D02*
G75*
G02*
X113749949Y-72000000I-6249924J0D01*
G01*
X113749949Y-72000000D02*
G75*
G02*
X126249797Y-72000000I6249924J0D01*
G01*
%TO.C,C76*%
X83875000Y-101425000D02*
X83875000Y-103175000D01*
X83875000Y-103175000D02*
X86125000Y-103175000D01*
X86125000Y-101425000D02*
X83875000Y-101425000D01*
%TO.C,R33*%
D10*
X113737258Y-78977500D02*
X113262742Y-78977500D01*
X113737258Y-80022500D02*
X113262742Y-80022500D01*
%TO.C,R112*%
X79262742Y-103477500D02*
X79737258Y-103477500D01*
X79262742Y-104522500D02*
X79737258Y-104522500D01*
%TO.C,C92*%
D12*
X86400000Y-63087500D02*
X86400000Y-65625000D01*
X86400000Y-65625000D02*
X88600000Y-65625000D01*
X88600000Y-65625000D02*
X88600000Y-63087500D01*
%TO.C,R67*%
D10*
X98762742Y-125477500D02*
X99237258Y-125477500D01*
X98762742Y-126522500D02*
X99237258Y-126522500D01*
%TO.C,C59*%
D12*
X59575000Y-117125000D02*
X59575000Y-118875000D01*
X59575000Y-118875000D02*
X61825000Y-118875000D01*
X61825000Y-117125000D02*
X59575000Y-117125000D01*
%TO.C,R17*%
D10*
X77512742Y-96727500D02*
X77987258Y-96727500D01*
X77512742Y-97772500D02*
X77987258Y-97772500D01*
%TO.C,R13*%
X83762742Y-79022500D02*
X84237258Y-79022500D01*
%TO.C,C12*%
D12*
X71490000Y-96346100D02*
X71490000Y-98596100D01*
X73240000Y-96346100D02*
X71490000Y-96346100D01*
X73240000Y-98596100D02*
X73240000Y-96346100D01*
%TO.C,R23*%
D10*
X96737258Y-76477500D02*
X96262742Y-76477500D01*
X96737258Y-77522500D02*
X96262742Y-77522500D01*
%TO.C,C74*%
D12*
X84375000Y-94175000D02*
X84375000Y-96425000D01*
X84375000Y-96425000D02*
X86125000Y-96425000D01*
X86125000Y-96425000D02*
X86125000Y-94175000D01*
%TO.C,U20*%
X76245114Y-127016000D02*
G75*
G02*
X75944886Y-127016000I-150114J0D01*
G01*
X75944886Y-127016000D02*
G75*
G02*
X76245114Y-127016000I150114J0D01*
G01*
%TO.C,C77*%
X85925000Y-104175000D02*
X85925000Y-106425000D01*
X85925000Y-106425000D02*
X87675000Y-106425000D01*
X87675000Y-106425000D02*
X87675000Y-104175000D01*
%TO.C,C42*%
X113575000Y-63625000D02*
X113575000Y-65375000D01*
X113575000Y-65375000D02*
X115825000Y-65375000D01*
X115825000Y-63625000D02*
X113575000Y-63625000D01*
%TO.C,R30*%
D10*
X111737258Y-76477500D02*
X111262742Y-76477500D01*
X111737258Y-77522500D02*
X111262742Y-77522500D01*
%TO.C,Q6*%
D12*
X116999992Y-93849880D02*
G75*
G02*
X116600196Y-93849880I-199898J0D01*
G01*
X116600196Y-93849880D02*
G75*
G02*
X116999992Y-93849880I199898J0D01*
G01*
%TO.C,R104*%
D10*
X97737258Y-94477500D02*
X97262742Y-94477500D01*
X97737258Y-95522500D02*
X97262742Y-95522500D01*
%TO.C,R24*%
X96262742Y-72477500D02*
X96737258Y-72477500D01*
X96262742Y-73522500D02*
X96737258Y-73522500D01*
%TO.C,R6*%
X68512742Y-77977500D02*
X68987258Y-77977500D01*
X68512742Y-79022500D02*
X68987258Y-79022500D01*
%TO.C,R53*%
X140962742Y-111777500D02*
X141437258Y-111777500D01*
X140962742Y-112822500D02*
X141437258Y-112822500D01*
%TO.C,R58*%
X99762742Y-111477500D02*
X100237258Y-111477500D01*
X99762742Y-112522500D02*
X100237258Y-112522500D01*
%TO.C,R80*%
X91762742Y-123227500D02*
X92237258Y-123227500D01*
X91762742Y-124272500D02*
X92237258Y-124272500D01*
%TO.C,R29*%
X102487258Y-85227500D02*
X102012742Y-85227500D01*
X102487258Y-86272500D02*
X102012742Y-86272500D01*
%TO.C,R108*%
X84012742Y-81477500D02*
X84487258Y-81477500D01*
%TO.C,C27*%
D12*
X122150000Y-106575000D02*
X122150000Y-109112500D01*
X124350000Y-106575000D02*
X122150000Y-106575000D01*
X124350000Y-109112500D02*
X124350000Y-106575000D01*
%TO.C,R118*%
D10*
X129477500Y-128262742D02*
X129477500Y-128737258D01*
X130522500Y-128262742D02*
X130522500Y-128737258D01*
%TO.C,C3*%
D12*
X78625000Y-73825000D02*
X78625000Y-76075000D01*
X80375000Y-73825000D02*
X78625000Y-73825000D01*
X80375000Y-76075000D02*
X80375000Y-73825000D01*
%TO.C,R73*%
D10*
X91762742Y-127227500D02*
X92237258Y-127227500D01*
X91762742Y-128272500D02*
X92237258Y-128272500D01*
%TO.C,R47*%
X129577500Y-105537258D02*
X129577500Y-105062742D01*
X130622500Y-105537258D02*
X130622500Y-105062742D01*
%TO.C,C91*%
D12*
X84320000Y-65125000D02*
X86100000Y-65125000D01*
X86100000Y-65125000D02*
X86100000Y-62587500D01*
%TO.C,C43*%
X108025000Y-76575000D02*
X108025000Y-78825000D01*
X109775000Y-76575000D02*
X108025000Y-76575000D01*
X109775000Y-78825000D02*
X109775000Y-76575000D01*
%TO.C,R1*%
D10*
X88262742Y-60977500D02*
X88737258Y-60977500D01*
X88262742Y-62022500D02*
X88737258Y-62022500D01*
%TO.C,C87*%
D12*
X71150000Y-70587500D02*
X71150000Y-72445669D01*
X71150000Y-72895226D02*
X71150000Y-73125000D01*
X71150000Y-73125000D02*
X73350000Y-73125000D01*
X73350000Y-73125000D02*
X73350000Y-70587500D01*
%TO.C,R68*%
D10*
X112027500Y-71237258D02*
X112027500Y-70762742D01*
X113072500Y-71237258D02*
X113072500Y-70762742D01*
%TO.C,C37*%
D12*
X103425000Y-113875000D02*
X105675000Y-113875000D01*
X105675000Y-112125000D02*
X103425000Y-112125000D01*
X105675000Y-113875000D02*
X105675000Y-112125000D01*
%TO.C,C4*%
X77075000Y-79125000D02*
X77075000Y-80875000D01*
X77075000Y-80875000D02*
X79155000Y-80875000D01*
X79325000Y-79125000D02*
X77075000Y-79125000D01*
%TO.C,R83*%
D10*
X116262742Y-130477500D02*
X116737258Y-130477500D01*
X116262742Y-131522500D02*
X116737258Y-131522500D01*
%TO.C,R90*%
X126762742Y-130477500D02*
X127237258Y-130477500D01*
X126762742Y-131522500D02*
X127237258Y-131522500D01*
%TO.C,C48*%
D12*
X86075000Y-113125000D02*
X86075000Y-114875000D01*
X86075000Y-114875000D02*
X88325000Y-114875000D01*
X88325000Y-113125000D02*
X86075000Y-113125000D01*
%TO.C,R74*%
D10*
X99477500Y-94737258D02*
X99477500Y-94262742D01*
X100522500Y-94737258D02*
X100522500Y-94262742D01*
%TO.C,C58*%
D12*
X63075000Y-117125000D02*
X63075000Y-118875000D01*
X63075000Y-118875000D02*
X65325000Y-118875000D01*
X65325000Y-117125000D02*
X63075000Y-117125000D01*
%TO.C,Q2*%
X81865032Y-79599848D02*
X81865032Y-80399923D01*
X81865032Y-80399923D02*
X81975039Y-80399923D01*
X81975039Y-79599848D02*
X81865032Y-79599848D01*
X81975090Y-80399923D02*
X82146794Y-80399923D01*
X82145372Y-79599899D02*
X81975090Y-79599899D01*
X82353423Y-80399923D02*
X82424975Y-80399923D01*
X82353423Y-80399923D02*
X82462262Y-80399923D01*
X82353423Y-80399923D02*
X82625152Y-80399923D01*
X82404706Y-79599899D02*
X82354922Y-79599899D01*
X82625965Y-79599899D02*
X82354922Y-79599899D01*
X82625965Y-79599899D02*
X82354922Y-79599899D01*
X82974910Y-80399923D02*
X83125100Y-80399923D01*
X83125100Y-79599899D02*
X82974097Y-79599899D01*
X83125100Y-79599899D02*
X82974097Y-79599899D01*
X83125100Y-80399923D02*
X83125100Y-79599899D01*
%TO.C,R54*%
D10*
X99762742Y-109477500D02*
X100237258Y-109477500D01*
X99762742Y-110522500D02*
X100237258Y-110522500D01*
%TO.C,R5*%
X71727500Y-61737258D02*
X71727500Y-61262742D01*
X72772500Y-61737258D02*
X72772500Y-61262742D01*
%TO.C,C25*%
D12*
X126300000Y-92587500D02*
X126300000Y-95125000D01*
X126300000Y-95125000D02*
X128500000Y-95125000D01*
X128500000Y-95125000D02*
X128500000Y-92587500D01*
%TO.C,R122*%
D10*
X78977500Y-69987258D02*
X78977500Y-69512742D01*
X80022500Y-69987258D02*
X80022500Y-69512742D01*
%TO.C,U12*%
D12*
X103649998Y-122949889D02*
X101849976Y-122949889D01*
X103649998Y-126049908D02*
X101849976Y-126049908D01*
X101480000Y-122849000D02*
G75*
G02*
X101226000Y-122849000I-127000J0D01*
G01*
X101226000Y-122849000D02*
G75*
G02*
X101480000Y-122849000I127000J0D01*
G01*
%TO.C,C88*%
X78625000Y-65075000D02*
X78625000Y-67325000D01*
X80375000Y-65075000D02*
X78625000Y-65075000D01*
X80375000Y-67195000D02*
X80375000Y-65075000D01*
%TO.C,U32*%
X123500003Y-122500005D02*
X123500003Y-127499995D01*
X123500003Y-122500005D02*
X124273433Y-122500005D01*
X124273433Y-122500005D02*
X124327228Y-122737443D01*
X124327228Y-122737443D02*
X124456333Y-122943848D01*
X124456333Y-122943848D02*
X124646297Y-123096113D01*
X124646297Y-123096113D02*
X124875855Y-123177194D01*
X124875855Y-123177194D02*
X125119310Y-123178016D01*
X125119310Y-123178016D02*
X125349409Y-123098485D01*
X125349409Y-123098485D02*
X125540396Y-122947505D01*
X125540396Y-122947505D02*
X125670892Y-122741977D01*
X125670892Y-122741977D02*
X125726288Y-122504907D01*
X126499997Y-122500005D02*
X125726288Y-122500005D01*
X126499997Y-122500005D02*
X126499997Y-127499995D01*
X126499997Y-127499995D02*
X123500003Y-127499995D01*
X124134114Y-123222000D02*
G75*
G02*
X123833886Y-123222000I-150114J0D01*
G01*
X123833886Y-123222000D02*
G75*
G02*
X124134114Y-123222000I150114J0D01*
G01*
%TO.C,U16*%
X76420839Y-115921069D02*
X76493933Y-115698039D01*
X76493933Y-115698039D02*
X76728636Y-115698039D01*
X76610014Y-116059987D02*
X76420839Y-115921069D01*
X76672600Y-108659900D02*
X77434600Y-108659900D01*
X76672600Y-115314700D02*
X76672600Y-108659900D01*
X76728636Y-115698039D02*
X76801729Y-115921069D01*
X76801729Y-115921069D02*
X76612554Y-116059987D01*
X77104400Y-108659900D02*
X83302000Y-108659900D01*
X83302000Y-108659900D02*
X83302000Y-115314700D01*
X83302000Y-115314700D02*
X76672600Y-115314700D01*
%TO.C,C21*%
X97287500Y-71775000D02*
X100975000Y-71775000D01*
X100975000Y-69225000D02*
X97287500Y-69225000D01*
X100975000Y-71775000D02*
X100975000Y-69225000D01*
%TO.C,R22*%
D10*
X105262742Y-74477500D02*
X105737258Y-74477500D01*
X105262742Y-75522500D02*
X105737258Y-75522500D01*
%TO.C,R12*%
X74737258Y-82977500D02*
X74262742Y-82977500D01*
X74737258Y-84022500D02*
X74262742Y-84022500D01*
%TO.C,R95*%
X139762742Y-89477500D02*
X140237258Y-89477500D01*
X139762742Y-90522500D02*
X140237258Y-90522500D01*
%TO.C,C23*%
D12*
X141249797Y-82000000D02*
G75*
G02*
X128749949Y-82000000I-6249924J0D01*
G01*
X128749949Y-82000000D02*
G75*
G02*
X141249797Y-82000000I6249924J0D01*
G01*
%TO.C,C83*%
X116075000Y-128325000D02*
X116075000Y-130075000D01*
X116075000Y-130075000D02*
X118325000Y-130075000D01*
X118325000Y-128325000D02*
X116075000Y-128325000D01*
%TO.C,C45*%
X80375000Y-117825000D02*
X80375000Y-120075000D01*
X82125000Y-117825000D02*
X80375000Y-117825000D01*
X82125000Y-120075000D02*
X82125000Y-117825000D01*
%TO.C,R42*%
D10*
X106962742Y-114377500D02*
X107437258Y-114377500D01*
X106962742Y-115422500D02*
X107437258Y-115422500D01*
%TO.C,U8*%
D12*
X105143000Y-109270000D02*
G75*
G02*
X104889000Y-109270000I-127000J0D01*
G01*
X104889000Y-109270000D02*
G75*
G02*
X105143000Y-109270000I127000J0D01*
G01*
%TO.C,R85*%
D10*
X115737258Y-132977500D02*
X115262742Y-132977500D01*
X115737258Y-134022500D02*
X115262742Y-134022500D01*
%TO.C,C18*%
D12*
X104075000Y-72125000D02*
X104075000Y-73875000D01*
X104075000Y-73875000D02*
X106325000Y-73875000D01*
X106325000Y-72125000D02*
X104075000Y-72125000D01*
%TO.C,C2*%
X69625000Y-70425000D02*
X69625000Y-71195000D01*
X69625000Y-72305000D02*
X69625000Y-72675000D01*
X69625000Y-72675000D02*
X71375000Y-72675000D01*
X71375000Y-72675000D02*
X71375000Y-70425000D01*
%TO.C,R20*%
D10*
X102762742Y-70477500D02*
X103237258Y-70477500D01*
X102762742Y-71522500D02*
X103237258Y-71522500D01*
%TO.C,C16*%
D12*
X83587500Y-84850000D02*
X86125000Y-84850000D01*
X86125000Y-82650000D02*
X83587500Y-82650000D01*
X86125000Y-84850000D02*
X86125000Y-82650000D01*
%TO.C,C86*%
X79025000Y-71225000D02*
X79025000Y-73605000D01*
X80593936Y-73775000D02*
X82712500Y-73775000D01*
X82712500Y-71225000D02*
X79025000Y-71225000D01*
%TO.C,U27*%
X94310134Y-104280034D02*
G75*
G02*
X94210058Y-104280034I-50038J0D01*
G01*
X94210058Y-104280034D02*
G75*
G02*
X94310134Y-104280034I50038J0D01*
G01*
X94960120Y-104570102D02*
G75*
G02*
X94860044Y-104570102I-50038J0D01*
G01*
X94860044Y-104570102D02*
G75*
G02*
X94960120Y-104570102I50038J0D01*
G01*
%TO.C,C31*%
X127925000Y-111175000D02*
X127925000Y-113425000D01*
X127925000Y-113425000D02*
X129675000Y-113425000D01*
X129675000Y-113425000D02*
X129675000Y-111175000D01*
%TO.C,R86*%
D10*
X118512742Y-133477500D02*
X118987258Y-133477500D01*
X118512742Y-134522500D02*
X118987258Y-134522500D01*
%TO.C,U18*%
D12*
X101829892Y-98889995D02*
G75*
G02*
X101430096Y-98889995I-199898J0D01*
G01*
X101430096Y-98889995D02*
G75*
G02*
X101829892Y-98889995I199898J0D01*
G01*
%TO.C,U29*%
X119524842Y-91212676D02*
X120474802Y-91212676D01*
X119524842Y-92787476D02*
X120474802Y-92787476D01*
X120900049Y-92930021D02*
G75*
G02*
X120780161Y-92930021I-59944J0D01*
G01*
X120780161Y-92930021D02*
G75*
G02*
X120900049Y-92930021I59944J0D01*
G01*
%TO.C,C33*%
X126400000Y-106575000D02*
X126400000Y-109112500D01*
X128600000Y-106575000D02*
X126400000Y-106575000D01*
X128600000Y-109112500D02*
X128600000Y-106575000D01*
%TO.C,U24*%
X88979936Y-100910082D02*
G75*
G02*
X88879860Y-100910082I-50038J0D01*
G01*
X88879860Y-100910082D02*
G75*
G02*
X88979936Y-100910082I50038J0D01*
G01*
X89270004Y-100260096D02*
G75*
G02*
X89169928Y-100260096I-50038J0D01*
G01*
X89169928Y-100260096D02*
G75*
G02*
X89270004Y-100260096I50038J0D01*
G01*
%TO.C,C72*%
X75925000Y-84375000D02*
X73675000Y-84375000D01*
X75925000Y-85925000D02*
X75925000Y-84375000D01*
%TO.C,U21*%
X59443114Y-113167000D02*
G75*
G02*
X59142886Y-113167000I-150114J0D01*
G01*
X59142886Y-113167000D02*
G75*
G02*
X59443114Y-113167000I150114J0D01*
G01*
X60205114Y-111269112D02*
G75*
G02*
X59904886Y-111269112I-150114J0D01*
G01*
X59904886Y-111269112D02*
G75*
G02*
X60205114Y-111269112I150114J0D01*
G01*
D13*
%TO.C,J7*%
X87000022Y-141499995D02*
X108999978Y-141499995D01*
X108999978Y-136500005D01*
X87000022Y-136500005D01*
X87000022Y-141499995D01*
%TO.C,R7*%
D10*
X81762742Y-75022500D02*
X82237258Y-75022500D01*
%TO.C,R28*%
X92762742Y-74477500D02*
X93237258Y-74477500D01*
X92762742Y-75522500D02*
X93237258Y-75522500D01*
%TO.C,R3*%
X71977500Y-67737258D02*
X71977500Y-67262742D01*
X73022500Y-67737258D02*
X73022500Y-67262742D01*
%TO.C,Q9*%
D12*
X116999992Y-109849880D02*
G75*
G02*
X116600196Y-109849880I-199898J0D01*
G01*
X116600196Y-109849880D02*
G75*
G02*
X116999992Y-109849880I199898J0D01*
G01*
%TO.C,C10*%
X83655000Y-77875000D02*
X84345000Y-77875000D01*
X85425000Y-76125000D02*
X83175000Y-76125000D01*
X85425000Y-77875000D02*
X85425000Y-76125000D01*
%TO.C,C13*%
X73575000Y-86125000D02*
X73575000Y-87875000D01*
X73575000Y-87875000D02*
X75825000Y-87875000D01*
X75825000Y-86125000D02*
X73575000Y-86125000D01*
%TO.C,Q3*%
X69865032Y-83099848D02*
X69865032Y-83899923D01*
X69865032Y-83899923D02*
X69975039Y-83899923D01*
X69975039Y-83099848D02*
X69865032Y-83099848D01*
X69975090Y-83899923D02*
X70146794Y-83899923D01*
X70145372Y-83099899D02*
X69975090Y-83099899D01*
X70353423Y-83899923D02*
X70424975Y-83899923D01*
X70353423Y-83899923D02*
X70462262Y-83899923D01*
X70353423Y-83899923D02*
X70625152Y-83899923D01*
X70404706Y-83099899D02*
X70354922Y-83099899D01*
X70625965Y-83099899D02*
X70354922Y-83099899D01*
X70625965Y-83099899D02*
X70354922Y-83099899D01*
X70974910Y-83899923D02*
X71125100Y-83899923D01*
X71125100Y-83099899D02*
X70974097Y-83099899D01*
X71125100Y-83099899D02*
X70974097Y-83099899D01*
X71125100Y-83899923D02*
X71125100Y-83099899D01*
%TO.C,Q10*%
X139599992Y-96849880D02*
G75*
G02*
X139200196Y-96849880I-199898J0D01*
G01*
X139200196Y-96849880D02*
G75*
G02*
X139599992Y-96849880I199898J0D01*
G01*
%TO.C,C39*%
X91175000Y-115875000D02*
X93425000Y-115875000D01*
X93425000Y-114125000D02*
X91175000Y-114125000D01*
X93425000Y-115875000D02*
X93425000Y-114125000D01*
%TO.C,R93*%
D10*
X129977500Y-112237258D02*
X129977500Y-111762742D01*
X131022500Y-112237258D02*
X131022500Y-111762742D01*
%TO.C,C84*%
D12*
X126075000Y-128325000D02*
X126075000Y-130075000D01*
X126075000Y-130075000D02*
X128325000Y-130075000D01*
X128325000Y-128325000D02*
X126075000Y-128325000D01*
%TO.C,R36*%
D10*
X114762742Y-86477500D02*
X115237258Y-86477500D01*
X114762742Y-87522500D02*
X115237258Y-87522500D01*
%TO.C,R32*%
X111262742Y-81477500D02*
X111737258Y-81477500D01*
X111262742Y-82522500D02*
X111737258Y-82522500D01*
%TO.C,R106*%
X69762742Y-103477500D02*
X70237258Y-103477500D01*
X69762742Y-104522500D02*
X70237258Y-104522500D01*
%TO.C,Q7*%
D12*
X109399804Y-94150120D02*
G75*
G02*
X109000008Y-94150120I-199898J0D01*
G01*
X109000008Y-94150120D02*
G75*
G02*
X109399804Y-94150120I199898J0D01*
G01*
%TO.C,R60*%
D10*
X107262742Y-118477500D02*
X107737258Y-118477500D01*
X107262742Y-119522500D02*
X107737258Y-119522500D01*
%TO.C,C24*%
D12*
X110125000Y-78675000D02*
X110125000Y-80925000D01*
X110125000Y-80925000D02*
X111875000Y-80925000D01*
X111875000Y-80925000D02*
X111875000Y-78675000D01*
%TO.C,C1*%
X68175000Y-81875000D02*
X70425000Y-81875000D01*
X70425000Y-80125000D02*
X68175000Y-80125000D01*
X70425000Y-81875000D02*
X70425000Y-80125000D01*
%TO.C,R88*%
D10*
X103762742Y-110477500D02*
X104237258Y-110477500D01*
X103762742Y-111522500D02*
X104237258Y-111522500D01*
%TO.C,R75*%
X59762742Y-122477500D02*
X60237258Y-122477500D01*
X59762742Y-123522500D02*
X60237258Y-123522500D01*
%TO.C,R107*%
X77987258Y-83477500D02*
X77512742Y-83477500D01*
X77987258Y-84522500D02*
X77512742Y-84522500D01*
%TO.C,Q13*%
D12*
X139599992Y-114849880D02*
G75*
G02*
X139200196Y-114849880I-199898J0D01*
G01*
X139200196Y-114849880D02*
G75*
G02*
X139599992Y-114849880I199898J0D01*
G01*
%TO.C,C28*%
X116275000Y-102625000D02*
X118525000Y-102625000D01*
X118525000Y-100875000D02*
X116275000Y-100875000D01*
X118525000Y-102625000D02*
X118525000Y-100875000D01*
%TO.C,R111*%
D10*
X71977500Y-102237258D02*
X71977500Y-101762742D01*
X73022500Y-102237258D02*
X73022500Y-101762742D01*
%TO.C,C41*%
D12*
X101075000Y-132125000D02*
X101075000Y-133875000D01*
X101075000Y-133875000D02*
X103325000Y-133875000D01*
X103325000Y-132125000D02*
X101075000Y-132125000D01*
%TO.C,C64*%
X89075000Y-84825000D02*
X89075000Y-86575000D01*
X89075000Y-86575000D02*
X91325000Y-86575000D01*
X91325000Y-84825000D02*
X89075000Y-84825000D01*
%TO.C,C69*%
X74175000Y-102675000D02*
X76425000Y-102675000D01*
X76425000Y-100925000D02*
X74175000Y-100925000D01*
X76425000Y-102675000D02*
X76425000Y-100925000D01*
%TO.C,R72*%
D10*
X72262742Y-113227500D02*
X72737258Y-113227500D01*
%TO.C,C32*%
D12*
X129350000Y-100375000D02*
X129350000Y-102912500D01*
X131550000Y-100375000D02*
X129350000Y-100375000D01*
X131550000Y-102912500D02*
X131550000Y-100375000D01*
%TO.C,C78*%
X93575000Y-105125000D02*
X93575000Y-106875000D01*
X93575000Y-106875000D02*
X94755000Y-106875000D01*
X95825000Y-105125000D02*
X93575000Y-105125000D01*
%TO.C,C52*%
X99125000Y-104125000D02*
X99125000Y-106375000D01*
X100875000Y-104125000D02*
X99125000Y-104125000D01*
X100875000Y-106375000D02*
X100875000Y-104125000D01*
%TO.C,C49*%
X83575000Y-118125000D02*
X83575000Y-119875000D01*
X83575000Y-119875000D02*
X85825000Y-119875000D01*
X85825000Y-118125000D02*
X83575000Y-118125000D01*
%TO.C,U31*%
X113500003Y-122500005D02*
X113500003Y-127499995D01*
X113500003Y-122500005D02*
X114273433Y-122500005D01*
X114273433Y-122500005D02*
X114327228Y-122737443D01*
X114327228Y-122737443D02*
X114456333Y-122943848D01*
X114456333Y-122943848D02*
X114646297Y-123096113D01*
X114646297Y-123096113D02*
X114875855Y-123177194D01*
X114875855Y-123177194D02*
X115119310Y-123178016D01*
X115119310Y-123178016D02*
X115349409Y-123098485D01*
X115349409Y-123098485D02*
X115540396Y-122947505D01*
X115540396Y-122947505D02*
X115670892Y-122741977D01*
X115670892Y-122741977D02*
X115726288Y-122504907D01*
X116499997Y-122500005D02*
X115726288Y-122500005D01*
X116499997Y-122500005D02*
X116499997Y-127499995D01*
X116499997Y-127499995D02*
X113500003Y-127499995D01*
X114134114Y-123222000D02*
G75*
G02*
X113833886Y-123222000I-150114J0D01*
G01*
X113833886Y-123222000D02*
G75*
G02*
X114134114Y-123222000I150114J0D01*
G01*
%TO.C,R119*%
D10*
X72237258Y-106477500D02*
X71762742Y-106477500D01*
X72237258Y-107522500D02*
X71762742Y-107522500D01*
%TO.C,R103*%
X88237258Y-81477500D02*
X87762742Y-81477500D01*
X88237258Y-82522500D02*
X87762742Y-82522500D01*
%TO.C,C73*%
D12*
X68075000Y-100875000D02*
X68075000Y-102625000D01*
X68075000Y-102625000D02*
X70325000Y-102625000D01*
X70325000Y-100875000D02*
X68075000Y-100875000D01*
%TO.C,C14*%
X71075000Y-87875000D02*
X73325000Y-87875000D01*
X73325000Y-86125000D02*
X71075000Y-86125000D01*
X73325000Y-87875000D02*
X73325000Y-86125000D01*
%TO.C,C66*%
X94087500Y-91100000D02*
X96625000Y-91100000D01*
X96625000Y-88900000D02*
X94087500Y-88900000D01*
X96625000Y-91100000D02*
X96625000Y-88900000D01*
%TO.C,C60*%
X59075000Y-104325000D02*
X59075000Y-106075000D01*
X59075000Y-106075000D02*
X61325000Y-106075000D01*
X61325000Y-104325000D02*
X59075000Y-104325000D01*
%TO.C,U6*%
X99222000Y-77540127D02*
G75*
G02*
X98968000Y-77540127I-127000J0D01*
G01*
X98968000Y-77540127D02*
G75*
G02*
X99222000Y-77540127I127000J0D01*
G01*
%TO.C,R70*%
D10*
X87737258Y-111477500D02*
X87262742Y-111477500D01*
X87737258Y-112522500D02*
X87262742Y-112522500D01*
%TO.C,C94*%
D12*
X104875000Y-122425000D02*
X104875000Y-124675000D01*
X104875000Y-124675000D02*
X106625000Y-124675000D01*
X106625000Y-124675000D02*
X106625000Y-122425000D01*
%TO.C,C80*%
X96075000Y-92125000D02*
X96075000Y-93875000D01*
X96075000Y-93875000D02*
X98325000Y-93875000D01*
X98325000Y-92125000D02*
X96075000Y-92125000D01*
%TO.C,D15*%
X67960811Y-99689203D02*
X67960811Y-97910797D01*
X71039189Y-99689203D02*
X71039189Y-97910797D01*
X67981842Y-100101496D02*
G75*
G02*
X67681614Y-100101496I-150114J0D01*
G01*
X67681614Y-100101496D02*
G75*
G02*
X67981842Y-100101496I150114J0D01*
G01*
%TO.C,R82*%
D10*
X119237258Y-119477500D02*
X118762742Y-119477500D01*
X119237258Y-120522500D02*
X118762742Y-120522500D01*
%TO.C,R81*%
X103977500Y-115737258D02*
X103977500Y-115262742D01*
X105022500Y-115737258D02*
X105022500Y-115262742D01*
%TO.C,R61*%
X112762742Y-116977500D02*
X113237258Y-116977500D01*
X112762742Y-118022500D02*
X113237258Y-118022500D01*
%TO.C,R69*%
X112027500Y-68037258D02*
X112027500Y-67562742D01*
X113072500Y-68037258D02*
X113072500Y-67562742D01*
%TO.C,R11*%
X81227500Y-76987258D02*
X81227500Y-76512742D01*
X82272500Y-76987258D02*
X82272500Y-76512742D01*
%TO.C,U1*%
D12*
X68703457Y-77404873D02*
G75*
G02*
X68503305Y-77404873I-100076J0D01*
G01*
X68503305Y-77404873D02*
G75*
G02*
X68703457Y-77404873I100076J0D01*
G01*
%TO.C,R15*%
D10*
X89227500Y-72987258D02*
X89227500Y-72512742D01*
X90272500Y-72987258D02*
X90272500Y-72512742D01*
%TO.C,C8*%
D12*
X75125000Y-79325000D02*
X75125000Y-81575000D01*
X76855000Y-79325000D02*
X75125000Y-79325000D01*
X76875000Y-81575000D02*
X76875000Y-80975000D01*
%TO.C,U23*%
X76979936Y-100910082D02*
G75*
G02*
X76879860Y-100910082I-50038J0D01*
G01*
X76879860Y-100910082D02*
G75*
G02*
X76979936Y-100910082I50038J0D01*
G01*
X77270004Y-100260096D02*
G75*
G02*
X77169928Y-100260096I-50038J0D01*
G01*
X77169928Y-100260096D02*
G75*
G02*
X77270004Y-100260096I50038J0D01*
G01*
%TO.C,R105*%
D10*
X68737258Y-94477500D02*
X68262742Y-94477500D01*
X68737258Y-95522500D02*
X68262742Y-95522500D01*
%TO.C,C11*%
D12*
X73725000Y-96275000D02*
X73725000Y-99962500D01*
X76275000Y-96275000D02*
X73725000Y-96275000D01*
X76275000Y-99962500D02*
X76275000Y-96275000D01*
%TO.C,R89*%
D10*
X125012742Y-133477500D02*
X125487258Y-133477500D01*
X125012742Y-134522500D02*
X125487258Y-134522500D01*
%TO.C,R87*%
X121762742Y-133477500D02*
X122237258Y-133477500D01*
X121762742Y-134522500D02*
X122237258Y-134522500D01*
%TO.C,R43*%
X117277500Y-107737258D02*
X117277500Y-107262742D01*
X118322500Y-107737258D02*
X118322500Y-107262742D01*
%TO.C,C54*%
D12*
X67775000Y-129375000D02*
X70025000Y-129375000D01*
X70025000Y-127625000D02*
X67775000Y-127625000D01*
X70025000Y-129375000D02*
X70025000Y-127625000D01*
%TO.C,U30*%
X92423803Y-93928603D02*
X95576197Y-93928603D01*
X92423803Y-96071397D02*
X92423803Y-93928603D01*
X95576197Y-93928603D02*
X95576197Y-96071397D01*
X95576197Y-96071397D02*
X92423803Y-96071397D01*
X92557788Y-97109978D02*
G75*
G02*
X92257560Y-97109978I-150114J0D01*
G01*
X92257560Y-97109978D02*
G75*
G02*
X92557788Y-97109978I150114J0D01*
G01*
X93150116Y-95319024D02*
G75*
G02*
X92849888Y-95319024I-150114J0D01*
G01*
X92849888Y-95319024D02*
G75*
G02*
X93150116Y-95319024I150114J0D01*
G01*
%TO.C,C46*%
X76375000Y-117825000D02*
X76375000Y-120075000D01*
X78125000Y-117825000D02*
X76375000Y-117825000D01*
X78125000Y-120075000D02*
X78125000Y-117825000D01*
%TO.C,R4*%
D10*
X88262742Y-59477500D02*
X88737258Y-59477500D01*
X88262742Y-60522500D02*
X88737258Y-60522500D01*
%TO.C,C29*%
D12*
X126125000Y-106775000D02*
X124575000Y-106775000D01*
X126125000Y-109025000D02*
X126125000Y-106775000D01*
%TO.C,C89*%
X71375000Y-63675000D02*
X71375000Y-65925000D01*
X71375000Y-65925000D02*
X73125000Y-65925000D01*
X73125000Y-65925000D02*
X73125000Y-63675000D01*
%TO.C,R64*%
D10*
X98762742Y-127477500D02*
X99237258Y-127477500D01*
X98762742Y-128522500D02*
X99237258Y-128522500D01*
%TO.C,R16*%
X79237258Y-92227500D02*
X78762742Y-92227500D01*
X79237258Y-93272500D02*
X78762742Y-93272500D01*
%TO.C,R102*%
X85762742Y-96977500D02*
X86237258Y-96977500D01*
X85762742Y-98022500D02*
X86237258Y-98022500D01*
%TO.C,R79*%
X88762742Y-131977500D02*
X89237258Y-131977500D01*
X88762742Y-133022500D02*
X89237258Y-133022500D01*
%TO.C,R45*%
X117277500Y-110762742D02*
X117277500Y-111237258D01*
X118322500Y-110762742D02*
X118322500Y-111237258D01*
%TO.C,U9*%
D12*
X108897000Y-110984000D02*
G75*
G02*
X108643000Y-110984000I-127000J0D01*
G01*
X108643000Y-110984000D02*
G75*
G02*
X108897000Y-110984000I127000J0D01*
G01*
%TO.C,C7*%
X73125000Y-79325000D02*
X73125000Y-81575000D01*
X74875000Y-79325000D02*
X73125000Y-79325000D01*
X74875000Y-81575000D02*
X74875000Y-79325000D01*
%TO.C,R100*%
D10*
X136262742Y-89477500D02*
X136737258Y-89477500D01*
X136262742Y-90522500D02*
X136737258Y-90522500D01*
%TO.C,R117*%
X119477500Y-128262742D02*
X119477500Y-128737258D01*
X120522500Y-128262742D02*
X120522500Y-128737258D01*
%TO.C,R21*%
X96262742Y-74477500D02*
X96737258Y-74477500D01*
X96262742Y-75522500D02*
X96737258Y-75522500D01*
%TO.C,C47*%
D12*
X70537500Y-117025000D02*
X74225000Y-117025000D01*
X74225000Y-114475000D02*
X70537500Y-114475000D01*
X74225000Y-117025000D02*
X74225000Y-114475000D01*
%TO.C,R84*%
D10*
X112012742Y-133477500D02*
X112487258Y-133477500D01*
X112012742Y-134522500D02*
X112487258Y-134522500D01*
%TO.C,U26*%
D12*
X83310134Y-105780034D02*
G75*
G02*
X83210058Y-105780034I-50038J0D01*
G01*
X83210058Y-105780034D02*
G75*
G02*
X83310134Y-105780034I50038J0D01*
G01*
X83960120Y-106070102D02*
G75*
G02*
X83860044Y-106070102I-50038J0D01*
G01*
X83860044Y-106070102D02*
G75*
G02*
X83960120Y-106070102I50038J0D01*
G01*
%TO.C,C55*%
X72425000Y-124375000D02*
X74675000Y-124375000D01*
X74675000Y-122625000D02*
X72425000Y-122625000D01*
X74675000Y-124375000D02*
X74675000Y-122625000D01*
%TO.C,C90*%
X81900000Y-62587500D02*
X81900000Y-65125000D01*
X81900000Y-65125000D02*
X84100000Y-65125000D01*
X84100000Y-65125000D02*
X84100000Y-62587500D01*
%TO.C,R96*%
D10*
X131227500Y-127512742D02*
X131227500Y-127987258D01*
X132272500Y-127512742D02*
X132272500Y-127987258D01*
%TO.C,U7*%
D14*
X126821432Y-98328682D02*
G75*
G02*
X126521204Y-98328682I-150114J0D01*
G01*
X126521204Y-98328682D02*
G75*
G02*
X126821432Y-98328682I150114J0D01*
G01*
D15*
X126850134Y-95700036D02*
G75*
G02*
X126649982Y-95700036I-100076J0D01*
G01*
X126649982Y-95700036D02*
G75*
G02*
X126850134Y-95700036I100076J0D01*
G01*
%TO.C,C30*%
D12*
X123375000Y-110400000D02*
X123375000Y-112600000D01*
X123375000Y-112600000D02*
X125912500Y-112600000D01*
X125912500Y-110400000D02*
X123375000Y-110400000D01*
%TO.C,C51*%
X81875000Y-121825000D02*
X81875000Y-124075000D01*
X83625000Y-121825000D02*
X81875000Y-121825000D01*
X83625000Y-124075000D02*
X83625000Y-121825000D01*
%TO.C,R92*%
D10*
X140477500Y-106237258D02*
X140477500Y-105762742D01*
X141522500Y-106237258D02*
X141522500Y-105762742D01*
%TO.C,R62*%
X111227500Y-120737258D02*
X111227500Y-120391257D01*
X112272500Y-120737258D02*
X112272500Y-120262742D01*
%TO.C,C38*%
D12*
X91175000Y-110875000D02*
X93425000Y-110875000D01*
X93425000Y-109125000D02*
X91175000Y-109125000D01*
X93425000Y-110875000D02*
X93425000Y-109125000D01*
%TO.C,C71*%
X74175000Y-105375000D02*
X76425000Y-105375000D01*
X76425000Y-103625000D02*
X74175000Y-103625000D01*
X76425000Y-105375000D02*
X76425000Y-103625000D01*
%TO.C,C34*%
X128600000Y-95325000D02*
X130600000Y-95325000D01*
X130600000Y-95325000D02*
X130600000Y-92787500D01*
%TO.C,U3*%
X84495114Y-71016000D02*
G75*
G02*
X84194886Y-71016000I-150114J0D01*
G01*
X84194886Y-71016000D02*
G75*
G02*
X84495114Y-71016000I150114J0D01*
G01*
%TO.C,R27*%
D10*
X104477500Y-81737258D02*
X104477500Y-81262742D01*
X105522500Y-81737258D02*
X105522500Y-81262742D01*
%TO.C,R26*%
X104762742Y-78477500D02*
X105237258Y-78477500D01*
X104762742Y-79522500D02*
X105237258Y-79522500D01*
%TO.C,C6*%
D12*
X71125000Y-78325000D02*
X71125000Y-80575000D01*
X72875000Y-78325000D02*
X71125000Y-78325000D01*
X72875000Y-80575000D02*
X72875000Y-78325000D01*
%TO.C,U15*%
X108481842Y-75301496D02*
G75*
G02*
X108181614Y-75301496I-150114J0D01*
G01*
X108181614Y-75301496D02*
G75*
G02*
X108481842Y-75301496I150114J0D01*
G01*
%TO.C,C63*%
X87490000Y-95096100D02*
X87490000Y-97346100D01*
X89240000Y-95096100D02*
X87490000Y-95096100D01*
X89240000Y-97346100D02*
X89240000Y-95096100D01*
%TO.C,L3*%
X73850000Y-57950000D02*
X81150000Y-57950000D01*
X73850000Y-59150000D02*
X73850000Y-57950000D01*
X73850000Y-63350000D02*
X73850000Y-64550000D01*
X73850000Y-64550000D02*
X81150000Y-64550000D01*
X81150000Y-57950000D02*
X81150000Y-59150000D01*
X81150000Y-64550000D02*
X81150000Y-63350000D01*
%TO.C,C56*%
X63075000Y-115125000D02*
X63075000Y-116875000D01*
X63075000Y-116875000D02*
X65325000Y-116875000D01*
X65325000Y-115125000D02*
X63075000Y-115125000D01*
%TO.C,Q4*%
X89350018Y-70800094D02*
G75*
G02*
X88950222Y-70800094I-199898J0D01*
G01*
X88950222Y-70800094D02*
G75*
G02*
X89350018Y-70800094I199898J0D01*
G01*
%TO.C,U28*%
X81100002Y-95450092D02*
X82900024Y-95450092D01*
X81100002Y-98550111D02*
X82900024Y-98550111D01*
X83524000Y-98651000D02*
G75*
G02*
X83270000Y-98651000I-127000J0D01*
G01*
X83270000Y-98651000D02*
G75*
G02*
X83524000Y-98651000I127000J0D01*
G01*
%TO.C,R56*%
D10*
X99762742Y-113477500D02*
X100237258Y-113477500D01*
X99762742Y-114522500D02*
X100237258Y-114522500D01*
%TO.C,C57*%
D12*
X59575000Y-115125000D02*
X59575000Y-116875000D01*
X59575000Y-116875000D02*
X61825000Y-116875000D01*
X61825000Y-115125000D02*
X59575000Y-115125000D01*
%TO.C,C40*%
X104175000Y-121875000D02*
X105195000Y-121875000D01*
X106425000Y-120125000D02*
X104175000Y-120125000D01*
X106425000Y-121875000D02*
X106425000Y-120125000D01*
%TO.C,R44*%
D10*
X107437258Y-116477500D02*
X106962742Y-116477500D01*
X107437258Y-117522500D02*
X106962742Y-117522500D01*
%TO.C,C61*%
D12*
X124895000Y-94725000D02*
X126075000Y-94725000D01*
%TO.C,C15*%
X79375000Y-82900000D02*
X79375000Y-84340000D01*
X79734646Y-85100000D02*
X80074311Y-85100000D01*
X80573819Y-85100000D02*
X81912500Y-85100000D01*
X81912500Y-82900000D02*
X79375000Y-82900000D01*
%TO.C,C17*%
X79375000Y-80900000D02*
X79375000Y-82680000D01*
X81912500Y-80900000D02*
X79375000Y-80900000D01*
%TO.C,R66*%
D10*
X87737258Y-133727500D02*
X87262742Y-133727500D01*
X87737258Y-134772500D02*
X87262742Y-134772500D01*
%TO.C,C68*%
D12*
X96375000Y-78900000D02*
X96375000Y-80310000D01*
X96674705Y-81100000D02*
X98912500Y-81100000D01*
X98912500Y-78900000D02*
X96375000Y-78900000D01*
%TO.C,R9*%
D10*
X68012742Y-71227500D02*
X68487258Y-71227500D01*
X68012742Y-72272500D02*
X68487258Y-72272500D01*
%TO.C,R78*%
X102262742Y-134227500D02*
X102737258Y-134227500D01*
X102262742Y-135272500D02*
X102737258Y-135272500D01*
%TO.C,R38*%
X119037258Y-88577500D02*
X118562742Y-88577500D01*
X119037258Y-89622500D02*
X118562742Y-89622500D01*
%TO.C,R40*%
X118562742Y-86477500D02*
X119037258Y-86477500D01*
X118562742Y-87522500D02*
X119037258Y-87522500D01*
%TO.C,C81*%
D12*
X119125000Y-123175000D02*
X119125000Y-125425000D01*
X119125000Y-125425000D02*
X120875000Y-125425000D01*
X120875000Y-125425000D02*
X120875000Y-123175000D01*
%TO.C,C50*%
X90575000Y-120125000D02*
X90575000Y-121875000D01*
X90575000Y-121875000D02*
X92825000Y-121875000D01*
X92825000Y-120125000D02*
X90575000Y-120125000D01*
%TO.C,R116*%
X122688879Y-119420906D02*
X122688879Y-121579094D01*
X122688879Y-121579094D02*
X124048795Y-121579094D01*
X124048795Y-119420906D02*
X122688879Y-119420906D01*
X125951205Y-119420906D02*
X127311121Y-119420906D01*
X127311121Y-119420906D02*
X127311121Y-121579094D01*
X127311121Y-121579094D02*
X125951205Y-121579094D01*
%TO.C,C62*%
X91775000Y-98225000D02*
X91775000Y-100775000D01*
X91775000Y-100775000D02*
X95462500Y-100775000D01*
X95462500Y-98225000D02*
X91775000Y-98225000D01*
%TO.C,C65*%
X86375000Y-86475000D02*
X88625000Y-86475000D01*
X88625000Y-84725000D02*
X86375000Y-84725000D01*
X88625000Y-86475000D02*
X88625000Y-84725000D01*
%TO.C,C44*%
X78375000Y-117825000D02*
X78375000Y-120075000D01*
X80125000Y-117825000D02*
X78375000Y-117825000D01*
X80125000Y-120075000D02*
X80125000Y-117825000D01*
%TO.C,R91*%
D10*
X133237258Y-89477500D02*
X132762742Y-89477500D01*
X133237258Y-90522500D02*
X132762742Y-90522500D01*
%TO.C,R37*%
X111737258Y-84977500D02*
X111262742Y-84977500D01*
X111737258Y-86022500D02*
X111262742Y-86022500D01*
%TO.C,R49*%
X129577500Y-108737258D02*
X129577500Y-108262742D01*
X130622500Y-108737258D02*
X130622500Y-108262742D01*
%TO.C,R31*%
X92762742Y-72477500D02*
X93237258Y-72477500D01*
X92762742Y-73522500D02*
X93237258Y-73522500D01*
%TO.C,R63*%
X109477500Y-117737258D02*
X109477500Y-117262742D01*
X110522500Y-117737258D02*
X110522500Y-117262742D01*
%TO.C,C20*%
D12*
X91575000Y-76305000D02*
X91575000Y-77875000D01*
X91575000Y-77875000D02*
X93825000Y-77875000D01*
X93825000Y-76125000D02*
X91685000Y-76125000D01*
%TO.C,C67*%
X93087500Y-81100000D02*
X95235384Y-81100000D01*
X95625000Y-78900000D02*
X93087500Y-78900000D01*
X95625000Y-80360000D02*
X95625000Y-78900000D01*
%TO.C,R65*%
D10*
X105762742Y-133477500D02*
X106237258Y-133477500D01*
X105762742Y-134522500D02*
X106237258Y-134522500D01*
%TO.C,R25*%
X105262742Y-76477500D02*
X105737258Y-76477500D01*
X105262742Y-77522500D02*
X105737258Y-77522500D01*
%TO.C,R39*%
X106962742Y-98377500D02*
X107437258Y-98377500D01*
X106962742Y-99422500D02*
X107437258Y-99422500D01*
%TO.C,R35*%
X106262742Y-104477500D02*
X106737258Y-104477500D01*
X106262742Y-105522500D02*
X106737258Y-105522500D01*
%TO.C,R77*%
X95487258Y-127477500D02*
X95012742Y-127477500D01*
X95487258Y-128522500D02*
X95012742Y-128522500D01*
%TO.C,Q8*%
D12*
X109399804Y-110150120D02*
G75*
G02*
X109000008Y-110150120I-199898J0D01*
G01*
X109000008Y-110150120D02*
G75*
G02*
X109399804Y-110150120I199898J0D01*
G01*
%TO.C,C82*%
X129125000Y-123175000D02*
X129125000Y-125425000D01*
X129125000Y-125425000D02*
X130875000Y-125425000D01*
X130875000Y-125425000D02*
X130875000Y-123175000D01*
%TO.C,Q12*%
X131999804Y-115750120D02*
G75*
G02*
X131600008Y-115750120I-199898J0D01*
G01*
X131600008Y-115750120D02*
G75*
G02*
X131999804Y-115750120I199898J0D01*
G01*
%TO.C,R76*%
D10*
X77762742Y-130977500D02*
X78237258Y-130977500D01*
X77762742Y-132022500D02*
X78237258Y-132022500D01*
%TO.C,R48*%
X140962742Y-93777500D02*
X141437258Y-93777500D01*
X140962742Y-94822500D02*
X141437258Y-94822500D01*
%TO.C,C53*%
D12*
X102475000Y-106175000D02*
X104725000Y-106175000D01*
X104725000Y-104425000D02*
X102475000Y-104425000D01*
X104725000Y-106175000D02*
X104725000Y-104425000D01*
%TO.C,R97*%
D10*
X139977500Y-120737258D02*
X139977500Y-120262742D01*
X141022500Y-120737258D02*
X141022500Y-120262742D01*
%TO.C,R52*%
X129762742Y-117777500D02*
X130237258Y-117777500D01*
X129762742Y-118822500D02*
X130237258Y-118822500D01*
%TO.C,Q16*%
D12*
X105350018Y-70800094D02*
G75*
G02*
X104950222Y-70800094I-199898J0D01*
G01*
X104950222Y-70800094D02*
G75*
G02*
X105350018Y-70800094I199898J0D01*
G01*
%TO.C,U19*%
X66245114Y-124516000D02*
G75*
G02*
X65944886Y-124516000I-150114J0D01*
G01*
X65944886Y-124516000D02*
G75*
G02*
X66245114Y-124516000I150114J0D01*
G01*
%TO.C,U17*%
X84477780Y-129530092D02*
G75*
G02*
X84177552Y-129530092I-150114J0D01*
G01*
X84177552Y-129530092D02*
G75*
G02*
X84477780Y-129530092I150114J0D01*
G01*
X85245114Y-127423924D02*
G75*
G02*
X84944886Y-127423924I-150114J0D01*
G01*
X84944886Y-127423924D02*
G75*
G02*
X85245114Y-127423924I150114J0D01*
G01*
%TO.C,R114*%
D10*
X125477500Y-90237258D02*
X125477500Y-89762742D01*
X126522500Y-90237258D02*
X126522500Y-89762742D01*
%TO.C,R18*%
X82012742Y-93477500D02*
X82487258Y-93477500D01*
X82012742Y-94522500D02*
X82487258Y-94522500D01*
%TO.C,R34*%
X120012742Y-107477500D02*
X120487258Y-107477500D01*
X120012742Y-108522500D02*
X120487258Y-108522500D01*
%TO.C,R94*%
X123737258Y-89977500D02*
X123262742Y-89977500D01*
X123737258Y-91022500D02*
X123262742Y-91022500D01*
%TO.C,U2*%
D12*
X74249940Y-78389886D02*
G75*
G02*
X74049788Y-78389886I-100076J0D01*
G01*
X74049788Y-78389886D02*
G75*
G02*
X74249940Y-78389886I100076J0D01*
G01*
%TO.C,R46*%
D10*
X141437258Y-91577500D02*
X140962742Y-91577500D01*
X141437258Y-92622500D02*
X140962742Y-92622500D01*
%TO.C,R50*%
X129762742Y-119977500D02*
X130237258Y-119977500D01*
X129762742Y-121022500D02*
X130237258Y-121022500D01*
%TO.C,C93*%
D12*
X101575000Y-126125000D02*
X101575000Y-127875000D01*
X101575000Y-127875000D02*
X103825000Y-127875000D01*
%TO.C,C85*%
X102125000Y-93675000D02*
X102125000Y-95925000D01*
X102125000Y-95925000D02*
X103875000Y-95925000D01*
X103875000Y-95925000D02*
X103875000Y-93675000D01*
%TO.C,R99*%
D10*
X139977500Y-99262742D02*
X139977500Y-99737258D01*
X141022500Y-99262742D02*
X141022500Y-99737258D01*
%TO.C,U25*%
D12*
X80450041Y-100100027D02*
X80595888Y-100100027D01*
X80450041Y-101900049D02*
X80450041Y-100100027D01*
X80450041Y-101900049D02*
X80595913Y-101900049D01*
X81504192Y-100100027D02*
X81545848Y-100100027D01*
X81504192Y-101900049D02*
X82495833Y-101900049D01*
X82454127Y-100100027D02*
X82495808Y-100100027D01*
X83404112Y-100100027D02*
X83550060Y-100100027D01*
X83404112Y-101900049D02*
X83550060Y-101900049D01*
X83550060Y-101900049D02*
X83550060Y-100100027D01*
%TO.C,R120*%
D10*
X72237258Y-108477500D02*
X71762742Y-108477500D01*
X72237258Y-109522500D02*
X71762742Y-109522500D01*
%TO.C,R71*%
X72262742Y-110977500D02*
X72737258Y-110977500D01*
X72262742Y-112022500D02*
X72737258Y-112022500D01*
%TO.C,C9*%
D12*
X81625000Y-66175000D02*
X81625000Y-67195000D01*
X81625000Y-68155000D02*
X81625000Y-68425000D01*
X81625000Y-68425000D02*
X83375000Y-68425000D01*
X83375000Y-68425000D02*
X83375000Y-66175000D01*
%TO.C,C5*%
X64725000Y-75787500D02*
X64725000Y-79475000D01*
X64725000Y-79475000D02*
X67275000Y-79475000D01*
X67275000Y-79475000D02*
X67275000Y-76347121D01*
%TO.C,C35*%
X129350000Y-97487500D02*
X129350000Y-100025000D01*
X129350000Y-100025000D02*
X131550000Y-100025000D01*
X131550000Y-97877116D02*
X131550000Y-97487500D01*
X131550000Y-100025000D02*
X131550000Y-98426575D01*
%TD*%
%LPC*%
D16*
%TO.C,R98*%
X119250000Y-83825000D03*
X119250000Y-82175000D03*
%TD*%
D17*
%TO.C,R113*%
X77175000Y-94500000D03*
X78825000Y-94500000D03*
%TD*%
D16*
%TO.C,R101*%
X127500000Y-87325000D03*
X127500000Y-85675000D03*
%TD*%
D18*
%TO.C,TP_SWCLK*%
X78750000Y-135800000D03*
%TD*%
D19*
%TO.C,Q11*%
X132574606Y-99095000D03*
X132574606Y-100365000D03*
X132574606Y-101635000D03*
X132574606Y-102905000D03*
X138625394Y-102905000D03*
X138625394Y-101635000D03*
X138625394Y-100365000D03*
X138625394Y-99095000D03*
D20*
X136249986Y-101000000D03*
%TD*%
D21*
%TO.C,SW1*%
X79815092Y-140000000D03*
X84184908Y-140000000D03*
%TD*%
D17*
%TO.C,R57*%
X91175000Y-113000000D03*
X92825000Y-113000000D03*
%TD*%
%TO.C,C36*%
X101075000Y-108000000D03*
X99425000Y-108000000D03*
%TD*%
D16*
%TO.C,R41*%
X104800000Y-100175000D03*
X104800000Y-101825000D03*
%TD*%
D22*
%TO.C,Q15*%
X96999998Y-120949960D03*
X96999998Y-119050040D03*
X95000002Y-120000000D03*
%TD*%
D17*
%TO.C,R2*%
X65175000Y-74000000D03*
X66825000Y-74000000D03*
%TD*%
%TO.C,R14*%
X88825000Y-79000000D03*
X87175000Y-79000000D03*
%TD*%
D16*
%TO.C,C26*%
X123800000Y-94125000D03*
X123800000Y-92475000D03*
%TD*%
D17*
%TO.C,C75*%
X84475000Y-99700000D03*
X86125000Y-99700000D03*
%TD*%
%TO.C,R55*%
X95175000Y-117000000D03*
X96825000Y-117000000D03*
%TD*%
%TO.C,C79*%
X118675000Y-94000000D03*
X120325000Y-94000000D03*
%TD*%
D16*
%TO.C,C70*%
X89350000Y-103200100D03*
X89350000Y-104850100D03*
%TD*%
D23*
%TO.C,R115*%
X116478788Y-120500000D03*
X113521212Y-120500000D03*
%TD*%
D17*
%TO.C,R51*%
X142025000Y-110100000D03*
X140375000Y-110100000D03*
%TD*%
%TO.C,R19*%
X100675000Y-79000000D03*
X102325000Y-79000000D03*
%TD*%
D24*
%TO.C,C22*%
X117500005Y-72000000D03*
X122499995Y-72000000D03*
%TD*%
D17*
%TO.C,C76*%
X84475000Y-102300000D03*
X86125000Y-102300000D03*
%TD*%
D25*
%TO.C,U11*%
X97300099Y-114949960D03*
X97300099Y-114000000D03*
X97300099Y-113050040D03*
X94699901Y-113050040D03*
X94699901Y-114949960D03*
%TD*%
D17*
%TO.C,R33*%
X114325000Y-79500000D03*
X112675000Y-79500000D03*
%TD*%
%TO.C,R112*%
X78675000Y-104000000D03*
X80325000Y-104000000D03*
%TD*%
D26*
%TO.C,C92*%
X87500000Y-64912500D03*
X87500000Y-63087500D03*
%TD*%
D17*
%TO.C,R67*%
X98175000Y-126000000D03*
X99825000Y-126000000D03*
%TD*%
D27*
%TO.C,D4*%
X90807598Y-125750000D03*
X94192402Y-125750000D03*
%TD*%
D17*
%TO.C,C59*%
X60175000Y-118000000D03*
X61825000Y-118000000D03*
%TD*%
%TO.C,R17*%
X76925000Y-97250000D03*
X78575000Y-97250000D03*
%TD*%
%TO.C,R13*%
X83175000Y-78500000D03*
X84825000Y-78500000D03*
%TD*%
D28*
%TO.C,U34*%
X74095000Y-71846070D03*
X75365000Y-71846070D03*
X76635000Y-71846070D03*
X77905000Y-71846070D03*
X77905000Y-66153930D03*
X76635000Y-66153930D03*
X75365000Y-66153930D03*
X74095000Y-66153930D03*
D29*
X76000000Y-69000000D03*
%TD*%
D16*
%TO.C,C12*%
X72365000Y-96946100D03*
X72365000Y-98596100D03*
%TD*%
D30*
%TO.C,D11*%
X112800106Y-60000000D03*
X117199894Y-60000000D03*
%TD*%
D17*
%TO.C,R23*%
X97325000Y-77000000D03*
X95675000Y-77000000D03*
%TD*%
D16*
%TO.C,C74*%
X85250000Y-95825000D03*
X85250000Y-94175000D03*
%TD*%
D31*
%TO.C,U20*%
X76095000Y-128599944D03*
X77365000Y-128599944D03*
X78635000Y-128599944D03*
X79905000Y-128599944D03*
X79905000Y-123400056D03*
X78635000Y-123400056D03*
X77365000Y-123400056D03*
X76095000Y-123400056D03*
%TD*%
D16*
%TO.C,C77*%
X86800000Y-105825000D03*
X86800000Y-104175000D03*
%TD*%
D17*
%TO.C,C42*%
X114175000Y-64500000D03*
X115825000Y-64500000D03*
%TD*%
%TO.C,R30*%
X112325000Y-77000000D03*
X110675000Y-77000000D03*
%TD*%
D19*
%TO.C,Q6*%
X116025394Y-92905000D03*
X116025394Y-91635000D03*
X116025394Y-90365000D03*
X116025394Y-89095000D03*
X109974606Y-89095000D03*
X109974606Y-90365000D03*
X109974606Y-91635000D03*
X109974606Y-92905000D03*
D20*
X112350014Y-91000000D03*
%TD*%
D17*
%TO.C,R104*%
X98325000Y-95000000D03*
X96675000Y-95000000D03*
%TD*%
D18*
%TO.C,TP_STATUS*%
X83000000Y-136300000D03*
%TD*%
D17*
%TO.C,R24*%
X95675000Y-73000000D03*
X97325000Y-73000000D03*
%TD*%
%TO.C,R6*%
X67925000Y-78500000D03*
X69575000Y-78500000D03*
%TD*%
%TO.C,R53*%
X140375000Y-112300000D03*
X142025000Y-112300000D03*
%TD*%
D25*
%TO.C,U10*%
X97300099Y-109949960D03*
X97300099Y-109000000D03*
X97300099Y-108050040D03*
X94699901Y-108050040D03*
X94699901Y-109949960D03*
%TD*%
D17*
%TO.C,R58*%
X99175000Y-112000000D03*
X100825000Y-112000000D03*
%TD*%
D32*
%TO.C,D7*%
X120000000Y-113192402D03*
X120000000Y-109807598D03*
%TD*%
D18*
%TO.C,TP_SWD_GND*%
X83000000Y-133800000D03*
%TD*%
D33*
%TO.C,Q5*%
X93149985Y-61449960D03*
X93149985Y-59550040D03*
X90850015Y-60500000D03*
%TD*%
D17*
%TO.C,R80*%
X91175000Y-123750000D03*
X92825000Y-123750000D03*
%TD*%
%TO.C,R29*%
X103075000Y-85750000D03*
X101425000Y-85750000D03*
%TD*%
%TO.C,R108*%
X83425000Y-82000000D03*
X85075000Y-82000000D03*
%TD*%
D18*
%TO.C,TP_SWDIO*%
X80500000Y-133800000D03*
%TD*%
D34*
%TO.C,Y1*%
X87899926Y-118850011D03*
X90100074Y-118850011D03*
X90100074Y-117149989D03*
X87899926Y-117149989D03*
%TD*%
D18*
%TO.C,TP_SWD_3V3*%
X78000000Y-133800000D03*
%TD*%
D26*
%TO.C,C27*%
X123250000Y-107287500D03*
X123250000Y-109112500D03*
%TD*%
D16*
%TO.C,R118*%
X130000000Y-127675000D03*
X130000000Y-129325000D03*
%TD*%
D35*
%TO.C,J1*%
X65064647Y-82109988D03*
X65064647Y-87890012D03*
D36*
X65544454Y-80679968D03*
X65544454Y-89320032D03*
D37*
X61364376Y-89320032D03*
X61364375Y-80679968D03*
D38*
X66109603Y-88350006D03*
X66109603Y-88050032D03*
X66109858Y-87549906D03*
X66109858Y-87249932D03*
X66109603Y-86750060D03*
X66110619Y-86249680D03*
X66109603Y-85750062D03*
X66109603Y-85249936D03*
X66109603Y-84750064D03*
X66109603Y-84249938D03*
X66109603Y-83750066D03*
X66110619Y-83249940D03*
X66109603Y-82750068D03*
X66109603Y-82450094D03*
X66109603Y-81949968D03*
X66109603Y-81649994D03*
%TD*%
D25*
%TO.C,U14*%
X104300099Y-130949960D03*
X104300099Y-130000000D03*
X104300099Y-129050040D03*
X101699901Y-129050040D03*
X101699901Y-130949960D03*
%TD*%
D16*
%TO.C,C3*%
X79500000Y-74425000D03*
X79500000Y-76075000D03*
%TD*%
D17*
%TO.C,R73*%
X91175000Y-127750000D03*
X92825000Y-127750000D03*
%TD*%
D22*
%TO.C,Q25*%
X126999998Y-83949960D03*
X126999998Y-82050040D03*
X125000002Y-83000000D03*
%TD*%
D16*
%TO.C,R47*%
X130100000Y-106125000D03*
X130100000Y-104475000D03*
%TD*%
D26*
%TO.C,C91*%
X85000000Y-64412500D03*
X85000000Y-62587500D03*
%TD*%
D16*
%TO.C,C43*%
X108900000Y-77175000D03*
X108900000Y-78825000D03*
%TD*%
D17*
%TO.C,R1*%
X87675000Y-61500000D03*
X89325000Y-61500000D03*
%TD*%
D26*
%TO.C,C87*%
X72250000Y-72412500D03*
X72250000Y-70587500D03*
%TD*%
D16*
%TO.C,R68*%
X112550000Y-71825000D03*
X112550000Y-70175000D03*
%TD*%
D17*
%TO.C,C37*%
X105075000Y-113000000D03*
X103425000Y-113000000D03*
%TD*%
%TO.C,C4*%
X77675000Y-80000000D03*
X79325000Y-80000000D03*
%TD*%
%TO.C,R83*%
X115675000Y-131000000D03*
X117325000Y-131000000D03*
%TD*%
%TO.C,R90*%
X126175000Y-131000000D03*
X127825000Y-131000000D03*
%TD*%
%TO.C,C48*%
X86675000Y-114000000D03*
X88325000Y-114000000D03*
%TD*%
D16*
%TO.C,R74*%
X100000000Y-95325000D03*
X100000000Y-93675000D03*
%TD*%
D17*
%TO.C,C58*%
X63675000Y-118000000D03*
X65325000Y-118000000D03*
%TD*%
D22*
%TO.C,Q21*%
X101500002Y-89150040D03*
X101500002Y-91049960D03*
X103499998Y-90100000D03*
%TD*%
D39*
%TO.C,Q2*%
X82849866Y-80175006D03*
X82849866Y-79824994D03*
D40*
X82200134Y-80000000D03*
%TD*%
D17*
%TO.C,R54*%
X99175000Y-110000000D03*
X100825000Y-110000000D03*
%TD*%
D22*
%TO.C,Q19*%
X108999998Y-131949960D03*
X108999998Y-130050040D03*
X107000002Y-131000000D03*
%TD*%
D41*
%TO.C,*%
X75500000Y-138400000D03*
%TD*%
D16*
%TO.C,R5*%
X72250000Y-62325000D03*
X72250000Y-60675000D03*
%TD*%
D26*
%TO.C,C25*%
X127400000Y-94412500D03*
X127400000Y-92587500D03*
%TD*%
D16*
%TO.C,R122*%
X79500000Y-70575000D03*
X79500000Y-68925000D03*
%TD*%
D41*
%TO.C,*%
X138400000Y-124500000D03*
%TD*%
D25*
%TO.C,U12*%
X101399990Y-123550040D03*
X101399990Y-124500000D03*
X101399990Y-125449960D03*
X104100010Y-125449960D03*
X104100010Y-124500000D03*
X104100010Y-123550040D03*
%TD*%
D22*
%TO.C,Q18*%
X97000002Y-130050040D03*
X97000002Y-131949960D03*
X98999998Y-131000000D03*
%TD*%
D16*
%TO.C,C88*%
X79500000Y-65675000D03*
X79500000Y-67325000D03*
%TD*%
D42*
%TO.C,U32*%
X122294900Y-123095000D03*
X122294900Y-124365000D03*
X122294900Y-125635000D03*
X122294900Y-126905000D03*
X127705100Y-126905000D03*
X127705100Y-125635000D03*
X127705100Y-124365000D03*
X127705100Y-123095000D03*
%TD*%
D43*
%TO.C,U16*%
X77249942Y-116249928D03*
X77750068Y-116249928D03*
X78249940Y-116249928D03*
X78750066Y-116249928D03*
X79249938Y-116249928D03*
X79750064Y-116249928D03*
X80249936Y-116249928D03*
X80750062Y-116249928D03*
X81249934Y-116249928D03*
X81750060Y-116249928D03*
X82249932Y-116249928D03*
X82750058Y-116249928D03*
D44*
X84249928Y-114750058D03*
X84249928Y-114249932D03*
X84249928Y-113750060D03*
X84249928Y-113249934D03*
X84249928Y-112750062D03*
X84249928Y-112249936D03*
X84249928Y-111750064D03*
X84249928Y-111249938D03*
X84249928Y-110750066D03*
X84249928Y-110249940D03*
X84249928Y-109750068D03*
X84249928Y-109249942D03*
D43*
X82750058Y-107750072D03*
X82249932Y-107750072D03*
X81750060Y-107750072D03*
X81249934Y-107750072D03*
X80750062Y-107750072D03*
X80249936Y-107750072D03*
X79750064Y-107750072D03*
X79249938Y-107750072D03*
X78750066Y-107750072D03*
X78249940Y-107750072D03*
X77750068Y-107750072D03*
X77249942Y-107750072D03*
D44*
X75750072Y-109249942D03*
X75750072Y-109750068D03*
X75750072Y-110249940D03*
X75750072Y-110750066D03*
X75750072Y-111249938D03*
X75750072Y-111750064D03*
X75750072Y-112249936D03*
X75750072Y-112750062D03*
X75750072Y-113249934D03*
X75750072Y-113750060D03*
X75750072Y-114249932D03*
X75750072Y-114750058D03*
%TD*%
D45*
%TO.C,C21*%
X100212500Y-70500000D03*
X97287500Y-70500000D03*
%TD*%
D17*
%TO.C,R22*%
X104675000Y-75000000D03*
X106325000Y-75000000D03*
%TD*%
%TO.C,R12*%
X75325000Y-83500000D03*
X73675000Y-83500000D03*
%TD*%
%TO.C,R95*%
X139175000Y-90000000D03*
X140825000Y-90000000D03*
%TD*%
D24*
%TO.C,C23*%
X132500005Y-82000000D03*
X137499995Y-82000000D03*
%TD*%
D17*
%TO.C,C83*%
X116675000Y-129200000D03*
X118325000Y-129200000D03*
%TD*%
D16*
%TO.C,C45*%
X81250000Y-118425000D03*
X81250000Y-120075000D03*
%TD*%
D17*
%TO.C,R42*%
X106375000Y-114900000D03*
X108025000Y-114900000D03*
%TD*%
D46*
%TO.C,U8*%
X104899922Y-108649986D03*
X104899922Y-108000000D03*
X104899922Y-107350014D03*
X103100078Y-107350014D03*
X103100078Y-108000000D03*
X103100078Y-108649986D03*
%TD*%
D17*
%TO.C,R85*%
X116325000Y-133500000D03*
X114675000Y-133500000D03*
%TD*%
%TO.C,C18*%
X104675000Y-73000000D03*
X106325000Y-73000000D03*
%TD*%
D16*
%TO.C,C2*%
X70500000Y-72075000D03*
X70500000Y-70425000D03*
%TD*%
D17*
%TO.C,R20*%
X102175000Y-71000000D03*
X103825000Y-71000000D03*
%TD*%
D47*
%TO.C,C16*%
X85412500Y-83750000D03*
X83587500Y-83750000D03*
%TD*%
D45*
%TO.C,C86*%
X79787500Y-72500000D03*
X82712500Y-72500000D03*
%TD*%
D48*
%TO.C,U27*%
X95100074Y-104149986D03*
X95100074Y-103500000D03*
X95100074Y-102850014D03*
X92899926Y-102850014D03*
X92899926Y-103500000D03*
X92899926Y-104149986D03*
%TD*%
D16*
%TO.C,C31*%
X128800000Y-112825000D03*
X128800000Y-111175000D03*
%TD*%
D17*
%TO.C,R86*%
X117925000Y-134000000D03*
X119575000Y-134000000D03*
%TD*%
D49*
%TO.C,U18*%
X101949958Y-97199904D03*
X101299972Y-97199904D03*
X100649986Y-97199904D03*
X100000000Y-97199904D03*
X99350014Y-97199904D03*
X98700028Y-97199904D03*
X98050042Y-97199904D03*
X98050042Y-102800096D03*
X98700028Y-102800096D03*
X99350014Y-102800096D03*
X100000000Y-102800096D03*
X100649986Y-102800096D03*
X101299972Y-102800096D03*
X101949958Y-102800096D03*
%TD*%
D50*
%TO.C,U29*%
X120749986Y-92499999D03*
X120749986Y-92000127D03*
X120749986Y-91500001D03*
X119250014Y-91500001D03*
X119250014Y-92000127D03*
X119250014Y-92499999D03*
%TD*%
D26*
%TO.C,C33*%
X127500000Y-107287500D03*
X127500000Y-109112500D03*
%TD*%
D51*
%TO.C,U24*%
X89350014Y-101100074D03*
X90000000Y-101100074D03*
X90649986Y-101100074D03*
X90649986Y-98899926D03*
X90000000Y-98899926D03*
X89350014Y-98899926D03*
%TD*%
D17*
%TO.C,C72*%
X75325000Y-85250000D03*
X73675000Y-85250000D03*
%TD*%
D52*
%TO.C,U21*%
X60055000Y-113235580D03*
X61325000Y-113235580D03*
X62595000Y-113235580D03*
X63865000Y-113235580D03*
X65135000Y-113235580D03*
X66405000Y-113235580D03*
X67675000Y-113235580D03*
X68945000Y-113235580D03*
X68945000Y-107764420D03*
X67675000Y-107764420D03*
X66405000Y-107764420D03*
X65135000Y-107764420D03*
X63865000Y-107764420D03*
X62595000Y-107764420D03*
X61325000Y-107764420D03*
X60055000Y-107764420D03*
%TD*%
D53*
%TO.C,J7*%
X106999982Y-139999871D03*
X106999982Y-137999875D03*
X104999986Y-139999871D03*
X104999986Y-137999875D03*
X102999990Y-139999871D03*
X102999990Y-137999875D03*
X100999994Y-139999871D03*
X100999994Y-137999875D03*
X98999998Y-139999871D03*
X98999998Y-137999875D03*
X97000002Y-139999871D03*
X97000002Y-137999875D03*
X95000006Y-139999871D03*
X95000006Y-137999875D03*
X93000010Y-139999871D03*
X93000010Y-137999875D03*
X91000014Y-139999871D03*
X91000014Y-137999875D03*
X89000018Y-139999871D03*
X89000018Y-137999875D03*
%TD*%
D17*
%TO.C,R7*%
X81175000Y-74500000D03*
X82825000Y-74500000D03*
%TD*%
D22*
%TO.C,Q22*%
X105000002Y-85050040D03*
X105000002Y-86949960D03*
X106999998Y-86000000D03*
%TD*%
D17*
%TO.C,R28*%
X92175000Y-75000000D03*
X93825000Y-75000000D03*
%TD*%
D54*
%TO.C,L1*%
X78397008Y-88500000D03*
X83602992Y-88500000D03*
%TD*%
D16*
%TO.C,R3*%
X72500000Y-68325000D03*
X72500000Y-66675000D03*
%TD*%
D19*
%TO.C,Q9*%
X116025394Y-108905000D03*
X116025394Y-107635000D03*
X116025394Y-106365000D03*
X116025394Y-105095000D03*
X109974606Y-105095000D03*
X109974606Y-106365000D03*
X109974606Y-107635000D03*
X109974606Y-108905000D03*
D20*
X112350014Y-107000000D03*
%TD*%
D17*
%TO.C,C10*%
X84825000Y-77000000D03*
X83175000Y-77000000D03*
%TD*%
%TO.C,C13*%
X74175000Y-87000000D03*
X75825000Y-87000000D03*
%TD*%
D39*
%TO.C,Q3*%
X70849866Y-83675006D03*
X70849866Y-83324994D03*
D40*
X70200134Y-83500000D03*
%TD*%
D19*
%TO.C,Q10*%
X138625394Y-95905000D03*
X138625394Y-94635000D03*
X138625394Y-93365000D03*
X138625394Y-92095000D03*
X132574606Y-92095000D03*
X132574606Y-93365000D03*
X132574606Y-94635000D03*
X132574606Y-95905000D03*
D20*
X134950014Y-94000000D03*
%TD*%
D17*
%TO.C,C39*%
X92825000Y-115000000D03*
X91175000Y-115000000D03*
%TD*%
D16*
%TO.C,R93*%
X130500000Y-112825000D03*
X130500000Y-111175000D03*
%TD*%
D17*
%TO.C,C84*%
X126675000Y-129200000D03*
X128325000Y-129200000D03*
%TD*%
%TO.C,R36*%
X114175000Y-87000000D03*
X115825000Y-87000000D03*
%TD*%
%TO.C,R32*%
X110675000Y-82000000D03*
X112325000Y-82000000D03*
%TD*%
%TO.C,R106*%
X69175000Y-104000000D03*
X70825000Y-104000000D03*
%TD*%
D19*
%TO.C,Q7*%
X109974606Y-95095000D03*
X109974606Y-96365000D03*
X109974606Y-97635000D03*
X109974606Y-98905000D03*
X116025394Y-98905000D03*
X116025394Y-97635000D03*
X116025394Y-96365000D03*
X116025394Y-95095000D03*
D20*
X113649986Y-97000000D03*
%TD*%
D17*
%TO.C,R60*%
X106675000Y-119000000D03*
X108325000Y-119000000D03*
%TD*%
D27*
%TO.C,D5*%
X99307598Y-120000000D03*
X102692402Y-120000000D03*
%TD*%
D16*
%TO.C,C24*%
X111000000Y-80325000D03*
X111000000Y-78675000D03*
%TD*%
D17*
%TO.C,C1*%
X69825000Y-81000000D03*
X68175000Y-81000000D03*
%TD*%
%TO.C,R88*%
X103175000Y-111000000D03*
X104825000Y-111000000D03*
%TD*%
%TO.C,R75*%
X59175000Y-123000000D03*
X60825000Y-123000000D03*
%TD*%
D30*
%TO.C,D12*%
X61800106Y-92000000D03*
X66199894Y-92000000D03*
%TD*%
D35*
%TO.C,J10*%
X65064647Y-96109988D03*
X65064647Y-101890012D03*
D36*
X65544454Y-94679968D03*
X65544454Y-103320032D03*
D37*
X61364376Y-103320032D03*
X61364375Y-94679968D03*
D38*
X66109603Y-102350006D03*
X66109603Y-102050032D03*
X66109858Y-101549906D03*
X66109858Y-101249932D03*
X66109603Y-100750060D03*
X66110619Y-100249680D03*
X66109603Y-99750062D03*
X66109603Y-99249936D03*
X66109603Y-98750064D03*
X66109603Y-98249938D03*
X66109603Y-97750066D03*
X66110619Y-97249940D03*
X66109603Y-96750068D03*
X66109603Y-96450094D03*
X66109603Y-95949968D03*
X66109603Y-95649994D03*
%TD*%
D27*
%TO.C,D9*%
X127307598Y-115000000D03*
X130692402Y-115000000D03*
%TD*%
D17*
%TO.C,R107*%
X78575000Y-84000000D03*
X76925000Y-84000000D03*
%TD*%
D19*
%TO.C,Q13*%
X138625394Y-113905000D03*
X138625394Y-112635000D03*
X138625394Y-111365000D03*
X138625394Y-110095000D03*
X132574606Y-110095000D03*
X132574606Y-111365000D03*
X132574606Y-112635000D03*
X132574606Y-113905000D03*
D20*
X134950014Y-112000000D03*
%TD*%
D18*
%TO.C,TP_ENC_I*%
X97500000Y-135000000D03*
%TD*%
D17*
%TO.C,C28*%
X117925000Y-101750000D03*
X116275000Y-101750000D03*
%TD*%
D16*
%TO.C,R111*%
X72500000Y-102825000D03*
X72500000Y-101175000D03*
%TD*%
D17*
%TO.C,C41*%
X101675000Y-133000000D03*
X103325000Y-133000000D03*
%TD*%
D32*
%TO.C,D8*%
X141000000Y-117692402D03*
X141000000Y-114307598D03*
%TD*%
D17*
%TO.C,C64*%
X89675000Y-85700000D03*
X91325000Y-85700000D03*
%TD*%
%TO.C,C69*%
X75825000Y-101800000D03*
X74175000Y-101800000D03*
%TD*%
%TO.C,R72*%
X71675000Y-113750000D03*
X73325000Y-113750000D03*
%TD*%
D26*
%TO.C,C32*%
X130450000Y-101087500D03*
X130450000Y-102912500D03*
%TD*%
D55*
%TO.C,R109*%
X114166288Y-102000000D03*
X108033712Y-102000000D03*
%TD*%
D56*
%TO.C,J2*%
X114059956Y-139000000D03*
D57*
X118020070Y-139000000D03*
X121980184Y-139000000D03*
X125940044Y-139000000D03*
%TD*%
D56*
%TO.C,J3*%
X98019816Y-63500000D03*
D57*
X101980184Y-63500000D03*
%TD*%
D17*
%TO.C,C78*%
X94175000Y-106000000D03*
X95825000Y-106000000D03*
%TD*%
D16*
%TO.C,C52*%
X100000000Y-104725000D03*
X100000000Y-106375000D03*
%TD*%
D28*
%TO.C,U22*%
X87095000Y-93846070D03*
X88365000Y-93846070D03*
X89635000Y-93846070D03*
X90905000Y-93846070D03*
X90905000Y-88153930D03*
X89635000Y-88153930D03*
X88365000Y-88153930D03*
X87095000Y-88153930D03*
D29*
X89000000Y-91000000D03*
%TD*%
D17*
%TO.C,C49*%
X84175000Y-119000000D03*
X85825000Y-119000000D03*
%TD*%
D42*
%TO.C,U31*%
X112294900Y-123095000D03*
X112294900Y-124365000D03*
X112294900Y-125635000D03*
X112294900Y-126905000D03*
X117705100Y-126905000D03*
X117705100Y-125635000D03*
X117705100Y-124365000D03*
X117705100Y-123095000D03*
%TD*%
D17*
%TO.C,R119*%
X72825000Y-107000000D03*
X71175000Y-107000000D03*
%TD*%
%TO.C,R103*%
X88825000Y-82000000D03*
X87175000Y-82000000D03*
%TD*%
%TO.C,C73*%
X68675000Y-101750000D03*
X70325000Y-101750000D03*
%TD*%
%TO.C,C14*%
X72725000Y-87000000D03*
X71075000Y-87000000D03*
%TD*%
D47*
%TO.C,C66*%
X95912500Y-90000000D03*
X94087500Y-90000000D03*
%TD*%
D17*
%TO.C,C60*%
X59675000Y-105200000D03*
X61325000Y-105200000D03*
%TD*%
D58*
%TO.C,U6*%
X99750066Y-76941957D03*
X100249938Y-76941957D03*
X100750064Y-76941957D03*
X101249936Y-76941957D03*
X101750062Y-76941957D03*
X102249934Y-76941957D03*
D59*
X102948180Y-76250061D03*
X102948180Y-75749935D03*
X102948180Y-75250063D03*
X102948180Y-74750191D03*
X102948180Y-74250065D03*
X102948180Y-73750193D03*
D58*
X102249934Y-73058043D03*
X101750062Y-73058043D03*
X101249936Y-73058043D03*
X100750064Y-73058043D03*
X100249938Y-73058043D03*
X99750066Y-73058043D03*
D59*
X99051820Y-73750193D03*
X99051820Y-74250065D03*
X99051820Y-74750191D03*
X99051820Y-75250063D03*
X99051820Y-75749935D03*
X99051820Y-76250061D03*
D60*
X101000762Y-75000889D03*
%TD*%
D18*
%TO.C,TP_ENC_GND*%
X100000000Y-135000000D03*
%TD*%
D17*
%TO.C,R70*%
X88325000Y-112000000D03*
X86675000Y-112000000D03*
%TD*%
D16*
%TO.C,C94*%
X105750000Y-124075000D03*
X105750000Y-122425000D03*
%TD*%
D17*
%TO.C,C80*%
X96675000Y-93000000D03*
X98325000Y-93000000D03*
%TD*%
D22*
%TO.C,Q20*%
X108999998Y-127449960D03*
X108999998Y-125550040D03*
X107000002Y-126500000D03*
%TD*%
D61*
%TO.C,D15*%
X68550040Y-99949096D03*
X69500000Y-99949096D03*
X70449960Y-99949096D03*
X70449960Y-97650904D03*
X69500000Y-97650904D03*
X68550040Y-97650904D03*
%TD*%
D17*
%TO.C,R82*%
X119825000Y-120000000D03*
X118175000Y-120000000D03*
%TD*%
D16*
%TO.C,R81*%
X104500000Y-116325000D03*
X104500000Y-114675000D03*
%TD*%
D17*
%TO.C,R61*%
X112175000Y-117500000D03*
X113825000Y-117500000D03*
%TD*%
D16*
%TO.C,R69*%
X112550000Y-68625000D03*
X112550000Y-66975000D03*
%TD*%
%TO.C,R11*%
X81750000Y-77575000D03*
X81750000Y-75925000D03*
%TD*%
D62*
%TO.C,U1*%
X69200027Y-76999997D03*
X69600077Y-76999997D03*
X70000127Y-76999997D03*
X70400177Y-76999997D03*
X70800227Y-76999997D03*
D63*
X71499997Y-76300227D03*
X71499997Y-75900177D03*
X71499997Y-75500127D03*
X71499997Y-75100331D03*
X71499997Y-74700281D03*
D62*
X70800227Y-74000003D03*
X70400177Y-74000003D03*
X70000127Y-74000003D03*
X69600077Y-74000003D03*
X69200027Y-74000003D03*
D63*
X68500003Y-74700027D03*
X68500003Y-75100077D03*
X68500003Y-75499873D03*
X68500003Y-75899923D03*
X68500003Y-76299973D03*
D64*
X70000127Y-75500127D03*
%TD*%
D16*
%TO.C,R15*%
X89750000Y-73575000D03*
X89750000Y-71925000D03*
%TD*%
%TO.C,C8*%
X76000000Y-79925000D03*
X76000000Y-81575000D03*
%TD*%
D27*
%TO.C,D1*%
X94307598Y-123500000D03*
X97692402Y-123500000D03*
%TD*%
D51*
%TO.C,U23*%
X77350014Y-101100074D03*
X78000000Y-101100074D03*
X78649986Y-101100074D03*
X78649986Y-98899926D03*
X78000000Y-98899926D03*
X77350014Y-98899926D03*
%TD*%
D17*
%TO.C,R105*%
X69325000Y-95000000D03*
X67675000Y-95000000D03*
%TD*%
D65*
%TO.C,C11*%
X75000000Y-97037500D03*
X75000000Y-99962500D03*
%TD*%
D28*
%TO.C,U5*%
X71095000Y-94846070D03*
X72365000Y-94846070D03*
X73635000Y-94846070D03*
X74905000Y-94846070D03*
X74905000Y-89153930D03*
X73635000Y-89153930D03*
X72365000Y-89153930D03*
X71095000Y-89153930D03*
D29*
X73000000Y-92000000D03*
%TD*%
D17*
%TO.C,R89*%
X124425000Y-134000000D03*
X126075000Y-134000000D03*
%TD*%
%TO.C,R87*%
X121175000Y-134000000D03*
X122825000Y-134000000D03*
%TD*%
D16*
%TO.C,R43*%
X117800000Y-108325000D03*
X117800000Y-106675000D03*
%TD*%
D17*
%TO.C,C54*%
X69425000Y-128500000D03*
X67775000Y-128500000D03*
%TD*%
D66*
%TO.C,U30*%
X93000002Y-97109978D03*
X93500128Y-97109978D03*
X94000000Y-97109978D03*
X94500126Y-97109978D03*
X94999998Y-97109978D03*
X94999998Y-92890022D03*
X94500126Y-92890022D03*
X94000000Y-92890022D03*
X93500128Y-92890022D03*
X93000002Y-92890022D03*
%TD*%
D16*
%TO.C,C46*%
X77250000Y-118425000D03*
X77250000Y-120075000D03*
%TD*%
D25*
%TO.C,U33*%
X107300099Y-96449960D03*
X107300099Y-95500000D03*
X107300099Y-94550040D03*
X104699901Y-94550040D03*
X104699901Y-96449960D03*
%TD*%
D17*
%TO.C,R4*%
X87675000Y-60000000D03*
X89325000Y-60000000D03*
%TD*%
D16*
%TO.C,C29*%
X125250000Y-107375000D03*
X125250000Y-109025000D03*
%TD*%
%TO.C,C89*%
X72250000Y-65325000D03*
X72250000Y-63675000D03*
%TD*%
D17*
%TO.C,R64*%
X98175000Y-128000000D03*
X99825000Y-128000000D03*
%TD*%
%TO.C,R16*%
X79825000Y-92750000D03*
X78175000Y-92750000D03*
%TD*%
%TO.C,R102*%
X85175000Y-97500000D03*
X86825000Y-97500000D03*
%TD*%
%TO.C,R79*%
X88175000Y-132500000D03*
X89825000Y-132500000D03*
%TD*%
D25*
%TO.C,U13*%
X110050099Y-122949960D03*
X110050099Y-122000000D03*
X110050099Y-121050040D03*
X107449901Y-121050040D03*
X107449901Y-122949960D03*
%TD*%
D16*
%TO.C,R45*%
X117800000Y-110175000D03*
X117800000Y-111825000D03*
%TD*%
D18*
%TO.C,TP_ENC_B*%
X95000000Y-135000000D03*
%TD*%
D67*
%TO.C,U9*%
X108149986Y-111100078D03*
X107500000Y-111100078D03*
X106850014Y-111100078D03*
X106850014Y-112899922D03*
X107500000Y-112899922D03*
X108149986Y-112899922D03*
%TD*%
D16*
%TO.C,C7*%
X74000000Y-79925000D03*
X74000000Y-81575000D03*
%TD*%
D17*
%TO.C,R100*%
X135675000Y-90000000D03*
X137325000Y-90000000D03*
%TD*%
D22*
%TO.C,Q14*%
X100000002Y-116050040D03*
X100000002Y-117949960D03*
X101999998Y-117000000D03*
%TD*%
D16*
%TO.C,R117*%
X120000000Y-127675000D03*
X120000000Y-129325000D03*
%TD*%
D17*
%TO.C,R21*%
X95675000Y-75000000D03*
X97325000Y-75000000D03*
%TD*%
D45*
%TO.C,C47*%
X73462500Y-115750000D03*
X70537500Y-115750000D03*
%TD*%
D17*
%TO.C,R84*%
X111425000Y-134000000D03*
X113075000Y-134000000D03*
%TD*%
D48*
%TO.C,U26*%
X84100074Y-105649986D03*
X84100074Y-105000000D03*
X84100074Y-104350014D03*
X81899926Y-104350014D03*
X81899926Y-105000000D03*
X81899926Y-105649986D03*
%TD*%
D17*
%TO.C,C55*%
X74075000Y-123500000D03*
X72425000Y-123500000D03*
%TD*%
D22*
%TO.C,Q23*%
X107000002Y-81050040D03*
X107000002Y-82949960D03*
X108999998Y-82000000D03*
%TD*%
D26*
%TO.C,C90*%
X83000000Y-64412500D03*
X83000000Y-62587500D03*
%TD*%
D16*
%TO.C,R96*%
X131750000Y-126925000D03*
X131750000Y-128575000D03*
%TD*%
D68*
%TO.C,U7*%
X126750058Y-96800110D03*
X126249932Y-96800110D03*
X125750060Y-96800110D03*
X125249934Y-96800110D03*
X124750062Y-96800110D03*
X124249936Y-96800110D03*
X123750064Y-96800110D03*
X123249938Y-96800110D03*
X122750066Y-96800110D03*
X122249940Y-96800110D03*
X121750068Y-96800110D03*
X121249942Y-96800110D03*
D69*
X119800110Y-98249942D03*
X119800110Y-98750068D03*
X119800110Y-99249940D03*
X119800110Y-99750066D03*
X119800110Y-100249938D03*
X119800110Y-100750064D03*
X119800110Y-101249936D03*
X119800110Y-101750062D03*
X119800110Y-102249934D03*
X119800110Y-102750060D03*
X119800110Y-103249932D03*
X119800110Y-103750058D03*
D68*
X121249942Y-105199890D03*
X121750068Y-105199890D03*
X122249940Y-105199890D03*
X122750066Y-105199890D03*
X123249938Y-105199890D03*
X123750064Y-105199890D03*
X124249936Y-105199890D03*
X124750062Y-105199890D03*
X125249934Y-105199890D03*
X125750060Y-105199890D03*
X126249932Y-105199890D03*
X126750058Y-105199890D03*
D69*
X128199890Y-103750058D03*
X128199890Y-103249932D03*
X128199890Y-102750060D03*
X128199890Y-102249934D03*
X128199890Y-101750062D03*
X128199890Y-101249936D03*
X128199890Y-100750064D03*
X128199890Y-100249938D03*
X128199890Y-99750066D03*
X128199890Y-99249940D03*
X128199890Y-98750068D03*
X128199890Y-98249942D03*
D70*
X124000000Y-101000000D03*
%TD*%
D47*
%TO.C,C30*%
X124087500Y-111500000D03*
X125912500Y-111500000D03*
%TD*%
D18*
%TO.C,TP_NRST*%
X80750000Y-136300000D03*
%TD*%
D16*
%TO.C,C51*%
X82750000Y-122425000D03*
X82750000Y-124075000D03*
%TD*%
%TO.C,R92*%
X141000000Y-106825000D03*
X141000000Y-105175000D03*
%TD*%
%TO.C,R62*%
X111750000Y-121325000D03*
X111750000Y-119675000D03*
%TD*%
D17*
%TO.C,C38*%
X92825000Y-110000000D03*
X91175000Y-110000000D03*
%TD*%
%TO.C,C71*%
X75825000Y-104500000D03*
X74175000Y-104500000D03*
%TD*%
D26*
%TO.C,C34*%
X129500000Y-94612500D03*
X129500000Y-92787500D03*
%TD*%
D31*
%TO.C,U3*%
X84345000Y-72599944D03*
X85615000Y-72599944D03*
X86885000Y-72599944D03*
X88155000Y-72599944D03*
X88155000Y-67400056D03*
X86885000Y-67400056D03*
X85615000Y-67400056D03*
X84345000Y-67400056D03*
%TD*%
D16*
%TO.C,R27*%
X105000000Y-82325000D03*
X105000000Y-80675000D03*
%TD*%
D17*
%TO.C,R26*%
X104175000Y-79000000D03*
X105825000Y-79000000D03*
%TD*%
D16*
%TO.C,C6*%
X72000000Y-78925000D03*
X72000000Y-80575000D03*
%TD*%
D61*
%TO.C,U15*%
X109050040Y-75149096D03*
X110000000Y-75149096D03*
X110949960Y-75149096D03*
X110949960Y-72850904D03*
X110000000Y-72850904D03*
X109050040Y-72850904D03*
%TD*%
D16*
%TO.C,C63*%
X88365000Y-95696100D03*
X88365000Y-97346100D03*
%TD*%
D71*
%TO.C,L3*%
X74550000Y-61250000D03*
X80450000Y-61250000D03*
%TD*%
D18*
%TO.C,TP_ENC_A*%
X92500000Y-135000000D03*
%TD*%
D17*
%TO.C,C56*%
X63675000Y-116000000D03*
X65325000Y-116000000D03*
%TD*%
D72*
%TO.C,Q4*%
X90095000Y-70025394D03*
X91365000Y-70025394D03*
X92635000Y-70025394D03*
X93905000Y-70025394D03*
X93905000Y-63974606D03*
X92635000Y-63974606D03*
X91365000Y-63974606D03*
X90095000Y-63974606D03*
D73*
X92000000Y-66350014D03*
%TD*%
D25*
%TO.C,U28*%
X83350010Y-97949960D03*
X83350010Y-97000000D03*
X83350010Y-96050040D03*
X80649990Y-96050040D03*
X80649990Y-97000000D03*
X80649990Y-97949960D03*
%TD*%
D22*
%TO.C,Q17*%
X93999998Y-131949960D03*
X93999998Y-130050040D03*
X92000002Y-131000000D03*
%TD*%
D17*
%TO.C,R56*%
X99175000Y-114000000D03*
X100825000Y-114000000D03*
%TD*%
%TO.C,C57*%
X60175000Y-116000000D03*
X61825000Y-116000000D03*
%TD*%
%TO.C,C40*%
X105825000Y-121000000D03*
X104175000Y-121000000D03*
%TD*%
%TO.C,R44*%
X108025000Y-117000000D03*
X106375000Y-117000000D03*
%TD*%
D16*
%TO.C,C61*%
X125600000Y-94125000D03*
X125600000Y-92475000D03*
%TD*%
D47*
%TO.C,C15*%
X80087500Y-84000000D03*
X81912500Y-84000000D03*
%TD*%
%TO.C,C17*%
X80087500Y-82000000D03*
X81912500Y-82000000D03*
%TD*%
D17*
%TO.C,R66*%
X88325000Y-134250000D03*
X86675000Y-134250000D03*
%TD*%
D47*
%TO.C,C68*%
X97087500Y-80000000D03*
X98912500Y-80000000D03*
%TD*%
D17*
%TO.C,R9*%
X67425000Y-71750000D03*
X69075000Y-71750000D03*
%TD*%
%TO.C,R78*%
X101675000Y-134750000D03*
X103325000Y-134750000D03*
%TD*%
%TO.C,R38*%
X119625000Y-89100000D03*
X117975000Y-89100000D03*
%TD*%
%TO.C,R40*%
X117975000Y-87000000D03*
X119625000Y-87000000D03*
%TD*%
D41*
%TO.C,*%
X61600000Y-75500000D03*
%TD*%
D16*
%TO.C,C81*%
X120000000Y-124825000D03*
X120000000Y-123175000D03*
%TD*%
D17*
%TO.C,C50*%
X91175000Y-121000000D03*
X92825000Y-121000000D03*
%TD*%
D23*
%TO.C,R116*%
X126478788Y-120500000D03*
X123521212Y-120500000D03*
%TD*%
D45*
%TO.C,C62*%
X92537500Y-99500000D03*
X95462500Y-99500000D03*
%TD*%
D17*
%TO.C,C65*%
X88025000Y-85600000D03*
X86375000Y-85600000D03*
%TD*%
D16*
%TO.C,C44*%
X79250000Y-118425000D03*
X79250000Y-120075000D03*
%TD*%
D17*
%TO.C,R91*%
X133825000Y-90000000D03*
X132175000Y-90000000D03*
%TD*%
D74*
%TO.C,D2*%
X73999998Y-127449960D03*
X73999998Y-125550040D03*
X72000002Y-126500000D03*
%TD*%
D75*
%TO.C,D3*%
X73601344Y-131699960D03*
X73601344Y-129800040D03*
X71398656Y-130750000D03*
%TD*%
D54*
%TO.C,L2*%
X93897008Y-85000000D03*
X99102992Y-85000000D03*
%TD*%
D17*
%TO.C,R37*%
X112325000Y-85500000D03*
X110675000Y-85500000D03*
%TD*%
D16*
%TO.C,R49*%
X130100000Y-109325000D03*
X130100000Y-107675000D03*
%TD*%
D17*
%TO.C,R31*%
X92175000Y-73000000D03*
X93825000Y-73000000D03*
%TD*%
D16*
%TO.C,R63*%
X110000000Y-118325000D03*
X110000000Y-116675000D03*
%TD*%
D17*
%TO.C,C20*%
X92175000Y-77000000D03*
X93825000Y-77000000D03*
%TD*%
D41*
%TO.C,*%
X124500000Y-61600000D03*
%TD*%
D47*
%TO.C,C67*%
X94912500Y-80000000D03*
X93087500Y-80000000D03*
%TD*%
D17*
%TO.C,R65*%
X105175000Y-134000000D03*
X106825000Y-134000000D03*
%TD*%
%TO.C,R25*%
X104675000Y-77000000D03*
X106325000Y-77000000D03*
%TD*%
D33*
%TO.C,Q1*%
X86149985Y-60949960D03*
X86149985Y-59050040D03*
X83850015Y-60000000D03*
%TD*%
D17*
%TO.C,R39*%
X106375000Y-98900000D03*
X108025000Y-98900000D03*
%TD*%
%TO.C,R35*%
X105675000Y-105000000D03*
X107325000Y-105000000D03*
%TD*%
%TO.C,R77*%
X96075000Y-128000000D03*
X94425000Y-128000000D03*
%TD*%
D25*
%TO.C,U4*%
X89300099Y-76949960D03*
X89300099Y-76000000D03*
X89300099Y-75050040D03*
X86699901Y-75050040D03*
X86699901Y-76949960D03*
%TD*%
D27*
%TO.C,D6*%
X114192402Y-130500000D03*
X110807598Y-130500000D03*
%TD*%
D19*
%TO.C,Q8*%
X109974606Y-111095000D03*
X109974606Y-112365000D03*
X109974606Y-113635000D03*
X109974606Y-114905000D03*
X116025394Y-114905000D03*
X116025394Y-113635000D03*
X116025394Y-112365000D03*
X116025394Y-111095000D03*
D20*
X113649986Y-113000000D03*
%TD*%
D16*
%TO.C,C82*%
X130000000Y-124825000D03*
X130000000Y-123175000D03*
%TD*%
D19*
%TO.C,Q12*%
X132574606Y-116695000D03*
X132574606Y-117965000D03*
X132574606Y-119235000D03*
X132574606Y-120505000D03*
X138625394Y-120505000D03*
X138625394Y-119235000D03*
X138625394Y-117965000D03*
X138625394Y-116695000D03*
D20*
X136249986Y-118600000D03*
%TD*%
D17*
%TO.C,R76*%
X77175000Y-131500000D03*
X78825000Y-131500000D03*
%TD*%
%TO.C,R48*%
X140375000Y-94300000D03*
X142025000Y-94300000D03*
%TD*%
%TO.C,C53*%
X104125000Y-105300000D03*
X102475000Y-105300000D03*
%TD*%
D16*
%TO.C,R97*%
X140500000Y-121325000D03*
X140500000Y-119675000D03*
%TD*%
D17*
%TO.C,R52*%
X129175000Y-118300000D03*
X130825000Y-118300000D03*
%TD*%
D72*
%TO.C,Q16*%
X106095000Y-70025394D03*
X107365000Y-70025394D03*
X108635000Y-70025394D03*
X109905000Y-70025394D03*
X109905000Y-63974606D03*
X108635000Y-63974606D03*
X107365000Y-63974606D03*
X106095000Y-63974606D03*
D73*
X108000000Y-66350014D03*
%TD*%
D31*
%TO.C,U19*%
X66095000Y-126099944D03*
X67365000Y-126099944D03*
X68635000Y-126099944D03*
X69905000Y-126099944D03*
X69905000Y-120900056D03*
X68635000Y-120900056D03*
X67365000Y-120900056D03*
X66095000Y-120900056D03*
%TD*%
D76*
%TO.C,U17*%
X85095000Y-129530092D03*
X86365000Y-129530092D03*
X87635000Y-129530092D03*
X88905000Y-129530092D03*
X88905000Y-122469908D03*
X87635000Y-122469908D03*
X86365000Y-122469908D03*
X85095000Y-122469908D03*
%TD*%
D16*
%TO.C,R121*%
X81000000Y-67675000D03*
X81000000Y-69325000D03*
%TD*%
D18*
%TO.C,TP_ENC_3V3*%
X90000000Y-135000000D03*
%TD*%
D16*
%TO.C,R114*%
X126000000Y-90825000D03*
X126000000Y-89175000D03*
%TD*%
D17*
%TO.C,R18*%
X81425000Y-94000000D03*
X83075000Y-94000000D03*
%TD*%
%TO.C,R34*%
X119425000Y-108000000D03*
X121075000Y-108000000D03*
%TD*%
D55*
%TO.C,R110*%
X138666288Y-106500000D03*
X132533712Y-106500000D03*
%TD*%
D17*
%TO.C,R94*%
X124325000Y-90500000D03*
X122675000Y-90500000D03*
%TD*%
D77*
%TO.C,U2*%
X74599952Y-78050034D03*
X74999748Y-78050034D03*
X75399798Y-78050034D03*
X75799848Y-78050034D03*
X76199898Y-78050034D03*
X76599948Y-78050034D03*
X76999744Y-78050034D03*
X77399794Y-78050034D03*
D78*
X78050034Y-77400048D03*
X78050034Y-76999998D03*
X78050034Y-76599948D03*
X78050034Y-76199898D03*
X78050034Y-75800102D03*
X78050034Y-75400052D03*
X78050034Y-75000002D03*
X78050034Y-74599952D03*
D77*
X77399794Y-73949966D03*
X76999744Y-73949966D03*
X76599948Y-73949966D03*
X76199898Y-73949966D03*
X75799848Y-73949966D03*
X75399798Y-73949966D03*
X74999748Y-73949966D03*
X74599952Y-73949966D03*
D78*
X73949966Y-74599952D03*
X73949966Y-75000002D03*
X73949966Y-75400052D03*
X73949966Y-75800102D03*
X73949966Y-76199898D03*
X73949966Y-76599948D03*
X73949966Y-76999998D03*
X73949966Y-77400048D03*
D79*
X76000000Y-76000000D03*
%TD*%
D17*
%TO.C,R46*%
X142025000Y-92100000D03*
X140375000Y-92100000D03*
%TD*%
%TO.C,R50*%
X129175000Y-120500000D03*
X130825000Y-120500000D03*
%TD*%
%TO.C,C93*%
X102175000Y-127000000D03*
X103825000Y-127000000D03*
%TD*%
D16*
%TO.C,C85*%
X103000000Y-95325000D03*
X103000000Y-93675000D03*
%TD*%
D27*
%TO.C,D10*%
X140692402Y-74000000D03*
X137307598Y-74000000D03*
%TD*%
D16*
%TO.C,R99*%
X140500000Y-98675000D03*
X140500000Y-100325000D03*
%TD*%
D80*
%TO.C,U25*%
X82949960Y-99699901D03*
X82000000Y-99699901D03*
X81050040Y-99699901D03*
X81050040Y-102300099D03*
X82949960Y-102300099D03*
%TD*%
D17*
%TO.C,R120*%
X72825000Y-109000000D03*
X71175000Y-109000000D03*
%TD*%
%TO.C,R71*%
X71675000Y-111500000D03*
X73325000Y-111500000D03*
%TD*%
D22*
%TO.C,Q24*%
X122999998Y-83949960D03*
X122999998Y-82050040D03*
X121000002Y-83000000D03*
%TD*%
D16*
%TO.C,C9*%
X82500000Y-67825000D03*
X82500000Y-66175000D03*
%TD*%
D65*
%TO.C,C5*%
X66000000Y-78712500D03*
X66000000Y-75787500D03*
%TD*%
D26*
%TO.C,C35*%
X130450000Y-99312500D03*
X130450000Y-97487500D03*
%TD*%
%LPD*%
M02*
