%TF.GenerationSoftware,KiCad,Pcbnew,10.0.5*%
%TF.CreationDate,2026-10-10T07:25:36+05:30*%
%TF.ProjectId,pd1180-epr-r0.3,70643131-3830-42d6-9570-722d72302e33,rev?*%
%TF.SameCoordinates,Original*%
%TF.FileFunction,Copper,L4,Bot*%
%TF.FilePolarity,Positive*%
%FSLAX46Y46*%
G04 Gerber Fmt 4.6, Leading zero omitted, Abs format (unit mm)*
G04 Created by KiCad (PCBNEW 10.0.5) date 2026-10-10 07:25:36*
%MOMM*%
%LPD*%
G01*
G04 APERTURE LIST*
%TA.AperFunction,ComponentPad*%
%ADD10C,2.099996*%
%TD*%
%TA.AperFunction,ComponentPad*%
%ADD11O,2.099996X1.099998*%
%TD*%
%TA.AperFunction,ComponentPad*%
%ADD12O,1.799996X1.099998*%
%TD*%
%TA.AperFunction,ComponentPad*%
%ADD13C,1.524000*%
%TD*%
%TA.AperFunction,ComponentPad*%
%ADD14R,2.499995X2.499995*%
%TD*%
%TA.AperFunction,ComponentPad*%
%ADD15C,2.499995*%
%TD*%
%TA.AperFunction,ViaPad*%
%ADD16C,0.450000*%
%TD*%
%TA.AperFunction,ViaPad*%
%ADD17C,0.600000*%
%TD*%
%TA.AperFunction,Conductor*%
%ADD18C,0.150000*%
%TD*%
%TA.AperFunction,Conductor*%
%ADD19C,0.500000*%
%TD*%
%TA.AperFunction,Conductor*%
%ADD20C,0.250000*%
%TD*%
G04 APERTURE END LIST*
D10*
%TO.P,C22,1*%
%TO.N,VMOTOR*%
X117500005Y-72000000D03*
%TO.P,C22,2*%
%TO.N,GND*%
X122499995Y-72000000D03*
%TD*%
D11*
%TO.P,J1,1*%
%TO.N,GND*%
X65544454Y-80679968D03*
%TO.P,J1,2*%
X65544454Y-89320032D03*
D12*
%TO.P,J1,3*%
X61364376Y-89320032D03*
%TO.P,J1,4*%
X61364375Y-80679968D03*
%TD*%
D10*
%TO.P,C23,1*%
%TO.N,VMOTOR*%
X132500005Y-82000000D03*
%TO.P,C23,2*%
%TO.N,GND*%
X137499995Y-82000000D03*
%TD*%
D13*
%TO.P,J7,1*%
%TO.N,HOME_24V*%
X106999982Y-139999871D03*
%TO.P,J7,2*%
%TO.N,STOPL_24V*%
X106999982Y-137999875D03*
%TO.P,J7,3*%
%TO.N,STOPR_24V*%
X104999986Y-139999871D03*
%TO.P,J7,4*%
%TO.N,DIN0_24V*%
X104999986Y-137999875D03*
%TO.P,J7,5*%
%TO.N,DIN1_24V*%
X102999990Y-139999871D03*
%TO.P,J7,6*%
%TO.N,STEP_24V*%
X102999990Y-137999875D03*
%TO.P,J7,7*%
%TO.N,DIR_24V*%
X100999994Y-139999871D03*
%TO.P,J7,8*%
%TO.N,GND*%
X100999994Y-137999875D03*
%TO.P,J7,9*%
%TO.N,RS232_TX_CONN*%
X98999998Y-139999871D03*
%TO.P,J7,10*%
%TO.N,RS232_RX_CONN*%
X98999998Y-137999875D03*
%TO.P,J7,11*%
%TO.N,GND*%
X97000002Y-139999871D03*
%TO.P,J7,12*%
%TO.N,CAN_H*%
X97000002Y-137999875D03*
%TO.P,J7,13*%
%TO.N,CAN_L*%
X95000006Y-139999871D03*
%TO.P,J7,14*%
%TO.N,GND*%
X95000006Y-137999875D03*
%TO.P,J7,15*%
%TO.N,RS485_A*%
X93000010Y-139999871D03*
%TO.P,J7,16*%
%TO.N,RS485_B*%
X93000010Y-137999875D03*
%TO.P,J7,17*%
%TO.N,VMOTOR*%
X91000014Y-139999871D03*
%TO.P,J7,18*%
%TO.N,HW_ENABLE_24V*%
X91000014Y-137999875D03*
%TO.P,J7,19*%
%TO.N,OUT0*%
X89000018Y-139999871D03*
%TO.P,J7,20*%
%TO.N,OUT1*%
X89000018Y-137999875D03*
%TD*%
D11*
%TO.P,J10,1*%
%TO.N,GND*%
X65544454Y-94679968D03*
%TO.P,J10,2*%
X65544454Y-103320032D03*
D12*
%TO.P,J10,3*%
X61364376Y-103320032D03*
%TO.P,J10,4*%
X61364375Y-94679968D03*
%TD*%
D14*
%TO.P,J2,1*%
%TO.N,MOTOR_A1_OUT*%
X114059956Y-139000000D03*
D15*
%TO.P,J2,2*%
%TO.N,MOTOR_A2*%
X118020070Y-139000000D03*
%TO.P,J2,3*%
%TO.N,MOTOR_B1_OUT*%
X121980184Y-139000000D03*
%TO.P,J2,4*%
%TO.N,MOTOR_B2*%
X125940044Y-139000000D03*
%TD*%
D14*
%TO.P,J3,1*%
%TO.N,VMOTOR*%
X98019816Y-63500000D03*
D15*
%TO.P,J3,2*%
%TO.N,BRAKE_RETURN*%
X101980184Y-63500000D03*
%TD*%
D16*
%TO.N,OUT0_DRIVE*%
X94116200Y-87839700D03*
X118454800Y-83825000D03*
X77894600Y-110621200D03*
X90875000Y-109160900D03*
%TO.N,OUT0_BASE*%
X118447800Y-82424900D03*
X123000000Y-83270400D03*
X140216600Y-97938900D03*
%TO.N,USB_ILIM*%
X76588300Y-95241000D03*
X79782100Y-96733800D03*
D17*
%TO.N,GND*%
X91325000Y-86600000D03*
X86800000Y-103275000D03*
X98525000Y-108000000D03*
D16*
X105933400Y-78199400D03*
D17*
X88365000Y-98246100D03*
X89350000Y-105750100D03*
X103275000Y-121000000D03*
D16*
X121000000Y-97950000D03*
D17*
X130000000Y-122275000D03*
X126500000Y-92475000D03*
X98325000Y-93900000D03*
X75825000Y-87900000D03*
X120000000Y-122275000D03*
X102524999Y-113000000D03*
X85250000Y-93275000D03*
D16*
X128203353Y-105717253D03*
X127063548Y-101353553D03*
D17*
X87025000Y-99700000D03*
X79250000Y-120975000D03*
X90274999Y-110000000D03*
X82274999Y-77000000D03*
X123250000Y-110212499D03*
X70400000Y-69475000D03*
X74525000Y-63500000D03*
D16*
X122578100Y-81368600D03*
D17*
X74175000Y-100900000D03*
X103000000Y-92775000D03*
X127400000Y-91487500D03*
X74000000Y-82475000D03*
X90275000Y-115000000D03*
D16*
X85845000Y-92905000D03*
D17*
X62225000Y-105200000D03*
X81250000Y-120975000D03*
X121225000Y-94000000D03*
X72000000Y-81475000D03*
X71524999Y-123500000D03*
X96725000Y-106000000D03*
X100000000Y-107275000D03*
X123800000Y-91575000D03*
X108900000Y-79725000D03*
X77250000Y-120975000D03*
X66875000Y-128500000D03*
X125250000Y-109925000D03*
X96187500Y-70500000D03*
X116275000Y-102650000D03*
X87025000Y-102300000D03*
X72365000Y-99496100D03*
X76000000Y-82475000D03*
X82750000Y-124975000D03*
X104225000Y-133000000D03*
D16*
%TO.N,OUT1_BASE*%
X128303700Y-87325000D03*
X126906400Y-83256800D03*
%TO.N,SWCLK*%
X76310800Y-107216200D03*
X78117300Y-134985400D03*
D17*
%TO.N,SENSE_B*%
X133698900Y-102675100D03*
X135198900Y-104625100D03*
X133548900Y-104325100D03*
X133698900Y-103575100D03*
D16*
%TO.N,GL_B1*%
X130759600Y-109989400D03*
X130892700Y-104475000D03*
D17*
%TO.N,MOTOR_B1*%
X127893001Y-118185786D03*
X136749986Y-101500000D03*
X131160000Y-91887499D03*
X136750000Y-100500000D03*
X127893001Y-119085786D03*
X135749986Y-100500000D03*
X128199890Y-97499942D03*
X126993000Y-119085786D03*
X131160000Y-92787500D03*
X135749986Y-101500000D03*
X127893001Y-119985786D03*
D16*
%TO.N,NRST*%
X84980600Y-116414800D03*
X85478800Y-114614100D03*
X81882600Y-136392800D03*
%TO.N,HW_ENABLE_24V*%
X91175000Y-112197300D03*
%TO.N,V3V3*%
X117093400Y-101750000D03*
X80302360Y-105131460D03*
X115262686Y-123704386D03*
X75123700Y-81076100D03*
X119393900Y-94000000D03*
X121000000Y-124825000D03*
X125705100Y-124365000D03*
X116676900Y-125118600D03*
X118049300Y-96034800D03*
X88845100Y-98899900D03*
X88953400Y-77853500D03*
X116484700Y-132698600D03*
X97615300Y-105778500D03*
X105655700Y-96626400D03*
X92524100Y-97443500D03*
X83103053Y-105638146D03*
X87460800Y-105144200D03*
X107575000Y-122275000D03*
D17*
%TO.N,SENSE_A*%
X111783400Y-102900000D03*
X105761800Y-101825000D03*
X111783400Y-102000000D03*
X108877200Y-97635000D03*
X112683400Y-102000000D03*
X112683400Y-102900000D03*
D16*
%TO.N,ENABLE_CHAIN*%
X98370900Y-118332100D03*
X96496000Y-120207000D03*
%TO.N,POWER_PERMIT*%
X84525100Y-78330800D03*
X77705700Y-112632000D03*
%TO.N,TMC_5V*%
X124750000Y-94800100D03*
X118625000Y-108000000D03*
%TO.N,RUN_SAFE*%
X103568000Y-94550000D03*
X96558000Y-116200400D03*
D17*
%TO.N,MOTOR_A1*%
X113150000Y-97500000D03*
X118795366Y-96490433D03*
X114149986Y-97500000D03*
X110956600Y-118907300D03*
X114149986Y-96500000D03*
X126949890Y-102249934D03*
X113150000Y-96500000D03*
X114110300Y-93890800D03*
X113210299Y-93890800D03*
%TO.N,MOTOR_A1_OUT*%
X114608500Y-121541800D03*
X114608500Y-120641800D03*
X114458500Y-122291800D03*
X114458500Y-123641799D03*
D16*
%TO.N,GL_B2_DRV*%
X129269900Y-98988200D03*
X141022000Y-101192700D03*
X142008200Y-110910100D03*
D17*
%TO.N,PD_VBUS*%
X68852800Y-87533100D03*
X97960700Y-78676200D03*
X92155400Y-72005100D03*
X89675000Y-57770200D03*
X92155400Y-71105100D03*
X67952800Y-86633100D03*
X93055400Y-71105100D03*
X67952800Y-85733100D03*
X88775000Y-57770200D03*
X93055400Y-72005100D03*
X87875000Y-57770200D03*
X88775000Y-58670200D03*
D16*
%TO.N,UVLO_MID*%
X103043700Y-79000000D03*
X102883400Y-71631500D03*
D17*
%TO.N,VMOTOR*%
X135450000Y-93500000D03*
X113150000Y-113500000D03*
X111850000Y-90500000D03*
X135749986Y-118100000D03*
X112850000Y-90500000D03*
X113150000Y-112500000D03*
X134450000Y-93500000D03*
X105524900Y-118835400D03*
X114150000Y-113500000D03*
X135749986Y-119100000D03*
X134450000Y-94500000D03*
X112850000Y-91500000D03*
X136750000Y-119100000D03*
X97518700Y-128816700D03*
X114150000Y-112500000D03*
X135450000Y-94500000D03*
X111850000Y-91500000D03*
X136750000Y-118100000D03*
D16*
%TO.N,V3V3_USB*%
X94664600Y-104814500D03*
X85324900Y-104828100D03*
%TO.N,RUN_PG*%
X95787200Y-107961700D03*
X96419100Y-114950000D03*
%TO.N,VMOTOR_OK*%
X76942500Y-114750100D03*
X99007800Y-131734300D03*
X103432100Y-130840200D03*
X97289800Y-127334100D03*
X97908500Y-115590600D03*
%TO.N,RUN_WINDOW_OK*%
X95569500Y-113005700D03*
X97177400Y-97128800D03*
X106421800Y-96450000D03*
%TO.N,VMON_ADC*%
X110204100Y-80351000D03*
X96014300Y-84827400D03*
X94861900Y-95979900D03*
%TO.N,EPR_EN*%
X65938600Y-76556500D03*
X77022800Y-78732700D03*
%TO.N,DIN0_BASE*%
X94087300Y-127205900D03*
X93835900Y-131269200D03*
X91602600Y-125705200D03*
%TO.N,BUCK_FB*%
X78057900Y-91955400D03*
X74239900Y-89998500D03*
%TO.N,OUT0*%
X115879500Y-60000000D03*
X120333000Y-82333000D03*
%TO.N,OVP_TOP*%
X107047000Y-75496500D03*
X98102600Y-75846300D03*
%TO.N,OVP_DIV*%
X103617500Y-76250100D03*
X96444400Y-76535700D03*
%TO.N,USB_DATA_VBUS*%
X70191200Y-94459600D03*
X79434700Y-93545500D03*
X84233300Y-96180700D03*
%TO.N,RS485_RX*%
X82633000Y-114444800D03*
X76502600Y-127178300D03*
X81097200Y-123699800D03*
%TO.N,RS485_DE*%
X82670700Y-110249900D03*
X78331100Y-127423300D03*
%TO.N,RS485_TX*%
X81916300Y-114666100D03*
X80526500Y-128599900D03*
%TO.N,RS485_A*%
X75477400Y-130695700D03*
%TO.N,RS485_B*%
X73767700Y-130399100D03*
%TO.N,TMC_12V*%
X108900000Y-77975000D03*
X125850000Y-95000100D03*
X113442900Y-64500000D03*
X108950000Y-76099100D03*
%TO.N,EPR_BLK_GATE*%
X76122400Y-60205000D03*
X72375000Y-74100000D03*
X67782300Y-75098500D03*
%TO.N,VBUS_LV*%
X77024800Y-59273500D03*
X67776100Y-76248700D03*
X78839600Y-73477800D03*
X72442300Y-75818600D03*
%TO.N,EFUSE_EN*%
X87667400Y-74717400D03*
X103728800Y-73753800D03*
%TO.N,EFUSE_FAULT_N*%
X85548200Y-110841600D03*
X109991600Y-76179500D03*
X103876500Y-72378500D03*
%TO.N,MOTOR_LOGIC_PG*%
X91577900Y-94220100D03*
X94781300Y-95212600D03*
%TO.N,STATUS_GPIO*%
X82535500Y-135301700D03*
X75915500Y-115333200D03*
X76278600Y-131166000D03*
%TO.N,MCU_RUN*%
X79209000Y-111703200D03*
X78293800Y-109422600D03*
X96420700Y-109787300D03*
%TO.N,MOTOR_PG*%
X100918300Y-72370700D03*
X101925700Y-84948500D03*
X78376400Y-110307300D03*
X97703600Y-106334700D03*
%TO.N,STOP_R_BASE*%
X119588900Y-112398500D03*
X118846600Y-134000000D03*
X117332300Y-129928300D03*
%TO.N,BLOCK_FAST_GATE*%
X93516300Y-60712600D03*
X101402400Y-77611200D03*
%TO.N,BLOCK_GATE*%
X90850000Y-61225500D03*
X100748500Y-77608900D03*
X93033200Y-69048000D03*
%TO.N,DIN1_24V*%
X95910600Y-124219500D03*
%TO.N,DIN1_BASE*%
X94695700Y-128898700D03*
X92984200Y-124549200D03*
%TO.N,USB_VBUS_SENSE*%
X83425000Y-81202700D03*
X83109900Y-112123600D03*
X76358300Y-85079400D03*
%TO.N,SWDIO*%
X79427900Y-133800000D03*
X77749900Y-106662600D03*
%TO.N,PD_SDA*%
X93132900Y-94021200D03*
X73735500Y-109887600D03*
X67455000Y-79198300D03*
X77242200Y-92086300D03*
X77828400Y-78397400D03*
X119592500Y-92985200D03*
%TO.N,PD_PATH_N*%
X82356500Y-79426900D03*
X86849700Y-70828800D03*
%TO.N,OSC_IN*%
X86809900Y-118210200D03*
X85458000Y-115193700D03*
%TO.N,V3V3_MCU*%
X75835786Y-119839213D03*
X78883883Y-132916116D03*
X87264339Y-113060660D03*
X81899926Y-106399986D03*
X80000000Y-117815000D03*
%TO.N,PHASE_B_ADC*%
X127172700Y-127881400D03*
X86247600Y-116255400D03*
%TO.N,CC2_CONN*%
X67120900Y-86705900D03*
X71219000Y-77227200D03*
%TO.N,PD_SBU1_CONN*%
X67270900Y-86132000D03*
X68776700Y-77000000D03*
%TO.N,CC1_CONN*%
X72088900Y-76660300D03*
X71294300Y-84435100D03*
X67316500Y-84435100D03*
%TO.N,PD_SBU2_CONN*%
X67345300Y-83065300D03*
X69283000Y-77732800D03*
%TO.N,FLASH_CS_N*%
X85427300Y-109605300D03*
X87020300Y-127360400D03*
X92083900Y-127853100D03*
%TO.N,OUT1*%
X122904000Y-79843400D03*
X83120500Y-60153700D03*
%TO.N,GL_B1_DRV*%
X129199999Y-106125000D03*
X126949890Y-98750068D03*
%TO.N,CC_FAULT_N*%
X72218100Y-75207900D03*
X84145400Y-64000000D03*
X76417700Y-79203100D03*
%TO.N,CC2_PD*%
X73523800Y-74173700D03*
X77420100Y-81000400D03*
X71100000Y-73100000D03*
%TO.N,HOME_IN_BASE*%
X105058200Y-127772200D03*
X125371500Y-130416200D03*
X140989000Y-118493500D03*
X103189700Y-88633300D03*
%TO.N,ENC_CS_N*%
X99406000Y-94602300D03*
X83182300Y-109636000D03*
X91570600Y-109083200D03*
%TO.N,RS232_VP*%
X62947100Y-118000000D03*
X61637600Y-114789600D03*
%TO.N,HOME_IN*%
X103354600Y-90769200D03*
X98234000Y-106723600D03*
X84998400Y-107958800D03*
X131453900Y-90154400D03*
%TO.N,PD_LEVEL_BASE*%
X81635300Y-74698600D03*
X77380300Y-70788100D03*
X82151100Y-80582700D03*
%TO.N,STOP_L*%
X107000000Y-130294600D03*
X85672300Y-107805400D03*
X113492400Y-132960500D03*
X106298900Y-107403600D03*
%TO.N,DIN1*%
X78040600Y-115110300D03*
X115918900Y-126948200D03*
X99942400Y-130829900D03*
X118175000Y-119198400D03*
D17*
%TO.N,MOTOR_B1_OUT*%
X122251100Y-119708599D03*
X122251100Y-121508600D03*
X121351099Y-120608600D03*
X122251100Y-120608600D03*
D16*
%TO.N,DIN0*%
X77411100Y-117320600D03*
X87737500Y-119955000D03*
X90531500Y-131273700D03*
%TO.N,PHASE_A_ADC*%
X89907300Y-119798300D03*
X113491600Y-122021500D03*
X88479200Y-120065400D03*
X116675000Y-128402200D03*
X82307700Y-117326300D03*
%TO.N,TMC_CS_N*%
X86214100Y-107765000D03*
X108207600Y-105000000D03*
X119925000Y-97725000D03*
%TO.N,SPI_SCK*%
X118668000Y-98944200D03*
X102662500Y-97984500D03*
X87345800Y-120989400D03*
X90674100Y-104146000D03*
X85719100Y-112962600D03*
%TO.N,SPI_MISO*%
X83177400Y-112750100D03*
X86627900Y-130971200D03*
X100650000Y-98788000D03*
X96694400Y-111858400D03*
X118654800Y-99916300D03*
%TO.N,SPI_MOSI*%
X89089600Y-121027000D03*
X118315800Y-99373300D03*
X100000000Y-98384500D03*
X85700900Y-112249900D03*
%TO.N,BOARD_POWER_SENSE*%
X72093100Y-109084800D03*
X83178000Y-111027600D03*
%TO.N,STOP_R*%
X106675900Y-125812500D03*
X106348900Y-110483400D03*
X83310200Y-108502900D03*
X104727000Y-110192900D03*
%TO.N,SD_MODE*%
X118716660Y-104153339D03*
X101881500Y-108480700D03*
X116546400Y-86351000D03*
X83206900Y-107063500D03*
%TO.N,RS232_TX*%
X65766100Y-107704800D03*
X80369800Y-109380100D03*
X78598700Y-108821000D03*
%TO.N,STEP_IN*%
X83549200Y-107597300D03*
X81450000Y-109800000D03*
X105421700Y-109171800D03*
X106787600Y-85325700D03*
X120863400Y-90500000D03*
X120809500Y-85325700D03*
X79649999Y-106200000D03*
%TO.N,DIR_IN*%
X108647300Y-111716800D03*
X107815300Y-82014000D03*
X140169000Y-118885700D03*
X79880800Y-111815700D03*
%TO.N,RS232_RX*%
X79197900Y-106660600D03*
X65743700Y-106809000D03*
%TO.N,USB_DM*%
X76013000Y-105959200D03*
X74128100Y-113108300D03*
%TO.N,USB_DP*%
X88164400Y-109197700D03*
X78279500Y-106404200D03*
X79992100Y-108983000D03*
%TO.N,CAN_RX*%
X74677500Y-109627500D03*
X70518300Y-126099900D03*
%TO.N,CAN_TX*%
X74141800Y-110249900D03*
X64627700Y-125118600D03*
X64627700Y-122880200D03*
%TO.N,OUT1_DRIVE*%
X77047200Y-111157700D03*
X109914800Y-102911600D03*
X136411200Y-90510100D03*
X111514100Y-95626900D03*
%TO.N,TMC_DIAG0*%
X121260300Y-107064300D03*
X119016700Y-112231200D03*
X76942500Y-111966800D03*
%TO.N,PD_SCL*%
X78726800Y-77400000D03*
X81807600Y-87557100D03*
X92405500Y-92908400D03*
X81811300Y-71479200D03*
X78065900Y-113050300D03*
X119987600Y-91114500D03*
%TO.N,TMC_DIAG1*%
X76950900Y-114151400D03*
X118625000Y-113001500D03*
X121816400Y-106318600D03*
%TO.N,PD_PATH_HV*%
X76199900Y-73274700D03*
X75713500Y-70789900D03*
%TO.N,DIR_24V*%
X135108000Y-127995300D03*
X139201200Y-90812700D03*
%TO.N,DIR_IN_BASE*%
X108118300Y-80723400D03*
X135738100Y-127357000D03*
X140692400Y-74895100D03*
X140659300Y-90799200D03*
X135738100Y-121353000D03*
X137384600Y-121351100D03*
%TO.N,GH_A2_DRV*%
X108975500Y-108712900D03*
X127222100Y-105671900D03*
X106645300Y-115762900D03*
%TO.N,REFL_STEP*%
X114957200Y-106998400D03*
X103867100Y-107366700D03*
X117504200Y-100357200D03*
%TO.N,UVLO_DIV*%
X94996100Y-75678900D03*
X103094000Y-71000000D03*
X102947700Y-76769800D03*
%TO.N,V3V3_PD*%
X80377300Y-94000000D03*
X78526400Y-99727600D03*
%TO.N,TMC_VCP*%
X125750100Y-106326700D03*
X127927700Y-112774700D03*
%TO.N,ENC_B*%
X95885900Y-134440600D03*
X97829200Y-98602900D03*
%TO.N,ENC_A*%
X94759100Y-133812900D03*
X97500000Y-96665700D03*
%TO.N,ENC_I*%
X102111000Y-103976200D03*
X98573500Y-134097000D03*
%TO.N,TEMP_OK*%
X108185300Y-95356900D03*
X121391800Y-91500000D03*
X125434100Y-89892600D03*
D17*
%TO.N,MOTOR_A2*%
X112850000Y-107500000D03*
X111850000Y-106500000D03*
X128600200Y-108212499D03*
X128600200Y-109112500D03*
X128600200Y-110012500D03*
X128199890Y-104500058D03*
X112850000Y-106500000D03*
X129117400Y-104262600D03*
X111850000Y-107500000D03*
D16*
%TO.N,LOGIC_OR_PRIORITY*%
X73386300Y-99962200D03*
X78280900Y-98140000D03*
X90262100Y-101846000D03*
%TO.N,RS232_C1P*%
X63066200Y-116724600D03*
X60055000Y-111931500D03*
X60957200Y-116084800D03*
%TO.N,RS232_C1N*%
X65226600Y-115187500D03*
X62144500Y-114342800D03*
%TO.N,RS232_C2P*%
X63229400Y-112610900D03*
X60175000Y-115198600D03*
%TO.N,RS232_C2N*%
X64878700Y-111927600D03*
X62156900Y-115199800D03*
%TO.N,RS232_RX_CONN*%
X63229400Y-107636900D03*
%TO.N,RS232_TX_CONN*%
X62595000Y-109084100D03*
%TO.N,STEP_24V*%
X141036500Y-111200000D03*
%TO.N,CAN_H*%
X74821500Y-127168200D03*
X92504500Y-131952800D03*
%TO.N,CAN_L*%
X75849100Y-126041700D03*
%TO.N,STEP_IN_BASE*%
X130143200Y-88722700D03*
X140200400Y-105448600D03*
X130143200Y-112107800D03*
X105930800Y-85569700D03*
%TO.N,PG_DIV*%
X103274100Y-79978800D03*
X92513500Y-75800000D03*
X104839500Y-71569200D03*
X104187300Y-80930400D03*
%TO.N,PD_PATH_OK*%
X70200100Y-82910400D03*
X84102500Y-79307700D03*
%TO.N,VMON_MID*%
X109957700Y-82000000D03*
X93825000Y-72057900D03*
X110647000Y-76109500D03*
%TO.N,DATA_CC2*%
X67949300Y-96948200D03*
X67082800Y-100822400D03*
X68066700Y-104000000D03*
%TO.N,BRAKE_MID*%
X111363700Y-118340600D03*
X107608200Y-119150100D03*
%TO.N,EEP_SDA*%
X76577700Y-66800000D03*
X78742500Y-75031000D03*
%TO.N,CC_VBIAS*%
X70000100Y-77723600D03*
X70538000Y-80287000D03*
%TO.N,USB_DP_CONN*%
X69150600Y-100809600D03*
X79392716Y-105348016D03*
X85276000Y-106731900D03*
%TO.N,USB_DM_CONN*%
X70647200Y-102546900D03*
X70645000Y-113269200D03*
D17*
%TO.N,MOTOR_B2*%
X131333883Y-98371383D03*
X128254257Y-138485786D03*
X135450000Y-111500000D03*
X131074605Y-119235000D03*
X135450000Y-112500000D03*
X126949890Y-100500066D03*
X128254257Y-137585786D03*
X127354257Y-137585786D03*
X127354257Y-136685786D03*
X134450000Y-111500000D03*
X126949890Y-99750066D03*
X134450000Y-112500000D03*
%TO.N,BRAKE_RETURN*%
X108500000Y-65850000D03*
X108500000Y-66850000D03*
X107500000Y-65850000D03*
X107500000Y-66850000D03*
D16*
%TO.N,MOTOR_BUCK_FB*%
X86825000Y-96699900D03*
X90286300Y-82589000D03*
X90763500Y-86979300D03*
D17*
%TO.N,EFUSE_IN*%
X92500000Y-66850000D03*
X91500000Y-65850000D03*
X91500000Y-66850000D03*
X92500000Y-65850000D03*
D16*
%TO.N,ILIM_SET*%
X103483700Y-77000000D03*
X103631000Y-74565300D03*
%TO.N,IIN_MON*%
X95459300Y-97110000D03*
X102729700Y-72837800D03*
X102088100Y-81547000D03*
%TO.N,CC1_PD*%
X74619600Y-73282100D03*
X70447400Y-73282100D03*
%TO.N,LOGIC_PG*%
X83799100Y-94157400D03*
X75598800Y-94846100D03*
%TO.N,GL_A2_DRV*%
X118610500Y-107069900D03*
X129324900Y-103123300D03*
%TO.N,BRAKE_ON*%
X109178100Y-122678900D03*
X109526800Y-117604100D03*
X108684900Y-71997500D03*
%TO.N,REFR_DIR*%
X106708700Y-100750100D03*
X106850000Y-112112500D03*
X118664000Y-100750100D03*
%TO.N,DRV_EN_N*%
X109768600Y-94257900D03*
X110009900Y-84835000D03*
X103206800Y-109485700D03*
X102500300Y-116324100D03*
X104369900Y-95269700D03*
X122501800Y-106275100D03*
%TO.N,EEP_SCL*%
X78598500Y-74299200D03*
X80999700Y-63111400D03*
%TO.N,GH_B1_DRV*%
X140060000Y-93025400D03*
X141298600Y-92505700D03*
X139630500Y-93708900D03*
X127216900Y-96442700D03*
%TO.N,TMC_CPI*%
X125078100Y-111500000D03*
X124800000Y-106350000D03*
%TO.N,GL_A1_DRV*%
X126836338Y-103103613D03*
X108450000Y-98100000D03*
%TO.N,GH_A1_DRV*%
X119528400Y-89898000D03*
X129679366Y-91775166D03*
X129415400Y-101814500D03*
%TO.N,GH_B2_DRV*%
X129175000Y-119707300D03*
X129329800Y-99908500D03*
%TO.N,MOTOR_OVP_LOW*%
X93849900Y-132922800D03*
X89049400Y-134170000D03*
X106138000Y-133352600D03*
X99114100Y-133504500D03*
X92703100Y-133040700D03*
X97849400Y-133628400D03*
%TO.N,EEP_IRQ_N*%
X78258500Y-73485300D03*
X76800300Y-68816200D03*
%TD*%
%TO.N,GND*%
D18*
X132633450Y-105717253D02*
X128203353Y-105717253D01*
X90275000Y-110000000D02*
X90275000Y-115000000D01*
X132633450Y-101353553D02*
X132633450Y-105717253D01*
X127063548Y-101353553D02*
X132633450Y-101353553D01*
%TO.N,MOTOR_B1*%
D19*
X135750000Y-101500000D02*
X128228194Y-118335544D01*
X128199890Y-97499942D02*
X128199890Y-95999971D01*
X128199890Y-95999971D02*
X131974938Y-95999971D01*
D20*
X135750000Y-101500000D02*
X135750000Y-100500000D01*
D19*
X135749986Y-95999971D02*
X135749986Y-100500000D01*
X128228194Y-118335544D02*
X127893001Y-119085786D01*
X131974938Y-95999971D02*
X135749986Y-95999971D01*
D20*
X135749986Y-100500000D02*
X136749986Y-100500000D01*
D19*
X131160000Y-92787500D02*
X131974938Y-95999971D01*
D20*
X136749986Y-100500000D02*
X136749986Y-101500000D01*
X136749986Y-101500000D02*
X135749986Y-101500000D01*
%TO.N,NRST*%
D18*
X84980600Y-116414800D02*
X81882600Y-119512800D01*
X81882600Y-119512800D02*
X81882600Y-136392800D01*
X85478800Y-114614100D02*
X84980600Y-115112300D01*
X84980600Y-115112300D02*
X84980600Y-116414800D01*
%TO.N,V3V3*%
X115262686Y-119989693D02*
X107575000Y-119989693D01*
X80302360Y-105131460D02*
X83103053Y-105638146D01*
X121000000Y-124825000D02*
X125705100Y-124365000D01*
X107575000Y-119989693D02*
X107575000Y-122275000D01*
X115262686Y-123704386D02*
X115262686Y-119989693D01*
%TO.N,SENSE_A*%
D19*
X112683400Y-102000000D02*
X112683400Y-101441200D01*
X112683400Y-101441200D02*
X108877200Y-97635000D01*
%TO.N,TMC_5V*%
D18*
X124750000Y-94800100D02*
X118625000Y-108000000D01*
%TO.N,MOTOR_A1*%
D20*
X113149986Y-97500000D02*
X113149986Y-96500000D01*
X114150000Y-96500000D02*
X114150000Y-97500000D01*
X113149986Y-96500000D02*
X114149986Y-96500000D01*
X114149986Y-97500000D02*
X113149986Y-97500000D01*
%TO.N,MOTOR_A1_OUT*%
D19*
X114608500Y-121541800D02*
X114458500Y-122291800D01*
X114060000Y-139000000D02*
X114060000Y-121541800D01*
X114608500Y-121541800D02*
X114458500Y-123641799D01*
X114060000Y-121541800D02*
X114060000Y-121190300D01*
X114060000Y-121190300D02*
X114608500Y-120641800D01*
%TO.N,VMOTOR*%
D20*
X134450000Y-94500000D02*
X134450000Y-93500000D01*
X111850000Y-91500000D02*
X111850000Y-90500000D01*
X135750000Y-118100000D02*
X136750000Y-118100000D01*
X136749986Y-118100000D02*
X136749986Y-119100000D01*
X114149986Y-113500000D02*
X113149986Y-113500000D01*
X113149986Y-113500000D02*
X113149986Y-112500000D01*
D19*
X97518700Y-128816700D02*
X105524900Y-120810500D01*
D20*
X111850000Y-90500000D02*
X112850000Y-90500000D01*
X114149986Y-112500000D02*
X114149986Y-113500000D01*
X134450000Y-93500000D02*
X135450000Y-93500000D01*
X136749986Y-119100000D02*
X135749986Y-119100000D01*
X112850000Y-90500000D02*
X112850000Y-91500000D01*
D19*
X105524900Y-120810500D02*
X105524900Y-118835400D01*
D20*
X135450000Y-94500000D02*
X134450000Y-94500000D01*
X112850000Y-91500000D02*
X111850000Y-91500000D01*
X113150000Y-112500000D02*
X114150000Y-112500000D01*
X135749986Y-119100000D02*
X135749986Y-118100000D01*
X135450000Y-93500000D02*
X135450000Y-94500000D01*
%TO.N,TMC_12V*%
D18*
X108900000Y-77975000D02*
X125850000Y-77975000D01*
X125850000Y-77975000D02*
X125850000Y-95000100D01*
%TO.N,MCU_RUN*%
X79209000Y-110337800D02*
X79209000Y-111703200D01*
X78293800Y-109422600D02*
X79209000Y-110337800D01*
%TO.N,MOTOR_PG*%
X100918300Y-72370700D02*
X101794100Y-73246500D01*
X101794100Y-79062600D02*
X101629200Y-79227500D01*
X101794100Y-73246500D02*
X101794100Y-79062600D01*
X101629200Y-84652000D02*
X101925700Y-84948500D01*
X101629200Y-79227500D02*
X101629200Y-84652000D01*
%TO.N,V3V3_MCU*%
X81899926Y-112205586D02*
X81899926Y-106399986D01*
X80000000Y-113937830D02*
X80000000Y-117815000D01*
X83632169Y-113937830D02*
X81899926Y-112205586D01*
X83632169Y-113937830D02*
X80000000Y-113937830D01*
X87264339Y-113060660D02*
X87264339Y-113937830D01*
X87264339Y-113937830D02*
X83632169Y-113937830D01*
X78883883Y-132916116D02*
X75835786Y-119839213D01*
%TO.N,CC2_PD*%
X71100000Y-73100000D02*
X73274999Y-74024999D01*
X73274999Y-74024999D02*
X73523800Y-74173700D01*
%TO.N,STEP_IN*%
X79649999Y-106200000D02*
X81450000Y-109800000D01*
%TO.N,MOTOR_A2*%
D20*
X112850000Y-107500000D02*
X111850000Y-107500000D01*
X111850000Y-107500000D02*
X111850000Y-106500000D01*
X111850000Y-106500000D02*
X112850000Y-106500000D01*
X112850000Y-106500000D02*
X112850000Y-107500000D01*
%TO.N,USB_DP_CONN*%
D18*
X85276000Y-106731900D02*
X79392716Y-105348016D01*
%TO.N,MOTOR_B2*%
D19*
X126949890Y-100500066D02*
X131333883Y-100500066D01*
D20*
X134450000Y-111500000D02*
X135450000Y-111500000D01*
D19*
X131074605Y-119235000D02*
X131074605Y-129160393D01*
D20*
X135450000Y-111500000D02*
X135450000Y-112500000D01*
D19*
X131074605Y-129160393D02*
X127354257Y-129160393D01*
X127354257Y-136685785D02*
X127354257Y-137585786D01*
D20*
X134450000Y-112500000D02*
X134450000Y-111500000D01*
X135450000Y-112500000D02*
X134450000Y-112500000D01*
D19*
X127354257Y-129160393D02*
X127354257Y-136685785D01*
X131333883Y-100500066D02*
X131333883Y-98371383D01*
%TO.N,BRAKE_RETURN*%
D20*
X108500000Y-65850000D02*
X108500000Y-66850000D01*
X107500000Y-65850000D02*
X108500000Y-65850000D01*
X108500000Y-66850000D02*
X107500000Y-66850000D01*
X107500000Y-66850000D02*
X107500000Y-65850000D01*
%TO.N,EFUSE_IN*%
X92500000Y-65850000D02*
X92500000Y-66850000D01*
X92500000Y-66850000D02*
X91500000Y-66850000D01*
X91500000Y-66850000D02*
X91500000Y-65850000D01*
X91500000Y-65850000D02*
X92500000Y-65850000D01*
%TO.N,IIN_MON*%
D18*
X102729700Y-72837800D02*
X102088100Y-73479400D01*
X102088100Y-73479400D02*
X102088100Y-81547000D01*
%TD*%
%TA.AperFunction,Conductor*%
%TO.N,MOTOR_A1_OUT*%
G36*
X113113980Y-121941336D02*
G01*
X113106100Y-121970745D01*
X113106100Y-122072254D01*
X113132370Y-122170293D01*
X113132372Y-122170298D01*
X113183124Y-122258202D01*
X113231732Y-122306810D01*
X113046463Y-123233157D01*
X113281276Y-123280119D01*
X113176053Y-124753252D01*
X115260000Y-124902105D01*
X115260000Y-140126000D01*
X115238326Y-140178326D01*
X115186000Y-140200000D01*
X112934000Y-140200000D01*
X112881674Y-140178326D01*
X112860000Y-140126000D01*
X112860000Y-132909745D01*
X113106900Y-132909745D01*
X113106900Y-133011254D01*
X113133170Y-133109293D01*
X113133172Y-133109298D01*
X113183924Y-133197202D01*
X113255698Y-133268976D01*
X113343603Y-133319728D01*
X113343604Y-133319728D01*
X113343606Y-133319729D01*
X113392625Y-133332864D01*
X113441645Y-133345999D01*
X113441646Y-133346000D01*
X113441648Y-133346000D01*
X113543154Y-133346000D01*
X113543154Y-133345999D01*
X113641197Y-133319728D01*
X113729102Y-133268976D01*
X113800876Y-133197202D01*
X113851628Y-133109297D01*
X113877899Y-133011254D01*
X113877900Y-133011254D01*
X113877900Y-132909746D01*
X113877899Y-132909745D01*
X113851629Y-132811706D01*
X113851627Y-132811701D01*
X113838028Y-132788147D01*
X113800876Y-132723798D01*
X113729102Y-132652024D01*
X113721869Y-132647848D01*
X113641198Y-132601272D01*
X113641193Y-132601270D01*
X113543154Y-132575000D01*
X113543152Y-132575000D01*
X113441648Y-132575000D01*
X113441646Y-132575000D01*
X113343606Y-132601270D01*
X113343601Y-132601272D01*
X113255697Y-132652024D01*
X113183924Y-132723797D01*
X113133172Y-132811701D01*
X113133170Y-132811706D01*
X113106900Y-132909745D01*
X112860000Y-132909745D01*
X112860000Y-121687356D01*
X113113980Y-121941336D01*
G37*
%TD.AperFunction*%
%TA.AperFunction,Conductor*%
G36*
X112860000Y-120693242D02*
G01*
X112860000Y-120299193D01*
X112881674Y-120246867D01*
X112934000Y-120225193D01*
X113328049Y-120225193D01*
X112860000Y-120693242D01*
G37*
%TD.AperFunction*%
%TD*%
%TA.AperFunction,Conductor*%
%TO.N,VMOTOR*%
G36*
X115328326Y-111321674D02*
G01*
X115349986Y-111373966D01*
X115349986Y-112300000D01*
X111950000Y-112300000D01*
X111950000Y-113700000D01*
X111949986Y-113700000D01*
X111949986Y-111374000D01*
X111971660Y-111321674D01*
X112023986Y-111300000D01*
X115276000Y-111300000D01*
X115328326Y-111321674D01*
G37*
%TD.AperFunction*%
%TD*%
%TA.AperFunction,Conductor*%
%TO.N,MOTOR_B2*%
G36*
X132512208Y-97193056D02*
G01*
X132533882Y-97245382D01*
X132533882Y-101044053D01*
X132512208Y-101096379D01*
X132459882Y-101118053D01*
X130133883Y-101118053D01*
X130133883Y-97245382D01*
X130155557Y-97193056D01*
X130207883Y-97171382D01*
X132459882Y-97171382D01*
X132512208Y-97193056D01*
G37*
%TD.AperFunction*%
%TD*%
%TA.AperFunction,Conductor*%
%TO.N,VMOTOR*%
G36*
X104324900Y-122010500D02*
G01*
X106021956Y-122010500D01*
X97571025Y-130461430D01*
X97518699Y-130483104D01*
X97466374Y-130461430D01*
X95873967Y-128869024D01*
X95852294Y-128816699D01*
X95873966Y-128764376D01*
X96976602Y-127661740D01*
X97028925Y-127640068D01*
X97065925Y-127649982D01*
X97086291Y-127661740D01*
X97141003Y-127693328D01*
X97141004Y-127693328D01*
X97141006Y-127693329D01*
X97190025Y-127706464D01*
X97239045Y-127719599D01*
X97239046Y-127719600D01*
X97239048Y-127719600D01*
X97340554Y-127719600D01*
X97340554Y-127719599D01*
X97438597Y-127693328D01*
X97526502Y-127642576D01*
X97598276Y-127570802D01*
X97649028Y-127482897D01*
X97675299Y-127384854D01*
X97675300Y-127384854D01*
X97675300Y-127283346D01*
X97675299Y-127283345D01*
X97649029Y-127185306D01*
X97649027Y-127185301D01*
X97605682Y-127110225D01*
X97598290Y-127054072D01*
X97617439Y-127020903D01*
X103156290Y-121482052D01*
X103208613Y-121460380D01*
X103210442Y-121460500D01*
X103214374Y-121460500D01*
X103335624Y-121460500D01*
X103335626Y-121460500D01*
X103452747Y-121429118D01*
X103557754Y-121368492D01*
X103643492Y-121282754D01*
X103704118Y-121177747D01*
X103735500Y-121060626D01*
X103735500Y-120939374D01*
X103735500Y-120934524D01*
X103738359Y-120934524D01*
X103750669Y-120888569D01*
X103757039Y-120881303D01*
X104324900Y-120313443D01*
X104324900Y-122010500D01*
G37*
%TD.AperFunction*%
%TA.AperFunction,Conductor*%
G36*
X107169630Y-120758174D02*
G01*
X107191304Y-120810499D01*
X107169630Y-120862825D01*
X106724900Y-121307555D01*
X106724900Y-120313443D01*
X107169630Y-120758174D01*
G37*
%TD.AperFunction*%
%TD*%
%TA.AperFunction,Conductor*%
%TO.N,MOTOR_A1_OUT*%
G36*
X115027186Y-120368648D02*
G01*
X115027186Y-123364056D01*
X115005512Y-123416382D01*
X114954210Y-123467683D01*
X114903458Y-123555587D01*
X114903456Y-123555592D01*
X114877186Y-123653631D01*
X114877186Y-123755140D01*
X114903456Y-123853179D01*
X114903458Y-123853184D01*
X114954210Y-123941088D01*
X115025984Y-124012862D01*
X115113889Y-124063614D01*
X115113890Y-124063614D01*
X115113892Y-124063615D01*
X115162911Y-124076750D01*
X115211931Y-124089885D01*
X115211932Y-124089886D01*
X115211934Y-124089886D01*
X115313440Y-124089886D01*
X115313440Y-124089885D01*
X115411483Y-124063614D01*
X115499388Y-124012862D01*
X115505213Y-124007036D01*
X115557537Y-123985360D01*
X115609864Y-124007031D01*
X115631541Y-124059356D01*
X115631353Y-124064632D01*
X115575225Y-124850432D01*
X115549878Y-124901081D01*
X115496141Y-124918972D01*
X115260000Y-124902104D01*
X115260000Y-124902105D01*
X113176053Y-124753252D01*
X113345468Y-122381442D01*
X113440845Y-122406999D01*
X113440846Y-122407000D01*
X113440848Y-122407000D01*
X113542354Y-122407000D01*
X113542354Y-122406999D01*
X113640397Y-122380728D01*
X113728302Y-122329976D01*
X113800076Y-122258202D01*
X113850828Y-122170297D01*
X113877099Y-122072254D01*
X113877100Y-122072254D01*
X113877100Y-121970746D01*
X113877099Y-121970745D01*
X113850829Y-121872706D01*
X113850827Y-121872701D01*
X113800075Y-121784797D01*
X113728302Y-121713024D01*
X113640398Y-121662272D01*
X113640393Y-121662270D01*
X113542354Y-121636000D01*
X113542352Y-121636000D01*
X113440848Y-121636000D01*
X113440846Y-121636000D01*
X113397891Y-121647509D01*
X113497046Y-120259353D01*
X115027186Y-120368648D01*
G37*
%TD.AperFunction*%
%TD*%
%TA.AperFunction,Conductor*%
%TO.N,MOTOR_B1*%
G36*
X134549986Y-102700000D02*
G01*
X134550000Y-102700000D01*
X135550000Y-102700000D01*
X136528184Y-102700000D01*
X135760527Y-104418190D01*
X135743833Y-104441747D01*
X135736260Y-104448915D01*
X135683359Y-104469144D01*
X135635845Y-104450137D01*
X135631565Y-104446279D01*
X135617022Y-104428308D01*
X135614678Y-104424248D01*
X135592437Y-104385726D01*
X135567392Y-104342346D01*
X135481654Y-104256608D01*
X135481651Y-104256606D01*
X135481650Y-104256605D01*
X135413578Y-104217304D01*
X135385086Y-104200854D01*
X135381186Y-104197862D01*
X135372110Y-104194102D01*
X135367238Y-104193461D01*
X135259526Y-104164600D01*
X135259525Y-104164600D01*
X135138275Y-104164600D01*
X135138274Y-104164600D01*
X135101017Y-104174582D01*
X135022222Y-104195695D01*
X135021219Y-104195947D01*
X135021164Y-104195974D01*
X134916148Y-104256605D01*
X134830405Y-104342348D01*
X134769785Y-104447346D01*
X134769775Y-104447363D01*
X134769747Y-104447419D01*
X134769495Y-104448422D01*
X134748382Y-104527217D01*
X134738400Y-104564474D01*
X134738400Y-104685726D01*
X134769782Y-104802847D01*
X134830408Y-104907854D01*
X134916146Y-104993592D01*
X135021153Y-105054218D01*
X135138274Y-105085600D01*
X135138276Y-105085600D01*
X135259526Y-105085600D01*
X135259527Y-105085600D01*
X135281947Y-105079592D01*
X135325598Y-105067895D01*
X135354408Y-105066007D01*
X135363949Y-105067263D01*
X135412999Y-105095581D01*
X135428059Y-105146483D01*
X135427538Y-105153049D01*
X135421333Y-105177382D01*
X133194411Y-110161750D01*
X133170434Y-110188893D01*
X133171100Y-110189623D01*
X133165717Y-110194538D01*
X133118770Y-110258342D01*
X133097099Y-110310661D01*
X133097096Y-110310672D01*
X133084500Y-110374000D01*
X133084500Y-110391980D01*
X133078063Y-110422166D01*
X129119210Y-119282998D01*
X129102517Y-119306555D01*
X129085082Y-119323058D01*
X129053365Y-119340793D01*
X129026853Y-119347897D01*
X129026239Y-119348056D01*
X129026203Y-119348070D01*
X128938300Y-119398821D01*
X128866521Y-119470600D01*
X128815770Y-119558502D01*
X128815770Y-119558503D01*
X128815769Y-119558506D01*
X128815768Y-119558507D01*
X128789500Y-119656542D01*
X128789500Y-119758056D01*
X128815768Y-119856087D01*
X128815770Y-119856093D01*
X128815774Y-119856102D01*
X128815776Y-119856106D01*
X128815777Y-119856107D01*
X128816241Y-119856911D01*
X128816351Y-119857235D01*
X128816660Y-119857842D01*
X128816572Y-119857886D01*
X128825526Y-119884259D01*
X128828497Y-119906829D01*
X128822693Y-119946673D01*
X128535308Y-120589907D01*
X128518613Y-120613466D01*
X128510431Y-120621210D01*
X128457533Y-120641437D01*
X128446271Y-120641128D01*
X128418115Y-120634719D01*
X127550273Y-120246983D01*
X126388877Y-119728093D01*
X126365322Y-119711401D01*
X126357577Y-119703219D01*
X126337346Y-119650319D01*
X126337655Y-119639053D01*
X126344062Y-119610907D01*
X129635115Y-112244767D01*
X129651804Y-112221216D01*
X129657592Y-112215739D01*
X129710491Y-112195510D01*
X129762199Y-112218608D01*
X129765484Y-112222079D01*
X129783219Y-112253791D01*
X129783971Y-112256595D01*
X129783972Y-112256598D01*
X129783973Y-112256599D01*
X129834721Y-112344498D01*
X129834722Y-112344499D01*
X129834724Y-112344502D01*
X129906498Y-112416276D01*
X129950450Y-112441652D01*
X129994404Y-112467029D01*
X130020674Y-112474067D01*
X130043425Y-112480164D01*
X130087768Y-112492045D01*
X130091463Y-112493300D01*
X130193954Y-112493300D01*
X130204216Y-112493300D01*
X130213104Y-112488167D01*
X130291997Y-112467028D01*
X130379902Y-112416276D01*
X130451676Y-112344502D01*
X130502428Y-112256597D01*
X130523567Y-112177704D01*
X130528700Y-112168815D01*
X130528700Y-112056062D01*
X130527445Y-112052368D01*
X130502429Y-111959006D01*
X130502427Y-111959002D01*
X130502428Y-111959002D01*
X130451677Y-111871100D01*
X130451676Y-111871099D01*
X130451675Y-111871097D01*
X130379902Y-111799324D01*
X130379899Y-111799322D01*
X130379898Y-111799321D01*
X130291996Y-111748570D01*
X130291992Y-111748569D01*
X130291991Y-111748568D01*
X130193956Y-111722300D01*
X130193954Y-111722300D01*
X130193952Y-111722300D01*
X130092448Y-111722300D01*
X130092446Y-111722300D01*
X130092444Y-111722300D01*
X130008193Y-111744876D01*
X129989020Y-111747397D01*
X129988803Y-111747397D01*
X129974541Y-111747394D01*
X129922221Y-111725705D01*
X129900561Y-111673374D01*
X129900561Y-111673373D01*
X129900563Y-111666393D01*
X129907000Y-111636228D01*
X130469147Y-110378010D01*
X130485839Y-110354457D01*
X130494022Y-110346712D01*
X130546914Y-110326486D01*
X130548181Y-110326520D01*
X130554987Y-110326707D01*
X130589960Y-110336594D01*
X130598455Y-110341499D01*
X130602369Y-110343759D01*
X130606264Y-110346748D01*
X130606317Y-110346770D01*
X130610675Y-110348919D01*
X130615276Y-110350481D01*
X130615340Y-110350507D01*
X130620208Y-110351148D01*
X130631291Y-110354118D01*
X130704172Y-110373647D01*
X130707863Y-110374900D01*
X130810354Y-110374900D01*
X130820616Y-110374900D01*
X130829504Y-110369767D01*
X130908397Y-110348628D01*
X130996302Y-110297876D01*
X131068076Y-110226102D01*
X131118828Y-110138197D01*
X131139967Y-110059304D01*
X131145100Y-110050415D01*
X131145100Y-109937662D01*
X131143845Y-109933968D01*
X131118829Y-109840606D01*
X131118827Y-109840602D01*
X131118828Y-109840602D01*
X131068077Y-109752700D01*
X131068076Y-109752699D01*
X131068075Y-109752697D01*
X130996302Y-109680924D01*
X130996299Y-109680922D01*
X130996298Y-109680921D01*
X130941770Y-109649439D01*
X130908398Y-109630172D01*
X130908391Y-109630169D01*
X130908382Y-109630165D01*
X130907759Y-109629950D01*
X130907289Y-109629697D01*
X130905950Y-109629123D01*
X130906001Y-109629003D01*
X130886915Y-109618726D01*
X130877686Y-109611644D01*
X130849374Y-109562601D01*
X130848482Y-109555826D01*
X130854285Y-109515983D01*
X132420691Y-106010002D01*
X132437384Y-105986448D01*
X132451586Y-105973007D01*
X132502452Y-105952753D01*
X132680292Y-105952753D01*
X132680294Y-105952753D01*
X132766850Y-105916900D01*
X132833097Y-105850653D01*
X132868950Y-105764097D01*
X132868950Y-105030276D01*
X132870577Y-105014844D01*
X132873759Y-104999921D01*
X132878569Y-104985167D01*
X132913111Y-104907854D01*
X133040131Y-104623553D01*
X133056820Y-104600003D01*
X133064397Y-104592830D01*
X133117297Y-104572604D01*
X133164809Y-104591610D01*
X133169940Y-104596235D01*
X133179103Y-104606152D01*
X133180404Y-104607848D01*
X133180408Y-104607854D01*
X133266146Y-104693592D01*
X133371153Y-104754218D01*
X133488274Y-104785600D01*
X133488276Y-104785600D01*
X133609524Y-104785600D01*
X133609526Y-104785600D01*
X133726647Y-104754218D01*
X133831654Y-104693592D01*
X133917392Y-104607854D01*
X133978018Y-104502847D01*
X134009400Y-104385726D01*
X134009400Y-104264474D01*
X133978018Y-104147353D01*
X133978017Y-104147351D01*
X133935053Y-104072936D01*
X133925772Y-104045597D01*
X133924302Y-104034427D01*
X133938960Y-103979723D01*
X133945821Y-103970782D01*
X133967526Y-103951748D01*
X133981654Y-103943592D01*
X134067392Y-103857854D01*
X134128018Y-103752847D01*
X134159400Y-103635726D01*
X134159400Y-103514474D01*
X134128018Y-103397353D01*
X134067392Y-103292346D01*
X133981654Y-103206608D01*
X133981651Y-103206606D01*
X133981649Y-103206604D01*
X133964223Y-103196543D01*
X133942514Y-103177504D01*
X133935657Y-103168567D01*
X133921000Y-103113860D01*
X133921114Y-103113001D01*
X133942153Y-103070338D01*
X133944593Y-103067898D01*
X133959912Y-103056144D01*
X133981654Y-103043592D01*
X134067392Y-102957854D01*
X134128018Y-102852847D01*
X134159400Y-102735726D01*
X134159400Y-102614474D01*
X134128018Y-102497353D01*
X134076494Y-102408113D01*
X134067213Y-102380772D01*
X134064243Y-102358205D01*
X134070047Y-102318363D01*
X134549986Y-101244148D01*
X134549986Y-102700000D01*
G37*
%TD.AperFunction*%
%TD*%
%TA.AperFunction,Conductor*%
%TO.N,VMOTOR*%
G36*
X106703226Y-117657074D02*
G01*
X106724900Y-117709400D01*
X106724900Y-121307556D01*
X106724900Y-121936500D01*
X106703226Y-121988826D01*
X106650900Y-122010500D01*
X104324900Y-122010500D01*
X104324900Y-117709400D01*
X104346574Y-117657074D01*
X104398900Y-117635400D01*
X106650900Y-117635400D01*
X106703226Y-117657074D01*
G37*
%TD.AperFunction*%
%TD*%
%TA.AperFunction,Conductor*%
%TO.N,MOTOR_B1*%
G36*
X135550000Y-102700000D02*
G01*
X134550000Y-102700000D01*
X134550000Y-100300000D01*
X135550000Y-100300000D01*
X135550000Y-102700000D01*
G37*
%TD.AperFunction*%
%TD*%
%TA.AperFunction,Conductor*%
%TO.N,VMOTOR*%
G36*
X134250000Y-95589471D02*
G01*
X133324000Y-95589471D01*
X133271674Y-95567797D01*
X133250000Y-95515471D01*
X133250000Y-93300000D01*
X134250000Y-93300000D01*
X134250000Y-95589471D01*
G37*
%TD.AperFunction*%
%TD*%
%TA.AperFunction,Conductor*%
%TO.N,MOTOR_B1*%
G36*
X127021564Y-97178297D02*
G01*
X127073890Y-97199971D01*
X129399890Y-97199971D01*
X129399890Y-98514032D01*
X129394257Y-98542350D01*
X129389946Y-98552758D01*
X129349898Y-98592806D01*
X129339608Y-98597068D01*
X129311294Y-98602700D01*
X129219144Y-98602700D01*
X129121107Y-98628969D01*
X129121106Y-98628969D01*
X129121103Y-98628970D01*
X129121102Y-98628970D01*
X129042629Y-98674278D01*
X129033949Y-98678559D01*
X128995927Y-98694309D01*
X128967607Y-98699942D01*
X127407059Y-98699942D01*
X127378741Y-98694309D01*
X127363222Y-98687881D01*
X127327458Y-98656521D01*
X127325732Y-98653531D01*
X127318340Y-98635685D01*
X127314150Y-98620049D01*
X127312137Y-98612539D01*
X127309118Y-98601271D01*
X127258366Y-98513366D01*
X127186592Y-98441592D01*
X127186589Y-98441590D01*
X127186588Y-98441589D01*
X127098685Y-98390838D01*
X127098650Y-98390824D01*
X127098050Y-98390669D01*
X127068954Y-98382872D01*
X127043057Y-98370100D01*
X127029730Y-98359873D01*
X127003301Y-98320316D01*
X127002410Y-98316990D01*
X126999890Y-98297841D01*
X126999890Y-97125971D01*
X127021564Y-97178297D01*
G37*
%TD.AperFunction*%
%TD*%
%TA.AperFunction,Conductor*%
%TO.N,MOTOR_A1_OUT*%
G36*
X113254898Y-122329976D02*
G01*
X113342803Y-122380728D01*
X113342804Y-122380728D01*
X113342806Y-122380729D01*
X113345467Y-122381442D01*
X113281276Y-123280119D01*
X113046463Y-123233157D01*
X113231732Y-122306810D01*
X113254898Y-122329976D01*
G37*
%TD.AperFunction*%
%TA.AperFunction,Conductor*%
G36*
X113397891Y-121647509D02*
G01*
X113440846Y-121636000D01*
X113361650Y-121657220D01*
X113416946Y-121380739D01*
X113397891Y-121647509D01*
G37*
%TD.AperFunction*%
%TA.AperFunction,Conductor*%
G36*
X114769561Y-120350246D02*
G01*
X113639193Y-120269506D01*
X113648056Y-120225193D01*
X114144292Y-120225193D01*
X114769561Y-120350246D01*
G37*
%TD.AperFunction*%
%TD*%
%TA.AperFunction,Conductor*%
%TO.N,MOTOR_B2*%
G36*
X132252930Y-118056674D02*
G01*
X132274604Y-118109000D01*
X132274604Y-127960393D01*
X129874605Y-127960393D01*
X129874605Y-122809500D01*
X129896279Y-122757174D01*
X129948605Y-122735500D01*
X130060624Y-122735500D01*
X130060626Y-122735500D01*
X130177747Y-122704118D01*
X130282754Y-122643492D01*
X130368492Y-122557754D01*
X130429118Y-122452747D01*
X130460500Y-122335626D01*
X130460500Y-122214374D01*
X130429118Y-122097253D01*
X130368492Y-121992246D01*
X130282754Y-121906508D01*
X130177751Y-121845884D01*
X130177749Y-121845883D01*
X130177748Y-121845882D01*
X130177747Y-121845882D01*
X130060626Y-121814500D01*
X129948605Y-121814500D01*
X129896279Y-121792826D01*
X129874605Y-121740500D01*
X129874605Y-118109000D01*
X129896279Y-118056674D01*
X129948605Y-118035000D01*
X132200604Y-118035000D01*
X132252930Y-118056674D01*
G37*
%TD.AperFunction*%
%TD*%
%TA.AperFunction,Conductor*%
%TO.N,MOTOR_A2*%
G36*
X111649999Y-107700000D02*
G01*
X110649999Y-107700000D01*
X110649999Y-105374000D01*
X110671673Y-105321674D01*
X110723999Y-105300000D01*
X111649999Y-105300000D01*
X111649999Y-107700000D01*
G37*
%TD.AperFunction*%
%TD*%
%TA.AperFunction,Conductor*%
%TO.N,MOTOR_A1*%
G36*
X111950000Y-98626033D02*
G01*
X111949986Y-98626000D01*
X111949986Y-96300000D01*
X111950000Y-96300000D01*
X111950000Y-98626033D01*
G37*
%TD.AperFunction*%
%TD*%
%TA.AperFunction,Conductor*%
%TO.N,VMOTOR*%
G36*
X135550000Y-120300000D02*
G01*
X134623986Y-120300000D01*
X134571660Y-120278326D01*
X134550000Y-120226033D01*
X134550000Y-119300000D01*
X135550000Y-119300000D01*
X135550000Y-120300000D01*
G37*
%TD.AperFunction*%
%TD*%
%TA.AperFunction,Conductor*%
%TO.N,MOTOR_B1*%
G36*
X136949986Y-99300000D02*
G01*
X135550000Y-99300000D01*
X134550000Y-99300000D01*
X134549986Y-99300000D01*
X134549986Y-97199971D01*
X136875986Y-97199971D01*
X136928312Y-97178297D01*
X136949986Y-97125971D01*
X136949986Y-99300000D01*
G37*
%TD.AperFunction*%
%TD*%
%TA.AperFunction,Conductor*%
%TO.N,EFUSE_IN*%
G36*
X92700000Y-68050000D02*
G01*
X90374000Y-68050000D01*
X90321674Y-68028326D01*
X90300000Y-67976000D01*
X90300000Y-67050000D01*
X92700000Y-67050000D01*
X92700000Y-68050000D01*
G37*
%TD.AperFunction*%
%TD*%
%TA.AperFunction,Conductor*%
%TO.N,VMOTOR*%
G36*
X115350000Y-111374000D02*
G01*
X115350000Y-112300000D01*
X115349986Y-112300000D01*
X115349986Y-111373966D01*
X115350000Y-111374000D01*
G37*
%TD.AperFunction*%
%TD*%
%TA.AperFunction,Conductor*%
%TO.N,MOTOR_B1*%
G36*
X135550000Y-100300000D02*
G01*
X134550000Y-100300000D01*
X134550000Y-99300000D01*
X135550000Y-99300000D01*
X135550000Y-100300000D01*
G37*
%TD.AperFunction*%
%TD*%
%TA.AperFunction,Conductor*%
%TO.N,MOTOR_B2*%
G36*
X136649999Y-113626000D02*
G01*
X136628325Y-113678326D01*
X136575999Y-113700000D01*
X135649999Y-113700000D01*
X133324000Y-113700000D01*
X133271674Y-113678326D01*
X133250000Y-113626000D01*
X133250000Y-111300000D01*
X136649999Y-111300000D01*
X136649999Y-113626000D01*
G37*
%TD.AperFunction*%
%TD*%
%TA.AperFunction,Conductor*%
%TO.N,MOTOR_B1*%
G36*
X130977950Y-96950078D02*
G01*
X130997352Y-96984208D01*
X131049678Y-97005882D01*
X130207884Y-97005882D01*
X130207883Y-97005882D01*
X130195355Y-97008373D01*
X130144555Y-97018478D01*
X130144548Y-97018480D01*
X130092222Y-97040154D01*
X130092214Y-97040158D01*
X130049601Y-97065920D01*
X130002653Y-97129724D01*
X129992479Y-97154289D01*
X129952431Y-97194338D01*
X129924112Y-97199971D01*
X127073890Y-97199971D01*
X127021564Y-97178297D01*
X126999890Y-97125971D01*
X126999890Y-96894807D01*
X127005519Y-96866498D01*
X127009833Y-96856083D01*
X127049872Y-96816037D01*
X127054523Y-96814110D01*
X127101977Y-96811004D01*
X127119856Y-96815795D01*
X127166146Y-96828200D01*
X127267654Y-96828200D01*
X127277916Y-96828200D01*
X127286804Y-96823067D01*
X127365697Y-96801928D01*
X127453602Y-96751176D01*
X127525376Y-96679402D01*
X127576128Y-96591497D01*
X127597267Y-96512604D01*
X127602400Y-96503715D01*
X127602400Y-96390962D01*
X127601145Y-96387268D01*
X127576129Y-96293906D01*
X127576127Y-96293902D01*
X127576128Y-96293902D01*
X127525377Y-96206000D01*
X127525376Y-96205999D01*
X127525375Y-96205997D01*
X127453602Y-96134224D01*
X127453599Y-96134222D01*
X127453598Y-96134221D01*
X127365696Y-96083470D01*
X127365692Y-96083469D01*
X127365691Y-96083468D01*
X127267656Y-96057200D01*
X127267654Y-96057200D01*
X127267652Y-96057200D01*
X127166148Y-96057200D01*
X127166146Y-96057200D01*
X127166144Y-96057200D01*
X127107261Y-96072978D01*
X127078449Y-96074866D01*
X127067276Y-96073396D01*
X127018229Y-96045076D01*
X127015175Y-96041097D01*
X126999890Y-95996057D01*
X126999890Y-94888689D01*
X127005519Y-94860380D01*
X127009833Y-94849965D01*
X127049872Y-94809919D01*
X127060301Y-94805599D01*
X127088609Y-94799971D01*
X130432512Y-94799971D01*
X130977950Y-96950078D01*
G37*
%TD.AperFunction*%
%TA.AperFunction,Conductor*%
G36*
X136937514Y-95660108D02*
G01*
X136949986Y-95701222D01*
X136949986Y-97125971D01*
X136928312Y-97178297D01*
X136875986Y-97199971D01*
X132743653Y-97199971D01*
X132691327Y-97178297D01*
X132675286Y-97154290D01*
X132675286Y-97154289D01*
X132665110Y-97129722D01*
X132662842Y-97125971D01*
X132657224Y-97116677D01*
X132639344Y-97087100D01*
X132593327Y-97053240D01*
X132599331Y-97057223D01*
X132655380Y-97065365D01*
X133361435Y-96886253D01*
X133406825Y-96852378D01*
X133414967Y-96796329D01*
X133121655Y-95640100D01*
X133118294Y-95629978D01*
X133118772Y-95631131D01*
X133118776Y-95631139D01*
X133133728Y-95655871D01*
X133144538Y-95673753D01*
X133208340Y-95720699D01*
X133208341Y-95720699D01*
X133208342Y-95720700D01*
X133260661Y-95742371D01*
X133260666Y-95742373D01*
X133324000Y-95754971D01*
X134250000Y-95754971D01*
X135772500Y-95754971D01*
X135791651Y-95757491D01*
X135835144Y-95769145D01*
X135852984Y-95776535D01*
X135919289Y-95814816D01*
X135919289Y-95814815D01*
X135929632Y-95820787D01*
X135933724Y-95823331D01*
X135945542Y-95831228D01*
X135997868Y-95852902D01*
X136061202Y-95865500D01*
X136575998Y-95865500D01*
X136575999Y-95865500D01*
X136639333Y-95852902D01*
X136691659Y-95831228D01*
X136734281Y-95805462D01*
X136781227Y-95741660D01*
X136802901Y-95689334D01*
X136803408Y-95686787D01*
X136803894Y-95686059D01*
X136803957Y-95685852D01*
X136804019Y-95685871D01*
X136834872Y-95639694D01*
X136890421Y-95628644D01*
X136937514Y-95660108D01*
G37*
%TD.AperFunction*%
%TA.AperFunction,Conductor*%
G36*
X133062826Y-94821645D02*
G01*
X133084500Y-94873971D01*
X133084500Y-95502870D01*
X133082228Y-95484674D01*
X132908533Y-94799971D01*
X133010500Y-94799971D01*
X133062826Y-94821645D01*
G37*
%TD.AperFunction*%
%TD*%
%TA.AperFunction,Conductor*%
%TO.N,MOTOR_B2*%
G36*
X132274604Y-129435458D02*
G01*
X132252930Y-129487784D01*
X132233333Y-129501827D01*
X131943728Y-129644643D01*
X131925448Y-129650850D01*
X131921769Y-129651582D01*
X131921766Y-129651583D01*
X131903564Y-129663745D01*
X131895188Y-129668581D01*
X131875554Y-129678264D01*
X131875550Y-129678267D01*
X131873079Y-129681085D01*
X131858562Y-129693814D01*
X131276963Y-130082427D01*
X131259646Y-130090968D01*
X131256099Y-130092172D01*
X131256093Y-130092175D01*
X131239634Y-130106609D01*
X131231961Y-130112496D01*
X131213756Y-130124661D01*
X131213753Y-130124664D01*
X131211674Y-130127776D01*
X131198941Y-130142295D01*
X130971189Y-130342028D01*
X130922397Y-130360392D01*
X128554257Y-130360392D01*
X128554257Y-127960393D01*
X129874605Y-127960393D01*
X132274604Y-127960393D01*
X132274604Y-129435458D01*
G37*
%TD.AperFunction*%
%TD*%
%TA.AperFunction,Conductor*%
%TO.N,MOTOR_A1*%
G36*
X115350000Y-98626000D02*
G01*
X115328326Y-98678326D01*
X115276000Y-98700000D01*
X112950000Y-98700000D01*
X112023986Y-98700000D01*
X111971660Y-98678326D01*
X111950000Y-98626033D01*
X111950000Y-96300000D01*
X115350000Y-96300000D01*
X115350000Y-98626000D01*
G37*
%TD.AperFunction*%
%TD*%
%TA.AperFunction,Conductor*%
%TO.N,MOTOR_B2*%
G36*
X136628325Y-110321674D02*
G01*
X136649999Y-110374000D01*
X136649999Y-111300000D01*
X135649999Y-111300000D01*
X135649999Y-110300000D01*
X136575999Y-110300000D01*
X136628325Y-110321674D01*
G37*
%TD.AperFunction*%
%TD*%
%TA.AperFunction,Conductor*%
%TO.N,SENSE_A*%
G36*
X108915925Y-95984635D02*
G01*
X108939932Y-96000676D01*
X114317721Y-101378465D01*
X114333760Y-101402468D01*
X114338072Y-101412876D01*
X114338076Y-101469513D01*
X114338073Y-101469519D01*
X114333762Y-101479926D01*
X114317722Y-101503932D01*
X113872992Y-101948663D01*
X113872991Y-101948664D01*
X112735726Y-103085930D01*
X112683400Y-103107604D01*
X112631074Y-103085930D01*
X107594386Y-98049242D01*
X108064500Y-98049242D01*
X108064500Y-98150756D01*
X108090768Y-98248791D01*
X108090769Y-98248792D01*
X108090770Y-98248795D01*
X108090770Y-98248796D01*
X108141521Y-98336698D01*
X108141522Y-98336699D01*
X108141524Y-98336702D01*
X108213298Y-98408476D01*
X108257250Y-98433852D01*
X108301204Y-98459229D01*
X108327474Y-98466267D01*
X108350225Y-98472364D01*
X108394568Y-98484245D01*
X108398263Y-98485500D01*
X108500754Y-98485500D01*
X108511016Y-98485500D01*
X108519904Y-98480367D01*
X108598797Y-98459228D01*
X108686702Y-98408476D01*
X108758476Y-98336702D01*
X108809228Y-98248797D01*
X108830367Y-98169904D01*
X108835500Y-98161015D01*
X108835500Y-98048262D01*
X108834245Y-98044568D01*
X108809229Y-97951206D01*
X108809227Y-97951202D01*
X108809228Y-97951202D01*
X108795628Y-97927647D01*
X108758475Y-97863297D01*
X108686702Y-97791524D01*
X108686699Y-97791522D01*
X108686697Y-97791520D01*
X108671513Y-97782754D01*
X108671512Y-97782754D01*
X108598795Y-97740770D01*
X108598792Y-97740769D01*
X108598791Y-97740768D01*
X108500756Y-97714500D01*
X108500754Y-97714500D01*
X108500752Y-97714500D01*
X108399248Y-97714500D01*
X108399246Y-97714500D01*
X108399244Y-97714500D01*
X108301207Y-97740769D01*
X108301206Y-97740769D01*
X108301203Y-97740770D01*
X108301202Y-97740770D01*
X108213300Y-97791521D01*
X108141521Y-97863300D01*
X108090770Y-97951202D01*
X108090770Y-97951203D01*
X108090769Y-97951206D01*
X108090768Y-97951207D01*
X108064500Y-98049242D01*
X107594386Y-98049242D01*
X107242876Y-97697732D01*
X107226835Y-97673724D01*
X107222524Y-97663316D01*
X107222523Y-97606684D01*
X107226836Y-97596269D01*
X107242872Y-97572269D01*
X108814469Y-96000672D01*
X108838469Y-95984636D01*
X108848884Y-95980323D01*
X108905515Y-95980323D01*
X108915925Y-95984635D01*
G37*
%TD.AperFunction*%
%TD*%
%TA.AperFunction,Conductor*%
%TO.N,VMOTOR*%
G36*
X134250000Y-93300000D02*
G01*
X133250000Y-93300000D01*
X133250000Y-92374000D01*
X133271674Y-92321674D01*
X133324000Y-92300000D01*
X134250000Y-92300000D01*
X134250000Y-93300000D01*
G37*
%TD.AperFunction*%
%TD*%
%TA.AperFunction,Conductor*%
%TO.N,MOTOR_A1_OUT*%
G36*
X113639193Y-120269506D02*
G01*
X113497046Y-120259353D01*
X113397891Y-121647509D01*
X113416946Y-121380739D01*
X113361650Y-121657220D01*
X113440846Y-121636000D01*
X113342806Y-121662270D01*
X113342801Y-121662272D01*
X113254897Y-121713024D01*
X113183124Y-121784797D01*
X113132372Y-121872701D01*
X113132370Y-121872706D01*
X113113980Y-121941336D01*
X112415269Y-121242625D01*
X112393595Y-121190299D01*
X112415269Y-121137973D01*
X112860000Y-120693242D01*
X113328049Y-120225193D01*
X113648056Y-120225193D01*
X113639193Y-120269506D01*
G37*
%TD.AperFunction*%
%TA.AperFunction,Conductor*%
G36*
X115005512Y-120246867D02*
G01*
X115027186Y-120299193D01*
X115027186Y-120368648D01*
X114769561Y-120350246D01*
X114144292Y-120225193D01*
X114953186Y-120225193D01*
X115005512Y-120246867D01*
G37*
%TD.AperFunction*%
%TD*%
%TA.AperFunction,Conductor*%
%TO.N,MOTOR_A2*%
G36*
X111649999Y-108700000D02*
G01*
X110723999Y-108700000D01*
X110671673Y-108678326D01*
X110649999Y-108626000D01*
X110649999Y-107700000D01*
X111649999Y-107700000D01*
X111649999Y-108700000D01*
G37*
%TD.AperFunction*%
%TD*%
%TA.AperFunction,Conductor*%
%TO.N,VMOTOR*%
G36*
X136628325Y-92321674D02*
G01*
X136649999Y-92374000D01*
X136649999Y-95626000D01*
X136628325Y-95678326D01*
X136575999Y-95700000D01*
X136061202Y-95700000D01*
X136008876Y-95678326D01*
X136002039Y-95671489D01*
X135908430Y-95617444D01*
X135804031Y-95589471D01*
X135804029Y-95589471D01*
X134250000Y-95589471D01*
X134250000Y-92300000D01*
X136575999Y-92300000D01*
X136628325Y-92321674D01*
G37*
%TD.AperFunction*%
%TD*%
%TA.AperFunction,Conductor*%
%TO.N,MOTOR_B2*%
G36*
X126790312Y-127982067D02*
G01*
X126809463Y-128015239D01*
X126812218Y-128025519D01*
X126813472Y-128030198D01*
X126864224Y-128118102D01*
X126935998Y-128189876D01*
X127023903Y-128240628D01*
X127023904Y-128240628D01*
X127023906Y-128240629D01*
X127072925Y-128253764D01*
X127121945Y-128266899D01*
X127121946Y-128266900D01*
X127121948Y-128266900D01*
X127223454Y-128266900D01*
X127223454Y-128266899D01*
X127321497Y-128240628D01*
X127409402Y-128189876D01*
X127481176Y-128118102D01*
X127531928Y-128030197D01*
X127535935Y-128015239D01*
X127570414Y-127970307D01*
X127607414Y-127960393D01*
X128554257Y-127960393D01*
X128554257Y-130360392D01*
X128554257Y-138711786D01*
X128532583Y-138764112D01*
X128480257Y-138785786D01*
X126228257Y-138785786D01*
X126175931Y-138764112D01*
X126154257Y-138711786D01*
X126154257Y-128034393D01*
X126175931Y-127982067D01*
X126228257Y-127960393D01*
X126737986Y-127960393D01*
X126790312Y-127982067D01*
G37*
%TD.AperFunction*%
%TD*%
%TA.AperFunction,Conductor*%
%TO.N,VMOTOR*%
G36*
X114050000Y-92626000D02*
G01*
X114028326Y-92678326D01*
X113976000Y-92700000D01*
X111649999Y-92700000D01*
X110723999Y-92700000D01*
X110671673Y-92678326D01*
X110649999Y-92626000D01*
X110649999Y-90300000D01*
X114050000Y-90300000D01*
X114050000Y-92626000D01*
G37*
%TD.AperFunction*%
%TD*%
%TA.AperFunction,Conductor*%
%TO.N,VMOTOR*%
G36*
X137928326Y-116921673D02*
G01*
X137950000Y-116973999D01*
X137950000Y-120226000D01*
X137928326Y-120278326D01*
X137876000Y-120300000D01*
X135550000Y-120300000D01*
X135550000Y-116899999D01*
X137876000Y-116899999D01*
X137928326Y-116921673D01*
G37*
%TD.AperFunction*%
%TD*%
%TA.AperFunction,Conductor*%
%TO.N,VMOTOR*%
G36*
X115350000Y-114626000D02*
G01*
X115328326Y-114678326D01*
X115276000Y-114700000D01*
X112949986Y-114700000D01*
X112023986Y-114700000D01*
X111971660Y-114678326D01*
X111950000Y-114626033D01*
X111950000Y-112300000D01*
X115350000Y-112300000D01*
X115350000Y-114626000D01*
G37*
%TD.AperFunction*%
%TD*%
%TA.AperFunction,Conductor*%
%TO.N,VMOTOR*%
G36*
X111649999Y-90300000D02*
G01*
X110649999Y-90300000D01*
X110649999Y-89374000D01*
X110671673Y-89321674D01*
X110723999Y-89300000D01*
X111649999Y-89300000D01*
X111649999Y-90300000D01*
G37*
%TD.AperFunction*%
%TD*%
%TA.AperFunction,Conductor*%
%TO.N,BRAKE_RETURN*%
G36*
X109700000Y-67976000D02*
G01*
X109678326Y-68028326D01*
X109626000Y-68050000D01*
X108700000Y-68050000D01*
X108700000Y-65649999D01*
X109700000Y-65649999D01*
X109700000Y-67976000D01*
G37*
%TD.AperFunction*%
%TD*%
%TA.AperFunction,Conductor*%
%TO.N,MOTOR_B2*%
G36*
X135649999Y-111300000D02*
G01*
X133250000Y-111300000D01*
X133250000Y-110374000D01*
X133271674Y-110321674D01*
X133324000Y-110300000D01*
X135649999Y-110300000D01*
X135649999Y-111300000D01*
G37*
%TD.AperFunction*%
%TD*%
%TA.AperFunction,Conductor*%
%TO.N,MOTOR_B1*%
G36*
X131982072Y-91351203D02*
G01*
X132030737Y-91380172D01*
X132037476Y-91389201D01*
X132049901Y-91415267D01*
X132254857Y-92223197D01*
X133082228Y-95484674D01*
X133084500Y-95502870D01*
X133084500Y-95515470D01*
X133097096Y-95578798D01*
X133097099Y-95578809D01*
X133118294Y-95629978D01*
X133121655Y-95640100D01*
X133414967Y-96796329D01*
X133406825Y-96852378D01*
X133361435Y-96886253D01*
X132655380Y-97065365D01*
X132599331Y-97057223D01*
X132593327Y-97053240D01*
X132575542Y-97040154D01*
X132523220Y-97018481D01*
X132523209Y-97018478D01*
X132475499Y-97008988D01*
X132459882Y-97005882D01*
X132459881Y-97005882D01*
X131049678Y-97005882D01*
X130997352Y-96984208D01*
X130977950Y-96950078D01*
X129782455Y-92237461D01*
X129780951Y-92208633D01*
X129782610Y-92197209D01*
X129811202Y-92148828D01*
X129824674Y-92138641D01*
X129824673Y-92138639D01*
X129833491Y-92131971D01*
X129841116Y-92126915D01*
X129916068Y-92083642D01*
X129987842Y-92011868D01*
X130038594Y-91923963D01*
X130049430Y-91883520D01*
X130062197Y-91857631D01*
X130074823Y-91841176D01*
X130115330Y-91814499D01*
X131942095Y-91351086D01*
X131970927Y-91349584D01*
X131982072Y-91351203D01*
G37*
%TD.AperFunction*%
%TD*%
%TA.AperFunction,Conductor*%
%TO.N,EFUSE_IN*%
G36*
X93700000Y-67976000D02*
G01*
X93678326Y-68028326D01*
X93626000Y-68050000D01*
X92700000Y-68050000D01*
X92700000Y-67050000D01*
X93700000Y-67050000D01*
X93700000Y-67976000D01*
G37*
%TD.AperFunction*%
%TD*%
%TA.AperFunction,Conductor*%
%TO.N,MOTOR_B1*%
G36*
X134550000Y-100300000D02*
G01*
X134549986Y-100300000D01*
X134549986Y-99300000D01*
X134550000Y-99300000D01*
X134550000Y-100300000D01*
G37*
%TD.AperFunction*%
%TD*%
%TA.AperFunction,Conductor*%
%TO.N,MOTOR_B1*%
G36*
X134550000Y-102700000D02*
G01*
X134549986Y-102700000D01*
X134549986Y-100300000D01*
X134550000Y-100300000D01*
X134550000Y-102700000D01*
G37*
%TD.AperFunction*%
%TD*%
%TA.AperFunction,Conductor*%
%TO.N,BRAKE_RETURN*%
G36*
X108700000Y-68050000D02*
G01*
X106374000Y-68050000D01*
X106321674Y-68028326D01*
X106300000Y-67976000D01*
X106300000Y-64723999D01*
X106321674Y-64671673D01*
X106374000Y-64649999D01*
X108700000Y-64649999D01*
X108700000Y-68050000D01*
G37*
%TD.AperFunction*%
%TD*%
%TA.AperFunction,Conductor*%
%TO.N,VMOTOR*%
G36*
X111950000Y-114626033D02*
G01*
X111949986Y-114626000D01*
X111949986Y-113700000D01*
X111950000Y-113700000D01*
X111950000Y-114626033D01*
G37*
%TD.AperFunction*%
%TD*%
%TA.AperFunction,Conductor*%
%TO.N,MOTOR_A2*%
G36*
X114028326Y-105321674D02*
G01*
X114050000Y-105374000D01*
X114050000Y-108626000D01*
X114028326Y-108678326D01*
X113976000Y-108700000D01*
X111649999Y-108700000D01*
X111649999Y-105300000D01*
X113976000Y-105300000D01*
X114028326Y-105321674D01*
G37*
%TD.AperFunction*%
%TD*%
%TA.AperFunction,Conductor*%
%TO.N,MOTOR_A1*%
G36*
X111950000Y-96300000D02*
G01*
X111949986Y-96300000D01*
X111949986Y-95374000D01*
X111950000Y-95373966D01*
X111950000Y-96300000D01*
G37*
%TD.AperFunction*%
%TD*%
%TA.AperFunction,Conductor*%
%TO.N,BRAKE_RETURN*%
G36*
X109678326Y-64671673D02*
G01*
X109700000Y-64723999D01*
X109700000Y-65649999D01*
X108700000Y-65649999D01*
X108700000Y-64649999D01*
X109626000Y-64649999D01*
X109678326Y-64671673D01*
G37*
%TD.AperFunction*%
%TD*%
%TA.AperFunction,Conductor*%
%TO.N,EFUSE_IN*%
G36*
X93678326Y-64671673D02*
G01*
X93700000Y-64723999D01*
X93700000Y-67050000D01*
X90300000Y-67050000D01*
X90300000Y-64723999D01*
X90321674Y-64671673D01*
X90374000Y-64649999D01*
X93626000Y-64649999D01*
X93678326Y-64671673D01*
G37*
%TD.AperFunction*%
%TD*%
%TA.AperFunction,Conductor*%
%TO.N,VMOTOR*%
G36*
X135550000Y-119300000D02*
G01*
X134549986Y-119300000D01*
X134549986Y-116973999D01*
X134571660Y-116921673D01*
X134623986Y-116899999D01*
X135550000Y-116899999D01*
X135550000Y-119300000D01*
G37*
%TD.AperFunction*%
%TD*%
%TA.AperFunction,Conductor*%
%TO.N,SENSE_A*%
G36*
X113883400Y-101938256D02*
G01*
X113883400Y-103126000D01*
X113861726Y-103178326D01*
X113809400Y-103200000D01*
X111557400Y-103200000D01*
X111505074Y-103178326D01*
X111483400Y-103126000D01*
X111483400Y-101938256D01*
X112631074Y-103085930D01*
X112683400Y-103107604D01*
X112735726Y-103085930D01*
X113872991Y-101948664D01*
X113872992Y-101948663D01*
X113883400Y-101938254D01*
X113883400Y-101938256D01*
G37*
%TD.AperFunction*%
%TA.AperFunction,Conductor*%
G36*
X113861726Y-100262873D02*
G01*
X113883400Y-100315199D01*
X113883400Y-100944144D01*
X113180455Y-100241199D01*
X113809400Y-100241199D01*
X113861726Y-100262873D01*
G37*
%TD.AperFunction*%
%TD*%
%TA.AperFunction,Conductor*%
%TO.N,MOTOR_A1*%
G36*
X115328326Y-95321674D02*
G01*
X115350000Y-95374000D01*
X115350000Y-96300000D01*
X111950000Y-96300000D01*
X111950000Y-95373966D01*
X111971660Y-95321674D01*
X112023986Y-95300000D01*
X115276000Y-95300000D01*
X115328326Y-95321674D01*
G37*
%TD.AperFunction*%
%TD*%
%TA.AperFunction,Conductor*%
%TO.N,VMOTOR*%
G36*
X134550000Y-120226033D02*
G01*
X134549986Y-120226000D01*
X134549986Y-119300000D01*
X134550000Y-119300000D01*
X134550000Y-120226033D01*
G37*
%TD.AperFunction*%
%TD*%
%TA.AperFunction,Conductor*%
%TO.N,MOTOR_B1*%
G36*
X137928326Y-99321674D02*
G01*
X137950000Y-99374000D01*
X137950000Y-102626000D01*
X137928326Y-102678326D01*
X137876000Y-102700000D01*
X135550000Y-102700000D01*
X135550000Y-99300000D01*
X136949986Y-99300000D01*
X137876000Y-99300000D01*
X137928326Y-99321674D01*
G37*
%TD.AperFunction*%
%TD*%
%TA.AperFunction,Conductor*%
%TO.N,MOTOR_B2*%
G36*
X129056241Y-99309980D02*
G01*
X129121103Y-99347428D01*
X129121104Y-99347428D01*
X129121106Y-99347429D01*
X129170125Y-99360564D01*
X129219145Y-99373699D01*
X129219146Y-99373700D01*
X129219148Y-99373700D01*
X129320654Y-99373700D01*
X129320654Y-99373699D01*
X129418697Y-99347428D01*
X129483559Y-99309980D01*
X129520559Y-99300066D01*
X130133883Y-99300066D01*
X130133883Y-101118053D01*
X127403877Y-101118053D01*
X127351552Y-101096379D01*
X127341288Y-101086115D01*
X127300252Y-101045078D01*
X127212346Y-100994325D01*
X127212341Y-100994323D01*
X127114302Y-100968053D01*
X127114300Y-100968053D01*
X127012796Y-100968053D01*
X127012794Y-100968053D01*
X126914754Y-100994323D01*
X126914749Y-100994325D01*
X126826845Y-101045077D01*
X126755072Y-101116850D01*
X126704320Y-101204754D01*
X126704318Y-101204759D01*
X126678048Y-101302798D01*
X126678048Y-101404307D01*
X126704318Y-101502346D01*
X126704320Y-101502351D01*
X126754386Y-101589066D01*
X126761779Y-101645218D01*
X126727300Y-101690152D01*
X126690300Y-101700066D01*
X125823890Y-101700066D01*
X125771564Y-101678392D01*
X125749890Y-101626066D01*
X125749890Y-99857745D01*
X128944300Y-99857745D01*
X128944300Y-99959254D01*
X128970570Y-100057293D01*
X128970572Y-100057298D01*
X129021324Y-100145202D01*
X129093098Y-100216976D01*
X129181003Y-100267728D01*
X129181004Y-100267728D01*
X129181006Y-100267729D01*
X129230025Y-100280864D01*
X129279045Y-100293999D01*
X129279046Y-100294000D01*
X129279048Y-100294000D01*
X129380554Y-100294000D01*
X129380554Y-100293999D01*
X129478597Y-100267728D01*
X129566502Y-100216976D01*
X129638276Y-100145202D01*
X129689028Y-100057297D01*
X129715299Y-99959254D01*
X129715300Y-99959254D01*
X129715300Y-99857746D01*
X129715299Y-99857745D01*
X129689029Y-99759706D01*
X129689027Y-99759701D01*
X129638275Y-99671797D01*
X129566502Y-99600024D01*
X129478598Y-99549272D01*
X129478593Y-99549270D01*
X129380554Y-99523000D01*
X129380552Y-99523000D01*
X129279048Y-99523000D01*
X129279046Y-99523000D01*
X129181006Y-99549270D01*
X129181001Y-99549272D01*
X129093097Y-99600024D01*
X129021324Y-99671797D01*
X128970572Y-99759701D01*
X128970570Y-99759706D01*
X128944300Y-99857745D01*
X125749890Y-99857745D01*
X125749890Y-99374066D01*
X125771564Y-99321740D01*
X125823890Y-99300066D01*
X129019241Y-99300066D01*
X129056241Y-99309980D01*
G37*
%TD.AperFunction*%
%TD*%
%TA.AperFunction,Conductor*%
%TO.N,VMOTOR*%
G36*
X114028326Y-89321674D02*
G01*
X114050000Y-89374000D01*
X114050000Y-90300000D01*
X111649999Y-90300000D01*
X111649999Y-89300000D01*
X113976000Y-89300000D01*
X114028326Y-89321674D01*
G37*
%TD.AperFunction*%
%TD*%
M02*
