%TF.GenerationSoftware,KiCad,Pcbnew,10.0.5*%
%TF.CreationDate,2026-10-09T11:38:31+05:30*%
%TF.ProjectId,pd1180-epr-r0.3,70643131-3830-42d6-9570-722d72302e33,rev?*%
%TF.SameCoordinates,Original*%
%TF.FileFunction,Copper,L4,Bot*%
%TF.FilePolarity,Positive*%
%FSLAX46Y46*%
G04 Gerber Fmt 4.6, Leading zero omitted, Abs format (unit mm)*
G04 Created by KiCad (PCBNEW 10.0.5) date 2026-10-09 11:38:31*
%MOMM*%
%LPD*%
G01*
G04 APERTURE LIST*
G04 Aperture macros list*
%AMRoundRect*
0 Rectangle with rounded corners*
0 $1 Rounding radius*
0 $2 $3 $4 $5 $6 $7 $8 $9 X,Y pos of 4 corners*
0 Add a 4 corners polygon primitive as box body*
4,1,4,$2,$3,$4,$5,$6,$7,$8,$9,$2,$3,0*
0 Add four circle primitives for the rounded corners*
1,1,$1+$1,$2,$3*
1,1,$1+$1,$4,$5*
1,1,$1+$1,$6,$7*
1,1,$1+$1,$8,$9*
0 Add four rect primitives between the rounded corners*
20,1,$1+$1,$2,$3,$4,$5,0*
20,1,$1+$1,$4,$5,$6,$7,0*
20,1,$1+$1,$6,$7,$8,$9,0*
20,1,$1+$1,$8,$9,$2,$3,0*%
G04 Aperture macros list end*
%TA.AperFunction,ComponentPad*%
%ADD10C,1.524000*%
%TD*%
%TA.AperFunction,ComponentPad*%
%ADD11C,2.099996*%
%TD*%
%TA.AperFunction,ComponentPad*%
%ADD12R,2.499995X2.499995*%
%TD*%
%TA.AperFunction,ComponentPad*%
%ADD13C,2.499995*%
%TD*%
%TA.AperFunction,ComponentPad*%
%ADD14O,2.099996X1.099998*%
%TD*%
%TA.AperFunction,ComponentPad*%
%ADD15O,1.799996X1.099998*%
%TD*%
%TA.AperFunction,SMDPad,CuDef*%
%ADD16C,1.400000*%
%TD*%
%TA.AperFunction,SMDPad,CuDef*%
%ADD17R,0.950011X1.150010*%
%TD*%
%TA.AperFunction,SMDPad,CuDef*%
%ADD18R,1.750000X1.125000*%
%TD*%
%TA.AperFunction,SMDPad,CuDef*%
%ADD19R,0.800000X0.950000*%
%TD*%
%TA.AperFunction,SMDPad,CuDef*%
%ADD20R,0.399999X1.699997*%
%TD*%
%TA.AperFunction,SMDPad,CuDef*%
%ADD21R,1.025000X1.400000*%
%TD*%
%TA.AperFunction,SMDPad,CuDef*%
%ADD22R,1.250010X0.699999*%
%TD*%
%TA.AperFunction,SMDPad,CuDef*%
%ADD23R,0.950000X0.800000*%
%TD*%
%TA.AperFunction,SMDPad,CuDef*%
%ADD24R,2.474011X5.020005*%
%TD*%
%TA.AperFunction,SMDPad,CuDef*%
%ADD25RoundRect,0.350000X0.000010X0.499998X-0.000010X0.499998X-0.000010X-0.499998X0.000010X-0.499998X0*%
%TD*%
%TA.AperFunction,SMDPad,CuDef*%
%ADD26R,3.499993X2.499995*%
%TD*%
%TA.AperFunction,SMDPad,CuDef*%
%ADD27R,1.999996X1.999996*%
%TD*%
%TA.AperFunction,ViaPad*%
%ADD28C,0.450000*%
%TD*%
%TA.AperFunction,ViaPad*%
%ADD29C,0.600000*%
%TD*%
%TA.AperFunction,ViaPad*%
%ADD30C,0.400000*%
%TD*%
%TA.AperFunction,Conductor*%
%ADD31C,0.090000*%
%TD*%
%TA.AperFunction,Conductor*%
%ADD32C,0.150000*%
%TD*%
%TA.AperFunction,Conductor*%
%ADD33C,0.200000*%
%TD*%
%TA.AperFunction,Conductor*%
%ADD34C,0.112400*%
%TD*%
%TA.AperFunction,Conductor*%
%ADD35C,0.250000*%
%TD*%
%TA.AperFunction,Conductor*%
%ADD36C,0.300000*%
%TD*%
%TA.AperFunction,Conductor*%
%ADD37C,0.500000*%
%TD*%
G04 APERTURE END LIST*
D10*
%TO.P,J7,1*%
%TO.N,HOME_24V*%
X94499982Y-102999871D03*
%TO.P,J7,2*%
%TO.N,STOPL_24V*%
X94499982Y-100999875D03*
%TO.P,J7,3*%
%TO.N,STOPR_24V*%
X92499986Y-102999871D03*
%TO.P,J7,4*%
%TO.N,DIN0_24V*%
X92499986Y-100999875D03*
%TO.P,J7,5*%
%TO.N,DIN1_24V*%
X90499990Y-102999871D03*
%TO.P,J7,6*%
%TO.N,STEP_24V*%
X90499990Y-100999875D03*
%TO.P,J7,7*%
%TO.N,DIR_24V*%
X88499994Y-102999871D03*
%TO.P,J7,8*%
%TO.N,GND*%
X88499994Y-100999875D03*
%TO.P,J7,9*%
%TO.N,RS232_TX_CONN*%
X86499998Y-102999871D03*
%TO.P,J7,10*%
%TO.N,RS232_RX_CONN*%
X86499998Y-100999875D03*
%TO.P,J7,11*%
%TO.N,GND*%
X84500002Y-102999871D03*
%TO.P,J7,12*%
%TO.N,CAN_H*%
X84500002Y-100999875D03*
%TO.P,J7,13*%
%TO.N,CAN_L*%
X82500006Y-102999871D03*
%TO.P,J7,14*%
%TO.N,GND*%
X82500006Y-100999875D03*
%TO.P,J7,15*%
%TO.N,RS485_A*%
X80500010Y-102999871D03*
%TO.P,J7,16*%
%TO.N,RS485_B*%
X80500010Y-100999875D03*
%TO.P,J7,17*%
%TO.N,VMOTOR*%
X78500014Y-102999871D03*
%TO.P,J7,18*%
%TO.N,HW_ENABLE_24V*%
X78500014Y-100999875D03*
%TO.P,J7,19*%
%TO.N,OUT0*%
X76500018Y-102999871D03*
%TO.P,J7,20*%
%TO.N,OUT1*%
X76500018Y-100999875D03*
%TD*%
D11*
%TO.P,C23,1*%
%TO.N,VMOTOR*%
X129500005Y-92000000D03*
%TO.P,C23,2*%
%TO.N,GND*%
X134499995Y-92000000D03*
%TD*%
D12*
%TO.P,J2,1*%
%TO.N,MOTOR_A1*%
X114059956Y-139000000D03*
D13*
%TO.P,J2,2*%
%TO.N,MOTOR_A2*%
X118020070Y-139000000D03*
%TO.P,J2,3*%
%TO.N,MOTOR_B1*%
X121980184Y-139000000D03*
%TO.P,J2,4*%
%TO.N,MOTOR_B2*%
X125940044Y-139000000D03*
%TD*%
D14*
%TO.P,J10,1*%
%TO.N,GND*%
X65544454Y-94679968D03*
%TO.P,J10,2*%
X65544454Y-103320032D03*
D15*
%TO.P,J10,3*%
X61364376Y-103320032D03*
%TO.P,J10,4*%
X61364375Y-94679968D03*
%TD*%
D12*
%TO.P,J3,1*%
%TO.N,VMOTOR*%
X98019816Y-63500000D03*
D13*
%TO.P,J3,2*%
%TO.N,BRAKE_RETURN*%
X101980184Y-63500000D03*
%TD*%
D11*
%TO.P,C22,1*%
%TO.N,VMOTOR*%
X127500005Y-78000000D03*
%TO.P,C22,2*%
%TO.N,GND*%
X132499995Y-78000000D03*
%TD*%
D14*
%TO.P,J1,1*%
%TO.N,GND*%
X65544454Y-80679968D03*
%TO.P,J1,2*%
X65544454Y-89320032D03*
D15*
%TO.P,J1,3*%
X61364376Y-89320032D03*
%TO.P,J1,4*%
X61364375Y-80679968D03*
%TD*%
D16*
%TO.P,TP_ENC_3V3,1*%
%TO.N,V3V3*%
X88000000Y-134000000D03*
%TD*%
D17*
%TO.P,D6,1*%
%TO.N,STOP_L_BASE*%
X111692402Y-124000000D03*
%TO.P,D6,2*%
%TO.N,GND*%
X108307598Y-124000000D03*
%TD*%
D16*
%TO.P,TP_SWDIO,1*%
%TO.N,SWDIO*%
X83000000Y-133000000D03*
%TD*%
%TO.P,TP_SWD_GND,1*%
%TO.N,GND*%
X86000000Y-133000000D03*
%TD*%
D18*
%TO.P,C11,1*%
%TO.N,PD_VBUS*%
X79000000Y-90037500D03*
%TO.P,C11,2*%
%TO.N,GND*%
X79000000Y-92962500D03*
%TD*%
D16*
%TO.P,TP_ENC_I,1*%
%TO.N,ENC_I*%
X97000000Y-134000000D03*
%TD*%
D19*
%TO.P,C1,1*%
%TO.N,CC_VBIAS*%
X72175000Y-84000000D03*
%TO.P,C1,2*%
%TO.N,GND*%
X73825000Y-84000000D03*
%TD*%
D17*
%TO.P,D9,1*%
%TO.N,STEP_IN_BASE*%
X135692402Y-121000000D03*
%TO.P,D9,2*%
%TO.N,GND*%
X132307598Y-121000000D03*
%TD*%
D19*
%TO.P,C14,1*%
%TO.N,BUCK_BOOT*%
X70825000Y-95000000D03*
%TO.P,C14,2*%
%TO.N,BUCK_SW*%
X69175000Y-95000000D03*
%TD*%
D20*
%TO.P,U18,1*%
%TO.N,ENC_CS_N*%
X98050042Y-97199904D03*
%TO.P,U18,2*%
%TO.N,SPI_SCK*%
X98700028Y-97199904D03*
%TO.P,U18,3*%
%TO.N,SPI_MISO*%
X99350014Y-97199904D03*
%TO.P,U18,4*%
%TO.N,SPI_MOSI*%
X100000000Y-97199904D03*
%TO.P,U18,5*%
%TO.N,GND*%
X100649986Y-97199904D03*
%TO.P,U18,6*%
%TO.N,ENC_B*%
X101299972Y-97199904D03*
%TO.P,U18,7*%
%TO.N,ENC_A*%
X101949958Y-97199904D03*
%TO.P,U18,8*%
%TO.N,unconnected-(U18-W-Pad8)*%
X101949958Y-102800096D03*
%TO.P,U18,9*%
%TO.N,unconnected-(U18-V-Pad9)*%
X101299972Y-102800096D03*
%TO.P,U18,10*%
%TO.N,unconnected-(U18-U-Pad10)*%
X100649986Y-102800096D03*
%TO.P,U18,11*%
%TO.N,V3V3*%
X100000000Y-102800096D03*
%TO.P,U18,12*%
X99350014Y-102800096D03*
%TO.P,U18,13*%
%TO.N,GND*%
X98700028Y-102800096D03*
%TO.P,U18,14*%
%TO.N,ENC_I*%
X98050042Y-102800096D03*
%TD*%
D17*
%TO.P,D4,1*%
%TO.N,DIN0_BASE*%
X97692402Y-124000000D03*
%TO.P,D4,2*%
%TO.N,GND*%
X94307598Y-124000000D03*
%TD*%
D19*
%TO.P,R93,1*%
%TO.N,STEP_IN_BASE*%
X134825000Y-103000000D03*
%TO.P,R93,2*%
%TO.N,GND*%
X133175000Y-103000000D03*
%TD*%
D21*
%TO.P,C16,1*%
%TO.N,V3V3_PD*%
X80087500Y-88000000D03*
%TO.P,C16,2*%
%TO.N,GND*%
X81912500Y-88000000D03*
%TD*%
D22*
%TO.P,Q25,1*%
%TO.N,OUT1_BASE*%
X126000002Y-131949960D03*
%TO.P,Q25,2*%
%TO.N,GND*%
X126000002Y-130050040D03*
%TO.P,Q25,3*%
%TO.N,OUT1*%
X127999998Y-131000000D03*
%TD*%
D19*
%TO.P,R98,1*%
%TO.N,OUT0_DRIVE*%
X118825000Y-127000000D03*
%TO.P,R98,2*%
%TO.N,OUT0_BASE*%
X117175000Y-127000000D03*
%TD*%
%TO.P,R92,1*%
%TO.N,STEP_24V*%
X137175000Y-106000000D03*
%TO.P,R92,2*%
%TO.N,STEP_IN_BASE*%
X138825000Y-106000000D03*
%TD*%
D23*
%TO.P,C26,1*%
%TO.N,TMC_5V*%
X108000000Y-101625000D03*
%TO.P,C26,2*%
%TO.N,GND*%
X108000000Y-99975000D03*
%TD*%
D24*
%TO.P,L1,1*%
%TO.N,BUCK_SW*%
X87602992Y-93000000D03*
%TO.P,L1,2*%
%TO.N,V3V3_PD*%
X82397008Y-93000000D03*
%TD*%
D22*
%TO.P,Q24,1*%
%TO.N,OUT0_BASE*%
X117000002Y-131949960D03*
%TO.P,Q24,2*%
%TO.N,GND*%
X117000002Y-130050040D03*
%TO.P,Q24,3*%
%TO.N,OUT0*%
X118999998Y-131000000D03*
%TD*%
D19*
%TO.P,R17,1*%
%TO.N,BUCK_FB*%
X81825000Y-98500000D03*
%TO.P,R17,2*%
%TO.N,GND*%
X80175000Y-98500000D03*
%TD*%
%TO.P,R16,1*%
%TO.N,V3V3_PD*%
X70825000Y-91000000D03*
%TO.P,R16,2*%
%TO.N,BUCK_FB*%
X69175000Y-91000000D03*
%TD*%
%TO.P,C12,1*%
%TO.N,PD_VBUS*%
X76875000Y-98500000D03*
%TO.P,C12,2*%
%TO.N,GND*%
X78525000Y-98500000D03*
%TD*%
D16*
%TO.P,TP_ENC_B,1*%
%TO.N,ENC_B*%
X94000000Y-134000000D03*
%TD*%
%TO.P,TP_NRST,1*%
%TO.N,NRST*%
X83000000Y-130000000D03*
%TD*%
D19*
%TO.P,R94,1*%
%TO.N,V3V3*%
X134825000Y-100000000D03*
%TO.P,R94,2*%
%TO.N,STEP_IN*%
X133175000Y-100000000D03*
%TD*%
%TO.P,R91,1*%
%TO.N,V3V3*%
X133175000Y-112000000D03*
%TO.P,R91,2*%
%TO.N,HOME_IN*%
X134825000Y-112000000D03*
%TD*%
%TO.P,R2,1*%
%TO.N,EPR_EN*%
X66825000Y-78000000D03*
%TO.P,R2,2*%
%TO.N,GND*%
X65175000Y-78000000D03*
%TD*%
D17*
%TO.P,D10,1*%
%TO.N,DIR_IN_BASE*%
X139692402Y-85000000D03*
%TO.P,D10,2*%
%TO.N,GND*%
X136307598Y-85000000D03*
%TD*%
D19*
%TO.P,R95,1*%
%TO.N,DIR_24V*%
X133175000Y-97000000D03*
%TO.P,R95,2*%
%TO.N,DIR_IN_BASE*%
X134825000Y-97000000D03*
%TD*%
%TO.P,R18,1*%
%TO.N,V3V3_PD*%
X70825000Y-97000000D03*
%TO.P,R18,2*%
%TO.N,LOGIC_PG*%
X69175000Y-97000000D03*
%TD*%
%TO.P,R96,1*%
%TO.N,DIR_IN_BASE*%
X130825000Y-118000000D03*
%TO.P,R96,2*%
%TO.N,GND*%
X129175000Y-118000000D03*
%TD*%
%TO.P,C71,1*%
%TO.N,V3V3*%
X73825000Y-104000000D03*
%TO.P,C71,2*%
%TO.N,GND*%
X72175000Y-104000000D03*
%TD*%
D16*
%TO.P,TP_SWD_3V3,1*%
%TO.N,V3V3*%
X80000000Y-133000000D03*
%TD*%
D17*
%TO.P,D5,1*%
%TO.N,DIN1_BASE*%
X105692402Y-124000000D03*
%TO.P,D5,2*%
%TO.N,GND*%
X102307598Y-124000000D03*
%TD*%
D19*
%TO.P,R100,1*%
%TO.N,OUT1_DRIVE*%
X127825000Y-127000000D03*
%TO.P,R100,2*%
%TO.N,OUT1_BASE*%
X126175000Y-127000000D03*
%TD*%
D16*
%TO.P,TP_SWCLK,1*%
%TO.N,SWCLK*%
X80000000Y-130000000D03*
%TD*%
D17*
%TO.P,D8,1*%
%TO.N,HOME_IN_BASE*%
X139692402Y-109000000D03*
%TO.P,D8,2*%
%TO.N,GND*%
X136307598Y-109000000D03*
%TD*%
D19*
%TO.P,R1,1*%
%TO.N,PD_3V3*%
X81175000Y-64000000D03*
%TO.P,R1,2*%
%TO.N,CC_FAULT_N*%
X82825000Y-64000000D03*
%TD*%
D25*
%TO.P,U5,1*%
%TO.N,GND*%
X76905000Y-95846070D03*
%TO.P,U5,2*%
%TO.N,PD_VBUS*%
X75635000Y-95846070D03*
%TO.P,U5,3*%
X74365000Y-95846070D03*
%TO.P,U5,4*%
%TO.N,LOGIC_PG*%
X73095000Y-95846070D03*
%TO.P,U5,5*%
%TO.N,BUCK_FB*%
X73095000Y-90153930D03*
%TO.P,U5,6*%
%TO.N,BUCK_VCC*%
X74365000Y-90153930D03*
%TO.P,U5,7*%
%TO.N,BUCK_BOOT*%
X75635000Y-90153930D03*
%TO.P,U5,8*%
%TO.N,BUCK_SW*%
X76905000Y-90153930D03*
D26*
%TO.P,U5,9*%
%TO.N,GND*%
X75000000Y-93000000D03*
%TD*%
D19*
%TO.P,R7,1*%
%TO.N,PD_3V3*%
X80825000Y-69000000D03*
%TO.P,R7,2*%
%TO.N,PD_SCL*%
X79175000Y-69000000D03*
%TD*%
D21*
%TO.P,C15,1*%
%TO.N,V3V3_PD*%
X85912500Y-88000000D03*
%TO.P,C15,2*%
%TO.N,GND*%
X84087500Y-88000000D03*
%TD*%
D19*
%TO.P,R74,1*%
%TO.N,V3V3*%
X92825000Y-95500000D03*
%TO.P,R74,2*%
%TO.N,ENC_CS_N*%
X91175000Y-95500000D03*
%TD*%
%TO.P,R11,1*%
%TO.N,PD_3V3*%
X86825000Y-70000000D03*
%TO.P,R11,2*%
%TO.N,PD_PATH_N*%
X85175000Y-70000000D03*
%TD*%
D16*
%TO.P,TP_STATUS,1*%
%TO.N,STATUS_GPIO*%
X86000000Y-130000000D03*
%TD*%
D27*
%TO.P,D11,1*%
%TO.N,VMOTOR*%
X125199894Y-70000000D03*
%TO.P,D11,2*%
%TO.N,OUT0*%
X120800106Y-70000000D03*
%TD*%
D21*
%TO.P,C17,1*%
%TO.N,V3V3_PD*%
X89912500Y-88000000D03*
%TO.P,C17,2*%
%TO.N,GND*%
X88087500Y-88000000D03*
%TD*%
D16*
%TO.P,TP_ENC_GND,1*%
%TO.N,GND*%
X100000000Y-134000000D03*
%TD*%
D19*
%TO.P,R101,1*%
%TO.N,OUT1_BASE*%
X130825000Y-128500000D03*
%TO.P,R101,2*%
%TO.N,GND*%
X129175000Y-128500000D03*
%TD*%
%TO.P,C53,1*%
%TO.N,V3V3*%
X105175000Y-105000000D03*
%TO.P,C53,2*%
%TO.N,GND*%
X106825000Y-105000000D03*
%TD*%
%TO.P,C13,1*%
%TO.N,BUCK_VCC*%
X70825000Y-93000000D03*
%TO.P,C13,2*%
%TO.N,GND*%
X69175000Y-93000000D03*
%TD*%
D23*
%TO.P,C52,1*%
%TO.N,V3V3*%
X100000000Y-104975000D03*
%TO.P,C52,2*%
%TO.N,GND*%
X100000000Y-106625000D03*
%TD*%
D16*
%TO.P,TP_ENC_A,1*%
%TO.N,ENC_A*%
X91000000Y-134000000D03*
%TD*%
D19*
%TO.P,R99,1*%
%TO.N,OUT0_BASE*%
X122825000Y-131000000D03*
%TO.P,R99,2*%
%TO.N,GND*%
X121175000Y-131000000D03*
%TD*%
D28*
%TO.N,HOME_24V*%
X95784400Y-135804100D03*
X120099900Y-133068500D03*
%TO.N,STOPL_24V*%
X112143400Y-103953400D03*
X112146600Y-126183400D03*
%TO.N,STOPR_24V*%
X108827100Y-135812500D03*
X102587000Y-103148000D03*
%TO.N,DIN0_24V*%
X95190800Y-99470200D03*
D29*
X92403900Y-128940000D03*
D28*
%TO.N,DIN1_24V*%
X94986600Y-106070000D03*
D29*
X93930000Y-126817000D03*
D28*
%TO.N,STEP_24V*%
X136700000Y-106600000D03*
X133500000Y-109500000D03*
%TO.N,DIR_24V*%
X91991800Y-97164400D03*
X130589100Y-97521000D03*
D29*
%TO.N,GND*%
X67540400Y-98952900D03*
X70825000Y-93900000D03*
X108285000Y-100590000D03*
X69500000Y-100799000D03*
D30*
X133600000Y-103300000D03*
D29*
X116602000Y-89158100D03*
D28*
X136700000Y-107200000D03*
X100400000Y-106000000D03*
X107610000Y-103912000D03*
D29*
X108000000Y-98575000D03*
X73661700Y-81900000D03*
X127296000Y-121825000D03*
X80634600Y-98959600D03*
X112200000Y-92100100D03*
D28*
X68500000Y-93000000D03*
X110100000Y-111600000D03*
X107400000Y-102580000D03*
D29*
X101184000Y-126074000D03*
X70975000Y-101500000D03*
D28*
X134200000Y-72400000D03*
X72250000Y-103575000D03*
D29*
X80277600Y-113636000D03*
D28*
X73525000Y-84300000D03*
D29*
X73000000Y-99850100D03*
D28*
X67775000Y-128500000D03*
D29*
X91996200Y-127004000D03*
X103326000Y-102963000D03*
X88834900Y-140000000D03*
D28*
X73300000Y-88400074D03*
D29*
X68715400Y-92540400D03*
X84087500Y-88650000D03*
X85650000Y-90000000D03*
D28*
%TO.N,RS232_TX_CONN*%
X62252100Y-105457000D03*
%TO.N,CAN_H*%
X73079700Y-125200000D03*
D29*
%TO.N,RS485_A*%
X79362100Y-124655000D03*
D28*
%TO.N,RS485_B*%
X78236000Y-110552000D03*
D29*
X77365000Y-122023000D03*
%TO.N,VMOTOR*%
X97845600Y-127000000D03*
X132500000Y-106850000D03*
X128100000Y-73500000D03*
X116500000Y-83850000D03*
X132500000Y-105949999D03*
X85231600Y-95175000D03*
X115500000Y-105850000D03*
X96728100Y-97984600D03*
X84623600Y-83816300D03*
X99300066Y-72308043D03*
X131500000Y-106850000D03*
X123600000Y-105949999D03*
X84186800Y-60438800D03*
X129000000Y-74400000D03*
X116400000Y-81949999D03*
X127000000Y-75500000D03*
X123500000Y-108750000D03*
X114600000Y-106850000D03*
X132500000Y-107850000D03*
X98745600Y-127900000D03*
X101822000Y-120060000D03*
X115500000Y-83850000D03*
X116500000Y-82850000D03*
X130800000Y-73500000D03*
X84623600Y-82916300D03*
X115500000Y-106850000D03*
X125199999Y-75500000D03*
X84623600Y-84716300D03*
X116500000Y-105850000D03*
X108174000Y-80697499D03*
X124400000Y-108750000D03*
D28*
X126100000Y-75500000D03*
D29*
X117400000Y-83850000D03*
X117300000Y-81949999D03*
X86199894Y-60750000D03*
X123500000Y-107850000D03*
X116500000Y-106850000D03*
X126100000Y-76400000D03*
X116400000Y-84750000D03*
X124500000Y-106850000D03*
X107274000Y-81597500D03*
X123500000Y-106850000D03*
X96000066Y-81608043D03*
X108174000Y-81597500D03*
X131500000Y-107850000D03*
X129900000Y-73500000D03*
X115500000Y-82850000D03*
D28*
X129000000Y-73500000D03*
D29*
X124500000Y-107850000D03*
X127199999Y-73500000D03*
D28*
%TO.N,HW_ENABLE_24V*%
X91117700Y-111981200D03*
X77071900Y-112849400D03*
%TO.N,OUT0*%
X120000000Y-72050500D03*
X118418500Y-128964000D03*
X75471400Y-118640300D03*
%TO.N,OUT1*%
X123113800Y-121517900D03*
X126197000Y-132620100D03*
X81950106Y-60000000D03*
X73571900Y-113418400D03*
D29*
%TO.N,MOTOR_LOGIC_PG*%
X94247300Y-93440100D03*
X86047300Y-96517300D03*
X88799000Y-97450700D03*
%TO.N,MOTOR_BUCK_FB*%
X80684400Y-93226100D03*
X87723100Y-86335800D03*
X86854200Y-82437100D03*
%TO.N,MOTOR_BUCK_VCC*%
X88490300Y-86042200D03*
X81117700Y-96445500D03*
X87305300Y-96024000D03*
D28*
%TO.N,PD_SBU1_CONN*%
X64971800Y-85617000D03*
X68277900Y-77597800D03*
%TO.N,PD_SBU2_CONN*%
X69327600Y-78032300D03*
X67181900Y-83073700D03*
%TO.N,CC_VBIAS*%
X69751300Y-79817200D03*
X71392500Y-81899900D03*
D29*
%TO.N,CC2_CONN*%
X71462900Y-76876300D03*
X68405700Y-83816900D03*
%TO.N,CC_FAULT_N*%
X76659300Y-78913000D03*
X82825000Y-65535100D03*
X82309800Y-78184700D03*
X73128200Y-74699500D03*
%TO.N,PD_3V3*%
X81261700Y-62099200D03*
X72364100Y-74543300D03*
D28*
X81700000Y-70000000D03*
D29*
X73060200Y-79665000D03*
X75877800Y-64929700D03*
%TO.N,CC2_PD*%
X73014200Y-73819000D03*
X80927800Y-78563800D03*
%TO.N,EPR_EN*%
X79904300Y-78037700D03*
X67241600Y-74627500D03*
%TO.N,EPR_BLK_GATE*%
X77211800Y-61316000D03*
X75320000Y-71038700D03*
X67863300Y-74170100D03*
%TO.N,VBUS_LV*%
X79354500Y-75839700D03*
X73132500Y-75785500D03*
X67624500Y-75899900D03*
X77188900Y-62099600D03*
%TO.N,PD_VBUS*%
X90836700Y-61637500D03*
X78052500Y-89389998D03*
X72082400Y-88201500D03*
D28*
X78952500Y-91190000D03*
D29*
X89036700Y-60737500D03*
D28*
X101275000Y-71037100D03*
D29*
X72982400Y-86401500D03*
X90739500Y-69374000D03*
X88136699Y-61637500D03*
X78052500Y-90289999D03*
D28*
X66100600Y-75821600D03*
D29*
X87236698Y-61637500D03*
D28*
X75027200Y-94908300D03*
D29*
X101275000Y-70137099D03*
D28*
X89036700Y-61637500D03*
D29*
X72082400Y-86401500D03*
X91639500Y-69374000D03*
D28*
X89839500Y-68474000D03*
D29*
X89936700Y-61637500D03*
D28*
X72982400Y-87301500D03*
X99532400Y-78086100D03*
D29*
X66100600Y-76721600D03*
X72082400Y-87301500D03*
D28*
%TO.N,USB_DP_CONN*%
X69936000Y-108509000D03*
X67937500Y-100938000D03*
X86889500Y-108842000D03*
D29*
%TO.N,USB_DP*%
X78224000Y-108963000D03*
X87640800Y-109118000D03*
%TO.N,HOME_IN_BASE*%
X128087000Y-129983000D03*
D28*
X137100000Y-109700000D03*
X135200000Y-109700000D03*
D29*
%TO.N,HOME_IN*%
X131241000Y-126561000D03*
X85845300Y-106680000D03*
X112000000Y-131812000D03*
X134961000Y-113296000D03*
%TO.N,V3V3*%
X91732300Y-92110700D03*
X70309700Y-128660000D03*
X100751000Y-127079000D03*
X73137800Y-77402800D03*
X87299300Y-132644000D03*
X102175000Y-105978000D03*
X60001100Y-104245000D03*
X102504000Y-83872300D03*
X133452000Y-118807000D03*
X84345500Y-71000000D03*
D28*
X74143600Y-105009999D03*
D29*
X74079500Y-101046000D03*
X98743400Y-132600000D03*
%TO.N,DIR_IN*%
X137992000Y-120054000D03*
X122537000Y-132124000D03*
X109820000Y-113631000D03*
X79792700Y-109234000D03*
%TO.N,LOGIC_OR_PRIORITY*%
X74475000Y-97200000D03*
X91850000Y-93100000D03*
%TO.N,EEP_SDA*%
X83693500Y-63400100D03*
X81026200Y-73396800D03*
X78336500Y-66759300D03*
%TO.N,DIN1_BASE*%
X101531000Y-123056000D03*
%TO.N,STOP_L_BASE*%
X112347000Y-129094000D03*
X111836000Y-132818000D03*
%TO.N,MOTOR_B2*%
X114516000Y-96529600D03*
X127443999Y-116394000D03*
X128344000Y-116394000D03*
X131500000Y-116850000D03*
X101393000Y-95617300D03*
X113005000Y-107565000D03*
X127443999Y-115494000D03*
X128344000Y-115494000D03*
X131500000Y-115850000D03*
X132500000Y-115850000D03*
X132500000Y-116850000D03*
X127443999Y-114594000D03*
X128344000Y-114594000D03*
X131500000Y-114949999D03*
X132400000Y-114949999D03*
D28*
%TO.N,EFUSE_FAULT_N*%
X102420900Y-72122400D03*
X88501200Y-108956500D03*
X91911800Y-99122400D03*
X107380800Y-75158700D03*
D29*
%TO.N,PD_LEVEL_BASE*%
X78229700Y-70880600D03*
X78589100Y-81135100D03*
%TO.N,TMC_CS_N*%
X84999100Y-105186000D03*
X103582000Y-104060000D03*
X83017600Y-113335000D03*
%TO.N,OSC_OUT*%
X81508300Y-115038000D03*
X91266200Y-116705000D03*
%TO.N,BOOT_B1*%
X96370300Y-102086000D03*
X103325000Y-101511000D03*
%TO.N,MOTOR_B1*%
X119617000Y-114963000D03*
X97968100Y-107132000D03*
X115600000Y-116750000D03*
X114699999Y-116750000D03*
X120517000Y-115863000D03*
X114600000Y-114850000D03*
X116500000Y-114850000D03*
X115500000Y-114850000D03*
X116500000Y-115850000D03*
X120517000Y-114062999D03*
X120517000Y-114963000D03*
X114600000Y-115750000D03*
X115500000Y-115850000D03*
X119617000Y-114062999D03*
%TO.N,STATUS_GPIO*%
X82602300Y-118939000D03*
X86000000Y-127974000D03*
X75808400Y-116440000D03*
%TO.N,DIN0*%
X78478100Y-130263000D03*
X77992600Y-117482000D03*
%TO.N,DIN1*%
X78201900Y-126410000D03*
X78201900Y-115016000D03*
X106195000Y-132010000D03*
X100108000Y-130754000D03*
%TO.N,OSC_IN*%
X84678700Y-118056000D03*
X80086300Y-117512000D03*
D28*
%TO.N,NRST*%
X82588300Y-117992600D03*
X85290300Y-139185000D03*
X83414400Y-131894000D03*
D29*
%TO.N,VMON_ADC*%
X83311100Y-117237000D03*
X104094000Y-114892000D03*
X109632000Y-77982600D03*
%TO.N,IIN_MON*%
X89041100Y-82444600D03*
X102935000Y-73105300D03*
X106750000Y-79512800D03*
X84808400Y-115348000D03*
%TO.N,RS485_TX*%
X82845400Y-115032000D03*
X80972700Y-128408000D03*
%TO.N,RS485_RX*%
X79713500Y-125823000D03*
X81370100Y-113527000D03*
%TO.N,SPI_SCK*%
X97235200Y-97083600D03*
X89932900Y-104094000D03*
X87357300Y-120711000D03*
X113466000Y-97691300D03*
X85469300Y-113250000D03*
D28*
%TO.N,SPI_MISO*%
X101116000Y-113017000D03*
D29*
X98205900Y-98526200D03*
X82524400Y-112751000D03*
X86929700Y-128165000D03*
X113618000Y-96694200D03*
%TO.N,SPI_MOSI*%
X85472700Y-112466000D03*
X89696200Y-122470000D03*
X99279300Y-99913800D03*
X111894000Y-98521800D03*
X87500000Y-112708000D03*
%TO.N,USB_VBUS_SENSE*%
X80104400Y-110550000D03*
D28*
X77745900Y-98269700D03*
D29*
X79648200Y-83054100D03*
D28*
X79778600Y-104023000D03*
%TO.N,PD_IRQ_N*%
X80175500Y-70962000D03*
X79964000Y-77041400D03*
X82992300Y-110882800D03*
X83610700Y-97757200D03*
X79127300Y-96023200D03*
X78883200Y-70997100D03*
D29*
%TO.N,RS485_DE*%
X82473700Y-110357000D03*
X79405600Y-126824000D03*
D28*
%TO.N,ENC_CS_N*%
X87500100Y-104017800D03*
X91899700Y-95760900D03*
X85989800Y-108853700D03*
D29*
%TO.N,FLASH_CS_N*%
X85363600Y-108808000D03*
X92058100Y-124784000D03*
X84013300Y-128315000D03*
%TO.N,STOP_L*%
X108674000Y-130914000D03*
X104029000Y-109087000D03*
X83353800Y-107092000D03*
%TO.N,STOP_R*%
X109250000Y-123987000D03*
X108298000Y-111611000D03*
X87536800Y-107692000D03*
X105712000Y-111000000D03*
%TO.N,SD_MODE*%
X106626000Y-110252000D03*
X92866200Y-107960000D03*
X114866000Y-91940000D03*
%TO.N,RS232_TX*%
X67794700Y-105765000D03*
X79794200Y-105506000D03*
D28*
%TO.N,STEP_IN*%
X112921600Y-109846600D03*
X132215700Y-101480300D03*
X112554500Y-103594400D03*
X114906000Y-131000000D03*
X106195500Y-109014500D03*
X97728200Y-106083000D03*
D29*
%TO.N,RS232_RX*%
X66354300Y-106311000D03*
X79015200Y-106529000D03*
%TO.N,USB_DM*%
X79030900Y-109234000D03*
X72555400Y-113730000D03*
%TO.N,SWDIO*%
X82174200Y-132174000D03*
X77462200Y-108964000D03*
%TO.N,SWCLK*%
X77112200Y-126670000D03*
X76003100Y-107075000D03*
%TO.N,CAN_RX*%
X74729100Y-108727000D03*
X69905000Y-124734000D03*
%TO.N,CAN_TX*%
X73930600Y-110250000D03*
X65336700Y-126287000D03*
%TO.N,OUT0_DRIVE*%
X79026100Y-121248000D03*
X118061000Y-127770000D03*
X79274000Y-110648000D03*
%TO.N,OUT1_DRIVE*%
X109250000Y-115982000D03*
X76963000Y-111476000D03*
X126128000Y-123089000D03*
X112743000Y-119476000D03*
%TO.N,TMC_DIAG0*%
X111240000Y-89744200D03*
X93720200Y-106133000D03*
X75461700Y-107752000D03*
X96354500Y-91783900D03*
X74517300Y-111329000D03*
%TO.N,MOTOR_PG*%
X98989700Y-82451400D03*
X97524300Y-93916600D03*
X100034000Y-72189400D03*
X96565300Y-111078000D03*
X96073100Y-107701000D03*
X74524200Y-112667000D03*
D28*
%TO.N,POWER_PERMIT*%
X87926200Y-79084800D03*
X78059700Y-105108000D03*
X76917700Y-112123200D03*
%TO.N,PD_SCL*%
X78911200Y-70204300D03*
X77166200Y-103886900D03*
X76829200Y-113454600D03*
X79103500Y-77044900D03*
%TO.N,PD_SDA*%
X67639000Y-77931500D03*
X77207000Y-110824500D03*
X77978500Y-78130500D03*
D29*
%TO.N,TMC_DIAG1*%
X110177000Y-89397000D03*
D28*
X98221400Y-115623000D03*
D29*
X97804100Y-91349000D03*
X75049300Y-115350000D03*
%TO.N,VMOTOR_OK*%
X78051000Y-114253000D03*
X99502500Y-126954000D03*
X102400000Y-127950000D03*
X98317100Y-114852000D03*
D28*
%TO.N,SENSE_B*%
X111800000Y-117300000D03*
D29*
X117196000Y-121018000D03*
X138618000Y-118901000D03*
X129697000Y-123100000D03*
X131822000Y-118825000D03*
D30*
X111500000Y-101600000D03*
D29*
X130597000Y-124000000D03*
X129697000Y-124000000D03*
X137718000Y-118001000D03*
X130597000Y-124900000D03*
X129697000Y-124900000D03*
X130597000Y-123100000D03*
D28*
%TO.N,V3V3_PD*%
X74149999Y-97800000D03*
D29*
%TO.N,GH_A2_DRV*%
X105957000Y-102124000D03*
X122030000Y-102488000D03*
X104647000Y-90196800D03*
%TO.N,GH_A2*%
X126786000Y-111150000D03*
X124825000Y-101563000D03*
%TO.N,STOP_R_BASE*%
X109976000Y-128117000D03*
X112848000Y-101800000D03*
X113322000Y-132912000D03*
%TO.N,BLOCK_FAST_GATE*%
X94829700Y-61287500D03*
D30*
X101304000Y-77786300D03*
D29*
%TO.N,BLOCK_GATE*%
X99126000Y-77601100D03*
X95031800Y-70922600D03*
X91905000Y-60500000D03*
%TO.N,EEP_IRQ_N*%
X77699700Y-68042700D03*
X77349500Y-73125900D03*
%TO.N,OVP_DIV*%
X95694900Y-77955000D03*
X94856400Y-72265300D03*
X103188000Y-76862800D03*
%TO.N,PG_DIV*%
X101250000Y-72200300D03*
X91401600Y-75767600D03*
X103542000Y-79970700D03*
%TO.N,GH_B2_DRV*%
X133198000Y-101684000D03*
X102536000Y-95373000D03*
X135347000Y-107265000D03*
X101989000Y-99544300D03*
%TO.N,MOTOR_A1*%
X119000000Y-92850000D03*
X113650000Y-86600000D03*
X113650000Y-88400000D03*
X118100000Y-92850000D03*
X119100000Y-90949999D03*
X113650000Y-87500000D03*
X120000000Y-92850000D03*
X118199999Y-90949999D03*
X120000000Y-91850000D03*
D28*
X104750000Y-93750000D03*
D29*
X116412000Y-99766600D03*
D28*
X112750000Y-87500000D03*
D29*
X119000000Y-91850000D03*
%TO.N,GH_A1*%
X118344000Y-85777400D03*
X113083000Y-82950900D03*
%TO.N,DIN0_BASE*%
X96196000Y-127380000D03*
%TO.N,UVLO_DIV*%
X96592400Y-72038100D03*
X103557000Y-82391400D03*
X105758000Y-71457200D03*
%TO.N,GL_B2_DRV*%
X100111000Y-99110400D03*
X138109000Y-109013000D03*
%TO.N,EFUSE_EN*%
X87521300Y-74026100D03*
X103770000Y-73484500D03*
%TO.N,TMC_12V*%
X113121000Y-71818700D03*
D30*
X104223000Y-98662800D03*
D29*
%TO.N,BRAKE_ON*%
X115491000Y-69878200D03*
X110948000Y-114200000D03*
%TO.N,REFR_DIR*%
X110538000Y-102390000D03*
X110538000Y-112203000D03*
X106816000Y-111111000D03*
X111679000Y-99366100D03*
%TO.N,ENABLE_CHAIN*%
X101363000Y-118537000D03*
X93900400Y-119957000D03*
D28*
%TO.N,TMC_5V*%
X107250000Y-98500000D03*
D30*
X104800000Y-98800000D03*
D28*
X102800000Y-101000000D03*
X96550000Y-99050000D03*
D29*
%TO.N,OVP_TOP*%
X106171000Y-76005900D03*
X97687400Y-77947300D03*
D28*
%TO.N,DATA_CC2*%
X67536100Y-97579000D03*
X68278000Y-104927000D03*
X67042500Y-100935000D03*
D29*
%TO.N,MOTOR_A2*%
X108912000Y-84345999D03*
X123500000Y-115850000D03*
X120880000Y-117381000D03*
X123500000Y-116850000D03*
X124500000Y-115850000D03*
X124500000Y-116850000D03*
X124400000Y-114949999D03*
X123500000Y-114949999D03*
X108912000Y-85246000D03*
X119979999Y-116481000D03*
X109013000Y-110802000D03*
X119979999Y-118281000D03*
X103660000Y-91539600D03*
X107112000Y-85246000D03*
X108012000Y-85246000D03*
%TO.N,DRV_EN_N*%
X110362000Y-114697000D03*
X110675000Y-86456100D03*
%TO.N,SENSE_A*%
X125041000Y-96533700D03*
X117200000Y-96800000D03*
D30*
X111700000Y-101100000D03*
D29*
X123241000Y-96533700D03*
X124606000Y-118835000D03*
X123705999Y-119735000D03*
X122341000Y-96533700D03*
X124141000Y-96533700D03*
X125506000Y-118835000D03*
X118100000Y-97700000D03*
X118100000Y-96800000D03*
X124605999Y-120635000D03*
X123241000Y-97433700D03*
D30*
X117200000Y-97700000D03*
D29*
%TO.N,MOTOR_OVP_LOW*%
X101542000Y-134200000D03*
X107588000Y-133234000D03*
%TO.N,RUN_PG*%
X96275400Y-114765000D03*
X95512300Y-108753000D03*
%TO.N,RUN_SAFE*%
X95717400Y-113050000D03*
X95128600Y-116042000D03*
D28*
%TO.N,PD_PATH_N*%
X81500000Y-80000000D03*
D29*
X75504000Y-84440000D03*
X84701400Y-79867900D03*
D28*
%TO.N,USB_DM_CONN*%
X67536200Y-98186700D03*
X73171600Y-115314400D03*
X70168400Y-98739300D03*
D29*
%TO.N,UVLO_MID*%
X103172000Y-78312500D03*
X104617000Y-70249700D03*
%TO.N,GL_A2*%
X125310000Y-121358000D03*
X126436000Y-126040000D03*
D30*
%TO.N,REFL_STEP*%
X104000000Y-107000000D03*
X110100000Y-103900000D03*
D29*
%TO.N,GH_B1_DRV*%
X104385000Y-99736300D03*
X106638000Y-103112000D03*
X107844000Y-106291000D03*
D30*
%TO.N,TMC_CPO*%
X107700000Y-90000000D03*
D28*
X106700000Y-85900000D03*
D29*
%TO.N,TMC_CPI*%
X105648000Y-86933400D03*
X105528000Y-85422800D03*
%TO.N,TMC_VCP*%
X102429000Y-90508400D03*
X94029500Y-95946700D03*
%TO.N,BOOT_A2*%
X105195000Y-89536400D03*
X106258000Y-85054500D03*
%TO.N,GL_A2_DRV*%
X123794000Y-126586000D03*
X122570000Y-98011300D03*
X102221000Y-91950200D03*
%TO.N,GL_A1_DRV*%
X102532000Y-93185600D03*
X123104000Y-92061200D03*
%TO.N,GH_A1_DRV*%
X109789000Y-85067400D03*
X101260000Y-92067400D03*
X100820000Y-87585000D03*
%TO.N,BOOT_A1*%
X114591000Y-99662800D03*
X115135000Y-95661500D03*
X101428000Y-94513800D03*
D28*
%TO.N,BOOT_B2*%
X108250000Y-104000000D03*
X104750000Y-95250000D03*
D29*
%TO.N,GL_B1_DRV*%
X102526000Y-98526200D03*
X112248000Y-114970000D03*
X104517000Y-103891000D03*
X112248000Y-104884000D03*
%TO.N,RS232_VP*%
X65976600Y-116898000D03*
X61325000Y-111783000D03*
%TO.N,BRAKE_RETURN*%
X107500000Y-66850000D03*
X108500000Y-66850000D03*
X107500000Y-65850000D03*
X108500000Y-65850000D03*
X106600000Y-66849999D03*
X109400000Y-66849999D03*
%TO.N,VMON_MID*%
X107384000Y-77757200D03*
X93846300Y-72057000D03*
%TO.N,EFUSE_IN*%
X92500000Y-66850000D03*
X90600000Y-65849999D03*
X91500000Y-65850000D03*
X89190100Y-67250000D03*
X90600000Y-66749999D03*
X89190100Y-66350000D03*
X93400000Y-66849999D03*
X91028000Y-77900000D03*
X91028000Y-77000000D03*
X89190100Y-65449999D03*
X91500000Y-66850000D03*
X92500000Y-65850000D03*
X91928000Y-77900000D03*
D30*
%TO.N,ILIM_SET*%
X103700000Y-74200000D03*
X105900000Y-74200000D03*
D29*
%TO.N,STEP_IN_BASE*%
X120108000Y-130526000D03*
X135692000Y-127080000D03*
%TO.N,DIR_IN_BASE*%
X130906000Y-112235000D03*
X128656000Y-132065000D03*
X134800000Y-97959600D03*
%TO.N,RS232_VN*%
X66959900Y-114455000D03*
X64034900Y-120616000D03*
%TO.N,PD_PATH_OK*%
X88272700Y-76185100D03*
X70124800Y-82687100D03*
X85725600Y-73004400D03*
D28*
%TO.N,ENC_I*%
X95826300Y-113728000D03*
X98129300Y-103970000D03*
X97576700Y-133074000D03*
X98384700Y-113523000D03*
D29*
%TO.N,BUCK_BOOT*%
X75644500Y-88801600D03*
X71695000Y-94849000D03*
%TO.N,BUCK_SW*%
X69796000Y-92044400D03*
X77663800Y-91068000D03*
X85860100Y-94208400D03*
D28*
%TO.N,ENC_B*%
X96767400Y-131214500D03*
X95183200Y-120761500D03*
X101904200Y-100193100D03*
X102347000Y-117934900D03*
%TO.N,ENC_A*%
X91174500Y-135217000D03*
X92837100Y-111495000D03*
X100521000Y-95798100D03*
X101582000Y-110890000D03*
D29*
%TO.N,BUCK_FB*%
X71593200Y-96234900D03*
X81825000Y-99456000D03*
%TO.N,BUCK_VCC*%
X71703700Y-92707300D03*
X74008800Y-88852800D03*
%TD*%
%TO.N,STEP_24V*%
D31*
X136700000Y-106600000D02*
X137175000Y-106000000D01*
%TO.N,DIR_24V*%
D32*
X131110100Y-97000000D02*
X130589100Y-97521000D01*
X133175000Y-97000000D02*
X131110100Y-97000000D01*
%TO.N,GND*%
X126000000Y-130050000D02*
X126000000Y-129757000D01*
X126000000Y-129463000D02*
X126482000Y-128982000D01*
X132308000Y-109000000D02*
X131596000Y-109000000D01*
X87338300Y-87812700D02*
X87338300Y-88000000D01*
X79000000Y-92962500D02*
X79000000Y-92163300D01*
D33*
X84087500Y-88000000D02*
X84087500Y-88650000D01*
D32*
X103389000Y-102823000D02*
X103389000Y-102899000D01*
X92597200Y-126403000D02*
X86000000Y-133000000D01*
X131100000Y-108200000D02*
X131000000Y-108100000D01*
X136308000Y-85000000D02*
X136308000Y-90192400D01*
X73300000Y-88400074D02*
X73300000Y-87800074D01*
D33*
X69175000Y-93000000D02*
X68715400Y-92540400D01*
D32*
X100362000Y-123177000D02*
X101184000Y-124000000D01*
X84836700Y-87438100D02*
X85253100Y-87021700D01*
X75000000Y-93000000D02*
X75000000Y-94486700D01*
X125537000Y-122911000D02*
X125537000Y-127655000D01*
X82425000Y-100750000D02*
X82500006Y-100999875D01*
X102046000Y-101698000D02*
X102264000Y-101698000D01*
X81912500Y-88000000D02*
X84087500Y-88000000D01*
X125537000Y-127655000D02*
X126482000Y-128600000D01*
X126000000Y-129757000D02*
X126000000Y-129463000D01*
X132308000Y-121000000D02*
X131596000Y-121000000D01*
X129812000Y-110784000D02*
X129812000Y-118000000D01*
X103326000Y-102961000D02*
X103326000Y-102963000D01*
X117000000Y-130637000D02*
X117967000Y-131604000D01*
X102264000Y-101698000D02*
X103389000Y-102823000D01*
X95842100Y-123177000D02*
X100362000Y-123177000D01*
D33*
X80175000Y-98500000D02*
X80634600Y-98959600D01*
D32*
X126581000Y-128500000D02*
X126482000Y-128600000D01*
X101288000Y-126178000D02*
X101184000Y-126074000D01*
X65175000Y-80310500D02*
X65544500Y-80680000D01*
X98700000Y-101713000D02*
X100111000Y-100303000D01*
X81163300Y-88000000D02*
X81163300Y-90000000D01*
X80175000Y-98500000D02*
X78525000Y-98500000D01*
X79000000Y-92962500D02*
X79000000Y-93761700D01*
X84087500Y-88000000D02*
X84836700Y-88000000D01*
X84836700Y-88000000D02*
X84836700Y-87438100D01*
X94307600Y-124000000D02*
X95019300Y-124000000D01*
X133812000Y-92688300D02*
X134500000Y-92000000D01*
D31*
X107600000Y-104100000D02*
X106825000Y-105000000D01*
D32*
X100650000Y-100303000D02*
X102046000Y-101698000D01*
X88087500Y-88000000D02*
X87338300Y-88000000D01*
X101288000Y-132712000D02*
X101288000Y-126178000D01*
X133175000Y-103000000D02*
X132538000Y-103000000D01*
X122816000Y-129757000D02*
X121812000Y-130761000D01*
X92597200Y-124000000D02*
X92597200Y-126403000D01*
D31*
X100400000Y-106000000D02*
X100000000Y-106625000D01*
D32*
X65175000Y-78000000D02*
X65175000Y-80310500D01*
X129812000Y-118000000D02*
X129812000Y-119216000D01*
X133175000Y-103000000D02*
X133812000Y-103000000D01*
X121812000Y-130761000D02*
X121812000Y-131000000D01*
X127296000Y-121825000D02*
X126623000Y-121825000D01*
X121175000Y-131000000D02*
X121812000Y-131000000D01*
X102308000Y-124000000D02*
X103019000Y-124000000D01*
X73725000Y-84100000D02*
X73625000Y-84200000D01*
X100650000Y-98286600D02*
X100650000Y-100303000D01*
X126000000Y-129757000D02*
X122816000Y-129757000D01*
D31*
X136700000Y-107600000D02*
X136308000Y-109000000D01*
D32*
X77033200Y-95728500D02*
X79000000Y-93761700D01*
X92597200Y-124000000D02*
X93595900Y-124000000D01*
X131596000Y-109000000D02*
X129812000Y-110784000D01*
X85253100Y-87021700D02*
X86547300Y-87021700D01*
X119935000Y-131604000D02*
X120538000Y-131000000D01*
X117967000Y-131604000D02*
X119935000Y-131604000D01*
X73600000Y-84650074D02*
X73525000Y-84300000D01*
D33*
X69175000Y-93000000D02*
X68500000Y-93000000D01*
D32*
X73300000Y-87800074D02*
X73600000Y-87500074D01*
X76905000Y-95728500D02*
X77033200Y-95728500D01*
X80175000Y-98500000D02*
X82425000Y-100750000D01*
X98700000Y-102800000D02*
X98700000Y-101713000D01*
X73825000Y-84000000D02*
X73725000Y-84100000D01*
X95019300Y-124000000D02*
X95842100Y-123177000D01*
X108308000Y-124000000D02*
X107596000Y-124000000D01*
X102308000Y-124000000D02*
X101596000Y-124000000D01*
X100650000Y-97199900D02*
X100650000Y-98286600D01*
X101184000Y-124000000D02*
X101184000Y-126074000D01*
D33*
X92597200Y-126403000D02*
X91996200Y-127004000D01*
D31*
X136700000Y-107200000D02*
X136700000Y-107600000D01*
D32*
X126482000Y-128982000D02*
X126482000Y-128600000D01*
D33*
X67500000Y-100000000D02*
X67500000Y-103500000D01*
X68000000Y-99412500D02*
X67500000Y-100000000D01*
D32*
X73625000Y-84200000D02*
X73525000Y-84300000D01*
X75663200Y-94486700D02*
X76905000Y-95728500D01*
X129175000Y-118000000D02*
X129175000Y-119946000D01*
X101184000Y-124000000D02*
X101596000Y-124000000D01*
X100000000Y-134000000D02*
X101288000Y-132712000D01*
X107596000Y-124000000D02*
X106784000Y-124812000D01*
X78525000Y-97466100D02*
X78525000Y-98500000D01*
X131600000Y-105300000D02*
X132538000Y-103000000D01*
X126623000Y-121825000D02*
X125537000Y-122911000D01*
X129175000Y-128500000D02*
X128538000Y-128500000D01*
X133812000Y-103000000D02*
X133812000Y-92688300D01*
X121175000Y-131000000D02*
X120538000Y-131000000D01*
X129175000Y-119946000D02*
X127296000Y-121825000D01*
X129812000Y-119216000D02*
X131596000Y-121000000D01*
X94307600Y-124000000D02*
X93595900Y-124000000D01*
D31*
X107610000Y-103912000D02*
X107600000Y-104100000D01*
D32*
X76905000Y-95846100D02*
X78525000Y-97466100D01*
X128538000Y-128500000D02*
X126581000Y-128500000D01*
X76905000Y-95728500D02*
X76905000Y-95846100D01*
X132308000Y-109000000D02*
X131100000Y-108200000D01*
X117000000Y-130050000D02*
X117000000Y-130637000D01*
X86547300Y-87021700D02*
X87338300Y-87812700D01*
X136308000Y-90192400D02*
X134500000Y-92000000D01*
X103389000Y-102899000D02*
X103326000Y-102961000D01*
X131000000Y-108100000D02*
X131000000Y-105900000D01*
X106784000Y-124812000D02*
X103831000Y-124812000D01*
X75000000Y-94486700D02*
X75663200Y-94486700D01*
X100111000Y-100303000D02*
X100650000Y-100303000D01*
D33*
X68000000Y-99412500D02*
X67540400Y-98952900D01*
D32*
X103831000Y-124812000D02*
X103019000Y-124000000D01*
D31*
X132538000Y-103000000D02*
X133600000Y-103300000D01*
D32*
X73600000Y-87500074D02*
X73600000Y-84650074D01*
D33*
X67500000Y-103500000D02*
X72250000Y-103575000D01*
D32*
X129175000Y-118000000D02*
X129812000Y-118000000D01*
X81912500Y-88000000D02*
X81163300Y-88000000D01*
X81163300Y-90000000D02*
X79000000Y-92163300D01*
X131000000Y-105900000D02*
X131600000Y-105300000D01*
%TO.N,CAN_H*%
D34*
X77791400Y-117025400D02*
X77647600Y-117025400D01*
D32*
X73079700Y-121593300D02*
X73079700Y-125200000D01*
X77647600Y-117025400D02*
X73079700Y-121593300D01*
X84500000Y-100999900D02*
X83500000Y-101999900D01*
X83500000Y-101999900D02*
X83500000Y-103311100D01*
X81593500Y-105593300D02*
X81593500Y-110582600D01*
D34*
X83500000Y-103311100D02*
X83379900Y-103431200D01*
D32*
X79264200Y-112911900D02*
X79264200Y-115552600D01*
X81593500Y-110582600D02*
X79264200Y-112911900D01*
X79264200Y-115552600D02*
X77911600Y-116905200D01*
D34*
X77911600Y-116905200D02*
X77791400Y-117025400D01*
D32*
X83379900Y-103806900D02*
X81593500Y-105593300D01*
D34*
X83379900Y-103431200D02*
X83379900Y-103806900D01*
%TO.N,RS485_B*%
X81500000Y-103311000D02*
X81152500Y-103659000D01*
D32*
X80500000Y-101000000D02*
X81500000Y-102000000D01*
X78846800Y-109941000D02*
X78236000Y-110552000D01*
X81500000Y-102000000D02*
X81500000Y-103311000D01*
D34*
X81152500Y-103659000D02*
X81152500Y-104728000D01*
D32*
X81152500Y-104728000D02*
X81152500Y-108561000D01*
X81152500Y-108561000D02*
X79772200Y-109941000D01*
X79772200Y-109941000D02*
X78846800Y-109941000D01*
%TO.N,VMOTOR*%
D35*
X123500000Y-107850000D02*
X123500000Y-106850000D01*
X115500000Y-106850000D02*
X115500000Y-105850000D01*
X116500000Y-106850000D02*
X115500000Y-106850000D01*
D36*
X98550066Y-76058043D02*
X98550066Y-76208043D01*
X96600066Y-80558043D02*
X96450066Y-80708043D01*
D35*
X116500000Y-83850000D02*
X115500000Y-83850000D01*
D36*
X98850066Y-75608043D02*
X98700066Y-75758043D01*
D35*
X115500000Y-105850000D02*
X116500000Y-105850000D01*
D31*
X126100000Y-71400000D02*
X126100000Y-75500000D01*
D35*
X116500000Y-105850000D02*
X116500000Y-106850000D01*
D36*
X97050066Y-79358043D02*
X97050066Y-79508043D01*
D35*
X123500000Y-106850000D02*
X124500000Y-106850000D01*
D36*
X96450066Y-80858043D02*
X96300066Y-81008043D01*
X96300066Y-81158042D02*
X96150066Y-81308043D01*
X99300066Y-74558043D02*
X99150066Y-74708043D01*
X98550066Y-76208043D02*
X98400066Y-76358043D01*
D37*
X125200000Y-70000000D02*
X126652000Y-70000000D01*
D36*
X97050066Y-79508043D02*
X96900066Y-79658042D01*
X99000066Y-75158042D02*
X99000066Y-75308043D01*
D35*
X115500000Y-82850000D02*
X116500000Y-82850000D01*
D36*
X96900066Y-79658042D02*
X96900066Y-79958043D01*
D35*
X124500000Y-106850000D02*
X124500000Y-107850000D01*
D31*
X126652000Y-70151600D02*
X126100000Y-71400000D01*
D36*
X96750066Y-80258043D02*
X96600066Y-80408042D01*
D35*
X115500000Y-83850000D02*
X115500000Y-82850000D01*
D36*
X96150066Y-81308043D02*
X96150066Y-81458043D01*
D37*
X126652000Y-70000000D02*
X126652000Y-70151600D01*
D36*
X99150066Y-74708043D02*
X99150066Y-75008043D01*
D35*
X132500000Y-107850000D02*
X131500000Y-107850000D01*
D36*
X96450066Y-80708043D02*
X96450066Y-80858043D01*
X98700066Y-75908042D02*
X98550066Y-76058043D01*
X99300066Y-72308043D02*
X99300066Y-74558043D01*
D35*
X124500000Y-107850000D02*
X123500000Y-107850000D01*
X116500000Y-82850000D02*
X116500000Y-83850000D01*
D36*
X98250066Y-76808043D02*
X98250066Y-78158042D01*
X96600066Y-80408042D02*
X96600066Y-80558043D01*
D35*
X131500000Y-106850000D02*
X132500000Y-106850000D01*
D36*
X98400066Y-76358043D02*
X98400066Y-76658042D01*
X96300066Y-81008043D02*
X96300066Y-81158042D01*
X96750066Y-80108043D02*
X96750066Y-80258043D01*
X99000066Y-75308043D02*
X98850066Y-75458043D01*
X96900066Y-79958043D02*
X96750066Y-80108043D01*
X98400066Y-76658042D02*
X98250066Y-76808043D01*
X98250066Y-78158042D02*
X97050066Y-79358043D01*
D35*
X131500000Y-107850000D02*
X131500000Y-106850000D01*
X132500000Y-106850000D02*
X132500000Y-107850000D01*
D36*
X98850066Y-75458043D02*
X98850066Y-75608043D01*
X99150066Y-75008043D02*
X99000066Y-75158042D01*
X98700066Y-75758043D02*
X98700066Y-75908042D01*
X96150066Y-81458043D02*
X96000066Y-81608043D01*
%TO.N,HW_ENABLE_24V*%
D32*
X76211600Y-108901700D02*
X77557900Y-107555400D01*
X77557900Y-107555400D02*
X77557900Y-101942000D01*
X77071900Y-112849400D02*
X76211600Y-111989100D01*
X76211600Y-111989100D02*
X76211600Y-108901700D01*
X77557900Y-101942000D02*
X78500000Y-100999900D01*
%TO.N,OUT0*%
D34*
X75583600Y-116943400D02*
X75583600Y-117611400D01*
D32*
X75471400Y-117723600D02*
X75471400Y-118640300D01*
X120000000Y-72050500D02*
X120800100Y-71250400D01*
X75702400Y-108656700D02*
X75702400Y-115886000D01*
X119000000Y-129545500D02*
X119000000Y-131000000D01*
X76500000Y-107859100D02*
X75702400Y-108656700D01*
X118418500Y-128964000D02*
X119000000Y-129545500D01*
X120800100Y-71250400D02*
X120800100Y-70000000D01*
X75702400Y-115886000D02*
X75341700Y-116246700D01*
X75583600Y-117611400D02*
X75471400Y-117723600D01*
D34*
X75463400Y-116823200D02*
X75583600Y-116943400D01*
D32*
X75341700Y-116246700D02*
X75341700Y-116701500D01*
X76500000Y-102999900D02*
X76500000Y-107859100D01*
X75341700Y-116701500D02*
X75463400Y-116823200D01*
%TO.N,OUT1*%
X73935300Y-112938100D02*
X73935300Y-113055000D01*
X128000000Y-131000000D02*
X128000000Y-131516700D01*
X74996500Y-102503400D02*
X74996500Y-104760400D01*
X74249700Y-105507200D02*
X74249700Y-109604000D01*
X74249700Y-109604000D02*
X74434300Y-109788600D01*
X73935300Y-113055000D02*
X73571900Y-113418400D01*
X74009200Y-111023400D02*
X74009200Y-112694200D01*
D34*
X74009200Y-112864200D02*
X73935300Y-112938100D01*
D32*
X74434300Y-109788600D02*
X74434300Y-110598300D01*
X76500000Y-100999900D02*
X74996500Y-102503400D01*
X128000000Y-131516700D02*
X126896600Y-132620100D01*
X74434300Y-110598300D02*
X74009200Y-111023400D01*
D34*
X74009200Y-112694200D02*
X74009200Y-112864200D01*
D32*
X126896600Y-132620100D02*
X126197000Y-132620100D01*
X74996500Y-104760400D02*
X74249700Y-105507200D01*
%TO.N,MOTOR_LOGIC_PG*%
X89000000Y-97200000D02*
X89200000Y-97200000D01*
X88799000Y-97450700D02*
X89000000Y-97200000D01*
X89400000Y-97000000D02*
X91600000Y-97000000D01*
X91600000Y-97000000D02*
X92000000Y-96600000D01*
X94600000Y-96200000D02*
X94600000Y-94200000D01*
X89200000Y-97200000D02*
X89400000Y-97000000D01*
X94400000Y-93600000D02*
X94247300Y-93440100D01*
X94200000Y-96600000D02*
X94600000Y-96200000D01*
X94400000Y-94000000D02*
X94400000Y-93600000D01*
X92000000Y-96600000D02*
X94200000Y-96600000D01*
X94600000Y-94200000D02*
X94400000Y-94000000D01*
%TO.N,CC_VBIAS*%
X72175000Y-82682400D02*
X71392500Y-81899900D01*
X72175000Y-84000000D02*
X72175000Y-82682400D01*
%TO.N,CC2_CONN*%
X68405700Y-79933500D02*
X68405700Y-83816900D01*
X71462900Y-76876300D02*
X68405700Y-79933500D01*
%TO.N,CC_FAULT_N*%
X76659300Y-78230600D02*
X73128200Y-74699500D01*
X76659300Y-78913000D02*
X76659300Y-78230600D01*
X82825000Y-64000000D02*
X82825000Y-65535100D01*
%TO.N,PD_3V3*%
X86825000Y-68200000D02*
X84000000Y-68200000D01*
X81175000Y-64711700D02*
X80825000Y-65061700D01*
X81175000Y-64000000D02*
X81175000Y-64711700D01*
X81700000Y-70000000D02*
X80825000Y-69000000D01*
X84000000Y-68200000D02*
X82800000Y-69400000D01*
X86825000Y-70000000D02*
X86825000Y-68200000D01*
X81261700Y-63201600D02*
X81261700Y-62099200D01*
X82800000Y-69400000D02*
X81700000Y-70000000D01*
X80825000Y-65061700D02*
X80825000Y-69000000D01*
X81175000Y-64000000D02*
X81175000Y-63288300D01*
X81175000Y-63288300D02*
X81261700Y-63201600D01*
%TO.N,EPR_EN*%
X66825000Y-75044100D02*
X67241600Y-74627500D01*
X66825000Y-78000000D02*
X66825000Y-75044100D01*
%TO.N,PD_VBUS*%
X75027200Y-94908300D02*
X75635000Y-95516100D01*
X75635000Y-95516100D02*
X75635000Y-95846100D01*
X79000000Y-91142500D02*
X79000000Y-90037500D01*
D33*
X75635000Y-95846100D02*
X76875000Y-98500000D01*
D32*
X75635000Y-95846100D02*
X74365000Y-95846100D01*
X78952500Y-91190000D02*
X79000000Y-91142500D01*
%TO.N,HOME_IN_BASE*%
X130603000Y-129983000D02*
X128087000Y-129983000D01*
X134981000Y-109000000D02*
X134981000Y-109712000D01*
X134981000Y-109712000D02*
X133989000Y-110703000D01*
D31*
X138400000Y-109700000D02*
X139692000Y-109000000D01*
D32*
X133989000Y-110703000D02*
X133989000Y-126596000D01*
X133989000Y-126596000D02*
X130603000Y-129983000D01*
D31*
X137100000Y-109700000D02*
X138400000Y-109700000D01*
X134981000Y-109000000D02*
X135200000Y-109700000D01*
%TO.N,HOME_IN*%
D32*
X134825000Y-113160000D02*
X134961000Y-113296000D01*
X134825000Y-112000000D02*
X134825000Y-113160000D01*
%TO.N,V3V3*%
X73825000Y-104000000D02*
X73825000Y-101301000D01*
X73993600Y-104410000D02*
X73993600Y-104259999D01*
X99350000Y-102800000D02*
X99350000Y-101713000D01*
X87361800Y-134000000D02*
X87299300Y-133938000D01*
X134825000Y-100000000D02*
X134188000Y-100000000D01*
X80937500Y-133938000D02*
X87299300Y-133938000D01*
X102175000Y-105739000D02*
X100322000Y-103887000D01*
X134188000Y-109380000D02*
X134188000Y-100000000D01*
X133175000Y-112000000D02*
X133175000Y-110393000D01*
X80000000Y-133000000D02*
X80937500Y-133938000D01*
X88000000Y-134000000D02*
X87361800Y-134000000D01*
X105175000Y-105000000D02*
X105653000Y-105739000D01*
D31*
X100322000Y-103887000D02*
X100000000Y-105000000D01*
D32*
X100322000Y-103887000D02*
X100000000Y-103887000D01*
X73993600Y-104259999D02*
X73825000Y-104000000D01*
X133175000Y-110393000D02*
X134188000Y-109380000D01*
X105653000Y-105739000D02*
X102175000Y-105739000D01*
X133452000Y-118807000D02*
X133175000Y-118530000D01*
X100000000Y-102800000D02*
X100000000Y-101713000D01*
X91732300Y-92110700D02*
X92825000Y-93203400D01*
X99350000Y-101713000D02*
X100000000Y-101713000D01*
X87299300Y-133938000D02*
X87299300Y-132644000D01*
D31*
X100000000Y-105000000D02*
X100000000Y-104975000D01*
D32*
X102175000Y-105739000D02*
X102175000Y-105978000D01*
X74143600Y-105009999D02*
X74143600Y-104559999D01*
X92825000Y-95500000D02*
X92825000Y-94788300D01*
X92825000Y-93203400D02*
X92825000Y-94788300D01*
X133175000Y-118530000D02*
X133175000Y-112000000D01*
X100000000Y-102800000D02*
X100000000Y-103887000D01*
X74143600Y-104559999D02*
X73993600Y-104410000D01*
X73825000Y-101301000D02*
X74079500Y-101046000D01*
%TO.N,DIN1_BASE*%
X104981000Y-124000000D02*
X104037000Y-123056000D01*
X104037000Y-123056000D02*
X101531000Y-123056000D01*
X105692000Y-124000000D02*
X104981000Y-124000000D01*
%TO.N,STOP_L_BASE*%
X111692000Y-128440000D02*
X112347000Y-129094000D01*
X112347000Y-129094000D02*
X112566000Y-129314000D01*
X112566000Y-129314000D02*
X112566000Y-132088000D01*
X112566000Y-132088000D02*
X111836000Y-132818000D01*
X111692000Y-124000000D02*
X111692000Y-128440000D01*
%TO.N,MOTOR_B2*%
D37*
X117206000Y-99219700D02*
X114516000Y-96529600D01*
X113005000Y-107565000D02*
X114000000Y-106400000D01*
D35*
X132500000Y-115850000D02*
X132500000Y-116850000D01*
X131500000Y-115850000D02*
X132500000Y-115850000D01*
D37*
X115400000Y-105000000D02*
X117206000Y-103363000D01*
D35*
X131500000Y-116850000D02*
X131500000Y-115850000D01*
D37*
X117206000Y-103363000D02*
X117206000Y-99219700D01*
D35*
X132500000Y-116850000D02*
X131500000Y-116850000D01*
D37*
X114000000Y-106400000D02*
X115400000Y-105000000D01*
%TO.N,EFUSE_FAULT_N*%
D32*
X91070700Y-106387000D02*
X91070700Y-103806900D01*
D34*
X91477000Y-100711700D02*
X91547400Y-100641300D01*
X91070700Y-103806900D02*
X91070700Y-103806800D01*
X91427200Y-103570500D02*
X91427200Y-103259900D01*
D32*
X91547400Y-100641300D02*
X91547400Y-99486800D01*
X91547400Y-99486800D02*
X91911800Y-99122400D01*
D34*
X91523000Y-102881600D02*
X91523000Y-102711600D01*
D32*
X91523000Y-103164100D02*
X91523000Y-102881600D01*
D34*
X91427200Y-103259900D02*
X91523000Y-103164100D01*
D32*
X91452600Y-102641200D02*
X91452600Y-100906100D01*
D34*
X91070700Y-103806800D02*
X91307000Y-103570500D01*
D32*
X88501200Y-108956500D02*
X91070700Y-106387000D01*
D34*
X91477000Y-100881700D02*
X91477000Y-100711700D01*
D32*
X91307000Y-103570500D02*
X91427200Y-103570500D01*
X91452600Y-100906100D02*
X91477000Y-100881700D01*
D34*
X91523000Y-102711600D02*
X91452600Y-102641200D01*
%TO.N,PD_LEVEL_BASE*%
D32*
X77384300Y-79930300D02*
X77384300Y-73851100D01*
X78229700Y-73005700D02*
X78229700Y-70880600D01*
X77384300Y-73851100D02*
X78229700Y-73005700D01*
X78589100Y-81135100D02*
X77384300Y-79930300D01*
%TO.N,MOTOR_B1*%
D35*
X115500000Y-114850000D02*
X116500000Y-114850000D01*
X115500000Y-115850000D02*
X115500000Y-114850000D01*
X116500000Y-115850000D02*
X115500000Y-115850000D01*
X116500000Y-114850000D02*
X116500000Y-115850000D01*
%TO.N,STATUS_GPIO*%
D32*
X86000000Y-130000000D02*
X86000000Y-127974000D01*
%TO.N,NRST*%
X83000000Y-130000000D02*
X83414400Y-130414400D01*
X83414400Y-130414400D02*
X83414400Y-131894000D01*
%TO.N,IIN_MON*%
X102935000Y-73105300D02*
X102935000Y-75697700D01*
X102935000Y-75697700D02*
X106750000Y-79512800D01*
%TO.N,SPI_SCK*%
X96882700Y-96731100D02*
X97235200Y-97083600D01*
X98700000Y-97199900D02*
X98700000Y-96113200D01*
X98700000Y-96113200D02*
X98161700Y-95574900D01*
X97194500Y-95574900D02*
X96882700Y-95886700D01*
X96882700Y-95886700D02*
X96882700Y-96731100D01*
X98161700Y-95574900D02*
X97194500Y-95574900D01*
%TO.N,SPI_MISO*%
X98445500Y-98286600D02*
X98205900Y-98526200D01*
X99350000Y-98286600D02*
X98445500Y-98286600D01*
X99350000Y-97199900D02*
X99350000Y-98286600D01*
%TO.N,SPI_MOSI*%
X87500000Y-111466000D02*
X96342400Y-102623000D01*
X96342400Y-102623000D02*
X96592700Y-102623000D01*
X99036500Y-99671000D02*
X99036600Y-99671000D01*
X96592700Y-102623000D02*
X96907000Y-102309000D01*
X99036600Y-99671000D02*
X99279300Y-99913800D01*
X87500000Y-112708000D02*
X87500000Y-111466000D01*
X99036500Y-99250100D02*
X99036500Y-99671000D01*
X96907000Y-102309000D02*
X96907000Y-101801000D01*
X100000000Y-97199900D02*
X100000000Y-98286600D01*
X100000000Y-98286600D02*
X99036500Y-99250100D01*
X96907000Y-101801000D02*
X99036600Y-99671000D01*
%TO.N,ENC_CS_N*%
X93477300Y-96016800D02*
X93302400Y-96191700D01*
X94060800Y-92964800D02*
X93477300Y-93548300D01*
X92330500Y-96191700D02*
X91899700Y-95760900D01*
X87500100Y-104017800D02*
X86447200Y-105070700D01*
X91175000Y-95500000D02*
X91741700Y-95500000D01*
X86447200Y-105070700D02*
X86447200Y-108396300D01*
D34*
X96929300Y-97435400D02*
X96883000Y-97435400D01*
D32*
X93477300Y-93548300D02*
X93477300Y-96016800D01*
X94893200Y-95445600D02*
X94893200Y-93417100D01*
X86447200Y-108396300D02*
X85989800Y-108853700D01*
X96883000Y-97435400D02*
X94893200Y-95445600D01*
X91741700Y-95602900D02*
X91899700Y-95760900D01*
X93302400Y-96191700D02*
X92330500Y-96191700D01*
X91741700Y-95500000D02*
X91741700Y-95602900D01*
D34*
X97371900Y-97878000D02*
X96929300Y-97435400D01*
D32*
X94440900Y-92964800D02*
X94060800Y-92964800D01*
X94893200Y-93417100D02*
X94440900Y-92964800D01*
X98050000Y-97199900D02*
X97371900Y-97878000D01*
%TO.N,SD_MODE*%
X106626000Y-108499000D02*
X112310000Y-102816000D01*
X112310000Y-102816000D02*
X112310000Y-99761900D01*
X112528000Y-94277100D02*
X114866000Y-91940000D01*
X106626000Y-110252000D02*
X106626000Y-108499000D01*
X112310000Y-99761900D02*
X112528000Y-99543000D01*
X112528000Y-99543000D02*
X112528000Y-94277100D01*
%TO.N,STEP_IN*%
X132608300Y-101087700D02*
X132215700Y-101480300D01*
X105294700Y-108113700D02*
X106195500Y-109014500D01*
X133175000Y-100000000D02*
X132608300Y-100000000D01*
X132608300Y-100000000D02*
X132608300Y-101087700D01*
X97728200Y-106083000D02*
X99758900Y-108113700D01*
X99758900Y-108113700D02*
X105294700Y-108113700D01*
%TO.N,SWDIO*%
X83000000Y-133000000D02*
X82174200Y-132174000D01*
%TO.N,SWCLK*%
X80000000Y-130000000D02*
X80000000Y-129558000D01*
X80000000Y-129558000D02*
X77112200Y-126670000D01*
%TO.N,OUT0_DRIVE*%
X118188000Y-127000000D02*
X118188000Y-127643000D01*
X118825000Y-127000000D02*
X118188000Y-127000000D01*
X118188000Y-127643000D02*
X118061000Y-127770000D01*
%TO.N,OUT1_DRIVE*%
X127825000Y-127000000D02*
X127825000Y-124786000D01*
X127825000Y-124786000D02*
X126128000Y-123089000D01*
%TO.N,MOTOR_PG*%
X98989700Y-82451400D02*
X97225500Y-84215600D01*
X97225500Y-84215600D02*
X97225500Y-93617800D01*
X97225500Y-93617800D02*
X97524300Y-93916600D01*
%TO.N,POWER_PERMIT*%
X76917700Y-112123200D02*
X76496300Y-111701800D01*
D34*
X76942900Y-108932500D02*
X76997000Y-108878400D01*
D32*
X76496300Y-111701800D02*
X76496300Y-109379100D01*
X76496300Y-109379100D02*
X76942900Y-108932500D01*
X78059700Y-107436100D02*
X78059700Y-105108000D01*
D34*
X76997000Y-108878400D02*
X76997000Y-108498800D01*
D32*
X76997000Y-108498800D02*
X78059700Y-107436100D01*
%TO.N,PD_SCL*%
X76829200Y-113454600D02*
X75957000Y-112582400D01*
X75957000Y-108770600D02*
X77166200Y-107561400D01*
X77166200Y-107561400D02*
X77166200Y-103886900D01*
X79175000Y-69000000D02*
X79175000Y-69940500D01*
X75957000Y-112582400D02*
X75957000Y-108770600D01*
X79175000Y-69940500D02*
X78911200Y-70204300D01*
%TO.N,V3V3_PD*%
X75771400Y-91396400D02*
X73045300Y-91396400D01*
X85912500Y-88000000D02*
X86661700Y-88000000D01*
X82800100Y-85474700D02*
X88752700Y-85474700D01*
X72500000Y-95100000D02*
X72500000Y-95850000D01*
X86661700Y-88187300D02*
X86661700Y-88000000D01*
X80836700Y-88000000D02*
X80836700Y-87438100D01*
X89912500Y-86634500D02*
X89912500Y-88000000D01*
X82397000Y-93000000D02*
X83870700Y-93000000D01*
X72451700Y-96233600D02*
X72451700Y-91990000D01*
X80836700Y-87438100D02*
X82800100Y-85474700D01*
X89163300Y-88561900D02*
X88788500Y-88936700D01*
X74149999Y-97800000D02*
X73699999Y-97350000D01*
X85912500Y-88000000D02*
X85163300Y-88000000D01*
X72451700Y-91990000D02*
X71461700Y-91000000D01*
X72500000Y-95850000D02*
X72451700Y-96233600D01*
X89912500Y-88000000D02*
X89163300Y-88000000D01*
X88788500Y-88936700D02*
X87411100Y-88936700D01*
X72800000Y-94800000D02*
X72500000Y-95100000D01*
X71685300Y-97000000D02*
X72451700Y-96233600D01*
X80087500Y-88000000D02*
X77683400Y-88000000D01*
X88752700Y-85474700D02*
X89912500Y-86634500D01*
X73699999Y-97350000D02*
X73699999Y-95100000D01*
X83870700Y-93000000D02*
X85163300Y-91707400D01*
X70825000Y-91000000D02*
X71461700Y-91000000D01*
X77683400Y-88000000D02*
X76270000Y-89413400D01*
X80087500Y-88000000D02*
X80836700Y-88000000D01*
X73045300Y-91396400D02*
X72451700Y-91990000D01*
X89163300Y-88000000D02*
X89163300Y-88561900D01*
X73399999Y-94800000D02*
X72800000Y-94800000D01*
X87411100Y-88936700D02*
X86661700Y-88187300D01*
X85163300Y-91707400D02*
X85163300Y-88000000D01*
X73699999Y-95100000D02*
X73399999Y-94800000D01*
X76270000Y-90897800D02*
X75771400Y-91396400D01*
X76270000Y-89413400D02*
X76270000Y-90897800D01*
X70825000Y-97000000D02*
X71685300Y-97000000D01*
%TO.N,PG_DIV*%
X102143000Y-78571400D02*
X102143000Y-73093400D01*
X102143000Y-73093400D02*
X101250000Y-72200300D01*
X103542000Y-79970700D02*
X102143000Y-78571400D01*
%TO.N,MOTOR_A1*%
D35*
X119000000Y-92850000D02*
X119000000Y-91850000D01*
X119000000Y-91850000D02*
X120000000Y-91850000D01*
D32*
X112750000Y-87500000D02*
X111000000Y-87500000D01*
X111000000Y-87500000D02*
X104750000Y-93750000D01*
D35*
X120000000Y-91850000D02*
X120000000Y-92850000D01*
X120000000Y-92850000D02*
X119000000Y-92850000D01*
%TO.N,GH_A1*%
D32*
X118344000Y-85777400D02*
X115910000Y-85777400D01*
X115910000Y-85777400D02*
X113083000Y-82950900D01*
%TO.N,DIN0_BASE*%
X97692400Y-125884000D02*
X96196000Y-127380000D01*
X97692400Y-124000000D02*
X97692400Y-125884000D01*
%TO.N,REFR_DIR*%
X110538000Y-102390000D02*
X110867000Y-102061000D01*
X110867000Y-102061000D02*
X110867000Y-100178000D01*
X110867000Y-100178000D02*
X111679000Y-99366100D01*
%TO.N,TMC_5V*%
X107305000Y-98895300D02*
X107500000Y-98700000D01*
D31*
X107250000Y-98500000D02*
X107500000Y-98700000D01*
X104200000Y-99300000D02*
X102800000Y-100700000D01*
D32*
X108000000Y-101625000D02*
X108000000Y-101058000D01*
X107305000Y-100434000D02*
X107305000Y-98895300D01*
D31*
X104800000Y-98800000D02*
X104300000Y-99300000D01*
D32*
X107929000Y-101058000D02*
X107305000Y-100434000D01*
D31*
X102800000Y-100700000D02*
X102800000Y-101000000D01*
D32*
X108000000Y-101058000D02*
X107929000Y-101058000D01*
D31*
X104300000Y-99300000D02*
X104200000Y-99300000D01*
%TO.N,DATA_CC2*%
D32*
X67536100Y-97579000D02*
X67042500Y-98072600D01*
X67042500Y-98072600D02*
X67042500Y-100935000D01*
%TO.N,MOTOR_A2*%
D35*
X123500000Y-116850000D02*
X123500000Y-115850000D01*
X124500000Y-116850000D02*
X123500000Y-116850000D01*
D37*
X103912000Y-89732300D02*
X108399000Y-85246000D01*
X103660000Y-91539600D02*
X103660000Y-90110100D01*
X103660000Y-90110100D02*
X103912000Y-89857500D01*
X103912000Y-89857500D02*
X103912000Y-89732300D01*
D35*
X123500000Y-115850000D02*
X124500000Y-115850000D01*
X124500000Y-115850000D02*
X124500000Y-116850000D01*
D37*
X108399000Y-85246000D02*
X108912000Y-85246000D01*
%TO.N,PD_PATH_N*%
D32*
X85175000Y-70000000D02*
X85175000Y-79394300D01*
X81500000Y-80000000D02*
X84701400Y-79867900D01*
X85175000Y-79394300D02*
X84701400Y-79867900D01*
%TO.N,USB_DM_CONN*%
X70168400Y-98739300D02*
X73171600Y-101742500D01*
X73171600Y-101742500D02*
X73171600Y-115314400D01*
%TO.N,REFL_STEP*%
D31*
X104000000Y-107000000D02*
X106500000Y-107000000D01*
X109600000Y-103900000D02*
X110100000Y-103900000D01*
X106500000Y-107000000D02*
X109600000Y-103900000D01*
%TO.N,GH_B1_DRV*%
D32*
X105842000Y-102862000D02*
X104385000Y-101406000D01*
X106389000Y-102862000D02*
X105842000Y-102862000D01*
X106638000Y-103112000D02*
X106389000Y-102862000D01*
X104385000Y-101406000D02*
X104385000Y-99736300D01*
%TO.N,BOOT_B2*%
X106750000Y-102500000D02*
X108250000Y-104000000D01*
X106750000Y-97250000D02*
X106750000Y-102500000D01*
X104750000Y-95250000D02*
X106750000Y-97250000D01*
%TO.N,BRAKE_RETURN*%
D35*
X108500000Y-66850000D02*
X107500000Y-66850000D01*
X107500000Y-66850000D02*
X107500000Y-65850000D01*
X107500000Y-65850000D02*
X108500000Y-65850000D01*
X108500000Y-65850000D02*
X108500000Y-66850000D01*
%TO.N,EFUSE_IN*%
X91500000Y-66850000D02*
X91500000Y-65850000D01*
X92500000Y-66850000D02*
X91500000Y-66850000D01*
X91500000Y-65850000D02*
X92500000Y-65850000D01*
X92500000Y-65850000D02*
X92500000Y-66850000D01*
%TO.N,ILIM_SET*%
D31*
X103700000Y-74200000D02*
X105900000Y-74200000D01*
%TO.N,STEP_IN_BASE*%
X135600000Y-119500000D02*
X135600000Y-107700000D01*
X135600000Y-107700000D02*
X135800000Y-107500000D01*
D32*
X134825000Y-103000000D02*
X134825000Y-106000000D01*
D31*
X136404000Y-121000000D02*
X135900000Y-119800000D01*
X136700000Y-105300000D02*
X137500000Y-105300000D01*
D32*
X135692000Y-121000000D02*
X135692000Y-127080000D01*
D31*
X135800000Y-107500000D02*
X135800000Y-107200000D01*
X135900000Y-119800000D02*
X135600000Y-119500000D01*
D32*
X135692000Y-121000000D02*
X136404000Y-121000000D01*
X134825000Y-106000000D02*
X135462000Y-106000000D01*
D31*
X135800000Y-107200000D02*
X135462000Y-106000000D01*
X137500000Y-105300000D02*
X138825000Y-106000000D01*
X135462000Y-106000000D02*
X136700000Y-105300000D01*
%TO.N,DIR_IN_BASE*%
D32*
X134825000Y-97000000D02*
X135462000Y-97000000D01*
X139692000Y-92769300D02*
X139692000Y-85000000D01*
X130825000Y-118000000D02*
X130825000Y-117288000D01*
X135462000Y-97000000D02*
X139692000Y-92769300D01*
X130906000Y-117208000D02*
X130906000Y-112235000D01*
X130825000Y-117288000D02*
X130906000Y-117208000D01*
X134800000Y-97959600D02*
X134825000Y-97934500D01*
X134825000Y-97934500D02*
X134825000Y-97000000D01*
%TO.N,ENC_I*%
X97576700Y-133074000D02*
X97000000Y-133651000D01*
X97000000Y-133651000D02*
X97000000Y-134000000D01*
X98050000Y-103891000D02*
X98129300Y-103970000D01*
X98050000Y-102800000D02*
X98050000Y-103891000D01*
%TO.N,BUCK_BOOT*%
X71612700Y-94849000D02*
X71461700Y-95000000D01*
X71695000Y-94849000D02*
X71612700Y-94849000D01*
X75644500Y-90144400D02*
X75644500Y-88801600D01*
X70825000Y-95000000D02*
X71461700Y-95000000D01*
X75635000Y-90153900D02*
X75644500Y-90144400D01*
%TO.N,BUCK_SW*%
X69175000Y-95000000D02*
X69811700Y-95000000D01*
X87603000Y-93000000D02*
X86129300Y-93000000D01*
X69811700Y-95000000D02*
X69811700Y-92060100D01*
X86129300Y-93939200D02*
X85860100Y-94208400D01*
X76905000Y-90309200D02*
X76905000Y-90153900D01*
X69811700Y-92060100D02*
X69796000Y-92044400D01*
X77663800Y-91068000D02*
X76905000Y-90309200D01*
X86129300Y-93000000D02*
X86129300Y-93939200D01*
%TO.N,ENC_B*%
X96767400Y-131232600D02*
X96767400Y-131214500D01*
X94000000Y-134000000D02*
X96767400Y-131232600D01*
X101904200Y-100193100D02*
X101300000Y-99588900D01*
X101300000Y-99588900D02*
X101300000Y-97199900D01*
%TO.N,ENC_A*%
X101950000Y-97199900D02*
X101950000Y-96183200D01*
X91174500Y-134174000D02*
X91174500Y-135217000D01*
X100906000Y-96183200D02*
X101950000Y-96183200D01*
X100521000Y-95798100D02*
X100906000Y-96183200D01*
X91000000Y-134000000D02*
X91174500Y-134174000D01*
%TO.N,OUT1_BASE*%
X129453000Y-129446000D02*
X127794000Y-129446000D01*
X130188000Y-128711000D02*
X129453000Y-129446000D01*
X126000000Y-131950000D02*
X126000000Y-131363000D01*
X130188000Y-128500000D02*
X130188000Y-128711000D01*
X127424000Y-129940000D02*
X126000000Y-131363000D01*
X129662000Y-127735000D02*
X130188000Y-128261000D01*
X126812000Y-127000000D02*
X126812000Y-127246000D01*
X126812000Y-127246000D02*
X127300000Y-127735000D01*
X130188000Y-128261000D02*
X130188000Y-128500000D01*
X127300000Y-127735000D02*
X129662000Y-127735000D01*
X130825000Y-128500000D02*
X130188000Y-128500000D01*
X126175000Y-127000000D02*
X126812000Y-127000000D01*
X127794000Y-129446000D02*
X127424000Y-129816000D01*
X127424000Y-129816000D02*
X127424000Y-129940000D01*
%TO.N,OUT0_BASE*%
X122188000Y-131000000D02*
X122188000Y-131239000D01*
X116138000Y-130502000D02*
X116138000Y-127400000D01*
X116138000Y-127400000D02*
X116538000Y-127000000D01*
X121477000Y-131950000D02*
X117000000Y-131950000D01*
X122188000Y-131239000D02*
X121477000Y-131950000D01*
X122825000Y-131000000D02*
X122188000Y-131000000D01*
X117000000Y-131363000D02*
X116138000Y-130502000D01*
X117000000Y-131950000D02*
X117000000Y-131363000D01*
X117175000Y-127000000D02*
X116538000Y-127000000D01*
%TO.N,BUCK_FB*%
X70157700Y-92441900D02*
X70157700Y-95542500D01*
X69550400Y-91000000D02*
X69811700Y-91000000D01*
X70850100Y-96234900D02*
X71593200Y-96234900D01*
X69550400Y-91000000D02*
X70333600Y-91783200D01*
X69811700Y-90761200D02*
X70419000Y-90153900D01*
X70333600Y-92266000D02*
X70157700Y-92441900D01*
X81825000Y-99456000D02*
X81825000Y-98500000D01*
X69811700Y-91000000D02*
X69811700Y-90761200D01*
X70333600Y-91783200D02*
X70333600Y-92266000D01*
X69175000Y-91000000D02*
X69550400Y-91000000D01*
X70157700Y-95542500D02*
X70850100Y-96234900D01*
X70419000Y-90153900D02*
X73095000Y-90153900D01*
%TO.N,LOGIC_PG*%
X73095000Y-96050500D02*
X73095000Y-95846100D01*
X71402000Y-97743500D02*
X73095000Y-96050500D01*
X69811700Y-97000000D02*
X69811700Y-97238800D01*
X69175000Y-97000000D02*
X69811700Y-97000000D01*
X70316400Y-97743500D02*
X71402000Y-97743500D01*
X69811700Y-97238800D02*
X70316400Y-97743500D01*
%TO.N,BUCK_VCC*%
X70825000Y-93000000D02*
X71461700Y-93000000D01*
X74008800Y-88852800D02*
X74365000Y-89209000D01*
X71461700Y-92949300D02*
X71703700Y-92707300D01*
X71461700Y-93000000D02*
X71461700Y-92949300D01*
X74365000Y-89209000D02*
X74365000Y-90153900D01*
%TD*%
%TA.AperFunction,Conductor*%
%TO.N,PD_VBUS*%
G36*
X78304944Y-92239500D02*
G01*
X78109185Y-92239500D01*
X78062377Y-92248812D01*
X78062374Y-92248813D01*
X78009287Y-92284284D01*
X78009286Y-92284285D01*
X77999789Y-92298500D01*
X77951740Y-92336380D01*
X77917472Y-92342500D01*
X77899000Y-92342500D01*
X77840809Y-92323593D01*
X77804845Y-92274093D01*
X77800000Y-92243500D01*
X77800000Y-91734557D01*
X77800000Y-91734556D01*
X78304944Y-92239500D01*
G37*
%TD.AperFunction*%
%TA.AperFunction,Conductor*%
G36*
X79502394Y-88849795D02*
G01*
X79503364Y-88847454D01*
X79512372Y-88851184D01*
X79512376Y-88851187D01*
X79531203Y-88854932D01*
X79559186Y-88860499D01*
X79559192Y-88860499D01*
X79559194Y-88860500D01*
X79559195Y-88860500D01*
X80101000Y-88860500D01*
X80159191Y-88879407D01*
X80195155Y-88928907D01*
X80200000Y-88959500D01*
X80200000Y-90589245D01*
X80186218Y-90631661D01*
X79000000Y-89445443D01*
X77826980Y-90618461D01*
X77808559Y-90598002D01*
X77800000Y-90557736D01*
X77800000Y-88936499D01*
X77818907Y-88878308D01*
X77868407Y-88842344D01*
X77899000Y-88837499D01*
X79461859Y-88837499D01*
X79502394Y-88849795D01*
G37*
%TD.AperFunction*%
%TD*%
%TA.AperFunction,Conductor*%
%TO.N,VMOTOR*%
G36*
X94950065Y-80660987D02*
G01*
X94828009Y-80783042D01*
X94823012Y-80778045D01*
X94795235Y-80723530D01*
X94804806Y-80663098D01*
X94823006Y-80638045D01*
X94950065Y-80510986D01*
X94950065Y-80660987D01*
G37*
%TD.AperFunction*%
%TA.AperFunction,Conductor*%
G36*
X98100066Y-80755097D02*
G01*
X98100066Y-80708043D01*
X98147120Y-80708043D01*
X98100066Y-80755097D01*
G37*
%TD.AperFunction*%
%TA.AperFunction,Conductor*%
G36*
X98253865Y-80520158D02*
G01*
X98258664Y-80581155D01*
X98253865Y-80595926D01*
X98250066Y-80605095D01*
X98250066Y-80510986D01*
X98253865Y-80520158D01*
G37*
%TD.AperFunction*%
%TD*%
%TA.AperFunction,Conductor*%
%TO.N,MOTOR_A1*%
G36*
X121159191Y-90668906D02*
G01*
X121195155Y-90718406D01*
X121200000Y-90748999D01*
X121200000Y-91649999D01*
X118800000Y-91649999D01*
X118800000Y-90649999D01*
X121101000Y-90649999D01*
X121159191Y-90668906D01*
G37*
%TD.AperFunction*%
%TD*%
%TA.AperFunction,Conductor*%
%TO.N,MOTOR_B1*%
G36*
X115300000Y-117050000D02*
G01*
X114399000Y-117050000D01*
X114340809Y-117031093D01*
X114304845Y-116981593D01*
X114300000Y-116951000D01*
X114300000Y-114649999D01*
X115300000Y-114649999D01*
X115300000Y-117050000D01*
G37*
%TD.AperFunction*%
%TD*%
%TA.AperFunction,Conductor*%
%TO.N,VMOTOR*%
G36*
X99900066Y-76855094D02*
G01*
X99900066Y-77009042D01*
X99881159Y-77067233D01*
X99831659Y-77103197D01*
X99801066Y-77108042D01*
X97500066Y-77108042D01*
X97500066Y-74657043D01*
X97518973Y-74598852D01*
X97568473Y-74562888D01*
X97599066Y-74558043D01*
X97603008Y-74558043D01*
X99900066Y-74558043D01*
X99900066Y-76855094D01*
G37*
%TD.AperFunction*%
%TD*%
%TA.AperFunction,Conductor*%
%TO.N,VMOTOR*%
G36*
X97950066Y-81205093D02*
G01*
X97950066Y-81359043D01*
X97931159Y-81417234D01*
X97881659Y-81453198D01*
X97851066Y-81458043D01*
X97847122Y-81458043D01*
X97472121Y-81083042D01*
X97950066Y-80605097D01*
X97950066Y-81205093D01*
G37*
%TD.AperFunction*%
%TA.AperFunction,Conductor*%
G36*
X95578008Y-79583042D02*
G01*
X95550066Y-79610985D01*
X95550066Y-79555099D01*
X95578008Y-79583042D01*
G37*
%TD.AperFunction*%
%TA.AperFunction,Conductor*%
G36*
X95550066Y-79160984D02*
G01*
X95550066Y-79007042D01*
X95568973Y-78948851D01*
X95618473Y-78912887D01*
X95649066Y-78908042D01*
X95700064Y-78908042D01*
X95803009Y-78908042D01*
X95550066Y-79160984D01*
G37*
%TD.AperFunction*%
%TD*%
%TA.AperFunction,Conductor*%
%TO.N,VMOTOR*%
G36*
X133659190Y-105668906D02*
G01*
X133695154Y-105718406D01*
X133699999Y-105748999D01*
X133699999Y-108951000D01*
X133681092Y-109009191D01*
X133631592Y-109045155D01*
X133600999Y-109050000D01*
X132642500Y-109050000D01*
X132584309Y-109031093D01*
X132548345Y-108981593D01*
X132545173Y-108961568D01*
X132543500Y-108953158D01*
X132543500Y-108953156D01*
X132534263Y-108930857D01*
X132529457Y-108907202D01*
X132516509Y-108887996D01*
X132507647Y-108866600D01*
X132490579Y-108849532D01*
X132477087Y-108829518D01*
X132457776Y-108816729D01*
X132441400Y-108800353D01*
X132419099Y-108791115D01*
X132402956Y-108780424D01*
X132402954Y-108780422D01*
X131300000Y-108049988D01*
X131300000Y-105933046D01*
X131554052Y-105678993D01*
X131608567Y-105651218D01*
X131624054Y-105649999D01*
X133600999Y-105649999D01*
X133659190Y-105668906D01*
G37*
%TD.AperFunction*%
%TD*%
%TA.AperFunction,Conductor*%
%TO.N,VMOTOR*%
G36*
X125659191Y-105668906D02*
G01*
X125695155Y-105718406D01*
X125700000Y-105748999D01*
X125700000Y-106649999D01*
X123300000Y-106649999D01*
X123300000Y-105649999D01*
X125601000Y-105649999D01*
X125659191Y-105668906D01*
G37*
%TD.AperFunction*%
%TD*%
%TA.AperFunction,Conductor*%
%TO.N,MOTOR_A2*%
G36*
X110071191Y-84064906D02*
G01*
X110107155Y-84114406D01*
X110112000Y-84144999D01*
X110112000Y-84550670D01*
X110093093Y-84608861D01*
X110043593Y-84644825D01*
X109982407Y-84644825D01*
X109972829Y-84640561D01*
X109972745Y-84640766D01*
X109966752Y-84638283D01*
X109918603Y-84625382D01*
X109849626Y-84606900D01*
X109728374Y-84606900D01*
X109659397Y-84625382D01*
X109611248Y-84638283D01*
X109506250Y-84698904D01*
X109420504Y-84784650D01*
X109359883Y-84889648D01*
X109359882Y-84889653D01*
X109328500Y-85006774D01*
X109328500Y-85128026D01*
X109356175Y-85231315D01*
X109359883Y-85245151D01*
X109420504Y-85350149D01*
X109420506Y-85350151D01*
X109420508Y-85350154D01*
X109506246Y-85435892D01*
X109506248Y-85435893D01*
X109506250Y-85435895D01*
X109611249Y-85496516D01*
X109611247Y-85496516D01*
X109611251Y-85496517D01*
X109611253Y-85496518D01*
X109728374Y-85527900D01*
X109728376Y-85527900D01*
X109849624Y-85527900D01*
X109849626Y-85527900D01*
X109966747Y-85496518D01*
X109966749Y-85496516D01*
X109966752Y-85496516D01*
X109972745Y-85494034D01*
X109973657Y-85496237D01*
X110023332Y-85485670D01*
X110079232Y-85510547D01*
X110109833Y-85563530D01*
X110112000Y-85584129D01*
X110112000Y-86347000D01*
X110093093Y-86405191D01*
X110043593Y-86441155D01*
X110013000Y-86446000D01*
X107199000Y-86446000D01*
X107199000Y-84144999D01*
X107217907Y-84086808D01*
X107267407Y-84050844D01*
X107298000Y-84045999D01*
X107901997Y-84045999D01*
X108896110Y-84045999D01*
X108896111Y-84045999D01*
X110013000Y-84045999D01*
X110071191Y-84064906D01*
G37*
%TD.AperFunction*%
%TD*%
%TA.AperFunction,Conductor*%
%TO.N,MOTOR_A1*%
G36*
X111021315Y-85850997D02*
G01*
X111075830Y-85878774D01*
X111284661Y-86087604D01*
X112627052Y-87429996D01*
X112654829Y-87484512D01*
X112645258Y-87544944D01*
X112627052Y-87570003D01*
X111510980Y-88686076D01*
X111510979Y-88686076D01*
X110816504Y-89380548D01*
X110791452Y-89398751D01*
X110781301Y-89403924D01*
X110720869Y-89413499D01*
X110666351Y-89385725D01*
X110666346Y-89385721D01*
X110664495Y-89383870D01*
X110639951Y-89343221D01*
X110639726Y-89342495D01*
X110636026Y-89330579D01*
X110634947Y-89326846D01*
X110606027Y-89218911D01*
X110604538Y-89216515D01*
X110546963Y-89116793D01*
X110545786Y-89114605D01*
X110545600Y-89114355D01*
X110545493Y-89114248D01*
X110545492Y-89114246D01*
X110459754Y-89028508D01*
X110459751Y-89028506D01*
X110459749Y-89028504D01*
X110412038Y-89000958D01*
X110391003Y-88977596D01*
X110309310Y-88955705D01*
X110309310Y-88955706D01*
X110237627Y-88936500D01*
X110237626Y-88936500D01*
X110116374Y-88936500D01*
X110116372Y-88936500D01*
X110044689Y-88955706D01*
X110044688Y-88955705D01*
X109999250Y-88967881D01*
X109999244Y-88967884D01*
X109894254Y-89028500D01*
X109808503Y-89114251D01*
X109747881Y-89219251D01*
X109730614Y-89283699D01*
X109716500Y-89336374D01*
X109716500Y-89457625D01*
X109734690Y-89525516D01*
X109734691Y-89525516D01*
X109734691Y-89525517D01*
X109747883Y-89574751D01*
X109747884Y-89574753D01*
X109747885Y-89574756D01*
X109808502Y-89679747D01*
X109808504Y-89679749D01*
X109808506Y-89679751D01*
X109808508Y-89679754D01*
X109894246Y-89765492D01*
X109894248Y-89765493D01*
X109894355Y-89765600D01*
X109894606Y-89765786D01*
X109896799Y-89766967D01*
X109999249Y-89826116D01*
X109999247Y-89826116D01*
X109999251Y-89826117D01*
X109999253Y-89826118D01*
X110109479Y-89855652D01*
X110114213Y-89857457D01*
X110115210Y-89858260D01*
X110121566Y-89860605D01*
X110122180Y-89860897D01*
X110122180Y-89860899D01*
X110138986Y-89868913D01*
X110183370Y-89911026D01*
X110194524Y-89971186D01*
X110194521Y-89971211D01*
X110194179Y-89973805D01*
X110176903Y-90017963D01*
X110176538Y-90018480D01*
X110165667Y-90031386D01*
X105202206Y-94994848D01*
X105177149Y-95013053D01*
X105165266Y-95019108D01*
X105104834Y-95028680D01*
X105104831Y-95028680D01*
X105099797Y-95027882D01*
X105045285Y-95000106D01*
X104986703Y-94941525D01*
X104986701Y-94941523D01*
X104986695Y-94941519D01*
X104986691Y-94941517D01*
X104898802Y-94890774D01*
X104898801Y-94890773D01*
X104898800Y-94890773D01*
X104898796Y-94890771D01*
X104878065Y-94885216D01*
X104800756Y-94864500D01*
X104800754Y-94864500D01*
X104800752Y-94864500D01*
X104699248Y-94864500D01*
X104699245Y-94864500D01*
X104699242Y-94864500D01*
X104601210Y-94890769D01*
X104601203Y-94890771D01*
X104601199Y-94890773D01*
X104582624Y-94901497D01*
X104513297Y-94941523D01*
X104513296Y-94941524D01*
X104459970Y-94994849D01*
X104434912Y-95013054D01*
X104423030Y-95019108D01*
X104362602Y-95028680D01*
X104357569Y-95027883D01*
X104303051Y-95000107D01*
X103134033Y-93831089D01*
X103115830Y-93806034D01*
X103109772Y-93794145D01*
X103100201Y-93733717D01*
X103100999Y-93728680D01*
X103128773Y-93674168D01*
X103868846Y-92934096D01*
X103923363Y-92906319D01*
X103938850Y-92905100D01*
X104760994Y-92905100D01*
X104761000Y-92905100D01*
X104786888Y-92903063D01*
X104817481Y-92898218D01*
X104888872Y-92868647D01*
X104938372Y-92832683D01*
X104956697Y-92817222D01*
X104998493Y-92749932D01*
X105017400Y-92691741D01*
X105025500Y-92640600D01*
X105025500Y-91818450D01*
X105044407Y-91760259D01*
X105054496Y-91748446D01*
X106850403Y-89952539D01*
X107339500Y-89952539D01*
X107339500Y-90047461D01*
X107356415Y-90110588D01*
X107364067Y-90139150D01*
X107364070Y-90139156D01*
X107411522Y-90221345D01*
X107411524Y-90221347D01*
X107411526Y-90221349D01*
X107411528Y-90221352D01*
X107478648Y-90288472D01*
X107478650Y-90288473D01*
X107478757Y-90288580D01*
X107479008Y-90288767D01*
X107481203Y-90289948D01*
X107504078Y-90303155D01*
X107525672Y-90327137D01*
X107559998Y-90335719D01*
X107561571Y-90336125D01*
X107652539Y-90360500D01*
X107652541Y-90360500D01*
X107747459Y-90360500D01*
X107747461Y-90360500D01*
X107839148Y-90335933D01*
X107839150Y-90335931D01*
X107839152Y-90335931D01*
X107915212Y-90292017D01*
X107918104Y-90290612D01*
X107918893Y-90290093D01*
X107923898Y-90287002D01*
X107925197Y-90286251D01*
X107930557Y-90279266D01*
X107988472Y-90221352D01*
X108021831Y-90163573D01*
X108035931Y-90139152D01*
X108035931Y-90139150D01*
X108035933Y-90139148D01*
X108060500Y-90047461D01*
X108060500Y-89952539D01*
X108035933Y-89860852D01*
X108035842Y-89860511D01*
X108034358Y-89858122D01*
X107989943Y-89781195D01*
X107988766Y-89779007D01*
X107988580Y-89778757D01*
X107988473Y-89778650D01*
X107988472Y-89778648D01*
X107921352Y-89711528D01*
X107921349Y-89711526D01*
X107921347Y-89711524D01*
X107921346Y-89711523D01*
X107896440Y-89697144D01*
X107875402Y-89673780D01*
X107803577Y-89654536D01*
X107803576Y-89654535D01*
X107762496Y-89643528D01*
X107747461Y-89639500D01*
X107747460Y-89639500D01*
X107652540Y-89639500D01*
X107652539Y-89639500D01*
X107637504Y-89643528D01*
X107596423Y-89654535D01*
X107596422Y-89654536D01*
X107560847Y-89664068D01*
X107560844Y-89664069D01*
X107560842Y-89664070D01*
X107478654Y-89711522D01*
X107411520Y-89778656D01*
X107364067Y-89860847D01*
X107363789Y-89861583D01*
X107363613Y-89862337D01*
X107363622Y-89862463D01*
X107363415Y-89863282D01*
X107339500Y-89952539D01*
X106850403Y-89952539D01*
X106926896Y-89876046D01*
X107417218Y-89385725D01*
X109800000Y-87002943D01*
X110126544Y-86676397D01*
X110181061Y-86648620D01*
X110241493Y-86658191D01*
X110282284Y-86696900D01*
X110306503Y-86738848D01*
X110306504Y-86738849D01*
X110306506Y-86738851D01*
X110306508Y-86738854D01*
X110392246Y-86824592D01*
X110392248Y-86824593D01*
X110392355Y-86824700D01*
X110392606Y-86824886D01*
X110394799Y-86826067D01*
X110431744Y-86847396D01*
X110440479Y-86852440D01*
X110462073Y-86876423D01*
X110496398Y-86885004D01*
X110498010Y-86885421D01*
X110514537Y-86889849D01*
X110614374Y-86916600D01*
X110614376Y-86916600D01*
X110735624Y-86916600D01*
X110735626Y-86916600D01*
X110852747Y-86885218D01*
X110852749Y-86885216D01*
X110852751Y-86885216D01*
X110951619Y-86828134D01*
X110954507Y-86826731D01*
X110955293Y-86826214D01*
X110960302Y-86823120D01*
X110961601Y-86822369D01*
X110966959Y-86815386D01*
X111043492Y-86738854D01*
X111043495Y-86738849D01*
X111104116Y-86633851D01*
X111104116Y-86633849D01*
X111104118Y-86633847D01*
X111135500Y-86516726D01*
X111135500Y-86395474D01*
X111116276Y-86323729D01*
X111104027Y-86278011D01*
X111102538Y-86275615D01*
X111044963Y-86175893D01*
X111043786Y-86173705D01*
X111043600Y-86173455D01*
X111043493Y-86173348D01*
X111043492Y-86173346D01*
X110957754Y-86087608D01*
X110957751Y-86087606D01*
X110957749Y-86087604D01*
X110929376Y-86071223D01*
X110905306Y-86051731D01*
X110897072Y-86042586D01*
X110872188Y-85986690D01*
X110883640Y-85929112D01*
X110888442Y-85920266D01*
X110905439Y-85897502D01*
X110918914Y-85884027D01*
X110943969Y-85865825D01*
X110955852Y-85859770D01*
X111016280Y-85850200D01*
X111021315Y-85850997D01*
G37*
%TD.AperFunction*%
%TD*%
%TA.AperFunction,Conductor*%
%TO.N,PD_VBUS*%
G36*
X80186218Y-90631661D02*
G01*
X80181093Y-90647436D01*
X80171004Y-90659249D01*
X78866600Y-91963653D01*
X78866599Y-91963652D01*
X78800352Y-92029900D01*
X78764500Y-92116456D01*
X78764500Y-92140500D01*
X78745593Y-92198691D01*
X78696093Y-92234655D01*
X78665500Y-92239500D01*
X78304944Y-92239500D01*
X77800000Y-91734556D01*
X77742766Y-91677322D01*
X77714990Y-91622807D01*
X77724561Y-91562375D01*
X77767826Y-91519110D01*
X77787143Y-91511695D01*
X77841547Y-91497118D01*
X77946554Y-91436492D01*
X78032292Y-91350754D01*
X78092918Y-91245747D01*
X78124300Y-91128626D01*
X78124300Y-91007374D01*
X78092918Y-90890253D01*
X78092916Y-90890250D01*
X78092916Y-90890248D01*
X78032295Y-90785250D01*
X78032293Y-90785248D01*
X78032292Y-90785246D01*
X77946554Y-90699508D01*
X77946551Y-90699506D01*
X77849499Y-90643472D01*
X77826980Y-90618462D01*
X79000000Y-89445443D01*
X80186218Y-90631661D01*
G37*
%TD.AperFunction*%
%TD*%
%TA.AperFunction,Conductor*%
%TO.N,VMOTOR*%
G36*
X95353010Y-82658043D02*
G01*
X95049065Y-82658043D01*
X94990874Y-82639136D01*
X94954910Y-82589636D01*
X94950065Y-82559043D01*
X94950065Y-82255098D01*
X95353010Y-82658043D01*
G37*
%TD.AperFunction*%
%TA.AperFunction,Conductor*%
G36*
X97350066Y-82358043D02*
G01*
X97350066Y-82559043D01*
X97331159Y-82617234D01*
X97281659Y-82653198D01*
X97251066Y-82658043D01*
X96647122Y-82658043D01*
X96947123Y-82358042D01*
X97350066Y-82358042D01*
X97350066Y-82358043D01*
G37*
%TD.AperFunction*%
%TA.AperFunction,Conductor*%
G36*
X95100066Y-80155100D02*
G01*
X95100066Y-80810985D01*
X94950065Y-80960986D01*
X94950065Y-80207043D01*
X94968972Y-80148852D01*
X95018472Y-80112888D01*
X95049065Y-80108043D01*
X95053008Y-80108043D01*
X95053009Y-80108043D01*
X95100066Y-80155100D01*
G37*
%TD.AperFunction*%
%TD*%
%TA.AperFunction,Conductor*%
%TO.N,MOTOR_B2*%
G36*
X132699999Y-115649999D02*
G01*
X131141500Y-115649999D01*
X131141500Y-114748999D01*
X131160407Y-114690808D01*
X131209907Y-114654844D01*
X131240500Y-114649999D01*
X132699999Y-114649999D01*
X132699999Y-115649999D01*
G37*
%TD.AperFunction*%
%TD*%
%TA.AperFunction,Conductor*%
%TO.N,VMOTOR*%
G36*
X98677121Y-79438047D02*
G01*
X98704896Y-79492559D01*
X98695325Y-79552991D01*
X98677118Y-79578050D01*
X98447123Y-79808043D01*
X98372121Y-79733041D01*
X98672118Y-79433044D01*
X98672118Y-79433043D01*
X98677121Y-79438047D01*
G37*
%TD.AperFunction*%
%TA.AperFunction,Conductor*%
G36*
X95250066Y-79705093D02*
G01*
X95246267Y-79695922D01*
X95241466Y-79634925D01*
X95246267Y-79620150D01*
X95250065Y-79610980D01*
X95250066Y-79610979D01*
X95250066Y-79705093D01*
G37*
%TD.AperFunction*%
%TA.AperFunction,Conductor*%
G36*
X95400066Y-79508043D02*
G01*
X95353003Y-79508043D01*
X95400066Y-79460980D01*
X95400066Y-79508043D01*
G37*
%TD.AperFunction*%
%TD*%
%TA.AperFunction,Conductor*%
%TO.N,VMOTOR*%
G36*
X99450066Y-79259042D02*
G01*
X99431159Y-79317233D01*
X99381659Y-79353197D01*
X99351066Y-79358042D01*
X98747122Y-79358042D01*
X99450066Y-78655097D01*
X99450066Y-79259042D01*
G37*
%TD.AperFunction*%
%TA.AperFunction,Conductor*%
G36*
X99383601Y-78445327D02*
G01*
X99383597Y-78445326D01*
X99383599Y-78445326D01*
X99383601Y-78445327D01*
G37*
%TD.AperFunction*%
%TA.AperFunction,Conductor*%
G36*
X97200065Y-77455098D02*
G01*
X97200065Y-77510985D01*
X97050066Y-77660984D01*
X97050066Y-77305101D01*
X97200065Y-77455098D01*
G37*
%TD.AperFunction*%
%TA.AperFunction,Conductor*%
G36*
X97200065Y-76160987D02*
G01*
X97050066Y-76310987D01*
X97050066Y-75707043D01*
X97068973Y-75648852D01*
X97118473Y-75612888D01*
X97149066Y-75608043D01*
X97153009Y-75608043D01*
X97200065Y-75608043D01*
X97200065Y-76160987D01*
G37*
%TD.AperFunction*%
%TD*%
%TA.AperFunction,Conductor*%
%TO.N,PD_VBUS*%
G36*
X77358101Y-96730026D02*
G01*
X77390753Y-96769034D01*
X77845962Y-97743292D01*
X77853464Y-97804016D01*
X77823842Y-97857552D01*
X77768409Y-97883453D01*
X77756269Y-97884200D01*
X77695145Y-97884200D01*
X77597103Y-97910471D01*
X77597099Y-97910473D01*
X77509200Y-97961222D01*
X77437422Y-98033000D01*
X77386673Y-98120899D01*
X77386671Y-98120903D01*
X77360400Y-98218945D01*
X77360400Y-98320454D01*
X77386671Y-98418496D01*
X77386673Y-98418500D01*
X77437422Y-98506399D01*
X77437424Y-98506402D01*
X77509198Y-98578176D01*
X77509200Y-98578177D01*
X77597099Y-98628926D01*
X77597103Y-98628928D01*
X77695145Y-98655199D01*
X77695147Y-98655200D01*
X77695148Y-98655200D01*
X77796653Y-98655200D01*
X77796653Y-98655199D01*
X77827929Y-98646819D01*
X77839876Y-98643618D01*
X77900977Y-98646819D01*
X77948528Y-98685324D01*
X77964500Y-98739244D01*
X77964500Y-98990814D01*
X77973812Y-99037622D01*
X77973813Y-99037625D01*
X78009284Y-99090712D01*
X78009287Y-99090715D01*
X78042699Y-99113040D01*
X78080579Y-99161090D01*
X78082981Y-99222228D01*
X78048989Y-99273102D01*
X78029606Y-99285049D01*
X76385482Y-100053245D01*
X76324758Y-100060747D01*
X76271222Y-100031125D01*
X76253881Y-100005460D01*
X74944807Y-97203724D01*
X74935500Y-97161816D01*
X74935500Y-97139375D01*
X74935500Y-97139374D01*
X74910508Y-97046100D01*
X76835000Y-97046100D01*
X76835000Y-96854292D01*
X76856170Y-96856569D01*
X76856173Y-96856569D01*
X76953827Y-96856569D01*
X76953830Y-96856569D01*
X77014631Y-96850032D01*
X77064296Y-96831508D01*
X77152171Y-96798733D01*
X77152171Y-96798732D01*
X77152173Y-96798732D01*
X77241731Y-96731688D01*
X77299646Y-96711952D01*
X77358101Y-96730026D01*
G37*
%TD.AperFunction*%
%TD*%
%TA.AperFunction,Conductor*%
%TO.N,BRAKE_RETURN*%
G36*
X107300000Y-67050000D02*
G01*
X106300000Y-67050000D01*
X106300000Y-64748999D01*
X106318907Y-64690808D01*
X106368407Y-64654844D01*
X106399000Y-64649999D01*
X107300000Y-64649999D01*
X107300000Y-67050000D01*
G37*
%TD.AperFunction*%
%TD*%
%TA.AperFunction,Conductor*%
%TO.N,VMOTOR*%
G36*
X98958354Y-77169274D02*
G01*
X98948253Y-77171981D01*
X98948249Y-77171983D01*
X98843250Y-77232604D01*
X98757504Y-77318350D01*
X98696883Y-77423348D01*
X98696882Y-77423353D01*
X98665500Y-77540474D01*
X98665500Y-77661726D01*
X98666256Y-77664546D01*
X98696883Y-77778851D01*
X98757504Y-77883849D01*
X98757506Y-77883851D01*
X98757508Y-77883854D01*
X98843246Y-77969592D01*
X98843248Y-77969593D01*
X98843250Y-77969595D01*
X98948249Y-78030216D01*
X98948247Y-78030216D01*
X98948251Y-78030217D01*
X98948253Y-78030218D01*
X99065374Y-78061600D01*
X99065376Y-78061600D01*
X99071642Y-78063279D01*
X99071167Y-78065048D01*
X99118613Y-78087672D01*
X99146100Y-78133868D01*
X99173171Y-78234896D01*
X99173173Y-78234900D01*
X99223922Y-78322799D01*
X99223924Y-78322802D01*
X99295698Y-78394576D01*
X99295700Y-78394577D01*
X99383599Y-78445326D01*
X99383597Y-78445326D01*
X99383601Y-78445327D01*
X99383603Y-78445328D01*
X99435830Y-78459322D01*
X99487142Y-78492645D01*
X99509069Y-78549767D01*
X99493234Y-78608867D01*
X99480210Y-78624950D01*
X99450066Y-78655094D01*
X99450066Y-78655096D01*
X99450066Y-78655097D01*
X98747122Y-79358042D01*
X98747120Y-79358042D01*
X98672118Y-79433044D01*
X97247121Y-80858042D01*
X96150066Y-79760986D01*
X95953009Y-79958042D01*
X95400065Y-79405099D01*
X95396266Y-79395927D01*
X95391467Y-79334930D01*
X95396267Y-79320156D01*
X95400064Y-79310987D01*
X96824376Y-77886674D01*
X97226900Y-77886674D01*
X97226900Y-78007926D01*
X97232873Y-78030218D01*
X97258283Y-78125051D01*
X97318904Y-78230049D01*
X97318906Y-78230051D01*
X97318908Y-78230054D01*
X97404646Y-78315792D01*
X97404648Y-78315793D01*
X97404650Y-78315795D01*
X97509649Y-78376416D01*
X97509647Y-78376416D01*
X97509651Y-78376417D01*
X97509653Y-78376418D01*
X97626774Y-78407800D01*
X97626776Y-78407800D01*
X97748024Y-78407800D01*
X97748026Y-78407800D01*
X97865147Y-78376418D01*
X97865149Y-78376416D01*
X97865151Y-78376416D01*
X97970149Y-78315795D01*
X97970149Y-78315794D01*
X97970154Y-78315792D01*
X98055892Y-78230054D01*
X98055895Y-78230049D01*
X98116516Y-78125051D01*
X98116516Y-78125049D01*
X98116518Y-78125047D01*
X98147900Y-78007926D01*
X98147900Y-77886674D01*
X98116518Y-77769553D01*
X98116516Y-77769550D01*
X98116516Y-77769548D01*
X98055895Y-77664550D01*
X98055893Y-77664548D01*
X98055892Y-77664546D01*
X97970154Y-77578808D01*
X97970151Y-77578806D01*
X97970149Y-77578804D01*
X97865150Y-77518183D01*
X97865152Y-77518183D01*
X97819708Y-77506006D01*
X97748026Y-77486800D01*
X97626774Y-77486800D01*
X97555091Y-77506006D01*
X97509648Y-77518183D01*
X97404650Y-77578804D01*
X97318904Y-77664550D01*
X97258283Y-77769548D01*
X97240737Y-77835029D01*
X97226900Y-77886674D01*
X96824376Y-77886674D01*
X97603008Y-77108042D01*
X98897122Y-77108042D01*
X98958354Y-77169274D01*
G37*
%TD.AperFunction*%
%TD*%
%TA.AperFunction,Conductor*%
%TO.N,PD_VBUS*%
G36*
X74723691Y-94429405D02*
G01*
X74759655Y-94478905D01*
X74764500Y-94509498D01*
X74764500Y-94533543D01*
X74800351Y-94620097D01*
X74800352Y-94620098D01*
X74800353Y-94620100D01*
X74826353Y-94646100D01*
X74435000Y-94646100D01*
X74435000Y-94410498D01*
X74665500Y-94410498D01*
X74723691Y-94429405D01*
G37*
%TD.AperFunction*%
%TD*%
%TA.AperFunction,Conductor*%
%TO.N,MOTOR_B1*%
G36*
X117659191Y-113668906D02*
G01*
X117695155Y-113718406D01*
X117700000Y-113748999D01*
X117700000Y-116951000D01*
X117681093Y-117009191D01*
X117631593Y-117045155D01*
X117601000Y-117050000D01*
X115300000Y-117050000D01*
X115300000Y-113649999D01*
X117601000Y-113649999D01*
X117659191Y-113668906D01*
G37*
%TD.AperFunction*%
%TD*%
%TA.AperFunction,Conductor*%
%TO.N,MOTOR_A1*%
G36*
X121200000Y-93951000D02*
G01*
X121181093Y-94009191D01*
X121131593Y-94045155D01*
X121101000Y-94050000D01*
X120200000Y-94050000D01*
X117899000Y-94050000D01*
X117840809Y-94031093D01*
X117804845Y-93981593D01*
X117800000Y-93951000D01*
X117800000Y-91649999D01*
X121200000Y-91649999D01*
X121200000Y-93951000D01*
G37*
%TD.AperFunction*%
%TD*%
%TA.AperFunction,Conductor*%
%TO.N,MOTOR_B2*%
G36*
X114000000Y-108097056D02*
G01*
X114679870Y-107417185D01*
X114679870Y-107440093D01*
X114660995Y-107473795D01*
X113202446Y-109181543D01*
X113150277Y-109213513D01*
X113089281Y-109208712D01*
X113062871Y-109192528D01*
X111388454Y-107762446D01*
X111356484Y-107710277D01*
X111361285Y-107649281D01*
X111377464Y-107622878D01*
X112367101Y-106464158D01*
X112367101Y-106464157D01*
X114000000Y-108097056D01*
G37*
%TD.AperFunction*%
%TD*%
%TA.AperFunction,Conductor*%
%TO.N,PD_VBUS*%
G36*
X74435000Y-94646100D02*
G01*
X73631469Y-94646100D01*
X73637542Y-94607753D01*
X73655749Y-94582694D01*
X73798950Y-94439494D01*
X73853466Y-94411717D01*
X73868953Y-94410498D01*
X74435000Y-94410498D01*
X74435000Y-94646100D01*
G37*
%TD.AperFunction*%
%TD*%
%TA.AperFunction,Conductor*%
%TO.N,VMOTOR*%
G36*
X117659191Y-81668906D02*
G01*
X117695155Y-81718406D01*
X117700000Y-81748999D01*
X117700000Y-84951000D01*
X117681093Y-85009191D01*
X117631593Y-85045155D01*
X117601000Y-85050000D01*
X115556550Y-85050000D01*
X115498359Y-85031093D01*
X115486557Y-85021014D01*
X115300000Y-84834490D01*
X115300000Y-81649999D01*
X117601000Y-81649999D01*
X117659191Y-81668906D01*
G37*
%TD.AperFunction*%
%TD*%
%TA.AperFunction,Conductor*%
%TO.N,VMOTOR*%
G36*
X100050066Y-76705092D02*
G01*
X100050066Y-76709043D01*
X100031159Y-76767234D01*
X99981659Y-76803198D01*
X99951066Y-76808043D01*
X99900066Y-76808043D01*
X99900066Y-75955096D01*
X100050066Y-75805097D01*
X100050066Y-76705092D01*
G37*
%TD.AperFunction*%
%TA.AperFunction,Conductor*%
G36*
X97903005Y-74558043D02*
G01*
X97650066Y-74558043D01*
X97650066Y-74357043D01*
X97668973Y-74298852D01*
X97718473Y-74262888D01*
X97749066Y-74258043D01*
X97800065Y-74258043D01*
X98203007Y-74258043D01*
X97903005Y-74558043D01*
G37*
%TD.AperFunction*%
%TD*%
%TA.AperFunction,Conductor*%
%TO.N,VMOTOR*%
G36*
X97500066Y-82058044D02*
G01*
X97500066Y-82259042D01*
X97481159Y-82317233D01*
X97431659Y-82353197D01*
X97401066Y-82358042D01*
X96947123Y-82358042D01*
X97500066Y-81805099D01*
X97500066Y-82058044D01*
G37*
%TD.AperFunction*%
%TA.AperFunction,Conductor*%
G36*
X95428008Y-80483042D02*
G01*
X95100066Y-80810985D01*
X95100066Y-80155100D01*
X95428008Y-80483042D01*
G37*
%TD.AperFunction*%
%TA.AperFunction,Conductor*%
G36*
X95100066Y-80060985D02*
G01*
X95100066Y-79907043D01*
X95118973Y-79848852D01*
X95168473Y-79812888D01*
X95199066Y-79808043D01*
X95250065Y-79808043D01*
X95353008Y-79808043D01*
X95100066Y-80060985D01*
G37*
%TD.AperFunction*%
%TD*%
%TA.AperFunction,Conductor*%
%TO.N,VMOTOR*%
G36*
X97847122Y-81458043D02*
G01*
X96070070Y-83235095D01*
X96015553Y-83262872D01*
X95955121Y-83253301D01*
X95930062Y-83235095D01*
X95353010Y-82658043D01*
X94950065Y-82255098D01*
X94373011Y-81678045D01*
X94345235Y-81623529D01*
X94354806Y-81563097D01*
X94373009Y-81538042D01*
X96150066Y-79760986D01*
X97847122Y-81458043D01*
G37*
%TD.AperFunction*%
%TD*%
%TA.AperFunction,Conductor*%
%TO.N,VMOTOR*%
G36*
X98447123Y-79808043D02*
G01*
X98447123Y-79808044D01*
X98527119Y-79888040D01*
X98554895Y-79942555D01*
X98545324Y-80002987D01*
X98527117Y-80028046D01*
X98372119Y-80183043D01*
X98372119Y-80183044D01*
X98372119Y-80183045D01*
X97472121Y-81083042D01*
X97247121Y-80858042D01*
X98372121Y-79733041D01*
X98447123Y-79808043D01*
G37*
%TD.AperFunction*%
%TA.AperFunction,Conductor*%
G36*
X95953009Y-79958042D02*
G01*
X95428008Y-80483042D01*
X95053009Y-80108043D01*
X95578009Y-79583042D01*
X95953009Y-79958042D01*
G37*
%TD.AperFunction*%
%TD*%
%TA.AperFunction,Conductor*%
%TO.N,MOTOR_B2*%
G36*
X132939500Y-117951000D02*
G01*
X132920593Y-118009191D01*
X132871093Y-118045155D01*
X132840500Y-118050000D01*
X132699999Y-118050000D01*
X131484500Y-118050000D01*
X131426309Y-118031093D01*
X131390345Y-117981593D01*
X131385500Y-117951000D01*
X131385500Y-117509195D01*
X131385499Y-117509185D01*
X131376187Y-117462377D01*
X131376186Y-117462374D01*
X131340715Y-117409287D01*
X131340712Y-117409284D01*
X131287625Y-117373813D01*
X131287622Y-117373812D01*
X131240814Y-117364500D01*
X131240806Y-117364500D01*
X131240324Y-117364500D01*
X131240114Y-117364432D01*
X131235970Y-117364024D01*
X131236059Y-117363114D01*
X131182133Y-117345593D01*
X131146169Y-117296093D01*
X131144326Y-117264619D01*
X131141500Y-117264619D01*
X131141500Y-117208951D01*
X131141502Y-117208335D01*
X131141832Y-117155183D01*
X131141500Y-117151694D01*
X131141500Y-115649999D01*
X132939500Y-115649999D01*
X132939500Y-117951000D01*
G37*
%TD.AperFunction*%
%TD*%
%TA.AperFunction,Conductor*%
%TO.N,VMOTOR*%
G36*
X98100066Y-80905099D02*
G01*
X98100066Y-81059043D01*
X98081159Y-81117234D01*
X98031659Y-81153198D01*
X98001066Y-81158043D01*
X97950066Y-81158043D01*
X97950066Y-80755100D01*
X98100066Y-80605101D01*
X98100066Y-80905099D01*
G37*
%TD.AperFunction*%
%TA.AperFunction,Conductor*%
G36*
X95803008Y-78908042D02*
G01*
X95700065Y-78908042D01*
X95700065Y-78557041D01*
X95718972Y-78498850D01*
X95743125Y-78475360D01*
X95768414Y-78458041D01*
X96253009Y-78458041D01*
X95803008Y-78908042D01*
G37*
%TD.AperFunction*%
%TD*%
%TA.AperFunction,Conductor*%
%TO.N,VMOTOR*%
G36*
X131300000Y-108049988D02*
G01*
X132402954Y-108780422D01*
X131279837Y-108036636D01*
X131241761Y-107988742D01*
X131235500Y-107954095D01*
X131235500Y-106038553D01*
X131254407Y-105980362D01*
X131264484Y-105968562D01*
X131300000Y-105933046D01*
X131300000Y-108049988D01*
G37*
%TD.AperFunction*%
%TD*%
%TA.AperFunction,Conductor*%
%TO.N,VMOTOR*%
G36*
X97650066Y-81758044D02*
G01*
X97650066Y-81959043D01*
X97631159Y-82017234D01*
X97581659Y-82053198D01*
X97551066Y-82058043D01*
X97500066Y-82058043D01*
X97500066Y-81805099D01*
X97547122Y-81758043D01*
X97650066Y-81758043D01*
X97650066Y-81758044D01*
G37*
%TD.AperFunction*%
%TA.AperFunction,Conductor*%
G36*
X95400066Y-79760984D02*
G01*
X95353008Y-79808043D01*
X95250066Y-79808043D01*
X95250066Y-79607043D01*
X95268973Y-79548852D01*
X95318473Y-79512888D01*
X95349066Y-79508043D01*
X95353002Y-79508043D01*
X95400066Y-79508043D01*
X95400066Y-79760984D01*
G37*
%TD.AperFunction*%
%TD*%
%TA.AperFunction,Conductor*%
%TO.N,MOTOR_B2*%
G36*
X118821964Y-99138637D02*
G01*
X118840169Y-99163695D01*
X118846225Y-99175581D01*
X118855796Y-99236013D01*
X118855796Y-99236015D01*
X118854999Y-99241046D01*
X118827220Y-99295561D01*
X118416792Y-99705976D01*
X118416790Y-99705978D01*
X118406000Y-99716767D01*
X118406000Y-98722657D01*
X118821964Y-99138637D01*
G37*
%TD.AperFunction*%
%TA.AperFunction,Conductor*%
G36*
X114537343Y-94880597D02*
G01*
X114591859Y-94908374D01*
X114591860Y-94908375D01*
X114833273Y-95149797D01*
X114851478Y-95174855D01*
X114857534Y-95186741D01*
X114867105Y-95247172D01*
X114866308Y-95252204D01*
X114838532Y-95306720D01*
X114766506Y-95378747D01*
X114766505Y-95378749D01*
X114766499Y-95378757D01*
X114705882Y-95483748D01*
X114705604Y-95484484D01*
X114705058Y-95486825D01*
X114674500Y-95600874D01*
X114674500Y-95722126D01*
X114702175Y-95825415D01*
X114705883Y-95839251D01*
X114705884Y-95839254D01*
X114766502Y-95944247D01*
X114766504Y-95944249D01*
X114766506Y-95944251D01*
X114766508Y-95944254D01*
X114852246Y-96029992D01*
X114852248Y-96029993D01*
X114852355Y-96030100D01*
X114852606Y-96030286D01*
X114854799Y-96031467D01*
X114891744Y-96052796D01*
X114900479Y-96057840D01*
X114922073Y-96081823D01*
X114956398Y-96090404D01*
X114958010Y-96090821D01*
X114974537Y-96095249D01*
X115074374Y-96122000D01*
X115074376Y-96122000D01*
X115195624Y-96122000D01*
X115195626Y-96122000D01*
X115312747Y-96090618D01*
X115312749Y-96090616D01*
X115312751Y-96090616D01*
X115411619Y-96033534D01*
X115414507Y-96032131D01*
X115415296Y-96031612D01*
X115420306Y-96028518D01*
X115421600Y-96027770D01*
X115426960Y-96020786D01*
X115432358Y-96015387D01*
X115484508Y-95963236D01*
X115509562Y-95945033D01*
X115521449Y-95938976D01*
X115581877Y-95929406D01*
X115586917Y-95930204D01*
X115641427Y-95957981D01*
X115958230Y-96274796D01*
X116955695Y-97272298D01*
X116973900Y-97297356D01*
X116979956Y-97309242D01*
X116989527Y-97369674D01*
X116989527Y-97369676D01*
X116988730Y-97374707D01*
X116960954Y-97429219D01*
X116911533Y-97478641D01*
X116911523Y-97478652D01*
X116911519Y-97478658D01*
X116864067Y-97560847D01*
X116863789Y-97561583D01*
X116863243Y-97563924D01*
X116839500Y-97652539D01*
X116839500Y-97747460D01*
X116861166Y-97828322D01*
X116861166Y-97828323D01*
X116864065Y-97839146D01*
X116864069Y-97839154D01*
X116910776Y-97920053D01*
X116911524Y-97921347D01*
X116911526Y-97921349D01*
X116911528Y-97921352D01*
X116978648Y-97988472D01*
X116978650Y-97988473D01*
X116978757Y-97988580D01*
X116979008Y-97988767D01*
X116981203Y-97989948D01*
X117004078Y-98003155D01*
X117018976Y-98019700D01*
X116006000Y-98019700D01*
X116006000Y-99543397D01*
X115997391Y-99554029D01*
X115988246Y-99562263D01*
X115932350Y-99587149D01*
X115874762Y-99575692D01*
X115865913Y-99570887D01*
X115843151Y-99553889D01*
X115832801Y-99543539D01*
X115626753Y-99337483D01*
X115439003Y-99149726D01*
X113956848Y-97667515D01*
X113941116Y-97647013D01*
X113928525Y-97625203D01*
X113918639Y-97601336D01*
X113895118Y-97513553D01*
X113895117Y-97513551D01*
X113874966Y-97478648D01*
X113846428Y-97429219D01*
X113835959Y-97411086D01*
X113834785Y-97408904D01*
X113834600Y-97408655D01*
X113834493Y-97408548D01*
X113834492Y-97408546D01*
X113748754Y-97322808D01*
X113748751Y-97322806D01*
X113748190Y-97322482D01*
X113748063Y-97322379D01*
X113747420Y-97321980D01*
X113747447Y-97321936D01*
X113747426Y-97321922D01*
X113747451Y-97321883D01*
X113724148Y-97303008D01*
X113723125Y-97301872D01*
X113716826Y-97294876D01*
X113691940Y-97238984D01*
X113704658Y-97179136D01*
X113743156Y-97141631D01*
X113748223Y-97138880D01*
X113769826Y-97130262D01*
X113795747Y-97123318D01*
X113900754Y-97062692D01*
X113986492Y-96976954D01*
X114047118Y-96871947D01*
X114078500Y-96754826D01*
X114078500Y-96633574D01*
X114054782Y-96545055D01*
X114047027Y-96516111D01*
X114045538Y-96513715D01*
X113987963Y-96413993D01*
X113986786Y-96411805D01*
X113986600Y-96411555D01*
X113986493Y-96411448D01*
X113986492Y-96411446D01*
X113900754Y-96325708D01*
X113900751Y-96325706D01*
X113900749Y-96325704D01*
X113853038Y-96298158D01*
X113832003Y-96274796D01*
X113750310Y-96252905D01*
X113750310Y-96252906D01*
X113678627Y-96233700D01*
X113678626Y-96233700D01*
X113557374Y-96233700D01*
X113557372Y-96233700D01*
X113485689Y-96252906D01*
X113485688Y-96252905D01*
X113440250Y-96265081D01*
X113440244Y-96265084D01*
X113335254Y-96325700D01*
X113249500Y-96411454D01*
X113188884Y-96516443D01*
X113164980Y-96605656D01*
X113163509Y-96610622D01*
X113149276Y-96654433D01*
X113113314Y-96703934D01*
X113055124Y-96722844D01*
X113003403Y-96708261D01*
X112998498Y-96705256D01*
X112980210Y-96690841D01*
X112900033Y-96610660D01*
X112881828Y-96585602D01*
X112875772Y-96573716D01*
X112866201Y-96513284D01*
X112866998Y-96508249D01*
X112894777Y-96453736D01*
X114434945Y-94913623D01*
X114459991Y-94895428D01*
X114471887Y-94889367D01*
X114532307Y-94879799D01*
X114537343Y-94880597D01*
G37*
%TD.AperFunction*%
%TA.AperFunction,Conductor*%
G36*
X117567919Y-97911280D02*
G01*
X117622430Y-97939057D01*
X117703070Y-98019700D01*
X117367265Y-98019700D01*
X117339152Y-98035931D01*
X117415212Y-97992017D01*
X117418101Y-97990614D01*
X117418886Y-97990097D01*
X117423899Y-97987001D01*
X117425197Y-97986251D01*
X117430552Y-97979270D01*
X117465514Y-97944309D01*
X117490564Y-97926109D01*
X117502451Y-97920052D01*
X117562879Y-97910482D01*
X117567919Y-97911280D01*
G37*
%TD.AperFunction*%
%TD*%
%TA.AperFunction,Conductor*%
%TO.N,MOTOR_B2*%
G36*
X132898691Y-114668906D02*
G01*
X132934655Y-114718406D01*
X132939500Y-114748999D01*
X132939500Y-115649999D01*
X132699999Y-115649999D01*
X132699999Y-114649999D01*
X132840500Y-114649999D01*
X132898691Y-114668906D01*
G37*
%TD.AperFunction*%
%TD*%
%TA.AperFunction,Conductor*%
%TO.N,MOTOR_A2*%
G36*
X105112000Y-89081895D02*
G01*
X105017248Y-89107283D01*
X104912250Y-89167904D01*
X104826504Y-89253650D01*
X104765883Y-89358648D01*
X104734500Y-89475775D01*
X104734500Y-89597025D01*
X104738426Y-89611678D01*
X104735223Y-89672779D01*
X104696717Y-89720329D01*
X104642799Y-89736300D01*
X104586374Y-89736300D01*
X104514691Y-89755506D01*
X104469248Y-89767683D01*
X104364250Y-89828304D01*
X104278504Y-89914050D01*
X104217883Y-90019048D01*
X104201744Y-90079282D01*
X104186500Y-90136174D01*
X104186500Y-90257426D01*
X104206121Y-90330653D01*
X104217883Y-90374551D01*
X104278504Y-90479549D01*
X104278506Y-90479551D01*
X104278508Y-90479554D01*
X104364246Y-90565292D01*
X104364248Y-90565293D01*
X104364250Y-90565295D01*
X104469249Y-90625916D01*
X104469247Y-90625916D01*
X104469251Y-90625917D01*
X104469253Y-90625918D01*
X104586374Y-90657300D01*
X104586376Y-90657300D01*
X104707624Y-90657300D01*
X104707626Y-90657300D01*
X104824747Y-90625918D01*
X104824749Y-90625916D01*
X104824751Y-90625916D01*
X104929749Y-90565295D01*
X104929749Y-90565294D01*
X104929754Y-90565292D01*
X104942998Y-90552047D01*
X104997513Y-90524272D01*
X105057945Y-90533843D01*
X105101210Y-90577108D01*
X105112000Y-90622053D01*
X105112000Y-90958500D01*
X105093093Y-91016691D01*
X105043593Y-91052655D01*
X105013000Y-91057500D01*
X102712000Y-91057500D01*
X102712000Y-90876646D01*
X102797492Y-90791154D01*
X102858118Y-90686147D01*
X102889500Y-90569026D01*
X102889500Y-90447774D01*
X102858118Y-90330653D01*
X102858116Y-90330650D01*
X102858116Y-90330648D01*
X102797495Y-90225650D01*
X102797493Y-90225648D01*
X102797492Y-90225646D01*
X102712000Y-90140154D01*
X102712000Y-88631299D01*
X102730907Y-88573108D01*
X102780407Y-88537144D01*
X102811000Y-88532299D01*
X103414997Y-88532299D01*
X105112000Y-88532299D01*
X105112000Y-89081895D01*
G37*
%TD.AperFunction*%
%TD*%
%TA.AperFunction,Conductor*%
%TO.N,VMOTOR*%
G36*
X115300000Y-84834489D02*
G01*
X114329003Y-83863664D01*
X114301220Y-83809150D01*
X114300000Y-83793654D01*
X114300000Y-81748999D01*
X114318907Y-81690808D01*
X114368407Y-81654844D01*
X114399000Y-81649999D01*
X115300000Y-81649999D01*
X115300000Y-84834489D01*
G37*
%TD.AperFunction*%
%TD*%
%TA.AperFunction,Conductor*%
%TO.N,VMOTOR*%
G36*
X114346255Y-107000502D02*
G01*
X114357421Y-107019843D01*
X114331623Y-106975160D01*
X114346255Y-107000502D01*
G37*
%TD.AperFunction*%
%TA.AperFunction,Conductor*%
G36*
X115320097Y-106610845D02*
G01*
X115321416Y-106608947D01*
X115321420Y-106608943D01*
X115320097Y-106610845D01*
G37*
%TD.AperFunction*%
%TA.AperFunction,Conductor*%
G36*
X115328995Y-105651538D02*
G01*
X115277539Y-105702993D01*
X115393735Y-105586797D01*
X115328995Y-105651538D01*
G37*
%TD.AperFunction*%
%TA.AperFunction,Conductor*%
G36*
X116617466Y-105576052D02*
G01*
X116617601Y-105576075D01*
X116617305Y-105576025D01*
X116617466Y-105576052D01*
G37*
%TD.AperFunction*%
%TA.AperFunction,Conductor*%
G36*
X115448578Y-105558372D02*
G01*
X115448574Y-105558373D01*
X115447777Y-105558586D01*
X115448579Y-105558371D01*
X115448578Y-105558372D01*
G37*
%TD.AperFunction*%
%TD*%
%TA.AperFunction,Conductor*%
%TO.N,MOTOR_A1*%
G36*
X118800000Y-91649999D02*
G01*
X117800000Y-91649999D01*
X117800000Y-90748999D01*
X117818907Y-90690808D01*
X117868407Y-90654844D01*
X117899000Y-90649999D01*
X118800000Y-90649999D01*
X118800000Y-91649999D01*
G37*
%TD.AperFunction*%
%TD*%
%TA.AperFunction,Conductor*%
%TO.N,VMOTOR*%
G36*
X99750066Y-77108043D02*
G01*
X99750066Y-77309043D01*
X99731159Y-77367234D01*
X99681659Y-77403198D01*
X99651066Y-77408043D01*
X99603437Y-77408043D01*
X99545246Y-77389136D01*
X99600066Y-77406947D01*
X99600066Y-77155093D01*
X99647117Y-77108042D01*
X99750066Y-77108042D01*
X99750066Y-77108043D01*
G37*
%TD.AperFunction*%
%TA.AperFunction,Conductor*%
G36*
X97500066Y-74960979D02*
G01*
X97350066Y-75110978D01*
X97350066Y-74957043D01*
X97368973Y-74898852D01*
X97418473Y-74862888D01*
X97449066Y-74858043D01*
X97500065Y-74858043D01*
X97500066Y-74858043D01*
X97500066Y-74960979D01*
G37*
%TD.AperFunction*%
%TD*%
%TA.AperFunction,Conductor*%
%TO.N,MOTOR_B2*%
G36*
X117668915Y-104563001D02*
G01*
X116752248Y-105393888D01*
X116696435Y-105418960D01*
X116660139Y-105416164D01*
X116679407Y-105417648D01*
X117097056Y-105000000D01*
X116660056Y-104563000D01*
X117668917Y-104563000D01*
X117668915Y-104563001D01*
G37*
%TD.AperFunction*%
%TA.AperFunction,Conductor*%
G36*
X116006000Y-103908943D02*
G01*
X115440628Y-103343571D01*
X116006000Y-102831105D01*
X116006000Y-103908943D01*
G37*
%TD.AperFunction*%
%TA.AperFunction,Conductor*%
G36*
X118406001Y-102900082D02*
G01*
X118834527Y-103372848D01*
X118859599Y-103428660D01*
X118847076Y-103488551D01*
X118827663Y-103512686D01*
X118406001Y-103894889D01*
X118406000Y-103894891D01*
X118406000Y-102900080D01*
X118406001Y-102900082D01*
G37*
%TD.AperFunction*%
%TD*%
%TA.AperFunction,Conductor*%
%TO.N,MOTOR_A2*%
G36*
X103662017Y-91807155D02*
G01*
X102910578Y-91057500D01*
X104409891Y-91057500D01*
X103662017Y-91807155D01*
G37*
%TD.AperFunction*%
%TA.AperFunction,Conductor*%
G36*
X104824751Y-90625916D02*
G01*
X104861774Y-90604540D01*
X104861776Y-90604539D01*
X104824751Y-90625916D01*
G37*
%TD.AperFunction*%
%TA.AperFunction,Conductor*%
G36*
X102712000Y-90140154D02*
G01*
X102711754Y-90139908D01*
X102711751Y-90139906D01*
X102711749Y-90139904D01*
X102606750Y-90079283D01*
X102606752Y-90079283D01*
X102561308Y-90067106D01*
X102489626Y-90047900D01*
X102368374Y-90047900D01*
X102328462Y-90058594D01*
X102258499Y-90077340D01*
X102197398Y-90074137D01*
X102149848Y-90035631D01*
X102134013Y-89976531D01*
X102155940Y-89919410D01*
X102162769Y-89911815D01*
X102712000Y-89361276D01*
X102712000Y-90140154D01*
G37*
%TD.AperFunction*%
%TA.AperFunction,Conductor*%
G36*
X104912248Y-89167906D02*
G01*
X104912250Y-89167904D01*
X104917058Y-89165128D01*
X104912248Y-89167906D01*
G37*
%TD.AperFunction*%
%TA.AperFunction,Conductor*%
G36*
X104282722Y-88532299D02*
G01*
X103539010Y-88532299D01*
X103909982Y-88160444D01*
X104282722Y-88532299D01*
G37*
%TD.AperFunction*%
%TD*%
%TA.AperFunction,Conductor*%
%TO.N,MOTOR_B2*%
G36*
X117060848Y-98035931D02*
G01*
X117060846Y-98035931D01*
X117060850Y-98035932D01*
X117060852Y-98035933D01*
X117152539Y-98060500D01*
X117152541Y-98060500D01*
X117247459Y-98060500D01*
X117247461Y-98060500D01*
X117339148Y-98035933D01*
X117339150Y-98035931D01*
X117339152Y-98035931D01*
X117367265Y-98019700D01*
X117703070Y-98019700D01*
X117703071Y-98019700D01*
X117727447Y-98019700D01*
X117785638Y-98038607D01*
X117797444Y-98048690D01*
X117817246Y-98068492D01*
X117817248Y-98068493D01*
X117817250Y-98068495D01*
X117922249Y-98129116D01*
X117922247Y-98129116D01*
X117922251Y-98129117D01*
X117922253Y-98129118D01*
X118039374Y-98160500D01*
X118039376Y-98160500D01*
X118160624Y-98160500D01*
X118160626Y-98160500D01*
X118277747Y-98129118D01*
X118277751Y-98129115D01*
X118281377Y-98128144D01*
X118342478Y-98131346D01*
X118390028Y-98169852D01*
X118406000Y-98223771D01*
X118406000Y-103894893D01*
X118406000Y-104464000D01*
X118387093Y-104522191D01*
X118337593Y-104558155D01*
X118307000Y-104563000D01*
X116660056Y-104563000D01*
X116006000Y-103908943D01*
X116006000Y-100235409D01*
X116024907Y-100177218D01*
X116074407Y-100141254D01*
X116135593Y-100141254D01*
X116154500Y-100149673D01*
X116234249Y-100195716D01*
X116234247Y-100195716D01*
X116234251Y-100195717D01*
X116234253Y-100195718D01*
X116351374Y-100227100D01*
X116351376Y-100227100D01*
X116472624Y-100227100D01*
X116472626Y-100227100D01*
X116589747Y-100195718D01*
X116589749Y-100195716D01*
X116589751Y-100195716D01*
X116694749Y-100135095D01*
X116694749Y-100135094D01*
X116694754Y-100135092D01*
X116780492Y-100049354D01*
X116841118Y-99944347D01*
X116872500Y-99827226D01*
X116872500Y-99705974D01*
X116841118Y-99588853D01*
X116841116Y-99588850D01*
X116841116Y-99588848D01*
X116780495Y-99483850D01*
X116780493Y-99483848D01*
X116780492Y-99483846D01*
X116694754Y-99398108D01*
X116694751Y-99398106D01*
X116694749Y-99398104D01*
X116589750Y-99337483D01*
X116589752Y-99337483D01*
X116544308Y-99325306D01*
X116472626Y-99306100D01*
X116351374Y-99306100D01*
X116279691Y-99325306D01*
X116234248Y-99337483D01*
X116129250Y-99398104D01*
X116043506Y-99483848D01*
X116009044Y-99543538D01*
X116006000Y-99546278D01*
X116006000Y-98019700D01*
X117032735Y-98019700D01*
X117060848Y-98035931D01*
G37*
%TD.AperFunction*%
%TD*%
%TA.AperFunction,Conductor*%
%TO.N,VMOTOR*%
G36*
X114373799Y-107031093D02*
G01*
X114431990Y-107050000D01*
X115300000Y-107050000D01*
X115300000Y-107951000D01*
X115304845Y-107981593D01*
X115340809Y-108031093D01*
X115399000Y-108050000D01*
X115300000Y-108050000D01*
X114601263Y-108050000D01*
X114543072Y-108031093D01*
X114507108Y-107981593D01*
X114507108Y-107920407D01*
X114525983Y-107886705D01*
X114786842Y-107581278D01*
X114805391Y-107554665D01*
X114824266Y-107520963D01*
X114826413Y-107517005D01*
X114845370Y-107440093D01*
X114845370Y-107423263D01*
X114845371Y-107423246D01*
X114845371Y-107378909D01*
X114845371Y-107378907D01*
X114843634Y-107354994D01*
X114813763Y-107281628D01*
X114777799Y-107232128D01*
X114777795Y-107232123D01*
X114777789Y-107232115D01*
X114762338Y-107213803D01*
X114695048Y-107172007D01*
X114695045Y-107172006D01*
X114636857Y-107153099D01*
X114636859Y-107153099D01*
X114585719Y-107145000D01*
X114585716Y-107145000D01*
X114574198Y-107145000D01*
X114572908Y-107144581D01*
X114571609Y-107144966D01*
X114548574Y-107141626D01*
X114498719Y-107128267D01*
X114474843Y-107118378D01*
X114430154Y-107092577D01*
X114409650Y-107076844D01*
X114373153Y-107040347D01*
X114357421Y-107019843D01*
X114346255Y-107000502D01*
X114373799Y-107031093D01*
G37*
%TD.AperFunction*%
%TA.AperFunction,Conductor*%
G36*
X114331341Y-106973834D02*
G01*
X114331623Y-106975160D01*
X114331622Y-106975158D01*
X114330900Y-106973416D01*
X114331341Y-106973834D01*
G37*
%TD.AperFunction*%
%TA.AperFunction,Conductor*%
G36*
X114323132Y-106954793D02*
G01*
X114322435Y-106953778D01*
X114322452Y-106953088D01*
X114323132Y-106954793D01*
G37*
%TD.AperFunction*%
%TA.AperFunction,Conductor*%
G36*
X114305246Y-106822322D02*
G01*
X114305034Y-106821605D01*
X114308373Y-106798573D01*
X114305246Y-106822322D01*
G37*
%TD.AperFunction*%
%TA.AperFunction,Conductor*%
G36*
X115320097Y-106610845D02*
G01*
X115321416Y-106608947D01*
X115321420Y-106608943D01*
X115320097Y-106610845D01*
G37*
%TD.AperFunction*%
%TA.AperFunction,Conductor*%
G36*
X114474845Y-106581618D02*
G01*
X114495011Y-106573265D01*
X114496222Y-106572434D01*
X114496972Y-106572453D01*
X114498720Y-106571730D01*
X114474845Y-106581618D01*
G37*
%TD.AperFunction*%
%TA.AperFunction,Conductor*%
G36*
X115257422Y-106019846D02*
G01*
X115231619Y-105975155D01*
X115231618Y-105975152D01*
X115257422Y-106019846D01*
G37*
%TD.AperFunction*%
%TA.AperFunction,Conductor*%
G36*
X115225304Y-105959908D02*
G01*
X115223721Y-105957803D01*
X115221730Y-105951278D01*
X115225304Y-105959908D01*
G37*
%TD.AperFunction*%
%TA.AperFunction,Conductor*%
G36*
X115205000Y-105824195D02*
G01*
X115208371Y-105798580D01*
X115208372Y-105798578D01*
X115205000Y-105824195D01*
G37*
%TD.AperFunction*%
%TA.AperFunction,Conductor*%
G36*
X115211173Y-105788122D02*
G01*
X115211173Y-105788120D01*
X115225964Y-105762498D01*
X115211173Y-105788122D01*
G37*
%TD.AperFunction*%
%TA.AperFunction,Conductor*%
G36*
X116238383Y-105682966D02*
G01*
X116257735Y-105668905D01*
X116257737Y-105668904D01*
X116238383Y-105682966D01*
G37*
%TD.AperFunction*%
%TD*%
%TA.AperFunction,Conductor*%
%TO.N,MOTOR_A2*%
G36*
X102712000Y-91057500D02*
G01*
X102910578Y-91057500D01*
X103662017Y-91807155D01*
X104409891Y-91057500D01*
X104860000Y-91057500D01*
X104860000Y-91057501D01*
X104860000Y-92640600D01*
X104841093Y-92698791D01*
X104791593Y-92734755D01*
X104761000Y-92739600D01*
X102659776Y-92739600D01*
X102634154Y-92736227D01*
X102615207Y-92731150D01*
X102592626Y-92725100D01*
X102559000Y-92725100D01*
X102500809Y-92706193D01*
X102464845Y-92656693D01*
X102460000Y-92626100D01*
X102460000Y-92401086D01*
X102478907Y-92342895D01*
X102498737Y-92322540D01*
X102503743Y-92318698D01*
X102503754Y-92318692D01*
X102589492Y-92232954D01*
X102589495Y-92232949D01*
X102650116Y-92127951D01*
X102650116Y-92127949D01*
X102650118Y-92127947D01*
X102681500Y-92010826D01*
X102681500Y-91889574D01*
X102650118Y-91772453D01*
X102650116Y-91772450D01*
X102650116Y-91772448D01*
X102589495Y-91667450D01*
X102589493Y-91667448D01*
X102589492Y-91667446D01*
X102503754Y-91581708D01*
X102503751Y-91581706D01*
X102503745Y-91581700D01*
X102498728Y-91577850D01*
X102464075Y-91527423D01*
X102460000Y-91499312D01*
X102460000Y-91052803D01*
X102478907Y-90994612D01*
X102528407Y-90958648D01*
X102533347Y-90957185D01*
X102606747Y-90937518D01*
X102711754Y-90876892D01*
X102712000Y-90876646D01*
X102712000Y-91057500D01*
G37*
%TD.AperFunction*%
%TA.AperFunction,Conductor*%
G36*
X102712000Y-89361276D02*
G01*
X102460000Y-89613876D01*
X102460000Y-89009100D01*
X102478907Y-88950909D01*
X102528407Y-88914945D01*
X102559000Y-88910100D01*
X102711999Y-88910100D01*
X102712000Y-88910100D01*
X102712000Y-89361276D01*
G37*
%TD.AperFunction*%
%TD*%
%TA.AperFunction,Conductor*%
%TO.N,VMOTOR*%
G36*
X100627119Y-75238040D02*
G01*
X100654895Y-75292555D01*
X100645324Y-75352987D01*
X100627118Y-75378045D01*
X100500066Y-75505097D01*
X100500066Y-75505098D01*
X100500066Y-75505099D01*
X100050066Y-75955099D01*
X100050066Y-75805097D01*
X100622123Y-75233044D01*
X100627119Y-75238040D01*
G37*
%TD.AperFunction*%
%TA.AperFunction,Conductor*%
G36*
X97500066Y-75355094D02*
G01*
X97500066Y-75805099D01*
X97200063Y-75505097D01*
X97196266Y-75495930D01*
X97191465Y-75434933D01*
X97196266Y-75420156D01*
X97200062Y-75410989D01*
X97378011Y-75233039D01*
X97500066Y-75355094D01*
G37*
%TD.AperFunction*%
%TD*%
%TA.AperFunction,Conductor*%
%TO.N,VMOTOR*%
G36*
X127300000Y-76601000D02*
G01*
X127281093Y-76659191D01*
X127231593Y-76695155D01*
X127201000Y-76700000D01*
X124998999Y-76700000D01*
X124940808Y-76681093D01*
X124904844Y-76631593D01*
X124899999Y-76601000D01*
X124899999Y-72181473D01*
X126712222Y-72982777D01*
X127300000Y-71653462D01*
X127300000Y-76601000D01*
G37*
%TD.AperFunction*%
%TD*%
%TA.AperFunction,Conductor*%
%TO.N,MOTOR_A2*%
G36*
X123300000Y-118050000D02*
G01*
X122399000Y-118050000D01*
X122340809Y-118031093D01*
X122304845Y-117981593D01*
X122300000Y-117951000D01*
X122300000Y-117050000D01*
X123300000Y-117050000D01*
X123300000Y-118050000D01*
G37*
%TD.AperFunction*%
%TD*%
%TA.AperFunction,Conductor*%
%TO.N,VMOTOR*%
G36*
X100500066Y-74660989D02*
G01*
X100500066Y-74060986D01*
X100678441Y-74239362D01*
X100927118Y-74488040D01*
X100954895Y-74542556D01*
X100945324Y-74602988D01*
X100927117Y-74628047D01*
X100697121Y-74858042D01*
X100697119Y-74858044D01*
X99150071Y-73310986D01*
X100500066Y-74660989D01*
G37*
%TD.AperFunction*%
%TA.AperFunction,Conductor*%
G36*
X97500066Y-74755099D02*
G01*
X97500065Y-74755098D01*
X97496267Y-74745929D01*
X97491466Y-74684932D01*
X97496267Y-74670155D01*
X97500063Y-74660988D01*
X97500066Y-74660986D01*
X97500066Y-74755099D01*
G37*
%TD.AperFunction*%
%TA.AperFunction,Conductor*%
G36*
X97650066Y-74558043D02*
G01*
X97603009Y-74558043D01*
X97650066Y-74510986D01*
X97650066Y-74558043D01*
G37*
%TD.AperFunction*%
%TA.AperFunction,Conductor*%
G36*
X97903005Y-74558043D02*
G01*
X98203007Y-74258043D01*
X98203006Y-74258043D01*
X99150071Y-73310986D01*
X97903005Y-74558043D01*
G37*
%TD.AperFunction*%
%TD*%
%TA.AperFunction,Conductor*%
%TO.N,VMOTOR*%
G36*
X97050066Y-76255104D02*
G01*
X96928005Y-76133044D01*
X96928006Y-76133044D01*
X96923012Y-76128050D01*
X96895235Y-76073533D01*
X96904806Y-76013101D01*
X96923005Y-75988050D01*
X96955964Y-75955092D01*
X97050066Y-75860989D01*
X97050066Y-76255104D01*
G37*
%TD.AperFunction*%
%TA.AperFunction,Conductor*%
G36*
X100350066Y-75860981D02*
G01*
X100353865Y-75870152D01*
X100358664Y-75931149D01*
X100353865Y-75945920D01*
X100350065Y-75955092D01*
X100050066Y-76255093D01*
X100050066Y-75955099D01*
X100247122Y-75758043D01*
X100247127Y-75758043D01*
X100350066Y-75860981D01*
G37*
%TD.AperFunction*%
%TD*%
%TA.AperFunction,Conductor*%
%TO.N,EFUSE_IN*%
G36*
X91300000Y-67050000D02*
G01*
X90300000Y-67050000D01*
X90300000Y-64748999D01*
X90318907Y-64690808D01*
X90368407Y-64654844D01*
X90399000Y-64649999D01*
X91300000Y-64649999D01*
X91300000Y-67050000D01*
G37*
%TD.AperFunction*%
%TD*%
%TA.AperFunction,Conductor*%
%TO.N,VMOTOR*%
G36*
X100697119Y-74858044D02*
G01*
X100697119Y-74858045D01*
X100777119Y-74938045D01*
X100804895Y-74992560D01*
X100795324Y-75052992D01*
X100777117Y-75078051D01*
X100622123Y-75233043D01*
X100622123Y-75233044D01*
X99900066Y-75955096D01*
X99900066Y-74558043D01*
X97903005Y-74558043D01*
X99150071Y-73310986D01*
X100697119Y-74858044D01*
G37*
%TD.AperFunction*%
%TA.AperFunction,Conductor*%
G36*
X97500066Y-75355094D02*
G01*
X97303015Y-75158042D01*
X97307630Y-75158042D01*
X97316944Y-75144100D01*
X97500066Y-74960979D01*
X97500066Y-75355094D01*
G37*
%TD.AperFunction*%
%TD*%
%TA.AperFunction,Conductor*%
%TO.N,VMOTOR*%
G36*
X94950065Y-80810987D02*
G01*
X94678010Y-81083043D01*
X94673012Y-81078045D01*
X94645235Y-81023530D01*
X94654806Y-80963098D01*
X94673006Y-80938045D01*
X94705953Y-80905099D01*
X94950065Y-80660987D01*
X94950065Y-80810987D01*
G37*
%TD.AperFunction*%
%TA.AperFunction,Conductor*%
G36*
X98103865Y-80820159D02*
G01*
X98108664Y-80881156D01*
X98103865Y-80895927D01*
X98100066Y-80905099D01*
X98100066Y-80810987D01*
X98103865Y-80820159D01*
G37*
%TD.AperFunction*%
%TD*%
%TA.AperFunction,Conductor*%
%TO.N,BRAKE_RETURN*%
G36*
X109659191Y-64668906D02*
G01*
X109695155Y-64718406D01*
X109700000Y-64748999D01*
X109700000Y-67951000D01*
X109681093Y-68009191D01*
X109631593Y-68045155D01*
X109601000Y-68050000D01*
X107300000Y-68050000D01*
X107300000Y-64649999D01*
X109601000Y-64649999D01*
X109659191Y-64668906D01*
G37*
%TD.AperFunction*%
%TD*%
%TA.AperFunction,Conductor*%
%TO.N,MOTOR_B2*%
G36*
X115440627Y-103343571D02*
G01*
X115440627Y-103343570D01*
X117097056Y-105000000D01*
X116679407Y-105417648D01*
X116660139Y-105416164D01*
X116560626Y-105389500D01*
X116439374Y-105389500D01*
X116367691Y-105408706D01*
X116322248Y-105420883D01*
X116217250Y-105481504D01*
X116217245Y-105481508D01*
X116163249Y-105535504D01*
X116108732Y-105563281D01*
X116093246Y-105564500D01*
X115906754Y-105564500D01*
X115848563Y-105545593D01*
X115836751Y-105535504D01*
X115782754Y-105481508D01*
X115782749Y-105481504D01*
X115677750Y-105420883D01*
X115677752Y-105420883D01*
X115632308Y-105408706D01*
X115560626Y-105389500D01*
X115439374Y-105389500D01*
X115367691Y-105408706D01*
X115322248Y-105420883D01*
X115217250Y-105481504D01*
X115131504Y-105567250D01*
X115070883Y-105672248D01*
X115070882Y-105672253D01*
X115039500Y-105789374D01*
X115039500Y-105910626D01*
X115067175Y-106013915D01*
X115070883Y-106027751D01*
X115131504Y-106132749D01*
X115131506Y-106132751D01*
X115131508Y-106132754D01*
X115185505Y-106186751D01*
X115213281Y-106241266D01*
X115214500Y-106256753D01*
X115214500Y-106443246D01*
X115195593Y-106501437D01*
X115185504Y-106513249D01*
X115131504Y-106567249D01*
X115128538Y-106571115D01*
X115078112Y-106605768D01*
X115016948Y-106604163D01*
X114971462Y-106571115D01*
X114968498Y-106567253D01*
X114968493Y-106567248D01*
X114968492Y-106567246D01*
X114882754Y-106481508D01*
X114882751Y-106481506D01*
X114882749Y-106481504D01*
X114777750Y-106420883D01*
X114777752Y-106420883D01*
X114732308Y-106408706D01*
X114660626Y-106389500D01*
X114539374Y-106389500D01*
X114467691Y-106408706D01*
X114422248Y-106420883D01*
X114317250Y-106481504D01*
X114231504Y-106567250D01*
X114170883Y-106672248D01*
X114170882Y-106672253D01*
X114139500Y-106789374D01*
X114139500Y-106910626D01*
X114150000Y-106949813D01*
X114170883Y-107027751D01*
X114231504Y-107132749D01*
X114231506Y-107132751D01*
X114231508Y-107132754D01*
X114317246Y-107218492D01*
X114317248Y-107218493D01*
X114317250Y-107218495D01*
X114422249Y-107279116D01*
X114422247Y-107279116D01*
X114422251Y-107279117D01*
X114422253Y-107279118D01*
X114539374Y-107310500D01*
X114539376Y-107310500D01*
X114585716Y-107310500D01*
X114643907Y-107329407D01*
X114679871Y-107378907D01*
X114679871Y-107417184D01*
X114000000Y-108097056D01*
X112367099Y-106464156D01*
X112366860Y-106458060D01*
X112345169Y-106415487D01*
X112354740Y-106355055D01*
X112372943Y-106329999D01*
X115331312Y-103371630D01*
X115385825Y-103343856D01*
X115403739Y-103342667D01*
X115440627Y-103343571D01*
G37*
%TD.AperFunction*%
%TD*%
%TA.AperFunction,Conductor*%
%TO.N,VMOTOR*%
G36*
X97200065Y-77510985D02*
G01*
X97200065Y-77455098D01*
X97228008Y-77483041D01*
X97603008Y-77108042D01*
X97200065Y-77510985D01*
G37*
%TD.AperFunction*%
%TA.AperFunction,Conductor*%
G36*
X99600066Y-77406947D02*
G01*
X99545246Y-77389136D01*
X99517701Y-77358544D01*
X99494493Y-77318348D01*
X99494492Y-77318346D01*
X99465653Y-77289507D01*
X99600066Y-77155093D01*
X99600066Y-77406947D01*
G37*
%TD.AperFunction*%
%TA.AperFunction,Conductor*%
G36*
X97500066Y-75805099D02*
G01*
X97500066Y-75860984D01*
X97200065Y-76160987D01*
X97200065Y-75505098D01*
X97500066Y-75805099D01*
G37*
%TD.AperFunction*%
%TA.AperFunction,Conductor*%
G36*
X97500066Y-75355094D02*
G01*
X97378011Y-75233039D01*
X97200065Y-75410985D01*
X97200065Y-75257042D01*
X97218972Y-75198851D01*
X97268472Y-75162887D01*
X97299065Y-75158042D01*
X97303015Y-75158042D01*
X97500066Y-75355094D01*
G37*
%TD.AperFunction*%
%TD*%
%TA.AperFunction,Conductor*%
%TO.N,VMOTOR*%
G36*
X125452000Y-69898132D02*
G01*
X124876359Y-71200000D01*
X124099000Y-71200000D01*
X124040809Y-71181093D01*
X124004845Y-71131593D01*
X124000000Y-71101000D01*
X124000000Y-68899000D01*
X124018907Y-68840809D01*
X124068407Y-68804845D01*
X124099000Y-68800000D01*
X125452000Y-68800000D01*
X125452000Y-69898132D01*
G37*
%TD.AperFunction*%
%TD*%
%TA.AperFunction,Conductor*%
%TO.N,VMOTOR*%
G36*
X97050066Y-75805099D02*
G01*
X97050065Y-75805098D01*
X97046267Y-75795929D01*
X97041466Y-75734932D01*
X97046267Y-75720156D01*
X97050064Y-75710987D01*
X97050066Y-75710985D01*
X97050066Y-75805099D01*
G37*
%TD.AperFunction*%
%TA.AperFunction,Conductor*%
G36*
X100350066Y-75805097D02*
G01*
X100350066Y-75758043D01*
X100397120Y-75758043D01*
X100350066Y-75805097D01*
G37*
%TD.AperFunction*%
%TA.AperFunction,Conductor*%
G36*
X100503864Y-75570156D02*
G01*
X100508665Y-75631152D01*
X100503864Y-75645926D01*
X100500066Y-75655095D01*
X100500066Y-75560986D01*
X100503864Y-75570156D01*
G37*
%TD.AperFunction*%
%TA.AperFunction,Conductor*%
G36*
X97200065Y-75608043D02*
G01*
X97153009Y-75608043D01*
X97153008Y-75608043D01*
X97200065Y-75560986D01*
X97200065Y-75608043D01*
G37*
%TD.AperFunction*%
%TD*%
%TA.AperFunction,Conductor*%
%TO.N,EFUSE_IN*%
G36*
X93659191Y-64668906D02*
G01*
X93695155Y-64718406D01*
X93700000Y-64748999D01*
X93700000Y-67951000D01*
X93681093Y-68009191D01*
X93631593Y-68045155D01*
X93601000Y-68050000D01*
X91300000Y-68050000D01*
X91300000Y-64649999D01*
X93601000Y-64649999D01*
X93659191Y-64668906D01*
G37*
%TD.AperFunction*%
%TD*%
%TA.AperFunction,Conductor*%
%TO.N,VMOTOR*%
G36*
X125452000Y-71351600D02*
G01*
X127433473Y-71351600D01*
X127300000Y-71653461D01*
X127300000Y-71653462D01*
X126712222Y-72982777D01*
X124899999Y-72181473D01*
X124899998Y-72181472D01*
X124607766Y-72052257D01*
X124562191Y-72011432D01*
X124549317Y-71951617D01*
X124557257Y-71921678D01*
X124876359Y-71200000D01*
X125452000Y-69898132D01*
X125452000Y-71351600D01*
G37*
%TD.AperFunction*%
%TA.AperFunction,Conductor*%
G36*
X128144234Y-69499341D02*
G01*
X128189807Y-69540166D01*
X128202681Y-69599982D01*
X128194741Y-69629920D01*
X127852000Y-70405062D01*
X127852000Y-69370125D01*
X128144234Y-69499341D01*
G37*
%TD.AperFunction*%
%TA.AperFunction,Conductor*%
G36*
X126130319Y-68608856D02*
G01*
X126562609Y-68800000D01*
X126562607Y-68800000D01*
X125937557Y-68800000D01*
X125999741Y-68659364D01*
X126040565Y-68613792D01*
X126100381Y-68600917D01*
X126130319Y-68608856D01*
G37*
%TD.AperFunction*%
%TD*%
%TA.AperFunction,Conductor*%
%TO.N,VMOTOR*%
G36*
X97050066Y-76255104D02*
G01*
X97050066Y-76310986D01*
X96853010Y-76508042D01*
X96773012Y-76428044D01*
X96745235Y-76373528D01*
X96754807Y-76313096D01*
X96773006Y-76288044D01*
X96928005Y-76133044D01*
X97050066Y-76255104D01*
G37*
%TD.AperFunction*%
%TA.AperFunction,Conductor*%
G36*
X100200066Y-76255098D02*
G01*
X100200066Y-76208043D01*
X100247122Y-76208043D01*
X100200066Y-76255098D01*
G37*
%TD.AperFunction*%
%TD*%
%TA.AperFunction,Conductor*%
%TO.N,VMOTOR*%
G36*
X100500066Y-75655098D02*
G01*
X100500066Y-75659043D01*
X100481159Y-75717234D01*
X100431659Y-75753198D01*
X100401066Y-75758043D01*
X100247122Y-75758043D01*
X100500066Y-75505099D01*
X100500066Y-75655098D01*
G37*
%TD.AperFunction*%
%TA.AperFunction,Conductor*%
G36*
X100459257Y-71126950D02*
G01*
X100495221Y-71176450D01*
X100500066Y-71207043D01*
X100500066Y-71765213D01*
X100481159Y-71823404D01*
X100431659Y-71859368D01*
X100370473Y-71859368D01*
X100331064Y-71835218D01*
X100316754Y-71820908D01*
X100316751Y-71820906D01*
X100316749Y-71820904D01*
X100211750Y-71760283D01*
X100211752Y-71760283D01*
X100166308Y-71748106D01*
X100094626Y-71728900D01*
X99973374Y-71728900D01*
X99901691Y-71748106D01*
X99856248Y-71760283D01*
X99751250Y-71820904D01*
X99665504Y-71906650D01*
X99604883Y-72011648D01*
X99604882Y-72011653D01*
X99573500Y-72128774D01*
X99573500Y-72250026D01*
X99576421Y-72260926D01*
X99604883Y-72367151D01*
X99665504Y-72472149D01*
X99665506Y-72472151D01*
X99665508Y-72472154D01*
X99751246Y-72557892D01*
X99751248Y-72557893D01*
X99751250Y-72557895D01*
X99856249Y-72618516D01*
X99856247Y-72618516D01*
X99856251Y-72618517D01*
X99856253Y-72618518D01*
X99973374Y-72649900D01*
X99973376Y-72649900D01*
X100094624Y-72649900D01*
X100094626Y-72649900D01*
X100211747Y-72618518D01*
X100211749Y-72618516D01*
X100211751Y-72618516D01*
X100316749Y-72557895D01*
X100316749Y-72557894D01*
X100316754Y-72557892D01*
X100331064Y-72543581D01*
X100385579Y-72515806D01*
X100446011Y-72525377D01*
X100489276Y-72568642D01*
X100500066Y-72613587D01*
X100500066Y-74660989D01*
X99150071Y-73310986D01*
X98203006Y-74258043D01*
X98100066Y-74258043D01*
X98100066Y-71207043D01*
X98118973Y-71148852D01*
X98168473Y-71112888D01*
X98199066Y-71108043D01*
X100401066Y-71108043D01*
X100459257Y-71126950D01*
G37*
%TD.AperFunction*%
%TD*%
%TA.AperFunction,Conductor*%
%TO.N,VMOTOR*%
G36*
X98250066Y-80605098D02*
G01*
X98250066Y-80609043D01*
X98231159Y-80667234D01*
X98181659Y-80703198D01*
X98151066Y-80708043D01*
X98100066Y-80708043D01*
X98100066Y-80605101D01*
X97997123Y-80708043D01*
X98250066Y-80455102D01*
X98250066Y-80605098D01*
G37*
%TD.AperFunction*%
%TA.AperFunction,Conductor*%
G36*
X96253009Y-78458041D02*
G01*
X95850066Y-78458041D01*
X95850066Y-78402120D01*
X95893126Y-78372631D01*
X95896002Y-78371783D01*
X95899564Y-78368576D01*
X95977654Y-78323492D01*
X96063392Y-78237754D01*
X96080834Y-78207542D01*
X96126303Y-78166602D01*
X96166571Y-78158042D01*
X96553008Y-78158042D01*
X96253009Y-78458041D01*
G37*
%TD.AperFunction*%
%TD*%
%TA.AperFunction,Conductor*%
%TO.N,MOTOR_A2*%
G36*
X123300000Y-117050000D02*
G01*
X122300000Y-117050000D01*
X122300000Y-114748999D01*
X122318907Y-114690808D01*
X122368407Y-114654844D01*
X122399000Y-114649999D01*
X123300000Y-114649999D01*
X123300000Y-117050000D01*
G37*
%TD.AperFunction*%
%TD*%
%TA.AperFunction,Conductor*%
%TO.N,BRAKE_RETURN*%
G36*
X107300000Y-68050000D02*
G01*
X106399000Y-68050000D01*
X106340809Y-68031093D01*
X106304845Y-67981593D01*
X106300000Y-67951000D01*
X106300000Y-67050000D01*
X107300000Y-67050000D01*
X107300000Y-68050000D01*
G37*
%TD.AperFunction*%
%TD*%
%TA.AperFunction,Conductor*%
%TO.N,EFUSE_IN*%
G36*
X91300000Y-68050000D02*
G01*
X90399000Y-68050000D01*
X90340809Y-68031093D01*
X90304845Y-67981593D01*
X90300000Y-67951000D01*
X90300000Y-67050000D01*
X91300000Y-67050000D01*
X91300000Y-68050000D01*
G37*
%TD.AperFunction*%
%TD*%
%TA.AperFunction,Conductor*%
%TO.N,MOTOR_A1*%
G36*
X113865908Y-86304843D02*
G01*
X113878595Y-86308966D01*
X113928095Y-86344927D01*
X113928096Y-86344928D01*
X113931091Y-86349050D01*
X113950000Y-86407240D01*
X113950000Y-88585319D01*
X113945154Y-88615912D01*
X113941032Y-88628598D01*
X113905080Y-88678089D01*
X113900959Y-88681084D01*
X113842771Y-88700000D01*
X111497055Y-88700000D01*
X111510979Y-88686076D01*
X111510980Y-88686076D01*
X112627052Y-87570003D01*
X112645258Y-87544944D01*
X112654829Y-87484512D01*
X112627052Y-87429996D01*
X111497057Y-86300000D01*
X113835320Y-86300000D01*
X113865908Y-86304843D01*
G37*
%TD.AperFunction*%
%TA.AperFunction,Conductor*%
G36*
X110231415Y-86611586D02*
G01*
X110241887Y-86628666D01*
X110242639Y-86628233D01*
X110282284Y-86696900D01*
X110241493Y-86658191D01*
X110181061Y-86648620D01*
X110126544Y-86676397D01*
X109800000Y-87002943D01*
X109800000Y-86710500D01*
X109818907Y-86652309D01*
X109868407Y-86616345D01*
X109899000Y-86611500D01*
X110012994Y-86611500D01*
X110013000Y-86611500D01*
X110038888Y-86609463D01*
X110069481Y-86604618D01*
X110118251Y-86584416D01*
X110179246Y-86579616D01*
X110231415Y-86611586D01*
G37*
%TD.AperFunction*%
%TD*%
%TA.AperFunction,Conductor*%
%TO.N,VMOTOR*%
G36*
X94950065Y-80960986D02*
G01*
X94528006Y-81383045D01*
X94523009Y-81378048D01*
X94495234Y-81323534D01*
X94504805Y-81263102D01*
X94523006Y-81238049D01*
X94950065Y-80810987D01*
X94950065Y-80960986D01*
G37*
%TD.AperFunction*%
%TA.AperFunction,Conductor*%
G36*
X97950066Y-81205092D02*
G01*
X97950066Y-81158043D01*
X97997115Y-81158043D01*
X97950066Y-81205092D01*
G37*
%TD.AperFunction*%
%TD*%
%TA.AperFunction,Conductor*%
%TO.N,VMOTOR*%
G36*
X125700000Y-108951000D02*
G01*
X125681093Y-109009191D01*
X125631593Y-109045155D01*
X125601000Y-109050000D01*
X124700000Y-109050000D01*
X122399000Y-109050000D01*
X122340809Y-109031093D01*
X122304845Y-108981593D01*
X122300000Y-108951000D01*
X122300000Y-106649999D01*
X125700000Y-106649999D01*
X125700000Y-108951000D01*
G37*
%TD.AperFunction*%
%TD*%
%TA.AperFunction,Conductor*%
%TO.N,VMOTOR*%
G36*
X100200066Y-76255098D02*
G01*
X100200066Y-76409043D01*
X100181159Y-76467234D01*
X100131659Y-76503198D01*
X100101066Y-76508043D01*
X100050066Y-76508043D01*
X100050066Y-76255093D01*
X100097116Y-76208043D01*
X100200066Y-76208043D01*
X100200066Y-76255098D01*
G37*
%TD.AperFunction*%
%TA.AperFunction,Conductor*%
G36*
X97950065Y-74258043D02*
G01*
X97800066Y-74258043D01*
X97800066Y-74057041D01*
X97818973Y-73998850D01*
X97868473Y-73962886D01*
X97899066Y-73958041D01*
X97950064Y-73958041D01*
X97950065Y-73958041D01*
X97950065Y-74258043D01*
G37*
%TD.AperFunction*%
%TD*%
%TA.AperFunction,Conductor*%
%TO.N,VMOTOR*%
G36*
X114651426Y-106558372D02*
G01*
X114676953Y-106565211D01*
X114676955Y-106565212D01*
X114689472Y-106568565D01*
X114689472Y-106568566D01*
X114701275Y-106571728D01*
X114725151Y-106581618D01*
X114769842Y-106607420D01*
X114790347Y-106623153D01*
X114851466Y-106684272D01*
X114851467Y-106684274D01*
X114869734Y-106702542D01*
X114871643Y-106703161D01*
X114871697Y-106703200D01*
X114874179Y-106705003D01*
X114874183Y-106705007D01*
X114919669Y-106738055D01*
X114936219Y-106748638D01*
X115012607Y-106769606D01*
X115073771Y-106771211D01*
X115097721Y-106770102D01*
X115171845Y-106742166D01*
X115222271Y-106707513D01*
X115222283Y-106707500D01*
X115223726Y-106706334D01*
X115224313Y-106706108D01*
X115225477Y-106705309D01*
X115225668Y-106705588D01*
X115228179Y-106704624D01*
X115248529Y-106684274D01*
X115248530Y-106684275D01*
X115302530Y-106630275D01*
X115311348Y-106620736D01*
X115321420Y-106608943D01*
X115320097Y-106610845D01*
X115318907Y-106612355D01*
X115318786Y-106612726D01*
X115318657Y-106612912D01*
X115318713Y-106612951D01*
X115300000Y-106670546D01*
X115300000Y-107050000D01*
X114431990Y-107050000D01*
X114373799Y-107031093D01*
X114346255Y-107000502D01*
X114331623Y-106975160D01*
X114331341Y-106973834D01*
X114330357Y-106972901D01*
X114321731Y-106951280D01*
X114309861Y-106906978D01*
X114309861Y-106906977D01*
X114308374Y-106901427D01*
X114305000Y-106875803D01*
X114305000Y-106824195D01*
X114308373Y-106798573D01*
X114315705Y-106771210D01*
X114321732Y-106748712D01*
X114331618Y-106724844D01*
X114357422Y-106680150D01*
X114370707Y-106662836D01*
X114371338Y-106661515D01*
X114371995Y-106661157D01*
X114373145Y-106659659D01*
X114409657Y-106623147D01*
X114430152Y-106607421D01*
X114474845Y-106581618D01*
X114498720Y-106571730D01*
X114510522Y-106568567D01*
X114510523Y-106568568D01*
X114548574Y-106558373D01*
X114574195Y-106555000D01*
X114625806Y-106555000D01*
X114651426Y-106558372D01*
G37*
%TD.AperFunction*%
%TA.AperFunction,Conductor*%
G36*
X115319881Y-105662033D02*
G01*
X115319602Y-105662843D01*
X115318907Y-105663349D01*
X115309681Y-105691743D01*
X115300014Y-105719903D01*
X115300265Y-105720722D01*
X115300000Y-105721540D01*
X115300000Y-106034074D01*
X115318905Y-106092262D01*
X115302531Y-106069725D01*
X115302530Y-106069724D01*
X115302529Y-106069722D01*
X115273150Y-106040343D01*
X115257422Y-106019846D01*
X115231618Y-105975152D01*
X115221730Y-105951278D01*
X115208373Y-105901425D01*
X115205000Y-105875804D01*
X115205000Y-105824195D01*
X115208372Y-105798578D01*
X115211173Y-105788122D01*
X115236795Y-105743737D01*
X115328995Y-105651538D01*
X115319881Y-105662033D01*
G37*
%TD.AperFunction*%
%TA.AperFunction,Conductor*%
G36*
X115393735Y-105586797D02*
G01*
X115393737Y-105586795D01*
X115414069Y-105575057D01*
X115393735Y-105586797D01*
G37*
%TD.AperFunction*%
%TA.AperFunction,Conductor*%
G36*
X115625150Y-105581616D02*
G01*
X115609906Y-105575303D01*
X115609904Y-105575302D01*
X115625150Y-105581616D01*
G37*
%TD.AperFunction*%
%TA.AperFunction,Conductor*%
G36*
X115448578Y-105558372D02*
G01*
X115448574Y-105558373D01*
X115447777Y-105558586D01*
X115448579Y-105558371D01*
X115448578Y-105558372D01*
G37*
%TD.AperFunction*%
%TD*%
%TA.AperFunction,Conductor*%
%TO.N,VMOTOR*%
G36*
X123300000Y-106649999D02*
G01*
X122300000Y-106649999D01*
X122300000Y-105748999D01*
X122318907Y-105690808D01*
X122368407Y-105654844D01*
X122399000Y-105649999D01*
X123300000Y-105649999D01*
X123300000Y-106649999D01*
G37*
%TD.AperFunction*%
%TD*%
%TA.AperFunction,Conductor*%
%TO.N,VMOTOR*%
G36*
X97800066Y-81505100D02*
G01*
X97800066Y-81659043D01*
X97781159Y-81717234D01*
X97731659Y-81753198D01*
X97701066Y-81758043D01*
X97547122Y-81758043D01*
X97800066Y-81505099D01*
X97800066Y-81505100D01*
G37*
%TD.AperFunction*%
%TA.AperFunction,Conductor*%
G36*
X95550066Y-79555099D02*
G01*
X95550066Y-79610984D01*
X95400066Y-79760985D01*
X95400066Y-79405099D01*
X95550066Y-79555099D01*
G37*
%TD.AperFunction*%
%TA.AperFunction,Conductor*%
G36*
X95400066Y-79310984D02*
G01*
X95400066Y-79307041D01*
X95418973Y-79248850D01*
X95468473Y-79212886D01*
X95499066Y-79208041D01*
X95503010Y-79208041D01*
X95400066Y-79310984D01*
G37*
%TD.AperFunction*%
%TD*%
%TA.AperFunction,Conductor*%
%TO.N,VMOTOR*%
G36*
X100350066Y-75955092D02*
G01*
X100350066Y-76109043D01*
X100331159Y-76167234D01*
X100281659Y-76203198D01*
X100251066Y-76208043D01*
X100097116Y-76208043D01*
X100350065Y-75955092D01*
X100350066Y-75955089D01*
X100350066Y-75955092D01*
G37*
%TD.AperFunction*%
%TA.AperFunction,Conductor*%
G36*
X100350066Y-75860981D02*
G01*
X100247127Y-75758043D01*
X100350066Y-75758043D01*
X100350066Y-75860981D01*
G37*
%TD.AperFunction*%
%TA.AperFunction,Conductor*%
G36*
X98100066Y-74258043D02*
G01*
X97950065Y-74258043D01*
X97950065Y-73607043D01*
X97968972Y-73548852D01*
X98018472Y-73512888D01*
X98049065Y-73508043D01*
X98100065Y-73508043D01*
X98100066Y-73508043D01*
X98100066Y-74258043D01*
G37*
%TD.AperFunction*%
%TD*%
%TA.AperFunction,Conductor*%
%TO.N,VMOTOR*%
G36*
X97500066Y-77108042D02*
G01*
X97603008Y-77108042D01*
X97228008Y-77483041D01*
X97050066Y-77305101D01*
X96623011Y-76878049D01*
X96595234Y-76823534D01*
X96604805Y-76763102D01*
X96623007Y-76738048D01*
X96655964Y-76705092D01*
X97500066Y-75860984D01*
X97500066Y-77108042D01*
G37*
%TD.AperFunction*%
%TA.AperFunction,Conductor*%
G36*
X99465653Y-77289507D02*
G01*
X99408754Y-77232608D01*
X99408751Y-77232606D01*
X99408749Y-77232604D01*
X99303750Y-77171983D01*
X99303752Y-77171983D01*
X99258308Y-77159806D01*
X99186626Y-77140600D01*
X99065374Y-77140600D01*
X98993691Y-77159806D01*
X98958354Y-77169274D01*
X98897122Y-77108042D01*
X99647117Y-77108042D01*
X99465653Y-77289507D01*
G37*
%TD.AperFunction*%
%TA.AperFunction,Conductor*%
G36*
X99900066Y-76855091D02*
G01*
X99900066Y-76808043D01*
X99947115Y-76808043D01*
X99900066Y-76855091D01*
G37*
%TD.AperFunction*%
%TA.AperFunction,Conductor*%
G36*
X100053865Y-76620152D02*
G01*
X100058664Y-76681149D01*
X100053865Y-76695920D01*
X100050066Y-76705089D01*
X100050066Y-76610981D01*
X100053865Y-76620152D01*
G37*
%TD.AperFunction*%
%TD*%
%TA.AperFunction,Conductor*%
%TO.N,VMOTOR*%
G36*
X117650216Y-104895646D02*
G01*
X117691307Y-104940980D01*
X117700000Y-104981546D01*
X117700000Y-107935319D01*
X117695154Y-107965912D01*
X117691032Y-107978598D01*
X117655080Y-108028089D01*
X117650959Y-108031084D01*
X117592771Y-108050000D01*
X115399000Y-108050000D01*
X115340809Y-108031093D01*
X115304845Y-107981593D01*
X115300000Y-107951000D01*
X115300000Y-106670546D01*
X115318713Y-106612951D01*
X115318657Y-106612912D01*
X115318786Y-106612726D01*
X115318907Y-106612355D01*
X115320097Y-106610845D01*
X115321427Y-106608934D01*
X115321437Y-106608924D01*
X115352993Y-106552578D01*
X115371900Y-106494387D01*
X115380000Y-106443246D01*
X115380000Y-106256753D01*
X115379490Y-106243766D01*
X115378271Y-106228279D01*
X115360743Y-106166132D01*
X115332967Y-106111617D01*
X115318905Y-106092262D01*
X115300000Y-106034074D01*
X115300000Y-105721540D01*
X115300265Y-105720722D01*
X115300014Y-105719903D01*
X115309681Y-105691743D01*
X115318907Y-105663349D01*
X115319602Y-105662843D01*
X115319881Y-105662033D01*
X115328995Y-105651538D01*
X115393735Y-105586797D01*
X115438125Y-105561171D01*
X115443089Y-105559841D01*
X115448586Y-105558370D01*
X115474196Y-105555000D01*
X115525806Y-105555000D01*
X115551426Y-105558372D01*
X115576953Y-105565211D01*
X115576953Y-105565212D01*
X115589472Y-105568566D01*
X115601275Y-105571728D01*
X115606009Y-105573689D01*
X115607800Y-105573719D01*
X115609906Y-105575303D01*
X115625150Y-105581616D01*
X115669847Y-105607422D01*
X115690343Y-105623148D01*
X115719726Y-105652531D01*
X115729264Y-105661348D01*
X115741076Y-105671437D01*
X115797422Y-105702993D01*
X115855613Y-105721900D01*
X115876069Y-105725140D01*
X115906751Y-105730000D01*
X115906754Y-105730000D01*
X116093236Y-105730000D01*
X116093246Y-105730000D01*
X116106233Y-105729490D01*
X116121719Y-105728271D01*
X116172894Y-105713837D01*
X116183863Y-105710744D01*
X116183863Y-105710743D01*
X116183866Y-105710743D01*
X116238383Y-105682966D01*
X116280275Y-105652530D01*
X116309653Y-105623150D01*
X116330144Y-105607426D01*
X116374846Y-105581617D01*
X116398717Y-105571731D01*
X116410522Y-105568567D01*
X116410523Y-105568568D01*
X116448574Y-105558373D01*
X116474195Y-105555000D01*
X116525803Y-105555000D01*
X116551425Y-105558373D01*
X116617305Y-105576025D01*
X116645979Y-105580926D01*
X116647218Y-105581157D01*
X116647413Y-105581172D01*
X116647425Y-105581174D01*
X116647428Y-105581175D01*
X116683724Y-105583971D01*
X116686326Y-105584151D01*
X116764252Y-105569927D01*
X116820065Y-105544855D01*
X116863396Y-105516511D01*
X117534513Y-104908194D01*
X117590325Y-104883123D01*
X117650216Y-104895646D01*
G37*
%TD.AperFunction*%
%TD*%
%TA.AperFunction,Conductor*%
%TO.N,PD_VBUS*%
G36*
X74866600Y-94686347D02*
G01*
X74953156Y-94722200D01*
X75524645Y-94722200D01*
X75582836Y-94741107D01*
X75594649Y-94751196D01*
X76365504Y-95522051D01*
X76393281Y-95576568D01*
X76394500Y-95592055D01*
X76394500Y-96394896D01*
X76401036Y-96455694D01*
X76401038Y-96455705D01*
X76452335Y-96593240D01*
X76468848Y-96615298D01*
X76540310Y-96710759D01*
X76540313Y-96710761D01*
X76540314Y-96710762D01*
X76657828Y-96798733D01*
X76795363Y-96850030D01*
X76795364Y-96850030D01*
X76795369Y-96850032D01*
X76835000Y-96854292D01*
X76835000Y-97046100D01*
X74910508Y-97046100D01*
X74904118Y-97022253D01*
X74904116Y-97022250D01*
X74904116Y-97022248D01*
X74843495Y-96917250D01*
X74843493Y-96917248D01*
X74843492Y-96917246D01*
X74757754Y-96831508D01*
X74757751Y-96831506D01*
X74757749Y-96831504D01*
X74652750Y-96770883D01*
X74652752Y-96770883D01*
X74607308Y-96758706D01*
X74535626Y-96739500D01*
X74414374Y-96739500D01*
X74342691Y-96758706D01*
X74297248Y-96770883D01*
X74192250Y-96831504D01*
X74192249Y-96831505D01*
X74192246Y-96831507D01*
X74192246Y-96831508D01*
X74106508Y-96917246D01*
X74106506Y-96917248D01*
X74104503Y-96919252D01*
X74049986Y-96947029D01*
X73989554Y-96937458D01*
X73946289Y-96894193D01*
X73935499Y-96849248D01*
X73935499Y-95053156D01*
X73899646Y-94966600D01*
X73833399Y-94900352D01*
X73833399Y-94900353D01*
X73655748Y-94722702D01*
X73627971Y-94668185D01*
X73631469Y-94646100D01*
X74826353Y-94646100D01*
X74866600Y-94686347D01*
G37*
%TD.AperFunction*%
%TD*%
%TA.AperFunction,Conductor*%
%TO.N,VMOTOR*%
G36*
X127811191Y-68818907D02*
G01*
X127847155Y-68868407D01*
X127852000Y-68899000D01*
X127852000Y-70405062D01*
X127852000Y-71252600D01*
X127833093Y-71310791D01*
X127783593Y-71346755D01*
X127753000Y-71351600D01*
X125452000Y-71351600D01*
X125452000Y-68800000D01*
X126562607Y-68800000D01*
X127753000Y-68800000D01*
X127811191Y-68818907D01*
G37*
%TD.AperFunction*%
%TD*%
%TA.AperFunction,Conductor*%
%TO.N,MOTOR_B1*%
G36*
X115300000Y-114649999D02*
G01*
X114300000Y-114649999D01*
X114300000Y-113748999D01*
X114318907Y-113690808D01*
X114368407Y-113654844D01*
X114399000Y-113649999D01*
X115300000Y-113649999D01*
X115300000Y-114649999D01*
G37*
%TD.AperFunction*%
%TD*%
%TA.AperFunction,Conductor*%
%TO.N,MOTOR_A2*%
G36*
X102460000Y-89613876D02*
G01*
X102278537Y-89795771D01*
X102278535Y-89795769D01*
X102278533Y-89789599D01*
X102257166Y-89747655D01*
X102266743Y-89687224D01*
X102284945Y-89662175D01*
X102460000Y-89487147D01*
X102460000Y-89613876D01*
G37*
%TD.AperFunction*%
%TA.AperFunction,Conductor*%
G36*
X107199000Y-86446000D02*
G01*
X108895999Y-86446000D01*
X105821173Y-89520344D01*
X105766654Y-89548117D01*
X105706223Y-89538541D01*
X105662962Y-89495273D01*
X105655548Y-89475957D01*
X105655500Y-89475777D01*
X105655500Y-89475774D01*
X105624118Y-89358653D01*
X105624115Y-89358648D01*
X105563495Y-89253650D01*
X105563493Y-89253648D01*
X105563492Y-89253646D01*
X105477754Y-89167908D01*
X105477751Y-89167906D01*
X105477749Y-89167904D01*
X105372750Y-89107283D01*
X105372752Y-89107283D01*
X105327308Y-89095106D01*
X105255626Y-89075900D01*
X105134374Y-89075900D01*
X105112000Y-89081894D01*
X105112000Y-88532299D01*
X104282722Y-88532299D01*
X103909982Y-88160444D01*
X103539010Y-88532299D01*
X103414998Y-88532299D01*
X105018505Y-86929042D01*
X105073021Y-86901271D01*
X105133452Y-86910847D01*
X105176713Y-86954115D01*
X105184807Y-86987835D01*
X105186653Y-86987592D01*
X105187499Y-86994023D01*
X105218883Y-87111151D01*
X105279504Y-87216149D01*
X105279506Y-87216151D01*
X105279508Y-87216154D01*
X105365246Y-87301892D01*
X105365248Y-87301893D01*
X105365250Y-87301895D01*
X105470249Y-87362516D01*
X105470247Y-87362516D01*
X105470251Y-87362517D01*
X105470253Y-87362518D01*
X105587374Y-87393900D01*
X105587376Y-87393900D01*
X105708624Y-87393900D01*
X105708626Y-87393900D01*
X105825747Y-87362518D01*
X105825749Y-87362516D01*
X105825751Y-87362516D01*
X105930749Y-87301895D01*
X105930749Y-87301894D01*
X105930754Y-87301892D01*
X106016492Y-87216154D01*
X106077118Y-87111147D01*
X106108500Y-86994026D01*
X106108500Y-86872774D01*
X106077118Y-86755653D01*
X106077116Y-86755650D01*
X106077116Y-86755648D01*
X106016495Y-86650650D01*
X106016493Y-86650648D01*
X106016492Y-86650646D01*
X105930754Y-86564908D01*
X105930751Y-86564906D01*
X105930749Y-86564904D01*
X105825750Y-86504283D01*
X105825752Y-86504283D01*
X105708623Y-86472899D01*
X105702192Y-86472053D01*
X105702559Y-86469263D01*
X105655559Y-86453993D01*
X105619595Y-86404493D01*
X105619595Y-86343307D01*
X105643748Y-86303896D01*
X106145506Y-85802216D01*
X106200021Y-85774446D01*
X106260452Y-85784022D01*
X106303713Y-85827290D01*
X106314500Y-85872228D01*
X106314500Y-85950754D01*
X106340771Y-86048796D01*
X106340773Y-86048800D01*
X106391522Y-86136699D01*
X106391524Y-86136702D01*
X106463298Y-86208476D01*
X106463300Y-86208477D01*
X106551199Y-86259226D01*
X106551203Y-86259228D01*
X106649245Y-86285499D01*
X106649247Y-86285500D01*
X106649248Y-86285500D01*
X106750753Y-86285500D01*
X106750753Y-86285499D01*
X106848797Y-86259228D01*
X106936702Y-86208476D01*
X107008476Y-86136702D01*
X107059228Y-86048797D01*
X107085500Y-85950752D01*
X107085500Y-85849248D01*
X107059228Y-85751203D01*
X107008476Y-85663298D01*
X106936702Y-85591524D01*
X106936699Y-85591522D01*
X106848800Y-85540773D01*
X106848796Y-85540771D01*
X106750754Y-85514500D01*
X106750752Y-85514500D01*
X106688253Y-85514500D01*
X106630062Y-85495593D01*
X106594098Y-85446093D01*
X106594098Y-85384907D01*
X106618247Y-85345498D01*
X106626492Y-85337254D01*
X106641758Y-85310810D01*
X106657482Y-85290320D01*
X107199000Y-84748886D01*
X107199000Y-86446000D01*
G37*
%TD.AperFunction*%
%TA.AperFunction,Conductor*%
G36*
X109359883Y-85245151D02*
G01*
X109356175Y-85231315D01*
X109331721Y-85140046D01*
X109359883Y-85245151D01*
G37*
%TD.AperFunction*%
%TA.AperFunction,Conductor*%
G36*
X109506248Y-84698906D02*
G01*
X109506250Y-84698904D01*
X109533299Y-84683287D01*
X109506248Y-84698906D01*
G37*
%TD.AperFunction*%
%TA.AperFunction,Conductor*%
G36*
X108444073Y-83600744D02*
G01*
X108469130Y-83618952D01*
X108896110Y-84045999D01*
X107901997Y-84045999D01*
X108329123Y-83618940D01*
X108383642Y-83591168D01*
X108444073Y-83600744D01*
G37*
%TD.AperFunction*%
%TD*%
%TA.AperFunction,Conductor*%
%TO.N,MOTOR_A2*%
G36*
X125659191Y-114668906D02*
G01*
X125695155Y-114718406D01*
X125700000Y-114748999D01*
X125700000Y-117951000D01*
X125681093Y-118009191D01*
X125631593Y-118045155D01*
X125601000Y-118050000D01*
X123300000Y-118050000D01*
X123300000Y-114649999D01*
X125601000Y-114649999D01*
X125659191Y-114668906D01*
G37*
%TD.AperFunction*%
%TD*%
%TA.AperFunction,Conductor*%
%TO.N,VMOTOR*%
G36*
X98377119Y-80188045D02*
G01*
X98404895Y-80242560D01*
X98395324Y-80302992D01*
X98377118Y-80328051D01*
X98250066Y-80455102D01*
X97950066Y-80755100D01*
X97950066Y-80605097D01*
X98372119Y-80183045D01*
X98377119Y-80188045D01*
G37*
%TD.AperFunction*%
%TA.AperFunction,Conductor*%
G36*
X94950065Y-80455093D02*
G01*
X94950063Y-80455091D01*
X94946266Y-80445923D01*
X94941465Y-80384926D01*
X94946266Y-80370149D01*
X94950062Y-80360982D01*
X94950065Y-80360979D01*
X94950065Y-80455093D01*
G37*
%TD.AperFunction*%
%TD*%
M02*
