M48
; DRILL file KiCad 10.0.5 date 2026-10-09T13:23:20
; FORMAT={-:-/ absolute / metric / decimal}
; #@! TF.CreationDate,2026-10-09T13:23:20+05:30
; #@! TF.GenerationSoftware,Kicad,Pcbnew,10.0.5
; #@! TF.FileFunction,Plated,1,4,PTH
FMAT,2
METRIC
; #@! TA.AperFunction,Plated,PTH,ViaDrill
T1C0.200
; #@! TA.AperFunction,Plated,PTH,ViaDrill
T2C0.300
; #@! TA.AperFunction,Plated,PTH,ComponentDrill
T3C0.700
; #@! TA.AperFunction,Plated,PTH,ComponentDrill
T4C0.914
; #@! TA.AperFunction,Plated,PTH,ComponentDrill
T5C1.200
; #@! TA.AperFunction,Plated,PTH,ComponentDrill
T6C1.800
%
G90
G05
T1
X62.252Y-105.457
X64.972Y-85.617
X66.101Y-75.822
X67.043Y-100.935
X67.182Y-83.074
X67.536Y-97.579
X67.536Y-98.187
X67.639Y-77.931
X67.775Y-128.5
X67.938Y-100.938
X68.278Y-77.598
X68.278Y-104.927
X68.5Y-93.0
X69.328Y-78.032
X69.751Y-79.817
X69.936Y-108.509
X70.168Y-98.739
X71.392Y-81.9
X72.25Y-103.575
X72.982Y-87.301
X73.172Y-115.314
X73.3Y-88.4
X73.525Y-84.3
X73.572Y-113.418
X74.144Y-105.01
X74.15Y-97.8
X74.45Y-127.9
X74.9Y-126.45
X75.026Y-129.655
X75.027Y-94.908
X76.5Y-101.0
X76.829Y-113.455
X76.918Y-112.123
X77.166Y-103.887
X77.207Y-110.825
X77.515Y-123.55
X77.746Y-98.27
X77.978Y-78.13
X78.06Y-105.108
X78.883Y-70.997
X78.911Y-70.204
X78.953Y-91.19
X79.103Y-77.045
X79.127Y-96.023
X79.779Y-104.023
X79.964Y-77.041
X80.175Y-70.962
X81.5Y-132.15
X81.5Y-80.0
X81.7Y-70.0
X81.95Y-60.0
X82.4Y-101.4
X82.588Y-117.993
X82.7Y-101.05
X82.807Y-128.913
X82.814Y-136.394
X82.992Y-110.883
X83.414Y-131.894
X83.611Y-97.757
X84.0Y-104.45
X84.415Y-129.85
X85.174Y-120.752
X85.324Y-132.002
X85.385Y-138.2
X85.99Y-108.854
X86.015Y-104.16
X86.889Y-108.842
X87.5Y-104.018
X87.907Y-137.613
X87.926Y-79.085
X88.501Y-108.956
X89.037Y-61.637
X89.84Y-68.474
X90.0Y-125.3
X90.1Y-133.35
X90.7Y-115.8
X91.0Y-113.25
X91.174Y-135.217
X91.565Y-122.46
X91.65Y-130.1
X91.9Y-95.761
X91.912Y-99.122
X91.992Y-97.164
X92.08Y-113.37
X92.837Y-111.495
X93.73Y-122.52
X94.265Y-128.91
X95.183Y-120.761
X95.725Y-126.862
X95.826Y-113.728
X96.13Y-129.42
X96.55Y-99.05
X96.767Y-131.214
X97.577Y-133.074
X97.728Y-106.083
X98.129Y-103.97
X98.221Y-115.623
X98.385Y-113.523
X99.532Y-78.086
X100.4Y-106.0
X100.521Y-95.798
X101.116Y-113.017
X101.275Y-71.037
X101.304Y-77.786
X101.582Y-110.89
X101.904Y-100.193
X102.347Y-117.935
X102.421Y-72.122
X102.8Y-101.0
X103.45Y-125.55
X103.7Y-74.2
X104.0Y-107.0
X104.223Y-98.663
X104.65Y-106.2
X104.75Y-93.75
X104.75Y-95.25
X104.8Y-98.8
X105.7Y-104.1
X105.9Y-74.2
X106.195Y-109.014
X106.7Y-85.9
X107.25Y-98.5
X107.381Y-75.159
X107.4Y-102.58
X107.61Y-103.912
X107.7Y-90.0
X108.25Y-104.0
X110.1Y-103.9
X110.1Y-111.6
X110.75Y-128.85
X111.5Y-101.6
X111.7Y-101.1
X111.8Y-117.3
X112.554Y-103.594
X112.75Y-87.5
X112.922Y-109.847
X114.906Y-131.0
X117.2Y-97.7
X118.418Y-128.964
X120.0Y-72.05
X120.1Y-133.069
X123.114Y-121.518
X126.1Y-75.5
X126.197Y-132.62
X129.0Y-73.5
X130.589Y-97.521
X132.216Y-101.48
X133.5Y-109.5
X133.6Y-103.3
X134.2Y-72.4
X135.2Y-109.7
X136.7Y-106.6
X136.7Y-107.2
X137.1Y-109.7
T2
X60.001Y-104.245
X61.325Y-111.783
X64.035Y-120.616
X65.337Y-126.287
X65.977Y-116.898
X66.101Y-76.722
X66.354Y-106.311
X66.96Y-114.455
X67.242Y-74.627
X67.54Y-98.953
X67.624Y-75.9
X67.795Y-105.765
X67.863Y-74.17
X68.406Y-83.817
X68.715Y-92.54
X69.5Y-100.799
X69.796Y-92.044
X69.905Y-124.734
X70.125Y-82.687
X70.31Y-128.66
X70.825Y-93.9
X70.975Y-101.5
X71.463Y-76.876
X71.593Y-96.235
X71.695Y-94.849
X71.704Y-92.707
X72.082Y-86.401
X72.082Y-87.301
X72.082Y-88.201
X72.364Y-74.543
X72.555Y-113.73
X72.982Y-86.401
X73.0Y-99.85
X73.014Y-73.819
X73.06Y-79.665
X73.128Y-74.7
X73.132Y-75.785
X73.138Y-77.403
X73.662Y-81.9
X73.931Y-110.25
X74.009Y-88.853
X74.079Y-101.046
X74.475Y-97.2
X74.517Y-111.329
X74.524Y-112.667
X74.729Y-108.727
X75.049Y-115.35
X75.32Y-71.039
X75.462Y-107.752
X75.504Y-84.44
X75.644Y-88.802
X75.808Y-116.44
X75.878Y-64.93
X76.003Y-107.075
X76.659Y-78.913
X76.963Y-111.476
X77.112Y-126.67
X77.189Y-62.1
X77.212Y-61.316
X77.349Y-73.126
X77.462Y-108.964
X77.664Y-91.068
X77.7Y-68.043
X77.993Y-117.482
X78.051Y-114.253
X78.052Y-89.39
X78.052Y-90.29
X78.202Y-115.016
X78.202Y-126.41
X78.224Y-108.963
X78.23Y-70.881
X78.337Y-66.759
X78.478Y-130.263
X78.589Y-81.135
X79.015Y-106.529
X79.026Y-121.248
X79.031Y-109.234
X79.274Y-110.648
X79.355Y-75.84
X79.406Y-126.824
X79.648Y-83.054
X79.713Y-125.823
X79.793Y-109.234
X79.794Y-105.506
X79.904Y-78.038
X80.086Y-117.512
X80.104Y-110.55
X80.278Y-113.636
X80.635Y-98.96
X80.684Y-93.226
X80.928Y-78.564
X80.973Y-128.408
X81.026Y-73.397
X81.118Y-96.445
X81.262Y-62.099
X81.37Y-113.527
X81.508Y-115.038
X81.825Y-99.456
X82.174Y-132.174
X82.31Y-78.185
X82.474Y-110.357
X82.524Y-112.751
X82.602Y-118.939
X82.825Y-65.535
X82.845Y-115.032
X83.018Y-113.335
X83.311Y-117.237
X83.354Y-107.092
X83.694Y-63.4
X84.013Y-128.315
X84.087Y-88.65
X84.187Y-60.439
X84.346Y-71.0
X84.624Y-82.916
X84.624Y-83.816
X84.624Y-84.716
X84.679Y-118.056
X84.701Y-79.868
X84.808Y-115.348
X84.999Y-105.186
X85.232Y-95.175
X85.364Y-108.808
X85.469Y-113.25
X85.473Y-112.466
X85.65Y-90.0
X85.726Y-73.004
X85.845Y-106.68
X85.86Y-94.208
X86.0Y-127.974
X86.047Y-96.517
X86.2Y-60.75
X86.854Y-82.437
X86.93Y-128.165
X87.237Y-61.637
X87.299Y-132.644
X87.305Y-96.024
X87.357Y-120.711
X87.5Y-112.708
X87.521Y-74.026
X87.537Y-107.692
X87.641Y-109.118
X87.723Y-86.336
X88.137Y-61.637
X88.273Y-76.185
X88.49Y-86.042
X88.799Y-97.451
X89.037Y-60.737
X89.041Y-82.445
X89.19Y-65.45
X89.19Y-66.35
X89.19Y-67.25
X89.575Y-136.85
X89.696Y-122.47
X89.933Y-104.094
X89.937Y-61.637
X89.976Y-136.249
X90.225Y-136.85
X90.6Y-65.85
X90.6Y-66.75
X90.739Y-69.374
X90.837Y-61.637
X91.028Y-77.0
X91.028Y-77.9
X91.266Y-116.705
X91.402Y-75.768
X91.5Y-65.85
X91.5Y-66.85
X91.639Y-69.374
X91.732Y-92.111
X91.85Y-93.1
X91.905Y-60.5
X91.928Y-77.9
X91.996Y-127.004
X92.058Y-124.784
X92.404Y-128.94
X92.5Y-65.85
X92.5Y-66.85
X92.866Y-107.96
X93.4Y-66.85
X93.72Y-106.133
X93.846Y-72.057
X93.9Y-119.957
X94.029Y-95.947
X94.247Y-93.44
X94.83Y-61.287
X94.856Y-72.265
X95.025Y-132.05
X95.032Y-70.923
X95.129Y-116.042
X95.274Y-131.449
X95.512Y-108.753
X95.695Y-77.955
X95.717Y-113.05
X96.0Y-81.608
X96.073Y-107.701
X96.196Y-127.38
X96.275Y-114.765
X96.355Y-91.784
X96.37Y-102.086
X96.565Y-111.078
X96.592Y-72.038
X96.728Y-97.985
X97.235Y-97.084
X97.524Y-93.917
X97.687Y-77.947
X97.804Y-91.349
X97.846Y-127.0
X97.968Y-107.132
X98.206Y-98.526
X98.317Y-114.852
X98.743Y-132.6
X98.746Y-127.9
X98.99Y-82.451
X99.126Y-77.601
X99.279Y-99.914
X99.3Y-72.308
X99.502Y-126.954
X100.034Y-72.189
X100.108Y-130.754
X100.111Y-99.11
X100.751Y-127.079
X100.82Y-87.585
X101.184Y-126.074
X101.25Y-72.2
X101.26Y-92.067
X101.275Y-70.137
X101.363Y-118.537
X101.393Y-95.617
X101.428Y-94.514
X101.531Y-123.056
X101.542Y-134.2
X101.822Y-120.06
X101.989Y-99.544
X102.175Y-105.978
X102.221Y-91.95
X102.4Y-127.95
X102.429Y-90.508
X102.504Y-83.872
X102.526Y-98.526
X102.532Y-93.186
X102.536Y-95.373
X102.935Y-73.105
X103.172Y-78.312
X103.188Y-76.863
X103.325Y-101.511
X103.326Y-102.963
X103.542Y-79.971
X103.557Y-82.391
X103.582Y-104.06
X103.66Y-91.54
X103.77Y-73.484
X104.029Y-109.087
X104.094Y-114.892
X104.385Y-99.736
X104.517Y-103.891
X104.617Y-70.25
X104.647Y-90.197
X105.195Y-89.536
X105.528Y-85.423
X105.648Y-86.933
X105.712Y-111.0
X105.758Y-71.457
X105.957Y-102.124
X106.171Y-76.006
X106.195Y-132.01
X106.258Y-85.054
X106.6Y-66.85
X106.626Y-110.252
X106.638Y-103.112
X106.75Y-79.513
X106.816Y-111.111
X107.112Y-85.246
X107.274Y-81.597
X107.384Y-77.757
X107.5Y-65.85
X107.5Y-66.85
X107.588Y-133.234
X107.844Y-106.291
X108.0Y-98.575
X108.012Y-85.246
X108.174Y-80.697
X108.174Y-81.597
X108.285Y-100.59
X108.298Y-111.611
X108.5Y-65.85
X108.5Y-66.85
X108.674Y-130.914
X108.912Y-84.346
X108.912Y-85.246
X109.013Y-110.802
X109.25Y-115.982
X109.25Y-123.987
X109.4Y-66.85
X109.632Y-77.983
X109.789Y-85.067
X109.82Y-113.631
X109.976Y-128.117
X110.177Y-89.397
X110.362Y-114.697
X110.538Y-102.39
X110.538Y-112.203
X110.675Y-86.456
X110.948Y-114.2
X111.24Y-89.744
X111.679Y-99.366
X111.836Y-132.818
X111.894Y-98.522
X112.0Y-131.812
X112.2Y-92.1
X112.248Y-104.884
X112.248Y-114.97
X112.347Y-129.094
X112.743Y-119.476
X112.848Y-101.8
X113.005Y-107.565
X113.083Y-82.951
X113.121Y-71.819
X113.322Y-132.912
X113.466Y-97.691
X113.618Y-96.694
X113.65Y-86.6
X113.65Y-87.5
X113.65Y-88.4
X114.516Y-96.53
X114.591Y-99.663
X114.6Y-106.85
X114.6Y-114.85
X114.6Y-115.75
X114.7Y-116.75
X114.866Y-91.94
X115.135Y-95.661
X115.491Y-69.878
X115.5Y-82.85
X115.5Y-83.85
X115.5Y-105.85
X115.5Y-106.85
X115.5Y-114.85
X115.5Y-115.85
X115.6Y-116.75
X116.4Y-81.95
X116.4Y-84.75
X116.412Y-99.767
X116.5Y-82.85
X116.5Y-83.85
X116.5Y-105.85
X116.5Y-106.85
X116.5Y-114.85
X116.5Y-115.85
X116.602Y-89.158
X117.196Y-121.018
X117.2Y-96.8
X117.3Y-81.95
X117.4Y-83.85
X118.061Y-127.77
X118.1Y-92.85
X118.1Y-96.8
X118.1Y-97.7
X118.2Y-90.95
X118.344Y-85.777
X119.0Y-91.85
X119.0Y-92.85
X119.1Y-90.95
X119.617Y-114.063
X119.617Y-114.963
X119.98Y-116.481
X119.98Y-118.281
X120.0Y-91.85
X120.0Y-92.85
X120.108Y-130.526
X120.517Y-114.063
X120.517Y-114.963
X120.517Y-115.863
X120.88Y-117.381
X122.03Y-102.488
X122.341Y-96.534
X122.537Y-132.124
X122.57Y-98.011
X123.104Y-92.061
X123.241Y-96.534
X123.241Y-97.434
X123.5Y-106.85
X123.5Y-107.85
X123.5Y-108.75
X123.5Y-114.95
X123.5Y-115.85
X123.5Y-116.85
X123.6Y-105.95
X123.706Y-119.735
X123.794Y-126.586
X124.141Y-96.534
X124.4Y-108.75
X124.4Y-114.95
X124.5Y-106.85
X124.5Y-107.85
X124.5Y-115.85
X124.5Y-116.85
X124.606Y-120.635
X124.606Y-118.835
X124.825Y-101.563
X125.041Y-96.534
X125.2Y-75.5
X125.31Y-121.358
X125.506Y-118.835
X126.1Y-76.4
X126.128Y-123.089
X126.436Y-126.04
X126.786Y-111.15
X127.0Y-75.5
X127.2Y-73.5
X127.296Y-121.825
X127.444Y-114.594
X127.444Y-115.494
X127.444Y-116.394
X128.087Y-129.983
X128.1Y-73.5
X128.344Y-114.594
X128.344Y-115.494
X128.344Y-116.394
X128.656Y-132.065
X129.0Y-74.4
X129.697Y-123.1
X129.697Y-124.0
X129.697Y-124.9
X129.9Y-73.5
X130.597Y-123.1
X130.597Y-124.0
X130.597Y-124.9
X130.8Y-73.5
X130.906Y-112.235
X131.241Y-126.561
X131.5Y-106.85
X131.5Y-107.85
X131.5Y-114.95
X131.5Y-115.85
X131.5Y-116.85
X131.822Y-118.825
X132.4Y-114.95
X132.5Y-105.95
X132.5Y-106.85
X132.5Y-107.85
X132.5Y-115.85
X132.5Y-116.85
X133.198Y-101.684
X133.452Y-118.807
X134.8Y-97.96
X134.961Y-113.296
X135.347Y-107.265
X135.692Y-127.08
X137.718Y-118.001
X137.992Y-120.054
X138.109Y-109.013
X138.618Y-118.901
T4
X89.0Y-138.0
X89.0Y-140.0
X91.0Y-138.0
X91.0Y-140.0
X93.0Y-138.0
X93.0Y-140.0
X95.0Y-138.0
X95.0Y-140.0
X97.0Y-138.0
X97.0Y-140.0
X99.0Y-138.0
X99.0Y-140.0
X101.0Y-138.0
X101.0Y-140.0
X103.0Y-138.0
X103.0Y-140.0
X105.0Y-138.0
X105.0Y-140.0
X107.0Y-138.0
X107.0Y-140.0
T5
X127.5Y-78.0
X129.5Y-92.0
X132.5Y-78.0
X134.5Y-92.0
T6
X98.02Y-63.5
X101.98Y-63.5
X114.06Y-139.0
X118.02Y-139.0
X121.98Y-139.0
X125.94Y-139.0
T3
X61.714Y-80.68G85X61.014Y-80.68
G05
X61.714Y-94.68G85X61.014Y-94.68
G05
X61.714Y-89.32G85X61.014Y-89.32
G05
X61.714Y-103.32G85X61.014Y-103.32
G05
X66.044Y-80.68G85X65.044Y-80.68
G05
X66.044Y-89.32G85X65.044Y-89.32
G05
X66.044Y-94.68G85X65.044Y-94.68
G05
X66.044Y-103.32G85X65.044Y-103.32
G05
M30
