%TF.GenerationSoftware,KiCad,Pcbnew,10.0.5*%
%TF.CreationDate,2026-10-11T02:49:48+05:30*%
%TF.ProjectId,pd1180-epr-r0.3,70643131-3830-42d6-9570-722d72302e33,rev?*%
%TF.SameCoordinates,Original*%
%TF.FileFunction,Drillmap*%
%TF.FilePolarity,Positive*%
%FSLAX45Y45*%
G04 Gerber Fmt 4.5, Leading zero omitted, Abs format (unit mm)*
G04 Created by KiCad (PCBNEW 10.0.5) date 2026-10-11 02:49:48*
%MOMM*%
%LPD*%
G01*
G04 APERTURE LIST*
%ADD10C,0.100000*%
%ADD11C,0.200000*%
%ADD12C,0.119999*%
%ADD13C,0.179999*%
G04 APERTURE END LIST*
D10*
X5705000Y-7295000D02*
X5905000Y-7095000D01*
X5705000Y-12705000D02*
X5705000Y-7295000D01*
X5905000Y-7095000D02*
X6505000Y-7095000D01*
X5905000Y-12905000D02*
X5705000Y-12705000D01*
X6505000Y-7095000D02*
X6582010Y-7089952D01*
X6505000Y-12905000D02*
X5905000Y-12905000D01*
X6582010Y-7089952D02*
X6657703Y-7074896D01*
X6582010Y-12910047D02*
X6505000Y-12905000D01*
X6657703Y-7074896D02*
X6730783Y-7050089D01*
X6657703Y-12925104D02*
X6582010Y-12910047D01*
X6730783Y-7050089D02*
X6800000Y-7015955D01*
X6730783Y-12949911D02*
X6657703Y-12925104D01*
X6800000Y-7015955D02*
X6864169Y-6973078D01*
X6800000Y-12984045D02*
X6730783Y-12949911D01*
X6864169Y-6973078D02*
X6922193Y-6922193D01*
X6864169Y-13026921D02*
X6800000Y-12984045D01*
X6922193Y-6922193D02*
X6973078Y-6864169D01*
X6922193Y-13077807D02*
X6864169Y-13026921D01*
X6973078Y-6864169D02*
X7015955Y-6800000D01*
X6973078Y-13135831D02*
X6922193Y-13077807D01*
X7015955Y-6800000D02*
X7050089Y-6730783D01*
X7015955Y-13200000D02*
X6973078Y-13135831D01*
X7050089Y-6730783D02*
X7074896Y-6657703D01*
X7050089Y-13269217D02*
X7015955Y-13200000D01*
X7074896Y-6657703D02*
X7089952Y-6582010D01*
X7074896Y-13342297D02*
X7050089Y-13269217D01*
X7089952Y-6582010D02*
X7095000Y-6505000D01*
X7089952Y-13417989D02*
X7074896Y-13342297D01*
X7095000Y-5905000D02*
X7295000Y-5705000D01*
X7095000Y-6505000D02*
X7095000Y-5905000D01*
X7095000Y-13495000D02*
X7089952Y-13417989D01*
X7095000Y-14095000D02*
X7095000Y-13495000D01*
X7295000Y-5705000D02*
X12705000Y-5705000D01*
X7295000Y-14295000D02*
X7095000Y-14095000D01*
X12705000Y-5705000D02*
X12905000Y-5905000D01*
X12705000Y-14295000D02*
X7295000Y-14295000D01*
X12905000Y-5905000D02*
X12905000Y-6505000D01*
X12905000Y-6505000D02*
X12910047Y-6582010D01*
X12905000Y-13495000D02*
X12905000Y-14095000D01*
X12905000Y-14095000D02*
X12705000Y-14295000D01*
X12910047Y-6582010D02*
X12925104Y-6657703D01*
X12910047Y-13417989D02*
X12905000Y-13495000D01*
X12925104Y-6657703D02*
X12949911Y-6730783D01*
X12925104Y-13342297D02*
X12910047Y-13417989D01*
X12949911Y-6730783D02*
X12984045Y-6800000D01*
X12949911Y-13269217D02*
X12925104Y-13342297D01*
X12984045Y-6800000D02*
X13026921Y-6864169D01*
X12984045Y-13200000D02*
X12949911Y-13269217D01*
X13026921Y-6864169D02*
X13077807Y-6922193D01*
X13026921Y-13135831D02*
X12984045Y-13200000D01*
X13077807Y-6922193D02*
X13135831Y-6973078D01*
X13077807Y-13077807D02*
X13026921Y-13135831D01*
X13135831Y-6973078D02*
X13200000Y-7015955D01*
X13135831Y-13026921D02*
X13077807Y-13077807D01*
X13200000Y-7015955D02*
X13269217Y-7050089D01*
X13200000Y-12984045D02*
X13135831Y-13026921D01*
X13269217Y-7050089D02*
X13342297Y-7074896D01*
X13269217Y-12949911D02*
X13200000Y-12984045D01*
X13342297Y-7074896D02*
X13417989Y-7089952D01*
X13342297Y-12925104D02*
X13269217Y-12949911D01*
X13417989Y-7089952D02*
X13495000Y-7095000D01*
X13417989Y-12910047D02*
X13342297Y-12925104D01*
X13495000Y-7095000D02*
X14095000Y-7095000D01*
X13495000Y-12905000D02*
X13417989Y-12910047D01*
X14095000Y-7095000D02*
X14295000Y-7295000D01*
X14095000Y-12905000D02*
X13495000Y-12905000D01*
X14295000Y-7295000D02*
X14295000Y-12705000D01*
X14295000Y-12705000D02*
X14095000Y-12905000D01*
D11*
D10*
X5990500Y-11178150D02*
X6020500Y-11208150D01*
X6020500Y-11178150D02*
X5990500Y-11208150D01*
X6002500Y-11504860D02*
X6032500Y-11534860D01*
X6032500Y-11504860D02*
X6002500Y-11534860D01*
X6080720Y-11593480D02*
X6110720Y-11623480D01*
X6110720Y-11593480D02*
X6080720Y-11623480D01*
X6148866Y-11464066D02*
X6178866Y-11494066D01*
X6178866Y-11464066D02*
X6148866Y-11494066D01*
X6199450Y-11419280D02*
X6229450Y-11449280D01*
X6229450Y-11419280D02*
X6199450Y-11449280D01*
X6200690Y-11504980D02*
X6230690Y-11534980D01*
X6230690Y-11504980D02*
X6200690Y-11534980D01*
X6207500Y-10505000D02*
X6237500Y-10535000D01*
X6237500Y-10505000D02*
X6207500Y-10535000D01*
X6244500Y-10893410D02*
X6274500Y-10923410D01*
X6274500Y-10893410D02*
X6244500Y-10923410D01*
X6280605Y-11785893D02*
X6310605Y-11815893D01*
X6310605Y-11785893D02*
X6280605Y-11815893D01*
X6291620Y-11657460D02*
X6321620Y-11687460D01*
X6321620Y-11657460D02*
X6291620Y-11687460D01*
X6308900Y-10748690D02*
X6338900Y-10778690D01*
X6338900Y-10748690D02*
X6308900Y-10778690D01*
X6308900Y-11246090D02*
X6338900Y-11276090D01*
X6338900Y-11246090D02*
X6308900Y-11276090D01*
X6447770Y-12273020D02*
X6477770Y-12303020D01*
X6477770Y-12273020D02*
X6447770Y-12303020D01*
X6448638Y-12498078D02*
X6478638Y-12528078D01*
X6478638Y-12498078D02*
X6448638Y-12528078D01*
X6472870Y-11177760D02*
X6502870Y-11207760D01*
X6502870Y-11177760D02*
X6472870Y-11207760D01*
X6490000Y-8306250D02*
X6520000Y-8336250D01*
X6520000Y-8306250D02*
X6490000Y-8336250D01*
X6502500Y-8595000D02*
X6532500Y-8625000D01*
X6532500Y-8595000D02*
X6502500Y-8625000D01*
X6507660Y-11503750D02*
X6537660Y-11533750D01*
X6537660Y-11503750D02*
X6507660Y-11533750D01*
X6559370Y-10665900D02*
X6589370Y-10695900D01*
X6589370Y-10665900D02*
X6559370Y-10695900D01*
X6562900Y-10755480D02*
X6592900Y-10785480D01*
X6592900Y-10755480D02*
X6562900Y-10785480D01*
X6585000Y-7663750D02*
X6615000Y-7693750D01*
X6615000Y-7663750D02*
X6585000Y-7693750D01*
X6607500Y-7867500D02*
X6637500Y-7897500D01*
X6637500Y-7867500D02*
X6607500Y-7897500D01*
X6607500Y-7957500D02*
X6637500Y-7987500D01*
X6637500Y-7957500D02*
X6607500Y-7987500D01*
X6665008Y-8310000D02*
X6695008Y-8340000D01*
X6695008Y-8310000D02*
X6665008Y-8340000D01*
X6672500Y-12835000D02*
X6702500Y-12865000D01*
X6702500Y-12835000D02*
X6672500Y-12865000D01*
X6681610Y-10615480D02*
X6711610Y-10645480D01*
X6711610Y-10615480D02*
X6681610Y-10645480D01*
X6693280Y-10067240D02*
X6723280Y-10097240D01*
X6723280Y-10067240D02*
X6693280Y-10097240D01*
X6696018Y-8654980D02*
X6726018Y-8684980D01*
X6726018Y-8654980D02*
X6696018Y-8684980D01*
X6712671Y-7534368D02*
X6742671Y-7564368D01*
X6742671Y-7534368D02*
X6712671Y-7564368D01*
X6717705Y-8428510D02*
X6747705Y-8458510D01*
X6747705Y-8428510D02*
X6717705Y-8458510D01*
X6732500Y-7745000D02*
X6762500Y-7775000D01*
X6762500Y-7745000D02*
X6732500Y-7775000D01*
X6747500Y-7385000D02*
X6777500Y-7415000D01*
X6777500Y-7385000D02*
X6747500Y-7415000D01*
X6750000Y-8362500D02*
X6780000Y-8392500D01*
X6780000Y-8362500D02*
X6750000Y-8392500D01*
X6760700Y-7609870D02*
X6790700Y-7639870D01*
X6790700Y-7609870D02*
X6760700Y-7639870D01*
X6762799Y-7495783D02*
X6792799Y-7525783D01*
X6792799Y-7495783D02*
X6762799Y-7525783D01*
X6772440Y-7254850D02*
X6802440Y-7284850D01*
X6802440Y-7254850D02*
X6772440Y-7284850D01*
X6779930Y-9679820D02*
X6809930Y-9709820D01*
X6809930Y-9679820D02*
X6779930Y-9709820D01*
X6780280Y-8648310D02*
X6810280Y-8678310D01*
X6810280Y-8648310D02*
X6780280Y-8678310D01*
X6791670Y-10385000D02*
X6821670Y-10415000D01*
X6821670Y-10385000D02*
X6791670Y-10415000D01*
X6802500Y-8745000D02*
X6832500Y-8775000D01*
X6832500Y-8745000D02*
X6802500Y-8775000D01*
X6814990Y-7204997D02*
X6844990Y-7234997D01*
X6844990Y-7204997D02*
X6814990Y-7234997D01*
X6830008Y-8000000D02*
X6860008Y-8030000D01*
X6860008Y-8000000D02*
X6830008Y-8030000D01*
X6840000Y-8362500D02*
X6870000Y-8392500D01*
X6870000Y-8362500D02*
X6840000Y-8392500D01*
X6844989Y-9185000D02*
X6874989Y-9215000D01*
X6874989Y-9185000D02*
X6844989Y-9215000D01*
X6850000Y-7338750D02*
X6880000Y-7368750D01*
X6880000Y-7338750D02*
X6850000Y-7368750D01*
X6862761Y-7685533D02*
X6892761Y-7715533D01*
X6892761Y-7685533D02*
X6862761Y-7715533D01*
X6870280Y-8738310D02*
X6900280Y-8768310D01*
X6900280Y-8738310D02*
X6870280Y-8768310D01*
X6899407Y-10066610D02*
X6929407Y-10096610D01*
X6929407Y-10066610D02*
X6899407Y-10096610D01*
X6952500Y-7160000D02*
X6982500Y-7190000D01*
X6982500Y-7160000D02*
X6952500Y-7190000D01*
X6975000Y-10065000D02*
X7005000Y-10095000D01*
X7005000Y-10065000D02*
X6975000Y-10095000D01*
X6985000Y-11185000D02*
X7015000Y-11215000D01*
X7015000Y-11185000D02*
X6985000Y-11215000D01*
X6995000Y-7295000D02*
X7025000Y-7325000D01*
X7025000Y-7295000D02*
X6995000Y-7325000D01*
X7003136Y-9431811D02*
X7033136Y-9461811D01*
X7033136Y-9431811D02*
X7003136Y-9461811D01*
X7005010Y-8276040D02*
X7035010Y-8306040D01*
X7035010Y-8276040D02*
X7005010Y-8306040D01*
X7025000Y-6932500D02*
X7055000Y-6962500D01*
X7055000Y-6932500D02*
X7025000Y-6962500D01*
X7036830Y-12594990D02*
X7066830Y-12624990D01*
X7066830Y-12594990D02*
X7036830Y-12624990D01*
X7045000Y-7235030D02*
X7075000Y-7265030D01*
X7075000Y-7235030D02*
X7045000Y-7265030D01*
X7047500Y-7850000D02*
X7077500Y-7880000D01*
X7077500Y-7850000D02*
X7047500Y-7880000D01*
X7048563Y-11310983D02*
X7078563Y-11340983D01*
X7078563Y-11310983D02*
X7048563Y-11340983D01*
X7049500Y-11086920D02*
X7079500Y-11116920D01*
X7079500Y-11086920D02*
X7049500Y-11116920D01*
X7049720Y-10241800D02*
X7079720Y-10271800D01*
X7079720Y-10241800D02*
X7049720Y-10271800D01*
X7070000Y-7330000D02*
X7100000Y-7360000D01*
X7100000Y-7330000D02*
X7070000Y-7360000D01*
X7100000Y-7270030D02*
X7130000Y-7300030D01*
X7130000Y-7270030D02*
X7100000Y-7300030D01*
X7106732Y-7706955D02*
X7136732Y-7736955D01*
X7136732Y-7706955D02*
X7106732Y-7736955D01*
X7114430Y-8428510D02*
X7144430Y-8458510D01*
X7144430Y-8428510D02*
X7114430Y-8458510D01*
X7122500Y-7400000D02*
X7152500Y-7430000D01*
X7152500Y-7400000D02*
X7122500Y-7430000D01*
X7137500Y-12335000D02*
X7167500Y-12365000D01*
X7167500Y-12335000D02*
X7137500Y-12365000D01*
X7185000Y-8132500D02*
X7215000Y-8162500D01*
X7215000Y-8132500D02*
X7185000Y-8162500D01*
X7195431Y-7652573D02*
X7225431Y-7682573D01*
X7225431Y-7652573D02*
X7195431Y-7682573D01*
X7207797Y-7505368D02*
X7237797Y-7535368D01*
X7237797Y-7505368D02*
X7207797Y-7535368D01*
X7210000Y-6067500D02*
X7240000Y-6097500D01*
X7240000Y-6067500D02*
X7210000Y-6097500D01*
X7210000Y-6943750D02*
X7240000Y-6973750D01*
X7240000Y-6943750D02*
X7210000Y-6973750D01*
X7221500Y-9934610D02*
X7251500Y-9964610D01*
X7251500Y-9934610D02*
X7221500Y-9964610D01*
X7225000Y-6367500D02*
X7255000Y-6397500D01*
X7255000Y-6367500D02*
X7225000Y-6397500D01*
X7225000Y-6517500D02*
X7255000Y-6547500D01*
X7255000Y-6517500D02*
X7225000Y-6547500D01*
X7229224Y-7566866D02*
X7259224Y-7596866D01*
X7259224Y-7566866D02*
X7229224Y-7596866D01*
X7235000Y-6652500D02*
X7265000Y-6682500D01*
X7265000Y-6652500D02*
X7235000Y-6682500D01*
X7239370Y-10351060D02*
X7269370Y-10381060D01*
X7269370Y-10351060D02*
X7239370Y-10381060D01*
X7271500Y-7620000D02*
X7301500Y-7650000D01*
X7301500Y-7620000D02*
X7271500Y-7650000D01*
X7282440Y-6939850D02*
X7312440Y-6969850D01*
X7312440Y-6939850D02*
X7282440Y-6969850D01*
X7285000Y-7226250D02*
X7315000Y-7256250D01*
X7315000Y-7226250D02*
X7285000Y-7256250D01*
X7321500Y-7000000D02*
X7351500Y-7030000D01*
X7351500Y-7000000D02*
X7321500Y-7030000D01*
X7324534Y-9980313D02*
X7354534Y-10010313D01*
X7354534Y-9980313D02*
X7324534Y-10010313D01*
X7337380Y-7402370D02*
X7367380Y-7432370D01*
X7367380Y-7402370D02*
X7337380Y-7432370D01*
X7345000Y-6472500D02*
X7375000Y-6502500D01*
X7375000Y-6472500D02*
X7345000Y-6502500D01*
X7352500Y-7053750D02*
X7382500Y-7083750D01*
X7382500Y-7053750D02*
X7352500Y-7083750D01*
X7356932Y-10971721D02*
X7386932Y-11001721D01*
X7386932Y-10971721D02*
X7356932Y-11001721D01*
X7361770Y-13024910D02*
X7391770Y-13054910D01*
X7391770Y-13024910D02*
X7361770Y-13054910D01*
X7372440Y-6849850D02*
X7402440Y-6879850D01*
X7402440Y-6849850D02*
X7372440Y-6879850D01*
X7385000Y-8232500D02*
X7415000Y-8262500D01*
X7415000Y-8232500D02*
X7385000Y-8262500D01*
X7390000Y-7815028D02*
X7420000Y-7845028D01*
X7420000Y-7815028D02*
X7390000Y-7845028D01*
X7396669Y-11294684D02*
X7426669Y-11324684D01*
X7426669Y-11294684D02*
X7396669Y-11324684D01*
X7400000Y-11225000D02*
X7430000Y-11255000D01*
X7430000Y-11225000D02*
X7400000Y-11255000D01*
X7400428Y-11012027D02*
X7430428Y-11042027D01*
X7430428Y-11012027D02*
X7400428Y-11042027D01*
X7402500Y-10075000D02*
X7432500Y-10105000D01*
X7432500Y-10075000D02*
X7402500Y-10105000D01*
X7408990Y-8984850D02*
X7438990Y-9014850D01*
X7438990Y-8984850D02*
X7408990Y-9014850D01*
X7426140Y-11346142D02*
X7456140Y-11376142D01*
X7456140Y-11346142D02*
X7426140Y-11376142D01*
X7440000Y-7382500D02*
X7470000Y-7412500D01*
X7470000Y-7382500D02*
X7440000Y-7412500D01*
X7452750Y-10947750D02*
X7482750Y-10977750D01*
X7482750Y-10947750D02*
X7452750Y-10977750D01*
X7466249Y-12700918D02*
X7496249Y-12730918D01*
X7496249Y-12700918D02*
X7466249Y-12730918D01*
X7475000Y-7057500D02*
X7505000Y-7087500D01*
X7505000Y-7057500D02*
X7475000Y-7087500D01*
X7495000Y-6592500D02*
X7525000Y-6622500D01*
X7525000Y-6592500D02*
X7495000Y-6622500D01*
X7495000Y-7181250D02*
X7525000Y-7211250D01*
X7525000Y-7181250D02*
X7495000Y-7211250D01*
X7497370Y-8093705D02*
X7527370Y-8123705D01*
X7527370Y-8093705D02*
X7497370Y-8123705D01*
X7525000Y-6835000D02*
X7555000Y-6865000D01*
X7555000Y-6835000D02*
X7525000Y-6865000D01*
X7525000Y-6935000D02*
X7555000Y-6965000D01*
X7555000Y-6935000D02*
X7525000Y-6965000D01*
X7531809Y-13055497D02*
X7561809Y-13085497D01*
X7561809Y-13055497D02*
X7531809Y-13085497D01*
X7544880Y-9469610D02*
X7574880Y-9499610D01*
X7574880Y-9469610D02*
X7544880Y-9499610D01*
X7554310Y-10862194D02*
X7584310Y-10892194D01*
X7584310Y-10862194D02*
X7554310Y-10892194D01*
X7567500Y-8775000D02*
X7597500Y-8805000D01*
X7597500Y-8775000D02*
X7567500Y-8805000D01*
X7568490Y-11969710D02*
X7598490Y-11999710D01*
X7598490Y-11969710D02*
X7568490Y-11999710D01*
X7569933Y-12588903D02*
X7599933Y-12618903D01*
X7599933Y-12588903D02*
X7569933Y-12618903D01*
X7574800Y-11518872D02*
X7604800Y-11548872D01*
X7604800Y-11518872D02*
X7574800Y-11548872D01*
X7585000Y-7252500D02*
X7615000Y-7282500D01*
X7615000Y-7252500D02*
X7585000Y-7282500D01*
X7585000Y-8232500D02*
X7615000Y-8262500D01*
X7615000Y-8232500D02*
X7585000Y-8262500D01*
X7586072Y-10580692D02*
X7616072Y-10610692D01*
X7616072Y-10580692D02*
X7586072Y-10610692D01*
X7589990Y-7314997D02*
X7619990Y-7344997D01*
X7619990Y-7314997D02*
X7589990Y-7344997D01*
X7594500Y-12525006D02*
X7624500Y-12555006D01*
X7624500Y-12525006D02*
X7594500Y-12555006D01*
X7613790Y-13100668D02*
X7643790Y-13130668D01*
X7643790Y-13100668D02*
X7613790Y-13130668D01*
X7616080Y-10706620D02*
X7646080Y-10736620D01*
X7646080Y-10706620D02*
X7616080Y-10736620D01*
X7620830Y-8492940D02*
X7650830Y-8522940D01*
X7650830Y-8492940D02*
X7620830Y-8522940D01*
X7625227Y-10625227D02*
X7655227Y-10655227D01*
X7655227Y-10625227D02*
X7625227Y-10655227D01*
X7628025Y-7903200D02*
X7658025Y-7933200D01*
X7658025Y-7903200D02*
X7628025Y-7933200D01*
X7636162Y-12703010D02*
X7666162Y-12733010D01*
X7666162Y-12703010D02*
X7636162Y-12733010D01*
X7636500Y-7130000D02*
X7666500Y-7160000D01*
X7666500Y-7130000D02*
X7636500Y-7160000D01*
X7643830Y-9510261D02*
X7673830Y-9540261D01*
X7673830Y-9510261D02*
X7643830Y-9540261D01*
X7645000Y-6835000D02*
X7675000Y-6865000D01*
X7675000Y-6835000D02*
X7645000Y-6865000D01*
X7645000Y-6935000D02*
X7675000Y-6965000D01*
X7675000Y-6935000D02*
X7645000Y-6965000D01*
X7681114Y-11180333D02*
X7711114Y-11210333D01*
X7711114Y-11180333D02*
X7681114Y-11210333D01*
X7681204Y-11459965D02*
X7711204Y-11489965D01*
X7711204Y-11459965D02*
X7681204Y-11489965D01*
X7682004Y-11399471D02*
X7712004Y-11429471D01*
X7712004Y-11399471D02*
X7682004Y-11429471D01*
X7686349Y-7857339D02*
X7716349Y-7887339D01*
X7716349Y-7857339D02*
X7686349Y-7887339D01*
X7689657Y-11101292D02*
X7719657Y-11131292D01*
X7719657Y-11101292D02*
X7689657Y-11131292D01*
X7709220Y-9193630D02*
X7739220Y-9223630D01*
X7739220Y-9193630D02*
X7709220Y-9223630D01*
X7710000Y-12082500D02*
X7740000Y-12112500D01*
X7740000Y-12082500D02*
X7710000Y-12112500D01*
X7726656Y-8085359D02*
X7756656Y-8115359D01*
X7756656Y-8085359D02*
X7726656Y-8115359D01*
X7728029Y-11718992D02*
X7758029Y-11748992D01*
X7758029Y-11718992D02*
X7728029Y-11748992D01*
X7753979Y-11103539D02*
X7783979Y-11133539D01*
X7783979Y-11103539D02*
X7753979Y-11133539D01*
X7755657Y-11246286D02*
X7785657Y-11276286D01*
X7785657Y-11246286D02*
X7755657Y-11276286D01*
X7758890Y-10652354D02*
X7788890Y-10682354D01*
X7788890Y-10652354D02*
X7758890Y-10682354D01*
X7767635Y-7824537D02*
X7797635Y-7854537D01*
X7797635Y-7824537D02*
X7767635Y-7854537D01*
X7775112Y-11048133D02*
X7805112Y-11078133D01*
X7805112Y-11048133D02*
X7775112Y-11078133D01*
X7787733Y-11496031D02*
X7817733Y-11526031D01*
X7817733Y-11496031D02*
X7787733Y-11526031D01*
X7790790Y-9180540D02*
X7820790Y-9210540D01*
X7820790Y-9180540D02*
X7790790Y-9210540D01*
X7793500Y-11291941D02*
X7823500Y-11321941D01*
X7823500Y-11291941D02*
X7793500Y-11321941D01*
X7796730Y-13483540D02*
X7826730Y-13513540D01*
X7826730Y-13483540D02*
X7796730Y-13513540D01*
X7812140Y-10626260D02*
X7842140Y-10656260D01*
X7842140Y-10626260D02*
X7812140Y-10656260D01*
X7812535Y-10925415D02*
X7842535Y-10955415D01*
X7842535Y-10925415D02*
X7812535Y-10955415D01*
X7813090Y-9799000D02*
X7843090Y-9829000D01*
X7843090Y-9799000D02*
X7813090Y-9829000D01*
X7818110Y-12727330D02*
X7848110Y-12757330D01*
X7848110Y-12727330D02*
X7818110Y-12757330D01*
X7824535Y-11015363D02*
X7854535Y-11045363D01*
X7854535Y-11015363D02*
X7824535Y-11045363D01*
X7838711Y-9956148D02*
X7868711Y-9986148D01*
X7868711Y-9956148D02*
X7838711Y-9986148D01*
X7842854Y-10869112D02*
X7872854Y-10899112D01*
X7872854Y-10869112D02*
X7842854Y-10899112D01*
X7857680Y-7725000D02*
X7887680Y-7755000D01*
X7887680Y-7725000D02*
X7857680Y-7755000D01*
X7859250Y-7488100D02*
X7889250Y-7518100D01*
X7889250Y-7488100D02*
X7859250Y-7518100D01*
X7865542Y-10549455D02*
X7895542Y-10579455D01*
X7895542Y-10549455D02*
X7865542Y-10579455D01*
X7869702Y-7332168D02*
X7899702Y-7362168D01*
X7899702Y-7332168D02*
X7869702Y-7362168D01*
X7873388Y-13276611D02*
X7903388Y-13306611D01*
X7903388Y-13276611D02*
X7873388Y-13306611D01*
X7875000Y-12168298D02*
X7905000Y-12198298D01*
X7905000Y-12168298D02*
X7875000Y-12198298D01*
X7904790Y-10651060D02*
X7934790Y-10681060D01*
X7934790Y-10651060D02*
X7904790Y-10681060D01*
X7905800Y-11155884D02*
X7935800Y-11185884D01*
X7935800Y-11155884D02*
X7905800Y-11185884D01*
X7910000Y-12082500D02*
X7940000Y-12112500D01*
X7940000Y-12082500D02*
X7910000Y-12112500D01*
X7927790Y-13365000D02*
X7957790Y-13395000D01*
X7957790Y-13365000D02*
X7927790Y-13395000D01*
X7928470Y-9341800D02*
X7958470Y-9371800D01*
X7958470Y-9341800D02*
X7928470Y-9371800D01*
X7935000Y-6797500D02*
X7965000Y-6827500D01*
X7965000Y-6797500D02*
X7935000Y-6827500D01*
X7935000Y-6957500D02*
X7965000Y-6987500D01*
X7965000Y-6957500D02*
X7935000Y-6987500D01*
X7950000Y-10605000D02*
X7980000Y-10635000D01*
X7980000Y-10605000D02*
X7950000Y-10635000D01*
X7963210Y-9658380D02*
X7993210Y-9688380D01*
X7993210Y-9658380D02*
X7963210Y-9688380D01*
X7965000Y-7017500D02*
X7995000Y-7047500D01*
X7995000Y-7017500D02*
X7965000Y-7047500D01*
X7967500Y-7235000D02*
X7997500Y-7265000D01*
X7997500Y-7235000D02*
X7967500Y-7265000D01*
X7973089Y-11167655D02*
X8003089Y-11197655D01*
X8003089Y-11167655D02*
X7973089Y-11197655D01*
X7975000Y-7467500D02*
X8005000Y-7497500D01*
X8005000Y-7467500D02*
X7975000Y-7497500D01*
X7985000Y-11766500D02*
X8015000Y-11796500D01*
X8015000Y-11766500D02*
X7985000Y-11796500D01*
X8015236Y-10498146D02*
X8045236Y-10528146D01*
X8045236Y-10498146D02*
X8015236Y-10528146D01*
X8021372Y-10923074D02*
X8051372Y-10953074D01*
X8051372Y-10923074D02*
X8021372Y-10953074D01*
X8021743Y-9385000D02*
X8051743Y-9415000D01*
X8051743Y-9385000D02*
X8021743Y-9415000D01*
X8025000Y-7384990D02*
X8055000Y-7414990D01*
X8055000Y-7384990D02*
X8025000Y-7414990D01*
X8030000Y-7682500D02*
X8060000Y-7712500D01*
X8060000Y-7682500D02*
X8030000Y-7712500D01*
X8037650Y-12844990D02*
X8067650Y-12874990D01*
X8067650Y-12844990D02*
X8037650Y-12874990D01*
X8085000Y-6917500D02*
X8115000Y-6947500D01*
X8115000Y-6917500D02*
X8085000Y-6947500D01*
X8092500Y-7110000D02*
X8122500Y-7140000D01*
X8122500Y-7110000D02*
X8092500Y-7140000D01*
X8094721Y-12356303D02*
X8124721Y-12386303D01*
X8124721Y-12356303D02*
X8094721Y-12386303D01*
X8106250Y-7235000D02*
X8136250Y-7265000D01*
X8136250Y-7235000D02*
X8106250Y-7265000D01*
X8110000Y-12082500D02*
X8140000Y-12112500D01*
X8140000Y-12082500D02*
X8110000Y-12112500D01*
X8115000Y-6782500D02*
X8145000Y-6812500D01*
X8145000Y-6782500D02*
X8115000Y-6812500D01*
X8130546Y-10965686D02*
X8160546Y-10995686D01*
X8160546Y-10965686D02*
X8130546Y-10995686D01*
X8152500Y-7925000D02*
X8182500Y-7955000D01*
X8182500Y-7925000D02*
X8152500Y-7955000D01*
X8160000Y-7652500D02*
X8190000Y-7682500D01*
X8190000Y-7652500D02*
X8160000Y-7682500D01*
X8165760Y-8740710D02*
X8195760Y-8770710D01*
X8195760Y-8740710D02*
X8165760Y-8770710D01*
X8173260Y-13624280D02*
X8203260Y-13654280D01*
X8203260Y-13624280D02*
X8173260Y-13654280D01*
X8174993Y-10624999D02*
X8204993Y-10654999D01*
X8204993Y-10624999D02*
X8174993Y-10654999D01*
X8175277Y-11448202D02*
X8205277Y-11478202D01*
X8205277Y-11448202D02*
X8175277Y-11478202D01*
X8179068Y-7428828D02*
X8209068Y-7458828D01*
X8209068Y-7428828D02*
X8179068Y-7458828D01*
X8195000Y-6862500D02*
X8225000Y-6892500D01*
X8225000Y-6862500D02*
X8195000Y-6892500D01*
X8200110Y-8044300D02*
X8230110Y-8074300D01*
X8230110Y-8044300D02*
X8200110Y-8074300D01*
X8215893Y-11716599D02*
X8245893Y-11746599D01*
X8245893Y-11716599D02*
X8215893Y-11746599D01*
X8220650Y-7927690D02*
X8250650Y-7957690D01*
X8250650Y-7927690D02*
X8220650Y-7957690D01*
X8235000Y-6522500D02*
X8265000Y-6552500D01*
X8265000Y-6522500D02*
X8235000Y-6552500D01*
X8238550Y-13515170D02*
X8268550Y-13545170D01*
X8268550Y-13515170D02*
X8238550Y-13545170D01*
X8247899Y-11427226D02*
X8277899Y-11457226D01*
X8277899Y-11427226D02*
X8247899Y-11457226D01*
X8252070Y-11009990D02*
X8282070Y-11039990D01*
X8282070Y-11009990D02*
X8252070Y-11039990D01*
X8260000Y-12482500D02*
X8290000Y-12512500D01*
X8290000Y-12482500D02*
X8260000Y-12512500D01*
X8269500Y-6755006D02*
X8299500Y-6785006D01*
X8299500Y-6755006D02*
X8269500Y-6785006D01*
X8285000Y-6143750D02*
X8315000Y-6173750D01*
X8315000Y-6143750D02*
X8285000Y-6173750D01*
X8295305Y-10548815D02*
X8325305Y-10578815D01*
X8325305Y-10548815D02*
X8295305Y-10578815D01*
X8296915Y-11197919D02*
X8326915Y-11227919D01*
X8326915Y-11197919D02*
X8296915Y-11227919D01*
X8302500Y-7585000D02*
X8332500Y-7615000D01*
X8332500Y-7585000D02*
X8302500Y-7615000D01*
X8302740Y-11260010D02*
X8332740Y-11290010D01*
X8332740Y-11260010D02*
X8302740Y-11290010D01*
X8303230Y-10948600D02*
X8333230Y-10978600D01*
X8333230Y-10948600D02*
X8303230Y-10978600D01*
X8303447Y-11086976D02*
X8333447Y-11116976D01*
X8333447Y-11086976D02*
X8303447Y-11116976D01*
X8307806Y-10691195D02*
X8337806Y-10721195D01*
X8337806Y-10691195D02*
X8307806Y-10721195D01*
X8315000Y-6516250D02*
X8345000Y-6546250D01*
X8345000Y-6516250D02*
X8315000Y-6546250D01*
X8315946Y-10834449D02*
X8345946Y-10864449D01*
X8345946Y-10834449D02*
X8315946Y-10864449D01*
X8325000Y-6791250D02*
X8355000Y-6821250D01*
X8355000Y-6791250D02*
X8325000Y-6821250D01*
X8327500Y-8105270D02*
X8357500Y-8135270D01*
X8357500Y-8105270D02*
X8327500Y-8135270D01*
X8338835Y-10743639D02*
X8368835Y-10773639D01*
X8368835Y-10743639D02*
X8338835Y-10773639D01*
X8364453Y-9400740D02*
X8394453Y-9430740D01*
X8394453Y-9400740D02*
X8364453Y-9430740D01*
X8387000Y-8045270D02*
X8417000Y-8075270D01*
X8417000Y-8045270D02*
X8387000Y-8075270D01*
X8396177Y-7916697D02*
X8426177Y-7946697D01*
X8426177Y-7916697D02*
X8396177Y-7946697D01*
X8404500Y-6725006D02*
X8434500Y-6755006D01*
X8434500Y-6725006D02*
X8404500Y-6755006D01*
X8408079Y-9603629D02*
X8438079Y-9633629D01*
X8438079Y-9603629D02*
X8408079Y-9633629D01*
X8419500Y-7394994D02*
X8449500Y-7424994D01*
X8449500Y-7394994D02*
X8419500Y-7424994D01*
X8425000Y-12313410D02*
X8455000Y-12343410D01*
X8455000Y-12313410D02*
X8425000Y-12343410D01*
X8449989Y-9260000D02*
X8479989Y-9290000D01*
X8479989Y-9260000D02*
X8449989Y-9290000D01*
X8477500Y-7067490D02*
X8507500Y-7097490D01*
X8507500Y-7067490D02*
X8477500Y-7097490D01*
X8479999Y-6040004D02*
X8509999Y-6070004D01*
X8509999Y-6040004D02*
X8479999Y-6070004D01*
X8480093Y-11626559D02*
X8510093Y-11656559D01*
X8510093Y-11626559D02*
X8480093Y-11656559D01*
X8485000Y-6143750D02*
X8515000Y-6173750D01*
X8515000Y-6143750D02*
X8485000Y-6173750D01*
X8486321Y-10779967D02*
X8516321Y-10809967D01*
X8516321Y-10779967D02*
X8486321Y-10809967D01*
X8510000Y-9312500D02*
X8540000Y-9342500D01*
X8540000Y-9312500D02*
X8510000Y-9342500D01*
X8517480Y-10468304D02*
X8547480Y-10498304D01*
X8547480Y-10468304D02*
X8517480Y-10498304D01*
X8527730Y-10944720D02*
X8557730Y-10974720D01*
X8557730Y-10944720D02*
X8527730Y-10974720D01*
X8531675Y-11505086D02*
X8561675Y-11535086D01*
X8561675Y-11505086D02*
X8531675Y-11535086D01*
X8531993Y-11445786D02*
X8561993Y-11475786D01*
X8561993Y-11445786D02*
X8531993Y-11475786D01*
X8539931Y-11068023D02*
X8569931Y-11098023D01*
X8569931Y-11068023D02*
X8539931Y-11098023D01*
X8546500Y-6875006D02*
X8576500Y-6905006D01*
X8576500Y-6875006D02*
X8546500Y-6905006D01*
X8546500Y-7394994D02*
X8576500Y-7424994D01*
X8576500Y-7394994D02*
X8546500Y-7424994D01*
X8549606Y-10767749D02*
X8579606Y-10797749D01*
X8579606Y-10767749D02*
X8549606Y-10797749D01*
X8553838Y-11209990D02*
X8583838Y-11239990D01*
X8583838Y-11209990D02*
X8553838Y-11239990D01*
X8555784Y-11280452D02*
X8585784Y-11310452D01*
X8585784Y-11280452D02*
X8555784Y-11310452D01*
X8569500Y-9275500D02*
X8599500Y-9305500D01*
X8599500Y-9275500D02*
X8569500Y-9305500D01*
X8572440Y-6084850D02*
X8602440Y-6114850D01*
X8602440Y-6084850D02*
X8572440Y-6114850D01*
X8608277Y-10759135D02*
X8638277Y-10789135D01*
X8638277Y-10759135D02*
X8608277Y-10789135D01*
X8612203Y-11609777D02*
X8642203Y-11639777D01*
X8642203Y-11609777D02*
X8612203Y-11639777D01*
X8646612Y-6382138D02*
X8676612Y-6412138D01*
X8676612Y-6382138D02*
X8646612Y-6412138D01*
X8647790Y-13082120D02*
X8677790Y-13112120D01*
X8677790Y-13082120D02*
X8647790Y-13112120D01*
X8664353Y-11805922D02*
X8694353Y-11835922D01*
X8694353Y-11805922D02*
X8664353Y-11835922D01*
X8665000Y-10312500D02*
X8695000Y-10342500D01*
X8695000Y-10312500D02*
X8665000Y-10342500D01*
X8667500Y-9654990D02*
X8697500Y-9684990D01*
X8697500Y-9654990D02*
X8667500Y-9684990D01*
X8687030Y-12721040D02*
X8717030Y-12751040D01*
X8717030Y-12721040D02*
X8687030Y-12751040D01*
X8687500Y-9955000D02*
X8717500Y-9985000D01*
X8717500Y-9955000D02*
X8687500Y-9985000D01*
X8687500Y-10215000D02*
X8717500Y-10245000D01*
X8717500Y-10215000D02*
X8687500Y-10245000D01*
X8711434Y-11291066D02*
X8741434Y-11321066D01*
X8741434Y-11291066D02*
X8711434Y-11321066D01*
X8719576Y-12083942D02*
X8749576Y-12113942D01*
X8749576Y-12083942D02*
X8719576Y-12113942D01*
X8731080Y-10500086D02*
X8761080Y-10530086D01*
X8761080Y-10500086D02*
X8731080Y-10530086D01*
X8751970Y-7456740D02*
X8781970Y-7486740D01*
X8781970Y-7456740D02*
X8751970Y-7486740D01*
X8760073Y-11980501D02*
X8790073Y-12010501D01*
X8790073Y-11980501D02*
X8760073Y-12010501D01*
X8772500Y-5762020D02*
X8802500Y-5792020D01*
X8802500Y-5762020D02*
X8772500Y-5792020D01*
X8772558Y-6484750D02*
X8802558Y-6514750D01*
X8802558Y-6484750D02*
X8772558Y-6514750D01*
X8774250Y-6738100D02*
X8804250Y-6768100D01*
X8804250Y-6738100D02*
X8774250Y-6768100D01*
X8821500Y-9809610D02*
X8851500Y-9839610D01*
X8851500Y-9809610D02*
X8821500Y-9839610D01*
X8832920Y-11991540D02*
X8862920Y-12021540D01*
X8862920Y-11991540D02*
X8832920Y-12021540D01*
X8862500Y-5762020D02*
X8892500Y-5792020D01*
X8892500Y-5762020D02*
X8862500Y-5792020D01*
X8862500Y-5852020D02*
X8892500Y-5882020D01*
X8892500Y-5852020D02*
X8862500Y-5882020D01*
X8869510Y-9874990D02*
X8899510Y-9904990D01*
X8899510Y-9874990D02*
X8869510Y-9904990D01*
X8873500Y-7244994D02*
X8903500Y-7274994D01*
X8903500Y-7244994D02*
X8873500Y-7274994D01*
X8880340Y-7770350D02*
X8910340Y-7800350D01*
X8910340Y-7770350D02*
X8880340Y-7800350D01*
X8889940Y-13402000D02*
X8919940Y-13432000D01*
X8919940Y-13402000D02*
X8889940Y-13432000D01*
X8893960Y-12087700D02*
X8923960Y-12117700D01*
X8923960Y-12087700D02*
X8893960Y-12117700D01*
X8920000Y-10560010D02*
X8950000Y-10590010D01*
X8950000Y-10560010D02*
X8920000Y-10590010D01*
X8932500Y-6150000D02*
X8962500Y-6180000D01*
X8962500Y-6150000D02*
X8932500Y-6180000D01*
X8952500Y-5762020D02*
X8982500Y-5792020D01*
X8982500Y-5762020D02*
X8952500Y-5792020D01*
X8960000Y-7257500D02*
X8990000Y-7287500D01*
X8990000Y-7257500D02*
X8960000Y-7287500D01*
X8975876Y-13117646D02*
X9005876Y-13147646D01*
X9005876Y-13117646D02*
X8975876Y-13147646D01*
X8976589Y-11964301D02*
X9006589Y-11994301D01*
X9006589Y-11964301D02*
X8976589Y-11994301D01*
X9012057Y-10170450D02*
X9042057Y-10200450D01*
X9042057Y-10170450D02*
X9012057Y-10200450D01*
X9012500Y-10985000D02*
X9042500Y-11015000D01*
X9042500Y-10985000D02*
X9012500Y-11015000D01*
X9012500Y-11485000D02*
X9042500Y-11515000D01*
X9042500Y-11485000D02*
X9012500Y-11515000D01*
X9013630Y-8243900D02*
X9043630Y-8273900D01*
X9043630Y-8243900D02*
X9013630Y-8273900D01*
X9035000Y-7342500D02*
X9065000Y-7372500D01*
X9065000Y-7342500D02*
X9035000Y-7372500D01*
X9039206Y-13113426D02*
X9069206Y-13143426D01*
X9069206Y-13113426D02*
X9039206Y-13143426D01*
X9053231Y-10398383D02*
X9083231Y-10428383D01*
X9083231Y-10398383D02*
X9053231Y-10428383D01*
X9061350Y-8682930D02*
X9091350Y-8712930D01*
X9091350Y-8682930D02*
X9061350Y-8712930D01*
X9070000Y-6107550D02*
X9100000Y-6137550D01*
X9100000Y-6107550D02*
X9070000Y-6137550D01*
X9076079Y-10903144D02*
X9106079Y-10933144D01*
X9106079Y-10903144D02*
X9076079Y-10933144D01*
X9102500Y-11204730D02*
X9132500Y-11234730D01*
X9132500Y-11204730D02*
X9102500Y-11234730D01*
X9117500Y-8645000D02*
X9147500Y-8675000D01*
X9147500Y-8645000D02*
X9117500Y-8675000D01*
X9135000Y-6570000D02*
X9165000Y-6600000D01*
X9165000Y-6570000D02*
X9135000Y-6600000D01*
X9135000Y-6670000D02*
X9165000Y-6700000D01*
X9165000Y-6670000D02*
X9135000Y-6700000D01*
X9140070Y-10894134D02*
X9170070Y-10924134D01*
X9170070Y-10894134D02*
X9140070Y-10924134D01*
X9142790Y-9407010D02*
X9172790Y-9437010D01*
X9172790Y-9407010D02*
X9142790Y-9437010D01*
X9145260Y-12555520D02*
X9175260Y-12585520D01*
X9175260Y-12555520D02*
X9145260Y-12585520D01*
X9177500Y-7290000D02*
X9207500Y-7320000D01*
X9207500Y-7290000D02*
X9177500Y-7320000D01*
X9193390Y-12770310D02*
X9223390Y-12800310D01*
X9223390Y-12770310D02*
X9193390Y-12800310D01*
X9200540Y-7095510D02*
X9230540Y-7125510D01*
X9230540Y-7095510D02*
X9200540Y-7125510D01*
X9200540Y-7185510D02*
X9230540Y-7215510D01*
X9230540Y-7185510D02*
X9200540Y-7215510D01*
X9224247Y-9274725D02*
X9254247Y-9304725D01*
X9254247Y-9274725D02*
X9224247Y-9304725D01*
X9235000Y-6570000D02*
X9265000Y-6600000D01*
X9265000Y-6570000D02*
X9235000Y-6600000D01*
X9235000Y-6670000D02*
X9265000Y-6700000D01*
X9265000Y-6670000D02*
X9235000Y-6700000D01*
X9235016Y-7565116D02*
X9265016Y-7595116D01*
X9265016Y-7565116D02*
X9235016Y-7595116D01*
X9235450Y-13180280D02*
X9265450Y-13210280D01*
X9265450Y-13180280D02*
X9235450Y-13210280D01*
X9236073Y-9729650D02*
X9266073Y-9759650D01*
X9266073Y-9729650D02*
X9236073Y-9759650D01*
X9253406Y-13288575D02*
X9283406Y-13318575D01*
X9283406Y-13288575D02*
X9253406Y-13318575D01*
X9282500Y-7285000D02*
X9312500Y-7315000D01*
X9312500Y-7285000D02*
X9282500Y-7315000D01*
X9283573Y-12439764D02*
X9313573Y-12469764D01*
X9313573Y-12439764D02*
X9283573Y-12469764D01*
X9288320Y-6887189D02*
X9318320Y-6917189D01*
X9318320Y-6887189D02*
X9288320Y-6917189D01*
X9290540Y-7095510D02*
X9320540Y-7125510D01*
X9320540Y-7095510D02*
X9290540Y-7125510D01*
X9290540Y-7185510D02*
X9320540Y-7215510D01*
X9320540Y-7185510D02*
X9290540Y-7215510D01*
X9298544Y-9387373D02*
X9328544Y-9417373D01*
X9328544Y-9387373D02*
X9298544Y-9417373D01*
X9336630Y-6056260D02*
X9366630Y-6086260D01*
X9366630Y-6056260D02*
X9336630Y-6086260D01*
X9368279Y-7190005D02*
X9398279Y-7220005D01*
X9398279Y-7190005D02*
X9368279Y-7220005D01*
X9368590Y-13111920D02*
X9398590Y-13141920D01*
X9398590Y-13111920D02*
X9368590Y-13141920D01*
X9371568Y-13277264D02*
X9401568Y-13307264D01*
X9401568Y-13277264D02*
X9371568Y-13307264D01*
X9393730Y-12705590D02*
X9423730Y-12735590D01*
X9423730Y-12705590D02*
X9393730Y-12735590D01*
X9396620Y-8770300D02*
X9426620Y-8800300D01*
X9426620Y-8770300D02*
X9396620Y-8800300D01*
X9451461Y-10465123D02*
X9481461Y-10495123D01*
X9481461Y-10465123D02*
X9451461Y-10495123D01*
X9453201Y-12874107D02*
X9483201Y-12904107D01*
X9483201Y-12874107D02*
X9453201Y-12904107D01*
X9461365Y-13365833D02*
X9491365Y-13395833D01*
X9491365Y-13365833D02*
X9461365Y-13395833D01*
X9462335Y-9506279D02*
X9492335Y-9536279D01*
X9492335Y-9506279D02*
X9462335Y-9536279D01*
X9470976Y-9582776D02*
X9500976Y-9612776D01*
X9500976Y-9582776D02*
X9470976Y-9612776D01*
X9475400Y-7690960D02*
X9505400Y-7720960D01*
X9505400Y-7690960D02*
X9475400Y-7720960D01*
X9484610Y-7552890D02*
X9514610Y-7582890D01*
X9514610Y-7552890D02*
X9484610Y-7582890D01*
X9529650Y-9696420D02*
X9559650Y-9726420D01*
X9559650Y-9696420D02*
X9529650Y-9726420D01*
X9541950Y-11285570D02*
X9571950Y-11315570D01*
X9571950Y-11285570D02*
X9541950Y-11315570D01*
X9566207Y-10780657D02*
X9596207Y-10810657D01*
X9596207Y-10780657D02*
X9566207Y-10810657D01*
X9573590Y-13429060D02*
X9603590Y-13459060D01*
X9603590Y-13429060D02*
X9573590Y-13459060D01*
X9575972Y-12407172D02*
X9605972Y-12437172D01*
X9605972Y-12407172D02*
X9575972Y-12437172D01*
X9587220Y-8468530D02*
X9617220Y-8498530D01*
X9617220Y-8468530D02*
X9587220Y-8498530D01*
X9603750Y-7035000D02*
X9633750Y-7065000D01*
X9633750Y-7035000D02*
X9603750Y-7065000D01*
X9626925Y-11480000D02*
X9656925Y-11510000D01*
X9656925Y-11480000D02*
X9626925Y-11510000D01*
X9627070Y-10963730D02*
X9657070Y-10993730D01*
X9657070Y-10963730D02*
X9627070Y-10993730D01*
X9629636Y-7637601D02*
X9659636Y-7667601D01*
X9659636Y-7637601D02*
X9629636Y-7667601D01*
X9634600Y-12006165D02*
X9664600Y-12036165D01*
X9664600Y-12006165D02*
X9634600Y-12036165D01*
X9640800Y-11603200D02*
X9670800Y-11633200D01*
X9670800Y-11603200D02*
X9640800Y-11633200D01*
X9642558Y-6499750D02*
X9672558Y-6529750D01*
X9672558Y-6499750D02*
X9642558Y-6529750D01*
X9655554Y-11170616D02*
X9685554Y-11200616D01*
X9685554Y-11170616D02*
X9655554Y-11200616D01*
X9657500Y-10585000D02*
X9687500Y-10615000D01*
X9687500Y-10585000D02*
X9657500Y-10615000D01*
X9700971Y-9699649D02*
X9730971Y-9729649D01*
X9730971Y-9699649D02*
X9700971Y-9729649D01*
X9713043Y-12719344D02*
X9743043Y-12749344D01*
X9743043Y-12719344D02*
X9713043Y-12749344D01*
X9736767Y-9652372D02*
X9766767Y-9682372D01*
X9766767Y-9652372D02*
X9736767Y-9682372D01*
X9736870Y-12866670D02*
X9766870Y-12896670D01*
X9766870Y-12866670D02*
X9736870Y-12896670D01*
X9745251Y-10561560D02*
X9775251Y-10591560D01*
X9775251Y-10561560D02*
X9745251Y-10591560D01*
X9756639Y-10619756D02*
X9786639Y-10649756D01*
X9786639Y-10619756D02*
X9756639Y-10649756D01*
X9767920Y-9845290D02*
X9797920Y-9875290D01*
X9797920Y-9845290D02*
X9767920Y-9875290D01*
X9770729Y-13347052D02*
X9800729Y-13377052D01*
X9800729Y-13347052D02*
X9770729Y-13377052D01*
X9775850Y-11544060D02*
X9805850Y-11574060D01*
X9805850Y-11544060D02*
X9775850Y-11574060D01*
X9781070Y-7852620D02*
X9811070Y-7882620D01*
X9811070Y-7852620D02*
X9781070Y-7882620D01*
X9795260Y-7568915D02*
X9825260Y-7598915D01*
X9825260Y-7568915D02*
X9795260Y-7598915D01*
X9808400Y-10657360D02*
X9838400Y-10687360D01*
X9838400Y-10657360D02*
X9808400Y-10687360D01*
X9817500Y-9375000D02*
X9847500Y-9405000D01*
X9847500Y-9375000D02*
X9817500Y-9405000D01*
X9822090Y-11818210D02*
X9852090Y-11848210D01*
X9852090Y-11818210D02*
X9822090Y-11848210D01*
X9822500Y-7285000D02*
X9852500Y-7315000D01*
X9852500Y-7285000D02*
X9822500Y-7315000D01*
X9837500Y-10785000D02*
X9867500Y-10815000D01*
X9867500Y-10785000D02*
X9837500Y-10815000D01*
X9840941Y-13396079D02*
X9870941Y-13426079D01*
X9870941Y-13396079D02*
X9840941Y-13426079D01*
X9886715Y-13157493D02*
X9916715Y-13187493D01*
X9916715Y-13157493D02*
X9886715Y-13187493D01*
X9897397Y-13334405D02*
X9927397Y-13364405D01*
X9927397Y-13334405D02*
X9897397Y-13364405D01*
X9926127Y-9445140D02*
X9956127Y-9475140D01*
X9956127Y-9445140D02*
X9926127Y-9475140D01*
X9967500Y-12485000D02*
X9997500Y-12515000D01*
X9997500Y-12485000D02*
X9967500Y-12515000D01*
X9979240Y-13067990D02*
X10009240Y-13097990D01*
X10009240Y-13067990D02*
X9979240Y-13097990D01*
X9985000Y-10712500D02*
X10015000Y-10742500D01*
X10015000Y-10712500D02*
X9985000Y-10742500D01*
X9985000Y-9824354D02*
X10015000Y-9854354D01*
X10015000Y-9824354D02*
X9985000Y-9854354D01*
X10050000Y-9864527D02*
X10080000Y-9894527D01*
X10080000Y-9864527D02*
X10050000Y-9894527D01*
X10059850Y-7745890D02*
X10089850Y-7775890D01*
X10089850Y-7745890D02*
X10059850Y-7775890D01*
X10076165Y-7221438D02*
X10106165Y-7251438D01*
X10106165Y-7221438D02*
X10076165Y-7251438D01*
X10123911Y-7746155D02*
X10153911Y-7776155D01*
X10153911Y-7746155D02*
X10123911Y-7776155D01*
X10173734Y-10833509D02*
X10203734Y-10863509D01*
X10203734Y-10833509D02*
X10173734Y-10863509D01*
X10177570Y-8479850D02*
X10207570Y-8509850D01*
X10207570Y-8479850D02*
X10177570Y-8509850D01*
X10194416Y-8139091D02*
X10224416Y-8169091D01*
X10224416Y-8139091D02*
X10194416Y-8169091D01*
X10197418Y-10382621D02*
X10227418Y-10412621D01*
X10227418Y-10382621D02*
X10197418Y-10412621D01*
X10224999Y-12529996D02*
X10254999Y-12559996D01*
X10254999Y-12529996D02*
X10224999Y-12559996D01*
X10235030Y-11617410D02*
X10265030Y-11647410D01*
X10265030Y-11617410D02*
X10235030Y-11647410D01*
X10237500Y-11285000D02*
X10267500Y-11315000D01*
X10267500Y-11285000D02*
X10237500Y-11315000D01*
X10251250Y-9782544D02*
X10281250Y-9812544D01*
X10281250Y-9782544D02*
X10251250Y-9812544D01*
X10257970Y-7268780D02*
X10287970Y-7298780D01*
X10287970Y-7268780D02*
X10257970Y-7298780D01*
X10273340Y-7148150D02*
X10303340Y-7178150D01*
X10303340Y-7148150D02*
X10273340Y-7178150D01*
X10278880Y-7662899D02*
X10308880Y-7692899D01*
X10308880Y-7662899D02*
X10278880Y-7692899D01*
X10285000Y-9262500D02*
X10315000Y-9292500D01*
X10315000Y-9262500D02*
X10285000Y-9292500D01*
X10287500Y-12685000D02*
X10317500Y-12715000D01*
X10317500Y-12685000D02*
X10287500Y-12715000D01*
X10288787Y-7884417D02*
X10318787Y-7914417D01*
X10318787Y-7884417D02*
X10288787Y-7914417D01*
X10294400Y-7085000D02*
X10324400Y-7115000D01*
X10324400Y-7085000D02*
X10294400Y-7115000D01*
X10295001Y-12529996D02*
X10325001Y-12559996D01*
X10325001Y-12529996D02*
X10295001Y-12559996D01*
X10303033Y-8847393D02*
X10333033Y-8877393D01*
X10333033Y-8847393D02*
X10303033Y-8877393D01*
X10305000Y-12452500D02*
X10335000Y-12482500D01*
X10335000Y-12452500D02*
X10305000Y-12482500D01*
X10305680Y-10933570D02*
X10335680Y-10963570D01*
X10335680Y-10933570D02*
X10305680Y-10963570D01*
X10312500Y-12085000D02*
X10342500Y-12115000D01*
X10342500Y-12085000D02*
X10312500Y-12115000D01*
X10313788Y-7981570D02*
X10343788Y-8011570D01*
X10343788Y-7981570D02*
X10313788Y-8011570D01*
X10320460Y-9061920D02*
X10350460Y-9091920D01*
X10350460Y-9061920D02*
X10320460Y-9091920D01*
X10328210Y-13069020D02*
X10358210Y-13099020D01*
X10358210Y-13069020D02*
X10328210Y-13099020D01*
X10333753Y-7685381D02*
X10363753Y-7715381D01*
X10363753Y-7685381D02*
X10333753Y-7715381D01*
X10341800Y-9440000D02*
X10371800Y-9470000D01*
X10371800Y-9440000D02*
X10341800Y-9470000D01*
X10346750Y-7610722D02*
X10376750Y-7640722D01*
X10376750Y-7610722D02*
X10346750Y-7640722D01*
X10348100Y-7441530D02*
X10378100Y-7471530D01*
X10378100Y-7441530D02*
X10348100Y-7471530D01*
X10356693Y-7362195D02*
X10386693Y-7392195D01*
X10386693Y-7362195D02*
X10356693Y-7392195D01*
X10371392Y-10721682D02*
X10401392Y-10751682D01*
X10401392Y-10721682D02*
X10371392Y-10751682D01*
X10373291Y-7224031D02*
X10403291Y-7254031D01*
X10403291Y-7224031D02*
X10373291Y-7254031D01*
X10404671Y-8078950D02*
X10434671Y-8108950D01*
X10434671Y-8078950D02*
X10404671Y-8108950D01*
X10407500Y-13285000D02*
X10437500Y-13315000D01*
X10437500Y-13285000D02*
X10407500Y-13315000D01*
X10421990Y-9511970D02*
X10451990Y-9541970D01*
X10451990Y-9511970D02*
X10421990Y-9541970D01*
X10456726Y-11005163D02*
X10486726Y-11035163D01*
X10486726Y-11005163D02*
X10456726Y-11035163D01*
X10468950Y-7141900D02*
X10498950Y-7171900D01*
X10498950Y-7141900D02*
X10468950Y-7171900D01*
X10484630Y-12762202D02*
X10514630Y-12792202D01*
X10514630Y-12762202D02*
X10484630Y-12792202D01*
X10527170Y-10902180D02*
X10557170Y-10932180D01*
X10557170Y-10902180D02*
X10527170Y-10932180D01*
X10537490Y-11868540D02*
X10567490Y-11898540D01*
X10567490Y-11868540D02*
X10537490Y-11898540D01*
X10550901Y-9646304D02*
X10580901Y-9676304D01*
X10580901Y-9646304D02*
X10550901Y-9676304D01*
X10561180Y-10167500D02*
X10591180Y-10197500D01*
X10591180Y-10167500D02*
X10561180Y-10197500D01*
X10578080Y-8541970D02*
X10608080Y-8571970D01*
X10608080Y-8541970D02*
X10578080Y-8571970D01*
X10578340Y-7804940D02*
X10608340Y-7834940D01*
X10608340Y-7804940D02*
X10578340Y-7834940D01*
X10598800Y-13320260D02*
X10628800Y-13350260D01*
X10628800Y-13320260D02*
X10598800Y-13350260D01*
X10614890Y-10726001D02*
X10644890Y-10756001D01*
X10644890Y-10726001D02*
X10614890Y-10756001D01*
X10619890Y-11033340D02*
X10649890Y-11063340D01*
X10649890Y-11033340D02*
X10619890Y-11063340D01*
X10627086Y-9630046D02*
X10657086Y-9660046D01*
X10657086Y-9630046D02*
X10627086Y-9660046D01*
X10649498Y-11561291D02*
X10679498Y-11591291D01*
X10679498Y-11561291D02*
X10649498Y-11591291D01*
X10652590Y-12566250D02*
X10682590Y-12596250D01*
X10682590Y-12566250D02*
X10652590Y-12596250D01*
X10654071Y-10060010D02*
X10684071Y-10090010D01*
X10684071Y-10060010D02*
X10654071Y-10090010D01*
X10663760Y-8517570D02*
X10693760Y-8547570D01*
X10693760Y-8517570D02*
X10663760Y-8547570D01*
X10669749Y-11198921D02*
X10699749Y-11228921D01*
X10699749Y-11198921D02*
X10669749Y-11228921D01*
X10684735Y-13014723D02*
X10714735Y-13044723D01*
X10714735Y-13014723D02*
X10684735Y-13044723D01*
X10689700Y-7534650D02*
X10719700Y-7564650D01*
X10719700Y-7534650D02*
X10689700Y-7564650D01*
X10735000Y-6570000D02*
X10765000Y-6600000D01*
X10765000Y-6570000D02*
X10735000Y-6600000D01*
X10735000Y-6670000D02*
X10765000Y-6700000D01*
X10765000Y-6670000D02*
X10735000Y-6700000D01*
X10742500Y-12212500D02*
X10772500Y-12242500D01*
X10772500Y-12212500D02*
X10742500Y-12242500D01*
X10745820Y-11900010D02*
X10775820Y-11930010D01*
X10775820Y-11900010D02*
X10745820Y-11930010D01*
X10767457Y-8187327D02*
X10797457Y-8217327D01*
X10797457Y-8187327D02*
X10767457Y-8217327D01*
X10795922Y-8057881D02*
X10825922Y-8087881D01*
X10825922Y-8057881D02*
X10795922Y-8087881D01*
X10803327Y-9520191D02*
X10833327Y-9550191D01*
X10833327Y-9520191D02*
X10803327Y-9550191D01*
X10805760Y-10485000D02*
X10835760Y-10515000D01*
X10835760Y-10485000D02*
X10805760Y-10515000D01*
X10808053Y-9793423D02*
X10838053Y-9823423D01*
X10838053Y-9793423D02*
X10808053Y-9823423D01*
X10835000Y-6570000D02*
X10865000Y-6600000D01*
X10865000Y-6570000D02*
X10835000Y-6600000D01*
X10835000Y-6670000D02*
X10865000Y-6700000D01*
X10865000Y-6670000D02*
X10835000Y-6700000D01*
X10849730Y-11156680D02*
X10879730Y-11186680D01*
X10879730Y-11156680D02*
X10849730Y-11186680D01*
X10872720Y-9748500D02*
X10902720Y-9778500D01*
X10902720Y-9748500D02*
X10872720Y-9778500D01*
X10875000Y-7782500D02*
X10905000Y-7812500D01*
X10905000Y-7782500D02*
X10875000Y-7812500D01*
X10875000Y-7957500D02*
X10905000Y-7987500D01*
X10905000Y-7957500D02*
X10875000Y-7987500D01*
X10880000Y-7594910D02*
X10910000Y-7624910D01*
X10910000Y-7594910D02*
X10880000Y-7624910D01*
X10881989Y-10856290D02*
X10911989Y-10886290D01*
X10911989Y-10856290D02*
X10881989Y-10886290D01*
X10882690Y-7213950D02*
X10912690Y-7243950D01*
X10912690Y-7213950D02*
X10882690Y-7243950D01*
X10902810Y-12252890D02*
X10932810Y-12282890D01*
X10932810Y-12252890D02*
X10902810Y-12282890D01*
X10938025Y-11745410D02*
X10968025Y-11775410D01*
X10968025Y-11745410D02*
X10938025Y-11775410D01*
X10963109Y-9409378D02*
X10993109Y-9439378D01*
X10993109Y-9409378D02*
X10963109Y-9439378D01*
X10976480Y-10276160D02*
X11006480Y-10306160D01*
X11006480Y-10276160D02*
X10976480Y-10306160D01*
X10981800Y-8185000D02*
X11011800Y-8215000D01*
X11011800Y-8185000D02*
X10981800Y-8215000D01*
X10984018Y-7602804D02*
X11014018Y-7632804D01*
X11014018Y-7602804D02*
X10984018Y-7632804D01*
X10985990Y-8468500D02*
X11015990Y-8498500D01*
X11015990Y-8468500D02*
X10985990Y-8498500D01*
X11005415Y-8020100D02*
X11035415Y-8050100D01*
X11035415Y-8020100D02*
X11005415Y-8050100D01*
X11049697Y-7595947D02*
X11079697Y-7625947D01*
X11079697Y-7595947D02*
X11049697Y-7625947D01*
X11080660Y-11875730D02*
X11110660Y-11905730D01*
X11110660Y-11875730D02*
X11080660Y-11905730D01*
X11121367Y-11817770D02*
X11151367Y-11847770D01*
X11151367Y-11817770D02*
X11121367Y-11847770D01*
X11135699Y-9547690D02*
X11165699Y-9577690D01*
X11165699Y-9547690D02*
X11135699Y-9577690D01*
X11163340Y-10185000D02*
X11193340Y-10215000D01*
X11193340Y-10185000D02*
X11163340Y-10215000D01*
X11163340Y-10275000D02*
X11193340Y-10305000D01*
X11193340Y-10275000D02*
X11163340Y-10305000D01*
X11170000Y-9035000D02*
X11200000Y-9065000D01*
X11200000Y-9035000D02*
X11170000Y-9065000D01*
X11170000Y-9135000D02*
X11200000Y-9165000D01*
X11200000Y-9135000D02*
X11170000Y-9165000D01*
X11170000Y-10635000D02*
X11200000Y-10665000D01*
X11200000Y-10635000D02*
X11170000Y-10665000D01*
X11170000Y-10735000D02*
X11200000Y-10765000D01*
X11200000Y-10735000D02*
X11170000Y-10765000D01*
X11253340Y-10185000D02*
X11283340Y-10215000D01*
X11283340Y-10185000D02*
X11253340Y-10215000D01*
X11253340Y-10275000D02*
X11283340Y-10305000D01*
X11283340Y-10275000D02*
X11253340Y-10305000D01*
X11270000Y-9035000D02*
X11300000Y-9065000D01*
X11300000Y-9035000D02*
X11270000Y-9065000D01*
X11270000Y-9135000D02*
X11300000Y-9165000D01*
X11300000Y-9135000D02*
X11270000Y-9165000D01*
X11270000Y-10635000D02*
X11300000Y-10665000D01*
X11300000Y-10635000D02*
X11270000Y-10665000D01*
X11270000Y-10735000D02*
X11300000Y-10765000D01*
X11300000Y-10735000D02*
X11270000Y-10765000D01*
X11300000Y-9635000D02*
X11330000Y-9665000D01*
X11330000Y-9635000D02*
X11300000Y-9665000D01*
X11300000Y-9735000D02*
X11330000Y-9765000D01*
X11330000Y-9735000D02*
X11300000Y-9765000D01*
X11300000Y-11235000D02*
X11330000Y-11265000D01*
X11330000Y-11235000D02*
X11300000Y-11265000D01*
X11300000Y-11335000D02*
X11330000Y-11365000D01*
X11330000Y-11335000D02*
X11300000Y-11365000D01*
X11306030Y-9374080D02*
X11336030Y-9404080D01*
X11336030Y-9374080D02*
X11306030Y-9404080D01*
X11329290Y-6435000D02*
X11359290Y-6465000D01*
X11359290Y-6435000D02*
X11329290Y-6465000D01*
X11332994Y-13282343D02*
X11362994Y-13312343D01*
X11362994Y-13282343D02*
X11332994Y-13312343D01*
X11333082Y-12190022D02*
X11363082Y-12220022D01*
X11363082Y-12190022D02*
X11333082Y-12220022D01*
X11396030Y-9374080D02*
X11426030Y-9404080D01*
X11426030Y-9374080D02*
X11396030Y-9404080D01*
X11399999Y-9635000D02*
X11429999Y-9665000D01*
X11429999Y-9635000D02*
X11399999Y-9665000D01*
X11399999Y-9735000D02*
X11429999Y-9765000D01*
X11429999Y-9735000D02*
X11399999Y-9765000D01*
X11400000Y-11235000D02*
X11430000Y-11265000D01*
X11430000Y-11235000D02*
X11400000Y-11265000D01*
X11400000Y-11335000D02*
X11430000Y-11365000D01*
X11430000Y-11335000D02*
X11400000Y-11365000D01*
X11430850Y-12214180D02*
X11460850Y-12244180D01*
X11460850Y-12214180D02*
X11430850Y-12244180D01*
X11430850Y-12349180D02*
X11460850Y-12379180D01*
X11460850Y-12349180D02*
X11430850Y-12379180D01*
X11445850Y-12049180D02*
X11475850Y-12079180D01*
X11475850Y-12049180D02*
X11445850Y-12079180D01*
X11445850Y-12139180D02*
X11475850Y-12169180D01*
X11475850Y-12139180D02*
X11445850Y-12169180D01*
X11480720Y-10684840D02*
X11510720Y-10714840D01*
X11510720Y-10684840D02*
X11480720Y-10714840D01*
X11511269Y-12355439D02*
X11541269Y-12385439D01*
X11541269Y-12355439D02*
X11511269Y-12385439D01*
X11572950Y-5985000D02*
X11602950Y-6015000D01*
X11602950Y-5985000D02*
X11572950Y-6015000D01*
X11576890Y-12679820D02*
X11606890Y-12709820D01*
X11606890Y-12679820D02*
X11576890Y-12709820D01*
X11585000Y-11785000D02*
X11615000Y-11815000D01*
X11615000Y-11785000D02*
X11585000Y-11815000D01*
X11585000Y-11885000D02*
X11615000Y-11915000D01*
X11615000Y-11885000D02*
X11585000Y-11915000D01*
X11612500Y-10250000D02*
X11642500Y-10280000D01*
X11642500Y-10250000D02*
X11612500Y-10280000D01*
X11633470Y-13254860D02*
X11663470Y-13284860D01*
X11663470Y-13254860D02*
X11633470Y-13284860D01*
X11639640Y-8620100D02*
X11669640Y-8650100D01*
X11669640Y-8620100D02*
X11639640Y-8650100D01*
X11651939Y-12825785D02*
X11681939Y-12855785D01*
X11681939Y-12825785D02*
X11651939Y-12855785D01*
X11652690Y-12496860D02*
X11682690Y-12526860D01*
X11682690Y-12496860D02*
X11652690Y-12526860D01*
X11685000Y-11785000D02*
X11715000Y-11815000D01*
X11715000Y-11785000D02*
X11685000Y-11815000D01*
X11685000Y-11885000D02*
X11715000Y-11915000D01*
X11715000Y-11885000D02*
X11685000Y-11915000D01*
X11693967Y-10160169D02*
X11723967Y-10190169D01*
X11723967Y-10160169D02*
X11693967Y-10190169D01*
X11717621Y-12978435D02*
X11747621Y-13008435D01*
X11747621Y-12978435D02*
X11717621Y-13008435D01*
X11735782Y-10019454D02*
X11765782Y-10049454D01*
X11765782Y-10019454D02*
X11735782Y-10049454D01*
X11789930Y-9588985D02*
X11819930Y-9618985D01*
X11819930Y-9588985D02*
X11789930Y-9618985D01*
X11802500Y-11904840D02*
X11832500Y-11934840D01*
X11832500Y-11904840D02*
X11802500Y-11934840D01*
X11815234Y-9923674D02*
X11845234Y-9953674D01*
X11845234Y-9923674D02*
X11815234Y-9953674D01*
X11829780Y-8227490D02*
X11859780Y-8257490D01*
X11859780Y-8227490D02*
X11829780Y-8257490D01*
X11830954Y-8367975D02*
X11860954Y-8397975D01*
X11860954Y-8367975D02*
X11830954Y-8397975D01*
X11846800Y-10690866D02*
X11876800Y-10720866D01*
X11876800Y-10690866D02*
X11846800Y-10720866D01*
X11847500Y-10785000D02*
X11877500Y-10815000D01*
X11877500Y-10785000D02*
X11847500Y-10815000D01*
X11847500Y-11285484D02*
X11877500Y-11315484D01*
X11877500Y-11285484D02*
X11847500Y-11315484D01*
X11850480Y-9976630D02*
X11880480Y-10006630D01*
X11880480Y-9976630D02*
X11850480Y-10006630D01*
X11850694Y-10060867D02*
X11880694Y-10090867D01*
X11880694Y-10060867D02*
X11850694Y-10090867D01*
X11853142Y-9878073D02*
X11883142Y-9908073D01*
X11883142Y-9878073D02*
X11853142Y-9908073D01*
X11856666Y-10400334D02*
X11886666Y-10430334D01*
X11886666Y-10400334D02*
X11856666Y-10430334D01*
X11864537Y-9634043D02*
X11894537Y-9664043D01*
X11894537Y-9634043D02*
X11864537Y-9664043D01*
X11869660Y-13385305D02*
X11899660Y-13415305D01*
X11899660Y-13385305D02*
X11869660Y-13415305D01*
X11887601Y-11207746D02*
X11917601Y-11237746D01*
X11917601Y-11207746D02*
X11887601Y-11237746D01*
X11924390Y-9385000D02*
X11954390Y-9415000D01*
X11954390Y-9385000D02*
X11924390Y-9415000D01*
X11936806Y-8974221D02*
X11966806Y-9004221D01*
X11966806Y-8974221D02*
X11936806Y-9004221D01*
X11944250Y-9283520D02*
X11974250Y-9313520D01*
X11974250Y-9283520D02*
X11944250Y-9313520D01*
X11944267Y-11225226D02*
X11974267Y-11255226D01*
X11974267Y-11225226D02*
X11944267Y-11255226D01*
X11969730Y-10355290D02*
X11999730Y-10385290D01*
X11999730Y-10355290D02*
X11969730Y-10385290D01*
X11976854Y-9758303D02*
X12006854Y-9788303D01*
X12006854Y-9758303D02*
X11976854Y-9788303D01*
X11982526Y-9096666D02*
X12012526Y-9126666D01*
X12012526Y-9096666D02*
X11982526Y-9126666D01*
X11985000Y-12212500D02*
X12015000Y-12242500D01*
X12015000Y-12212500D02*
X11985000Y-12242500D01*
X12018300Y-8218300D02*
X12048300Y-8248300D01*
X12048300Y-8218300D02*
X12018300Y-8248300D01*
X12065950Y-8517570D02*
X12095950Y-8547570D01*
X12095950Y-8517570D02*
X12065950Y-8547570D01*
X12071340Y-9035000D02*
X12101340Y-9065000D01*
X12101340Y-9035000D02*
X12071340Y-9065000D01*
X12084672Y-9780330D02*
X12114672Y-9810330D01*
X12114672Y-9780330D02*
X12084672Y-9810330D01*
X12085000Y-12467500D02*
X12115000Y-12497500D01*
X12115000Y-12467500D02*
X12085000Y-12497500D01*
X12107500Y-9385000D02*
X12137500Y-9415000D01*
X12137500Y-9385000D02*
X12107500Y-9415000D01*
X12111032Y-10691432D02*
X12141032Y-10721432D01*
X12141032Y-10691432D02*
X12111032Y-10721432D01*
X12120110Y-12045860D02*
X12150110Y-12075860D01*
X12150110Y-12045860D02*
X12120110Y-12075860D01*
X12123102Y-9135762D02*
X12153102Y-9165762D01*
X12153102Y-9135762D02*
X12123102Y-9165762D01*
X12167295Y-10618831D02*
X12197295Y-10648831D01*
X12197295Y-10618831D02*
X12167295Y-10648831D01*
X12210110Y-11955860D02*
X12240110Y-11985860D01*
X12240110Y-11955860D02*
X12210110Y-11985860D01*
X12210110Y-12045860D02*
X12240110Y-12075860D01*
X12240110Y-12045860D02*
X12210110Y-12075860D01*
X12210110Y-12135860D02*
X12240110Y-12165860D01*
X12240110Y-12135860D02*
X12210110Y-12165860D01*
X12235180Y-10612510D02*
X12265180Y-10642510D01*
X12265180Y-10612510D02*
X12235180Y-10642510D01*
X12243386Y-8121860D02*
X12273386Y-8151860D01*
X12273386Y-8121860D02*
X12243386Y-8151860D01*
X12276102Y-7969340D02*
X12306102Y-7999340D01*
X12306102Y-7969340D02*
X12276102Y-7999340D01*
X12285000Y-8312040D02*
X12315000Y-8342040D01*
X12315000Y-8312040D02*
X12285000Y-8342040D01*
X12310000Y-11006250D02*
X12340000Y-11036250D01*
X12340000Y-11006250D02*
X12310000Y-11036250D01*
X12365000Y-9142500D02*
X12395000Y-9172500D01*
X12395000Y-9142500D02*
X12365000Y-9172500D01*
X12460000Y-9465010D02*
X12490000Y-9495010D01*
X12490000Y-9465010D02*
X12460000Y-9495010D01*
X12465000Y-10620000D02*
X12495000Y-10650000D01*
X12495000Y-10620000D02*
X12465000Y-10650000D01*
X12492810Y-11135000D02*
X12522810Y-11165000D01*
X12522810Y-11135000D02*
X12492810Y-11165000D01*
X12510000Y-10977500D02*
X12540000Y-11007500D01*
X12540000Y-10977500D02*
X12510000Y-11007500D01*
X12522150Y-13026620D02*
X12552150Y-13056620D01*
X12552150Y-13026620D02*
X12522150Y-13056620D01*
X12528304Y-8974260D02*
X12558304Y-9004260D01*
X12558304Y-8974260D02*
X12528304Y-9004260D01*
X12555510Y-12421500D02*
X12585510Y-12451500D01*
X12585510Y-12421500D02*
X12555510Y-12451500D01*
X12560010Y-10617670D02*
X12590010Y-10647670D01*
X12590010Y-10617670D02*
X12560010Y-10647670D01*
X12570000Y-9485010D02*
X12600000Y-9515010D01*
X12600000Y-9485010D02*
X12570000Y-9515010D01*
X12635000Y-9232500D02*
X12665000Y-9262500D01*
X12665000Y-9232500D02*
X12635000Y-9262500D01*
X12669299Y-10295361D02*
X12699299Y-10325361D01*
X12699299Y-10295361D02*
X12669299Y-10325361D01*
X12675640Y-8310680D02*
X12705640Y-8340680D01*
X12705640Y-8310680D02*
X12675640Y-8340680D01*
X12679989Y-9860007D02*
X12709989Y-9890007D01*
X12709989Y-9860007D02*
X12679989Y-9890007D01*
X12679989Y-9960007D02*
X12709989Y-9990007D01*
X12709989Y-9960007D02*
X12679989Y-9990007D01*
X12679989Y-10035007D02*
X12709989Y-10065007D01*
X12709989Y-10035007D02*
X12679989Y-10065007D01*
X12679989Y-10209993D02*
X12709989Y-10239993D01*
X12709989Y-10209993D02*
X12679989Y-10239993D01*
X12684300Y-11893579D02*
X12714300Y-11923579D01*
X12714300Y-11893579D02*
X12684300Y-11923579D01*
X12691355Y-10120355D02*
X12721355Y-10150355D01*
X12721355Y-10120355D02*
X12691355Y-10150355D01*
X12702270Y-12773140D02*
X12732270Y-12803140D01*
X12732270Y-12773140D02*
X12702270Y-12803140D01*
X12706690Y-9629270D02*
X12736690Y-9659270D01*
X12736690Y-9629270D02*
X12706690Y-9659270D01*
X12707210Y-10552190D02*
X12737210Y-10582190D01*
X12737210Y-10552190D02*
X12707210Y-10582190D01*
X12720426Y-13653579D02*
X12750426Y-13683579D01*
X12750426Y-13653579D02*
X12720426Y-13683579D01*
X12720426Y-13743579D02*
X12750426Y-13773579D01*
X12750426Y-13743579D02*
X12720426Y-13773579D01*
X12725000Y-9133750D02*
X12755000Y-9163750D01*
X12755000Y-9133750D02*
X12725000Y-9163750D01*
X12774300Y-11803579D02*
X12804300Y-11833579D01*
X12804300Y-11803579D02*
X12774300Y-11833579D01*
X12774300Y-11893579D02*
X12804300Y-11923579D01*
X12804300Y-11893579D02*
X12774300Y-11923579D01*
X12774300Y-11983579D02*
X12804300Y-12013579D01*
X12804300Y-11983579D02*
X12774300Y-12013579D01*
X12779023Y-11263172D02*
X12809023Y-11293172D01*
X12809023Y-11263172D02*
X12779023Y-11293172D01*
X12804989Y-9734994D02*
X12834989Y-9764994D01*
X12834989Y-9734994D02*
X12804989Y-9764994D01*
X12804989Y-10435006D02*
X12834989Y-10465006D01*
X12834989Y-10435006D02*
X12804989Y-10465006D01*
X12805335Y-10556725D02*
X12835335Y-10586725D01*
X12835335Y-10556725D02*
X12805335Y-10586725D01*
X12810426Y-13743579D02*
X12840426Y-13773579D01*
X12840426Y-13743579D02*
X12810426Y-13773579D01*
X12810426Y-13833579D02*
X12840426Y-13863579D01*
X12840426Y-13833579D02*
X12810426Y-13863579D01*
X12815370Y-8717500D02*
X12845370Y-8747500D01*
X12845370Y-8717500D02*
X12815370Y-8747500D01*
X12845020Y-10806250D02*
X12875020Y-10836250D01*
X12875020Y-10806250D02*
X12845020Y-10836250D01*
X12845020Y-10896250D02*
X12875020Y-10926250D01*
X12875020Y-10896250D02*
X12845020Y-10926250D01*
X12845020Y-10986250D02*
X12875020Y-11016250D01*
X12875020Y-10986250D02*
X12845020Y-11016250D01*
X12896740Y-10411260D02*
X12926740Y-10441260D01*
X12926740Y-10411260D02*
X12896740Y-10441260D01*
X12902500Y-11955730D02*
X12932500Y-11985730D01*
X12932500Y-11955730D02*
X12902500Y-11985730D01*
X12904401Y-10597851D02*
X12934401Y-10627851D01*
X12934401Y-10597851D02*
X12904401Y-10627851D01*
X12912146Y-9885287D02*
X12942146Y-9915287D01*
X12942146Y-9885287D02*
X12912146Y-9915287D01*
X12916595Y-10296436D02*
X12946595Y-10326436D01*
X12946595Y-10296436D02*
X12916595Y-10326436D01*
X12917595Y-9975515D02*
X12947595Y-10005515D01*
X12947595Y-9975515D02*
X12917595Y-10005515D01*
X12925544Y-10165040D02*
X12955544Y-10195040D01*
X12955544Y-10165040D02*
X12925544Y-10195040D01*
X12952936Y-9162517D02*
X12982936Y-9192517D01*
X12982936Y-9162517D02*
X12952936Y-9192517D01*
X12985000Y-12212500D02*
X13015000Y-12242500D01*
X13015000Y-12212500D02*
X12985000Y-12242500D01*
X12999320Y-8857270D02*
X13029320Y-8887270D01*
X13029320Y-8857270D02*
X12999320Y-8887270D01*
X12999320Y-11195780D02*
X13029320Y-11225780D01*
X13029320Y-11195780D02*
X12999320Y-11225780D01*
X13060960Y-10983940D02*
X13090960Y-11013940D01*
X13090960Y-10983940D02*
X13060960Y-11013940D01*
X13074270Y-10432500D02*
X13104270Y-10462500D01*
X13104270Y-10432500D02*
X13074270Y-10462500D01*
X13092460Y-11908500D02*
X13122460Y-11938500D01*
X13122460Y-11908500D02*
X13092460Y-11938500D01*
X13101000Y-9173750D02*
X13131000Y-9203750D01*
X13131000Y-9173750D02*
X13101000Y-9203750D01*
X13101000Y-9263750D02*
X13131000Y-9293750D01*
X13131000Y-9263750D02*
X13101000Y-9293750D01*
X13118388Y-9822138D02*
X13148388Y-9852138D01*
X13148388Y-9822138D02*
X13118388Y-9852138D01*
X13130390Y-9000440D02*
X13160390Y-9030440D01*
X13160390Y-9000440D02*
X13130390Y-9030440D01*
X13339890Y-10417510D02*
X13369890Y-10447510D01*
X13369890Y-10417510D02*
X13339890Y-10447510D01*
X13354890Y-10252510D02*
X13384890Y-10282510D01*
X13384890Y-10252510D02*
X13354890Y-10282510D01*
X13354890Y-10342510D02*
X13384890Y-10372510D01*
X13384890Y-10342510D02*
X13354890Y-10372510D01*
X13430000Y-9335000D02*
X13460000Y-9365000D01*
X13460000Y-9335000D02*
X13430000Y-9365000D01*
X13430000Y-9435000D02*
X13460000Y-9465000D01*
X13460000Y-9435000D02*
X13430000Y-9465000D01*
X13430000Y-11075000D02*
X13460000Y-11105000D01*
X13460000Y-11075000D02*
X13430000Y-11105000D01*
X13430000Y-11175000D02*
X13460000Y-11205000D01*
X13460000Y-11175000D02*
X13430000Y-11205000D01*
X13495800Y-12784530D02*
X13525800Y-12814530D01*
X13525800Y-12784530D02*
X13495800Y-12814530D01*
X13504890Y-10447510D02*
X13534890Y-10477510D01*
X13534890Y-10447510D02*
X13504890Y-10477510D01*
X13530000Y-9335000D02*
X13560000Y-9365000D01*
X13560000Y-9335000D02*
X13530000Y-9365000D01*
X13530000Y-9435000D02*
X13560000Y-9465000D01*
X13560000Y-9435000D02*
X13530000Y-9465000D01*
X13530000Y-11075000D02*
X13560000Y-11105000D01*
X13560000Y-11075000D02*
X13530000Y-11105000D01*
X13530000Y-11175000D02*
X13560000Y-11205000D01*
X13560000Y-11175000D02*
X13530000Y-11205000D01*
X13558810Y-12120300D02*
X13588810Y-12150300D01*
X13588810Y-12120300D02*
X13558810Y-12150300D01*
X13558810Y-12720700D02*
X13588810Y-12750700D01*
X13588810Y-12720700D02*
X13558810Y-12750700D01*
X13559999Y-10035000D02*
X13589999Y-10065000D01*
X13589999Y-10035000D02*
X13559999Y-10065000D01*
X13559999Y-10135000D02*
X13589999Y-10165000D01*
X13589999Y-10135000D02*
X13559999Y-10165000D01*
X13559999Y-11655000D02*
X13589999Y-11685000D01*
X13589999Y-11655000D02*
X13559999Y-11685000D01*
X13559999Y-11755000D02*
X13589999Y-11785000D01*
X13589999Y-11755000D02*
X13559999Y-11785000D01*
X13625830Y-9036299D02*
X13655830Y-9066299D01*
X13655830Y-9036299D02*
X13625830Y-9066299D01*
X13659999Y-10135000D02*
X13689999Y-10165000D01*
X13689999Y-10135000D02*
X13659999Y-10165000D01*
X13660000Y-10035000D02*
X13690000Y-10065000D01*
X13690000Y-10035000D02*
X13660000Y-10065000D01*
X13660000Y-11655000D02*
X13690000Y-11685000D01*
X13690000Y-11655000D02*
X13660000Y-11685000D01*
X13660000Y-11755000D02*
X13690000Y-11785000D01*
X13690000Y-11755000D02*
X13660000Y-11785000D01*
X13722692Y-12118714D02*
X13752692Y-12148714D01*
X13752692Y-12118714D02*
X13722692Y-12148714D01*
X13905120Y-9066270D02*
X13935120Y-9096270D01*
X13935120Y-9066270D02*
X13905120Y-9096270D01*
X13947890Y-9357604D02*
X13977890Y-9387604D01*
X13977890Y-9357604D02*
X13947890Y-9387604D01*
X13991795Y-9286429D02*
X14021795Y-9316429D01*
X14021795Y-9286429D02*
X13991795Y-9316429D01*
X14001077Y-11622747D02*
X14031077Y-11652747D01*
X14031077Y-11622747D02*
X14001077Y-11652747D01*
X14005040Y-10529860D02*
X14035040Y-10559860D01*
X14035040Y-10529860D02*
X14005040Y-10559860D01*
X14006444Y-9778890D02*
X14036444Y-9808890D01*
X14036444Y-9778890D02*
X14006444Y-9808890D01*
X14050930Y-9064920D02*
X14080930Y-9094920D01*
X14080930Y-9064920D02*
X14050930Y-9094920D01*
X14054240Y-7474510D02*
X14084240Y-7504510D01*
X14084240Y-7474510D02*
X14054240Y-7504510D01*
X14083900Y-11834350D02*
X14113900Y-11864350D01*
X14113900Y-11834350D02*
X14083900Y-11864350D01*
X14088523Y-10104271D02*
X14118523Y-10134271D01*
X14118523Y-10104271D02*
X14088523Y-10134271D01*
X14089241Y-11105000D02*
X14119241Y-11135000D01*
X14119241Y-11105000D02*
X14089241Y-11135000D01*
X14114860Y-9235570D02*
X14144860Y-9265570D01*
X14144860Y-9235570D02*
X14114860Y-9265570D01*
X14185820Y-11076010D02*
X14215820Y-11106010D01*
X14215820Y-11076010D02*
X14185820Y-11106010D01*
X6171439Y-8067997D02*
G75*
G02*
X6101436Y-8067997I-35001J0D01*
G01*
X6101436Y-8067997D02*
G75*
G02*
X6171439Y-8067997I35001J0D01*
G01*
X6171436Y-8032996D02*
X6101439Y-8032996D01*
X6101439Y-8102998D02*
G75*
G02*
X6101439Y-8032996I0J35001D01*
G01*
X6101439Y-8102998D02*
X6171436Y-8102998D01*
X6171436Y-8102998D02*
G75*
G03*
X6171436Y-8032996I0J35001D01*
G01*
X6171439Y-9467997D02*
G75*
G02*
X6101436Y-9467997I-35001J0D01*
G01*
X6101436Y-9467997D02*
G75*
G02*
X6171439Y-9467997I35001J0D01*
G01*
X6171436Y-9432996D02*
X6101439Y-9432996D01*
X6101439Y-9502998D02*
G75*
G02*
X6101439Y-9432996I0J35001D01*
G01*
X6101439Y-9502998D02*
X6171436Y-9502998D01*
X6171436Y-9502998D02*
G75*
G03*
X6171436Y-9432996I0J35001D01*
G01*
X6171439Y-8932003D02*
G75*
G02*
X6101436Y-8932003I-35001J0D01*
G01*
X6101436Y-8932003D02*
G75*
G02*
X6171439Y-8932003I35001J0D01*
G01*
X6171436Y-8897002D02*
X6101439Y-8897002D01*
X6101439Y-8967004D02*
G75*
G02*
X6101439Y-8897002I0J35001D01*
G01*
X6101439Y-8967004D02*
X6171436Y-8967004D01*
X6171436Y-8967004D02*
G75*
G03*
X6171436Y-8897002I0J35001D01*
G01*
X6171439Y-10332003D02*
G75*
G02*
X6101436Y-10332003I-35001J0D01*
G01*
X6101436Y-10332003D02*
G75*
G02*
X6171439Y-10332003I35001J0D01*
G01*
X6171436Y-10297002D02*
X6101439Y-10297002D01*
X6101439Y-10367004D02*
G75*
G02*
X6101439Y-10297002I0J35001D01*
G01*
X6101439Y-10367004D02*
X6171436Y-10367004D01*
X6171436Y-10367004D02*
G75*
G03*
X6171436Y-10297002I0J35001D01*
G01*
X6589447Y-8067997D02*
G75*
G02*
X6519444Y-8067997I-35001J0D01*
G01*
X6519444Y-8067997D02*
G75*
G02*
X6589447Y-8067997I35001J0D01*
G01*
X6604444Y-8032996D02*
X6504447Y-8032996D01*
X6504447Y-8102998D02*
G75*
G02*
X6504447Y-8032996I0J35001D01*
G01*
X6504447Y-8102998D02*
X6604444Y-8102998D01*
X6604444Y-8102998D02*
G75*
G03*
X6604444Y-8032996I0J35001D01*
G01*
X6589447Y-8932003D02*
G75*
G02*
X6519444Y-8932003I-35001J0D01*
G01*
X6519444Y-8932003D02*
G75*
G02*
X6589447Y-8932003I35001J0D01*
G01*
X6604444Y-8897002D02*
X6504447Y-8897002D01*
X6504447Y-8967004D02*
G75*
G02*
X6504447Y-8897002I0J35001D01*
G01*
X6504447Y-8967004D02*
X6604444Y-8967004D01*
X6604444Y-8967004D02*
G75*
G03*
X6604444Y-8897002I0J35001D01*
G01*
X6589447Y-9467997D02*
G75*
G02*
X6519444Y-9467997I-35001J0D01*
G01*
X6519444Y-9467997D02*
G75*
G02*
X6589447Y-9467997I35001J0D01*
G01*
X6604444Y-9432996D02*
X6504447Y-9432996D01*
X6504447Y-9502998D02*
G75*
G02*
X6504447Y-9432996I0J35001D01*
G01*
X6504447Y-9502998D02*
X6604444Y-9502998D01*
X6604444Y-9502998D02*
G75*
G03*
X6604444Y-9432996I0J35001D01*
G01*
X6589447Y-10332003D02*
G75*
G02*
X6519444Y-10332003I-35001J0D01*
G01*
X6519444Y-10332003D02*
G75*
G02*
X6589447Y-10332003I35001J0D01*
G01*
X6604444Y-10297002D02*
X6504447Y-10297002D01*
X6504447Y-10367004D02*
G75*
G02*
X6504447Y-10297002I0J35001D01*
G01*
X6504447Y-10367004D02*
X6604444Y-10367004D01*
X6604444Y-10367004D02*
G75*
G03*
X6604444Y-10297002I0J35001D01*
G01*
X8900002Y-13754267D02*
X8900002Y-13845707D01*
X8854282Y-13799987D02*
X8945722Y-13799987D01*
X8900002Y-13954267D02*
X8900002Y-14045707D01*
X8854282Y-13999987D02*
X8945722Y-13999987D01*
X9100001Y-13754267D02*
X9100001Y-13845707D01*
X9054281Y-13799987D02*
X9145721Y-13799987D01*
X9100001Y-13954267D02*
X9100001Y-14045707D01*
X9054281Y-13999987D02*
X9145721Y-13999987D01*
X9300001Y-13754267D02*
X9300001Y-13845707D01*
X9254281Y-13799987D02*
X9345721Y-13799987D01*
X9300001Y-13954267D02*
X9300001Y-14045707D01*
X9254281Y-13999987D02*
X9345721Y-13999987D01*
X9500001Y-13754267D02*
X9500001Y-13845707D01*
X9454281Y-13799987D02*
X9545721Y-13799987D01*
X9500001Y-13954267D02*
X9500001Y-14045707D01*
X9454281Y-13999987D02*
X9545721Y-13999987D01*
X9700000Y-13754267D02*
X9700000Y-13845707D01*
X9654280Y-13799987D02*
X9745720Y-13799987D01*
X9700000Y-13954267D02*
X9700000Y-14045707D01*
X9654280Y-13999987D02*
X9745720Y-13999987D01*
X9900000Y-13754267D02*
X9900000Y-13845707D01*
X9854280Y-13799987D02*
X9945720Y-13799987D01*
X9900000Y-13954267D02*
X9900000Y-14045707D01*
X9854280Y-13999987D02*
X9945720Y-13999987D01*
X10099999Y-13754267D02*
X10099999Y-13845707D01*
X10054279Y-13799987D02*
X10145719Y-13799987D01*
X10099999Y-13954267D02*
X10099999Y-14045707D01*
X10054279Y-13999987D02*
X10145719Y-13999987D01*
X10299999Y-13754267D02*
X10299999Y-13845707D01*
X10254279Y-13799987D02*
X10345719Y-13799987D01*
X10299999Y-13954267D02*
X10299999Y-14045707D01*
X10254279Y-13999987D02*
X10345719Y-13999987D01*
X10499999Y-13754267D02*
X10499999Y-13845707D01*
X10454279Y-13799987D02*
X10545719Y-13799987D01*
X10499999Y-13954267D02*
X10499999Y-14045707D01*
X10454279Y-13999987D02*
X10545719Y-13999987D01*
X10699998Y-13754267D02*
X10699998Y-13845707D01*
X10654278Y-13799987D02*
X10745718Y-13799987D01*
X10699998Y-13954267D02*
X10699998Y-14045707D01*
X10654278Y-13999987D02*
X10745718Y-13999987D01*
D12*
X11792427Y-7242427D02*
X11792427Y-7157573D01*
X11707574Y-7157573D01*
X11707574Y-7242427D01*
X11792427Y-7242427D01*
X12292426Y-7242427D02*
X12292426Y-7157573D01*
X12207573Y-7157573D01*
X12207573Y-7242427D01*
X12292426Y-7242427D01*
X13292427Y-8242427D02*
X13292427Y-8157573D01*
X13207574Y-8157573D01*
X13207574Y-8242427D01*
X13292427Y-8242427D01*
X13792426Y-8242427D02*
X13792426Y-8157573D01*
X13707573Y-8157573D01*
X13707573Y-8242427D01*
X13792426Y-8242427D01*
D13*
X9801982Y-6440000D02*
X9891981Y-6350000D01*
X9801982Y-6260000D01*
X9711982Y-6350000D01*
X9801982Y-6440000D01*
X10198018Y-6440000D02*
X10288018Y-6350000D01*
X10198018Y-6260000D01*
X10108019Y-6350000D01*
X10198018Y-6440000D01*
X11405996Y-13990000D02*
X11495995Y-13900000D01*
X11405996Y-13810000D01*
X11315996Y-13900000D01*
X11405996Y-13990000D01*
X11802007Y-13990000D02*
X11892007Y-13900000D01*
X11802007Y-13810000D01*
X11712007Y-13900000D01*
X11802007Y-13990000D01*
X12198018Y-13990000D02*
X12288018Y-13900000D01*
X12198018Y-13810000D01*
X12108019Y-13900000D01*
X12198018Y-13990000D01*
X12594004Y-13990000D02*
X12684004Y-13900000D01*
X12594004Y-13810000D01*
X12504005Y-13900000D01*
X12594004Y-13990000D01*
D11*
X5960777Y-14611484D02*
X5960777Y-14411484D01*
X5960777Y-14411484D02*
X6008396Y-14411484D01*
X6008396Y-14411484D02*
X6036967Y-14421008D01*
X6036967Y-14421008D02*
X6056015Y-14440055D01*
X6056015Y-14440055D02*
X6065539Y-14459103D01*
X6065539Y-14459103D02*
X6075062Y-14497198D01*
X6075062Y-14497198D02*
X6075062Y-14525769D01*
X6075062Y-14525769D02*
X6065539Y-14563865D01*
X6065539Y-14563865D02*
X6056015Y-14582912D01*
X6056015Y-14582912D02*
X6036967Y-14601960D01*
X6036967Y-14601960D02*
X6008396Y-14611484D01*
X6008396Y-14611484D02*
X5960777Y-14611484D01*
X6160777Y-14611484D02*
X6160777Y-14478150D01*
X6160777Y-14516246D02*
X6170301Y-14497198D01*
X6170301Y-14497198D02*
X6179824Y-14487674D01*
X6179824Y-14487674D02*
X6198872Y-14478150D01*
X6198872Y-14478150D02*
X6217920Y-14478150D01*
X6284586Y-14611484D02*
X6284586Y-14478150D01*
X6284586Y-14411484D02*
X6275062Y-14421008D01*
X6275062Y-14421008D02*
X6284586Y-14430531D01*
X6284586Y-14430531D02*
X6294110Y-14421008D01*
X6294110Y-14421008D02*
X6284586Y-14411484D01*
X6284586Y-14411484D02*
X6284586Y-14430531D01*
X6408396Y-14611484D02*
X6389348Y-14601960D01*
X6389348Y-14601960D02*
X6379824Y-14582912D01*
X6379824Y-14582912D02*
X6379824Y-14411484D01*
X6513158Y-14611484D02*
X6494110Y-14601960D01*
X6494110Y-14601960D02*
X6484586Y-14582912D01*
X6484586Y-14582912D02*
X6484586Y-14411484D01*
X6741729Y-14611484D02*
X6741729Y-14411484D01*
X6741729Y-14411484D02*
X6808396Y-14554341D01*
X6808396Y-14554341D02*
X6875062Y-14411484D01*
X6875062Y-14411484D02*
X6875062Y-14611484D01*
X7056015Y-14611484D02*
X7056015Y-14506722D01*
X7056015Y-14506722D02*
X7046491Y-14487674D01*
X7046491Y-14487674D02*
X7027443Y-14478150D01*
X7027443Y-14478150D02*
X6989348Y-14478150D01*
X6989348Y-14478150D02*
X6970301Y-14487674D01*
X7056015Y-14601960D02*
X7036967Y-14611484D01*
X7036967Y-14611484D02*
X6989348Y-14611484D01*
X6989348Y-14611484D02*
X6970301Y-14601960D01*
X6970301Y-14601960D02*
X6960777Y-14582912D01*
X6960777Y-14582912D02*
X6960777Y-14563865D01*
X6960777Y-14563865D02*
X6970301Y-14544817D01*
X6970301Y-14544817D02*
X6989348Y-14535293D01*
X6989348Y-14535293D02*
X7036967Y-14535293D01*
X7036967Y-14535293D02*
X7056015Y-14525769D01*
X7151253Y-14478150D02*
X7151253Y-14678150D01*
X7151253Y-14487674D02*
X7170301Y-14478150D01*
X7170301Y-14478150D02*
X7208396Y-14478150D01*
X7208396Y-14478150D02*
X7227443Y-14487674D01*
X7227443Y-14487674D02*
X7236967Y-14497198D01*
X7236967Y-14497198D02*
X7246491Y-14516246D01*
X7246491Y-14516246D02*
X7246491Y-14573388D01*
X7246491Y-14573388D02*
X7236967Y-14592436D01*
X7236967Y-14592436D02*
X7227443Y-14601960D01*
X7227443Y-14601960D02*
X7208396Y-14611484D01*
X7208396Y-14611484D02*
X7170301Y-14611484D01*
X7170301Y-14611484D02*
X7151253Y-14601960D01*
X7332205Y-14592436D02*
X7341729Y-14601960D01*
X7341729Y-14601960D02*
X7332205Y-14611484D01*
X7332205Y-14611484D02*
X7322682Y-14601960D01*
X7322682Y-14601960D02*
X7332205Y-14592436D01*
X7332205Y-14592436D02*
X7332205Y-14611484D01*
X7332205Y-14487674D02*
X7341729Y-14497198D01*
X7341729Y-14497198D02*
X7332205Y-14506722D01*
X7332205Y-14506722D02*
X7322682Y-14497198D01*
X7322682Y-14497198D02*
X7332205Y-14487674D01*
X7332205Y-14487674D02*
X7332205Y-14506722D01*
D10*
X5670000Y-14925000D02*
X5700000Y-14955000D01*
X5700000Y-14925000D02*
X5670000Y-14955000D01*
D11*
X5998872Y-14831484D02*
X6017920Y-14831484D01*
X6017920Y-14831484D02*
X6036967Y-14841008D01*
X6036967Y-14841008D02*
X6046491Y-14850531D01*
X6046491Y-14850531D02*
X6056015Y-14869579D01*
X6056015Y-14869579D02*
X6065539Y-14907674D01*
X6065539Y-14907674D02*
X6065539Y-14955293D01*
X6065539Y-14955293D02*
X6056015Y-14993388D01*
X6056015Y-14993388D02*
X6046491Y-15012436D01*
X6046491Y-15012436D02*
X6036967Y-15021960D01*
X6036967Y-15021960D02*
X6017920Y-15031484D01*
X6017920Y-15031484D02*
X5998872Y-15031484D01*
X5998872Y-15031484D02*
X5979824Y-15021960D01*
X5979824Y-15021960D02*
X5970301Y-15012436D01*
X5970301Y-15012436D02*
X5960777Y-14993388D01*
X5960777Y-14993388D02*
X5951253Y-14955293D01*
X5951253Y-14955293D02*
X5951253Y-14907674D01*
X5951253Y-14907674D02*
X5960777Y-14869579D01*
X5960777Y-14869579D02*
X5970301Y-14850531D01*
X5970301Y-14850531D02*
X5979824Y-14841008D01*
X5979824Y-14841008D02*
X5998872Y-14831484D01*
X6151253Y-15012436D02*
X6160777Y-15021960D01*
X6160777Y-15021960D02*
X6151253Y-15031484D01*
X6151253Y-15031484D02*
X6141729Y-15021960D01*
X6141729Y-15021960D02*
X6151253Y-15012436D01*
X6151253Y-15012436D02*
X6151253Y-15031484D01*
X6227443Y-14831484D02*
X6351253Y-14831484D01*
X6351253Y-14831484D02*
X6284586Y-14907674D01*
X6284586Y-14907674D02*
X6313158Y-14907674D01*
X6313158Y-14907674D02*
X6332205Y-14917198D01*
X6332205Y-14917198D02*
X6341729Y-14926722D01*
X6341729Y-14926722D02*
X6351253Y-14945769D01*
X6351253Y-14945769D02*
X6351253Y-14993388D01*
X6351253Y-14993388D02*
X6341729Y-15012436D01*
X6341729Y-15012436D02*
X6332205Y-15021960D01*
X6332205Y-15021960D02*
X6313158Y-15031484D01*
X6313158Y-15031484D02*
X6256015Y-15031484D01*
X6256015Y-15031484D02*
X6236967Y-15021960D01*
X6236967Y-15021960D02*
X6227443Y-15012436D01*
X6475062Y-14831484D02*
X6494110Y-14831484D01*
X6494110Y-14831484D02*
X6513158Y-14841008D01*
X6513158Y-14841008D02*
X6522682Y-14850531D01*
X6522682Y-14850531D02*
X6532205Y-14869579D01*
X6532205Y-14869579D02*
X6541729Y-14907674D01*
X6541729Y-14907674D02*
X6541729Y-14955293D01*
X6541729Y-14955293D02*
X6532205Y-14993388D01*
X6532205Y-14993388D02*
X6522682Y-15012436D01*
X6522682Y-15012436D02*
X6513158Y-15021960D01*
X6513158Y-15021960D02*
X6494110Y-15031484D01*
X6494110Y-15031484D02*
X6475062Y-15031484D01*
X6475062Y-15031484D02*
X6456015Y-15021960D01*
X6456015Y-15021960D02*
X6446491Y-15012436D01*
X6446491Y-15012436D02*
X6436967Y-14993388D01*
X6436967Y-14993388D02*
X6427443Y-14955293D01*
X6427443Y-14955293D02*
X6427443Y-14907674D01*
X6427443Y-14907674D02*
X6436967Y-14869579D01*
X6436967Y-14869579D02*
X6446491Y-14850531D01*
X6446491Y-14850531D02*
X6456015Y-14841008D01*
X6456015Y-14841008D02*
X6475062Y-14831484D01*
X6665539Y-14831484D02*
X6684586Y-14831484D01*
X6684586Y-14831484D02*
X6703634Y-14841008D01*
X6703634Y-14841008D02*
X6713158Y-14850531D01*
X6713158Y-14850531D02*
X6722682Y-14869579D01*
X6722682Y-14869579D02*
X6732205Y-14907674D01*
X6732205Y-14907674D02*
X6732205Y-14955293D01*
X6732205Y-14955293D02*
X6722682Y-14993388D01*
X6722682Y-14993388D02*
X6713158Y-15012436D01*
X6713158Y-15012436D02*
X6703634Y-15021960D01*
X6703634Y-15021960D02*
X6684586Y-15031484D01*
X6684586Y-15031484D02*
X6665539Y-15031484D01*
X6665539Y-15031484D02*
X6646491Y-15021960D01*
X6646491Y-15021960D02*
X6636967Y-15012436D01*
X6636967Y-15012436D02*
X6627443Y-14993388D01*
X6627443Y-14993388D02*
X6617920Y-14955293D01*
X6617920Y-14955293D02*
X6617920Y-14907674D01*
X6617920Y-14907674D02*
X6627443Y-14869579D01*
X6627443Y-14869579D02*
X6636967Y-14850531D01*
X6636967Y-14850531D02*
X6646491Y-14841008D01*
X6646491Y-14841008D02*
X6665539Y-14831484D01*
X6817920Y-15031484D02*
X6817920Y-14898150D01*
X6817920Y-14917198D02*
X6827443Y-14907674D01*
X6827443Y-14907674D02*
X6846491Y-14898150D01*
X6846491Y-14898150D02*
X6875063Y-14898150D01*
X6875063Y-14898150D02*
X6894110Y-14907674D01*
X6894110Y-14907674D02*
X6903634Y-14926722D01*
X6903634Y-14926722D02*
X6903634Y-15031484D01*
X6903634Y-14926722D02*
X6913158Y-14907674D01*
X6913158Y-14907674D02*
X6932205Y-14898150D01*
X6932205Y-14898150D02*
X6960777Y-14898150D01*
X6960777Y-14898150D02*
X6979824Y-14907674D01*
X6979824Y-14907674D02*
X6989348Y-14926722D01*
X6989348Y-14926722D02*
X6989348Y-15031484D01*
X7084586Y-15031484D02*
X7084586Y-14898150D01*
X7084586Y-14917198D02*
X7094110Y-14907674D01*
X7094110Y-14907674D02*
X7113158Y-14898150D01*
X7113158Y-14898150D02*
X7141729Y-14898150D01*
X7141729Y-14898150D02*
X7160777Y-14907674D01*
X7160777Y-14907674D02*
X7170301Y-14926722D01*
X7170301Y-14926722D02*
X7170301Y-15031484D01*
X7170301Y-14926722D02*
X7179824Y-14907674D01*
X7179824Y-14907674D02*
X7198872Y-14898150D01*
X7198872Y-14898150D02*
X7227443Y-14898150D01*
X7227443Y-14898150D02*
X7246491Y-14907674D01*
X7246491Y-14907674D02*
X7256015Y-14926722D01*
X7256015Y-14926722D02*
X7256015Y-15031484D01*
X7646491Y-14821960D02*
X7475063Y-15079103D01*
X7903634Y-14831484D02*
X7922682Y-14831484D01*
X7922682Y-14831484D02*
X7941729Y-14841008D01*
X7941729Y-14841008D02*
X7951253Y-14850531D01*
X7951253Y-14850531D02*
X7960777Y-14869579D01*
X7960777Y-14869579D02*
X7970301Y-14907674D01*
X7970301Y-14907674D02*
X7970301Y-14955293D01*
X7970301Y-14955293D02*
X7960777Y-14993388D01*
X7960777Y-14993388D02*
X7951253Y-15012436D01*
X7951253Y-15012436D02*
X7941729Y-15021960D01*
X7941729Y-15021960D02*
X7922682Y-15031484D01*
X7922682Y-15031484D02*
X7903634Y-15031484D01*
X7903634Y-15031484D02*
X7884586Y-15021960D01*
X7884586Y-15021960D02*
X7875063Y-15012436D01*
X7875063Y-15012436D02*
X7865539Y-14993388D01*
X7865539Y-14993388D02*
X7856015Y-14955293D01*
X7856015Y-14955293D02*
X7856015Y-14907674D01*
X7856015Y-14907674D02*
X7865539Y-14869579D01*
X7865539Y-14869579D02*
X7875063Y-14850531D01*
X7875063Y-14850531D02*
X7884586Y-14841008D01*
X7884586Y-14841008D02*
X7903634Y-14831484D01*
X8056015Y-15012436D02*
X8065539Y-15021960D01*
X8065539Y-15021960D02*
X8056015Y-15031484D01*
X8056015Y-15031484D02*
X8046491Y-15021960D01*
X8046491Y-15021960D02*
X8056015Y-15012436D01*
X8056015Y-15012436D02*
X8056015Y-15031484D01*
X8189348Y-14831484D02*
X8208396Y-14831484D01*
X8208396Y-14831484D02*
X8227444Y-14841008D01*
X8227444Y-14841008D02*
X8236967Y-14850531D01*
X8236967Y-14850531D02*
X8246491Y-14869579D01*
X8246491Y-14869579D02*
X8256015Y-14907674D01*
X8256015Y-14907674D02*
X8256015Y-14955293D01*
X8256015Y-14955293D02*
X8246491Y-14993388D01*
X8246491Y-14993388D02*
X8236967Y-15012436D01*
X8236967Y-15012436D02*
X8227444Y-15021960D01*
X8227444Y-15021960D02*
X8208396Y-15031484D01*
X8208396Y-15031484D02*
X8189348Y-15031484D01*
X8189348Y-15031484D02*
X8170301Y-15021960D01*
X8170301Y-15021960D02*
X8160777Y-15012436D01*
X8160777Y-15012436D02*
X8151253Y-14993388D01*
X8151253Y-14993388D02*
X8141729Y-14955293D01*
X8141729Y-14955293D02*
X8141729Y-14907674D01*
X8141729Y-14907674D02*
X8151253Y-14869579D01*
X8151253Y-14869579D02*
X8160777Y-14850531D01*
X8160777Y-14850531D02*
X8170301Y-14841008D01*
X8170301Y-14841008D02*
X8189348Y-14831484D01*
X8446491Y-15031484D02*
X8332206Y-15031484D01*
X8389348Y-15031484D02*
X8389348Y-14831484D01*
X8389348Y-14831484D02*
X8370301Y-14860055D01*
X8370301Y-14860055D02*
X8351253Y-14879103D01*
X8351253Y-14879103D02*
X8332206Y-14888627D01*
X8636968Y-15031484D02*
X8522682Y-15031484D01*
X8579825Y-15031484D02*
X8579825Y-14831484D01*
X8579825Y-14831484D02*
X8560777Y-14860055D01*
X8560777Y-14860055D02*
X8541729Y-14879103D01*
X8541729Y-14879103D02*
X8522682Y-14888627D01*
X8751253Y-14917198D02*
X8732206Y-14907674D01*
X8732206Y-14907674D02*
X8722682Y-14898150D01*
X8722682Y-14898150D02*
X8713158Y-14879103D01*
X8713158Y-14879103D02*
X8713158Y-14869579D01*
X8713158Y-14869579D02*
X8722682Y-14850531D01*
X8722682Y-14850531D02*
X8732206Y-14841008D01*
X8732206Y-14841008D02*
X8751253Y-14831484D01*
X8751253Y-14831484D02*
X8789349Y-14831484D01*
X8789349Y-14831484D02*
X8808396Y-14841008D01*
X8808396Y-14841008D02*
X8817920Y-14850531D01*
X8817920Y-14850531D02*
X8827444Y-14869579D01*
X8827444Y-14869579D02*
X8827444Y-14879103D01*
X8827444Y-14879103D02*
X8817920Y-14898150D01*
X8817920Y-14898150D02*
X8808396Y-14907674D01*
X8808396Y-14907674D02*
X8789349Y-14917198D01*
X8789349Y-14917198D02*
X8751253Y-14917198D01*
X8751253Y-14917198D02*
X8732206Y-14926722D01*
X8732206Y-14926722D02*
X8722682Y-14936246D01*
X8722682Y-14936246D02*
X8713158Y-14955293D01*
X8713158Y-14955293D02*
X8713158Y-14993388D01*
X8713158Y-14993388D02*
X8722682Y-15012436D01*
X8722682Y-15012436D02*
X8732206Y-15021960D01*
X8732206Y-15021960D02*
X8751253Y-15031484D01*
X8751253Y-15031484D02*
X8789349Y-15031484D01*
X8789349Y-15031484D02*
X8808396Y-15021960D01*
X8808396Y-15021960D02*
X8817920Y-15012436D01*
X8817920Y-15012436D02*
X8827444Y-14993388D01*
X8827444Y-14993388D02*
X8827444Y-14955293D01*
X8827444Y-14955293D02*
X8817920Y-14936246D01*
X8817920Y-14936246D02*
X8808396Y-14926722D01*
X8808396Y-14926722D02*
X8789349Y-14917198D01*
X8903634Y-14831484D02*
X8903634Y-14869579D01*
X8979825Y-14831484D02*
X8979825Y-14869579D01*
X9275063Y-15107674D02*
X9265539Y-15098150D01*
X9265539Y-15098150D02*
X9246491Y-15069579D01*
X9246491Y-15069579D02*
X9236968Y-15050531D01*
X9236968Y-15050531D02*
X9227444Y-15021960D01*
X9227444Y-15021960D02*
X9217920Y-14974341D01*
X9217920Y-14974341D02*
X9217920Y-14936246D01*
X9217920Y-14936246D02*
X9227444Y-14888627D01*
X9227444Y-14888627D02*
X9236968Y-14860055D01*
X9236968Y-14860055D02*
X9246491Y-14841008D01*
X9246491Y-14841008D02*
X9265539Y-14812436D01*
X9265539Y-14812436D02*
X9275063Y-14802912D01*
X9436968Y-14831484D02*
X9398872Y-14831484D01*
X9398872Y-14831484D02*
X9379825Y-14841008D01*
X9379825Y-14841008D02*
X9370301Y-14850531D01*
X9370301Y-14850531D02*
X9351253Y-14879103D01*
X9351253Y-14879103D02*
X9341730Y-14917198D01*
X9341730Y-14917198D02*
X9341730Y-14993388D01*
X9341730Y-14993388D02*
X9351253Y-15012436D01*
X9351253Y-15012436D02*
X9360777Y-15021960D01*
X9360777Y-15021960D02*
X9379825Y-15031484D01*
X9379825Y-15031484D02*
X9417920Y-15031484D01*
X9417920Y-15031484D02*
X9436968Y-15021960D01*
X9436968Y-15021960D02*
X9446491Y-15012436D01*
X9446491Y-15012436D02*
X9456015Y-14993388D01*
X9456015Y-14993388D02*
X9456015Y-14945769D01*
X9456015Y-14945769D02*
X9446491Y-14926722D01*
X9446491Y-14926722D02*
X9436968Y-14917198D01*
X9436968Y-14917198D02*
X9417920Y-14907674D01*
X9417920Y-14907674D02*
X9379825Y-14907674D01*
X9379825Y-14907674D02*
X9360777Y-14917198D01*
X9360777Y-14917198D02*
X9351253Y-14926722D01*
X9351253Y-14926722D02*
X9341730Y-14945769D01*
X9532206Y-14850531D02*
X9541730Y-14841008D01*
X9541730Y-14841008D02*
X9560777Y-14831484D01*
X9560777Y-14831484D02*
X9608396Y-14831484D01*
X9608396Y-14831484D02*
X9627444Y-14841008D01*
X9627444Y-14841008D02*
X9636968Y-14850531D01*
X9636968Y-14850531D02*
X9646491Y-14869579D01*
X9646491Y-14869579D02*
X9646491Y-14888627D01*
X9646491Y-14888627D02*
X9636968Y-14917198D01*
X9636968Y-14917198D02*
X9522682Y-15031484D01*
X9522682Y-15031484D02*
X9646491Y-15031484D01*
X9760777Y-14917198D02*
X9741730Y-14907674D01*
X9741730Y-14907674D02*
X9732206Y-14898150D01*
X9732206Y-14898150D02*
X9722682Y-14879103D01*
X9722682Y-14879103D02*
X9722682Y-14869579D01*
X9722682Y-14869579D02*
X9732206Y-14850531D01*
X9732206Y-14850531D02*
X9741730Y-14841008D01*
X9741730Y-14841008D02*
X9760777Y-14831484D01*
X9760777Y-14831484D02*
X9798872Y-14831484D01*
X9798872Y-14831484D02*
X9817920Y-14841008D01*
X9817920Y-14841008D02*
X9827444Y-14850531D01*
X9827444Y-14850531D02*
X9836968Y-14869579D01*
X9836968Y-14869579D02*
X9836968Y-14879103D01*
X9836968Y-14879103D02*
X9827444Y-14898150D01*
X9827444Y-14898150D02*
X9817920Y-14907674D01*
X9817920Y-14907674D02*
X9798872Y-14917198D01*
X9798872Y-14917198D02*
X9760777Y-14917198D01*
X9760777Y-14917198D02*
X9741730Y-14926722D01*
X9741730Y-14926722D02*
X9732206Y-14936246D01*
X9732206Y-14936246D02*
X9722682Y-14955293D01*
X9722682Y-14955293D02*
X9722682Y-14993388D01*
X9722682Y-14993388D02*
X9732206Y-15012436D01*
X9732206Y-15012436D02*
X9741730Y-15021960D01*
X9741730Y-15021960D02*
X9760777Y-15031484D01*
X9760777Y-15031484D02*
X9798872Y-15031484D01*
X9798872Y-15031484D02*
X9817920Y-15021960D01*
X9817920Y-15021960D02*
X9827444Y-15012436D01*
X9827444Y-15012436D02*
X9836968Y-14993388D01*
X9836968Y-14993388D02*
X9836968Y-14955293D01*
X9836968Y-14955293D02*
X9827444Y-14936246D01*
X9827444Y-14936246D02*
X9817920Y-14926722D01*
X9817920Y-14926722D02*
X9798872Y-14917198D01*
X10075063Y-15031484D02*
X10075063Y-14831484D01*
X10160777Y-15031484D02*
X10160777Y-14926722D01*
X10160777Y-14926722D02*
X10151253Y-14907674D01*
X10151253Y-14907674D02*
X10132206Y-14898150D01*
X10132206Y-14898150D02*
X10103634Y-14898150D01*
X10103634Y-14898150D02*
X10084587Y-14907674D01*
X10084587Y-14907674D02*
X10075063Y-14917198D01*
X10284587Y-15031484D02*
X10265539Y-15021960D01*
X10265539Y-15021960D02*
X10256015Y-15012436D01*
X10256015Y-15012436D02*
X10246492Y-14993388D01*
X10246492Y-14993388D02*
X10246492Y-14936246D01*
X10246492Y-14936246D02*
X10256015Y-14917198D01*
X10256015Y-14917198D02*
X10265539Y-14907674D01*
X10265539Y-14907674D02*
X10284587Y-14898150D01*
X10284587Y-14898150D02*
X10313158Y-14898150D01*
X10313158Y-14898150D02*
X10332206Y-14907674D01*
X10332206Y-14907674D02*
X10341730Y-14917198D01*
X10341730Y-14917198D02*
X10351253Y-14936246D01*
X10351253Y-14936246D02*
X10351253Y-14993388D01*
X10351253Y-14993388D02*
X10341730Y-15012436D01*
X10341730Y-15012436D02*
X10332206Y-15021960D01*
X10332206Y-15021960D02*
X10313158Y-15031484D01*
X10313158Y-15031484D02*
X10284587Y-15031484D01*
X10465539Y-15031484D02*
X10446492Y-15021960D01*
X10446492Y-15021960D02*
X10436968Y-15002912D01*
X10436968Y-15002912D02*
X10436968Y-14831484D01*
X10617920Y-15021960D02*
X10598873Y-15031484D01*
X10598873Y-15031484D02*
X10560777Y-15031484D01*
X10560777Y-15031484D02*
X10541730Y-15021960D01*
X10541730Y-15021960D02*
X10532206Y-15002912D01*
X10532206Y-15002912D02*
X10532206Y-14926722D01*
X10532206Y-14926722D02*
X10541730Y-14907674D01*
X10541730Y-14907674D02*
X10560777Y-14898150D01*
X10560777Y-14898150D02*
X10598873Y-14898150D01*
X10598873Y-14898150D02*
X10617920Y-14907674D01*
X10617920Y-14907674D02*
X10627444Y-14926722D01*
X10627444Y-14926722D02*
X10627444Y-14945769D01*
X10627444Y-14945769D02*
X10532206Y-14964817D01*
X10703634Y-15021960D02*
X10722682Y-15031484D01*
X10722682Y-15031484D02*
X10760777Y-15031484D01*
X10760777Y-15031484D02*
X10779825Y-15021960D01*
X10779825Y-15021960D02*
X10789349Y-15002912D01*
X10789349Y-15002912D02*
X10789349Y-14993388D01*
X10789349Y-14993388D02*
X10779825Y-14974341D01*
X10779825Y-14974341D02*
X10760777Y-14964817D01*
X10760777Y-14964817D02*
X10732206Y-14964817D01*
X10732206Y-14964817D02*
X10713158Y-14955293D01*
X10713158Y-14955293D02*
X10703634Y-14936246D01*
X10703634Y-14936246D02*
X10703634Y-14926722D01*
X10703634Y-14926722D02*
X10713158Y-14907674D01*
X10713158Y-14907674D02*
X10732206Y-14898150D01*
X10732206Y-14898150D02*
X10760777Y-14898150D01*
X10760777Y-14898150D02*
X10779825Y-14907674D01*
X10856015Y-15107674D02*
X10865539Y-15098150D01*
X10865539Y-15098150D02*
X10884587Y-15069579D01*
X10884587Y-15069579D02*
X10894111Y-15050531D01*
X10894111Y-15050531D02*
X10903634Y-15021960D01*
X10903634Y-15021960D02*
X10913158Y-14974341D01*
X10913158Y-14974341D02*
X10913158Y-14936246D01*
X10913158Y-14936246D02*
X10903634Y-14888627D01*
X10903634Y-14888627D02*
X10894111Y-14860055D01*
X10894111Y-14860055D02*
X10884587Y-14841008D01*
X10884587Y-14841008D02*
X10865539Y-14812436D01*
X10865539Y-14812436D02*
X10856015Y-14802912D01*
D10*
X5700000Y-15204000D02*
G75*
G02*
X5629998Y-15204000I-35001J0D01*
G01*
X5629998Y-15204000D02*
G75*
G02*
X5700000Y-15204000I35001J0D01*
G01*
D11*
X5998872Y-15095484D02*
X6017920Y-15095484D01*
X6017920Y-15095484D02*
X6036967Y-15105008D01*
X6036967Y-15105008D02*
X6046491Y-15114531D01*
X6046491Y-15114531D02*
X6056015Y-15133579D01*
X6056015Y-15133579D02*
X6065539Y-15171674D01*
X6065539Y-15171674D02*
X6065539Y-15219293D01*
X6065539Y-15219293D02*
X6056015Y-15257388D01*
X6056015Y-15257388D02*
X6046491Y-15276436D01*
X6046491Y-15276436D02*
X6036967Y-15285960D01*
X6036967Y-15285960D02*
X6017920Y-15295484D01*
X6017920Y-15295484D02*
X5998872Y-15295484D01*
X5998872Y-15295484D02*
X5979824Y-15285960D01*
X5979824Y-15285960D02*
X5970301Y-15276436D01*
X5970301Y-15276436D02*
X5960777Y-15257388D01*
X5960777Y-15257388D02*
X5951253Y-15219293D01*
X5951253Y-15219293D02*
X5951253Y-15171674D01*
X5951253Y-15171674D02*
X5960777Y-15133579D01*
X5960777Y-15133579D02*
X5970301Y-15114531D01*
X5970301Y-15114531D02*
X5979824Y-15105008D01*
X5979824Y-15105008D02*
X5998872Y-15095484D01*
X6151253Y-15276436D02*
X6160777Y-15285960D01*
X6160777Y-15285960D02*
X6151253Y-15295484D01*
X6151253Y-15295484D02*
X6141729Y-15285960D01*
X6141729Y-15285960D02*
X6151253Y-15276436D01*
X6151253Y-15276436D02*
X6151253Y-15295484D01*
X6227443Y-15095484D02*
X6360777Y-15095484D01*
X6360777Y-15095484D02*
X6275062Y-15295484D01*
X6475062Y-15095484D02*
X6494110Y-15095484D01*
X6494110Y-15095484D02*
X6513158Y-15105008D01*
X6513158Y-15105008D02*
X6522682Y-15114531D01*
X6522682Y-15114531D02*
X6532205Y-15133579D01*
X6532205Y-15133579D02*
X6541729Y-15171674D01*
X6541729Y-15171674D02*
X6541729Y-15219293D01*
X6541729Y-15219293D02*
X6532205Y-15257388D01*
X6532205Y-15257388D02*
X6522682Y-15276436D01*
X6522682Y-15276436D02*
X6513158Y-15285960D01*
X6513158Y-15285960D02*
X6494110Y-15295484D01*
X6494110Y-15295484D02*
X6475062Y-15295484D01*
X6475062Y-15295484D02*
X6456015Y-15285960D01*
X6456015Y-15285960D02*
X6446491Y-15276436D01*
X6446491Y-15276436D02*
X6436967Y-15257388D01*
X6436967Y-15257388D02*
X6427443Y-15219293D01*
X6427443Y-15219293D02*
X6427443Y-15171674D01*
X6427443Y-15171674D02*
X6436967Y-15133579D01*
X6436967Y-15133579D02*
X6446491Y-15114531D01*
X6446491Y-15114531D02*
X6456015Y-15105008D01*
X6456015Y-15105008D02*
X6475062Y-15095484D01*
X6665539Y-15095484D02*
X6684586Y-15095484D01*
X6684586Y-15095484D02*
X6703634Y-15105008D01*
X6703634Y-15105008D02*
X6713158Y-15114531D01*
X6713158Y-15114531D02*
X6722682Y-15133579D01*
X6722682Y-15133579D02*
X6732205Y-15171674D01*
X6732205Y-15171674D02*
X6732205Y-15219293D01*
X6732205Y-15219293D02*
X6722682Y-15257388D01*
X6722682Y-15257388D02*
X6713158Y-15276436D01*
X6713158Y-15276436D02*
X6703634Y-15285960D01*
X6703634Y-15285960D02*
X6684586Y-15295484D01*
X6684586Y-15295484D02*
X6665539Y-15295484D01*
X6665539Y-15295484D02*
X6646491Y-15285960D01*
X6646491Y-15285960D02*
X6636967Y-15276436D01*
X6636967Y-15276436D02*
X6627443Y-15257388D01*
X6627443Y-15257388D02*
X6617920Y-15219293D01*
X6617920Y-15219293D02*
X6617920Y-15171674D01*
X6617920Y-15171674D02*
X6627443Y-15133579D01*
X6627443Y-15133579D02*
X6636967Y-15114531D01*
X6636967Y-15114531D02*
X6646491Y-15105008D01*
X6646491Y-15105008D02*
X6665539Y-15095484D01*
X6817920Y-15295484D02*
X6817920Y-15162150D01*
X6817920Y-15181198D02*
X6827443Y-15171674D01*
X6827443Y-15171674D02*
X6846491Y-15162150D01*
X6846491Y-15162150D02*
X6875063Y-15162150D01*
X6875063Y-15162150D02*
X6894110Y-15171674D01*
X6894110Y-15171674D02*
X6903634Y-15190722D01*
X6903634Y-15190722D02*
X6903634Y-15295484D01*
X6903634Y-15190722D02*
X6913158Y-15171674D01*
X6913158Y-15171674D02*
X6932205Y-15162150D01*
X6932205Y-15162150D02*
X6960777Y-15162150D01*
X6960777Y-15162150D02*
X6979824Y-15171674D01*
X6979824Y-15171674D02*
X6989348Y-15190722D01*
X6989348Y-15190722D02*
X6989348Y-15295484D01*
X7084586Y-15295484D02*
X7084586Y-15162150D01*
X7084586Y-15181198D02*
X7094110Y-15171674D01*
X7094110Y-15171674D02*
X7113158Y-15162150D01*
X7113158Y-15162150D02*
X7141729Y-15162150D01*
X7141729Y-15162150D02*
X7160777Y-15171674D01*
X7160777Y-15171674D02*
X7170301Y-15190722D01*
X7170301Y-15190722D02*
X7170301Y-15295484D01*
X7170301Y-15190722D02*
X7179824Y-15171674D01*
X7179824Y-15171674D02*
X7198872Y-15162150D01*
X7198872Y-15162150D02*
X7227443Y-15162150D01*
X7227443Y-15162150D02*
X7246491Y-15171674D01*
X7246491Y-15171674D02*
X7256015Y-15190722D01*
X7256015Y-15190722D02*
X7256015Y-15295484D01*
X7646491Y-15085960D02*
X7475063Y-15343103D01*
X7903634Y-15095484D02*
X7922682Y-15095484D01*
X7922682Y-15095484D02*
X7941729Y-15105008D01*
X7941729Y-15105008D02*
X7951253Y-15114531D01*
X7951253Y-15114531D02*
X7960777Y-15133579D01*
X7960777Y-15133579D02*
X7970301Y-15171674D01*
X7970301Y-15171674D02*
X7970301Y-15219293D01*
X7970301Y-15219293D02*
X7960777Y-15257388D01*
X7960777Y-15257388D02*
X7951253Y-15276436D01*
X7951253Y-15276436D02*
X7941729Y-15285960D01*
X7941729Y-15285960D02*
X7922682Y-15295484D01*
X7922682Y-15295484D02*
X7903634Y-15295484D01*
X7903634Y-15295484D02*
X7884586Y-15285960D01*
X7884586Y-15285960D02*
X7875063Y-15276436D01*
X7875063Y-15276436D02*
X7865539Y-15257388D01*
X7865539Y-15257388D02*
X7856015Y-15219293D01*
X7856015Y-15219293D02*
X7856015Y-15171674D01*
X7856015Y-15171674D02*
X7865539Y-15133579D01*
X7865539Y-15133579D02*
X7875063Y-15114531D01*
X7875063Y-15114531D02*
X7884586Y-15105008D01*
X7884586Y-15105008D02*
X7903634Y-15095484D01*
X8056015Y-15276436D02*
X8065539Y-15285960D01*
X8065539Y-15285960D02*
X8056015Y-15295484D01*
X8056015Y-15295484D02*
X8046491Y-15285960D01*
X8046491Y-15285960D02*
X8056015Y-15276436D01*
X8056015Y-15276436D02*
X8056015Y-15295484D01*
X8189348Y-15095484D02*
X8208396Y-15095484D01*
X8208396Y-15095484D02*
X8227444Y-15105008D01*
X8227444Y-15105008D02*
X8236967Y-15114531D01*
X8236967Y-15114531D02*
X8246491Y-15133579D01*
X8246491Y-15133579D02*
X8256015Y-15171674D01*
X8256015Y-15171674D02*
X8256015Y-15219293D01*
X8256015Y-15219293D02*
X8246491Y-15257388D01*
X8246491Y-15257388D02*
X8236967Y-15276436D01*
X8236967Y-15276436D02*
X8227444Y-15285960D01*
X8227444Y-15285960D02*
X8208396Y-15295484D01*
X8208396Y-15295484D02*
X8189348Y-15295484D01*
X8189348Y-15295484D02*
X8170301Y-15285960D01*
X8170301Y-15285960D02*
X8160777Y-15276436D01*
X8160777Y-15276436D02*
X8151253Y-15257388D01*
X8151253Y-15257388D02*
X8141729Y-15219293D01*
X8141729Y-15219293D02*
X8141729Y-15171674D01*
X8141729Y-15171674D02*
X8151253Y-15133579D01*
X8151253Y-15133579D02*
X8160777Y-15114531D01*
X8160777Y-15114531D02*
X8170301Y-15105008D01*
X8170301Y-15105008D02*
X8189348Y-15095484D01*
X8332206Y-15114531D02*
X8341729Y-15105008D01*
X8341729Y-15105008D02*
X8360777Y-15095484D01*
X8360777Y-15095484D02*
X8408396Y-15095484D01*
X8408396Y-15095484D02*
X8427444Y-15105008D01*
X8427444Y-15105008D02*
X8436968Y-15114531D01*
X8436968Y-15114531D02*
X8446491Y-15133579D01*
X8446491Y-15133579D02*
X8446491Y-15152627D01*
X8446491Y-15152627D02*
X8436968Y-15181198D01*
X8436968Y-15181198D02*
X8322682Y-15295484D01*
X8322682Y-15295484D02*
X8446491Y-15295484D01*
X8513158Y-15095484D02*
X8646491Y-15095484D01*
X8646491Y-15095484D02*
X8560777Y-15295484D01*
X8808396Y-15095484D02*
X8770301Y-15095484D01*
X8770301Y-15095484D02*
X8751253Y-15105008D01*
X8751253Y-15105008D02*
X8741729Y-15114531D01*
X8741729Y-15114531D02*
X8722682Y-15143103D01*
X8722682Y-15143103D02*
X8713158Y-15181198D01*
X8713158Y-15181198D02*
X8713158Y-15257388D01*
X8713158Y-15257388D02*
X8722682Y-15276436D01*
X8722682Y-15276436D02*
X8732206Y-15285960D01*
X8732206Y-15285960D02*
X8751253Y-15295484D01*
X8751253Y-15295484D02*
X8789349Y-15295484D01*
X8789349Y-15295484D02*
X8808396Y-15285960D01*
X8808396Y-15285960D02*
X8817920Y-15276436D01*
X8817920Y-15276436D02*
X8827444Y-15257388D01*
X8827444Y-15257388D02*
X8827444Y-15209769D01*
X8827444Y-15209769D02*
X8817920Y-15190722D01*
X8817920Y-15190722D02*
X8808396Y-15181198D01*
X8808396Y-15181198D02*
X8789349Y-15171674D01*
X8789349Y-15171674D02*
X8751253Y-15171674D01*
X8751253Y-15171674D02*
X8732206Y-15181198D01*
X8732206Y-15181198D02*
X8722682Y-15190722D01*
X8722682Y-15190722D02*
X8713158Y-15209769D01*
X8903634Y-15095484D02*
X8903634Y-15133579D01*
X8979825Y-15095484D02*
X8979825Y-15133579D01*
X9275063Y-15371674D02*
X9265539Y-15362150D01*
X9265539Y-15362150D02*
X9246491Y-15333579D01*
X9246491Y-15333579D02*
X9236968Y-15314531D01*
X9236968Y-15314531D02*
X9227444Y-15285960D01*
X9227444Y-15285960D02*
X9217920Y-15238341D01*
X9217920Y-15238341D02*
X9217920Y-15200246D01*
X9217920Y-15200246D02*
X9227444Y-15152627D01*
X9227444Y-15152627D02*
X9236968Y-15124055D01*
X9236968Y-15124055D02*
X9246491Y-15105008D01*
X9246491Y-15105008D02*
X9265539Y-15076436D01*
X9265539Y-15076436D02*
X9275063Y-15066912D01*
X9389349Y-15095484D02*
X9408396Y-15095484D01*
X9408396Y-15095484D02*
X9427444Y-15105008D01*
X9427444Y-15105008D02*
X9436968Y-15114531D01*
X9436968Y-15114531D02*
X9446491Y-15133579D01*
X9446491Y-15133579D02*
X9456015Y-15171674D01*
X9456015Y-15171674D02*
X9456015Y-15219293D01*
X9456015Y-15219293D02*
X9446491Y-15257388D01*
X9446491Y-15257388D02*
X9436968Y-15276436D01*
X9436968Y-15276436D02*
X9427444Y-15285960D01*
X9427444Y-15285960D02*
X9408396Y-15295484D01*
X9408396Y-15295484D02*
X9389349Y-15295484D01*
X9389349Y-15295484D02*
X9370301Y-15285960D01*
X9370301Y-15285960D02*
X9360777Y-15276436D01*
X9360777Y-15276436D02*
X9351253Y-15257388D01*
X9351253Y-15257388D02*
X9341730Y-15219293D01*
X9341730Y-15219293D02*
X9341730Y-15171674D01*
X9341730Y-15171674D02*
X9351253Y-15133579D01*
X9351253Y-15133579D02*
X9360777Y-15114531D01*
X9360777Y-15114531D02*
X9370301Y-15105008D01*
X9370301Y-15105008D02*
X9389349Y-15095484D01*
X9694111Y-15295484D02*
X9694111Y-15095484D01*
X9779825Y-15295484D02*
X9779825Y-15190722D01*
X9779825Y-15190722D02*
X9770301Y-15171674D01*
X9770301Y-15171674D02*
X9751253Y-15162150D01*
X9751253Y-15162150D02*
X9722682Y-15162150D01*
X9722682Y-15162150D02*
X9703634Y-15171674D01*
X9703634Y-15171674D02*
X9694111Y-15181198D01*
X9903634Y-15295484D02*
X9884587Y-15285960D01*
X9884587Y-15285960D02*
X9875063Y-15276436D01*
X9875063Y-15276436D02*
X9865539Y-15257388D01*
X9865539Y-15257388D02*
X9865539Y-15200246D01*
X9865539Y-15200246D02*
X9875063Y-15181198D01*
X9875063Y-15181198D02*
X9884587Y-15171674D01*
X9884587Y-15171674D02*
X9903634Y-15162150D01*
X9903634Y-15162150D02*
X9932206Y-15162150D01*
X9932206Y-15162150D02*
X9951253Y-15171674D01*
X9951253Y-15171674D02*
X9960777Y-15181198D01*
X9960777Y-15181198D02*
X9970301Y-15200246D01*
X9970301Y-15200246D02*
X9970301Y-15257388D01*
X9970301Y-15257388D02*
X9960777Y-15276436D01*
X9960777Y-15276436D02*
X9951253Y-15285960D01*
X9951253Y-15285960D02*
X9932206Y-15295484D01*
X9932206Y-15295484D02*
X9903634Y-15295484D01*
X10084587Y-15295484D02*
X10065539Y-15285960D01*
X10065539Y-15285960D02*
X10056015Y-15266912D01*
X10056015Y-15266912D02*
X10056015Y-15095484D01*
X10236968Y-15285960D02*
X10217920Y-15295484D01*
X10217920Y-15295484D02*
X10179825Y-15295484D01*
X10179825Y-15295484D02*
X10160777Y-15285960D01*
X10160777Y-15285960D02*
X10151253Y-15266912D01*
X10151253Y-15266912D02*
X10151253Y-15190722D01*
X10151253Y-15190722D02*
X10160777Y-15171674D01*
X10160777Y-15171674D02*
X10179825Y-15162150D01*
X10179825Y-15162150D02*
X10217920Y-15162150D01*
X10217920Y-15162150D02*
X10236968Y-15171674D01*
X10236968Y-15171674D02*
X10246492Y-15190722D01*
X10246492Y-15190722D02*
X10246492Y-15209769D01*
X10246492Y-15209769D02*
X10151253Y-15228817D01*
X10322682Y-15285960D02*
X10341730Y-15295484D01*
X10341730Y-15295484D02*
X10379825Y-15295484D01*
X10379825Y-15295484D02*
X10398873Y-15285960D01*
X10398873Y-15285960D02*
X10408396Y-15266912D01*
X10408396Y-15266912D02*
X10408396Y-15257388D01*
X10408396Y-15257388D02*
X10398873Y-15238341D01*
X10398873Y-15238341D02*
X10379825Y-15228817D01*
X10379825Y-15228817D02*
X10351253Y-15228817D01*
X10351253Y-15228817D02*
X10332206Y-15219293D01*
X10332206Y-15219293D02*
X10322682Y-15200246D01*
X10322682Y-15200246D02*
X10322682Y-15190722D01*
X10322682Y-15190722D02*
X10332206Y-15171674D01*
X10332206Y-15171674D02*
X10351253Y-15162150D01*
X10351253Y-15162150D02*
X10379825Y-15162150D01*
X10379825Y-15162150D02*
X10398873Y-15171674D01*
X10646492Y-15219293D02*
X10798873Y-15219293D01*
X10722682Y-15295484D02*
X10722682Y-15143103D01*
X11075063Y-15181198D02*
X11056015Y-15171674D01*
X11056015Y-15171674D02*
X11046492Y-15162150D01*
X11046492Y-15162150D02*
X11036968Y-15143103D01*
X11036968Y-15143103D02*
X11036968Y-15133579D01*
X11036968Y-15133579D02*
X11046492Y-15114531D01*
X11046492Y-15114531D02*
X11056015Y-15105008D01*
X11056015Y-15105008D02*
X11075063Y-15095484D01*
X11075063Y-15095484D02*
X11113158Y-15095484D01*
X11113158Y-15095484D02*
X11132206Y-15105008D01*
X11132206Y-15105008D02*
X11141730Y-15114531D01*
X11141730Y-15114531D02*
X11151254Y-15133579D01*
X11151254Y-15133579D02*
X11151254Y-15143103D01*
X11151254Y-15143103D02*
X11141730Y-15162150D01*
X11141730Y-15162150D02*
X11132206Y-15171674D01*
X11132206Y-15171674D02*
X11113158Y-15181198D01*
X11113158Y-15181198D02*
X11075063Y-15181198D01*
X11075063Y-15181198D02*
X11056015Y-15190722D01*
X11056015Y-15190722D02*
X11046492Y-15200246D01*
X11046492Y-15200246D02*
X11036968Y-15219293D01*
X11036968Y-15219293D02*
X11036968Y-15257388D01*
X11036968Y-15257388D02*
X11046492Y-15276436D01*
X11046492Y-15276436D02*
X11056015Y-15285960D01*
X11056015Y-15285960D02*
X11075063Y-15295484D01*
X11075063Y-15295484D02*
X11113158Y-15295484D01*
X11113158Y-15295484D02*
X11132206Y-15285960D01*
X11132206Y-15285960D02*
X11141730Y-15276436D01*
X11141730Y-15276436D02*
X11151254Y-15257388D01*
X11151254Y-15257388D02*
X11151254Y-15219293D01*
X11151254Y-15219293D02*
X11141730Y-15200246D01*
X11141730Y-15200246D02*
X11132206Y-15190722D01*
X11132206Y-15190722D02*
X11113158Y-15181198D01*
X11379825Y-15285960D02*
X11398873Y-15295484D01*
X11398873Y-15295484D02*
X11436968Y-15295484D01*
X11436968Y-15295484D02*
X11456015Y-15285960D01*
X11456015Y-15285960D02*
X11465539Y-15266912D01*
X11465539Y-15266912D02*
X11465539Y-15257388D01*
X11465539Y-15257388D02*
X11456015Y-15238341D01*
X11456015Y-15238341D02*
X11436968Y-15228817D01*
X11436968Y-15228817D02*
X11408396Y-15228817D01*
X11408396Y-15228817D02*
X11389349Y-15219293D01*
X11389349Y-15219293D02*
X11379825Y-15200246D01*
X11379825Y-15200246D02*
X11379825Y-15190722D01*
X11379825Y-15190722D02*
X11389349Y-15171674D01*
X11389349Y-15171674D02*
X11408396Y-15162150D01*
X11408396Y-15162150D02*
X11436968Y-15162150D01*
X11436968Y-15162150D02*
X11456015Y-15171674D01*
X11579825Y-15295484D02*
X11560777Y-15285960D01*
X11560777Y-15285960D02*
X11551254Y-15266912D01*
X11551254Y-15266912D02*
X11551254Y-15095484D01*
X11684587Y-15295484D02*
X11665539Y-15285960D01*
X11665539Y-15285960D02*
X11656015Y-15276436D01*
X11656015Y-15276436D02*
X11646492Y-15257388D01*
X11646492Y-15257388D02*
X11646492Y-15200246D01*
X11646492Y-15200246D02*
X11656015Y-15181198D01*
X11656015Y-15181198D02*
X11665539Y-15171674D01*
X11665539Y-15171674D02*
X11684587Y-15162150D01*
X11684587Y-15162150D02*
X11713158Y-15162150D01*
X11713158Y-15162150D02*
X11732206Y-15171674D01*
X11732206Y-15171674D02*
X11741730Y-15181198D01*
X11741730Y-15181198D02*
X11751254Y-15200246D01*
X11751254Y-15200246D02*
X11751254Y-15257388D01*
X11751254Y-15257388D02*
X11741730Y-15276436D01*
X11741730Y-15276436D02*
X11732206Y-15285960D01*
X11732206Y-15285960D02*
X11713158Y-15295484D01*
X11713158Y-15295484D02*
X11684587Y-15295484D01*
X11808396Y-15162150D02*
X11884587Y-15162150D01*
X11836968Y-15095484D02*
X11836968Y-15266912D01*
X11836968Y-15266912D02*
X11846492Y-15285960D01*
X11846492Y-15285960D02*
X11865539Y-15295484D01*
X11865539Y-15295484D02*
X11884587Y-15295484D01*
X11941730Y-15285960D02*
X11960777Y-15295484D01*
X11960777Y-15295484D02*
X11998873Y-15295484D01*
X11998873Y-15295484D02*
X12017920Y-15285960D01*
X12017920Y-15285960D02*
X12027444Y-15266912D01*
X12027444Y-15266912D02*
X12027444Y-15257388D01*
X12027444Y-15257388D02*
X12017920Y-15238341D01*
X12017920Y-15238341D02*
X11998873Y-15228817D01*
X11998873Y-15228817D02*
X11970301Y-15228817D01*
X11970301Y-15228817D02*
X11951254Y-15219293D01*
X11951254Y-15219293D02*
X11941730Y-15200246D01*
X11941730Y-15200246D02*
X11941730Y-15190722D01*
X11941730Y-15190722D02*
X11951254Y-15171674D01*
X11951254Y-15171674D02*
X11970301Y-15162150D01*
X11970301Y-15162150D02*
X11998873Y-15162150D01*
X11998873Y-15162150D02*
X12017920Y-15171674D01*
X12094111Y-15371674D02*
X12103635Y-15362150D01*
X12103635Y-15362150D02*
X12122682Y-15333579D01*
X12122682Y-15333579D02*
X12132206Y-15314531D01*
X12132206Y-15314531D02*
X12141730Y-15285960D01*
X12141730Y-15285960D02*
X12151254Y-15238341D01*
X12151254Y-15238341D02*
X12151254Y-15200246D01*
X12151254Y-15200246D02*
X12141730Y-15152627D01*
X12141730Y-15152627D02*
X12132206Y-15124055D01*
X12132206Y-15124055D02*
X12122682Y-15105008D01*
X12122682Y-15105008D02*
X12103635Y-15076436D01*
X12103635Y-15076436D02*
X12094111Y-15066912D01*
D10*
X5654280Y-15422280D02*
X5654280Y-15513720D01*
X5608560Y-15468000D02*
X5700000Y-15468000D01*
D11*
X5998872Y-15359484D02*
X6017920Y-15359484D01*
X6017920Y-15359484D02*
X6036967Y-15369008D01*
X6036967Y-15369008D02*
X6046491Y-15378531D01*
X6046491Y-15378531D02*
X6056015Y-15397579D01*
X6056015Y-15397579D02*
X6065539Y-15435674D01*
X6065539Y-15435674D02*
X6065539Y-15483293D01*
X6065539Y-15483293D02*
X6056015Y-15521388D01*
X6056015Y-15521388D02*
X6046491Y-15540436D01*
X6046491Y-15540436D02*
X6036967Y-15549960D01*
X6036967Y-15549960D02*
X6017920Y-15559484D01*
X6017920Y-15559484D02*
X5998872Y-15559484D01*
X5998872Y-15559484D02*
X5979824Y-15549960D01*
X5979824Y-15549960D02*
X5970301Y-15540436D01*
X5970301Y-15540436D02*
X5960777Y-15521388D01*
X5960777Y-15521388D02*
X5951253Y-15483293D01*
X5951253Y-15483293D02*
X5951253Y-15435674D01*
X5951253Y-15435674D02*
X5960777Y-15397579D01*
X5960777Y-15397579D02*
X5970301Y-15378531D01*
X5970301Y-15378531D02*
X5979824Y-15369008D01*
X5979824Y-15369008D02*
X5998872Y-15359484D01*
X6151253Y-15540436D02*
X6160777Y-15549960D01*
X6160777Y-15549960D02*
X6151253Y-15559484D01*
X6151253Y-15559484D02*
X6141729Y-15549960D01*
X6141729Y-15549960D02*
X6151253Y-15540436D01*
X6151253Y-15540436D02*
X6151253Y-15559484D01*
X6256015Y-15559484D02*
X6294110Y-15559484D01*
X6294110Y-15559484D02*
X6313158Y-15549960D01*
X6313158Y-15549960D02*
X6322682Y-15540436D01*
X6322682Y-15540436D02*
X6341729Y-15511865D01*
X6341729Y-15511865D02*
X6351253Y-15473769D01*
X6351253Y-15473769D02*
X6351253Y-15397579D01*
X6351253Y-15397579D02*
X6341729Y-15378531D01*
X6341729Y-15378531D02*
X6332205Y-15369008D01*
X6332205Y-15369008D02*
X6313158Y-15359484D01*
X6313158Y-15359484D02*
X6275062Y-15359484D01*
X6275062Y-15359484D02*
X6256015Y-15369008D01*
X6256015Y-15369008D02*
X6246491Y-15378531D01*
X6246491Y-15378531D02*
X6236967Y-15397579D01*
X6236967Y-15397579D02*
X6236967Y-15445198D01*
X6236967Y-15445198D02*
X6246491Y-15464246D01*
X6246491Y-15464246D02*
X6256015Y-15473769D01*
X6256015Y-15473769D02*
X6275062Y-15483293D01*
X6275062Y-15483293D02*
X6313158Y-15483293D01*
X6313158Y-15483293D02*
X6332205Y-15473769D01*
X6332205Y-15473769D02*
X6341729Y-15464246D01*
X6341729Y-15464246D02*
X6351253Y-15445198D01*
X6541729Y-15559484D02*
X6427443Y-15559484D01*
X6484586Y-15559484D02*
X6484586Y-15359484D01*
X6484586Y-15359484D02*
X6465539Y-15388055D01*
X6465539Y-15388055D02*
X6446491Y-15407103D01*
X6446491Y-15407103D02*
X6427443Y-15416627D01*
X6713158Y-15426150D02*
X6713158Y-15559484D01*
X6665539Y-15349960D02*
X6617920Y-15492817D01*
X6617920Y-15492817D02*
X6741729Y-15492817D01*
X6817920Y-15559484D02*
X6817920Y-15426150D01*
X6817920Y-15445198D02*
X6827443Y-15435674D01*
X6827443Y-15435674D02*
X6846491Y-15426150D01*
X6846491Y-15426150D02*
X6875063Y-15426150D01*
X6875063Y-15426150D02*
X6894110Y-15435674D01*
X6894110Y-15435674D02*
X6903634Y-15454722D01*
X6903634Y-15454722D02*
X6903634Y-15559484D01*
X6903634Y-15454722D02*
X6913158Y-15435674D01*
X6913158Y-15435674D02*
X6932205Y-15426150D01*
X6932205Y-15426150D02*
X6960777Y-15426150D01*
X6960777Y-15426150D02*
X6979824Y-15435674D01*
X6979824Y-15435674D02*
X6989348Y-15454722D01*
X6989348Y-15454722D02*
X6989348Y-15559484D01*
X7084586Y-15559484D02*
X7084586Y-15426150D01*
X7084586Y-15445198D02*
X7094110Y-15435674D01*
X7094110Y-15435674D02*
X7113158Y-15426150D01*
X7113158Y-15426150D02*
X7141729Y-15426150D01*
X7141729Y-15426150D02*
X7160777Y-15435674D01*
X7160777Y-15435674D02*
X7170301Y-15454722D01*
X7170301Y-15454722D02*
X7170301Y-15559484D01*
X7170301Y-15454722D02*
X7179824Y-15435674D01*
X7179824Y-15435674D02*
X7198872Y-15426150D01*
X7198872Y-15426150D02*
X7227443Y-15426150D01*
X7227443Y-15426150D02*
X7246491Y-15435674D01*
X7246491Y-15435674D02*
X7256015Y-15454722D01*
X7256015Y-15454722D02*
X7256015Y-15559484D01*
X7646491Y-15349960D02*
X7475063Y-15607103D01*
X7903634Y-15359484D02*
X7922682Y-15359484D01*
X7922682Y-15359484D02*
X7941729Y-15369008D01*
X7941729Y-15369008D02*
X7951253Y-15378531D01*
X7951253Y-15378531D02*
X7960777Y-15397579D01*
X7960777Y-15397579D02*
X7970301Y-15435674D01*
X7970301Y-15435674D02*
X7970301Y-15483293D01*
X7970301Y-15483293D02*
X7960777Y-15521388D01*
X7960777Y-15521388D02*
X7951253Y-15540436D01*
X7951253Y-15540436D02*
X7941729Y-15549960D01*
X7941729Y-15549960D02*
X7922682Y-15559484D01*
X7922682Y-15559484D02*
X7903634Y-15559484D01*
X7903634Y-15559484D02*
X7884586Y-15549960D01*
X7884586Y-15549960D02*
X7875063Y-15540436D01*
X7875063Y-15540436D02*
X7865539Y-15521388D01*
X7865539Y-15521388D02*
X7856015Y-15483293D01*
X7856015Y-15483293D02*
X7856015Y-15435674D01*
X7856015Y-15435674D02*
X7865539Y-15397579D01*
X7865539Y-15397579D02*
X7875063Y-15378531D01*
X7875063Y-15378531D02*
X7884586Y-15369008D01*
X7884586Y-15369008D02*
X7903634Y-15359484D01*
X8056015Y-15540436D02*
X8065539Y-15549960D01*
X8065539Y-15549960D02*
X8056015Y-15559484D01*
X8056015Y-15559484D02*
X8046491Y-15549960D01*
X8046491Y-15549960D02*
X8056015Y-15540436D01*
X8056015Y-15540436D02*
X8056015Y-15559484D01*
X8189348Y-15359484D02*
X8208396Y-15359484D01*
X8208396Y-15359484D02*
X8227444Y-15369008D01*
X8227444Y-15369008D02*
X8236967Y-15378531D01*
X8236967Y-15378531D02*
X8246491Y-15397579D01*
X8246491Y-15397579D02*
X8256015Y-15435674D01*
X8256015Y-15435674D02*
X8256015Y-15483293D01*
X8256015Y-15483293D02*
X8246491Y-15521388D01*
X8246491Y-15521388D02*
X8236967Y-15540436D01*
X8236967Y-15540436D02*
X8227444Y-15549960D01*
X8227444Y-15549960D02*
X8208396Y-15559484D01*
X8208396Y-15559484D02*
X8189348Y-15559484D01*
X8189348Y-15559484D02*
X8170301Y-15549960D01*
X8170301Y-15549960D02*
X8160777Y-15540436D01*
X8160777Y-15540436D02*
X8151253Y-15521388D01*
X8151253Y-15521388D02*
X8141729Y-15483293D01*
X8141729Y-15483293D02*
X8141729Y-15435674D01*
X8141729Y-15435674D02*
X8151253Y-15397579D01*
X8151253Y-15397579D02*
X8160777Y-15378531D01*
X8160777Y-15378531D02*
X8170301Y-15369008D01*
X8170301Y-15369008D02*
X8189348Y-15359484D01*
X8322682Y-15359484D02*
X8446491Y-15359484D01*
X8446491Y-15359484D02*
X8379825Y-15435674D01*
X8379825Y-15435674D02*
X8408396Y-15435674D01*
X8408396Y-15435674D02*
X8427444Y-15445198D01*
X8427444Y-15445198D02*
X8436968Y-15454722D01*
X8436968Y-15454722D02*
X8446491Y-15473769D01*
X8446491Y-15473769D02*
X8446491Y-15521388D01*
X8446491Y-15521388D02*
X8436968Y-15540436D01*
X8436968Y-15540436D02*
X8427444Y-15549960D01*
X8427444Y-15549960D02*
X8408396Y-15559484D01*
X8408396Y-15559484D02*
X8351253Y-15559484D01*
X8351253Y-15559484D02*
X8332206Y-15549960D01*
X8332206Y-15549960D02*
X8322682Y-15540436D01*
X8617920Y-15359484D02*
X8579825Y-15359484D01*
X8579825Y-15359484D02*
X8560777Y-15369008D01*
X8560777Y-15369008D02*
X8551253Y-15378531D01*
X8551253Y-15378531D02*
X8532206Y-15407103D01*
X8532206Y-15407103D02*
X8522682Y-15445198D01*
X8522682Y-15445198D02*
X8522682Y-15521388D01*
X8522682Y-15521388D02*
X8532206Y-15540436D01*
X8532206Y-15540436D02*
X8541729Y-15549960D01*
X8541729Y-15549960D02*
X8560777Y-15559484D01*
X8560777Y-15559484D02*
X8598872Y-15559484D01*
X8598872Y-15559484D02*
X8617920Y-15549960D01*
X8617920Y-15549960D02*
X8627444Y-15540436D01*
X8627444Y-15540436D02*
X8636968Y-15521388D01*
X8636968Y-15521388D02*
X8636968Y-15473769D01*
X8636968Y-15473769D02*
X8627444Y-15454722D01*
X8627444Y-15454722D02*
X8617920Y-15445198D01*
X8617920Y-15445198D02*
X8598872Y-15435674D01*
X8598872Y-15435674D02*
X8560777Y-15435674D01*
X8560777Y-15435674D02*
X8541729Y-15445198D01*
X8541729Y-15445198D02*
X8532206Y-15454722D01*
X8532206Y-15454722D02*
X8522682Y-15473769D01*
X8760777Y-15359484D02*
X8779825Y-15359484D01*
X8779825Y-15359484D02*
X8798872Y-15369008D01*
X8798872Y-15369008D02*
X8808396Y-15378531D01*
X8808396Y-15378531D02*
X8817920Y-15397579D01*
X8817920Y-15397579D02*
X8827444Y-15435674D01*
X8827444Y-15435674D02*
X8827444Y-15483293D01*
X8827444Y-15483293D02*
X8817920Y-15521388D01*
X8817920Y-15521388D02*
X8808396Y-15540436D01*
X8808396Y-15540436D02*
X8798872Y-15549960D01*
X8798872Y-15549960D02*
X8779825Y-15559484D01*
X8779825Y-15559484D02*
X8760777Y-15559484D01*
X8760777Y-15559484D02*
X8741729Y-15549960D01*
X8741729Y-15549960D02*
X8732206Y-15540436D01*
X8732206Y-15540436D02*
X8722682Y-15521388D01*
X8722682Y-15521388D02*
X8713158Y-15483293D01*
X8713158Y-15483293D02*
X8713158Y-15435674D01*
X8713158Y-15435674D02*
X8722682Y-15397579D01*
X8722682Y-15397579D02*
X8732206Y-15378531D01*
X8732206Y-15378531D02*
X8741729Y-15369008D01*
X8741729Y-15369008D02*
X8760777Y-15359484D01*
X8903634Y-15359484D02*
X8903634Y-15397579D01*
X8979825Y-15359484D02*
X8979825Y-15397579D01*
X9275063Y-15635674D02*
X9265539Y-15626150D01*
X9265539Y-15626150D02*
X9246491Y-15597579D01*
X9246491Y-15597579D02*
X9236968Y-15578531D01*
X9236968Y-15578531D02*
X9227444Y-15549960D01*
X9227444Y-15549960D02*
X9217920Y-15502341D01*
X9217920Y-15502341D02*
X9217920Y-15464246D01*
X9217920Y-15464246D02*
X9227444Y-15416627D01*
X9227444Y-15416627D02*
X9236968Y-15388055D01*
X9236968Y-15388055D02*
X9246491Y-15369008D01*
X9246491Y-15369008D02*
X9265539Y-15340436D01*
X9265539Y-15340436D02*
X9275063Y-15330912D01*
X9341730Y-15378531D02*
X9351253Y-15369008D01*
X9351253Y-15369008D02*
X9370301Y-15359484D01*
X9370301Y-15359484D02*
X9417920Y-15359484D01*
X9417920Y-15359484D02*
X9436968Y-15369008D01*
X9436968Y-15369008D02*
X9446491Y-15378531D01*
X9446491Y-15378531D02*
X9456015Y-15397579D01*
X9456015Y-15397579D02*
X9456015Y-15416627D01*
X9456015Y-15416627D02*
X9446491Y-15445198D01*
X9446491Y-15445198D02*
X9332206Y-15559484D01*
X9332206Y-15559484D02*
X9456015Y-15559484D01*
X9579825Y-15359484D02*
X9598872Y-15359484D01*
X9598872Y-15359484D02*
X9617920Y-15369008D01*
X9617920Y-15369008D02*
X9627444Y-15378531D01*
X9627444Y-15378531D02*
X9636968Y-15397579D01*
X9636968Y-15397579D02*
X9646491Y-15435674D01*
X9646491Y-15435674D02*
X9646491Y-15483293D01*
X9646491Y-15483293D02*
X9636968Y-15521388D01*
X9636968Y-15521388D02*
X9627444Y-15540436D01*
X9627444Y-15540436D02*
X9617920Y-15549960D01*
X9617920Y-15549960D02*
X9598872Y-15559484D01*
X9598872Y-15559484D02*
X9579825Y-15559484D01*
X9579825Y-15559484D02*
X9560777Y-15549960D01*
X9560777Y-15549960D02*
X9551253Y-15540436D01*
X9551253Y-15540436D02*
X9541730Y-15521388D01*
X9541730Y-15521388D02*
X9532206Y-15483293D01*
X9532206Y-15483293D02*
X9532206Y-15435674D01*
X9532206Y-15435674D02*
X9541730Y-15397579D01*
X9541730Y-15397579D02*
X9551253Y-15378531D01*
X9551253Y-15378531D02*
X9560777Y-15369008D01*
X9560777Y-15369008D02*
X9579825Y-15359484D01*
X9884587Y-15559484D02*
X9884587Y-15359484D01*
X9970301Y-15559484D02*
X9970301Y-15454722D01*
X9970301Y-15454722D02*
X9960777Y-15435674D01*
X9960777Y-15435674D02*
X9941730Y-15426150D01*
X9941730Y-15426150D02*
X9913158Y-15426150D01*
X9913158Y-15426150D02*
X9894111Y-15435674D01*
X9894111Y-15435674D02*
X9884587Y-15445198D01*
X10094111Y-15559484D02*
X10075063Y-15549960D01*
X10075063Y-15549960D02*
X10065539Y-15540436D01*
X10065539Y-15540436D02*
X10056015Y-15521388D01*
X10056015Y-15521388D02*
X10056015Y-15464246D01*
X10056015Y-15464246D02*
X10065539Y-15445198D01*
X10065539Y-15445198D02*
X10075063Y-15435674D01*
X10075063Y-15435674D02*
X10094111Y-15426150D01*
X10094111Y-15426150D02*
X10122682Y-15426150D01*
X10122682Y-15426150D02*
X10141730Y-15435674D01*
X10141730Y-15435674D02*
X10151253Y-15445198D01*
X10151253Y-15445198D02*
X10160777Y-15464246D01*
X10160777Y-15464246D02*
X10160777Y-15521388D01*
X10160777Y-15521388D02*
X10151253Y-15540436D01*
X10151253Y-15540436D02*
X10141730Y-15549960D01*
X10141730Y-15549960D02*
X10122682Y-15559484D01*
X10122682Y-15559484D02*
X10094111Y-15559484D01*
X10275063Y-15559484D02*
X10256015Y-15549960D01*
X10256015Y-15549960D02*
X10246492Y-15530912D01*
X10246492Y-15530912D02*
X10246492Y-15359484D01*
X10427444Y-15549960D02*
X10408396Y-15559484D01*
X10408396Y-15559484D02*
X10370301Y-15559484D01*
X10370301Y-15559484D02*
X10351253Y-15549960D01*
X10351253Y-15549960D02*
X10341730Y-15530912D01*
X10341730Y-15530912D02*
X10341730Y-15454722D01*
X10341730Y-15454722D02*
X10351253Y-15435674D01*
X10351253Y-15435674D02*
X10370301Y-15426150D01*
X10370301Y-15426150D02*
X10408396Y-15426150D01*
X10408396Y-15426150D02*
X10427444Y-15435674D01*
X10427444Y-15435674D02*
X10436968Y-15454722D01*
X10436968Y-15454722D02*
X10436968Y-15473769D01*
X10436968Y-15473769D02*
X10341730Y-15492817D01*
X10513158Y-15549960D02*
X10532206Y-15559484D01*
X10532206Y-15559484D02*
X10570301Y-15559484D01*
X10570301Y-15559484D02*
X10589349Y-15549960D01*
X10589349Y-15549960D02*
X10598873Y-15530912D01*
X10598873Y-15530912D02*
X10598873Y-15521388D01*
X10598873Y-15521388D02*
X10589349Y-15502341D01*
X10589349Y-15502341D02*
X10570301Y-15492817D01*
X10570301Y-15492817D02*
X10541730Y-15492817D01*
X10541730Y-15492817D02*
X10522682Y-15483293D01*
X10522682Y-15483293D02*
X10513158Y-15464246D01*
X10513158Y-15464246D02*
X10513158Y-15454722D01*
X10513158Y-15454722D02*
X10522682Y-15435674D01*
X10522682Y-15435674D02*
X10541730Y-15426150D01*
X10541730Y-15426150D02*
X10570301Y-15426150D01*
X10570301Y-15426150D02*
X10589349Y-15435674D01*
X10665539Y-15635674D02*
X10675063Y-15626150D01*
X10675063Y-15626150D02*
X10694111Y-15597579D01*
X10694111Y-15597579D02*
X10703634Y-15578531D01*
X10703634Y-15578531D02*
X10713158Y-15549960D01*
X10713158Y-15549960D02*
X10722682Y-15502341D01*
X10722682Y-15502341D02*
X10722682Y-15464246D01*
X10722682Y-15464246D02*
X10713158Y-15416627D01*
X10713158Y-15416627D02*
X10703634Y-15388055D01*
X10703634Y-15388055D02*
X10694111Y-15369008D01*
X10694111Y-15369008D02*
X10675063Y-15340436D01*
X10675063Y-15340436D02*
X10665539Y-15330912D01*
D12*
X5682427Y-15774427D02*
X5682427Y-15689573D01*
X5597573Y-15689573D01*
X5597573Y-15774427D01*
X5682427Y-15774427D01*
D11*
X6065539Y-15823484D02*
X5951253Y-15823484D01*
X6008396Y-15823484D02*
X6008396Y-15623484D01*
X6008396Y-15623484D02*
X5989348Y-15652055D01*
X5989348Y-15652055D02*
X5970301Y-15671103D01*
X5970301Y-15671103D02*
X5951253Y-15680627D01*
X6151253Y-15804436D02*
X6160777Y-15813960D01*
X6160777Y-15813960D02*
X6151253Y-15823484D01*
X6151253Y-15823484D02*
X6141729Y-15813960D01*
X6141729Y-15813960D02*
X6151253Y-15804436D01*
X6151253Y-15804436D02*
X6151253Y-15823484D01*
X6236967Y-15642531D02*
X6246491Y-15633008D01*
X6246491Y-15633008D02*
X6265539Y-15623484D01*
X6265539Y-15623484D02*
X6313158Y-15623484D01*
X6313158Y-15623484D02*
X6332205Y-15633008D01*
X6332205Y-15633008D02*
X6341729Y-15642531D01*
X6341729Y-15642531D02*
X6351253Y-15661579D01*
X6351253Y-15661579D02*
X6351253Y-15680627D01*
X6351253Y-15680627D02*
X6341729Y-15709198D01*
X6341729Y-15709198D02*
X6227443Y-15823484D01*
X6227443Y-15823484D02*
X6351253Y-15823484D01*
X6475062Y-15623484D02*
X6494110Y-15623484D01*
X6494110Y-15623484D02*
X6513158Y-15633008D01*
X6513158Y-15633008D02*
X6522682Y-15642531D01*
X6522682Y-15642531D02*
X6532205Y-15661579D01*
X6532205Y-15661579D02*
X6541729Y-15699674D01*
X6541729Y-15699674D02*
X6541729Y-15747293D01*
X6541729Y-15747293D02*
X6532205Y-15785388D01*
X6532205Y-15785388D02*
X6522682Y-15804436D01*
X6522682Y-15804436D02*
X6513158Y-15813960D01*
X6513158Y-15813960D02*
X6494110Y-15823484D01*
X6494110Y-15823484D02*
X6475062Y-15823484D01*
X6475062Y-15823484D02*
X6456015Y-15813960D01*
X6456015Y-15813960D02*
X6446491Y-15804436D01*
X6446491Y-15804436D02*
X6436967Y-15785388D01*
X6436967Y-15785388D02*
X6427443Y-15747293D01*
X6427443Y-15747293D02*
X6427443Y-15699674D01*
X6427443Y-15699674D02*
X6436967Y-15661579D01*
X6436967Y-15661579D02*
X6446491Y-15642531D01*
X6446491Y-15642531D02*
X6456015Y-15633008D01*
X6456015Y-15633008D02*
X6475062Y-15623484D01*
X6665539Y-15623484D02*
X6684586Y-15623484D01*
X6684586Y-15623484D02*
X6703634Y-15633008D01*
X6703634Y-15633008D02*
X6713158Y-15642531D01*
X6713158Y-15642531D02*
X6722682Y-15661579D01*
X6722682Y-15661579D02*
X6732205Y-15699674D01*
X6732205Y-15699674D02*
X6732205Y-15747293D01*
X6732205Y-15747293D02*
X6722682Y-15785388D01*
X6722682Y-15785388D02*
X6713158Y-15804436D01*
X6713158Y-15804436D02*
X6703634Y-15813960D01*
X6703634Y-15813960D02*
X6684586Y-15823484D01*
X6684586Y-15823484D02*
X6665539Y-15823484D01*
X6665539Y-15823484D02*
X6646491Y-15813960D01*
X6646491Y-15813960D02*
X6636967Y-15804436D01*
X6636967Y-15804436D02*
X6627443Y-15785388D01*
X6627443Y-15785388D02*
X6617920Y-15747293D01*
X6617920Y-15747293D02*
X6617920Y-15699674D01*
X6617920Y-15699674D02*
X6627443Y-15661579D01*
X6627443Y-15661579D02*
X6636967Y-15642531D01*
X6636967Y-15642531D02*
X6646491Y-15633008D01*
X6646491Y-15633008D02*
X6665539Y-15623484D01*
X6817920Y-15823484D02*
X6817920Y-15690150D01*
X6817920Y-15709198D02*
X6827443Y-15699674D01*
X6827443Y-15699674D02*
X6846491Y-15690150D01*
X6846491Y-15690150D02*
X6875063Y-15690150D01*
X6875063Y-15690150D02*
X6894110Y-15699674D01*
X6894110Y-15699674D02*
X6903634Y-15718722D01*
X6903634Y-15718722D02*
X6903634Y-15823484D01*
X6903634Y-15718722D02*
X6913158Y-15699674D01*
X6913158Y-15699674D02*
X6932205Y-15690150D01*
X6932205Y-15690150D02*
X6960777Y-15690150D01*
X6960777Y-15690150D02*
X6979824Y-15699674D01*
X6979824Y-15699674D02*
X6989348Y-15718722D01*
X6989348Y-15718722D02*
X6989348Y-15823484D01*
X7084586Y-15823484D02*
X7084586Y-15690150D01*
X7084586Y-15709198D02*
X7094110Y-15699674D01*
X7094110Y-15699674D02*
X7113158Y-15690150D01*
X7113158Y-15690150D02*
X7141729Y-15690150D01*
X7141729Y-15690150D02*
X7160777Y-15699674D01*
X7160777Y-15699674D02*
X7170301Y-15718722D01*
X7170301Y-15718722D02*
X7170301Y-15823484D01*
X7170301Y-15718722D02*
X7179824Y-15699674D01*
X7179824Y-15699674D02*
X7198872Y-15690150D01*
X7198872Y-15690150D02*
X7227443Y-15690150D01*
X7227443Y-15690150D02*
X7246491Y-15699674D01*
X7246491Y-15699674D02*
X7256015Y-15718722D01*
X7256015Y-15718722D02*
X7256015Y-15823484D01*
X7646491Y-15613960D02*
X7475063Y-15871103D01*
X7903634Y-15623484D02*
X7922682Y-15623484D01*
X7922682Y-15623484D02*
X7941729Y-15633008D01*
X7941729Y-15633008D02*
X7951253Y-15642531D01*
X7951253Y-15642531D02*
X7960777Y-15661579D01*
X7960777Y-15661579D02*
X7970301Y-15699674D01*
X7970301Y-15699674D02*
X7970301Y-15747293D01*
X7970301Y-15747293D02*
X7960777Y-15785388D01*
X7960777Y-15785388D02*
X7951253Y-15804436D01*
X7951253Y-15804436D02*
X7941729Y-15813960D01*
X7941729Y-15813960D02*
X7922682Y-15823484D01*
X7922682Y-15823484D02*
X7903634Y-15823484D01*
X7903634Y-15823484D02*
X7884586Y-15813960D01*
X7884586Y-15813960D02*
X7875063Y-15804436D01*
X7875063Y-15804436D02*
X7865539Y-15785388D01*
X7865539Y-15785388D02*
X7856015Y-15747293D01*
X7856015Y-15747293D02*
X7856015Y-15699674D01*
X7856015Y-15699674D02*
X7865539Y-15661579D01*
X7865539Y-15661579D02*
X7875063Y-15642531D01*
X7875063Y-15642531D02*
X7884586Y-15633008D01*
X7884586Y-15633008D02*
X7903634Y-15623484D01*
X8056015Y-15804436D02*
X8065539Y-15813960D01*
X8065539Y-15813960D02*
X8056015Y-15823484D01*
X8056015Y-15823484D02*
X8046491Y-15813960D01*
X8046491Y-15813960D02*
X8056015Y-15804436D01*
X8056015Y-15804436D02*
X8056015Y-15823484D01*
X8189348Y-15623484D02*
X8208396Y-15623484D01*
X8208396Y-15623484D02*
X8227444Y-15633008D01*
X8227444Y-15633008D02*
X8236967Y-15642531D01*
X8236967Y-15642531D02*
X8246491Y-15661579D01*
X8246491Y-15661579D02*
X8256015Y-15699674D01*
X8256015Y-15699674D02*
X8256015Y-15747293D01*
X8256015Y-15747293D02*
X8246491Y-15785388D01*
X8246491Y-15785388D02*
X8236967Y-15804436D01*
X8236967Y-15804436D02*
X8227444Y-15813960D01*
X8227444Y-15813960D02*
X8208396Y-15823484D01*
X8208396Y-15823484D02*
X8189348Y-15823484D01*
X8189348Y-15823484D02*
X8170301Y-15813960D01*
X8170301Y-15813960D02*
X8160777Y-15804436D01*
X8160777Y-15804436D02*
X8151253Y-15785388D01*
X8151253Y-15785388D02*
X8141729Y-15747293D01*
X8141729Y-15747293D02*
X8141729Y-15699674D01*
X8141729Y-15699674D02*
X8151253Y-15661579D01*
X8151253Y-15661579D02*
X8160777Y-15642531D01*
X8160777Y-15642531D02*
X8170301Y-15633008D01*
X8170301Y-15633008D02*
X8189348Y-15623484D01*
X8427444Y-15690150D02*
X8427444Y-15823484D01*
X8379825Y-15613960D02*
X8332206Y-15756817D01*
X8332206Y-15756817D02*
X8456015Y-15756817D01*
X8513158Y-15623484D02*
X8646491Y-15623484D01*
X8646491Y-15623484D02*
X8560777Y-15823484D01*
X8713158Y-15642531D02*
X8722682Y-15633008D01*
X8722682Y-15633008D02*
X8741729Y-15623484D01*
X8741729Y-15623484D02*
X8789349Y-15623484D01*
X8789349Y-15623484D02*
X8808396Y-15633008D01*
X8808396Y-15633008D02*
X8817920Y-15642531D01*
X8817920Y-15642531D02*
X8827444Y-15661579D01*
X8827444Y-15661579D02*
X8827444Y-15680627D01*
X8827444Y-15680627D02*
X8817920Y-15709198D01*
X8817920Y-15709198D02*
X8703634Y-15823484D01*
X8703634Y-15823484D02*
X8827444Y-15823484D01*
X8903634Y-15623484D02*
X8903634Y-15661579D01*
X8979825Y-15623484D02*
X8979825Y-15661579D01*
X9275063Y-15899674D02*
X9265539Y-15890150D01*
X9265539Y-15890150D02*
X9246491Y-15861579D01*
X9246491Y-15861579D02*
X9236968Y-15842531D01*
X9236968Y-15842531D02*
X9227444Y-15813960D01*
X9227444Y-15813960D02*
X9217920Y-15766341D01*
X9217920Y-15766341D02*
X9217920Y-15728246D01*
X9217920Y-15728246D02*
X9227444Y-15680627D01*
X9227444Y-15680627D02*
X9236968Y-15652055D01*
X9236968Y-15652055D02*
X9246491Y-15633008D01*
X9246491Y-15633008D02*
X9265539Y-15604436D01*
X9265539Y-15604436D02*
X9275063Y-15594912D01*
X9436968Y-15690150D02*
X9436968Y-15823484D01*
X9389349Y-15613960D02*
X9341730Y-15756817D01*
X9341730Y-15756817D02*
X9465539Y-15756817D01*
X9694111Y-15823484D02*
X9694111Y-15623484D01*
X9779825Y-15823484D02*
X9779825Y-15718722D01*
X9779825Y-15718722D02*
X9770301Y-15699674D01*
X9770301Y-15699674D02*
X9751253Y-15690150D01*
X9751253Y-15690150D02*
X9722682Y-15690150D01*
X9722682Y-15690150D02*
X9703634Y-15699674D01*
X9703634Y-15699674D02*
X9694111Y-15709198D01*
X9903634Y-15823484D02*
X9884587Y-15813960D01*
X9884587Y-15813960D02*
X9875063Y-15804436D01*
X9875063Y-15804436D02*
X9865539Y-15785388D01*
X9865539Y-15785388D02*
X9865539Y-15728246D01*
X9865539Y-15728246D02*
X9875063Y-15709198D01*
X9875063Y-15709198D02*
X9884587Y-15699674D01*
X9884587Y-15699674D02*
X9903634Y-15690150D01*
X9903634Y-15690150D02*
X9932206Y-15690150D01*
X9932206Y-15690150D02*
X9951253Y-15699674D01*
X9951253Y-15699674D02*
X9960777Y-15709198D01*
X9960777Y-15709198D02*
X9970301Y-15728246D01*
X9970301Y-15728246D02*
X9970301Y-15785388D01*
X9970301Y-15785388D02*
X9960777Y-15804436D01*
X9960777Y-15804436D02*
X9951253Y-15813960D01*
X9951253Y-15813960D02*
X9932206Y-15823484D01*
X9932206Y-15823484D02*
X9903634Y-15823484D01*
X10084587Y-15823484D02*
X10065539Y-15813960D01*
X10065539Y-15813960D02*
X10056015Y-15794912D01*
X10056015Y-15794912D02*
X10056015Y-15623484D01*
X10236968Y-15813960D02*
X10217920Y-15823484D01*
X10217920Y-15823484D02*
X10179825Y-15823484D01*
X10179825Y-15823484D02*
X10160777Y-15813960D01*
X10160777Y-15813960D02*
X10151253Y-15794912D01*
X10151253Y-15794912D02*
X10151253Y-15718722D01*
X10151253Y-15718722D02*
X10160777Y-15699674D01*
X10160777Y-15699674D02*
X10179825Y-15690150D01*
X10179825Y-15690150D02*
X10217920Y-15690150D01*
X10217920Y-15690150D02*
X10236968Y-15699674D01*
X10236968Y-15699674D02*
X10246492Y-15718722D01*
X10246492Y-15718722D02*
X10246492Y-15737769D01*
X10246492Y-15737769D02*
X10151253Y-15756817D01*
X10322682Y-15813960D02*
X10341730Y-15823484D01*
X10341730Y-15823484D02*
X10379825Y-15823484D01*
X10379825Y-15823484D02*
X10398873Y-15813960D01*
X10398873Y-15813960D02*
X10408396Y-15794912D01*
X10408396Y-15794912D02*
X10408396Y-15785388D01*
X10408396Y-15785388D02*
X10398873Y-15766341D01*
X10398873Y-15766341D02*
X10379825Y-15756817D01*
X10379825Y-15756817D02*
X10351253Y-15756817D01*
X10351253Y-15756817D02*
X10332206Y-15747293D01*
X10332206Y-15747293D02*
X10322682Y-15728246D01*
X10322682Y-15728246D02*
X10322682Y-15718722D01*
X10322682Y-15718722D02*
X10332206Y-15699674D01*
X10332206Y-15699674D02*
X10351253Y-15690150D01*
X10351253Y-15690150D02*
X10379825Y-15690150D01*
X10379825Y-15690150D02*
X10398873Y-15699674D01*
X10475063Y-15899674D02*
X10484587Y-15890150D01*
X10484587Y-15890150D02*
X10503634Y-15861579D01*
X10503634Y-15861579D02*
X10513158Y-15842531D01*
X10513158Y-15842531D02*
X10522682Y-15813960D01*
X10522682Y-15813960D02*
X10532206Y-15766341D01*
X10532206Y-15766341D02*
X10532206Y-15728246D01*
X10532206Y-15728246D02*
X10522682Y-15680627D01*
X10522682Y-15680627D02*
X10513158Y-15652055D01*
X10513158Y-15652055D02*
X10503634Y-15633008D01*
X10503634Y-15633008D02*
X10484587Y-15604436D01*
X10484587Y-15604436D02*
X10475063Y-15594912D01*
D13*
X5610000Y-16086000D02*
X5700000Y-15996000D01*
X5610000Y-15906000D01*
X5520000Y-15996000D01*
X5610000Y-16086000D01*
D11*
X6065539Y-16087484D02*
X5951253Y-16087484D01*
X6008396Y-16087484D02*
X6008396Y-15887484D01*
X6008396Y-15887484D02*
X5989348Y-15916055D01*
X5989348Y-15916055D02*
X5970301Y-15935103D01*
X5970301Y-15935103D02*
X5951253Y-15944627D01*
X6151253Y-16068436D02*
X6160777Y-16077960D01*
X6160777Y-16077960D02*
X6151253Y-16087484D01*
X6151253Y-16087484D02*
X6141729Y-16077960D01*
X6141729Y-16077960D02*
X6151253Y-16068436D01*
X6151253Y-16068436D02*
X6151253Y-16087484D01*
X6275062Y-15973198D02*
X6256015Y-15963674D01*
X6256015Y-15963674D02*
X6246491Y-15954150D01*
X6246491Y-15954150D02*
X6236967Y-15935103D01*
X6236967Y-15935103D02*
X6236967Y-15925579D01*
X6236967Y-15925579D02*
X6246491Y-15906531D01*
X6246491Y-15906531D02*
X6256015Y-15897008D01*
X6256015Y-15897008D02*
X6275062Y-15887484D01*
X6275062Y-15887484D02*
X6313158Y-15887484D01*
X6313158Y-15887484D02*
X6332205Y-15897008D01*
X6332205Y-15897008D02*
X6341729Y-15906531D01*
X6341729Y-15906531D02*
X6351253Y-15925579D01*
X6351253Y-15925579D02*
X6351253Y-15935103D01*
X6351253Y-15935103D02*
X6341729Y-15954150D01*
X6341729Y-15954150D02*
X6332205Y-15963674D01*
X6332205Y-15963674D02*
X6313158Y-15973198D01*
X6313158Y-15973198D02*
X6275062Y-15973198D01*
X6275062Y-15973198D02*
X6256015Y-15982722D01*
X6256015Y-15982722D02*
X6246491Y-15992246D01*
X6246491Y-15992246D02*
X6236967Y-16011293D01*
X6236967Y-16011293D02*
X6236967Y-16049388D01*
X6236967Y-16049388D02*
X6246491Y-16068436D01*
X6246491Y-16068436D02*
X6256015Y-16077960D01*
X6256015Y-16077960D02*
X6275062Y-16087484D01*
X6275062Y-16087484D02*
X6313158Y-16087484D01*
X6313158Y-16087484D02*
X6332205Y-16077960D01*
X6332205Y-16077960D02*
X6341729Y-16068436D01*
X6341729Y-16068436D02*
X6351253Y-16049388D01*
X6351253Y-16049388D02*
X6351253Y-16011293D01*
X6351253Y-16011293D02*
X6341729Y-15992246D01*
X6341729Y-15992246D02*
X6332205Y-15982722D01*
X6332205Y-15982722D02*
X6313158Y-15973198D01*
X6475062Y-15887484D02*
X6494110Y-15887484D01*
X6494110Y-15887484D02*
X6513158Y-15897008D01*
X6513158Y-15897008D02*
X6522682Y-15906531D01*
X6522682Y-15906531D02*
X6532205Y-15925579D01*
X6532205Y-15925579D02*
X6541729Y-15963674D01*
X6541729Y-15963674D02*
X6541729Y-16011293D01*
X6541729Y-16011293D02*
X6532205Y-16049388D01*
X6532205Y-16049388D02*
X6522682Y-16068436D01*
X6522682Y-16068436D02*
X6513158Y-16077960D01*
X6513158Y-16077960D02*
X6494110Y-16087484D01*
X6494110Y-16087484D02*
X6475062Y-16087484D01*
X6475062Y-16087484D02*
X6456015Y-16077960D01*
X6456015Y-16077960D02*
X6446491Y-16068436D01*
X6446491Y-16068436D02*
X6436967Y-16049388D01*
X6436967Y-16049388D02*
X6427443Y-16011293D01*
X6427443Y-16011293D02*
X6427443Y-15963674D01*
X6427443Y-15963674D02*
X6436967Y-15925579D01*
X6436967Y-15925579D02*
X6446491Y-15906531D01*
X6446491Y-15906531D02*
X6456015Y-15897008D01*
X6456015Y-15897008D02*
X6475062Y-15887484D01*
X6665539Y-15887484D02*
X6684586Y-15887484D01*
X6684586Y-15887484D02*
X6703634Y-15897008D01*
X6703634Y-15897008D02*
X6713158Y-15906531D01*
X6713158Y-15906531D02*
X6722682Y-15925579D01*
X6722682Y-15925579D02*
X6732205Y-15963674D01*
X6732205Y-15963674D02*
X6732205Y-16011293D01*
X6732205Y-16011293D02*
X6722682Y-16049388D01*
X6722682Y-16049388D02*
X6713158Y-16068436D01*
X6713158Y-16068436D02*
X6703634Y-16077960D01*
X6703634Y-16077960D02*
X6684586Y-16087484D01*
X6684586Y-16087484D02*
X6665539Y-16087484D01*
X6665539Y-16087484D02*
X6646491Y-16077960D01*
X6646491Y-16077960D02*
X6636967Y-16068436D01*
X6636967Y-16068436D02*
X6627443Y-16049388D01*
X6627443Y-16049388D02*
X6617920Y-16011293D01*
X6617920Y-16011293D02*
X6617920Y-15963674D01*
X6617920Y-15963674D02*
X6627443Y-15925579D01*
X6627443Y-15925579D02*
X6636967Y-15906531D01*
X6636967Y-15906531D02*
X6646491Y-15897008D01*
X6646491Y-15897008D02*
X6665539Y-15887484D01*
X6817920Y-16087484D02*
X6817920Y-15954150D01*
X6817920Y-15973198D02*
X6827443Y-15963674D01*
X6827443Y-15963674D02*
X6846491Y-15954150D01*
X6846491Y-15954150D02*
X6875063Y-15954150D01*
X6875063Y-15954150D02*
X6894110Y-15963674D01*
X6894110Y-15963674D02*
X6903634Y-15982722D01*
X6903634Y-15982722D02*
X6903634Y-16087484D01*
X6903634Y-15982722D02*
X6913158Y-15963674D01*
X6913158Y-15963674D02*
X6932205Y-15954150D01*
X6932205Y-15954150D02*
X6960777Y-15954150D01*
X6960777Y-15954150D02*
X6979824Y-15963674D01*
X6979824Y-15963674D02*
X6989348Y-15982722D01*
X6989348Y-15982722D02*
X6989348Y-16087484D01*
X7084586Y-16087484D02*
X7084586Y-15954150D01*
X7084586Y-15973198D02*
X7094110Y-15963674D01*
X7094110Y-15963674D02*
X7113158Y-15954150D01*
X7113158Y-15954150D02*
X7141729Y-15954150D01*
X7141729Y-15954150D02*
X7160777Y-15963674D01*
X7160777Y-15963674D02*
X7170301Y-15982722D01*
X7170301Y-15982722D02*
X7170301Y-16087484D01*
X7170301Y-15982722D02*
X7179824Y-15963674D01*
X7179824Y-15963674D02*
X7198872Y-15954150D01*
X7198872Y-15954150D02*
X7227443Y-15954150D01*
X7227443Y-15954150D02*
X7246491Y-15963674D01*
X7246491Y-15963674D02*
X7256015Y-15982722D01*
X7256015Y-15982722D02*
X7256015Y-16087484D01*
X7646491Y-15877960D02*
X7475063Y-16135103D01*
X7903634Y-15887484D02*
X7922682Y-15887484D01*
X7922682Y-15887484D02*
X7941729Y-15897008D01*
X7941729Y-15897008D02*
X7951253Y-15906531D01*
X7951253Y-15906531D02*
X7960777Y-15925579D01*
X7960777Y-15925579D02*
X7970301Y-15963674D01*
X7970301Y-15963674D02*
X7970301Y-16011293D01*
X7970301Y-16011293D02*
X7960777Y-16049388D01*
X7960777Y-16049388D02*
X7951253Y-16068436D01*
X7951253Y-16068436D02*
X7941729Y-16077960D01*
X7941729Y-16077960D02*
X7922682Y-16087484D01*
X7922682Y-16087484D02*
X7903634Y-16087484D01*
X7903634Y-16087484D02*
X7884586Y-16077960D01*
X7884586Y-16077960D02*
X7875063Y-16068436D01*
X7875063Y-16068436D02*
X7865539Y-16049388D01*
X7865539Y-16049388D02*
X7856015Y-16011293D01*
X7856015Y-16011293D02*
X7856015Y-15963674D01*
X7856015Y-15963674D02*
X7865539Y-15925579D01*
X7865539Y-15925579D02*
X7875063Y-15906531D01*
X7875063Y-15906531D02*
X7884586Y-15897008D01*
X7884586Y-15897008D02*
X7903634Y-15887484D01*
X8056015Y-16068436D02*
X8065539Y-16077960D01*
X8065539Y-16077960D02*
X8056015Y-16087484D01*
X8056015Y-16087484D02*
X8046491Y-16077960D01*
X8046491Y-16077960D02*
X8056015Y-16068436D01*
X8056015Y-16068436D02*
X8056015Y-16087484D01*
X8189348Y-15887484D02*
X8208396Y-15887484D01*
X8208396Y-15887484D02*
X8227444Y-15897008D01*
X8227444Y-15897008D02*
X8236967Y-15906531D01*
X8236967Y-15906531D02*
X8246491Y-15925579D01*
X8246491Y-15925579D02*
X8256015Y-15963674D01*
X8256015Y-15963674D02*
X8256015Y-16011293D01*
X8256015Y-16011293D02*
X8246491Y-16049388D01*
X8246491Y-16049388D02*
X8236967Y-16068436D01*
X8236967Y-16068436D02*
X8227444Y-16077960D01*
X8227444Y-16077960D02*
X8208396Y-16087484D01*
X8208396Y-16087484D02*
X8189348Y-16087484D01*
X8189348Y-16087484D02*
X8170301Y-16077960D01*
X8170301Y-16077960D02*
X8160777Y-16068436D01*
X8160777Y-16068436D02*
X8151253Y-16049388D01*
X8151253Y-16049388D02*
X8141729Y-16011293D01*
X8141729Y-16011293D02*
X8141729Y-15963674D01*
X8141729Y-15963674D02*
X8151253Y-15925579D01*
X8151253Y-15925579D02*
X8160777Y-15906531D01*
X8160777Y-15906531D02*
X8170301Y-15897008D01*
X8170301Y-15897008D02*
X8189348Y-15887484D01*
X8322682Y-15887484D02*
X8456015Y-15887484D01*
X8456015Y-15887484D02*
X8370301Y-16087484D01*
X8570301Y-15887484D02*
X8589349Y-15887484D01*
X8589349Y-15887484D02*
X8608396Y-15897008D01*
X8608396Y-15897008D02*
X8617920Y-15906531D01*
X8617920Y-15906531D02*
X8627444Y-15925579D01*
X8627444Y-15925579D02*
X8636968Y-15963674D01*
X8636968Y-15963674D02*
X8636968Y-16011293D01*
X8636968Y-16011293D02*
X8627444Y-16049388D01*
X8627444Y-16049388D02*
X8617920Y-16068436D01*
X8617920Y-16068436D02*
X8608396Y-16077960D01*
X8608396Y-16077960D02*
X8589349Y-16087484D01*
X8589349Y-16087484D02*
X8570301Y-16087484D01*
X8570301Y-16087484D02*
X8551253Y-16077960D01*
X8551253Y-16077960D02*
X8541729Y-16068436D01*
X8541729Y-16068436D02*
X8532206Y-16049388D01*
X8532206Y-16049388D02*
X8522682Y-16011293D01*
X8522682Y-16011293D02*
X8522682Y-15963674D01*
X8522682Y-15963674D02*
X8532206Y-15925579D01*
X8532206Y-15925579D02*
X8541729Y-15906531D01*
X8541729Y-15906531D02*
X8551253Y-15897008D01*
X8551253Y-15897008D02*
X8570301Y-15887484D01*
X8732206Y-16087484D02*
X8770301Y-16087484D01*
X8770301Y-16087484D02*
X8789349Y-16077960D01*
X8789349Y-16077960D02*
X8798872Y-16068436D01*
X8798872Y-16068436D02*
X8817920Y-16039865D01*
X8817920Y-16039865D02*
X8827444Y-16001769D01*
X8827444Y-16001769D02*
X8827444Y-15925579D01*
X8827444Y-15925579D02*
X8817920Y-15906531D01*
X8817920Y-15906531D02*
X8808396Y-15897008D01*
X8808396Y-15897008D02*
X8789349Y-15887484D01*
X8789349Y-15887484D02*
X8751253Y-15887484D01*
X8751253Y-15887484D02*
X8732206Y-15897008D01*
X8732206Y-15897008D02*
X8722682Y-15906531D01*
X8722682Y-15906531D02*
X8713158Y-15925579D01*
X8713158Y-15925579D02*
X8713158Y-15973198D01*
X8713158Y-15973198D02*
X8722682Y-15992246D01*
X8722682Y-15992246D02*
X8732206Y-16001769D01*
X8732206Y-16001769D02*
X8751253Y-16011293D01*
X8751253Y-16011293D02*
X8789349Y-16011293D01*
X8789349Y-16011293D02*
X8808396Y-16001769D01*
X8808396Y-16001769D02*
X8817920Y-15992246D01*
X8817920Y-15992246D02*
X8827444Y-15973198D01*
X8903634Y-15887484D02*
X8903634Y-15925579D01*
X8979825Y-15887484D02*
X8979825Y-15925579D01*
X9275063Y-16163674D02*
X9265539Y-16154150D01*
X9265539Y-16154150D02*
X9246491Y-16125579D01*
X9246491Y-16125579D02*
X9236968Y-16106531D01*
X9236968Y-16106531D02*
X9227444Y-16077960D01*
X9227444Y-16077960D02*
X9217920Y-16030341D01*
X9217920Y-16030341D02*
X9217920Y-15992246D01*
X9217920Y-15992246D02*
X9227444Y-15944627D01*
X9227444Y-15944627D02*
X9236968Y-15916055D01*
X9236968Y-15916055D02*
X9246491Y-15897008D01*
X9246491Y-15897008D02*
X9265539Y-15868436D01*
X9265539Y-15868436D02*
X9275063Y-15858912D01*
X9436968Y-15887484D02*
X9398872Y-15887484D01*
X9398872Y-15887484D02*
X9379825Y-15897008D01*
X9379825Y-15897008D02*
X9370301Y-15906531D01*
X9370301Y-15906531D02*
X9351253Y-15935103D01*
X9351253Y-15935103D02*
X9341730Y-15973198D01*
X9341730Y-15973198D02*
X9341730Y-16049388D01*
X9341730Y-16049388D02*
X9351253Y-16068436D01*
X9351253Y-16068436D02*
X9360777Y-16077960D01*
X9360777Y-16077960D02*
X9379825Y-16087484D01*
X9379825Y-16087484D02*
X9417920Y-16087484D01*
X9417920Y-16087484D02*
X9436968Y-16077960D01*
X9436968Y-16077960D02*
X9446491Y-16068436D01*
X9446491Y-16068436D02*
X9456015Y-16049388D01*
X9456015Y-16049388D02*
X9456015Y-16001769D01*
X9456015Y-16001769D02*
X9446491Y-15982722D01*
X9446491Y-15982722D02*
X9436968Y-15973198D01*
X9436968Y-15973198D02*
X9417920Y-15963674D01*
X9417920Y-15963674D02*
X9379825Y-15963674D01*
X9379825Y-15963674D02*
X9360777Y-15973198D01*
X9360777Y-15973198D02*
X9351253Y-15982722D01*
X9351253Y-15982722D02*
X9341730Y-16001769D01*
X9694111Y-16087484D02*
X9694111Y-15887484D01*
X9779825Y-16087484D02*
X9779825Y-15982722D01*
X9779825Y-15982722D02*
X9770301Y-15963674D01*
X9770301Y-15963674D02*
X9751253Y-15954150D01*
X9751253Y-15954150D02*
X9722682Y-15954150D01*
X9722682Y-15954150D02*
X9703634Y-15963674D01*
X9703634Y-15963674D02*
X9694111Y-15973198D01*
X9903634Y-16087484D02*
X9884587Y-16077960D01*
X9884587Y-16077960D02*
X9875063Y-16068436D01*
X9875063Y-16068436D02*
X9865539Y-16049388D01*
X9865539Y-16049388D02*
X9865539Y-15992246D01*
X9865539Y-15992246D02*
X9875063Y-15973198D01*
X9875063Y-15973198D02*
X9884587Y-15963674D01*
X9884587Y-15963674D02*
X9903634Y-15954150D01*
X9903634Y-15954150D02*
X9932206Y-15954150D01*
X9932206Y-15954150D02*
X9951253Y-15963674D01*
X9951253Y-15963674D02*
X9960777Y-15973198D01*
X9960777Y-15973198D02*
X9970301Y-15992246D01*
X9970301Y-15992246D02*
X9970301Y-16049388D01*
X9970301Y-16049388D02*
X9960777Y-16068436D01*
X9960777Y-16068436D02*
X9951253Y-16077960D01*
X9951253Y-16077960D02*
X9932206Y-16087484D01*
X9932206Y-16087484D02*
X9903634Y-16087484D01*
X10084587Y-16087484D02*
X10065539Y-16077960D01*
X10065539Y-16077960D02*
X10056015Y-16058912D01*
X10056015Y-16058912D02*
X10056015Y-15887484D01*
X10236968Y-16077960D02*
X10217920Y-16087484D01*
X10217920Y-16087484D02*
X10179825Y-16087484D01*
X10179825Y-16087484D02*
X10160777Y-16077960D01*
X10160777Y-16077960D02*
X10151253Y-16058912D01*
X10151253Y-16058912D02*
X10151253Y-15982722D01*
X10151253Y-15982722D02*
X10160777Y-15963674D01*
X10160777Y-15963674D02*
X10179825Y-15954150D01*
X10179825Y-15954150D02*
X10217920Y-15954150D01*
X10217920Y-15954150D02*
X10236968Y-15963674D01*
X10236968Y-15963674D02*
X10246492Y-15982722D01*
X10246492Y-15982722D02*
X10246492Y-16001769D01*
X10246492Y-16001769D02*
X10151253Y-16020817D01*
X10322682Y-16077960D02*
X10341730Y-16087484D01*
X10341730Y-16087484D02*
X10379825Y-16087484D01*
X10379825Y-16087484D02*
X10398873Y-16077960D01*
X10398873Y-16077960D02*
X10408396Y-16058912D01*
X10408396Y-16058912D02*
X10408396Y-16049388D01*
X10408396Y-16049388D02*
X10398873Y-16030341D01*
X10398873Y-16030341D02*
X10379825Y-16020817D01*
X10379825Y-16020817D02*
X10351253Y-16020817D01*
X10351253Y-16020817D02*
X10332206Y-16011293D01*
X10332206Y-16011293D02*
X10322682Y-15992246D01*
X10322682Y-15992246D02*
X10322682Y-15982722D01*
X10322682Y-15982722D02*
X10332206Y-15963674D01*
X10332206Y-15963674D02*
X10351253Y-15954150D01*
X10351253Y-15954150D02*
X10379825Y-15954150D01*
X10379825Y-15954150D02*
X10398873Y-15963674D01*
X10475063Y-16163674D02*
X10484587Y-16154150D01*
X10484587Y-16154150D02*
X10503634Y-16125579D01*
X10503634Y-16125579D02*
X10513158Y-16106531D01*
X10513158Y-16106531D02*
X10522682Y-16077960D01*
X10522682Y-16077960D02*
X10532206Y-16030341D01*
X10532206Y-16030341D02*
X10532206Y-15992246D01*
X10532206Y-15992246D02*
X10522682Y-15944627D01*
X10522682Y-15944627D02*
X10513158Y-15916055D01*
X10513158Y-15916055D02*
X10503634Y-15897008D01*
X10503634Y-15897008D02*
X10484587Y-15868436D01*
X10484587Y-15868436D02*
X10475063Y-15858912D01*
M02*
