%TF.GenerationSoftware,KiCad,Pcbnew,10.0.5*%
%TF.CreationDate,2026-10-07T16:57:02+05:30*%
%TF.ProjectId,pd1180-epr-r0.3,70643131-3830-42d6-9570-722d72302e33,rev?*%
%TF.SameCoordinates,Original*%
%TF.FileFunction,Paste,Bot*%
%TF.FilePolarity,Positive*%
%FSLAX46Y46*%
G04 Gerber Fmt 4.6, Leading zero omitted, Abs format (unit mm)*
G04 Created by KiCad (PCBNEW 10.0.5) date 2026-10-07 16:57:02*
%MOMM*%
%LPD*%
G01*
G04 APERTURE LIST*
G04 Aperture macros list*
%AMRoundRect*
0 Rectangle with rounded corners*
0 $1 Rounding radius*
0 $2 $3 $4 $5 $6 $7 $8 $9 X,Y pos of 4 corners*
0 Add a 4 corners polygon primitive as box body*
4,1,4,$2,$3,$4,$5,$6,$7,$8,$9,$2,$3,0*
0 Add four circle primitives for the rounded corners*
1,1,$1+$1,$2,$3*
1,1,$1+$1,$4,$5*
1,1,$1+$1,$6,$7*
1,1,$1+$1,$8,$9*
0 Add four rect primitives between the rounded corners*
20,1,$1+$1,$2,$3,$4,$5,0*
20,1,$1+$1,$4,$5,$6,$7,0*
20,1,$1+$1,$6,$7,$8,$9,0*
20,1,$1+$1,$8,$9,$2,$3,0*%
G04 Aperture macros list end*
%ADD10R,0.800000X0.950000*%
%ADD11C,1.400000*%
%ADD12RoundRect,0.350000X0.000010X0.499998X-0.000010X0.499998X-0.000010X-0.499998X0.000010X-0.499998X0*%
%ADD13R,3.499993X2.499995*%
%ADD14R,2.474011X5.020005*%
%ADD15R,0.950011X1.150010*%
%ADD16R,1.025000X1.400000*%
%ADD17R,1.250010X0.699999*%
%ADD18R,1.999996X1.999996*%
%ADD19R,1.750000X1.125000*%
%ADD20R,0.950000X0.800000*%
%ADD21R,0.399999X1.699997*%
G04 APERTURE END LIST*
D10*
%TO.C,C12*%
X76875000Y-98500000D03*
X78525000Y-98500000D03*
%TD*%
D11*
%TO.C,TP_ENC_B*%
X94000000Y-134000000D03*
%TD*%
D10*
%TO.C,R96*%
X130825000Y-118000000D03*
X129175000Y-118000000D03*
%TD*%
D12*
%TO.C,U5*%
X76905000Y-95846070D03*
X75635000Y-95846070D03*
X74365000Y-95846070D03*
X73095000Y-95846070D03*
X73095000Y-90153930D03*
X74365000Y-90153930D03*
X75635000Y-90153930D03*
X76905000Y-90153930D03*
D13*
X75000000Y-93000000D03*
%TD*%
D14*
%TO.C,L1*%
X87602992Y-93000000D03*
X82397008Y-93000000D03*
%TD*%
D15*
%TO.C,D10*%
X139692402Y-85000000D03*
X136307598Y-85000000D03*
%TD*%
D10*
%TO.C,R1*%
X81175000Y-64000000D03*
X82825000Y-64000000D03*
%TD*%
D16*
%TO.C,C17*%
X89912500Y-88000000D03*
X88087500Y-88000000D03*
%TD*%
D11*
%TO.C,TP_SWD_GND*%
X86000000Y-133000000D03*
%TD*%
D17*
%TO.C,Q24*%
X117000002Y-131949960D03*
X117000002Y-130050040D03*
X118999998Y-131000000D03*
%TD*%
D10*
%TO.C,R2*%
X66825000Y-78000000D03*
X65175000Y-78000000D03*
%TD*%
%TO.C,R98*%
X118825000Y-127000000D03*
X117175000Y-127000000D03*
%TD*%
D11*
%TO.C,TP_ENC_3V3*%
X88000000Y-134000000D03*
%TD*%
D18*
%TO.C,D11*%
X125199894Y-70000000D03*
X120800106Y-70000000D03*
%TD*%
D10*
%TO.C,R94*%
X134825000Y-100000000D03*
X133175000Y-100000000D03*
%TD*%
D19*
%TO.C,C11*%
X79000000Y-90037500D03*
X79000000Y-92962500D03*
%TD*%
D10*
%TO.C,R99*%
X122825000Y-131000000D03*
X121175000Y-131000000D03*
%TD*%
%TO.C,C53*%
X105175000Y-105000000D03*
X106825000Y-105000000D03*
%TD*%
D16*
%TO.C,C15*%
X85912500Y-88000000D03*
X84087500Y-88000000D03*
%TD*%
D10*
%TO.C,C1*%
X73825000Y-84000000D03*
X72175000Y-84000000D03*
%TD*%
%TO.C,R93*%
X134825000Y-103000000D03*
X133175000Y-103000000D03*
%TD*%
D11*
%TO.C,TP_SWDIO*%
X83000000Y-133000000D03*
%TD*%
%TO.C,TP_STATUS*%
X86000000Y-130000000D03*
%TD*%
%TO.C,TP_ENC_A*%
X91000000Y-134000000D03*
%TD*%
%TO.C,TP_ENC_GND*%
X100000000Y-134000000D03*
%TD*%
D15*
%TO.C,D8*%
X139692402Y-109000000D03*
X136307598Y-109000000D03*
%TD*%
D10*
%TO.C,R17*%
X81825000Y-98500000D03*
X80175000Y-98500000D03*
%TD*%
D15*
%TO.C,D5*%
X105692402Y-124000000D03*
X102307598Y-124000000D03*
%TD*%
%TO.C,D9*%
X135692402Y-121000000D03*
X132307598Y-121000000D03*
%TD*%
D11*
%TO.C,TP_ENC_I*%
X97000000Y-134000000D03*
%TD*%
D16*
%TO.C,C16*%
X80087500Y-88000000D03*
X81912500Y-88000000D03*
%TD*%
D10*
%TO.C,R11*%
X86825000Y-70000000D03*
X85175000Y-70000000D03*
%TD*%
%TO.C,R18*%
X70825000Y-97000000D03*
X69175000Y-97000000D03*
%TD*%
D15*
%TO.C,D6*%
X111692402Y-124000000D03*
X108307598Y-124000000D03*
%TD*%
D20*
%TO.C,C26*%
X108000000Y-99975000D03*
X108000000Y-101625000D03*
%TD*%
D11*
%TO.C,TP_SWD_3V3*%
X80000000Y-133000000D03*
%TD*%
D17*
%TO.C,Q25*%
X126000002Y-131949960D03*
X126000002Y-130050040D03*
X127999998Y-131000000D03*
%TD*%
D15*
%TO.C,D4*%
X97692402Y-124000000D03*
X94307598Y-124000000D03*
%TD*%
D10*
%TO.C,R100*%
X127825000Y-127000000D03*
X126175000Y-127000000D03*
%TD*%
D11*
%TO.C,TP_NRST*%
X83000000Y-130000000D03*
%TD*%
D10*
%TO.C,R74*%
X92825000Y-95500000D03*
X91175000Y-95500000D03*
%TD*%
%TO.C,R7*%
X80825000Y-69000000D03*
X79175000Y-69000000D03*
%TD*%
%TO.C,R95*%
X133175000Y-97000000D03*
X134825000Y-97000000D03*
%TD*%
%TO.C,R101*%
X130825000Y-128500000D03*
X129175000Y-128500000D03*
%TD*%
%TO.C,R91*%
X133175000Y-112000000D03*
X134825000Y-112000000D03*
%TD*%
%TO.C,C71*%
X73825000Y-104000000D03*
X72175000Y-104000000D03*
%TD*%
D20*
%TO.C,C52*%
X100000000Y-104975000D03*
X100000000Y-106625000D03*
%TD*%
D10*
%TO.C,C13*%
X70825000Y-93000000D03*
X69175000Y-93000000D03*
%TD*%
D11*
%TO.C,TP_SWCLK*%
X80000000Y-130000000D03*
%TD*%
D10*
%TO.C,R16*%
X70825000Y-91000000D03*
X69175000Y-91000000D03*
%TD*%
%TO.C,C14*%
X70825000Y-95000000D03*
X69175000Y-95000000D03*
%TD*%
D21*
%TO.C,U18*%
X98050042Y-97199904D03*
X98700028Y-97199904D03*
X99350014Y-97199904D03*
X100000000Y-97199904D03*
X100649986Y-97199904D03*
X101299972Y-97199904D03*
X101949958Y-97199904D03*
X101949958Y-102800096D03*
X101299972Y-102800096D03*
X100649986Y-102800096D03*
X100000000Y-102800096D03*
X99350014Y-102800096D03*
X98700028Y-102800096D03*
X98050042Y-102800096D03*
%TD*%
D10*
%TO.C,R92*%
X137175000Y-106000000D03*
X138825000Y-106000000D03*
%TD*%
M02*
