%TF.GenerationSoftware,KiCad,Pcbnew,10.0.5*%
%TF.CreationDate,2026-10-06T16:54:32+05:30*%
%TF.ProjectId,pd1180-epr-r0.3,70643131-3830-42d6-9570-722d72302e33,rev?*%
%TF.SameCoordinates,Original*%
%TF.FileFunction,Drillmap*%
%TF.FilePolarity,Positive*%
%FSLAX45Y45*%
G04 Gerber Fmt 4.5, Leading zero omitted, Abs format (unit mm)*
G04 Created by KiCad (PCBNEW 10.0.5) date 2026-10-06 16:54:32*
%MOMM*%
%LPD*%
G01*
G04 APERTURE LIST*
%ADD10C,0.100000*%
%ADD11C,0.200000*%
%ADD12C,0.420000*%
G04 APERTURE END LIST*
D10*
X5705000Y-6295000D02*
X5705000Y-13705000D01*
X5705000Y-13705000D02*
X5705084Y-13714965D01*
X5705084Y-6285035D02*
X5705000Y-6295000D01*
X5705084Y-13714965D02*
X5705337Y-13724927D01*
X5705337Y-6275073D02*
X5705084Y-6285035D01*
X5705337Y-13724927D02*
X5705757Y-13734883D01*
X5705757Y-6265117D02*
X5705337Y-6275073D01*
X5705757Y-13734883D02*
X5706346Y-13744831D01*
X5706346Y-6255169D02*
X5705757Y-6265117D01*
X5706346Y-13744831D02*
X5707103Y-13754767D01*
X5707103Y-6245233D02*
X5706346Y-6255169D01*
X5707103Y-13754767D02*
X5708027Y-13764689D01*
X5708027Y-6235311D02*
X5707103Y-6245233D01*
X5708027Y-13764689D02*
X5709119Y-13774594D01*
X5709119Y-6225405D02*
X5708027Y-6235311D01*
X5709119Y-13774594D02*
X5710378Y-13784480D01*
X5710378Y-6215520D02*
X5709119Y-6225405D01*
X5710378Y-13784480D02*
X5711804Y-13794342D01*
X5711804Y-6205658D02*
X5710378Y-6215520D01*
X5711804Y-13794342D02*
X5713396Y-13804179D01*
X5713396Y-6195820D02*
X5711804Y-6205658D01*
X5713396Y-13804179D02*
X5715154Y-13813988D01*
X5715154Y-6186012D02*
X5713396Y-6195820D01*
X5715154Y-13813988D02*
X5717077Y-13823766D01*
X5717077Y-6176234D02*
X5715154Y-6186012D01*
X5717077Y-13823766D02*
X5719166Y-13833510D01*
X5719166Y-6166490D02*
X5717077Y-6176234D01*
X5719166Y-13833510D02*
X5721418Y-13843217D01*
X5721418Y-6156783D02*
X5719166Y-6166490D01*
X5721418Y-13843217D02*
X5723834Y-13852885D01*
X5723834Y-6147115D02*
X5721418Y-6156783D01*
X5723834Y-13852885D02*
X5726414Y-13862511D01*
X5726414Y-6137489D02*
X5723834Y-6147115D01*
X5726414Y-13862511D02*
X5729155Y-13872091D01*
X5729155Y-6127909D02*
X5726414Y-6137489D01*
X5729155Y-13872091D02*
X5732058Y-13881624D01*
X5732058Y-6118376D02*
X5729155Y-6127909D01*
X5732058Y-13881624D02*
X5735121Y-13891107D01*
X5735121Y-6108893D02*
X5732058Y-6118376D01*
X5735121Y-13891107D02*
X5738344Y-13900536D01*
X5738344Y-6099464D02*
X5735121Y-6108893D01*
X5738344Y-13900536D02*
X5741726Y-13909910D01*
X5741726Y-6090090D02*
X5738344Y-6099464D01*
X5741726Y-13909910D02*
X5745266Y-13919225D01*
X5745266Y-6080775D02*
X5741726Y-6090090D01*
X5745266Y-13919225D02*
X5748963Y-13928479D01*
X5748963Y-6071520D02*
X5745266Y-6080775D01*
X5748963Y-13928479D02*
X5752815Y-13937670D01*
X5752815Y-6062330D02*
X5748963Y-6071520D01*
X5752815Y-13937670D02*
X5756822Y-13946794D01*
X5756822Y-6053206D02*
X5752815Y-6062330D01*
X5756822Y-13946794D02*
X5760982Y-13955849D01*
X5760982Y-6044151D02*
X5756822Y-6053206D01*
X5760982Y-13955849D02*
X5765295Y-13964832D01*
X5765295Y-6035167D02*
X5760982Y-6044151D01*
X5765295Y-13964832D02*
X5769759Y-13973742D01*
X5769759Y-6026258D02*
X5765295Y-6035167D01*
X5769759Y-13973742D02*
X5774373Y-13982575D01*
X5774373Y-6017425D02*
X5769759Y-6026258D01*
X5774373Y-13982575D02*
X5779135Y-13991328D01*
X5779135Y-6008672D02*
X5774373Y-6017425D01*
X5779135Y-13991328D02*
X5784045Y-14000000D01*
X5784045Y-6000000D02*
X5779135Y-6008672D01*
X5784045Y-14000000D02*
X5789100Y-14008588D01*
X5789100Y-5991412D02*
X5784045Y-6000000D01*
X5789100Y-14008588D02*
X5794300Y-14017089D01*
X5794300Y-5982911D02*
X5789100Y-5991412D01*
X5794300Y-14017089D02*
X5799642Y-14025501D01*
X5799642Y-5974499D02*
X5794300Y-5982911D01*
X5799642Y-14025501D02*
X5805126Y-14033821D01*
X5805126Y-5966179D02*
X5799642Y-5974499D01*
X5805126Y-14033821D02*
X5810750Y-14042048D01*
X5810750Y-5957952D02*
X5805126Y-5966179D01*
X5810750Y-14042048D02*
X5816511Y-14050179D01*
X5816511Y-5949821D02*
X5810750Y-5957952D01*
X5816511Y-14050179D02*
X5822409Y-14058211D01*
X5822409Y-5941789D02*
X5816511Y-5949821D01*
X5822409Y-14058211D02*
X5828442Y-14066142D01*
X5828442Y-5933857D02*
X5822409Y-5941789D01*
X5828442Y-14066142D02*
X5834608Y-14073971D01*
X5834608Y-5926029D02*
X5828442Y-5933857D01*
X5834608Y-14073971D02*
X5840906Y-14081694D01*
X5840906Y-5918306D02*
X5834608Y-5926029D01*
X5840906Y-14081694D02*
X5847333Y-14089310D01*
X5847333Y-5910690D02*
X5840906Y-5918306D01*
X5847333Y-14089310D02*
X5853887Y-14096816D01*
X5853887Y-5903184D02*
X5847333Y-5910690D01*
X5853887Y-14096816D02*
X5860568Y-14104210D01*
X5860568Y-5895790D02*
X5853887Y-5903184D01*
X5860568Y-14104210D02*
X5867372Y-14111490D01*
X5867372Y-5888509D02*
X5860568Y-5895790D01*
X5867372Y-14111490D02*
X5874299Y-14118655D01*
X5874299Y-5881345D02*
X5867372Y-5888509D01*
X5874299Y-14118655D02*
X5881345Y-14125701D01*
X5881345Y-5874299D02*
X5874299Y-5881345D01*
X5881345Y-14125701D02*
X5888509Y-14132628D01*
X5888509Y-5867372D02*
X5881345Y-5874299D01*
X5888509Y-14132628D02*
X5895790Y-14139432D01*
X5895790Y-5860568D02*
X5888509Y-5867372D01*
X5895790Y-14139432D02*
X5903184Y-14146113D01*
X5903184Y-5853887D02*
X5895790Y-5860568D01*
X5903184Y-14146113D02*
X5910690Y-14152667D01*
X5910690Y-5847333D02*
X5903184Y-5853887D01*
X5910690Y-14152667D02*
X5918306Y-14159094D01*
X5918306Y-5840906D02*
X5910690Y-5847333D01*
X5918306Y-14159094D02*
X5926029Y-14165392D01*
X5926029Y-5834608D02*
X5918306Y-5840906D01*
X5926029Y-14165392D02*
X5933857Y-14171558D01*
X5933857Y-5828442D02*
X5926029Y-5834608D01*
X5933857Y-14171558D02*
X5941789Y-14177591D01*
X5941789Y-5822409D02*
X5933857Y-5828442D01*
X5941789Y-14177591D02*
X5949821Y-14183489D01*
X5949821Y-5816511D02*
X5941789Y-5822409D01*
X5949821Y-14183489D02*
X5957952Y-14189250D01*
X5957952Y-5810750D02*
X5949821Y-5816511D01*
X5957952Y-14189250D02*
X5966179Y-14194874D01*
X5966179Y-5805126D02*
X5957952Y-5810750D01*
X5966179Y-14194874D02*
X5974499Y-14200358D01*
X5974499Y-5799642D02*
X5966179Y-5805126D01*
X5974499Y-14200358D02*
X5982911Y-14205700D01*
X5982911Y-5794300D02*
X5974499Y-5799642D01*
X5982911Y-14205700D02*
X5991412Y-14210900D01*
X5991412Y-5789100D02*
X5982911Y-5794300D01*
X5991412Y-14210900D02*
X6000000Y-14215955D01*
X6000000Y-5784045D02*
X5991412Y-5789100D01*
X6000000Y-14215955D02*
X6008672Y-14220864D01*
X6008672Y-5779135D02*
X6000000Y-5784045D01*
X6008672Y-14220864D02*
X6017425Y-14225627D01*
X6017425Y-5774373D02*
X6008672Y-5779135D01*
X6017425Y-14225627D02*
X6026258Y-14230241D01*
X6026258Y-5769759D02*
X6017425Y-5774373D01*
X6026258Y-14230241D02*
X6035167Y-14234705D01*
X6035167Y-5765295D02*
X6026258Y-5769759D01*
X6035167Y-14234705D02*
X6044151Y-14239018D01*
X6044151Y-5760982D02*
X6035167Y-5765295D01*
X6044151Y-14239018D02*
X6053206Y-14243178D01*
X6053206Y-5756822D02*
X6044151Y-5760982D01*
X6053206Y-14243178D02*
X6062330Y-14247185D01*
X6062330Y-5752815D02*
X6053206Y-5756822D01*
X6062330Y-14247185D02*
X6071520Y-14251037D01*
X6071520Y-5748963D02*
X6062330Y-5752815D01*
X6071520Y-14251037D02*
X6080775Y-14254734D01*
X6080775Y-5745266D02*
X6071520Y-5748963D01*
X6080775Y-14254734D02*
X6090090Y-14258274D01*
X6090090Y-5741726D02*
X6080775Y-5745266D01*
X6090090Y-14258274D02*
X6099464Y-14261656D01*
X6099464Y-5738344D02*
X6090090Y-5741726D01*
X6099464Y-14261656D02*
X6108893Y-14264879D01*
X6108893Y-5735121D02*
X6099464Y-5738344D01*
X6108893Y-14264879D02*
X6118376Y-14267942D01*
X6118376Y-5732058D02*
X6108893Y-5735121D01*
X6118376Y-14267942D02*
X6127909Y-14270845D01*
X6127909Y-5729155D02*
X6118376Y-5732058D01*
X6127909Y-14270845D02*
X6137489Y-14273586D01*
X6137489Y-5726414D02*
X6127909Y-5729155D01*
X6137489Y-14273586D02*
X6147115Y-14276165D01*
X6147115Y-5723834D02*
X6137489Y-5726414D01*
X6147115Y-14276165D02*
X6156783Y-14278582D01*
X6156783Y-5721418D02*
X6147115Y-5723834D01*
X6156783Y-14278582D02*
X6166490Y-14280834D01*
X6166490Y-5719166D02*
X6156783Y-5721418D01*
X6166490Y-14280834D02*
X6176234Y-14282923D01*
X6176234Y-5717077D02*
X6166490Y-5719166D01*
X6176234Y-14282923D02*
X6186012Y-14284846D01*
X6186012Y-5715154D02*
X6176234Y-5717077D01*
X6186012Y-14284846D02*
X6195820Y-14286604D01*
X6195820Y-5713396D02*
X6186012Y-5715154D01*
X6195820Y-14286604D02*
X6205658Y-14288196D01*
X6205658Y-5711804D02*
X6195820Y-5713396D01*
X6205658Y-14288196D02*
X6215520Y-14289622D01*
X6215520Y-5710378D02*
X6205658Y-5711804D01*
X6215520Y-14289622D02*
X6225405Y-14290881D01*
X6225405Y-5709119D02*
X6215520Y-5710378D01*
X6225405Y-14290881D02*
X6235311Y-14291973D01*
X6235311Y-5708027D02*
X6225405Y-5709119D01*
X6235311Y-14291973D02*
X6245233Y-14292897D01*
X6245233Y-5707103D02*
X6235311Y-5708027D01*
X6245233Y-14292897D02*
X6255169Y-14293654D01*
X6255169Y-5706346D02*
X6245233Y-5707103D01*
X6255169Y-14293654D02*
X6265117Y-14294243D01*
X6265117Y-5705757D02*
X6255169Y-5706346D01*
X6265117Y-14294243D02*
X6275073Y-14294663D01*
X6275073Y-5705337D02*
X6265117Y-5705757D01*
X6275073Y-14294663D02*
X6285035Y-14294916D01*
X6285035Y-5705084D02*
X6275073Y-5705337D01*
X6285035Y-14294916D02*
X6295000Y-14295000D01*
X6295000Y-5705000D02*
X6285035Y-5705084D01*
X6295000Y-14295000D02*
X13705000Y-14295000D01*
X13705000Y-5705000D02*
X6295000Y-5705000D01*
X13705000Y-14295000D02*
X13714965Y-14294916D01*
X13714965Y-5705084D02*
X13705000Y-5705000D01*
X13714965Y-14294916D02*
X13724927Y-14294663D01*
X13724927Y-5705337D02*
X13714965Y-5705084D01*
X13724927Y-14294663D02*
X13734883Y-14294243D01*
X13734883Y-5705757D02*
X13724927Y-5705337D01*
X13734883Y-14294243D02*
X13744831Y-14293654D01*
X13744831Y-5706346D02*
X13734883Y-5705757D01*
X13744831Y-14293654D02*
X13754767Y-14292897D01*
X13754767Y-5707103D02*
X13744831Y-5706346D01*
X13754767Y-14292897D02*
X13764689Y-14291973D01*
X13764689Y-5708027D02*
X13754767Y-5707103D01*
X13764689Y-14291973D02*
X13774594Y-14290881D01*
X13774594Y-5709119D02*
X13764689Y-5708027D01*
X13774594Y-14290881D02*
X13784480Y-14289622D01*
X13784480Y-5710378D02*
X13774594Y-5709119D01*
X13784480Y-14289622D02*
X13794342Y-14288196D01*
X13794342Y-5711804D02*
X13784480Y-5710378D01*
X13794342Y-14288196D02*
X13804179Y-14286604D01*
X13804179Y-5713396D02*
X13794342Y-5711804D01*
X13804179Y-14286604D02*
X13813988Y-14284846D01*
X13813988Y-5715154D02*
X13804179Y-5713396D01*
X13813988Y-14284846D02*
X13823766Y-14282923D01*
X13823766Y-5717077D02*
X13813988Y-5715154D01*
X13823766Y-14282923D02*
X13833510Y-14280834D01*
X13833510Y-5719166D02*
X13823766Y-5717077D01*
X13833510Y-14280834D02*
X13843217Y-14278582D01*
X13843217Y-5721418D02*
X13833510Y-5719166D01*
X13843217Y-14278582D02*
X13852885Y-14276165D01*
X13852885Y-5723834D02*
X13843217Y-5721418D01*
X13852885Y-14276165D02*
X13862511Y-14273586D01*
X13862511Y-5726414D02*
X13852885Y-5723834D01*
X13862511Y-14273586D02*
X13872091Y-14270845D01*
X13872091Y-5729155D02*
X13862511Y-5726414D01*
X13872091Y-14270845D02*
X13881624Y-14267942D01*
X13881624Y-5732058D02*
X13872091Y-5729155D01*
X13881624Y-14267942D02*
X13891107Y-14264879D01*
X13891107Y-5735121D02*
X13881624Y-5732058D01*
X13891107Y-14264879D02*
X13900536Y-14261656D01*
X13900536Y-5738344D02*
X13891107Y-5735121D01*
X13900536Y-14261656D02*
X13909910Y-14258274D01*
X13909910Y-5741726D02*
X13900536Y-5738344D01*
X13909910Y-14258274D02*
X13919225Y-14254734D01*
X13919225Y-5745266D02*
X13909910Y-5741726D01*
X13919225Y-14254734D02*
X13928479Y-14251037D01*
X13928479Y-5748963D02*
X13919225Y-5745266D01*
X13928479Y-14251037D02*
X13937670Y-14247185D01*
X13937670Y-5752815D02*
X13928479Y-5748963D01*
X13937670Y-14247185D02*
X13946794Y-14243178D01*
X13946794Y-5756822D02*
X13937670Y-5752815D01*
X13946794Y-14243178D02*
X13955849Y-14239018D01*
X13955849Y-5760982D02*
X13946794Y-5756822D01*
X13955849Y-14239018D02*
X13964832Y-14234705D01*
X13964832Y-5765295D02*
X13955849Y-5760982D01*
X13964832Y-14234705D02*
X13973742Y-14230241D01*
X13973742Y-5769759D02*
X13964832Y-5765295D01*
X13973742Y-14230241D02*
X13982575Y-14225627D01*
X13982575Y-5774373D02*
X13973742Y-5769759D01*
X13982575Y-14225627D02*
X13991328Y-14220864D01*
X13991328Y-5779135D02*
X13982575Y-5774373D01*
X13991328Y-14220864D02*
X14000000Y-14215955D01*
X14000000Y-5784045D02*
X13991328Y-5779135D01*
X14000000Y-14215955D02*
X14008588Y-14210900D01*
X14008588Y-5789100D02*
X14000000Y-5784045D01*
X14008588Y-14210900D02*
X14017089Y-14205700D01*
X14017089Y-5794300D02*
X14008588Y-5789100D01*
X14017089Y-14205700D02*
X14025501Y-14200358D01*
X14025501Y-5799642D02*
X14017089Y-5794300D01*
X14025501Y-14200358D02*
X14033821Y-14194874D01*
X14033821Y-5805126D02*
X14025501Y-5799642D01*
X14033821Y-14194874D02*
X14042048Y-14189250D01*
X14042048Y-5810750D02*
X14033821Y-5805126D01*
X14042048Y-14189250D02*
X14050179Y-14183489D01*
X14050179Y-5816511D02*
X14042048Y-5810750D01*
X14050179Y-14183489D02*
X14058211Y-14177591D01*
X14058211Y-5822409D02*
X14050179Y-5816511D01*
X14058211Y-14177591D02*
X14066142Y-14171558D01*
X14066142Y-5828442D02*
X14058211Y-5822409D01*
X14066142Y-14171558D02*
X14073971Y-14165392D01*
X14073971Y-5834608D02*
X14066142Y-5828442D01*
X14073971Y-14165392D02*
X14081694Y-14159094D01*
X14081694Y-5840906D02*
X14073971Y-5834608D01*
X14081694Y-14159094D02*
X14089310Y-14152667D01*
X14089310Y-5847333D02*
X14081694Y-5840906D01*
X14089310Y-14152667D02*
X14096816Y-14146113D01*
X14096816Y-5853887D02*
X14089310Y-5847333D01*
X14096816Y-14146113D02*
X14104210Y-14139432D01*
X14104210Y-5860568D02*
X14096816Y-5853887D01*
X14104210Y-14139432D02*
X14111490Y-14132628D01*
X14111490Y-5867372D02*
X14104210Y-5860568D01*
X14111490Y-14132628D02*
X14118655Y-14125701D01*
X14118655Y-5874299D02*
X14111490Y-5867372D01*
X14118655Y-14125701D02*
X14125701Y-14118655D01*
X14125701Y-5881345D02*
X14118655Y-5874299D01*
X14125701Y-14118655D02*
X14132628Y-14111490D01*
X14132628Y-5888509D02*
X14125701Y-5881345D01*
X14132628Y-14111490D02*
X14139432Y-14104210D01*
X14139432Y-5895790D02*
X14132628Y-5888509D01*
X14139432Y-14104210D02*
X14146113Y-14096816D01*
X14146113Y-5903184D02*
X14139432Y-5895790D01*
X14146113Y-14096816D02*
X14152667Y-14089310D01*
X14152667Y-5910690D02*
X14146113Y-5903184D01*
X14152667Y-14089310D02*
X14159094Y-14081694D01*
X14159094Y-5918306D02*
X14152667Y-5910690D01*
X14159094Y-14081694D02*
X14165392Y-14073971D01*
X14165392Y-5926029D02*
X14159094Y-5918306D01*
X14165392Y-14073971D02*
X14171558Y-14066142D01*
X14171558Y-5933857D02*
X14165392Y-5926029D01*
X14171558Y-14066142D02*
X14177591Y-14058211D01*
X14177591Y-5941789D02*
X14171558Y-5933857D01*
X14177591Y-14058211D02*
X14183489Y-14050179D01*
X14183489Y-5949821D02*
X14177591Y-5941789D01*
X14183489Y-14050179D02*
X14189250Y-14042048D01*
X14189250Y-5957952D02*
X14183489Y-5949821D01*
X14189250Y-14042048D02*
X14194874Y-14033821D01*
X14194874Y-5966179D02*
X14189250Y-5957952D01*
X14194874Y-14033821D02*
X14200358Y-14025501D01*
X14200358Y-5974499D02*
X14194874Y-5966179D01*
X14200358Y-14025501D02*
X14205700Y-14017089D01*
X14205700Y-5982911D02*
X14200358Y-5974499D01*
X14205700Y-14017089D02*
X14210900Y-14008588D01*
X14210900Y-5991412D02*
X14205700Y-5982911D01*
X14210900Y-14008588D02*
X14215955Y-14000000D01*
X14215955Y-6000000D02*
X14210900Y-5991412D01*
X14215955Y-14000000D02*
X14220864Y-13991328D01*
X14220864Y-6008672D02*
X14215955Y-6000000D01*
X14220864Y-13991328D02*
X14225627Y-13982575D01*
X14225627Y-6017425D02*
X14220864Y-6008672D01*
X14225627Y-13982575D02*
X14230241Y-13973742D01*
X14230241Y-6026258D02*
X14225627Y-6017425D01*
X14230241Y-13973742D02*
X14234705Y-13964832D01*
X14234705Y-6035167D02*
X14230241Y-6026258D01*
X14234705Y-13964832D02*
X14239018Y-13955849D01*
X14239018Y-6044151D02*
X14234705Y-6035167D01*
X14239018Y-13955849D02*
X14243178Y-13946794D01*
X14243178Y-6053206D02*
X14239018Y-6044151D01*
X14243178Y-13946794D02*
X14247185Y-13937670D01*
X14247185Y-6062330D02*
X14243178Y-6053206D01*
X14247185Y-13937670D02*
X14251037Y-13928479D01*
X14251037Y-6071520D02*
X14247185Y-6062330D01*
X14251037Y-13928479D02*
X14254734Y-13919225D01*
X14254734Y-6080775D02*
X14251037Y-6071520D01*
X14254734Y-13919225D02*
X14258274Y-13909910D01*
X14258274Y-6090090D02*
X14254734Y-6080775D01*
X14258274Y-13909910D02*
X14261656Y-13900536D01*
X14261656Y-6099464D02*
X14258274Y-6090090D01*
X14261656Y-13900536D02*
X14264879Y-13891107D01*
X14264879Y-6108893D02*
X14261656Y-6099464D01*
X14264879Y-13891107D02*
X14267942Y-13881624D01*
X14267942Y-6118376D02*
X14264879Y-6108893D01*
X14267942Y-13881624D02*
X14270845Y-13872091D01*
X14270845Y-6127909D02*
X14267942Y-6118376D01*
X14270845Y-13872091D02*
X14273586Y-13862511D01*
X14273586Y-6137489D02*
X14270845Y-6127909D01*
X14273586Y-13862511D02*
X14276165Y-13852885D01*
X14276165Y-6147115D02*
X14273586Y-6137489D01*
X14276165Y-13852885D02*
X14278582Y-13843217D01*
X14278582Y-6156783D02*
X14276165Y-6147115D01*
X14278582Y-13843217D02*
X14280834Y-13833510D01*
X14280834Y-6166490D02*
X14278582Y-6156783D01*
X14280834Y-13833510D02*
X14282923Y-13823766D01*
X14282923Y-6176234D02*
X14280834Y-6166490D01*
X14282923Y-13823766D02*
X14284846Y-13813988D01*
X14284846Y-6186012D02*
X14282923Y-6176234D01*
X14284846Y-13813988D02*
X14286604Y-13804179D01*
X14286604Y-6195820D02*
X14284846Y-6186012D01*
X14286604Y-13804179D02*
X14288196Y-13794342D01*
X14288196Y-6205658D02*
X14286604Y-6195820D01*
X14288196Y-13794342D02*
X14289622Y-13784480D01*
X14289622Y-6215520D02*
X14288196Y-6205658D01*
X14289622Y-13784480D02*
X14290881Y-13774594D01*
X14290881Y-6225405D02*
X14289622Y-6215520D01*
X14290881Y-13774594D02*
X14291973Y-13764689D01*
X14291973Y-6235311D02*
X14290881Y-6225405D01*
X14291973Y-13764689D02*
X14292897Y-13754767D01*
X14292897Y-6245233D02*
X14291973Y-6235311D01*
X14292897Y-13754767D02*
X14293654Y-13744831D01*
X14293654Y-6255169D02*
X14292897Y-6245233D01*
X14293654Y-13744831D02*
X14294243Y-13734883D01*
X14294243Y-6265117D02*
X14293654Y-6255169D01*
X14294243Y-13734883D02*
X14294663Y-13724927D01*
X14294663Y-6275073D02*
X14294243Y-6265117D01*
X14294663Y-13724927D02*
X14294916Y-13714965D01*
X14294916Y-6285035D02*
X14294663Y-6275073D01*
X14294916Y-13714965D02*
X14295000Y-13705000D01*
X14295000Y-6295000D02*
X14294916Y-6285035D01*
X14295000Y-13705000D02*
X14295000Y-6295000D01*
D11*
D10*
X6473965Y-6378499D02*
X6538964Y-6443498D01*
X6538964Y-6378499D02*
X6473965Y-6443498D01*
X6473965Y-6956502D02*
X6538964Y-7021500D01*
X6538964Y-6956502D02*
X6473965Y-7021500D01*
D12*
X6370000Y-12905000D02*
G75*
G02*
X5950000Y-12905000I-210000J0D01*
G01*
X5950000Y-12905000D02*
G75*
G02*
X6370000Y-12905000I210000J0D01*
G01*
X7305000Y-6160000D02*
G75*
G02*
X6885000Y-6160000I-210000J0D01*
G01*
X6885000Y-6160000D02*
G75*
G02*
X7305000Y-6160000I210000J0D01*
G01*
X13115000Y-13840000D02*
G75*
G02*
X12695000Y-13840000I-210000J0D01*
G01*
X12695000Y-13840000D02*
G75*
G02*
X13115000Y-13840000I210000J0D01*
G01*
X14050000Y-7095000D02*
G75*
G02*
X13630000Y-7095000I-210000J0D01*
G01*
X13630000Y-7095000D02*
G75*
G02*
X14050000Y-7095000I210000J0D01*
G01*
D11*
X5960777Y-14611484D02*
X5960777Y-14411484D01*
X5960777Y-14411484D02*
X6008396Y-14411484D01*
X6008396Y-14411484D02*
X6036967Y-14421008D01*
X6036967Y-14421008D02*
X6056015Y-14440055D01*
X6056015Y-14440055D02*
X6065539Y-14459103D01*
X6065539Y-14459103D02*
X6075062Y-14497198D01*
X6075062Y-14497198D02*
X6075062Y-14525769D01*
X6075062Y-14525769D02*
X6065539Y-14563865D01*
X6065539Y-14563865D02*
X6056015Y-14582912D01*
X6056015Y-14582912D02*
X6036967Y-14601960D01*
X6036967Y-14601960D02*
X6008396Y-14611484D01*
X6008396Y-14611484D02*
X5960777Y-14611484D01*
X6160777Y-14611484D02*
X6160777Y-14478150D01*
X6160777Y-14516246D02*
X6170301Y-14497198D01*
X6170301Y-14497198D02*
X6179824Y-14487674D01*
X6179824Y-14487674D02*
X6198872Y-14478150D01*
X6198872Y-14478150D02*
X6217920Y-14478150D01*
X6284586Y-14611484D02*
X6284586Y-14478150D01*
X6284586Y-14411484D02*
X6275062Y-14421008D01*
X6275062Y-14421008D02*
X6284586Y-14430531D01*
X6284586Y-14430531D02*
X6294110Y-14421008D01*
X6294110Y-14421008D02*
X6284586Y-14411484D01*
X6284586Y-14411484D02*
X6284586Y-14430531D01*
X6408396Y-14611484D02*
X6389348Y-14601960D01*
X6389348Y-14601960D02*
X6379824Y-14582912D01*
X6379824Y-14582912D02*
X6379824Y-14411484D01*
X6513158Y-14611484D02*
X6494110Y-14601960D01*
X6494110Y-14601960D02*
X6484586Y-14582912D01*
X6484586Y-14582912D02*
X6484586Y-14411484D01*
X6741729Y-14611484D02*
X6741729Y-14411484D01*
X6741729Y-14411484D02*
X6808396Y-14554341D01*
X6808396Y-14554341D02*
X6875062Y-14411484D01*
X6875062Y-14411484D02*
X6875062Y-14611484D01*
X7056015Y-14611484D02*
X7056015Y-14506722D01*
X7056015Y-14506722D02*
X7046491Y-14487674D01*
X7046491Y-14487674D02*
X7027443Y-14478150D01*
X7027443Y-14478150D02*
X6989348Y-14478150D01*
X6989348Y-14478150D02*
X6970301Y-14487674D01*
X7056015Y-14601960D02*
X7036967Y-14611484D01*
X7036967Y-14611484D02*
X6989348Y-14611484D01*
X6989348Y-14611484D02*
X6970301Y-14601960D01*
X6970301Y-14601960D02*
X6960777Y-14582912D01*
X6960777Y-14582912D02*
X6960777Y-14563865D01*
X6960777Y-14563865D02*
X6970301Y-14544817D01*
X6970301Y-14544817D02*
X6989348Y-14535293D01*
X6989348Y-14535293D02*
X7036967Y-14535293D01*
X7036967Y-14535293D02*
X7056015Y-14525769D01*
X7151253Y-14478150D02*
X7151253Y-14678150D01*
X7151253Y-14487674D02*
X7170301Y-14478150D01*
X7170301Y-14478150D02*
X7208396Y-14478150D01*
X7208396Y-14478150D02*
X7227443Y-14487674D01*
X7227443Y-14487674D02*
X7236967Y-14497198D01*
X7236967Y-14497198D02*
X7246491Y-14516246D01*
X7246491Y-14516246D02*
X7246491Y-14573388D01*
X7246491Y-14573388D02*
X7236967Y-14592436D01*
X7236967Y-14592436D02*
X7227443Y-14601960D01*
X7227443Y-14601960D02*
X7208396Y-14611484D01*
X7208396Y-14611484D02*
X7170301Y-14611484D01*
X7170301Y-14611484D02*
X7151253Y-14601960D01*
X7332205Y-14592436D02*
X7341729Y-14601960D01*
X7341729Y-14601960D02*
X7332205Y-14611484D01*
X7332205Y-14611484D02*
X7322682Y-14601960D01*
X7322682Y-14601960D02*
X7332205Y-14592436D01*
X7332205Y-14592436D02*
X7332205Y-14611484D01*
X7332205Y-14487674D02*
X7341729Y-14497198D01*
X7341729Y-14497198D02*
X7332205Y-14506722D01*
X7332205Y-14506722D02*
X7322682Y-14497198D01*
X7322682Y-14497198D02*
X7332205Y-14487674D01*
X7332205Y-14487674D02*
X7332205Y-14506722D01*
D10*
X5635001Y-14907501D02*
X5700000Y-14972499D01*
X5700000Y-14907501D02*
X5635001Y-14972499D01*
D11*
X5998872Y-14831484D02*
X6017920Y-14831484D01*
X6017920Y-14831484D02*
X6036967Y-14841008D01*
X6036967Y-14841008D02*
X6046491Y-14850531D01*
X6046491Y-14850531D02*
X6056015Y-14869579D01*
X6056015Y-14869579D02*
X6065539Y-14907674D01*
X6065539Y-14907674D02*
X6065539Y-14955293D01*
X6065539Y-14955293D02*
X6056015Y-14993388D01*
X6056015Y-14993388D02*
X6046491Y-15012436D01*
X6046491Y-15012436D02*
X6036967Y-15021960D01*
X6036967Y-15021960D02*
X6017920Y-15031484D01*
X6017920Y-15031484D02*
X5998872Y-15031484D01*
X5998872Y-15031484D02*
X5979824Y-15021960D01*
X5979824Y-15021960D02*
X5970301Y-15012436D01*
X5970301Y-15012436D02*
X5960777Y-14993388D01*
X5960777Y-14993388D02*
X5951253Y-14955293D01*
X5951253Y-14955293D02*
X5951253Y-14907674D01*
X5951253Y-14907674D02*
X5960777Y-14869579D01*
X5960777Y-14869579D02*
X5970301Y-14850531D01*
X5970301Y-14850531D02*
X5979824Y-14841008D01*
X5979824Y-14841008D02*
X5998872Y-14831484D01*
X6151253Y-15012436D02*
X6160777Y-15021960D01*
X6160777Y-15021960D02*
X6151253Y-15031484D01*
X6151253Y-15031484D02*
X6141729Y-15021960D01*
X6141729Y-15021960D02*
X6151253Y-15012436D01*
X6151253Y-15012436D02*
X6151253Y-15031484D01*
X6332205Y-14831484D02*
X6294110Y-14831484D01*
X6294110Y-14831484D02*
X6275062Y-14841008D01*
X6275062Y-14841008D02*
X6265539Y-14850531D01*
X6265539Y-14850531D02*
X6246491Y-14879103D01*
X6246491Y-14879103D02*
X6236967Y-14917198D01*
X6236967Y-14917198D02*
X6236967Y-14993388D01*
X6236967Y-14993388D02*
X6246491Y-15012436D01*
X6246491Y-15012436D02*
X6256015Y-15021960D01*
X6256015Y-15021960D02*
X6275062Y-15031484D01*
X6275062Y-15031484D02*
X6313158Y-15031484D01*
X6313158Y-15031484D02*
X6332205Y-15021960D01*
X6332205Y-15021960D02*
X6341729Y-15012436D01*
X6341729Y-15012436D02*
X6351253Y-14993388D01*
X6351253Y-14993388D02*
X6351253Y-14945769D01*
X6351253Y-14945769D02*
X6341729Y-14926722D01*
X6341729Y-14926722D02*
X6332205Y-14917198D01*
X6332205Y-14917198D02*
X6313158Y-14907674D01*
X6313158Y-14907674D02*
X6275062Y-14907674D01*
X6275062Y-14907674D02*
X6256015Y-14917198D01*
X6256015Y-14917198D02*
X6246491Y-14926722D01*
X6246491Y-14926722D02*
X6236967Y-14945769D01*
X6532205Y-14831484D02*
X6436967Y-14831484D01*
X6436967Y-14831484D02*
X6427443Y-14926722D01*
X6427443Y-14926722D02*
X6436967Y-14917198D01*
X6436967Y-14917198D02*
X6456015Y-14907674D01*
X6456015Y-14907674D02*
X6503634Y-14907674D01*
X6503634Y-14907674D02*
X6522682Y-14917198D01*
X6522682Y-14917198D02*
X6532205Y-14926722D01*
X6532205Y-14926722D02*
X6541729Y-14945769D01*
X6541729Y-14945769D02*
X6541729Y-14993388D01*
X6541729Y-14993388D02*
X6532205Y-15012436D01*
X6532205Y-15012436D02*
X6522682Y-15021960D01*
X6522682Y-15021960D02*
X6503634Y-15031484D01*
X6503634Y-15031484D02*
X6456015Y-15031484D01*
X6456015Y-15031484D02*
X6436967Y-15021960D01*
X6436967Y-15021960D02*
X6427443Y-15012436D01*
X6665539Y-14831484D02*
X6684586Y-14831484D01*
X6684586Y-14831484D02*
X6703634Y-14841008D01*
X6703634Y-14841008D02*
X6713158Y-14850531D01*
X6713158Y-14850531D02*
X6722682Y-14869579D01*
X6722682Y-14869579D02*
X6732205Y-14907674D01*
X6732205Y-14907674D02*
X6732205Y-14955293D01*
X6732205Y-14955293D02*
X6722682Y-14993388D01*
X6722682Y-14993388D02*
X6713158Y-15012436D01*
X6713158Y-15012436D02*
X6703634Y-15021960D01*
X6703634Y-15021960D02*
X6684586Y-15031484D01*
X6684586Y-15031484D02*
X6665539Y-15031484D01*
X6665539Y-15031484D02*
X6646491Y-15021960D01*
X6646491Y-15021960D02*
X6636967Y-15012436D01*
X6636967Y-15012436D02*
X6627443Y-14993388D01*
X6627443Y-14993388D02*
X6617920Y-14955293D01*
X6617920Y-14955293D02*
X6617920Y-14907674D01*
X6617920Y-14907674D02*
X6627443Y-14869579D01*
X6627443Y-14869579D02*
X6636967Y-14850531D01*
X6636967Y-14850531D02*
X6646491Y-14841008D01*
X6646491Y-14841008D02*
X6665539Y-14831484D01*
X6817920Y-15031484D02*
X6817920Y-14898150D01*
X6817920Y-14917198D02*
X6827443Y-14907674D01*
X6827443Y-14907674D02*
X6846491Y-14898150D01*
X6846491Y-14898150D02*
X6875063Y-14898150D01*
X6875063Y-14898150D02*
X6894110Y-14907674D01*
X6894110Y-14907674D02*
X6903634Y-14926722D01*
X6903634Y-14926722D02*
X6903634Y-15031484D01*
X6903634Y-14926722D02*
X6913158Y-14907674D01*
X6913158Y-14907674D02*
X6932205Y-14898150D01*
X6932205Y-14898150D02*
X6960777Y-14898150D01*
X6960777Y-14898150D02*
X6979824Y-14907674D01*
X6979824Y-14907674D02*
X6989348Y-14926722D01*
X6989348Y-14926722D02*
X6989348Y-15031484D01*
X7084586Y-15031484D02*
X7084586Y-14898150D01*
X7084586Y-14917198D02*
X7094110Y-14907674D01*
X7094110Y-14907674D02*
X7113158Y-14898150D01*
X7113158Y-14898150D02*
X7141729Y-14898150D01*
X7141729Y-14898150D02*
X7160777Y-14907674D01*
X7160777Y-14907674D02*
X7170301Y-14926722D01*
X7170301Y-14926722D02*
X7170301Y-15031484D01*
X7170301Y-14926722D02*
X7179824Y-14907674D01*
X7179824Y-14907674D02*
X7198872Y-14898150D01*
X7198872Y-14898150D02*
X7227443Y-14898150D01*
X7227443Y-14898150D02*
X7246491Y-14907674D01*
X7246491Y-14907674D02*
X7256015Y-14926722D01*
X7256015Y-14926722D02*
X7256015Y-15031484D01*
X7646491Y-14821960D02*
X7475063Y-15079103D01*
X7903634Y-14831484D02*
X7922682Y-14831484D01*
X7922682Y-14831484D02*
X7941729Y-14841008D01*
X7941729Y-14841008D02*
X7951253Y-14850531D01*
X7951253Y-14850531D02*
X7960777Y-14869579D01*
X7960777Y-14869579D02*
X7970301Y-14907674D01*
X7970301Y-14907674D02*
X7970301Y-14955293D01*
X7970301Y-14955293D02*
X7960777Y-14993388D01*
X7960777Y-14993388D02*
X7951253Y-15012436D01*
X7951253Y-15012436D02*
X7941729Y-15021960D01*
X7941729Y-15021960D02*
X7922682Y-15031484D01*
X7922682Y-15031484D02*
X7903634Y-15031484D01*
X7903634Y-15031484D02*
X7884586Y-15021960D01*
X7884586Y-15021960D02*
X7875063Y-15012436D01*
X7875063Y-15012436D02*
X7865539Y-14993388D01*
X7865539Y-14993388D02*
X7856015Y-14955293D01*
X7856015Y-14955293D02*
X7856015Y-14907674D01*
X7856015Y-14907674D02*
X7865539Y-14869579D01*
X7865539Y-14869579D02*
X7875063Y-14850531D01*
X7875063Y-14850531D02*
X7884586Y-14841008D01*
X7884586Y-14841008D02*
X7903634Y-14831484D01*
X8056015Y-15012436D02*
X8065539Y-15021960D01*
X8065539Y-15021960D02*
X8056015Y-15031484D01*
X8056015Y-15031484D02*
X8046491Y-15021960D01*
X8046491Y-15021960D02*
X8056015Y-15012436D01*
X8056015Y-15012436D02*
X8056015Y-15031484D01*
X8189348Y-14831484D02*
X8208396Y-14831484D01*
X8208396Y-14831484D02*
X8227444Y-14841008D01*
X8227444Y-14841008D02*
X8236967Y-14850531D01*
X8236967Y-14850531D02*
X8246491Y-14869579D01*
X8246491Y-14869579D02*
X8256015Y-14907674D01*
X8256015Y-14907674D02*
X8256015Y-14955293D01*
X8256015Y-14955293D02*
X8246491Y-14993388D01*
X8246491Y-14993388D02*
X8236967Y-15012436D01*
X8236967Y-15012436D02*
X8227444Y-15021960D01*
X8227444Y-15021960D02*
X8208396Y-15031484D01*
X8208396Y-15031484D02*
X8189348Y-15031484D01*
X8189348Y-15031484D02*
X8170301Y-15021960D01*
X8170301Y-15021960D02*
X8160777Y-15012436D01*
X8160777Y-15012436D02*
X8151253Y-14993388D01*
X8151253Y-14993388D02*
X8141729Y-14955293D01*
X8141729Y-14955293D02*
X8141729Y-14907674D01*
X8141729Y-14907674D02*
X8151253Y-14869579D01*
X8151253Y-14869579D02*
X8160777Y-14850531D01*
X8160777Y-14850531D02*
X8170301Y-14841008D01*
X8170301Y-14841008D02*
X8189348Y-14831484D01*
X8332206Y-14850531D02*
X8341729Y-14841008D01*
X8341729Y-14841008D02*
X8360777Y-14831484D01*
X8360777Y-14831484D02*
X8408396Y-14831484D01*
X8408396Y-14831484D02*
X8427444Y-14841008D01*
X8427444Y-14841008D02*
X8436968Y-14850531D01*
X8436968Y-14850531D02*
X8446491Y-14869579D01*
X8446491Y-14869579D02*
X8446491Y-14888627D01*
X8446491Y-14888627D02*
X8436968Y-14917198D01*
X8436968Y-14917198D02*
X8322682Y-15031484D01*
X8322682Y-15031484D02*
X8446491Y-15031484D01*
X8627444Y-14831484D02*
X8532206Y-14831484D01*
X8532206Y-14831484D02*
X8522682Y-14926722D01*
X8522682Y-14926722D02*
X8532206Y-14917198D01*
X8532206Y-14917198D02*
X8551253Y-14907674D01*
X8551253Y-14907674D02*
X8598872Y-14907674D01*
X8598872Y-14907674D02*
X8617920Y-14917198D01*
X8617920Y-14917198D02*
X8627444Y-14926722D01*
X8627444Y-14926722D02*
X8636968Y-14945769D01*
X8636968Y-14945769D02*
X8636968Y-14993388D01*
X8636968Y-14993388D02*
X8627444Y-15012436D01*
X8627444Y-15012436D02*
X8617920Y-15021960D01*
X8617920Y-15021960D02*
X8598872Y-15031484D01*
X8598872Y-15031484D02*
X8551253Y-15031484D01*
X8551253Y-15031484D02*
X8532206Y-15021960D01*
X8532206Y-15021960D02*
X8522682Y-15012436D01*
X8808396Y-14831484D02*
X8770301Y-14831484D01*
X8770301Y-14831484D02*
X8751253Y-14841008D01*
X8751253Y-14841008D02*
X8741729Y-14850531D01*
X8741729Y-14850531D02*
X8722682Y-14879103D01*
X8722682Y-14879103D02*
X8713158Y-14917198D01*
X8713158Y-14917198D02*
X8713158Y-14993388D01*
X8713158Y-14993388D02*
X8722682Y-15012436D01*
X8722682Y-15012436D02*
X8732206Y-15021960D01*
X8732206Y-15021960D02*
X8751253Y-15031484D01*
X8751253Y-15031484D02*
X8789349Y-15031484D01*
X8789349Y-15031484D02*
X8808396Y-15021960D01*
X8808396Y-15021960D02*
X8817920Y-15012436D01*
X8817920Y-15012436D02*
X8827444Y-14993388D01*
X8827444Y-14993388D02*
X8827444Y-14945769D01*
X8827444Y-14945769D02*
X8817920Y-14926722D01*
X8817920Y-14926722D02*
X8808396Y-14917198D01*
X8808396Y-14917198D02*
X8789349Y-14907674D01*
X8789349Y-14907674D02*
X8751253Y-14907674D01*
X8751253Y-14907674D02*
X8732206Y-14917198D01*
X8732206Y-14917198D02*
X8722682Y-14926722D01*
X8722682Y-14926722D02*
X8713158Y-14945769D01*
X8903634Y-14831484D02*
X8903634Y-14869579D01*
X8979825Y-14831484D02*
X8979825Y-14869579D01*
X9275063Y-15107674D02*
X9265539Y-15098150D01*
X9265539Y-15098150D02*
X9246491Y-15069579D01*
X9246491Y-15069579D02*
X9236968Y-15050531D01*
X9236968Y-15050531D02*
X9227444Y-15021960D01*
X9227444Y-15021960D02*
X9217920Y-14974341D01*
X9217920Y-14974341D02*
X9217920Y-14936246D01*
X9217920Y-14936246D02*
X9227444Y-14888627D01*
X9227444Y-14888627D02*
X9236968Y-14860055D01*
X9236968Y-14860055D02*
X9246491Y-14841008D01*
X9246491Y-14841008D02*
X9265539Y-14812436D01*
X9265539Y-14812436D02*
X9275063Y-14802912D01*
X9341730Y-14850531D02*
X9351253Y-14841008D01*
X9351253Y-14841008D02*
X9370301Y-14831484D01*
X9370301Y-14831484D02*
X9417920Y-14831484D01*
X9417920Y-14831484D02*
X9436968Y-14841008D01*
X9436968Y-14841008D02*
X9446491Y-14850531D01*
X9446491Y-14850531D02*
X9456015Y-14869579D01*
X9456015Y-14869579D02*
X9456015Y-14888627D01*
X9456015Y-14888627D02*
X9446491Y-14917198D01*
X9446491Y-14917198D02*
X9332206Y-15031484D01*
X9332206Y-15031484D02*
X9456015Y-15031484D01*
X9694111Y-15031484D02*
X9694111Y-14831484D01*
X9779825Y-15031484D02*
X9779825Y-14926722D01*
X9779825Y-14926722D02*
X9770301Y-14907674D01*
X9770301Y-14907674D02*
X9751253Y-14898150D01*
X9751253Y-14898150D02*
X9722682Y-14898150D01*
X9722682Y-14898150D02*
X9703634Y-14907674D01*
X9703634Y-14907674D02*
X9694111Y-14917198D01*
X9903634Y-15031484D02*
X9884587Y-15021960D01*
X9884587Y-15021960D02*
X9875063Y-15012436D01*
X9875063Y-15012436D02*
X9865539Y-14993388D01*
X9865539Y-14993388D02*
X9865539Y-14936246D01*
X9865539Y-14936246D02*
X9875063Y-14917198D01*
X9875063Y-14917198D02*
X9884587Y-14907674D01*
X9884587Y-14907674D02*
X9903634Y-14898150D01*
X9903634Y-14898150D02*
X9932206Y-14898150D01*
X9932206Y-14898150D02*
X9951253Y-14907674D01*
X9951253Y-14907674D02*
X9960777Y-14917198D01*
X9960777Y-14917198D02*
X9970301Y-14936246D01*
X9970301Y-14936246D02*
X9970301Y-14993388D01*
X9970301Y-14993388D02*
X9960777Y-15012436D01*
X9960777Y-15012436D02*
X9951253Y-15021960D01*
X9951253Y-15021960D02*
X9932206Y-15031484D01*
X9932206Y-15031484D02*
X9903634Y-15031484D01*
X10084587Y-15031484D02*
X10065539Y-15021960D01*
X10065539Y-15021960D02*
X10056015Y-15002912D01*
X10056015Y-15002912D02*
X10056015Y-14831484D01*
X10236968Y-15021960D02*
X10217920Y-15031484D01*
X10217920Y-15031484D02*
X10179825Y-15031484D01*
X10179825Y-15031484D02*
X10160777Y-15021960D01*
X10160777Y-15021960D02*
X10151253Y-15002912D01*
X10151253Y-15002912D02*
X10151253Y-14926722D01*
X10151253Y-14926722D02*
X10160777Y-14907674D01*
X10160777Y-14907674D02*
X10179825Y-14898150D01*
X10179825Y-14898150D02*
X10217920Y-14898150D01*
X10217920Y-14898150D02*
X10236968Y-14907674D01*
X10236968Y-14907674D02*
X10246492Y-14926722D01*
X10246492Y-14926722D02*
X10246492Y-14945769D01*
X10246492Y-14945769D02*
X10151253Y-14964817D01*
X10322682Y-15021960D02*
X10341730Y-15031484D01*
X10341730Y-15031484D02*
X10379825Y-15031484D01*
X10379825Y-15031484D02*
X10398873Y-15021960D01*
X10398873Y-15021960D02*
X10408396Y-15002912D01*
X10408396Y-15002912D02*
X10408396Y-14993388D01*
X10408396Y-14993388D02*
X10398873Y-14974341D01*
X10398873Y-14974341D02*
X10379825Y-14964817D01*
X10379825Y-14964817D02*
X10351253Y-14964817D01*
X10351253Y-14964817D02*
X10332206Y-14955293D01*
X10332206Y-14955293D02*
X10322682Y-14936246D01*
X10322682Y-14936246D02*
X10322682Y-14926722D01*
X10322682Y-14926722D02*
X10332206Y-14907674D01*
X10332206Y-14907674D02*
X10351253Y-14898150D01*
X10351253Y-14898150D02*
X10379825Y-14898150D01*
X10379825Y-14898150D02*
X10398873Y-14907674D01*
X10475063Y-15107674D02*
X10484587Y-15098150D01*
X10484587Y-15098150D02*
X10503634Y-15069579D01*
X10503634Y-15069579D02*
X10513158Y-15050531D01*
X10513158Y-15050531D02*
X10522682Y-15021960D01*
X10522682Y-15021960D02*
X10532206Y-14974341D01*
X10532206Y-14974341D02*
X10532206Y-14936246D01*
X10532206Y-14936246D02*
X10522682Y-14888627D01*
X10522682Y-14888627D02*
X10513158Y-14860055D01*
X10513158Y-14860055D02*
X10503634Y-14841008D01*
X10503634Y-14841008D02*
X10484587Y-14812436D01*
X10484587Y-14812436D02*
X10475063Y-14802912D01*
X10836968Y-15107674D02*
X10827444Y-15098150D01*
X10827444Y-15098150D02*
X10808396Y-15069579D01*
X10808396Y-15069579D02*
X10798873Y-15050531D01*
X10798873Y-15050531D02*
X10789349Y-15021960D01*
X10789349Y-15021960D02*
X10779825Y-14974341D01*
X10779825Y-14974341D02*
X10779825Y-14936246D01*
X10779825Y-14936246D02*
X10789349Y-14888627D01*
X10789349Y-14888627D02*
X10798873Y-14860055D01*
X10798873Y-14860055D02*
X10808396Y-14841008D01*
X10808396Y-14841008D02*
X10827444Y-14812436D01*
X10827444Y-14812436D02*
X10836968Y-14802912D01*
X10913158Y-14898150D02*
X10913158Y-15031484D01*
X10913158Y-14917198D02*
X10922682Y-14907674D01*
X10922682Y-14907674D02*
X10941730Y-14898150D01*
X10941730Y-14898150D02*
X10970301Y-14898150D01*
X10970301Y-14898150D02*
X10989349Y-14907674D01*
X10989349Y-14907674D02*
X10998873Y-14926722D01*
X10998873Y-14926722D02*
X10998873Y-15031484D01*
X11122682Y-15031484D02*
X11103634Y-15021960D01*
X11103634Y-15021960D02*
X11094111Y-15012436D01*
X11094111Y-15012436D02*
X11084587Y-14993388D01*
X11084587Y-14993388D02*
X11084587Y-14936246D01*
X11084587Y-14936246D02*
X11094111Y-14917198D01*
X11094111Y-14917198D02*
X11103634Y-14907674D01*
X11103634Y-14907674D02*
X11122682Y-14898150D01*
X11122682Y-14898150D02*
X11151254Y-14898150D01*
X11151254Y-14898150D02*
X11170301Y-14907674D01*
X11170301Y-14907674D02*
X11179825Y-14917198D01*
X11179825Y-14917198D02*
X11189349Y-14936246D01*
X11189349Y-14936246D02*
X11189349Y-14993388D01*
X11189349Y-14993388D02*
X11179825Y-15012436D01*
X11179825Y-15012436D02*
X11170301Y-15021960D01*
X11170301Y-15021960D02*
X11151254Y-15031484D01*
X11151254Y-15031484D02*
X11122682Y-15031484D01*
X11246492Y-14898150D02*
X11322682Y-14898150D01*
X11275063Y-14831484D02*
X11275063Y-15002912D01*
X11275063Y-15002912D02*
X11284587Y-15021960D01*
X11284587Y-15021960D02*
X11303634Y-15031484D01*
X11303634Y-15031484D02*
X11322682Y-15031484D01*
X11541730Y-14898150D02*
X11541730Y-15098150D01*
X11541730Y-14907674D02*
X11560777Y-14898150D01*
X11560777Y-14898150D02*
X11598873Y-14898150D01*
X11598873Y-14898150D02*
X11617920Y-14907674D01*
X11617920Y-14907674D02*
X11627444Y-14917198D01*
X11627444Y-14917198D02*
X11636968Y-14936246D01*
X11636968Y-14936246D02*
X11636968Y-14993388D01*
X11636968Y-14993388D02*
X11627444Y-15012436D01*
X11627444Y-15012436D02*
X11617920Y-15021960D01*
X11617920Y-15021960D02*
X11598873Y-15031484D01*
X11598873Y-15031484D02*
X11560777Y-15031484D01*
X11560777Y-15031484D02*
X11541730Y-15021960D01*
X11751253Y-15031484D02*
X11732206Y-15021960D01*
X11732206Y-15021960D02*
X11722682Y-15002912D01*
X11722682Y-15002912D02*
X11722682Y-14831484D01*
X11913158Y-15031484D02*
X11913158Y-14926722D01*
X11913158Y-14926722D02*
X11903634Y-14907674D01*
X11903634Y-14907674D02*
X11884587Y-14898150D01*
X11884587Y-14898150D02*
X11846492Y-14898150D01*
X11846492Y-14898150D02*
X11827444Y-14907674D01*
X11913158Y-15021960D02*
X11894111Y-15031484D01*
X11894111Y-15031484D02*
X11846492Y-15031484D01*
X11846492Y-15031484D02*
X11827444Y-15021960D01*
X11827444Y-15021960D02*
X11817920Y-15002912D01*
X11817920Y-15002912D02*
X11817920Y-14983865D01*
X11817920Y-14983865D02*
X11827444Y-14964817D01*
X11827444Y-14964817D02*
X11846492Y-14955293D01*
X11846492Y-14955293D02*
X11894111Y-14955293D01*
X11894111Y-14955293D02*
X11913158Y-14945769D01*
X11979825Y-14898150D02*
X12056015Y-14898150D01*
X12008396Y-14831484D02*
X12008396Y-15002912D01*
X12008396Y-15002912D02*
X12017920Y-15021960D01*
X12017920Y-15021960D02*
X12036968Y-15031484D01*
X12036968Y-15031484D02*
X12056015Y-15031484D01*
X12198873Y-15021960D02*
X12179825Y-15031484D01*
X12179825Y-15031484D02*
X12141730Y-15031484D01*
X12141730Y-15031484D02*
X12122682Y-15021960D01*
X12122682Y-15021960D02*
X12113158Y-15002912D01*
X12113158Y-15002912D02*
X12113158Y-14926722D01*
X12113158Y-14926722D02*
X12122682Y-14907674D01*
X12122682Y-14907674D02*
X12141730Y-14898150D01*
X12141730Y-14898150D02*
X12179825Y-14898150D01*
X12179825Y-14898150D02*
X12198873Y-14907674D01*
X12198873Y-14907674D02*
X12208396Y-14926722D01*
X12208396Y-14926722D02*
X12208396Y-14945769D01*
X12208396Y-14945769D02*
X12113158Y-14964817D01*
X12379825Y-15031484D02*
X12379825Y-14831484D01*
X12379825Y-15021960D02*
X12360777Y-15031484D01*
X12360777Y-15031484D02*
X12322682Y-15031484D01*
X12322682Y-15031484D02*
X12303634Y-15021960D01*
X12303634Y-15021960D02*
X12294111Y-15012436D01*
X12294111Y-15012436D02*
X12284587Y-14993388D01*
X12284587Y-14993388D02*
X12284587Y-14936246D01*
X12284587Y-14936246D02*
X12294111Y-14917198D01*
X12294111Y-14917198D02*
X12303634Y-14907674D01*
X12303634Y-14907674D02*
X12322682Y-14898150D01*
X12322682Y-14898150D02*
X12360777Y-14898150D01*
X12360777Y-14898150D02*
X12379825Y-14907674D01*
X12456015Y-15107674D02*
X12465539Y-15098150D01*
X12465539Y-15098150D02*
X12484587Y-15069579D01*
X12484587Y-15069579D02*
X12494111Y-15050531D01*
X12494111Y-15050531D02*
X12503634Y-15021960D01*
X12503634Y-15021960D02*
X12513158Y-14974341D01*
X12513158Y-14974341D02*
X12513158Y-14936246D01*
X12513158Y-14936246D02*
X12503634Y-14888627D01*
X12503634Y-14888627D02*
X12494111Y-14860055D01*
X12494111Y-14860055D02*
X12484587Y-14841008D01*
X12484587Y-14841008D02*
X12465539Y-14812436D01*
X12465539Y-14812436D02*
X12456015Y-14802912D01*
X5700000Y-15204000D02*
G75*
G02*
X5500000Y-15204000I-100000J0D01*
G01*
X5500000Y-15204000D02*
G75*
G02*
X5700000Y-15204000I100000J0D01*
G01*
X6046491Y-15162150D02*
X6046491Y-15295484D01*
X5998872Y-15085960D02*
X5951253Y-15228817D01*
X5951253Y-15228817D02*
X6075062Y-15228817D01*
X6151253Y-15276436D02*
X6160777Y-15285960D01*
X6160777Y-15285960D02*
X6151253Y-15295484D01*
X6151253Y-15295484D02*
X6141729Y-15285960D01*
X6141729Y-15285960D02*
X6151253Y-15276436D01*
X6151253Y-15276436D02*
X6151253Y-15295484D01*
X6236967Y-15114531D02*
X6246491Y-15105008D01*
X6246491Y-15105008D02*
X6265539Y-15095484D01*
X6265539Y-15095484D02*
X6313158Y-15095484D01*
X6313158Y-15095484D02*
X6332205Y-15105008D01*
X6332205Y-15105008D02*
X6341729Y-15114531D01*
X6341729Y-15114531D02*
X6351253Y-15133579D01*
X6351253Y-15133579D02*
X6351253Y-15152627D01*
X6351253Y-15152627D02*
X6341729Y-15181198D01*
X6341729Y-15181198D02*
X6227443Y-15295484D01*
X6227443Y-15295484D02*
X6351253Y-15295484D01*
X6475062Y-15095484D02*
X6494110Y-15095484D01*
X6494110Y-15095484D02*
X6513158Y-15105008D01*
X6513158Y-15105008D02*
X6522682Y-15114531D01*
X6522682Y-15114531D02*
X6532205Y-15133579D01*
X6532205Y-15133579D02*
X6541729Y-15171674D01*
X6541729Y-15171674D02*
X6541729Y-15219293D01*
X6541729Y-15219293D02*
X6532205Y-15257388D01*
X6532205Y-15257388D02*
X6522682Y-15276436D01*
X6522682Y-15276436D02*
X6513158Y-15285960D01*
X6513158Y-15285960D02*
X6494110Y-15295484D01*
X6494110Y-15295484D02*
X6475062Y-15295484D01*
X6475062Y-15295484D02*
X6456015Y-15285960D01*
X6456015Y-15285960D02*
X6446491Y-15276436D01*
X6446491Y-15276436D02*
X6436967Y-15257388D01*
X6436967Y-15257388D02*
X6427443Y-15219293D01*
X6427443Y-15219293D02*
X6427443Y-15171674D01*
X6427443Y-15171674D02*
X6436967Y-15133579D01*
X6436967Y-15133579D02*
X6446491Y-15114531D01*
X6446491Y-15114531D02*
X6456015Y-15105008D01*
X6456015Y-15105008D02*
X6475062Y-15095484D01*
X6665539Y-15095484D02*
X6684586Y-15095484D01*
X6684586Y-15095484D02*
X6703634Y-15105008D01*
X6703634Y-15105008D02*
X6713158Y-15114531D01*
X6713158Y-15114531D02*
X6722682Y-15133579D01*
X6722682Y-15133579D02*
X6732205Y-15171674D01*
X6732205Y-15171674D02*
X6732205Y-15219293D01*
X6732205Y-15219293D02*
X6722682Y-15257388D01*
X6722682Y-15257388D02*
X6713158Y-15276436D01*
X6713158Y-15276436D02*
X6703634Y-15285960D01*
X6703634Y-15285960D02*
X6684586Y-15295484D01*
X6684586Y-15295484D02*
X6665539Y-15295484D01*
X6665539Y-15295484D02*
X6646491Y-15285960D01*
X6646491Y-15285960D02*
X6636967Y-15276436D01*
X6636967Y-15276436D02*
X6627443Y-15257388D01*
X6627443Y-15257388D02*
X6617920Y-15219293D01*
X6617920Y-15219293D02*
X6617920Y-15171674D01*
X6617920Y-15171674D02*
X6627443Y-15133579D01*
X6627443Y-15133579D02*
X6636967Y-15114531D01*
X6636967Y-15114531D02*
X6646491Y-15105008D01*
X6646491Y-15105008D02*
X6665539Y-15095484D01*
X6817920Y-15295484D02*
X6817920Y-15162150D01*
X6817920Y-15181198D02*
X6827443Y-15171674D01*
X6827443Y-15171674D02*
X6846491Y-15162150D01*
X6846491Y-15162150D02*
X6875063Y-15162150D01*
X6875063Y-15162150D02*
X6894110Y-15171674D01*
X6894110Y-15171674D02*
X6903634Y-15190722D01*
X6903634Y-15190722D02*
X6903634Y-15295484D01*
X6903634Y-15190722D02*
X6913158Y-15171674D01*
X6913158Y-15171674D02*
X6932205Y-15162150D01*
X6932205Y-15162150D02*
X6960777Y-15162150D01*
X6960777Y-15162150D02*
X6979824Y-15171674D01*
X6979824Y-15171674D02*
X6989348Y-15190722D01*
X6989348Y-15190722D02*
X6989348Y-15295484D01*
X7084586Y-15295484D02*
X7084586Y-15162150D01*
X7084586Y-15181198D02*
X7094110Y-15171674D01*
X7094110Y-15171674D02*
X7113158Y-15162150D01*
X7113158Y-15162150D02*
X7141729Y-15162150D01*
X7141729Y-15162150D02*
X7160777Y-15171674D01*
X7160777Y-15171674D02*
X7170301Y-15190722D01*
X7170301Y-15190722D02*
X7170301Y-15295484D01*
X7170301Y-15190722D02*
X7179824Y-15171674D01*
X7179824Y-15171674D02*
X7198872Y-15162150D01*
X7198872Y-15162150D02*
X7227443Y-15162150D01*
X7227443Y-15162150D02*
X7246491Y-15171674D01*
X7246491Y-15171674D02*
X7256015Y-15190722D01*
X7256015Y-15190722D02*
X7256015Y-15295484D01*
X7646491Y-15085960D02*
X7475063Y-15343103D01*
X7903634Y-15095484D02*
X7922682Y-15095484D01*
X7922682Y-15095484D02*
X7941729Y-15105008D01*
X7941729Y-15105008D02*
X7951253Y-15114531D01*
X7951253Y-15114531D02*
X7960777Y-15133579D01*
X7960777Y-15133579D02*
X7970301Y-15171674D01*
X7970301Y-15171674D02*
X7970301Y-15219293D01*
X7970301Y-15219293D02*
X7960777Y-15257388D01*
X7960777Y-15257388D02*
X7951253Y-15276436D01*
X7951253Y-15276436D02*
X7941729Y-15285960D01*
X7941729Y-15285960D02*
X7922682Y-15295484D01*
X7922682Y-15295484D02*
X7903634Y-15295484D01*
X7903634Y-15295484D02*
X7884586Y-15285960D01*
X7884586Y-15285960D02*
X7875063Y-15276436D01*
X7875063Y-15276436D02*
X7865539Y-15257388D01*
X7865539Y-15257388D02*
X7856015Y-15219293D01*
X7856015Y-15219293D02*
X7856015Y-15171674D01*
X7856015Y-15171674D02*
X7865539Y-15133579D01*
X7865539Y-15133579D02*
X7875063Y-15114531D01*
X7875063Y-15114531D02*
X7884586Y-15105008D01*
X7884586Y-15105008D02*
X7903634Y-15095484D01*
X8056015Y-15276436D02*
X8065539Y-15285960D01*
X8065539Y-15285960D02*
X8056015Y-15295484D01*
X8056015Y-15295484D02*
X8046491Y-15285960D01*
X8046491Y-15285960D02*
X8056015Y-15276436D01*
X8056015Y-15276436D02*
X8056015Y-15295484D01*
X8256015Y-15295484D02*
X8141729Y-15295484D01*
X8198872Y-15295484D02*
X8198872Y-15095484D01*
X8198872Y-15095484D02*
X8179825Y-15124055D01*
X8179825Y-15124055D02*
X8160777Y-15143103D01*
X8160777Y-15143103D02*
X8141729Y-15152627D01*
X8427444Y-15095484D02*
X8389348Y-15095484D01*
X8389348Y-15095484D02*
X8370301Y-15105008D01*
X8370301Y-15105008D02*
X8360777Y-15114531D01*
X8360777Y-15114531D02*
X8341729Y-15143103D01*
X8341729Y-15143103D02*
X8332206Y-15181198D01*
X8332206Y-15181198D02*
X8332206Y-15257388D01*
X8332206Y-15257388D02*
X8341729Y-15276436D01*
X8341729Y-15276436D02*
X8351253Y-15285960D01*
X8351253Y-15285960D02*
X8370301Y-15295484D01*
X8370301Y-15295484D02*
X8408396Y-15295484D01*
X8408396Y-15295484D02*
X8427444Y-15285960D01*
X8427444Y-15285960D02*
X8436968Y-15276436D01*
X8436968Y-15276436D02*
X8446491Y-15257388D01*
X8446491Y-15257388D02*
X8446491Y-15209769D01*
X8446491Y-15209769D02*
X8436968Y-15190722D01*
X8436968Y-15190722D02*
X8427444Y-15181198D01*
X8427444Y-15181198D02*
X8408396Y-15171674D01*
X8408396Y-15171674D02*
X8370301Y-15171674D01*
X8370301Y-15171674D02*
X8351253Y-15181198D01*
X8351253Y-15181198D02*
X8341729Y-15190722D01*
X8341729Y-15190722D02*
X8332206Y-15209769D01*
X8627444Y-15095484D02*
X8532206Y-15095484D01*
X8532206Y-15095484D02*
X8522682Y-15190722D01*
X8522682Y-15190722D02*
X8532206Y-15181198D01*
X8532206Y-15181198D02*
X8551253Y-15171674D01*
X8551253Y-15171674D02*
X8598872Y-15171674D01*
X8598872Y-15171674D02*
X8617920Y-15181198D01*
X8617920Y-15181198D02*
X8627444Y-15190722D01*
X8627444Y-15190722D02*
X8636968Y-15209769D01*
X8636968Y-15209769D02*
X8636968Y-15257388D01*
X8636968Y-15257388D02*
X8627444Y-15276436D01*
X8627444Y-15276436D02*
X8617920Y-15285960D01*
X8617920Y-15285960D02*
X8598872Y-15295484D01*
X8598872Y-15295484D02*
X8551253Y-15295484D01*
X8551253Y-15295484D02*
X8532206Y-15285960D01*
X8532206Y-15285960D02*
X8522682Y-15276436D01*
X8808396Y-15162150D02*
X8808396Y-15295484D01*
X8760777Y-15085960D02*
X8713158Y-15228817D01*
X8713158Y-15228817D02*
X8836968Y-15228817D01*
X8903634Y-15095484D02*
X8903634Y-15133579D01*
X8979825Y-15095484D02*
X8979825Y-15133579D01*
X9275063Y-15371674D02*
X9265539Y-15362150D01*
X9265539Y-15362150D02*
X9246491Y-15333579D01*
X9246491Y-15333579D02*
X9236968Y-15314531D01*
X9236968Y-15314531D02*
X9227444Y-15285960D01*
X9227444Y-15285960D02*
X9217920Y-15238341D01*
X9217920Y-15238341D02*
X9217920Y-15200246D01*
X9217920Y-15200246D02*
X9227444Y-15152627D01*
X9227444Y-15152627D02*
X9236968Y-15124055D01*
X9236968Y-15124055D02*
X9246491Y-15105008D01*
X9246491Y-15105008D02*
X9265539Y-15076436D01*
X9265539Y-15076436D02*
X9275063Y-15066912D01*
X9436968Y-15162150D02*
X9436968Y-15295484D01*
X9389349Y-15085960D02*
X9341730Y-15228817D01*
X9341730Y-15228817D02*
X9465539Y-15228817D01*
X9694111Y-15295484D02*
X9694111Y-15095484D01*
X9779825Y-15295484D02*
X9779825Y-15190722D01*
X9779825Y-15190722D02*
X9770301Y-15171674D01*
X9770301Y-15171674D02*
X9751253Y-15162150D01*
X9751253Y-15162150D02*
X9722682Y-15162150D01*
X9722682Y-15162150D02*
X9703634Y-15171674D01*
X9703634Y-15171674D02*
X9694111Y-15181198D01*
X9903634Y-15295484D02*
X9884587Y-15285960D01*
X9884587Y-15285960D02*
X9875063Y-15276436D01*
X9875063Y-15276436D02*
X9865539Y-15257388D01*
X9865539Y-15257388D02*
X9865539Y-15200246D01*
X9865539Y-15200246D02*
X9875063Y-15181198D01*
X9875063Y-15181198D02*
X9884587Y-15171674D01*
X9884587Y-15171674D02*
X9903634Y-15162150D01*
X9903634Y-15162150D02*
X9932206Y-15162150D01*
X9932206Y-15162150D02*
X9951253Y-15171674D01*
X9951253Y-15171674D02*
X9960777Y-15181198D01*
X9960777Y-15181198D02*
X9970301Y-15200246D01*
X9970301Y-15200246D02*
X9970301Y-15257388D01*
X9970301Y-15257388D02*
X9960777Y-15276436D01*
X9960777Y-15276436D02*
X9951253Y-15285960D01*
X9951253Y-15285960D02*
X9932206Y-15295484D01*
X9932206Y-15295484D02*
X9903634Y-15295484D01*
X10084587Y-15295484D02*
X10065539Y-15285960D01*
X10065539Y-15285960D02*
X10056015Y-15266912D01*
X10056015Y-15266912D02*
X10056015Y-15095484D01*
X10236968Y-15285960D02*
X10217920Y-15295484D01*
X10217920Y-15295484D02*
X10179825Y-15295484D01*
X10179825Y-15295484D02*
X10160777Y-15285960D01*
X10160777Y-15285960D02*
X10151253Y-15266912D01*
X10151253Y-15266912D02*
X10151253Y-15190722D01*
X10151253Y-15190722D02*
X10160777Y-15171674D01*
X10160777Y-15171674D02*
X10179825Y-15162150D01*
X10179825Y-15162150D02*
X10217920Y-15162150D01*
X10217920Y-15162150D02*
X10236968Y-15171674D01*
X10236968Y-15171674D02*
X10246492Y-15190722D01*
X10246492Y-15190722D02*
X10246492Y-15209769D01*
X10246492Y-15209769D02*
X10151253Y-15228817D01*
X10322682Y-15285960D02*
X10341730Y-15295484D01*
X10341730Y-15295484D02*
X10379825Y-15295484D01*
X10379825Y-15295484D02*
X10398873Y-15285960D01*
X10398873Y-15285960D02*
X10408396Y-15266912D01*
X10408396Y-15266912D02*
X10408396Y-15257388D01*
X10408396Y-15257388D02*
X10398873Y-15238341D01*
X10398873Y-15238341D02*
X10379825Y-15228817D01*
X10379825Y-15228817D02*
X10351253Y-15228817D01*
X10351253Y-15228817D02*
X10332206Y-15219293D01*
X10332206Y-15219293D02*
X10322682Y-15200246D01*
X10322682Y-15200246D02*
X10322682Y-15190722D01*
X10322682Y-15190722D02*
X10332206Y-15171674D01*
X10332206Y-15171674D02*
X10351253Y-15162150D01*
X10351253Y-15162150D02*
X10379825Y-15162150D01*
X10379825Y-15162150D02*
X10398873Y-15171674D01*
X10475063Y-15371674D02*
X10484587Y-15362150D01*
X10484587Y-15362150D02*
X10503634Y-15333579D01*
X10503634Y-15333579D02*
X10513158Y-15314531D01*
X10513158Y-15314531D02*
X10522682Y-15285960D01*
X10522682Y-15285960D02*
X10532206Y-15238341D01*
X10532206Y-15238341D02*
X10532206Y-15200246D01*
X10532206Y-15200246D02*
X10522682Y-15152627D01*
X10522682Y-15152627D02*
X10513158Y-15124055D01*
X10513158Y-15124055D02*
X10503634Y-15105008D01*
X10503634Y-15105008D02*
X10484587Y-15076436D01*
X10484587Y-15076436D02*
X10475063Y-15066912D01*
X10836968Y-15371674D02*
X10827444Y-15362150D01*
X10827444Y-15362150D02*
X10808396Y-15333579D01*
X10808396Y-15333579D02*
X10798873Y-15314531D01*
X10798873Y-15314531D02*
X10789349Y-15285960D01*
X10789349Y-15285960D02*
X10779825Y-15238341D01*
X10779825Y-15238341D02*
X10779825Y-15200246D01*
X10779825Y-15200246D02*
X10789349Y-15152627D01*
X10789349Y-15152627D02*
X10798873Y-15124055D01*
X10798873Y-15124055D02*
X10808396Y-15105008D01*
X10808396Y-15105008D02*
X10827444Y-15076436D01*
X10827444Y-15076436D02*
X10836968Y-15066912D01*
X10913158Y-15162150D02*
X10913158Y-15295484D01*
X10913158Y-15181198D02*
X10922682Y-15171674D01*
X10922682Y-15171674D02*
X10941730Y-15162150D01*
X10941730Y-15162150D02*
X10970301Y-15162150D01*
X10970301Y-15162150D02*
X10989349Y-15171674D01*
X10989349Y-15171674D02*
X10998873Y-15190722D01*
X10998873Y-15190722D02*
X10998873Y-15295484D01*
X11122682Y-15295484D02*
X11103634Y-15285960D01*
X11103634Y-15285960D02*
X11094111Y-15276436D01*
X11094111Y-15276436D02*
X11084587Y-15257388D01*
X11084587Y-15257388D02*
X11084587Y-15200246D01*
X11084587Y-15200246D02*
X11094111Y-15181198D01*
X11094111Y-15181198D02*
X11103634Y-15171674D01*
X11103634Y-15171674D02*
X11122682Y-15162150D01*
X11122682Y-15162150D02*
X11151254Y-15162150D01*
X11151254Y-15162150D02*
X11170301Y-15171674D01*
X11170301Y-15171674D02*
X11179825Y-15181198D01*
X11179825Y-15181198D02*
X11189349Y-15200246D01*
X11189349Y-15200246D02*
X11189349Y-15257388D01*
X11189349Y-15257388D02*
X11179825Y-15276436D01*
X11179825Y-15276436D02*
X11170301Y-15285960D01*
X11170301Y-15285960D02*
X11151254Y-15295484D01*
X11151254Y-15295484D02*
X11122682Y-15295484D01*
X11246492Y-15162150D02*
X11322682Y-15162150D01*
X11275063Y-15095484D02*
X11275063Y-15266912D01*
X11275063Y-15266912D02*
X11284587Y-15285960D01*
X11284587Y-15285960D02*
X11303634Y-15295484D01*
X11303634Y-15295484D02*
X11322682Y-15295484D01*
X11541730Y-15162150D02*
X11541730Y-15362150D01*
X11541730Y-15171674D02*
X11560777Y-15162150D01*
X11560777Y-15162150D02*
X11598873Y-15162150D01*
X11598873Y-15162150D02*
X11617920Y-15171674D01*
X11617920Y-15171674D02*
X11627444Y-15181198D01*
X11627444Y-15181198D02*
X11636968Y-15200246D01*
X11636968Y-15200246D02*
X11636968Y-15257388D01*
X11636968Y-15257388D02*
X11627444Y-15276436D01*
X11627444Y-15276436D02*
X11617920Y-15285960D01*
X11617920Y-15285960D02*
X11598873Y-15295484D01*
X11598873Y-15295484D02*
X11560777Y-15295484D01*
X11560777Y-15295484D02*
X11541730Y-15285960D01*
X11751253Y-15295484D02*
X11732206Y-15285960D01*
X11732206Y-15285960D02*
X11722682Y-15266912D01*
X11722682Y-15266912D02*
X11722682Y-15095484D01*
X11913158Y-15295484D02*
X11913158Y-15190722D01*
X11913158Y-15190722D02*
X11903634Y-15171674D01*
X11903634Y-15171674D02*
X11884587Y-15162150D01*
X11884587Y-15162150D02*
X11846492Y-15162150D01*
X11846492Y-15162150D02*
X11827444Y-15171674D01*
X11913158Y-15285960D02*
X11894111Y-15295484D01*
X11894111Y-15295484D02*
X11846492Y-15295484D01*
X11846492Y-15295484D02*
X11827444Y-15285960D01*
X11827444Y-15285960D02*
X11817920Y-15266912D01*
X11817920Y-15266912D02*
X11817920Y-15247865D01*
X11817920Y-15247865D02*
X11827444Y-15228817D01*
X11827444Y-15228817D02*
X11846492Y-15219293D01*
X11846492Y-15219293D02*
X11894111Y-15219293D01*
X11894111Y-15219293D02*
X11913158Y-15209769D01*
X11979825Y-15162150D02*
X12056015Y-15162150D01*
X12008396Y-15095484D02*
X12008396Y-15266912D01*
X12008396Y-15266912D02*
X12017920Y-15285960D01*
X12017920Y-15285960D02*
X12036968Y-15295484D01*
X12036968Y-15295484D02*
X12056015Y-15295484D01*
X12198873Y-15285960D02*
X12179825Y-15295484D01*
X12179825Y-15295484D02*
X12141730Y-15295484D01*
X12141730Y-15295484D02*
X12122682Y-15285960D01*
X12122682Y-15285960D02*
X12113158Y-15266912D01*
X12113158Y-15266912D02*
X12113158Y-15190722D01*
X12113158Y-15190722D02*
X12122682Y-15171674D01*
X12122682Y-15171674D02*
X12141730Y-15162150D01*
X12141730Y-15162150D02*
X12179825Y-15162150D01*
X12179825Y-15162150D02*
X12198873Y-15171674D01*
X12198873Y-15171674D02*
X12208396Y-15190722D01*
X12208396Y-15190722D02*
X12208396Y-15209769D01*
X12208396Y-15209769D02*
X12113158Y-15228817D01*
X12379825Y-15295484D02*
X12379825Y-15095484D01*
X12379825Y-15285960D02*
X12360777Y-15295484D01*
X12360777Y-15295484D02*
X12322682Y-15295484D01*
X12322682Y-15295484D02*
X12303634Y-15285960D01*
X12303634Y-15285960D02*
X12294111Y-15276436D01*
X12294111Y-15276436D02*
X12284587Y-15257388D01*
X12284587Y-15257388D02*
X12284587Y-15200246D01*
X12284587Y-15200246D02*
X12294111Y-15181198D01*
X12294111Y-15181198D02*
X12303634Y-15171674D01*
X12303634Y-15171674D02*
X12322682Y-15162150D01*
X12322682Y-15162150D02*
X12360777Y-15162150D01*
X12360777Y-15162150D02*
X12379825Y-15171674D01*
X12456015Y-15371674D02*
X12465539Y-15362150D01*
X12465539Y-15362150D02*
X12484587Y-15333579D01*
X12484587Y-15333579D02*
X12494111Y-15314531D01*
X12494111Y-15314531D02*
X12503634Y-15285960D01*
X12503634Y-15285960D02*
X12513158Y-15238341D01*
X12513158Y-15238341D02*
X12513158Y-15200246D01*
X12513158Y-15200246D02*
X12503634Y-15152627D01*
X12503634Y-15152627D02*
X12494111Y-15124055D01*
X12494111Y-15124055D02*
X12484587Y-15105008D01*
X12484587Y-15105008D02*
X12465539Y-15076436D01*
X12465539Y-15076436D02*
X12456015Y-15066912D01*
M02*
