M48
; DRILL file KiCad 10.0.5 date 2026-10-07T23:32:34
; FORMAT={-:-/ absolute / metric / decimal}
; #@! TF.CreationDate,2026-10-07T23:32:34+05:30
; #@! TF.GenerationSoftware,Kicad,Pcbnew,10.0.5
; #@! TF.FileFunction,Plated,1,4,PTH
FMAT,2
METRIC
; #@! TA.AperFunction,Plated,PTH,ViaDrill
T1C0.200
; #@! TA.AperFunction,Plated,PTH,ViaDrill
T2C0.300
; #@! TA.AperFunction,Plated,PTH,ComponentDrill
T3C0.700
; #@! TA.AperFunction,Plated,PTH,ComponentDrill
T4C0.900
; #@! TA.AperFunction,Plated,PTH,ComponentDrill
T5C1.000
; #@! TA.AperFunction,Plated,PTH,ComponentDrill
T6C1.200
; #@! TA.AperFunction,Plated,PTH,ComponentDrill
T7C1.800
%
G90
G05
T1
X63.8Y-84.25
X63.8Y-85.25
X64.3Y-84.75
X64.3Y-85.75
X65.5Y-87.25
X67.163Y-93.54
X67.775Y-128.5
X68.0Y-99.412
X68.5Y-93.0
X68.9Y-80.2
X70.3Y-79.6
X72.2Y-83.3
X72.25Y-103.575
X73.0Y-94.5
X78.7Y-71.4
X81.5Y-80.0
X81.7Y-70.0
X83.0Y-129.0
X83.815Y-136.5
X88.185Y-137.5
X98.5Y-78.0
X100.4Y-106.0
X101.28Y-78.9
X101.304Y-77.786
X101.75Y-77.4
X102.8Y-101.0
X103.7Y-74.2
X104.0Y-107.0
X104.223Y-98.663
X104.225Y-75.0
X104.75Y-93.75
X104.75Y-95.25
X104.8Y-98.8
X105.9Y-74.2
X106.7Y-85.9
X107.25Y-98.5
X107.4Y-102.58
X107.6Y-101.1
X107.61Y-103.912
X107.7Y-90.0
X108.25Y-104.0
X110.1Y-103.9
X110.1Y-111.6
X111.404Y-100.585
X111.5Y-101.6
X111.7Y-101.1
X111.8Y-117.3
X112.75Y-87.5
X117.2Y-97.7
X126.1Y-75.5
X129.0Y-73.5
X133.5Y-109.5
X133.6Y-103.3
X134.2Y-72.4
X135.2Y-109.7
X136.7Y-106.6
X136.7Y-107.2
X137.1Y-109.7
T2
X60.001Y-104.245
X61.325Y-111.783
X64.035Y-120.616
X64.6Y-86.35
X64.6Y-87.25
X65.337Y-126.287
X65.977Y-116.897
X66.354Y-106.311
X66.96Y-114.455
X67.242Y-74.627
X67.624Y-75.9
X67.702Y-78.138
X67.795Y-105.765
X67.863Y-74.17
X68.406Y-83.817
X68.936Y-77.881
X69.2Y-73.117
X69.796Y-92.044
X69.905Y-124.734
X70.125Y-82.687
X70.31Y-128.66
X70.582Y-99.961
X70.8Y-114.47
X71.13Y-72.823
X71.463Y-76.876
X71.593Y-96.235
X71.695Y-94.849
X71.704Y-92.707
X72.151Y-108.172
X72.364Y-74.543
X72.555Y-113.73
X72.739Y-110.514
X73.014Y-73.819
X73.06Y-79.665
X73.128Y-74.7
X73.132Y-75.785
X73.138Y-77.403
X73.931Y-110.25
X74.009Y-88.853
X74.079Y-101.046
X74.475Y-97.2
X74.517Y-111.329
X74.524Y-112.667
X74.729Y-108.727
X75.049Y-115.35
X75.059Y-59.5
X75.32Y-71.039
X75.462Y-107.751
X75.504Y-84.44
X75.644Y-88.802
X75.808Y-116.441
X75.878Y-64.93
X75.959Y-58.6
X75.959Y-59.5
X75.959Y-60.4
X76.003Y-107.075
X76.659Y-78.913
X76.962Y-112.4
X76.963Y-111.476
X77.112Y-126.67
X77.189Y-62.1
X77.212Y-61.316
X77.232Y-97.423
X77.232Y-98.323
X77.292Y-110.7
X77.349Y-73.126
X77.365Y-122.023
X77.462Y-108.964
X77.664Y-91.068
X77.7Y-68.043
X77.967Y-78.087
X77.993Y-117.482
X78.051Y-114.253
X78.1Y-90.222
X78.202Y-115.016
X78.202Y-126.41
X78.224Y-108.963
X78.23Y-70.881
X78.337Y-66.759
X78.478Y-130.263
X78.589Y-81.135
X78.816Y-78.168
X79.0Y-90.222
X79.0Y-91.123
X79.015Y-106.529
X79.026Y-121.248
X79.031Y-109.234
X79.274Y-110.648
X79.355Y-75.84
X79.362Y-124.655
X79.406Y-126.824
X79.648Y-83.054
X79.713Y-125.823
X79.758Y-77.002
X79.793Y-109.234
X79.794Y-105.506
X79.904Y-78.038
X79.977Y-112.858
X80.086Y-117.512
X80.104Y-110.55
X80.278Y-113.636
X80.684Y-93.226
X80.928Y-78.564
X80.973Y-128.408
X81.026Y-73.397
X81.045Y-112.269
X81.118Y-96.445
X81.262Y-62.099
X81.37Y-113.527
X81.508Y-115.038
X81.825Y-99.456
X82.174Y-132.174
X82.31Y-78.185
X82.474Y-110.357
X82.5Y-81.987
X82.524Y-112.751
X82.602Y-118.939
X82.778Y-117.796
X82.825Y-65.535
X82.845Y-115.032
X83.018Y-113.335
X83.025Y-110.883
X83.287Y-60.439
X83.287Y-61.339
X83.311Y-117.237
X83.354Y-107.092
X83.694Y-63.4
X83.724Y-83.816
X84.013Y-128.315
X84.187Y-60.439
X84.187Y-61.339
X84.346Y-71.0
X84.624Y-82.916
X84.679Y-118.056
X84.701Y-79.868
X84.808Y-115.349
X84.999Y-105.186
X85.232Y-95.175
X85.364Y-108.808
X85.469Y-113.25
X85.473Y-112.466
X85.726Y-73.004
X85.845Y-106.679
X85.86Y-94.208
X86.0Y-127.974
X86.047Y-96.517
X86.138Y-108.816
X86.854Y-82.437
X86.93Y-128.165
X87.299Y-132.644
X87.305Y-96.024
X87.357Y-120.711
X87.483Y-79.944
X87.5Y-112.708
X87.521Y-74.026
X87.537Y-107.691
X87.641Y-109.118
X87.723Y-86.336
X88.273Y-76.185
X88.408Y-108.905
X88.49Y-86.042
X88.799Y-97.451
X89.041Y-82.445
X89.19Y-65.45
X89.19Y-66.35
X89.19Y-67.25
X89.207Y-110.539
X89.696Y-122.47
X89.933Y-104.094
X90.09Y-66.35
X90.259Y-59.55
X90.303Y-112.765
X91.0Y-128.976
X91.028Y-77.0
X91.028Y-77.9
X91.058Y-103.859
X91.128Y-70.308
X91.128Y-71.208
X91.159Y-59.55
X91.266Y-116.705
X91.334Y-96.443
X91.402Y-75.768
X91.5Y-65.85
X91.5Y-66.85
X91.732Y-92.111
X91.85Y-93.1
X91.905Y-60.5
X91.928Y-77.9
X92.028Y-70.308
X92.028Y-71.208
X92.058Y-124.784
X92.059Y-59.55
X92.404Y-128.94
X92.5Y-65.85
X92.5Y-66.85
X92.866Y-107.96
X93.704Y-115.742
X93.72Y-106.133
X93.792Y-84.36
X93.792Y-85.26
X93.846Y-72.057
X93.9Y-119.957
X93.93Y-126.817
X94.029Y-95.947
X94.247Y-93.44
X94.394Y-81.775
X94.692Y-84.36
X94.692Y-85.26
X94.83Y-61.287
X94.856Y-72.265
X95.032Y-70.923
X95.129Y-116.042
X95.512Y-108.753
X95.591Y-101.168
X95.695Y-77.955
X95.717Y-113.05
X96.073Y-107.701
X96.196Y-127.38
X96.275Y-114.765
X96.355Y-91.784
X96.37Y-102.086
X96.565Y-111.078
X96.592Y-72.038
X96.728Y-97.985
X97.235Y-97.084
X97.427Y-96.113
X97.524Y-93.917
X97.687Y-77.947
X97.804Y-91.349
X97.846Y-127.0
X97.846Y-127.9
X97.937Y-133.063
X97.968Y-107.132
X98.05Y-101.449
X98.206Y-98.526
X98.317Y-114.852
X98.743Y-92.686
X98.743Y-132.6
X98.746Y-127.9
X98.99Y-82.451
X99.126Y-77.601
X99.279Y-99.914
X99.502Y-126.954
X100.034Y-72.189
X100.108Y-130.754
X100.111Y-99.11
X100.336Y-132.278
X100.751Y-127.079
X100.82Y-87.585
X100.921Y-119.16
X100.921Y-120.06
X101.184Y-126.075
X101.25Y-72.2
X101.26Y-92.067
X101.27Y-100.048
X101.363Y-118.537
X101.393Y-95.617
X101.428Y-94.514
X101.531Y-123.056
X101.542Y-134.2
X101.77Y-93.17
X101.822Y-119.16
X101.822Y-120.06
X101.989Y-99.544
X102.175Y-105.978
X102.221Y-91.95
X102.4Y-127.95
X102.429Y-90.508
X102.504Y-83.872
X102.526Y-98.526
X102.532Y-93.186
X102.536Y-95.373
X102.935Y-73.105
X103.172Y-78.312
X103.188Y-76.863
X103.325Y-101.511
X103.326Y-102.963
X103.542Y-79.971
X103.557Y-82.391
X103.582Y-104.06
X103.66Y-91.54
X103.752Y-72.178
X103.77Y-73.484
X104.029Y-109.087
X104.094Y-114.892
X104.385Y-99.736
X104.517Y-103.891
X104.617Y-70.25
X104.647Y-90.197
X105.195Y-89.536
X105.528Y-85.423
X105.648Y-86.933
X105.712Y-111.0
X105.758Y-71.457
X105.871Y-108.497
X105.957Y-102.124
X105.957Y-103.624
X106.171Y-76.006
X106.195Y-132.01
X106.258Y-85.054
X106.626Y-110.252
X106.638Y-103.112
X106.708Y-78.173
X106.75Y-79.513
X106.816Y-111.111
X107.274Y-81.597
X107.383Y-77.757
X107.5Y-65.85
X107.5Y-66.85
X107.587Y-133.234
X107.844Y-106.291
X108.012Y-85.246
X108.083Y-74.051
X108.113Y-109.902
X108.174Y-80.697
X108.174Y-81.597
X108.298Y-111.611
X108.5Y-65.85
X108.5Y-66.85
X108.674Y-130.914
X108.912Y-84.346
X108.912Y-85.246
X109.013Y-109.902
X109.013Y-110.802
X109.25Y-115.982
X109.25Y-123.987
X109.632Y-77.983
X109.789Y-85.067
X109.82Y-113.631
X109.975Y-128.117
X110.177Y-89.397
X110.362Y-114.697
X110.538Y-102.39
X110.538Y-112.203
X110.675Y-86.456
X110.885Y-129.007
X110.948Y-114.2
X111.24Y-89.744
X111.355Y-91.018
X111.679Y-99.366
X111.835Y-132.818
X111.894Y-98.522
X112.0Y-131.812
X112.248Y-104.884
X112.248Y-114.97
X112.347Y-129.094
X112.64Y-91.647
X112.7Y-118.2
X112.743Y-119.476
X112.848Y-101.8
X112.906Y-103.311
X113.005Y-107.565
X113.083Y-82.951
X113.121Y-71.819
X113.322Y-132.912
X113.464Y-92.323
X113.466Y-97.691
X113.618Y-96.694
X113.65Y-86.6
X113.65Y-87.5
X113.65Y-88.4
X114.516Y-96.53
X114.591Y-99.663
X114.866Y-91.94
X115.135Y-95.661
X115.344Y-130.689
X115.491Y-69.878
X115.5Y-82.85
X115.5Y-83.85
X115.5Y-105.85
X115.5Y-106.85
X115.5Y-114.85
X115.5Y-115.85
X116.412Y-99.767
X116.5Y-82.85
X116.5Y-83.85
X116.5Y-105.85
X116.5Y-106.85
X116.5Y-114.85
X116.5Y-115.85
X116.602Y-89.158
X117.196Y-120.118
X117.196Y-121.018
X117.2Y-96.8
X118.061Y-127.77
X118.344Y-85.777
X118.883Y-129.234
X119.0Y-91.85
X119.0Y-92.85
X119.617Y-114.063
X119.617Y-114.963
X119.98Y-116.481
X119.98Y-118.281
X120.0Y-91.85
X120.0Y-92.85
X120.108Y-130.526
X120.121Y-133.068
X120.517Y-114.963
X120.517Y-115.863
X120.88Y-117.381
X122.03Y-102.488
X122.341Y-96.534
X122.537Y-132.124
X122.57Y-98.011
X123.104Y-92.061
X123.241Y-96.534
X123.241Y-97.434
X123.5Y-106.85
X123.5Y-107.85
X123.5Y-115.85
X123.5Y-116.85
X123.706Y-119.735
X123.794Y-126.586
X124.141Y-96.534
X124.5Y-106.85
X124.5Y-107.85
X124.5Y-115.85
X124.5Y-116.85
X124.606Y-118.835
X124.825Y-101.563
X125.2Y-75.5
X125.31Y-121.358
X125.478Y-128.386
X126.1Y-76.4
X126.128Y-123.089
X126.435Y-126.04
X126.786Y-111.15
X127.0Y-75.5
X127.296Y-121.825
X127.444Y-115.494
X128.087Y-129.983
X128.1Y-73.5
X128.344Y-114.594
X128.344Y-115.494
X128.344Y-116.394
X128.656Y-132.065
X129.0Y-74.4
X129.697Y-123.1
X129.697Y-124.0
X129.697Y-124.9
X129.9Y-73.5
X130.597Y-124.0
X130.906Y-112.235
X131.241Y-126.561
X131.5Y-106.85
X131.5Y-107.85
X131.5Y-115.85
X131.5Y-116.85
X131.822Y-118.825
X132.5Y-106.85
X132.5Y-107.85
X132.5Y-115.85
X132.5Y-116.85
X132.538Y-101.239
X132.593Y-125.872
X133.198Y-101.684
X133.452Y-118.807
X134.8Y-97.96
X134.961Y-113.296
X135.347Y-107.265
X135.692Y-127.08
X137.718Y-118.001
X137.993Y-120.053
X138.109Y-109.013
X138.618Y-118.901
T4
X77.5Y-102.0
X79.5Y-102.0
X81.5Y-102.0
X83.5Y-102.0
X85.5Y-102.0
X87.5Y-102.0
X89.5Y-102.0
X91.5Y-102.0
X95.0Y-138.5
X97.0Y-138.5
X99.0Y-138.5
X101.0Y-138.5
X103.0Y-138.5
X105.0Y-138.5
X107.0Y-138.5
X109.0Y-138.5
T5
X111.0Y-61.05
X113.0Y-61.05
X115.0Y-61.05
X117.0Y-61.05
T6
X127.5Y-78.0
X129.5Y-92.0
X132.5Y-78.0
X134.5Y-92.0
T7
X98.02Y-63.5
X101.98Y-63.5
X114.06Y-139.0
X118.02Y-139.0
X121.98Y-139.0
X125.94Y-139.0
T3
X61.714Y-80.68G85X61.014Y-80.68
G05
X61.714Y-89.32G85X61.014Y-89.32
G05
X66.044Y-80.68G85X65.044Y-80.68
G05
X66.044Y-89.32G85X65.044Y-89.32
G05
M30
