%TF.GenerationSoftware,KiCad,Pcbnew,10.0.5*%
%TF.CreationDate,2026-10-09T19:01:07+05:30*%
%TF.ProjectId,pd1180-epr-r0.3,70643131-3830-42d6-9570-722d72302e33,rev?*%
%TF.SameCoordinates,Original*%
%TF.FileFunction,Legend,Bot*%
%TF.FilePolarity,Positive*%
%FSLAX46Y46*%
G04 Gerber Fmt 4.6, Leading zero omitted, Abs format (unit mm)*
G04 Created by KiCad (PCBNEW 10.0.5) date 2026-10-09 19:01:07*
%MOMM*%
%LPD*%
G01*
G04 APERTURE LIST*
%ADD10C,0.150000*%
%ADD11C,0.300000*%
%ADD12C,0.649986*%
%ADD13O,2.099996X1.099998*%
%ADD14O,1.799996X1.099998*%
%ADD15C,4.200000*%
%ADD16C,1.524000*%
%ADD17C,2.099996*%
%ADD18R,2.499995X2.499995*%
%ADD19C,2.499995*%
G04 APERTURE END LIST*
D10*
X114495241Y-80362295D02*
X114495241Y-79562295D01*
X114495241Y-79562295D02*
X114190479Y-79562295D01*
X114190479Y-79562295D02*
X114114289Y-79600390D01*
X114114289Y-79600390D02*
X114076194Y-79638485D01*
X114076194Y-79638485D02*
X114038098Y-79714676D01*
X114038098Y-79714676D02*
X114038098Y-79828961D01*
X114038098Y-79828961D02*
X114076194Y-79905152D01*
X114076194Y-79905152D02*
X114114289Y-79943247D01*
X114114289Y-79943247D02*
X114190479Y-79981342D01*
X114190479Y-79981342D02*
X114495241Y-79981342D01*
X113695241Y-80362295D02*
X113695241Y-79562295D01*
X113695241Y-79562295D02*
X113504765Y-79562295D01*
X113504765Y-79562295D02*
X113390479Y-79600390D01*
X113390479Y-79600390D02*
X113314289Y-79676580D01*
X113314289Y-79676580D02*
X113276194Y-79752771D01*
X113276194Y-79752771D02*
X113238098Y-79905152D01*
X113238098Y-79905152D02*
X113238098Y-80019438D01*
X113238098Y-80019438D02*
X113276194Y-80171819D01*
X113276194Y-80171819D02*
X113314289Y-80248009D01*
X113314289Y-80248009D02*
X113390479Y-80324200D01*
X113390479Y-80324200D02*
X113504765Y-80362295D01*
X113504765Y-80362295D02*
X113695241Y-80362295D01*
X112476194Y-80362295D02*
X112933337Y-80362295D01*
X112704765Y-80362295D02*
X112704765Y-79562295D01*
X112704765Y-79562295D02*
X112780956Y-79676580D01*
X112780956Y-79676580D02*
X112857146Y-79752771D01*
X112857146Y-79752771D02*
X112933337Y-79790866D01*
X111714289Y-80362295D02*
X112171432Y-80362295D01*
X111942860Y-80362295D02*
X111942860Y-79562295D01*
X111942860Y-79562295D02*
X112019051Y-79676580D01*
X112019051Y-79676580D02*
X112095241Y-79752771D01*
X112095241Y-79752771D02*
X112171432Y-79790866D01*
X111257146Y-79905152D02*
X111333336Y-79867057D01*
X111333336Y-79867057D02*
X111371431Y-79828961D01*
X111371431Y-79828961D02*
X111409527Y-79752771D01*
X111409527Y-79752771D02*
X111409527Y-79714676D01*
X111409527Y-79714676D02*
X111371431Y-79638485D01*
X111371431Y-79638485D02*
X111333336Y-79600390D01*
X111333336Y-79600390D02*
X111257146Y-79562295D01*
X111257146Y-79562295D02*
X111104765Y-79562295D01*
X111104765Y-79562295D02*
X111028574Y-79600390D01*
X111028574Y-79600390D02*
X110990479Y-79638485D01*
X110990479Y-79638485D02*
X110952384Y-79714676D01*
X110952384Y-79714676D02*
X110952384Y-79752771D01*
X110952384Y-79752771D02*
X110990479Y-79828961D01*
X110990479Y-79828961D02*
X111028574Y-79867057D01*
X111028574Y-79867057D02*
X111104765Y-79905152D01*
X111104765Y-79905152D02*
X111257146Y-79905152D01*
X111257146Y-79905152D02*
X111333336Y-79943247D01*
X111333336Y-79943247D02*
X111371431Y-79981342D01*
X111371431Y-79981342D02*
X111409527Y-80057533D01*
X111409527Y-80057533D02*
X111409527Y-80209914D01*
X111409527Y-80209914D02*
X111371431Y-80286104D01*
X111371431Y-80286104D02*
X111333336Y-80324200D01*
X111333336Y-80324200D02*
X111257146Y-80362295D01*
X111257146Y-80362295D02*
X111104765Y-80362295D01*
X111104765Y-80362295D02*
X111028574Y-80324200D01*
X111028574Y-80324200D02*
X110990479Y-80286104D01*
X110990479Y-80286104D02*
X110952384Y-80209914D01*
X110952384Y-80209914D02*
X110952384Y-80057533D01*
X110952384Y-80057533D02*
X110990479Y-79981342D01*
X110990479Y-79981342D02*
X111028574Y-79943247D01*
X111028574Y-79943247D02*
X111104765Y-79905152D01*
X110457145Y-79562295D02*
X110380955Y-79562295D01*
X110380955Y-79562295D02*
X110304764Y-79600390D01*
X110304764Y-79600390D02*
X110266669Y-79638485D01*
X110266669Y-79638485D02*
X110228574Y-79714676D01*
X110228574Y-79714676D02*
X110190479Y-79867057D01*
X110190479Y-79867057D02*
X110190479Y-80057533D01*
X110190479Y-80057533D02*
X110228574Y-80209914D01*
X110228574Y-80209914D02*
X110266669Y-80286104D01*
X110266669Y-80286104D02*
X110304764Y-80324200D01*
X110304764Y-80324200D02*
X110380955Y-80362295D01*
X110380955Y-80362295D02*
X110457145Y-80362295D01*
X110457145Y-80362295D02*
X110533336Y-80324200D01*
X110533336Y-80324200D02*
X110571431Y-80286104D01*
X110571431Y-80286104D02*
X110609526Y-80209914D01*
X110609526Y-80209914D02*
X110647622Y-80057533D01*
X110647622Y-80057533D02*
X110647622Y-79867057D01*
X110647622Y-79867057D02*
X110609526Y-79714676D01*
X110609526Y-79714676D02*
X110571431Y-79638485D01*
X110571431Y-79638485D02*
X110533336Y-79600390D01*
X110533336Y-79600390D02*
X110457145Y-79562295D01*
X109847621Y-80057533D02*
X109238098Y-80057533D01*
X108857145Y-79943247D02*
X108590479Y-79943247D01*
X108476193Y-80362295D02*
X108857145Y-80362295D01*
X108857145Y-80362295D02*
X108857145Y-79562295D01*
X108857145Y-79562295D02*
X108476193Y-79562295D01*
X108133335Y-80362295D02*
X108133335Y-79562295D01*
X108133335Y-79562295D02*
X107828573Y-79562295D01*
X107828573Y-79562295D02*
X107752383Y-79600390D01*
X107752383Y-79600390D02*
X107714288Y-79638485D01*
X107714288Y-79638485D02*
X107676192Y-79714676D01*
X107676192Y-79714676D02*
X107676192Y-79828961D01*
X107676192Y-79828961D02*
X107714288Y-79905152D01*
X107714288Y-79905152D02*
X107752383Y-79943247D01*
X107752383Y-79943247D02*
X107828573Y-79981342D01*
X107828573Y-79981342D02*
X108133335Y-79981342D01*
X106876192Y-80362295D02*
X107142859Y-79981342D01*
X107333335Y-80362295D02*
X107333335Y-79562295D01*
X107333335Y-79562295D02*
X107028573Y-79562295D01*
X107028573Y-79562295D02*
X106952383Y-79600390D01*
X106952383Y-79600390D02*
X106914288Y-79638485D01*
X106914288Y-79638485D02*
X106876192Y-79714676D01*
X106876192Y-79714676D02*
X106876192Y-79828961D01*
X106876192Y-79828961D02*
X106914288Y-79905152D01*
X106914288Y-79905152D02*
X106952383Y-79943247D01*
X106952383Y-79943247D02*
X107028573Y-79981342D01*
X107028573Y-79981342D02*
X107333335Y-79981342D01*
X106000002Y-80095628D02*
X105314288Y-80095628D01*
X104400001Y-80362295D02*
X104400001Y-79562295D01*
X104400001Y-79562295D02*
X103942858Y-80362295D01*
X103942858Y-80362295D02*
X103942858Y-79562295D01*
X103561906Y-79943247D02*
X103295240Y-79943247D01*
X103180954Y-80362295D02*
X103561906Y-80362295D01*
X103561906Y-80362295D02*
X103561906Y-79562295D01*
X103561906Y-79562295D02*
X103180954Y-79562295D01*
X102838096Y-80362295D02*
X102838096Y-79562295D01*
X102838096Y-79562295D02*
X102571430Y-80133723D01*
X102571430Y-80133723D02*
X102304763Y-79562295D01*
X102304763Y-79562295D02*
X102304763Y-80362295D01*
X101961906Y-80133723D02*
X101580953Y-80133723D01*
X102038096Y-80362295D02*
X101771429Y-79562295D01*
X101771429Y-79562295D02*
X101504763Y-80362295D01*
X100704763Y-79562295D02*
X100209525Y-79562295D01*
X100209525Y-79562295D02*
X100476191Y-79867057D01*
X100476191Y-79867057D02*
X100361906Y-79867057D01*
X100361906Y-79867057D02*
X100285715Y-79905152D01*
X100285715Y-79905152D02*
X100247620Y-79943247D01*
X100247620Y-79943247D02*
X100209525Y-80019438D01*
X100209525Y-80019438D02*
X100209525Y-80209914D01*
X100209525Y-80209914D02*
X100247620Y-80286104D01*
X100247620Y-80286104D02*
X100285715Y-80324200D01*
X100285715Y-80324200D02*
X100361906Y-80362295D01*
X100361906Y-80362295D02*
X100590477Y-80362295D01*
X100590477Y-80362295D02*
X100666668Y-80324200D01*
X100666668Y-80324200D02*
X100704763Y-80286104D01*
X99523810Y-79828961D02*
X99523810Y-80362295D01*
X99714286Y-79524200D02*
X99904763Y-80095628D01*
X99904763Y-80095628D02*
X99409524Y-80095628D01*
X98533334Y-80324200D02*
X98419048Y-80362295D01*
X98419048Y-80362295D02*
X98228572Y-80362295D01*
X98228572Y-80362295D02*
X98152381Y-80324200D01*
X98152381Y-80324200D02*
X98114286Y-80286104D01*
X98114286Y-80286104D02*
X98076191Y-80209914D01*
X98076191Y-80209914D02*
X98076191Y-80133723D01*
X98076191Y-80133723D02*
X98114286Y-80057533D01*
X98114286Y-80057533D02*
X98152381Y-80019438D01*
X98152381Y-80019438D02*
X98228572Y-79981342D01*
X98228572Y-79981342D02*
X98380953Y-79943247D01*
X98380953Y-79943247D02*
X98457143Y-79905152D01*
X98457143Y-79905152D02*
X98495238Y-79867057D01*
X98495238Y-79867057D02*
X98533334Y-79790866D01*
X98533334Y-79790866D02*
X98533334Y-79714676D01*
X98533334Y-79714676D02*
X98495238Y-79638485D01*
X98495238Y-79638485D02*
X98457143Y-79600390D01*
X98457143Y-79600390D02*
X98380953Y-79562295D01*
X98380953Y-79562295D02*
X98190476Y-79562295D01*
X98190476Y-79562295D02*
X98076191Y-79600390D01*
X97733333Y-80362295D02*
X97733333Y-79828961D01*
X97733333Y-79905152D02*
X97695238Y-79867057D01*
X97695238Y-79867057D02*
X97619048Y-79828961D01*
X97619048Y-79828961D02*
X97504762Y-79828961D01*
X97504762Y-79828961D02*
X97428571Y-79867057D01*
X97428571Y-79867057D02*
X97390476Y-79943247D01*
X97390476Y-79943247D02*
X97390476Y-80362295D01*
X97390476Y-79943247D02*
X97352381Y-79867057D01*
X97352381Y-79867057D02*
X97276190Y-79828961D01*
X97276190Y-79828961D02*
X97161905Y-79828961D01*
X97161905Y-79828961D02*
X97085714Y-79867057D01*
X97085714Y-79867057D02*
X97047619Y-79943247D01*
X97047619Y-79943247D02*
X97047619Y-80362295D01*
X96323809Y-80362295D02*
X96323809Y-79943247D01*
X96323809Y-79943247D02*
X96361904Y-79867057D01*
X96361904Y-79867057D02*
X96438095Y-79828961D01*
X96438095Y-79828961D02*
X96590476Y-79828961D01*
X96590476Y-79828961D02*
X96666666Y-79867057D01*
X96323809Y-80324200D02*
X96400000Y-80362295D01*
X96400000Y-80362295D02*
X96590476Y-80362295D01*
X96590476Y-80362295D02*
X96666666Y-80324200D01*
X96666666Y-80324200D02*
X96704762Y-80248009D01*
X96704762Y-80248009D02*
X96704762Y-80171819D01*
X96704762Y-80171819D02*
X96666666Y-80095628D01*
X96666666Y-80095628D02*
X96590476Y-80057533D01*
X96590476Y-80057533D02*
X96400000Y-80057533D01*
X96400000Y-80057533D02*
X96323809Y-80019438D01*
X95942856Y-80362295D02*
X95942856Y-79828961D01*
X95942856Y-79981342D02*
X95904761Y-79905152D01*
X95904761Y-79905152D02*
X95866666Y-79867057D01*
X95866666Y-79867057D02*
X95790475Y-79828961D01*
X95790475Y-79828961D02*
X95714285Y-79828961D01*
X95561904Y-79828961D02*
X95257142Y-79828961D01*
X95447618Y-79562295D02*
X95447618Y-80248009D01*
X95447618Y-80248009D02*
X95409523Y-80324200D01*
X95409523Y-80324200D02*
X95333333Y-80362295D01*
X95333333Y-80362295D02*
X95257142Y-80362295D01*
X94380951Y-80362295D02*
X94380951Y-79562295D01*
X94380951Y-79562295D02*
X94114285Y-80133723D01*
X94114285Y-80133723D02*
X93847618Y-79562295D01*
X93847618Y-79562295D02*
X93847618Y-80362295D01*
X93352380Y-80362295D02*
X93428570Y-80324200D01*
X93428570Y-80324200D02*
X93466665Y-80286104D01*
X93466665Y-80286104D02*
X93504761Y-80209914D01*
X93504761Y-80209914D02*
X93504761Y-79981342D01*
X93504761Y-79981342D02*
X93466665Y-79905152D01*
X93466665Y-79905152D02*
X93428570Y-79867057D01*
X93428570Y-79867057D02*
X93352380Y-79828961D01*
X93352380Y-79828961D02*
X93238094Y-79828961D01*
X93238094Y-79828961D02*
X93161903Y-79867057D01*
X93161903Y-79867057D02*
X93123808Y-79905152D01*
X93123808Y-79905152D02*
X93085713Y-79981342D01*
X93085713Y-79981342D02*
X93085713Y-80209914D01*
X93085713Y-80209914D02*
X93123808Y-80286104D01*
X93123808Y-80286104D02*
X93161903Y-80324200D01*
X93161903Y-80324200D02*
X93238094Y-80362295D01*
X93238094Y-80362295D02*
X93352380Y-80362295D01*
X92857141Y-79828961D02*
X92552379Y-79828961D01*
X92742855Y-79562295D02*
X92742855Y-80248009D01*
X92742855Y-80248009D02*
X92704760Y-80324200D01*
X92704760Y-80324200D02*
X92628570Y-80362295D01*
X92628570Y-80362295D02*
X92552379Y-80362295D01*
X92171427Y-80362295D02*
X92247617Y-80324200D01*
X92247617Y-80324200D02*
X92285712Y-80286104D01*
X92285712Y-80286104D02*
X92323808Y-80209914D01*
X92323808Y-80209914D02*
X92323808Y-79981342D01*
X92323808Y-79981342D02*
X92285712Y-79905152D01*
X92285712Y-79905152D02*
X92247617Y-79867057D01*
X92247617Y-79867057D02*
X92171427Y-79828961D01*
X92171427Y-79828961D02*
X92057141Y-79828961D01*
X92057141Y-79828961D02*
X91980950Y-79867057D01*
X91980950Y-79867057D02*
X91942855Y-79905152D01*
X91942855Y-79905152D02*
X91904760Y-79981342D01*
X91904760Y-79981342D02*
X91904760Y-80209914D01*
X91904760Y-80209914D02*
X91942855Y-80286104D01*
X91942855Y-80286104D02*
X91980950Y-80324200D01*
X91980950Y-80324200D02*
X92057141Y-80362295D01*
X92057141Y-80362295D02*
X92171427Y-80362295D01*
X91561902Y-80362295D02*
X91561902Y-79828961D01*
X91561902Y-79981342D02*
X91523807Y-79905152D01*
X91523807Y-79905152D02*
X91485712Y-79867057D01*
X91485712Y-79867057D02*
X91409521Y-79828961D01*
X91409521Y-79828961D02*
X91333331Y-79828961D01*
X91066664Y-80057533D02*
X90457141Y-80057533D01*
X90076188Y-80362295D02*
X90076188Y-79562295D01*
X90076188Y-79562295D02*
X89809522Y-80133723D01*
X89809522Y-80133723D02*
X89542855Y-79562295D01*
X89542855Y-79562295D02*
X89542855Y-80362295D01*
X89047617Y-80362295D02*
X89123807Y-80324200D01*
X89123807Y-80324200D02*
X89161902Y-80286104D01*
X89161902Y-80286104D02*
X89199998Y-80209914D01*
X89199998Y-80209914D02*
X89199998Y-79981342D01*
X89199998Y-79981342D02*
X89161902Y-79905152D01*
X89161902Y-79905152D02*
X89123807Y-79867057D01*
X89123807Y-79867057D02*
X89047617Y-79828961D01*
X89047617Y-79828961D02*
X88933331Y-79828961D01*
X88933331Y-79828961D02*
X88857140Y-79867057D01*
X88857140Y-79867057D02*
X88819045Y-79905152D01*
X88819045Y-79905152D02*
X88780950Y-79981342D01*
X88780950Y-79981342D02*
X88780950Y-80209914D01*
X88780950Y-80209914D02*
X88819045Y-80286104D01*
X88819045Y-80286104D02*
X88857140Y-80324200D01*
X88857140Y-80324200D02*
X88933331Y-80362295D01*
X88933331Y-80362295D02*
X89047617Y-80362295D01*
X88095235Y-79828961D02*
X88095235Y-80362295D01*
X88438092Y-79828961D02*
X88438092Y-80248009D01*
X88438092Y-80248009D02*
X88399997Y-80324200D01*
X88399997Y-80324200D02*
X88323807Y-80362295D01*
X88323807Y-80362295D02*
X88209521Y-80362295D01*
X88209521Y-80362295D02*
X88133330Y-80324200D01*
X88133330Y-80324200D02*
X88095235Y-80286104D01*
X87714282Y-79828961D02*
X87714282Y-80362295D01*
X87714282Y-79905152D02*
X87676187Y-79867057D01*
X87676187Y-79867057D02*
X87599997Y-79828961D01*
X87599997Y-79828961D02*
X87485711Y-79828961D01*
X87485711Y-79828961D02*
X87409520Y-79867057D01*
X87409520Y-79867057D02*
X87371425Y-79943247D01*
X87371425Y-79943247D02*
X87371425Y-80362295D01*
X87104758Y-79828961D02*
X86799996Y-79828961D01*
X86990472Y-79562295D02*
X86990472Y-80248009D01*
X86990472Y-80248009D02*
X86952377Y-80324200D01*
X86952377Y-80324200D02*
X86876187Y-80362295D01*
X86876187Y-80362295D02*
X86799996Y-80362295D01*
X86228567Y-80324200D02*
X86304758Y-80362295D01*
X86304758Y-80362295D02*
X86457139Y-80362295D01*
X86457139Y-80362295D02*
X86533329Y-80324200D01*
X86533329Y-80324200D02*
X86571425Y-80248009D01*
X86571425Y-80248009D02*
X86571425Y-79943247D01*
X86571425Y-79943247D02*
X86533329Y-79867057D01*
X86533329Y-79867057D02*
X86457139Y-79828961D01*
X86457139Y-79828961D02*
X86304758Y-79828961D01*
X86304758Y-79828961D02*
X86228567Y-79867057D01*
X86228567Y-79867057D02*
X86190472Y-79943247D01*
X86190472Y-79943247D02*
X86190472Y-80019438D01*
X86190472Y-80019438D02*
X86571425Y-80095628D01*
X85504758Y-80362295D02*
X85504758Y-79562295D01*
X85504758Y-80324200D02*
X85580949Y-80362295D01*
X85580949Y-80362295D02*
X85733330Y-80362295D01*
X85733330Y-80362295D02*
X85809520Y-80324200D01*
X85809520Y-80324200D02*
X85847615Y-80286104D01*
X85847615Y-80286104D02*
X85885711Y-80209914D01*
X85885711Y-80209914D02*
X85885711Y-79981342D01*
X85885711Y-79981342D02*
X85847615Y-79905152D01*
X85847615Y-79905152D02*
X85809520Y-79867057D01*
X85809520Y-79867057D02*
X85733330Y-79828961D01*
X85733330Y-79828961D02*
X85580949Y-79828961D01*
X85580949Y-79828961D02*
X85504758Y-79867057D01*
X116723812Y-81524200D02*
X116609526Y-81562295D01*
X116609526Y-81562295D02*
X116419050Y-81562295D01*
X116419050Y-81562295D02*
X116342859Y-81524200D01*
X116342859Y-81524200D02*
X116304764Y-81486104D01*
X116304764Y-81486104D02*
X116266669Y-81409914D01*
X116266669Y-81409914D02*
X116266669Y-81333723D01*
X116266669Y-81333723D02*
X116304764Y-81257533D01*
X116304764Y-81257533D02*
X116342859Y-81219438D01*
X116342859Y-81219438D02*
X116419050Y-81181342D01*
X116419050Y-81181342D02*
X116571431Y-81143247D01*
X116571431Y-81143247D02*
X116647621Y-81105152D01*
X116647621Y-81105152D02*
X116685716Y-81067057D01*
X116685716Y-81067057D02*
X116723812Y-80990866D01*
X116723812Y-80990866D02*
X116723812Y-80914676D01*
X116723812Y-80914676D02*
X116685716Y-80838485D01*
X116685716Y-80838485D02*
X116647621Y-80800390D01*
X116647621Y-80800390D02*
X116571431Y-80762295D01*
X116571431Y-80762295D02*
X116380954Y-80762295D01*
X116380954Y-80762295D02*
X116266669Y-80800390D01*
X116038097Y-81028961D02*
X115733335Y-81028961D01*
X115923811Y-80762295D02*
X115923811Y-81448009D01*
X115923811Y-81448009D02*
X115885716Y-81524200D01*
X115885716Y-81524200D02*
X115809526Y-81562295D01*
X115809526Y-81562295D02*
X115733335Y-81562295D01*
X115161906Y-81524200D02*
X115238097Y-81562295D01*
X115238097Y-81562295D02*
X115390478Y-81562295D01*
X115390478Y-81562295D02*
X115466668Y-81524200D01*
X115466668Y-81524200D02*
X115504764Y-81448009D01*
X115504764Y-81448009D02*
X115504764Y-81143247D01*
X115504764Y-81143247D02*
X115466668Y-81067057D01*
X115466668Y-81067057D02*
X115390478Y-81028961D01*
X115390478Y-81028961D02*
X115238097Y-81028961D01*
X115238097Y-81028961D02*
X115161906Y-81067057D01*
X115161906Y-81067057D02*
X115123811Y-81143247D01*
X115123811Y-81143247D02*
X115123811Y-81219438D01*
X115123811Y-81219438D02*
X115504764Y-81295628D01*
X114780954Y-81028961D02*
X114780954Y-81828961D01*
X114780954Y-81067057D02*
X114704764Y-81028961D01*
X114704764Y-81028961D02*
X114552383Y-81028961D01*
X114552383Y-81028961D02*
X114476192Y-81067057D01*
X114476192Y-81067057D02*
X114438097Y-81105152D01*
X114438097Y-81105152D02*
X114400002Y-81181342D01*
X114400002Y-81181342D02*
X114400002Y-81409914D01*
X114400002Y-81409914D02*
X114438097Y-81486104D01*
X114438097Y-81486104D02*
X114476192Y-81524200D01*
X114476192Y-81524200D02*
X114552383Y-81562295D01*
X114552383Y-81562295D02*
X114704764Y-81562295D01*
X114704764Y-81562295D02*
X114780954Y-81524200D01*
X114057144Y-81028961D02*
X114057144Y-81828961D01*
X114057144Y-81067057D02*
X113980954Y-81028961D01*
X113980954Y-81028961D02*
X113828573Y-81028961D01*
X113828573Y-81028961D02*
X113752382Y-81067057D01*
X113752382Y-81067057D02*
X113714287Y-81105152D01*
X113714287Y-81105152D02*
X113676192Y-81181342D01*
X113676192Y-81181342D02*
X113676192Y-81409914D01*
X113676192Y-81409914D02*
X113714287Y-81486104D01*
X113714287Y-81486104D02*
X113752382Y-81524200D01*
X113752382Y-81524200D02*
X113828573Y-81562295D01*
X113828573Y-81562295D02*
X113980954Y-81562295D01*
X113980954Y-81562295D02*
X114057144Y-81524200D01*
X113028572Y-81524200D02*
X113104763Y-81562295D01*
X113104763Y-81562295D02*
X113257144Y-81562295D01*
X113257144Y-81562295D02*
X113333334Y-81524200D01*
X113333334Y-81524200D02*
X113371430Y-81448009D01*
X113371430Y-81448009D02*
X113371430Y-81143247D01*
X113371430Y-81143247D02*
X113333334Y-81067057D01*
X113333334Y-81067057D02*
X113257144Y-81028961D01*
X113257144Y-81028961D02*
X113104763Y-81028961D01*
X113104763Y-81028961D02*
X113028572Y-81067057D01*
X113028572Y-81067057D02*
X112990477Y-81143247D01*
X112990477Y-81143247D02*
X112990477Y-81219438D01*
X112990477Y-81219438D02*
X113371430Y-81295628D01*
X112647620Y-81562295D02*
X112647620Y-81028961D01*
X112647620Y-81181342D02*
X112609525Y-81105152D01*
X112609525Y-81105152D02*
X112571430Y-81067057D01*
X112571430Y-81067057D02*
X112495239Y-81028961D01*
X112495239Y-81028961D02*
X112419049Y-81028961D01*
X111085715Y-81486104D02*
X111123811Y-81524200D01*
X111123811Y-81524200D02*
X111238096Y-81562295D01*
X111238096Y-81562295D02*
X111314287Y-81562295D01*
X111314287Y-81562295D02*
X111428573Y-81524200D01*
X111428573Y-81524200D02*
X111504763Y-81448009D01*
X111504763Y-81448009D02*
X111542858Y-81371819D01*
X111542858Y-81371819D02*
X111580954Y-81219438D01*
X111580954Y-81219438D02*
X111580954Y-81105152D01*
X111580954Y-81105152D02*
X111542858Y-80952771D01*
X111542858Y-80952771D02*
X111504763Y-80876580D01*
X111504763Y-80876580D02*
X111428573Y-80800390D01*
X111428573Y-80800390D02*
X111314287Y-80762295D01*
X111314287Y-80762295D02*
X111238096Y-80762295D01*
X111238096Y-80762295D02*
X111123811Y-80800390D01*
X111123811Y-80800390D02*
X111085715Y-80838485D01*
X110628573Y-81562295D02*
X110704763Y-81524200D01*
X110704763Y-81524200D02*
X110742858Y-81486104D01*
X110742858Y-81486104D02*
X110780954Y-81409914D01*
X110780954Y-81409914D02*
X110780954Y-81181342D01*
X110780954Y-81181342D02*
X110742858Y-81105152D01*
X110742858Y-81105152D02*
X110704763Y-81067057D01*
X110704763Y-81067057D02*
X110628573Y-81028961D01*
X110628573Y-81028961D02*
X110514287Y-81028961D01*
X110514287Y-81028961D02*
X110438096Y-81067057D01*
X110438096Y-81067057D02*
X110400001Y-81105152D01*
X110400001Y-81105152D02*
X110361906Y-81181342D01*
X110361906Y-81181342D02*
X110361906Y-81409914D01*
X110361906Y-81409914D02*
X110400001Y-81486104D01*
X110400001Y-81486104D02*
X110438096Y-81524200D01*
X110438096Y-81524200D02*
X110514287Y-81562295D01*
X110514287Y-81562295D02*
X110628573Y-81562295D01*
X110019048Y-81028961D02*
X110019048Y-81562295D01*
X110019048Y-81105152D02*
X109980953Y-81067057D01*
X109980953Y-81067057D02*
X109904763Y-81028961D01*
X109904763Y-81028961D02*
X109790477Y-81028961D01*
X109790477Y-81028961D02*
X109714286Y-81067057D01*
X109714286Y-81067057D02*
X109676191Y-81143247D01*
X109676191Y-81143247D02*
X109676191Y-81562295D01*
X109409524Y-81028961D02*
X109104762Y-81028961D01*
X109295238Y-80762295D02*
X109295238Y-81448009D01*
X109295238Y-81448009D02*
X109257143Y-81524200D01*
X109257143Y-81524200D02*
X109180953Y-81562295D01*
X109180953Y-81562295D02*
X109104762Y-81562295D01*
X108838095Y-81562295D02*
X108838095Y-81028961D01*
X108838095Y-81181342D02*
X108800000Y-81105152D01*
X108800000Y-81105152D02*
X108761905Y-81067057D01*
X108761905Y-81067057D02*
X108685714Y-81028961D01*
X108685714Y-81028961D02*
X108609524Y-81028961D01*
X108228572Y-81562295D02*
X108304762Y-81524200D01*
X108304762Y-81524200D02*
X108342857Y-81486104D01*
X108342857Y-81486104D02*
X108380953Y-81409914D01*
X108380953Y-81409914D02*
X108380953Y-81181342D01*
X108380953Y-81181342D02*
X108342857Y-81105152D01*
X108342857Y-81105152D02*
X108304762Y-81067057D01*
X108304762Y-81067057D02*
X108228572Y-81028961D01*
X108228572Y-81028961D02*
X108114286Y-81028961D01*
X108114286Y-81028961D02*
X108038095Y-81067057D01*
X108038095Y-81067057D02*
X108000000Y-81105152D01*
X108000000Y-81105152D02*
X107961905Y-81181342D01*
X107961905Y-81181342D02*
X107961905Y-81409914D01*
X107961905Y-81409914D02*
X108000000Y-81486104D01*
X108000000Y-81486104D02*
X108038095Y-81524200D01*
X108038095Y-81524200D02*
X108114286Y-81562295D01*
X108114286Y-81562295D02*
X108228572Y-81562295D01*
X107504762Y-81562295D02*
X107580952Y-81524200D01*
X107580952Y-81524200D02*
X107619047Y-81448009D01*
X107619047Y-81448009D02*
X107619047Y-80762295D01*
X107085714Y-81562295D02*
X107161904Y-81524200D01*
X107161904Y-81524200D02*
X107199999Y-81448009D01*
X107199999Y-81448009D02*
X107199999Y-80762295D01*
X106476189Y-81524200D02*
X106552380Y-81562295D01*
X106552380Y-81562295D02*
X106704761Y-81562295D01*
X106704761Y-81562295D02*
X106780951Y-81524200D01*
X106780951Y-81524200D02*
X106819047Y-81448009D01*
X106819047Y-81448009D02*
X106819047Y-81143247D01*
X106819047Y-81143247D02*
X106780951Y-81067057D01*
X106780951Y-81067057D02*
X106704761Y-81028961D01*
X106704761Y-81028961D02*
X106552380Y-81028961D01*
X106552380Y-81028961D02*
X106476189Y-81067057D01*
X106476189Y-81067057D02*
X106438094Y-81143247D01*
X106438094Y-81143247D02*
X106438094Y-81219438D01*
X106438094Y-81219438D02*
X106819047Y-81295628D01*
X106095237Y-81562295D02*
X106095237Y-81028961D01*
X106095237Y-81181342D02*
X106057142Y-81105152D01*
X106057142Y-81105152D02*
X106019047Y-81067057D01*
X106019047Y-81067057D02*
X105942856Y-81028961D01*
X105942856Y-81028961D02*
X105866666Y-81028961D01*
X105066666Y-81028961D02*
X104914285Y-81562295D01*
X104914285Y-81562295D02*
X104761904Y-81181342D01*
X104761904Y-81181342D02*
X104609523Y-81562295D01*
X104609523Y-81562295D02*
X104457142Y-81028961D01*
X104152380Y-81562295D02*
X104152380Y-81028961D01*
X104152380Y-80762295D02*
X104190476Y-80800390D01*
X104190476Y-80800390D02*
X104152380Y-80838485D01*
X104152380Y-80838485D02*
X104114285Y-80800390D01*
X104114285Y-80800390D02*
X104152380Y-80762295D01*
X104152380Y-80762295D02*
X104152380Y-80838485D01*
X103885714Y-81028961D02*
X103580952Y-81028961D01*
X103771428Y-80762295D02*
X103771428Y-81448009D01*
X103771428Y-81448009D02*
X103733333Y-81524200D01*
X103733333Y-81524200D02*
X103657143Y-81562295D01*
X103657143Y-81562295D02*
X103580952Y-81562295D01*
X103314285Y-81562295D02*
X103314285Y-80762295D01*
X102971428Y-81562295D02*
X102971428Y-81143247D01*
X102971428Y-81143247D02*
X103009523Y-81067057D01*
X103009523Y-81067057D02*
X103085714Y-81028961D01*
X103085714Y-81028961D02*
X103200000Y-81028961D01*
X103200000Y-81028961D02*
X103276190Y-81067057D01*
X103276190Y-81067057D02*
X103314285Y-81105152D01*
X101980951Y-80762295D02*
X101980951Y-81409914D01*
X101980951Y-81409914D02*
X101942856Y-81486104D01*
X101942856Y-81486104D02*
X101904761Y-81524200D01*
X101904761Y-81524200D02*
X101828570Y-81562295D01*
X101828570Y-81562295D02*
X101676189Y-81562295D01*
X101676189Y-81562295D02*
X101599999Y-81524200D01*
X101599999Y-81524200D02*
X101561904Y-81486104D01*
X101561904Y-81486104D02*
X101523808Y-81409914D01*
X101523808Y-81409914D02*
X101523808Y-80762295D01*
X101180952Y-81524200D02*
X101066666Y-81562295D01*
X101066666Y-81562295D02*
X100876190Y-81562295D01*
X100876190Y-81562295D02*
X100799999Y-81524200D01*
X100799999Y-81524200D02*
X100761904Y-81486104D01*
X100761904Y-81486104D02*
X100723809Y-81409914D01*
X100723809Y-81409914D02*
X100723809Y-81333723D01*
X100723809Y-81333723D02*
X100761904Y-81257533D01*
X100761904Y-81257533D02*
X100799999Y-81219438D01*
X100799999Y-81219438D02*
X100876190Y-81181342D01*
X100876190Y-81181342D02*
X101028571Y-81143247D01*
X101028571Y-81143247D02*
X101104761Y-81105152D01*
X101104761Y-81105152D02*
X101142856Y-81067057D01*
X101142856Y-81067057D02*
X101180952Y-80990866D01*
X101180952Y-80990866D02*
X101180952Y-80914676D01*
X101180952Y-80914676D02*
X101142856Y-80838485D01*
X101142856Y-80838485D02*
X101104761Y-80800390D01*
X101104761Y-80800390D02*
X101028571Y-80762295D01*
X101028571Y-80762295D02*
X100838094Y-80762295D01*
X100838094Y-80762295D02*
X100723809Y-80800390D01*
X100114285Y-81143247D02*
X99999999Y-81181342D01*
X99999999Y-81181342D02*
X99961904Y-81219438D01*
X99961904Y-81219438D02*
X99923808Y-81295628D01*
X99923808Y-81295628D02*
X99923808Y-81409914D01*
X99923808Y-81409914D02*
X99961904Y-81486104D01*
X99961904Y-81486104D02*
X99999999Y-81524200D01*
X99999999Y-81524200D02*
X100076189Y-81562295D01*
X100076189Y-81562295D02*
X100380951Y-81562295D01*
X100380951Y-81562295D02*
X100380951Y-80762295D01*
X100380951Y-80762295D02*
X100114285Y-80762295D01*
X100114285Y-80762295D02*
X100038094Y-80800390D01*
X100038094Y-80800390D02*
X99999999Y-80838485D01*
X99999999Y-80838485D02*
X99961904Y-80914676D01*
X99961904Y-80914676D02*
X99961904Y-80990866D01*
X99961904Y-80990866D02*
X99999999Y-81067057D01*
X99999999Y-81067057D02*
X100038094Y-81105152D01*
X100038094Y-81105152D02*
X100114285Y-81143247D01*
X100114285Y-81143247D02*
X100380951Y-81143247D01*
X99580951Y-81257533D02*
X98971428Y-81257533D01*
X98133332Y-81486104D02*
X98171428Y-81524200D01*
X98171428Y-81524200D02*
X98285713Y-81562295D01*
X98285713Y-81562295D02*
X98361904Y-81562295D01*
X98361904Y-81562295D02*
X98476190Y-81524200D01*
X98476190Y-81524200D02*
X98552380Y-81448009D01*
X98552380Y-81448009D02*
X98590475Y-81371819D01*
X98590475Y-81371819D02*
X98628571Y-81219438D01*
X98628571Y-81219438D02*
X98628571Y-81105152D01*
X98628571Y-81105152D02*
X98590475Y-80952771D01*
X98590475Y-80952771D02*
X98552380Y-80876580D01*
X98552380Y-80876580D02*
X98476190Y-80800390D01*
X98476190Y-80800390D02*
X98361904Y-80762295D01*
X98361904Y-80762295D02*
X98285713Y-80762295D01*
X98285713Y-80762295D02*
X98171428Y-80800390D01*
X98171428Y-80800390D02*
X98133332Y-80838485D01*
X97180951Y-81562295D02*
X97180951Y-80762295D01*
X97180951Y-80762295D02*
X96876189Y-80762295D01*
X96876189Y-80762295D02*
X96799999Y-80800390D01*
X96799999Y-80800390D02*
X96761904Y-80838485D01*
X96761904Y-80838485D02*
X96723808Y-80914676D01*
X96723808Y-80914676D02*
X96723808Y-81028961D01*
X96723808Y-81028961D02*
X96761904Y-81105152D01*
X96761904Y-81105152D02*
X96799999Y-81143247D01*
X96799999Y-81143247D02*
X96876189Y-81181342D01*
X96876189Y-81181342D02*
X97180951Y-81181342D01*
X96380951Y-81562295D02*
X96380951Y-80762295D01*
X96380951Y-80762295D02*
X96190475Y-80762295D01*
X96190475Y-80762295D02*
X96076189Y-80800390D01*
X96076189Y-80800390D02*
X95999999Y-80876580D01*
X95999999Y-80876580D02*
X95961904Y-80952771D01*
X95961904Y-80952771D02*
X95923808Y-81105152D01*
X95923808Y-81105152D02*
X95923808Y-81219438D01*
X95923808Y-81219438D02*
X95961904Y-81371819D01*
X95961904Y-81371819D02*
X95999999Y-81448009D01*
X95999999Y-81448009D02*
X96076189Y-81524200D01*
X96076189Y-81524200D02*
X96190475Y-81562295D01*
X96190475Y-81562295D02*
X96380951Y-81562295D01*
X95047618Y-80762295D02*
X94552380Y-80762295D01*
X94552380Y-80762295D02*
X94819046Y-81067057D01*
X94819046Y-81067057D02*
X94704761Y-81067057D01*
X94704761Y-81067057D02*
X94628570Y-81105152D01*
X94628570Y-81105152D02*
X94590475Y-81143247D01*
X94590475Y-81143247D02*
X94552380Y-81219438D01*
X94552380Y-81219438D02*
X94552380Y-81409914D01*
X94552380Y-81409914D02*
X94590475Y-81486104D01*
X94590475Y-81486104D02*
X94628570Y-81524200D01*
X94628570Y-81524200D02*
X94704761Y-81562295D01*
X94704761Y-81562295D02*
X94933332Y-81562295D01*
X94933332Y-81562295D02*
X95009523Y-81524200D01*
X95009523Y-81524200D02*
X95047618Y-81486104D01*
X94209522Y-81486104D02*
X94171427Y-81524200D01*
X94171427Y-81524200D02*
X94209522Y-81562295D01*
X94209522Y-81562295D02*
X94247618Y-81524200D01*
X94247618Y-81524200D02*
X94209522Y-81486104D01*
X94209522Y-81486104D02*
X94209522Y-81562295D01*
X93409523Y-81562295D02*
X93866666Y-81562295D01*
X93638094Y-81562295D02*
X93638094Y-80762295D01*
X93638094Y-80762295D02*
X93714285Y-80876580D01*
X93714285Y-80876580D02*
X93790475Y-80952771D01*
X93790475Y-80952771D02*
X93866666Y-80990866D01*
X92457141Y-81143247D02*
X92190475Y-81143247D01*
X92076189Y-81562295D02*
X92457141Y-81562295D01*
X92457141Y-81562295D02*
X92457141Y-80762295D01*
X92457141Y-80762295D02*
X92076189Y-80762295D01*
X91733331Y-81562295D02*
X91733331Y-80762295D01*
X91733331Y-80762295D02*
X91428569Y-80762295D01*
X91428569Y-80762295D02*
X91352379Y-80800390D01*
X91352379Y-80800390D02*
X91314284Y-80838485D01*
X91314284Y-80838485D02*
X91276188Y-80914676D01*
X91276188Y-80914676D02*
X91276188Y-81028961D01*
X91276188Y-81028961D02*
X91314284Y-81105152D01*
X91314284Y-81105152D02*
X91352379Y-81143247D01*
X91352379Y-81143247D02*
X91428569Y-81181342D01*
X91428569Y-81181342D02*
X91733331Y-81181342D01*
X90476188Y-81562295D02*
X90742855Y-81181342D01*
X90933331Y-81562295D02*
X90933331Y-80762295D01*
X90933331Y-80762295D02*
X90628569Y-80762295D01*
X90628569Y-80762295D02*
X90552379Y-80800390D01*
X90552379Y-80800390D02*
X90514284Y-80838485D01*
X90514284Y-80838485D02*
X90476188Y-80914676D01*
X90476188Y-80914676D02*
X90476188Y-81028961D01*
X90476188Y-81028961D02*
X90514284Y-81105152D01*
X90514284Y-81105152D02*
X90552379Y-81143247D01*
X90552379Y-81143247D02*
X90628569Y-81181342D01*
X90628569Y-81181342D02*
X90933331Y-81181342D01*
X89409522Y-81219438D02*
X89447617Y-81257533D01*
X89447617Y-81257533D02*
X89409522Y-81295628D01*
X89409522Y-81295628D02*
X89371426Y-81257533D01*
X89371426Y-81257533D02*
X89409522Y-81219438D01*
X89409522Y-81219438D02*
X89409522Y-81295628D01*
X88304759Y-81562295D02*
X88304759Y-81028961D01*
X88304759Y-81181342D02*
X88266664Y-81105152D01*
X88266664Y-81105152D02*
X88228569Y-81067057D01*
X88228569Y-81067057D02*
X88152378Y-81028961D01*
X88152378Y-81028961D02*
X88076188Y-81028961D01*
X87657140Y-80762295D02*
X87580950Y-80762295D01*
X87580950Y-80762295D02*
X87504759Y-80800390D01*
X87504759Y-80800390D02*
X87466664Y-80838485D01*
X87466664Y-80838485D02*
X87428569Y-80914676D01*
X87428569Y-80914676D02*
X87390474Y-81067057D01*
X87390474Y-81067057D02*
X87390474Y-81257533D01*
X87390474Y-81257533D02*
X87428569Y-81409914D01*
X87428569Y-81409914D02*
X87466664Y-81486104D01*
X87466664Y-81486104D02*
X87504759Y-81524200D01*
X87504759Y-81524200D02*
X87580950Y-81562295D01*
X87580950Y-81562295D02*
X87657140Y-81562295D01*
X87657140Y-81562295D02*
X87733331Y-81524200D01*
X87733331Y-81524200D02*
X87771426Y-81486104D01*
X87771426Y-81486104D02*
X87809521Y-81409914D01*
X87809521Y-81409914D02*
X87847617Y-81257533D01*
X87847617Y-81257533D02*
X87847617Y-81067057D01*
X87847617Y-81067057D02*
X87809521Y-80914676D01*
X87809521Y-80914676D02*
X87771426Y-80838485D01*
X87771426Y-80838485D02*
X87733331Y-80800390D01*
X87733331Y-80800390D02*
X87657140Y-80762295D01*
X87047616Y-81486104D02*
X87009521Y-81524200D01*
X87009521Y-81524200D02*
X87047616Y-81562295D01*
X87047616Y-81562295D02*
X87085712Y-81524200D01*
X87085712Y-81524200D02*
X87047616Y-81486104D01*
X87047616Y-81486104D02*
X87047616Y-81562295D01*
X86323807Y-81028961D02*
X86323807Y-81562295D01*
X86514283Y-80724200D02*
X86704760Y-81295628D01*
X86704760Y-81295628D02*
X86209521Y-81295628D01*
X85295235Y-81143247D02*
X85028569Y-81143247D01*
X84914283Y-81562295D02*
X85295235Y-81562295D01*
X85295235Y-81562295D02*
X85295235Y-80762295D01*
X85295235Y-80762295D02*
X84914283Y-80762295D01*
X84114282Y-81486104D02*
X84152378Y-81524200D01*
X84152378Y-81524200D02*
X84266663Y-81562295D01*
X84266663Y-81562295D02*
X84342854Y-81562295D01*
X84342854Y-81562295D02*
X84457140Y-81524200D01*
X84457140Y-81524200D02*
X84533330Y-81448009D01*
X84533330Y-81448009D02*
X84571425Y-81371819D01*
X84571425Y-81371819D02*
X84609521Y-81219438D01*
X84609521Y-81219438D02*
X84609521Y-81105152D01*
X84609521Y-81105152D02*
X84571425Y-80952771D01*
X84571425Y-80952771D02*
X84533330Y-80876580D01*
X84533330Y-80876580D02*
X84457140Y-80800390D01*
X84457140Y-80800390D02*
X84342854Y-80762295D01*
X84342854Y-80762295D02*
X84266663Y-80762295D01*
X84266663Y-80762295D02*
X84152378Y-80800390D01*
X84152378Y-80800390D02*
X84114282Y-80838485D01*
X83619044Y-80762295D02*
X83466663Y-80762295D01*
X83466663Y-80762295D02*
X83390473Y-80800390D01*
X83390473Y-80800390D02*
X83314282Y-80876580D01*
X83314282Y-80876580D02*
X83276187Y-81028961D01*
X83276187Y-81028961D02*
X83276187Y-81295628D01*
X83276187Y-81295628D02*
X83314282Y-81448009D01*
X83314282Y-81448009D02*
X83390473Y-81524200D01*
X83390473Y-81524200D02*
X83466663Y-81562295D01*
X83466663Y-81562295D02*
X83619044Y-81562295D01*
X83619044Y-81562295D02*
X83695235Y-81524200D01*
X83695235Y-81524200D02*
X83771425Y-81448009D01*
X83771425Y-81448009D02*
X83809521Y-81295628D01*
X83809521Y-81295628D02*
X83809521Y-81028961D01*
X83809521Y-81028961D02*
X83771425Y-80876580D01*
X83771425Y-80876580D02*
X83695235Y-80800390D01*
X83695235Y-80800390D02*
X83619044Y-80762295D01*
X106300000Y-88508557D02*
X106300000Y-87608557D01*
X106300000Y-87608557D02*
X106000000Y-88251414D01*
X106000000Y-88251414D02*
X105700000Y-87608557D01*
X105700000Y-87608557D02*
X105700000Y-88508557D01*
X104885715Y-88508557D02*
X104885715Y-88037128D01*
X104885715Y-88037128D02*
X104928572Y-87951414D01*
X104928572Y-87951414D02*
X105014286Y-87908557D01*
X105014286Y-87908557D02*
X105185715Y-87908557D01*
X105185715Y-87908557D02*
X105271429Y-87951414D01*
X104885715Y-88465700D02*
X104971429Y-88508557D01*
X104971429Y-88508557D02*
X105185715Y-88508557D01*
X105185715Y-88508557D02*
X105271429Y-88465700D01*
X105271429Y-88465700D02*
X105314286Y-88379985D01*
X105314286Y-88379985D02*
X105314286Y-88294271D01*
X105314286Y-88294271D02*
X105271429Y-88208557D01*
X105271429Y-88208557D02*
X105185715Y-88165700D01*
X105185715Y-88165700D02*
X104971429Y-88165700D01*
X104971429Y-88165700D02*
X104885715Y-88122842D01*
X104071429Y-88508557D02*
X104071429Y-87608557D01*
X104071429Y-88465700D02*
X104157143Y-88508557D01*
X104157143Y-88508557D02*
X104328571Y-88508557D01*
X104328571Y-88508557D02*
X104414286Y-88465700D01*
X104414286Y-88465700D02*
X104457143Y-88422842D01*
X104457143Y-88422842D02*
X104500000Y-88337128D01*
X104500000Y-88337128D02*
X104500000Y-88079985D01*
X104500000Y-88079985D02*
X104457143Y-87994271D01*
X104457143Y-87994271D02*
X104414286Y-87951414D01*
X104414286Y-87951414D02*
X104328571Y-87908557D01*
X104328571Y-87908557D02*
X104157143Y-87908557D01*
X104157143Y-87908557D02*
X104071429Y-87951414D01*
X103300000Y-88465700D02*
X103385714Y-88508557D01*
X103385714Y-88508557D02*
X103557143Y-88508557D01*
X103557143Y-88508557D02*
X103642857Y-88465700D01*
X103642857Y-88465700D02*
X103685714Y-88379985D01*
X103685714Y-88379985D02*
X103685714Y-88037128D01*
X103685714Y-88037128D02*
X103642857Y-87951414D01*
X103642857Y-87951414D02*
X103557143Y-87908557D01*
X103557143Y-87908557D02*
X103385714Y-87908557D01*
X103385714Y-87908557D02*
X103300000Y-87951414D01*
X103300000Y-87951414D02*
X103257143Y-88037128D01*
X103257143Y-88037128D02*
X103257143Y-88122842D01*
X103257143Y-88122842D02*
X103685714Y-88208557D01*
X102271428Y-87908557D02*
X102100000Y-88508557D01*
X102100000Y-88508557D02*
X101928571Y-88079985D01*
X101928571Y-88079985D02*
X101757142Y-88508557D01*
X101757142Y-88508557D02*
X101585714Y-87908557D01*
X101242857Y-88508557D02*
X101242857Y-87908557D01*
X101242857Y-87608557D02*
X101285714Y-87651414D01*
X101285714Y-87651414D02*
X101242857Y-87694271D01*
X101242857Y-87694271D02*
X101200000Y-87651414D01*
X101200000Y-87651414D02*
X101242857Y-87608557D01*
X101242857Y-87608557D02*
X101242857Y-87694271D01*
X100942857Y-87908557D02*
X100600000Y-87908557D01*
X100814286Y-87608557D02*
X100814286Y-88379985D01*
X100814286Y-88379985D02*
X100771429Y-88465700D01*
X100771429Y-88465700D02*
X100685714Y-88508557D01*
X100685714Y-88508557D02*
X100600000Y-88508557D01*
X100300000Y-88508557D02*
X100300000Y-87608557D01*
X99914286Y-88508557D02*
X99914286Y-88037128D01*
X99914286Y-88037128D02*
X99957143Y-87951414D01*
X99957143Y-87951414D02*
X100042857Y-87908557D01*
X100042857Y-87908557D02*
X100171428Y-87908557D01*
X100171428Y-87908557D02*
X100257143Y-87951414D01*
X100257143Y-87951414D02*
X100300000Y-87994271D01*
X98928571Y-87908557D02*
X98585714Y-87908557D01*
X98800000Y-87608557D02*
X98800000Y-88379985D01*
X98800000Y-88379985D02*
X98757143Y-88465700D01*
X98757143Y-88465700D02*
X98671428Y-88508557D01*
X98671428Y-88508557D02*
X98585714Y-88508557D01*
X98328571Y-88465700D02*
X98242857Y-88508557D01*
X98242857Y-88508557D02*
X98071428Y-88508557D01*
X98071428Y-88508557D02*
X97985714Y-88465700D01*
X97985714Y-88465700D02*
X97942857Y-88379985D01*
X97942857Y-88379985D02*
X97942857Y-88337128D01*
X97942857Y-88337128D02*
X97985714Y-88251414D01*
X97985714Y-88251414D02*
X98071428Y-88208557D01*
X98071428Y-88208557D02*
X98200000Y-88208557D01*
X98200000Y-88208557D02*
X98285714Y-88165700D01*
X98285714Y-88165700D02*
X98328571Y-88079985D01*
X98328571Y-88079985D02*
X98328571Y-88037128D01*
X98328571Y-88037128D02*
X98285714Y-87951414D01*
X98285714Y-87951414D02*
X98200000Y-87908557D01*
X98200000Y-87908557D02*
X98071428Y-87908557D01*
X98071428Y-87908557D02*
X97985714Y-87951414D01*
X97171429Y-88465700D02*
X97257143Y-88508557D01*
X97257143Y-88508557D02*
X97428571Y-88508557D01*
X97428571Y-88508557D02*
X97514286Y-88465700D01*
X97514286Y-88465700D02*
X97557143Y-88422842D01*
X97557143Y-88422842D02*
X97600000Y-88337128D01*
X97600000Y-88337128D02*
X97600000Y-88079985D01*
X97600000Y-88079985D02*
X97557143Y-87994271D01*
X97557143Y-87994271D02*
X97514286Y-87951414D01*
X97514286Y-87951414D02*
X97428571Y-87908557D01*
X97428571Y-87908557D02*
X97257143Y-87908557D01*
X97257143Y-87908557D02*
X97171429Y-87951414D01*
X96785714Y-88508557D02*
X96785714Y-87908557D01*
X96785714Y-87608557D02*
X96828571Y-87651414D01*
X96828571Y-87651414D02*
X96785714Y-87694271D01*
X96785714Y-87694271D02*
X96742857Y-87651414D01*
X96742857Y-87651414D02*
X96785714Y-87608557D01*
X96785714Y-87608557D02*
X96785714Y-87694271D01*
X96357143Y-88508557D02*
X96357143Y-87908557D01*
X96357143Y-88079985D02*
X96314286Y-87994271D01*
X96314286Y-87994271D02*
X96271429Y-87951414D01*
X96271429Y-87951414D02*
X96185714Y-87908557D01*
X96185714Y-87908557D02*
X96100000Y-87908557D01*
X95414286Y-88465700D02*
X95500000Y-88508557D01*
X95500000Y-88508557D02*
X95671428Y-88508557D01*
X95671428Y-88508557D02*
X95757143Y-88465700D01*
X95757143Y-88465700D02*
X95800000Y-88422842D01*
X95800000Y-88422842D02*
X95842857Y-88337128D01*
X95842857Y-88337128D02*
X95842857Y-88079985D01*
X95842857Y-88079985D02*
X95800000Y-87994271D01*
X95800000Y-87994271D02*
X95757143Y-87951414D01*
X95757143Y-87951414D02*
X95671428Y-87908557D01*
X95671428Y-87908557D02*
X95500000Y-87908557D01*
X95500000Y-87908557D02*
X95414286Y-87951414D01*
X94642857Y-87908557D02*
X94642857Y-88508557D01*
X95028571Y-87908557D02*
X95028571Y-88379985D01*
X95028571Y-88379985D02*
X94985714Y-88465700D01*
X94985714Y-88465700D02*
X94899999Y-88508557D01*
X94899999Y-88508557D02*
X94771428Y-88508557D01*
X94771428Y-88508557D02*
X94685714Y-88465700D01*
X94685714Y-88465700D02*
X94642857Y-88422842D01*
X94214285Y-88508557D02*
X94214285Y-87908557D01*
X94214285Y-87608557D02*
X94257142Y-87651414D01*
X94257142Y-87651414D02*
X94214285Y-87694271D01*
X94214285Y-87694271D02*
X94171428Y-87651414D01*
X94171428Y-87651414D02*
X94214285Y-87608557D01*
X94214285Y-87608557D02*
X94214285Y-87694271D01*
X93914285Y-87908557D02*
X93571428Y-87908557D01*
X93785714Y-87608557D02*
X93785714Y-88379985D01*
X93785714Y-88379985D02*
X93742857Y-88465700D01*
X93742857Y-88465700D02*
X93657142Y-88508557D01*
X93657142Y-88508557D02*
X93571428Y-88508557D01*
D11*
X101428571Y-85094685D02*
X100514285Y-85094685D01*
X101085714Y-84294685D02*
X101085714Y-86351828D01*
X101085714Y-86351828D02*
X100971428Y-86580400D01*
X100971428Y-86580400D02*
X100742857Y-86694685D01*
X100742857Y-86694685D02*
X100514285Y-86694685D01*
X99828571Y-86580400D02*
X99599999Y-86694685D01*
X99599999Y-86694685D02*
X99142856Y-86694685D01*
X99142856Y-86694685D02*
X98914285Y-86580400D01*
X98914285Y-86580400D02*
X98799999Y-86351828D01*
X98799999Y-86351828D02*
X98799999Y-86237542D01*
X98799999Y-86237542D02*
X98914285Y-86008971D01*
X98914285Y-86008971D02*
X99142856Y-85894685D01*
X99142856Y-85894685D02*
X99485714Y-85894685D01*
X99485714Y-85894685D02*
X99714285Y-85780400D01*
X99714285Y-85780400D02*
X99828571Y-85551828D01*
X99828571Y-85551828D02*
X99828571Y-85437542D01*
X99828571Y-85437542D02*
X99714285Y-85208971D01*
X99714285Y-85208971D02*
X99485714Y-85094685D01*
X99485714Y-85094685D02*
X99142856Y-85094685D01*
X99142856Y-85094685D02*
X98914285Y-85208971D01*
%LPC*%
D12*
%TO.C,J1*%
X65064647Y-82109988D03*
X65064647Y-87890012D03*
D13*
X65544454Y-80679968D03*
X65544454Y-89320032D03*
D14*
X61364376Y-89320032D03*
X61364375Y-80679968D03*
%TD*%
D15*
%TO.C,*%
X75500000Y-138400000D03*
%TD*%
%TO.C,*%
X138400000Y-124500000D03*
%TD*%
D16*
%TO.C,J7*%
X106999982Y-139999871D03*
X106999982Y-137999875D03*
X104999986Y-139999871D03*
X104999986Y-137999875D03*
X102999990Y-139999871D03*
X102999990Y-137999875D03*
X100999994Y-139999871D03*
X100999994Y-137999875D03*
X98999998Y-139999871D03*
X98999998Y-137999875D03*
X97000002Y-139999871D03*
X97000002Y-137999875D03*
X95000006Y-139999871D03*
X95000006Y-137999875D03*
X93000010Y-139999871D03*
X93000010Y-137999875D03*
X91000014Y-139999871D03*
X91000014Y-137999875D03*
X89000018Y-139999871D03*
X89000018Y-137999875D03*
%TD*%
D17*
%TO.C,C22*%
X127500005Y-78000000D03*
X132499995Y-78000000D03*
%TD*%
D18*
%TO.C,J3*%
X98019816Y-63500000D03*
D19*
X101980184Y-63500000D03*
%TD*%
D17*
%TO.C,C23*%
X129500005Y-92000000D03*
X134499995Y-92000000D03*
%TD*%
D15*
%TO.C,*%
X61600000Y-75500000D03*
%TD*%
D18*
%TO.C,J2*%
X114059956Y-139000000D03*
D19*
X118020070Y-139000000D03*
X121980184Y-139000000D03*
X125940044Y-139000000D03*
%TD*%
D12*
%TO.C,J10*%
X65064647Y-96109988D03*
X65064647Y-101890012D03*
D13*
X65544454Y-94679968D03*
X65544454Y-103320032D03*
D14*
X61364376Y-103320032D03*
X61364375Y-94679968D03*
%TD*%
D15*
%TO.C,*%
X124500000Y-61600000D03*
%TD*%
%LPD*%
M02*
