%TF.GenerationSoftware,KiCad,Pcbnew,10.0.5*%
%TF.CreationDate,2026-10-09T19:01:07+05:30*%
%TF.ProjectId,pd1180-epr-r0.3,70643131-3830-42d6-9570-722d72302e33,rev?*%
%TF.SameCoordinates,Original*%
%TF.FileFunction,Legend,Top*%
%TF.FilePolarity,Positive*%
%FSLAX46Y46*%
G04 Gerber Fmt 4.6, Leading zero omitted, Abs format (unit mm)*
G04 Created by KiCad (PCBNEW 10.0.5) date 2026-10-09 19:01:07*
%MOMM*%
%LPD*%
G01*
G04 APERTURE LIST*
G04 Aperture macros list*
%AMRoundRect*
0 Rectangle with rounded corners*
0 $1 Rounding radius*
0 $2 $3 $4 $5 $6 $7 $8 $9 X,Y pos of 4 corners*
0 Add a 4 corners polygon primitive as box body*
4,1,4,$2,$3,$4,$5,$6,$7,$8,$9,$2,$3,0*
0 Add four circle primitives for the rounded corners*
1,1,$1+$1,$2,$3*
1,1,$1+$1,$4,$5*
1,1,$1+$1,$6,$7*
1,1,$1+$1,$8,$9*
0 Add four rect primitives between the rounded corners*
20,1,$1+$1,$2,$3,$4,$5,0*
20,1,$1+$1,$4,$5,$6,$7,0*
20,1,$1+$1,$6,$7,$8,$9,0*
20,1,$1+$1,$8,$9,$2,$3,0*%
G04 Aperture macros list end*
%ADD10C,0.150000*%
%ADD11C,0.120000*%
%ADD12C,0.100000*%
%ADD13C,0.254000*%
%ADD14C,0.200000*%
%ADD15C,0.299999*%
%ADD16R,0.800000X0.950000*%
%ADD17R,1.025000X1.400000*%
%ADD18R,1.250010X0.699999*%
%ADD19R,0.950000X0.800000*%
%ADD20R,0.799998X1.321003*%
%ADD21R,4.599991X3.599993*%
%ADD22R,0.899998X0.399999*%
%ADD23C,1.400000*%
%ADD24R,0.950011X1.150010*%
%ADD25RoundRect,0.314998X-0.000010X-0.810006X0.000010X-0.810006X0.000010X0.810006X-0.000010X0.810006X0*%
%ADD26R,0.270002X1.499997*%
%ADD27R,1.499997X0.270002*%
%ADD28R,1.750000X1.125000*%
%ADD29R,0.999998X0.799998*%
%ADD30R,1.099998X0.599999*%
%ADD31R,1.999996X1.999996*%
%ADD32C,0.649986*%
%ADD33O,2.099996X1.099998*%
%ADD34O,1.799996X1.099998*%
%ADD35R,1.150010X0.299999*%
%ADD36R,2.474011X5.020005*%
%ADD37R,1.125000X1.750000*%
%ADD38C,4.200000*%
%ADD39R,1.037488X0.532003*%
%ADD40C,1.524000*%
%ADD41RoundRect,0.301003X-0.000010X-0.684491X0.000010X-0.684491X0.000010X0.684491X-0.000010X0.684491X0*%
%ADD42R,1.999996X3.299993*%
%ADD43R,1.400000X1.025000*%
%ADD44C,2.099996*%
%ADD45R,2.499995X2.499995*%
%ADD46C,2.499995*%
%ADD47R,0.350012X0.850011*%
%ADD48RoundRect,0.294005X-0.000010X-0.605993X0.000010X-0.605993X0.000010X0.605993X-0.000010X0.605993X0*%
%ADD49R,0.250012X0.150114*%
%ADD50R,0.350012X0.499999*%
%ADD51R,1.070000X0.599999*%
%ADD52R,0.999998X0.650011*%
%ADD53RoundRect,0.350000X-0.000010X-0.499998X0.000010X-0.499998X0.000010X0.499998X-0.000010X0.499998X0*%
%ADD54R,3.499993X2.499995*%
%ADD55R,0.200000X0.799998*%
%ADD56R,0.799998X0.200000*%
%ADD57R,1.699997X1.699997*%
%ADD58R,0.299974X0.699999*%
%ADD59R,0.699999X0.299974*%
%ADD60R,2.599995X2.599995*%
%ADD61R,1.229995X1.859991*%
%ADD62RoundRect,0.140005X-0.000010X-0.659993X0.000010X-0.659993X0.000010X0.659993X-0.000010X0.659993X0*%
%ADD63RoundRect,0.140005X-0.659993X-0.000010X0.659993X-0.000010X0.659993X0.000010X-0.659993X0.000010X0*%
%ADD64R,4.999990X4.999990*%
%ADD65R,1.399997X1.199998*%
%ADD66RoundRect,0.100000X-0.000010X-0.249999X0.000010X-0.249999X0.000010X0.249999X-0.000010X0.249999X0*%
%ADD67RoundRect,0.100000X-0.249999X-0.000010X0.249999X-0.000010X0.249999X0.000010X-0.249999X0.000010X0*%
%ADD68R,2.799994X2.799994*%
%ADD69R,0.532003X1.072007*%
%ADD70R,0.399999X1.699997*%
G04 APERTURE END LIST*
D10*
X63009524Y-123062295D02*
X63009524Y-123709914D01*
X63009524Y-123709914D02*
X63047619Y-123786104D01*
X63047619Y-123786104D02*
X63085714Y-123824200D01*
X63085714Y-123824200D02*
X63161905Y-123862295D01*
X63161905Y-123862295D02*
X63314286Y-123862295D01*
X63314286Y-123862295D02*
X63390476Y-123824200D01*
X63390476Y-123824200D02*
X63428571Y-123786104D01*
X63428571Y-123786104D02*
X63466667Y-123709914D01*
X63466667Y-123709914D02*
X63466667Y-123062295D01*
X64266666Y-123862295D02*
X63809523Y-123862295D01*
X64038095Y-123862295D02*
X64038095Y-123062295D01*
X64038095Y-123062295D02*
X63961904Y-123176580D01*
X63961904Y-123176580D02*
X63885714Y-123252771D01*
X63885714Y-123252771D02*
X63809523Y-123290866D01*
X64647619Y-123862295D02*
X64800000Y-123862295D01*
X64800000Y-123862295D02*
X64876190Y-123824200D01*
X64876190Y-123824200D02*
X64914286Y-123786104D01*
X64914286Y-123786104D02*
X64990476Y-123671819D01*
X64990476Y-123671819D02*
X65028571Y-123519438D01*
X65028571Y-123519438D02*
X65028571Y-123214676D01*
X65028571Y-123214676D02*
X64990476Y-123138485D01*
X64990476Y-123138485D02*
X64952381Y-123100390D01*
X64952381Y-123100390D02*
X64876190Y-123062295D01*
X64876190Y-123062295D02*
X64723809Y-123062295D01*
X64723809Y-123062295D02*
X64647619Y-123100390D01*
X64647619Y-123100390D02*
X64609524Y-123138485D01*
X64609524Y-123138485D02*
X64571428Y-123214676D01*
X64571428Y-123214676D02*
X64571428Y-123405152D01*
X64571428Y-123405152D02*
X64609524Y-123481342D01*
X64609524Y-123481342D02*
X64647619Y-123519438D01*
X64647619Y-123519438D02*
X64723809Y-123557533D01*
X64723809Y-123557533D02*
X64876190Y-123557533D01*
X64876190Y-123557533D02*
X64952381Y-123519438D01*
X64952381Y-123519438D02*
X64990476Y-123481342D01*
X64990476Y-123481342D02*
X65028571Y-123405152D01*
X63509524Y-110062295D02*
X63509524Y-110709914D01*
X63509524Y-110709914D02*
X63547619Y-110786104D01*
X63547619Y-110786104D02*
X63585714Y-110824200D01*
X63585714Y-110824200D02*
X63661905Y-110862295D01*
X63661905Y-110862295D02*
X63814286Y-110862295D01*
X63814286Y-110862295D02*
X63890476Y-110824200D01*
X63890476Y-110824200D02*
X63928571Y-110786104D01*
X63928571Y-110786104D02*
X63966667Y-110709914D01*
X63966667Y-110709914D02*
X63966667Y-110062295D01*
X64309523Y-110138485D02*
X64347619Y-110100390D01*
X64347619Y-110100390D02*
X64423809Y-110062295D01*
X64423809Y-110062295D02*
X64614285Y-110062295D01*
X64614285Y-110062295D02*
X64690476Y-110100390D01*
X64690476Y-110100390D02*
X64728571Y-110138485D01*
X64728571Y-110138485D02*
X64766666Y-110214676D01*
X64766666Y-110214676D02*
X64766666Y-110290866D01*
X64766666Y-110290866D02*
X64728571Y-110405152D01*
X64728571Y-110405152D02*
X64271428Y-110862295D01*
X64271428Y-110862295D02*
X64766666Y-110862295D01*
X65528571Y-110862295D02*
X65071428Y-110862295D01*
X65300000Y-110862295D02*
X65300000Y-110062295D01*
X65300000Y-110062295D02*
X65223809Y-110176580D01*
X65223809Y-110176580D02*
X65147619Y-110252771D01*
X65147619Y-110252771D02*
X65071428Y-110290866D01*
X67890476Y-91562295D02*
X67890476Y-92209914D01*
X67890476Y-92209914D02*
X67928571Y-92286104D01*
X67928571Y-92286104D02*
X67966666Y-92324200D01*
X67966666Y-92324200D02*
X68042857Y-92362295D01*
X68042857Y-92362295D02*
X68195238Y-92362295D01*
X68195238Y-92362295D02*
X68271428Y-92324200D01*
X68271428Y-92324200D02*
X68309523Y-92286104D01*
X68309523Y-92286104D02*
X68347619Y-92209914D01*
X68347619Y-92209914D02*
X68347619Y-91562295D01*
X69109523Y-91562295D02*
X68728571Y-91562295D01*
X68728571Y-91562295D02*
X68690475Y-91943247D01*
X68690475Y-91943247D02*
X68728571Y-91905152D01*
X68728571Y-91905152D02*
X68804761Y-91867057D01*
X68804761Y-91867057D02*
X68995237Y-91867057D01*
X68995237Y-91867057D02*
X69071428Y-91905152D01*
X69071428Y-91905152D02*
X69109523Y-91943247D01*
X69109523Y-91943247D02*
X69147618Y-92019438D01*
X69147618Y-92019438D02*
X69147618Y-92209914D01*
X69147618Y-92209914D02*
X69109523Y-92286104D01*
X69109523Y-92286104D02*
X69071428Y-92324200D01*
X69071428Y-92324200D02*
X68995237Y-92362295D01*
X68995237Y-92362295D02*
X68804761Y-92362295D01*
X68804761Y-92362295D02*
X68728571Y-92324200D01*
X68728571Y-92324200D02*
X68690475Y-92286104D01*
X69390476Y-77962295D02*
X69390476Y-78609914D01*
X69390476Y-78609914D02*
X69428571Y-78686104D01*
X69428571Y-78686104D02*
X69466666Y-78724200D01*
X69466666Y-78724200D02*
X69542857Y-78762295D01*
X69542857Y-78762295D02*
X69695238Y-78762295D01*
X69695238Y-78762295D02*
X69771428Y-78724200D01*
X69771428Y-78724200D02*
X69809523Y-78686104D01*
X69809523Y-78686104D02*
X69847619Y-78609914D01*
X69847619Y-78609914D02*
X69847619Y-77962295D01*
X70647618Y-78762295D02*
X70190475Y-78762295D01*
X70419047Y-78762295D02*
X70419047Y-77962295D01*
X70419047Y-77962295D02*
X70342856Y-78076580D01*
X70342856Y-78076580D02*
X70266666Y-78152771D01*
X70266666Y-78152771D02*
X70190475Y-78190866D01*
X72140476Y-75812295D02*
X72140476Y-76459914D01*
X72140476Y-76459914D02*
X72178571Y-76536104D01*
X72178571Y-76536104D02*
X72216666Y-76574200D01*
X72216666Y-76574200D02*
X72292857Y-76612295D01*
X72292857Y-76612295D02*
X72445238Y-76612295D01*
X72445238Y-76612295D02*
X72521428Y-76574200D01*
X72521428Y-76574200D02*
X72559523Y-76536104D01*
X72559523Y-76536104D02*
X72597619Y-76459914D01*
X72597619Y-76459914D02*
X72597619Y-75812295D01*
X72940475Y-75888485D02*
X72978571Y-75850390D01*
X72978571Y-75850390D02*
X73054761Y-75812295D01*
X73054761Y-75812295D02*
X73245237Y-75812295D01*
X73245237Y-75812295D02*
X73321428Y-75850390D01*
X73321428Y-75850390D02*
X73359523Y-75888485D01*
X73359523Y-75888485D02*
X73397618Y-75964676D01*
X73397618Y-75964676D02*
X73397618Y-76040866D01*
X73397618Y-76040866D02*
X73359523Y-76155152D01*
X73359523Y-76155152D02*
X72902380Y-76612295D01*
X72902380Y-76612295D02*
X73397618Y-76612295D01*
X77640476Y-65562295D02*
X77640476Y-66209914D01*
X77640476Y-66209914D02*
X77678571Y-66286104D01*
X77678571Y-66286104D02*
X77716666Y-66324200D01*
X77716666Y-66324200D02*
X77792857Y-66362295D01*
X77792857Y-66362295D02*
X77945238Y-66362295D01*
X77945238Y-66362295D02*
X78021428Y-66324200D01*
X78021428Y-66324200D02*
X78059523Y-66286104D01*
X78059523Y-66286104D02*
X78097619Y-66209914D01*
X78097619Y-66209914D02*
X78097619Y-65562295D01*
X78402380Y-65562295D02*
X78897618Y-65562295D01*
X78897618Y-65562295D02*
X78630952Y-65867057D01*
X78630952Y-65867057D02*
X78745237Y-65867057D01*
X78745237Y-65867057D02*
X78821428Y-65905152D01*
X78821428Y-65905152D02*
X78859523Y-65943247D01*
X78859523Y-65943247D02*
X78897618Y-66019438D01*
X78897618Y-66019438D02*
X78897618Y-66209914D01*
X78897618Y-66209914D02*
X78859523Y-66286104D01*
X78859523Y-66286104D02*
X78821428Y-66324200D01*
X78821428Y-66324200D02*
X78745237Y-66362295D01*
X78745237Y-66362295D02*
X78516666Y-66362295D01*
X78516666Y-66362295D02*
X78440475Y-66324200D01*
X78440475Y-66324200D02*
X78402380Y-66286104D01*
X79009524Y-105812295D02*
X79009524Y-106459914D01*
X79009524Y-106459914D02*
X79047619Y-106536104D01*
X79047619Y-106536104D02*
X79085714Y-106574200D01*
X79085714Y-106574200D02*
X79161905Y-106612295D01*
X79161905Y-106612295D02*
X79314286Y-106612295D01*
X79314286Y-106612295D02*
X79390476Y-106574200D01*
X79390476Y-106574200D02*
X79428571Y-106536104D01*
X79428571Y-106536104D02*
X79466667Y-106459914D01*
X79466667Y-106459914D02*
X79466667Y-105812295D01*
X80266666Y-106612295D02*
X79809523Y-106612295D01*
X80038095Y-106612295D02*
X80038095Y-105812295D01*
X80038095Y-105812295D02*
X79961904Y-105926580D01*
X79961904Y-105926580D02*
X79885714Y-106002771D01*
X79885714Y-106002771D02*
X79809523Y-106040866D01*
X80952381Y-105812295D02*
X80800000Y-105812295D01*
X80800000Y-105812295D02*
X80723809Y-105850390D01*
X80723809Y-105850390D02*
X80685714Y-105888485D01*
X80685714Y-105888485D02*
X80609524Y-106002771D01*
X80609524Y-106002771D02*
X80571428Y-106155152D01*
X80571428Y-106155152D02*
X80571428Y-106459914D01*
X80571428Y-106459914D02*
X80609524Y-106536104D01*
X80609524Y-106536104D02*
X80647619Y-106574200D01*
X80647619Y-106574200D02*
X80723809Y-106612295D01*
X80723809Y-106612295D02*
X80876190Y-106612295D01*
X80876190Y-106612295D02*
X80952381Y-106574200D01*
X80952381Y-106574200D02*
X80990476Y-106536104D01*
X80990476Y-106536104D02*
X81028571Y-106459914D01*
X81028571Y-106459914D02*
X81028571Y-106269438D01*
X81028571Y-106269438D02*
X80990476Y-106193247D01*
X80990476Y-106193247D02*
X80952381Y-106155152D01*
X80952381Y-106155152D02*
X80876190Y-106117057D01*
X80876190Y-106117057D02*
X80723809Y-106117057D01*
X80723809Y-106117057D02*
X80647619Y-106155152D01*
X80647619Y-106155152D02*
X80609524Y-106193247D01*
X80609524Y-106193247D02*
X80571428Y-106269438D01*
X80009524Y-99562295D02*
X80009524Y-100209914D01*
X80009524Y-100209914D02*
X80047619Y-100286104D01*
X80047619Y-100286104D02*
X80085714Y-100324200D01*
X80085714Y-100324200D02*
X80161905Y-100362295D01*
X80161905Y-100362295D02*
X80314286Y-100362295D01*
X80314286Y-100362295D02*
X80390476Y-100324200D01*
X80390476Y-100324200D02*
X80428571Y-100286104D01*
X80428571Y-100286104D02*
X80466667Y-100209914D01*
X80466667Y-100209914D02*
X80466667Y-99562295D01*
X80809523Y-99638485D02*
X80847619Y-99600390D01*
X80847619Y-99600390D02*
X80923809Y-99562295D01*
X80923809Y-99562295D02*
X81114285Y-99562295D01*
X81114285Y-99562295D02*
X81190476Y-99600390D01*
X81190476Y-99600390D02*
X81228571Y-99638485D01*
X81228571Y-99638485D02*
X81266666Y-99714676D01*
X81266666Y-99714676D02*
X81266666Y-99790866D01*
X81266666Y-99790866D02*
X81228571Y-99905152D01*
X81228571Y-99905152D02*
X80771428Y-100362295D01*
X80771428Y-100362295D02*
X81266666Y-100362295D01*
X81533333Y-99562295D02*
X82028571Y-99562295D01*
X82028571Y-99562295D02*
X81761905Y-99867057D01*
X81761905Y-99867057D02*
X81876190Y-99867057D01*
X81876190Y-99867057D02*
X81952381Y-99905152D01*
X81952381Y-99905152D02*
X81990476Y-99943247D01*
X81990476Y-99943247D02*
X82028571Y-100019438D01*
X82028571Y-100019438D02*
X82028571Y-100209914D01*
X82028571Y-100209914D02*
X81990476Y-100286104D01*
X81990476Y-100286104D02*
X81952381Y-100324200D01*
X81952381Y-100324200D02*
X81876190Y-100362295D01*
X81876190Y-100362295D02*
X81647619Y-100362295D01*
X81647619Y-100362295D02*
X81571428Y-100324200D01*
X81571428Y-100324200D02*
X81533333Y-100286104D01*
X80259524Y-125562295D02*
X80259524Y-126209914D01*
X80259524Y-126209914D02*
X80297619Y-126286104D01*
X80297619Y-126286104D02*
X80335714Y-126324200D01*
X80335714Y-126324200D02*
X80411905Y-126362295D01*
X80411905Y-126362295D02*
X80564286Y-126362295D01*
X80564286Y-126362295D02*
X80640476Y-126324200D01*
X80640476Y-126324200D02*
X80678571Y-126286104D01*
X80678571Y-126286104D02*
X80716667Y-126209914D01*
X80716667Y-126209914D02*
X80716667Y-125562295D01*
X81059523Y-125638485D02*
X81097619Y-125600390D01*
X81097619Y-125600390D02*
X81173809Y-125562295D01*
X81173809Y-125562295D02*
X81364285Y-125562295D01*
X81364285Y-125562295D02*
X81440476Y-125600390D01*
X81440476Y-125600390D02*
X81478571Y-125638485D01*
X81478571Y-125638485D02*
X81516666Y-125714676D01*
X81516666Y-125714676D02*
X81516666Y-125790866D01*
X81516666Y-125790866D02*
X81478571Y-125905152D01*
X81478571Y-125905152D02*
X81021428Y-126362295D01*
X81021428Y-126362295D02*
X81516666Y-126362295D01*
X82011905Y-125562295D02*
X82088095Y-125562295D01*
X82088095Y-125562295D02*
X82164286Y-125600390D01*
X82164286Y-125600390D02*
X82202381Y-125638485D01*
X82202381Y-125638485D02*
X82240476Y-125714676D01*
X82240476Y-125714676D02*
X82278571Y-125867057D01*
X82278571Y-125867057D02*
X82278571Y-126057533D01*
X82278571Y-126057533D02*
X82240476Y-126209914D01*
X82240476Y-126209914D02*
X82202381Y-126286104D01*
X82202381Y-126286104D02*
X82164286Y-126324200D01*
X82164286Y-126324200D02*
X82088095Y-126362295D01*
X82088095Y-126362295D02*
X82011905Y-126362295D01*
X82011905Y-126362295D02*
X81935714Y-126324200D01*
X81935714Y-126324200D02*
X81897619Y-126286104D01*
X81897619Y-126286104D02*
X81859524Y-126209914D01*
X81859524Y-126209914D02*
X81821428Y-126057533D01*
X81821428Y-126057533D02*
X81821428Y-125867057D01*
X81821428Y-125867057D02*
X81859524Y-125714676D01*
X81859524Y-125714676D02*
X81897619Y-125638485D01*
X81897619Y-125638485D02*
X81935714Y-125600390D01*
X81935714Y-125600390D02*
X82011905Y-125562295D01*
X80933332Y-138824200D02*
X81047618Y-138862295D01*
X81047618Y-138862295D02*
X81238094Y-138862295D01*
X81238094Y-138862295D02*
X81314285Y-138824200D01*
X81314285Y-138824200D02*
X81352380Y-138786104D01*
X81352380Y-138786104D02*
X81390475Y-138709914D01*
X81390475Y-138709914D02*
X81390475Y-138633723D01*
X81390475Y-138633723D02*
X81352380Y-138557533D01*
X81352380Y-138557533D02*
X81314285Y-138519438D01*
X81314285Y-138519438D02*
X81238094Y-138481342D01*
X81238094Y-138481342D02*
X81085713Y-138443247D01*
X81085713Y-138443247D02*
X81009523Y-138405152D01*
X81009523Y-138405152D02*
X80971428Y-138367057D01*
X80971428Y-138367057D02*
X80933332Y-138290866D01*
X80933332Y-138290866D02*
X80933332Y-138214676D01*
X80933332Y-138214676D02*
X80971428Y-138138485D01*
X80971428Y-138138485D02*
X81009523Y-138100390D01*
X81009523Y-138100390D02*
X81085713Y-138062295D01*
X81085713Y-138062295D02*
X81276190Y-138062295D01*
X81276190Y-138062295D02*
X81390475Y-138100390D01*
X81657142Y-138062295D02*
X81847618Y-138862295D01*
X81847618Y-138862295D02*
X81999999Y-138290866D01*
X81999999Y-138290866D02*
X82152380Y-138862295D01*
X82152380Y-138862295D02*
X82342857Y-138062295D01*
X83066666Y-138862295D02*
X82609523Y-138862295D01*
X82838095Y-138862295D02*
X82838095Y-138062295D01*
X82838095Y-138062295D02*
X82761904Y-138176580D01*
X82761904Y-138176580D02*
X82685714Y-138252771D01*
X82685714Y-138252771D02*
X82609523Y-138290866D01*
X79757141Y-132324200D02*
X79871427Y-132362295D01*
X79871427Y-132362295D02*
X80061903Y-132362295D01*
X80061903Y-132362295D02*
X80138094Y-132324200D01*
X80138094Y-132324200D02*
X80176189Y-132286104D01*
X80176189Y-132286104D02*
X80214284Y-132209914D01*
X80214284Y-132209914D02*
X80214284Y-132133723D01*
X80214284Y-132133723D02*
X80176189Y-132057533D01*
X80176189Y-132057533D02*
X80138094Y-132019438D01*
X80138094Y-132019438D02*
X80061903Y-131981342D01*
X80061903Y-131981342D02*
X79909522Y-131943247D01*
X79909522Y-131943247D02*
X79833332Y-131905152D01*
X79833332Y-131905152D02*
X79795237Y-131867057D01*
X79795237Y-131867057D02*
X79757141Y-131790866D01*
X79757141Y-131790866D02*
X79757141Y-131714676D01*
X79757141Y-131714676D02*
X79795237Y-131638485D01*
X79795237Y-131638485D02*
X79833332Y-131600390D01*
X79833332Y-131600390D02*
X79909522Y-131562295D01*
X79909522Y-131562295D02*
X80099999Y-131562295D01*
X80099999Y-131562295D02*
X80214284Y-131600390D01*
X80480951Y-131562295D02*
X80671427Y-132362295D01*
X80671427Y-132362295D02*
X80823808Y-131790866D01*
X80823808Y-131790866D02*
X80976189Y-132362295D01*
X80976189Y-132362295D02*
X81166666Y-131562295D01*
X81471428Y-132362295D02*
X81471428Y-131562295D01*
X81471428Y-131562295D02*
X81661904Y-131562295D01*
X81661904Y-131562295D02*
X81776190Y-131600390D01*
X81776190Y-131600390D02*
X81852380Y-131676580D01*
X81852380Y-131676580D02*
X81890475Y-131752771D01*
X81890475Y-131752771D02*
X81928571Y-131905152D01*
X81928571Y-131905152D02*
X81928571Y-132019438D01*
X81928571Y-132019438D02*
X81890475Y-132171819D01*
X81890475Y-132171819D02*
X81852380Y-132248009D01*
X81852380Y-132248009D02*
X81776190Y-132324200D01*
X81776190Y-132324200D02*
X81661904Y-132362295D01*
X81661904Y-132362295D02*
X81471428Y-132362295D01*
X82766666Y-131562295D02*
X83223809Y-131562295D01*
X82995237Y-132362295D02*
X82995237Y-131562295D01*
X83490476Y-131943247D02*
X83757142Y-131943247D01*
X83871428Y-132362295D02*
X83490476Y-132362295D01*
X83490476Y-132362295D02*
X83490476Y-131562295D01*
X83490476Y-131562295D02*
X83871428Y-131562295D01*
X84176190Y-132324200D02*
X84290476Y-132362295D01*
X84290476Y-132362295D02*
X84480952Y-132362295D01*
X84480952Y-132362295D02*
X84557143Y-132324200D01*
X84557143Y-132324200D02*
X84595238Y-132286104D01*
X84595238Y-132286104D02*
X84633333Y-132209914D01*
X84633333Y-132209914D02*
X84633333Y-132133723D01*
X84633333Y-132133723D02*
X84595238Y-132057533D01*
X84595238Y-132057533D02*
X84557143Y-132019438D01*
X84557143Y-132019438D02*
X84480952Y-131981342D01*
X84480952Y-131981342D02*
X84328571Y-131943247D01*
X84328571Y-131943247D02*
X84252381Y-131905152D01*
X84252381Y-131905152D02*
X84214286Y-131867057D01*
X84214286Y-131867057D02*
X84176190Y-131790866D01*
X84176190Y-131790866D02*
X84176190Y-131714676D01*
X84176190Y-131714676D02*
X84214286Y-131638485D01*
X84214286Y-131638485D02*
X84252381Y-131600390D01*
X84252381Y-131600390D02*
X84328571Y-131562295D01*
X84328571Y-131562295D02*
X84519048Y-131562295D01*
X84519048Y-131562295D02*
X84633333Y-131600390D01*
X84861905Y-131562295D02*
X85319048Y-131562295D01*
X85090476Y-132362295D02*
X85090476Y-131562295D01*
X82759524Y-125562295D02*
X82759524Y-126209914D01*
X82759524Y-126209914D02*
X82797619Y-126286104D01*
X82797619Y-126286104D02*
X82835714Y-126324200D01*
X82835714Y-126324200D02*
X82911905Y-126362295D01*
X82911905Y-126362295D02*
X83064286Y-126362295D01*
X83064286Y-126362295D02*
X83140476Y-126324200D01*
X83140476Y-126324200D02*
X83178571Y-126286104D01*
X83178571Y-126286104D02*
X83216667Y-126209914D01*
X83216667Y-126209914D02*
X83216667Y-125562295D01*
X84016666Y-126362295D02*
X83559523Y-126362295D01*
X83788095Y-126362295D02*
X83788095Y-125562295D01*
X83788095Y-125562295D02*
X83711904Y-125676580D01*
X83711904Y-125676580D02*
X83635714Y-125752771D01*
X83635714Y-125752771D02*
X83559523Y-125790866D01*
X84283333Y-125562295D02*
X84816667Y-125562295D01*
X84816667Y-125562295D02*
X84473809Y-126362295D01*
X85509524Y-95062295D02*
X85509524Y-95709914D01*
X85509524Y-95709914D02*
X85547619Y-95786104D01*
X85547619Y-95786104D02*
X85585714Y-95824200D01*
X85585714Y-95824200D02*
X85661905Y-95862295D01*
X85661905Y-95862295D02*
X85814286Y-95862295D01*
X85814286Y-95862295D02*
X85890476Y-95824200D01*
X85890476Y-95824200D02*
X85928571Y-95786104D01*
X85928571Y-95786104D02*
X85966667Y-95709914D01*
X85966667Y-95709914D02*
X85966667Y-95062295D01*
X86309523Y-95138485D02*
X86347619Y-95100390D01*
X86347619Y-95100390D02*
X86423809Y-95062295D01*
X86423809Y-95062295D02*
X86614285Y-95062295D01*
X86614285Y-95062295D02*
X86690476Y-95100390D01*
X86690476Y-95100390D02*
X86728571Y-95138485D01*
X86728571Y-95138485D02*
X86766666Y-95214676D01*
X86766666Y-95214676D02*
X86766666Y-95290866D01*
X86766666Y-95290866D02*
X86728571Y-95405152D01*
X86728571Y-95405152D02*
X86271428Y-95862295D01*
X86271428Y-95862295D02*
X86766666Y-95862295D01*
X87071428Y-95138485D02*
X87109524Y-95100390D01*
X87109524Y-95100390D02*
X87185714Y-95062295D01*
X87185714Y-95062295D02*
X87376190Y-95062295D01*
X87376190Y-95062295D02*
X87452381Y-95100390D01*
X87452381Y-95100390D02*
X87490476Y-95138485D01*
X87490476Y-95138485D02*
X87528571Y-95214676D01*
X87528571Y-95214676D02*
X87528571Y-95290866D01*
X87528571Y-95290866D02*
X87490476Y-95405152D01*
X87490476Y-95405152D02*
X87033333Y-95862295D01*
X87033333Y-95862295D02*
X87528571Y-95862295D01*
X90140476Y-75562295D02*
X90140476Y-76209914D01*
X90140476Y-76209914D02*
X90178571Y-76286104D01*
X90178571Y-76286104D02*
X90216666Y-76324200D01*
X90216666Y-76324200D02*
X90292857Y-76362295D01*
X90292857Y-76362295D02*
X90445238Y-76362295D01*
X90445238Y-76362295D02*
X90521428Y-76324200D01*
X90521428Y-76324200D02*
X90559523Y-76286104D01*
X90559523Y-76286104D02*
X90597619Y-76209914D01*
X90597619Y-76209914D02*
X90597619Y-75562295D01*
X91321428Y-75828961D02*
X91321428Y-76362295D01*
X91130952Y-75524200D02*
X90940475Y-76095628D01*
X90940475Y-76095628D02*
X91435714Y-76095628D01*
X91209524Y-100162295D02*
X91209524Y-100809914D01*
X91209524Y-100809914D02*
X91247619Y-100886104D01*
X91247619Y-100886104D02*
X91285714Y-100924200D01*
X91285714Y-100924200D02*
X91361905Y-100962295D01*
X91361905Y-100962295D02*
X91514286Y-100962295D01*
X91514286Y-100962295D02*
X91590476Y-100924200D01*
X91590476Y-100924200D02*
X91628571Y-100886104D01*
X91628571Y-100886104D02*
X91666667Y-100809914D01*
X91666667Y-100809914D02*
X91666667Y-100162295D01*
X92009523Y-100238485D02*
X92047619Y-100200390D01*
X92047619Y-100200390D02*
X92123809Y-100162295D01*
X92123809Y-100162295D02*
X92314285Y-100162295D01*
X92314285Y-100162295D02*
X92390476Y-100200390D01*
X92390476Y-100200390D02*
X92428571Y-100238485D01*
X92428571Y-100238485D02*
X92466666Y-100314676D01*
X92466666Y-100314676D02*
X92466666Y-100390866D01*
X92466666Y-100390866D02*
X92428571Y-100505152D01*
X92428571Y-100505152D02*
X91971428Y-100962295D01*
X91971428Y-100962295D02*
X92466666Y-100962295D01*
X93152381Y-100428961D02*
X93152381Y-100962295D01*
X92961905Y-100124200D02*
X92771428Y-100695628D01*
X92771428Y-100695628D02*
X93266667Y-100695628D01*
X91352380Y-133343247D02*
X91619046Y-133343247D01*
X91733332Y-133762295D02*
X91352380Y-133762295D01*
X91352380Y-133762295D02*
X91352380Y-132962295D01*
X91352380Y-132962295D02*
X91733332Y-132962295D01*
X92076190Y-133762295D02*
X92076190Y-132962295D01*
X92076190Y-132962295D02*
X92533333Y-133762295D01*
X92533333Y-133762295D02*
X92533333Y-132962295D01*
X93371428Y-133686104D02*
X93333332Y-133724200D01*
X93333332Y-133724200D02*
X93219047Y-133762295D01*
X93219047Y-133762295D02*
X93142856Y-133762295D01*
X93142856Y-133762295D02*
X93028570Y-133724200D01*
X93028570Y-133724200D02*
X92952380Y-133648009D01*
X92952380Y-133648009D02*
X92914285Y-133571819D01*
X92914285Y-133571819D02*
X92876189Y-133419438D01*
X92876189Y-133419438D02*
X92876189Y-133305152D01*
X92876189Y-133305152D02*
X92914285Y-133152771D01*
X92914285Y-133152771D02*
X92952380Y-133076580D01*
X92952380Y-133076580D02*
X93028570Y-133000390D01*
X93028570Y-133000390D02*
X93142856Y-132962295D01*
X93142856Y-132962295D02*
X93219047Y-132962295D01*
X93219047Y-132962295D02*
X93333332Y-133000390D01*
X93333332Y-133000390D02*
X93371428Y-133038485D01*
X94209523Y-132962295D02*
X94666666Y-132962295D01*
X94438094Y-133762295D02*
X94438094Y-132962295D01*
X94933333Y-133343247D02*
X95199999Y-133343247D01*
X95314285Y-133762295D02*
X94933333Y-133762295D01*
X94933333Y-133762295D02*
X94933333Y-132962295D01*
X94933333Y-132962295D02*
X95314285Y-132962295D01*
X95619047Y-133724200D02*
X95733333Y-133762295D01*
X95733333Y-133762295D02*
X95923809Y-133762295D01*
X95923809Y-133762295D02*
X96000000Y-133724200D01*
X96000000Y-133724200D02*
X96038095Y-133686104D01*
X96038095Y-133686104D02*
X96076190Y-133609914D01*
X96076190Y-133609914D02*
X96076190Y-133533723D01*
X96076190Y-133533723D02*
X96038095Y-133457533D01*
X96038095Y-133457533D02*
X96000000Y-133419438D01*
X96000000Y-133419438D02*
X95923809Y-133381342D01*
X95923809Y-133381342D02*
X95771428Y-133343247D01*
X95771428Y-133343247D02*
X95695238Y-133305152D01*
X95695238Y-133305152D02*
X95657143Y-133267057D01*
X95657143Y-133267057D02*
X95619047Y-133190866D01*
X95619047Y-133190866D02*
X95619047Y-133114676D01*
X95619047Y-133114676D02*
X95657143Y-133038485D01*
X95657143Y-133038485D02*
X95695238Y-133000390D01*
X95695238Y-133000390D02*
X95771428Y-132962295D01*
X95771428Y-132962295D02*
X95961905Y-132962295D01*
X95961905Y-132962295D02*
X96076190Y-133000390D01*
X96304762Y-132962295D02*
X96761905Y-132962295D01*
X96533333Y-133762295D02*
X96533333Y-132962295D01*
X95009524Y-106562295D02*
X95009524Y-107209914D01*
X95009524Y-107209914D02*
X95047619Y-107286104D01*
X95047619Y-107286104D02*
X95085714Y-107324200D01*
X95085714Y-107324200D02*
X95161905Y-107362295D01*
X95161905Y-107362295D02*
X95314286Y-107362295D01*
X95314286Y-107362295D02*
X95390476Y-107324200D01*
X95390476Y-107324200D02*
X95428571Y-107286104D01*
X95428571Y-107286104D02*
X95466667Y-107209914D01*
X95466667Y-107209914D02*
X95466667Y-106562295D01*
X96266666Y-107362295D02*
X95809523Y-107362295D01*
X96038095Y-107362295D02*
X96038095Y-106562295D01*
X96038095Y-106562295D02*
X95961904Y-106676580D01*
X95961904Y-106676580D02*
X95885714Y-106752771D01*
X95885714Y-106752771D02*
X95809523Y-106790866D01*
X96761905Y-106562295D02*
X96838095Y-106562295D01*
X96838095Y-106562295D02*
X96914286Y-106600390D01*
X96914286Y-106600390D02*
X96952381Y-106638485D01*
X96952381Y-106638485D02*
X96990476Y-106714676D01*
X96990476Y-106714676D02*
X97028571Y-106867057D01*
X97028571Y-106867057D02*
X97028571Y-107057533D01*
X97028571Y-107057533D02*
X96990476Y-107209914D01*
X96990476Y-107209914D02*
X96952381Y-107286104D01*
X96952381Y-107286104D02*
X96914286Y-107324200D01*
X96914286Y-107324200D02*
X96838095Y-107362295D01*
X96838095Y-107362295D02*
X96761905Y-107362295D01*
X96761905Y-107362295D02*
X96685714Y-107324200D01*
X96685714Y-107324200D02*
X96647619Y-107286104D01*
X96647619Y-107286104D02*
X96609524Y-107209914D01*
X96609524Y-107209914D02*
X96571428Y-107057533D01*
X96571428Y-107057533D02*
X96571428Y-106867057D01*
X96571428Y-106867057D02*
X96609524Y-106714676D01*
X96609524Y-106714676D02*
X96647619Y-106638485D01*
X96647619Y-106638485D02*
X96685714Y-106600390D01*
X96685714Y-106600390D02*
X96761905Y-106562295D01*
X95009524Y-111562295D02*
X95009524Y-112209914D01*
X95009524Y-112209914D02*
X95047619Y-112286104D01*
X95047619Y-112286104D02*
X95085714Y-112324200D01*
X95085714Y-112324200D02*
X95161905Y-112362295D01*
X95161905Y-112362295D02*
X95314286Y-112362295D01*
X95314286Y-112362295D02*
X95390476Y-112324200D01*
X95390476Y-112324200D02*
X95428571Y-112286104D01*
X95428571Y-112286104D02*
X95466667Y-112209914D01*
X95466667Y-112209914D02*
X95466667Y-111562295D01*
X96266666Y-112362295D02*
X95809523Y-112362295D01*
X96038095Y-112362295D02*
X96038095Y-111562295D01*
X96038095Y-111562295D02*
X95961904Y-111676580D01*
X95961904Y-111676580D02*
X95885714Y-111752771D01*
X95885714Y-111752771D02*
X95809523Y-111790866D01*
X97028571Y-112362295D02*
X96571428Y-112362295D01*
X96800000Y-112362295D02*
X96800000Y-111562295D01*
X96800000Y-111562295D02*
X96723809Y-111676580D01*
X96723809Y-111676580D02*
X96647619Y-111752771D01*
X96647619Y-111752771D02*
X96571428Y-111790866D01*
X92723810Y-141862295D02*
X92723810Y-142433723D01*
X92723810Y-142433723D02*
X92685715Y-142548009D01*
X92685715Y-142548009D02*
X92609524Y-142624200D01*
X92609524Y-142624200D02*
X92495239Y-142662295D01*
X92495239Y-142662295D02*
X92419048Y-142662295D01*
X93028572Y-141862295D02*
X93561906Y-141862295D01*
X93561906Y-141862295D02*
X93219048Y-142662295D01*
X94476192Y-142662295D02*
X94476192Y-141862295D01*
X94857144Y-142662295D02*
X94857144Y-141862295D01*
X94857144Y-141862295D02*
X95314287Y-142662295D01*
X95314287Y-142662295D02*
X95314287Y-141862295D01*
X95695239Y-142662295D02*
X95695239Y-141862295D01*
X95695239Y-141862295D02*
X95885715Y-141862295D01*
X95885715Y-141862295D02*
X96000001Y-141900390D01*
X96000001Y-141900390D02*
X96076191Y-141976580D01*
X96076191Y-141976580D02*
X96114286Y-142052771D01*
X96114286Y-142052771D02*
X96152382Y-142205152D01*
X96152382Y-142205152D02*
X96152382Y-142319438D01*
X96152382Y-142319438D02*
X96114286Y-142471819D01*
X96114286Y-142471819D02*
X96076191Y-142548009D01*
X96076191Y-142548009D02*
X96000001Y-142624200D01*
X96000001Y-142624200D02*
X95885715Y-142662295D01*
X95885715Y-142662295D02*
X95695239Y-142662295D01*
X96495239Y-141862295D02*
X96495239Y-142509914D01*
X96495239Y-142509914D02*
X96533334Y-142586104D01*
X96533334Y-142586104D02*
X96571429Y-142624200D01*
X96571429Y-142624200D02*
X96647620Y-142662295D01*
X96647620Y-142662295D02*
X96800001Y-142662295D01*
X96800001Y-142662295D02*
X96876191Y-142624200D01*
X96876191Y-142624200D02*
X96914286Y-142586104D01*
X96914286Y-142586104D02*
X96952382Y-142509914D01*
X96952382Y-142509914D02*
X96952382Y-141862295D01*
X97295238Y-142624200D02*
X97409524Y-142662295D01*
X97409524Y-142662295D02*
X97600000Y-142662295D01*
X97600000Y-142662295D02*
X97676191Y-142624200D01*
X97676191Y-142624200D02*
X97714286Y-142586104D01*
X97714286Y-142586104D02*
X97752381Y-142509914D01*
X97752381Y-142509914D02*
X97752381Y-142433723D01*
X97752381Y-142433723D02*
X97714286Y-142357533D01*
X97714286Y-142357533D02*
X97676191Y-142319438D01*
X97676191Y-142319438D02*
X97600000Y-142281342D01*
X97600000Y-142281342D02*
X97447619Y-142243247D01*
X97447619Y-142243247D02*
X97371429Y-142205152D01*
X97371429Y-142205152D02*
X97333334Y-142167057D01*
X97333334Y-142167057D02*
X97295238Y-142090866D01*
X97295238Y-142090866D02*
X97295238Y-142014676D01*
X97295238Y-142014676D02*
X97333334Y-141938485D01*
X97333334Y-141938485D02*
X97371429Y-141900390D01*
X97371429Y-141900390D02*
X97447619Y-141862295D01*
X97447619Y-141862295D02*
X97638096Y-141862295D01*
X97638096Y-141862295D02*
X97752381Y-141900390D01*
X97980953Y-141862295D02*
X98438096Y-141862295D01*
X98209524Y-142662295D02*
X98209524Y-141862295D01*
X99161906Y-142662295D02*
X98895239Y-142281342D01*
X98704763Y-142662295D02*
X98704763Y-141862295D01*
X98704763Y-141862295D02*
X99009525Y-141862295D01*
X99009525Y-141862295D02*
X99085715Y-141900390D01*
X99085715Y-141900390D02*
X99123810Y-141938485D01*
X99123810Y-141938485D02*
X99161906Y-142014676D01*
X99161906Y-142014676D02*
X99161906Y-142128961D01*
X99161906Y-142128961D02*
X99123810Y-142205152D01*
X99123810Y-142205152D02*
X99085715Y-142243247D01*
X99085715Y-142243247D02*
X99009525Y-142281342D01*
X99009525Y-142281342D02*
X98704763Y-142281342D01*
X99504763Y-142662295D02*
X99504763Y-141862295D01*
X99847619Y-142433723D02*
X100228572Y-142433723D01*
X99771429Y-142662295D02*
X100038096Y-141862295D01*
X100038096Y-141862295D02*
X100304762Y-142662295D01*
X100952381Y-142662295D02*
X100571429Y-142662295D01*
X100571429Y-142662295D02*
X100571429Y-141862295D01*
X101828572Y-142662295D02*
X101828572Y-141862295D01*
X102780952Y-141824200D02*
X102095238Y-142852771D01*
X103200000Y-141862295D02*
X103352381Y-141862295D01*
X103352381Y-141862295D02*
X103428571Y-141900390D01*
X103428571Y-141900390D02*
X103504762Y-141976580D01*
X103504762Y-141976580D02*
X103542857Y-142128961D01*
X103542857Y-142128961D02*
X103542857Y-142395628D01*
X103542857Y-142395628D02*
X103504762Y-142548009D01*
X103504762Y-142548009D02*
X103428571Y-142624200D01*
X103428571Y-142624200D02*
X103352381Y-142662295D01*
X103352381Y-142662295D02*
X103200000Y-142662295D01*
X103200000Y-142662295D02*
X103123809Y-142624200D01*
X103123809Y-142624200D02*
X103047619Y-142548009D01*
X103047619Y-142548009D02*
X103009523Y-142395628D01*
X103009523Y-142395628D02*
X103009523Y-142128961D01*
X103009523Y-142128961D02*
X103047619Y-141976580D01*
X103047619Y-141976580D02*
X103123809Y-141900390D01*
X103123809Y-141900390D02*
X103200000Y-141862295D01*
X94942857Y-92562295D02*
X94942857Y-93209914D01*
X94942857Y-93209914D02*
X94980952Y-93286104D01*
X94980952Y-93286104D02*
X95019047Y-93324200D01*
X95019047Y-93324200D02*
X95095238Y-93362295D01*
X95095238Y-93362295D02*
X95247619Y-93362295D01*
X95247619Y-93362295D02*
X95323809Y-93324200D01*
X95323809Y-93324200D02*
X95361904Y-93286104D01*
X95361904Y-93286104D02*
X95400000Y-93209914D01*
X95400000Y-93209914D02*
X95400000Y-92562295D01*
X96199999Y-93362295D02*
X95742856Y-93362295D01*
X95971428Y-93362295D02*
X95971428Y-92562295D01*
X95971428Y-92562295D02*
X95895237Y-92676580D01*
X95895237Y-92676580D02*
X95819047Y-92752771D01*
X95819047Y-92752771D02*
X95742856Y-92790866D01*
X96657142Y-92905152D02*
X96580952Y-92867057D01*
X96580952Y-92867057D02*
X96542857Y-92828961D01*
X96542857Y-92828961D02*
X96504761Y-92752771D01*
X96504761Y-92752771D02*
X96504761Y-92714676D01*
X96504761Y-92714676D02*
X96542857Y-92638485D01*
X96542857Y-92638485D02*
X96580952Y-92600390D01*
X96580952Y-92600390D02*
X96657142Y-92562295D01*
X96657142Y-92562295D02*
X96809523Y-92562295D01*
X96809523Y-92562295D02*
X96885714Y-92600390D01*
X96885714Y-92600390D02*
X96923809Y-92638485D01*
X96923809Y-92638485D02*
X96961904Y-92714676D01*
X96961904Y-92714676D02*
X96961904Y-92752771D01*
X96961904Y-92752771D02*
X96923809Y-92828961D01*
X96923809Y-92828961D02*
X96885714Y-92867057D01*
X96885714Y-92867057D02*
X96809523Y-92905152D01*
X96809523Y-92905152D02*
X96657142Y-92905152D01*
X96657142Y-92905152D02*
X96580952Y-92943247D01*
X96580952Y-92943247D02*
X96542857Y-92981342D01*
X96542857Y-92981342D02*
X96504761Y-93057533D01*
X96504761Y-93057533D02*
X96504761Y-93209914D01*
X96504761Y-93209914D02*
X96542857Y-93286104D01*
X96542857Y-93286104D02*
X96580952Y-93324200D01*
X96580952Y-93324200D02*
X96657142Y-93362295D01*
X96657142Y-93362295D02*
X96809523Y-93362295D01*
X96809523Y-93362295D02*
X96885714Y-93324200D01*
X96885714Y-93324200D02*
X96923809Y-93286104D01*
X96923809Y-93286104D02*
X96961904Y-93209914D01*
X96961904Y-93209914D02*
X96961904Y-93057533D01*
X96961904Y-93057533D02*
X96923809Y-92981342D01*
X96923809Y-92981342D02*
X96885714Y-92943247D01*
X96885714Y-92943247D02*
X96809523Y-92905152D01*
X97914286Y-92943247D02*
X98180952Y-92943247D01*
X98295238Y-93362295D02*
X97914286Y-93362295D01*
X97914286Y-93362295D02*
X97914286Y-92562295D01*
X97914286Y-92562295D02*
X98295238Y-92562295D01*
X98638096Y-93362295D02*
X98638096Y-92562295D01*
X98638096Y-92562295D02*
X99095239Y-93362295D01*
X99095239Y-93362295D02*
X99095239Y-92562295D01*
X99933334Y-93286104D02*
X99895238Y-93324200D01*
X99895238Y-93324200D02*
X99780953Y-93362295D01*
X99780953Y-93362295D02*
X99704762Y-93362295D01*
X99704762Y-93362295D02*
X99590476Y-93324200D01*
X99590476Y-93324200D02*
X99514286Y-93248009D01*
X99514286Y-93248009D02*
X99476191Y-93171819D01*
X99476191Y-93171819D02*
X99438095Y-93019438D01*
X99438095Y-93019438D02*
X99438095Y-92905152D01*
X99438095Y-92905152D02*
X99476191Y-92752771D01*
X99476191Y-92752771D02*
X99514286Y-92676580D01*
X99514286Y-92676580D02*
X99590476Y-92600390D01*
X99590476Y-92600390D02*
X99704762Y-92562295D01*
X99704762Y-92562295D02*
X99780953Y-92562295D01*
X99780953Y-92562295D02*
X99895238Y-92600390D01*
X99895238Y-92600390D02*
X99933334Y-92638485D01*
X100428572Y-92562295D02*
X100580953Y-92562295D01*
X100580953Y-92562295D02*
X100657143Y-92600390D01*
X100657143Y-92600390D02*
X100733334Y-92676580D01*
X100733334Y-92676580D02*
X100771429Y-92828961D01*
X100771429Y-92828961D02*
X100771429Y-93095628D01*
X100771429Y-93095628D02*
X100733334Y-93248009D01*
X100733334Y-93248009D02*
X100657143Y-93324200D01*
X100657143Y-93324200D02*
X100580953Y-93362295D01*
X100580953Y-93362295D02*
X100428572Y-93362295D01*
X100428572Y-93362295D02*
X100352381Y-93324200D01*
X100352381Y-93324200D02*
X100276191Y-93248009D01*
X100276191Y-93248009D02*
X100238095Y-93095628D01*
X100238095Y-93095628D02*
X100238095Y-92828961D01*
X100238095Y-92828961D02*
X100276191Y-92676580D01*
X100276191Y-92676580D02*
X100352381Y-92600390D01*
X100352381Y-92600390D02*
X100428572Y-92562295D01*
X101114286Y-93362295D02*
X101114286Y-92562295D01*
X101114286Y-92562295D02*
X101304762Y-92562295D01*
X101304762Y-92562295D02*
X101419048Y-92600390D01*
X101419048Y-92600390D02*
X101495238Y-92676580D01*
X101495238Y-92676580D02*
X101533333Y-92752771D01*
X101533333Y-92752771D02*
X101571429Y-92905152D01*
X101571429Y-92905152D02*
X101571429Y-93019438D01*
X101571429Y-93019438D02*
X101533333Y-93171819D01*
X101533333Y-93171819D02*
X101495238Y-93248009D01*
X101495238Y-93248009D02*
X101419048Y-93324200D01*
X101419048Y-93324200D02*
X101304762Y-93362295D01*
X101304762Y-93362295D02*
X101114286Y-93362295D01*
X101914286Y-92943247D02*
X102180952Y-92943247D01*
X102295238Y-93362295D02*
X101914286Y-93362295D01*
X101914286Y-93362295D02*
X101914286Y-92562295D01*
X101914286Y-92562295D02*
X102295238Y-92562295D01*
X103095239Y-93362295D02*
X102828572Y-92981342D01*
X102638096Y-93362295D02*
X102638096Y-92562295D01*
X102638096Y-92562295D02*
X102942858Y-92562295D01*
X102942858Y-92562295D02*
X103019048Y-92600390D01*
X103019048Y-92600390D02*
X103057143Y-92638485D01*
X103057143Y-92638485D02*
X103095239Y-92714676D01*
X103095239Y-92714676D02*
X103095239Y-92828961D01*
X103095239Y-92828961D02*
X103057143Y-92905152D01*
X103057143Y-92905152D02*
X103019048Y-92943247D01*
X103019048Y-92943247D02*
X102942858Y-92981342D01*
X102942858Y-92981342D02*
X102638096Y-92981342D01*
X98890476Y-77562295D02*
X98890476Y-78209914D01*
X98890476Y-78209914D02*
X98928571Y-78286104D01*
X98928571Y-78286104D02*
X98966666Y-78324200D01*
X98966666Y-78324200D02*
X99042857Y-78362295D01*
X99042857Y-78362295D02*
X99195238Y-78362295D01*
X99195238Y-78362295D02*
X99271428Y-78324200D01*
X99271428Y-78324200D02*
X99309523Y-78286104D01*
X99309523Y-78286104D02*
X99347619Y-78209914D01*
X99347619Y-78209914D02*
X99347619Y-77562295D01*
X100071428Y-77562295D02*
X99919047Y-77562295D01*
X99919047Y-77562295D02*
X99842856Y-77600390D01*
X99842856Y-77600390D02*
X99804761Y-77638485D01*
X99804761Y-77638485D02*
X99728571Y-77752771D01*
X99728571Y-77752771D02*
X99690475Y-77905152D01*
X99690475Y-77905152D02*
X99690475Y-78209914D01*
X99690475Y-78209914D02*
X99728571Y-78286104D01*
X99728571Y-78286104D02*
X99766666Y-78324200D01*
X99766666Y-78324200D02*
X99842856Y-78362295D01*
X99842856Y-78362295D02*
X99995237Y-78362295D01*
X99995237Y-78362295D02*
X100071428Y-78324200D01*
X100071428Y-78324200D02*
X100109523Y-78286104D01*
X100109523Y-78286104D02*
X100147618Y-78209914D01*
X100147618Y-78209914D02*
X100147618Y-78019438D01*
X100147618Y-78019438D02*
X100109523Y-77943247D01*
X100109523Y-77943247D02*
X100071428Y-77905152D01*
X100071428Y-77905152D02*
X99995237Y-77867057D01*
X99995237Y-77867057D02*
X99842856Y-77867057D01*
X99842856Y-77867057D02*
X99766666Y-77905152D01*
X99766666Y-77905152D02*
X99728571Y-77943247D01*
X99728571Y-77943247D02*
X99690475Y-78019438D01*
X99733333Y-61062295D02*
X99733333Y-61633723D01*
X99733333Y-61633723D02*
X99695238Y-61748009D01*
X99695238Y-61748009D02*
X99619047Y-61824200D01*
X99619047Y-61824200D02*
X99504762Y-61862295D01*
X99504762Y-61862295D02*
X99428571Y-61862295D01*
X100038095Y-61062295D02*
X100533333Y-61062295D01*
X100533333Y-61062295D02*
X100266667Y-61367057D01*
X100266667Y-61367057D02*
X100380952Y-61367057D01*
X100380952Y-61367057D02*
X100457143Y-61405152D01*
X100457143Y-61405152D02*
X100495238Y-61443247D01*
X100495238Y-61443247D02*
X100533333Y-61519438D01*
X100533333Y-61519438D02*
X100533333Y-61709914D01*
X100533333Y-61709914D02*
X100495238Y-61786104D01*
X100495238Y-61786104D02*
X100457143Y-61824200D01*
X100457143Y-61824200D02*
X100380952Y-61862295D01*
X100380952Y-61862295D02*
X100152381Y-61862295D01*
X100152381Y-61862295D02*
X100076190Y-61824200D01*
X100076190Y-61824200D02*
X100038095Y-61786104D01*
X101390476Y-94562295D02*
X101390476Y-95209914D01*
X101390476Y-95209914D02*
X101428571Y-95286104D01*
X101428571Y-95286104D02*
X101466666Y-95324200D01*
X101466666Y-95324200D02*
X101542857Y-95362295D01*
X101542857Y-95362295D02*
X101695238Y-95362295D01*
X101695238Y-95362295D02*
X101771428Y-95324200D01*
X101771428Y-95324200D02*
X101809523Y-95286104D01*
X101809523Y-95286104D02*
X101847619Y-95209914D01*
X101847619Y-95209914D02*
X101847619Y-94562295D01*
X102152380Y-94562295D02*
X102685714Y-94562295D01*
X102685714Y-94562295D02*
X102342856Y-95362295D01*
X101509524Y-121812295D02*
X101509524Y-122459914D01*
X101509524Y-122459914D02*
X101547619Y-122536104D01*
X101547619Y-122536104D02*
X101585714Y-122574200D01*
X101585714Y-122574200D02*
X101661905Y-122612295D01*
X101661905Y-122612295D02*
X101814286Y-122612295D01*
X101814286Y-122612295D02*
X101890476Y-122574200D01*
X101890476Y-122574200D02*
X101928571Y-122536104D01*
X101928571Y-122536104D02*
X101966667Y-122459914D01*
X101966667Y-122459914D02*
X101966667Y-121812295D01*
X102766666Y-122612295D02*
X102309523Y-122612295D01*
X102538095Y-122612295D02*
X102538095Y-121812295D01*
X102538095Y-121812295D02*
X102461904Y-121926580D01*
X102461904Y-121926580D02*
X102385714Y-122002771D01*
X102385714Y-122002771D02*
X102309523Y-122040866D01*
X103071428Y-121888485D02*
X103109524Y-121850390D01*
X103109524Y-121850390D02*
X103185714Y-121812295D01*
X103185714Y-121812295D02*
X103376190Y-121812295D01*
X103376190Y-121812295D02*
X103452381Y-121850390D01*
X103452381Y-121850390D02*
X103490476Y-121888485D01*
X103490476Y-121888485D02*
X103528571Y-121964676D01*
X103528571Y-121964676D02*
X103528571Y-122040866D01*
X103528571Y-122040866D02*
X103490476Y-122155152D01*
X103490476Y-122155152D02*
X103033333Y-122612295D01*
X103033333Y-122612295D02*
X103528571Y-122612295D01*
X104009524Y-131562295D02*
X104009524Y-132209914D01*
X104009524Y-132209914D02*
X104047619Y-132286104D01*
X104047619Y-132286104D02*
X104085714Y-132324200D01*
X104085714Y-132324200D02*
X104161905Y-132362295D01*
X104161905Y-132362295D02*
X104314286Y-132362295D01*
X104314286Y-132362295D02*
X104390476Y-132324200D01*
X104390476Y-132324200D02*
X104428571Y-132286104D01*
X104428571Y-132286104D02*
X104466667Y-132209914D01*
X104466667Y-132209914D02*
X104466667Y-131562295D01*
X105266666Y-132362295D02*
X104809523Y-132362295D01*
X105038095Y-132362295D02*
X105038095Y-131562295D01*
X105038095Y-131562295D02*
X104961904Y-131676580D01*
X104961904Y-131676580D02*
X104885714Y-131752771D01*
X104885714Y-131752771D02*
X104809523Y-131790866D01*
X105952381Y-131828961D02*
X105952381Y-132362295D01*
X105761905Y-131524200D02*
X105571428Y-132095628D01*
X105571428Y-132095628D02*
X106066667Y-132095628D01*
X105690476Y-107562295D02*
X105690476Y-108209914D01*
X105690476Y-108209914D02*
X105728571Y-108286104D01*
X105728571Y-108286104D02*
X105766666Y-108324200D01*
X105766666Y-108324200D02*
X105842857Y-108362295D01*
X105842857Y-108362295D02*
X105995238Y-108362295D01*
X105995238Y-108362295D02*
X106071428Y-108324200D01*
X106071428Y-108324200D02*
X106109523Y-108286104D01*
X106109523Y-108286104D02*
X106147619Y-108209914D01*
X106147619Y-108209914D02*
X106147619Y-107562295D01*
X106642856Y-107905152D02*
X106566666Y-107867057D01*
X106566666Y-107867057D02*
X106528571Y-107828961D01*
X106528571Y-107828961D02*
X106490475Y-107752771D01*
X106490475Y-107752771D02*
X106490475Y-107714676D01*
X106490475Y-107714676D02*
X106528571Y-107638485D01*
X106528571Y-107638485D02*
X106566666Y-107600390D01*
X106566666Y-107600390D02*
X106642856Y-107562295D01*
X106642856Y-107562295D02*
X106795237Y-107562295D01*
X106795237Y-107562295D02*
X106871428Y-107600390D01*
X106871428Y-107600390D02*
X106909523Y-107638485D01*
X106909523Y-107638485D02*
X106947618Y-107714676D01*
X106947618Y-107714676D02*
X106947618Y-107752771D01*
X106947618Y-107752771D02*
X106909523Y-107828961D01*
X106909523Y-107828961D02*
X106871428Y-107867057D01*
X106871428Y-107867057D02*
X106795237Y-107905152D01*
X106795237Y-107905152D02*
X106642856Y-107905152D01*
X106642856Y-107905152D02*
X106566666Y-107943247D01*
X106566666Y-107943247D02*
X106528571Y-107981342D01*
X106528571Y-107981342D02*
X106490475Y-108057533D01*
X106490475Y-108057533D02*
X106490475Y-108209914D01*
X106490475Y-108209914D02*
X106528571Y-108286104D01*
X106528571Y-108286104D02*
X106566666Y-108324200D01*
X106566666Y-108324200D02*
X106642856Y-108362295D01*
X106642856Y-108362295D02*
X106795237Y-108362295D01*
X106795237Y-108362295D02*
X106871428Y-108324200D01*
X106871428Y-108324200D02*
X106909523Y-108286104D01*
X106909523Y-108286104D02*
X106947618Y-108209914D01*
X106947618Y-108209914D02*
X106947618Y-108057533D01*
X106947618Y-108057533D02*
X106909523Y-107981342D01*
X106909523Y-107981342D02*
X106871428Y-107943247D01*
X106871428Y-107943247D02*
X106795237Y-107905152D01*
X107390476Y-110812295D02*
X107390476Y-111459914D01*
X107390476Y-111459914D02*
X107428571Y-111536104D01*
X107428571Y-111536104D02*
X107466666Y-111574200D01*
X107466666Y-111574200D02*
X107542857Y-111612295D01*
X107542857Y-111612295D02*
X107695238Y-111612295D01*
X107695238Y-111612295D02*
X107771428Y-111574200D01*
X107771428Y-111574200D02*
X107809523Y-111536104D01*
X107809523Y-111536104D02*
X107847619Y-111459914D01*
X107847619Y-111459914D02*
X107847619Y-110812295D01*
X108266666Y-111612295D02*
X108419047Y-111612295D01*
X108419047Y-111612295D02*
X108495237Y-111574200D01*
X108495237Y-111574200D02*
X108533333Y-111536104D01*
X108533333Y-111536104D02*
X108609523Y-111421819D01*
X108609523Y-111421819D02*
X108647618Y-111269438D01*
X108647618Y-111269438D02*
X108647618Y-110964676D01*
X108647618Y-110964676D02*
X108609523Y-110888485D01*
X108609523Y-110888485D02*
X108571428Y-110850390D01*
X108571428Y-110850390D02*
X108495237Y-110812295D01*
X108495237Y-110812295D02*
X108342856Y-110812295D01*
X108342856Y-110812295D02*
X108266666Y-110850390D01*
X108266666Y-110850390D02*
X108228571Y-110888485D01*
X108228571Y-110888485D02*
X108190475Y-110964676D01*
X108190475Y-110964676D02*
X108190475Y-111155152D01*
X108190475Y-111155152D02*
X108228571Y-111231342D01*
X108228571Y-111231342D02*
X108266666Y-111269438D01*
X108266666Y-111269438D02*
X108342856Y-111307533D01*
X108342856Y-111307533D02*
X108495237Y-111307533D01*
X108495237Y-111307533D02*
X108571428Y-111269438D01*
X108571428Y-111269438D02*
X108609523Y-111231342D01*
X108609523Y-111231342D02*
X108647618Y-111155152D01*
X109009524Y-119562295D02*
X109009524Y-120209914D01*
X109009524Y-120209914D02*
X109047619Y-120286104D01*
X109047619Y-120286104D02*
X109085714Y-120324200D01*
X109085714Y-120324200D02*
X109161905Y-120362295D01*
X109161905Y-120362295D02*
X109314286Y-120362295D01*
X109314286Y-120362295D02*
X109390476Y-120324200D01*
X109390476Y-120324200D02*
X109428571Y-120286104D01*
X109428571Y-120286104D02*
X109466667Y-120209914D01*
X109466667Y-120209914D02*
X109466667Y-119562295D01*
X110266666Y-120362295D02*
X109809523Y-120362295D01*
X110038095Y-120362295D02*
X110038095Y-119562295D01*
X110038095Y-119562295D02*
X109961904Y-119676580D01*
X109961904Y-119676580D02*
X109885714Y-119752771D01*
X109885714Y-119752771D02*
X109809523Y-119790866D01*
X110533333Y-119562295D02*
X111028571Y-119562295D01*
X111028571Y-119562295D02*
X110761905Y-119867057D01*
X110761905Y-119867057D02*
X110876190Y-119867057D01*
X110876190Y-119867057D02*
X110952381Y-119905152D01*
X110952381Y-119905152D02*
X110990476Y-119943247D01*
X110990476Y-119943247D02*
X111028571Y-120019438D01*
X111028571Y-120019438D02*
X111028571Y-120209914D01*
X111028571Y-120209914D02*
X110990476Y-120286104D01*
X110990476Y-120286104D02*
X110952381Y-120324200D01*
X110952381Y-120324200D02*
X110876190Y-120362295D01*
X110876190Y-120362295D02*
X110647619Y-120362295D01*
X110647619Y-120362295D02*
X110571428Y-120324200D01*
X110571428Y-120324200D02*
X110533333Y-120286104D01*
X112509524Y-69562295D02*
X112509524Y-70209914D01*
X112509524Y-70209914D02*
X112547619Y-70286104D01*
X112547619Y-70286104D02*
X112585714Y-70324200D01*
X112585714Y-70324200D02*
X112661905Y-70362295D01*
X112661905Y-70362295D02*
X112814286Y-70362295D01*
X112814286Y-70362295D02*
X112890476Y-70324200D01*
X112890476Y-70324200D02*
X112928571Y-70286104D01*
X112928571Y-70286104D02*
X112966667Y-70209914D01*
X112966667Y-70209914D02*
X112966667Y-69562295D01*
X113766666Y-70362295D02*
X113309523Y-70362295D01*
X113538095Y-70362295D02*
X113538095Y-69562295D01*
X113538095Y-69562295D02*
X113461904Y-69676580D01*
X113461904Y-69676580D02*
X113385714Y-69752771D01*
X113385714Y-69752771D02*
X113309523Y-69790866D01*
X114490476Y-69562295D02*
X114109524Y-69562295D01*
X114109524Y-69562295D02*
X114071428Y-69943247D01*
X114071428Y-69943247D02*
X114109524Y-69905152D01*
X114109524Y-69905152D02*
X114185714Y-69867057D01*
X114185714Y-69867057D02*
X114376190Y-69867057D01*
X114376190Y-69867057D02*
X114452381Y-69905152D01*
X114452381Y-69905152D02*
X114490476Y-69943247D01*
X114490476Y-69943247D02*
X114528571Y-70019438D01*
X114528571Y-70019438D02*
X114528571Y-70209914D01*
X114528571Y-70209914D02*
X114490476Y-70286104D01*
X114490476Y-70286104D02*
X114452381Y-70324200D01*
X114452381Y-70324200D02*
X114376190Y-70362295D01*
X114376190Y-70362295D02*
X114185714Y-70362295D01*
X114185714Y-70362295D02*
X114109524Y-70324200D01*
X114109524Y-70324200D02*
X114071428Y-70286104D01*
X117428571Y-135562295D02*
X117428571Y-136133723D01*
X117428571Y-136133723D02*
X117390476Y-136248009D01*
X117390476Y-136248009D02*
X117314285Y-136324200D01*
X117314285Y-136324200D02*
X117200000Y-136362295D01*
X117200000Y-136362295D02*
X117123809Y-136362295D01*
X117771428Y-135638485D02*
X117809524Y-135600390D01*
X117809524Y-135600390D02*
X117885714Y-135562295D01*
X117885714Y-135562295D02*
X118076190Y-135562295D01*
X118076190Y-135562295D02*
X118152381Y-135600390D01*
X118152381Y-135600390D02*
X118190476Y-135638485D01*
X118190476Y-135638485D02*
X118228571Y-135714676D01*
X118228571Y-135714676D02*
X118228571Y-135790866D01*
X118228571Y-135790866D02*
X118190476Y-135905152D01*
X118190476Y-135905152D02*
X117733333Y-136362295D01*
X117733333Y-136362295D02*
X118228571Y-136362295D01*
X119180953Y-136362295D02*
X119180953Y-135562295D01*
X119180953Y-135562295D02*
X119447619Y-136133723D01*
X119447619Y-136133723D02*
X119714286Y-135562295D01*
X119714286Y-135562295D02*
X119714286Y-136362295D01*
X120247620Y-135562295D02*
X120400001Y-135562295D01*
X120400001Y-135562295D02*
X120476191Y-135600390D01*
X120476191Y-135600390D02*
X120552382Y-135676580D01*
X120552382Y-135676580D02*
X120590477Y-135828961D01*
X120590477Y-135828961D02*
X120590477Y-136095628D01*
X120590477Y-136095628D02*
X120552382Y-136248009D01*
X120552382Y-136248009D02*
X120476191Y-136324200D01*
X120476191Y-136324200D02*
X120400001Y-136362295D01*
X120400001Y-136362295D02*
X120247620Y-136362295D01*
X120247620Y-136362295D02*
X120171429Y-136324200D01*
X120171429Y-136324200D02*
X120095239Y-136248009D01*
X120095239Y-136248009D02*
X120057143Y-136095628D01*
X120057143Y-136095628D02*
X120057143Y-135828961D01*
X120057143Y-135828961D02*
X120095239Y-135676580D01*
X120095239Y-135676580D02*
X120171429Y-135600390D01*
X120171429Y-135600390D02*
X120247620Y-135562295D01*
X120819048Y-135562295D02*
X121276191Y-135562295D01*
X121047619Y-136362295D02*
X121047619Y-135562295D01*
X121695239Y-135562295D02*
X121847620Y-135562295D01*
X121847620Y-135562295D02*
X121923810Y-135600390D01*
X121923810Y-135600390D02*
X122000001Y-135676580D01*
X122000001Y-135676580D02*
X122038096Y-135828961D01*
X122038096Y-135828961D02*
X122038096Y-136095628D01*
X122038096Y-136095628D02*
X122000001Y-136248009D01*
X122000001Y-136248009D02*
X121923810Y-136324200D01*
X121923810Y-136324200D02*
X121847620Y-136362295D01*
X121847620Y-136362295D02*
X121695239Y-136362295D01*
X121695239Y-136362295D02*
X121619048Y-136324200D01*
X121619048Y-136324200D02*
X121542858Y-136248009D01*
X121542858Y-136248009D02*
X121504762Y-136095628D01*
X121504762Y-136095628D02*
X121504762Y-135828961D01*
X121504762Y-135828961D02*
X121542858Y-135676580D01*
X121542858Y-135676580D02*
X121619048Y-135600390D01*
X121619048Y-135600390D02*
X121695239Y-135562295D01*
X122838096Y-136362295D02*
X122571429Y-135981342D01*
X122380953Y-136362295D02*
X122380953Y-135562295D01*
X122380953Y-135562295D02*
X122685715Y-135562295D01*
X122685715Y-135562295D02*
X122761905Y-135600390D01*
X122761905Y-135600390D02*
X122800000Y-135638485D01*
X122800000Y-135638485D02*
X122838096Y-135714676D01*
X122838096Y-135714676D02*
X122838096Y-135828961D01*
X122838096Y-135828961D02*
X122800000Y-135905152D01*
X122800000Y-135905152D02*
X122761905Y-135943247D01*
X122761905Y-135943247D02*
X122685715Y-135981342D01*
X122685715Y-135981342D02*
X122380953Y-135981342D01*
X59062295Y-88714286D02*
X59633723Y-88714286D01*
X59633723Y-88714286D02*
X59748009Y-88752381D01*
X59748009Y-88752381D02*
X59824200Y-88828572D01*
X59824200Y-88828572D02*
X59862295Y-88942857D01*
X59862295Y-88942857D02*
X59862295Y-89019048D01*
X59862295Y-87914286D02*
X59862295Y-88371429D01*
X59862295Y-88142857D02*
X59062295Y-88142857D01*
X59062295Y-88142857D02*
X59176580Y-88219048D01*
X59176580Y-88219048D02*
X59252771Y-88295238D01*
X59252771Y-88295238D02*
X59290866Y-88371429D01*
X59862295Y-86961904D02*
X59062295Y-86961904D01*
X59062295Y-86961904D02*
X59062295Y-86657142D01*
X59062295Y-86657142D02*
X59100390Y-86580952D01*
X59100390Y-86580952D02*
X59138485Y-86542857D01*
X59138485Y-86542857D02*
X59214676Y-86504761D01*
X59214676Y-86504761D02*
X59328961Y-86504761D01*
X59328961Y-86504761D02*
X59405152Y-86542857D01*
X59405152Y-86542857D02*
X59443247Y-86580952D01*
X59443247Y-86580952D02*
X59481342Y-86657142D01*
X59481342Y-86657142D02*
X59481342Y-86961904D01*
X59862295Y-86161904D02*
X59062295Y-86161904D01*
X59062295Y-86161904D02*
X59062295Y-85971428D01*
X59062295Y-85971428D02*
X59100390Y-85857142D01*
X59100390Y-85857142D02*
X59176580Y-85780952D01*
X59176580Y-85780952D02*
X59252771Y-85742857D01*
X59252771Y-85742857D02*
X59405152Y-85704761D01*
X59405152Y-85704761D02*
X59519438Y-85704761D01*
X59519438Y-85704761D02*
X59671819Y-85742857D01*
X59671819Y-85742857D02*
X59748009Y-85780952D01*
X59748009Y-85780952D02*
X59824200Y-85857142D01*
X59824200Y-85857142D02*
X59862295Y-85971428D01*
X59862295Y-85971428D02*
X59862295Y-86161904D01*
X59862295Y-84752380D02*
X59062295Y-84752380D01*
X59062295Y-84752380D02*
X59062295Y-84447618D01*
X59062295Y-84447618D02*
X59100390Y-84371428D01*
X59100390Y-84371428D02*
X59138485Y-84333333D01*
X59138485Y-84333333D02*
X59214676Y-84295237D01*
X59214676Y-84295237D02*
X59328961Y-84295237D01*
X59328961Y-84295237D02*
X59405152Y-84333333D01*
X59405152Y-84333333D02*
X59443247Y-84371428D01*
X59443247Y-84371428D02*
X59481342Y-84447618D01*
X59481342Y-84447618D02*
X59481342Y-84752380D01*
X59062295Y-83799999D02*
X59062295Y-83647618D01*
X59062295Y-83647618D02*
X59100390Y-83571428D01*
X59100390Y-83571428D02*
X59176580Y-83495237D01*
X59176580Y-83495237D02*
X59328961Y-83457142D01*
X59328961Y-83457142D02*
X59595628Y-83457142D01*
X59595628Y-83457142D02*
X59748009Y-83495237D01*
X59748009Y-83495237D02*
X59824200Y-83571428D01*
X59824200Y-83571428D02*
X59862295Y-83647618D01*
X59862295Y-83647618D02*
X59862295Y-83799999D01*
X59862295Y-83799999D02*
X59824200Y-83876190D01*
X59824200Y-83876190D02*
X59748009Y-83952380D01*
X59748009Y-83952380D02*
X59595628Y-83990476D01*
X59595628Y-83990476D02*
X59328961Y-83990476D01*
X59328961Y-83990476D02*
X59176580Y-83952380D01*
X59176580Y-83952380D02*
X59100390Y-83876190D01*
X59100390Y-83876190D02*
X59062295Y-83799999D01*
X59062295Y-83190476D02*
X59862295Y-83000000D01*
X59862295Y-83000000D02*
X59290866Y-82847619D01*
X59290866Y-82847619D02*
X59862295Y-82695238D01*
X59862295Y-82695238D02*
X59062295Y-82504762D01*
X59443247Y-82199999D02*
X59443247Y-81933333D01*
X59862295Y-81819047D02*
X59862295Y-82199999D01*
X59862295Y-82199999D02*
X59062295Y-82199999D01*
X59062295Y-82199999D02*
X59062295Y-81819047D01*
X59862295Y-81019046D02*
X59481342Y-81285713D01*
X59862295Y-81476189D02*
X59062295Y-81476189D01*
X59062295Y-81476189D02*
X59062295Y-81171427D01*
X59062295Y-81171427D02*
X59100390Y-81095237D01*
X59100390Y-81095237D02*
X59138485Y-81057142D01*
X59138485Y-81057142D02*
X59214676Y-81019046D01*
X59214676Y-81019046D02*
X59328961Y-81019046D01*
X59328961Y-81019046D02*
X59405152Y-81057142D01*
X59405152Y-81057142D02*
X59443247Y-81095237D01*
X59443247Y-81095237D02*
X59481342Y-81171427D01*
X59481342Y-81171427D02*
X59481342Y-81476189D01*
X59062295Y-102847619D02*
X59633723Y-102847619D01*
X59633723Y-102847619D02*
X59748009Y-102885714D01*
X59748009Y-102885714D02*
X59824200Y-102961905D01*
X59824200Y-102961905D02*
X59862295Y-103076190D01*
X59862295Y-103076190D02*
X59862295Y-103152381D01*
X59862295Y-102047619D02*
X59862295Y-102504762D01*
X59862295Y-102276190D02*
X59062295Y-102276190D01*
X59062295Y-102276190D02*
X59176580Y-102352381D01*
X59176580Y-102352381D02*
X59252771Y-102428571D01*
X59252771Y-102428571D02*
X59290866Y-102504762D01*
X59062295Y-101552380D02*
X59062295Y-101476190D01*
X59062295Y-101476190D02*
X59100390Y-101399999D01*
X59100390Y-101399999D02*
X59138485Y-101361904D01*
X59138485Y-101361904D02*
X59214676Y-101323809D01*
X59214676Y-101323809D02*
X59367057Y-101285714D01*
X59367057Y-101285714D02*
X59557533Y-101285714D01*
X59557533Y-101285714D02*
X59709914Y-101323809D01*
X59709914Y-101323809D02*
X59786104Y-101361904D01*
X59786104Y-101361904D02*
X59824200Y-101399999D01*
X59824200Y-101399999D02*
X59862295Y-101476190D01*
X59862295Y-101476190D02*
X59862295Y-101552380D01*
X59862295Y-101552380D02*
X59824200Y-101628571D01*
X59824200Y-101628571D02*
X59786104Y-101666666D01*
X59786104Y-101666666D02*
X59709914Y-101704761D01*
X59709914Y-101704761D02*
X59557533Y-101742857D01*
X59557533Y-101742857D02*
X59367057Y-101742857D01*
X59367057Y-101742857D02*
X59214676Y-101704761D01*
X59214676Y-101704761D02*
X59138485Y-101666666D01*
X59138485Y-101666666D02*
X59100390Y-101628571D01*
X59100390Y-101628571D02*
X59062295Y-101552380D01*
X59062295Y-100333332D02*
X59709914Y-100333332D01*
X59709914Y-100333332D02*
X59786104Y-100295237D01*
X59786104Y-100295237D02*
X59824200Y-100257142D01*
X59824200Y-100257142D02*
X59862295Y-100180951D01*
X59862295Y-100180951D02*
X59862295Y-100028570D01*
X59862295Y-100028570D02*
X59824200Y-99952380D01*
X59824200Y-99952380D02*
X59786104Y-99914285D01*
X59786104Y-99914285D02*
X59709914Y-99876189D01*
X59709914Y-99876189D02*
X59062295Y-99876189D01*
X59824200Y-99533333D02*
X59862295Y-99419047D01*
X59862295Y-99419047D02*
X59862295Y-99228571D01*
X59862295Y-99228571D02*
X59824200Y-99152380D01*
X59824200Y-99152380D02*
X59786104Y-99114285D01*
X59786104Y-99114285D02*
X59709914Y-99076190D01*
X59709914Y-99076190D02*
X59633723Y-99076190D01*
X59633723Y-99076190D02*
X59557533Y-99114285D01*
X59557533Y-99114285D02*
X59519438Y-99152380D01*
X59519438Y-99152380D02*
X59481342Y-99228571D01*
X59481342Y-99228571D02*
X59443247Y-99380952D01*
X59443247Y-99380952D02*
X59405152Y-99457142D01*
X59405152Y-99457142D02*
X59367057Y-99495237D01*
X59367057Y-99495237D02*
X59290866Y-99533333D01*
X59290866Y-99533333D02*
X59214676Y-99533333D01*
X59214676Y-99533333D02*
X59138485Y-99495237D01*
X59138485Y-99495237D02*
X59100390Y-99457142D01*
X59100390Y-99457142D02*
X59062295Y-99380952D01*
X59062295Y-99380952D02*
X59062295Y-99190475D01*
X59062295Y-99190475D02*
X59100390Y-99076190D01*
X59443247Y-98466666D02*
X59481342Y-98352380D01*
X59481342Y-98352380D02*
X59519438Y-98314285D01*
X59519438Y-98314285D02*
X59595628Y-98276189D01*
X59595628Y-98276189D02*
X59709914Y-98276189D01*
X59709914Y-98276189D02*
X59786104Y-98314285D01*
X59786104Y-98314285D02*
X59824200Y-98352380D01*
X59824200Y-98352380D02*
X59862295Y-98428570D01*
X59862295Y-98428570D02*
X59862295Y-98733332D01*
X59862295Y-98733332D02*
X59062295Y-98733332D01*
X59062295Y-98733332D02*
X59062295Y-98466666D01*
X59062295Y-98466666D02*
X59100390Y-98390475D01*
X59100390Y-98390475D02*
X59138485Y-98352380D01*
X59138485Y-98352380D02*
X59214676Y-98314285D01*
X59214676Y-98314285D02*
X59290866Y-98314285D01*
X59290866Y-98314285D02*
X59367057Y-98352380D01*
X59367057Y-98352380D02*
X59405152Y-98390475D01*
X59405152Y-98390475D02*
X59443247Y-98466666D01*
X59443247Y-98466666D02*
X59443247Y-98733332D01*
X59862295Y-97323808D02*
X59062295Y-97323808D01*
X59062295Y-97323808D02*
X59062295Y-97133332D01*
X59062295Y-97133332D02*
X59100390Y-97019046D01*
X59100390Y-97019046D02*
X59176580Y-96942856D01*
X59176580Y-96942856D02*
X59252771Y-96904761D01*
X59252771Y-96904761D02*
X59405152Y-96866665D01*
X59405152Y-96866665D02*
X59519438Y-96866665D01*
X59519438Y-96866665D02*
X59671819Y-96904761D01*
X59671819Y-96904761D02*
X59748009Y-96942856D01*
X59748009Y-96942856D02*
X59824200Y-97019046D01*
X59824200Y-97019046D02*
X59862295Y-97133332D01*
X59862295Y-97133332D02*
X59862295Y-97323808D01*
X59633723Y-96561904D02*
X59633723Y-96180951D01*
X59862295Y-96638094D02*
X59062295Y-96371427D01*
X59062295Y-96371427D02*
X59862295Y-96104761D01*
X59062295Y-95952380D02*
X59062295Y-95495237D01*
X59862295Y-95723809D02*
X59062295Y-95723809D01*
X59633723Y-95266666D02*
X59633723Y-94885713D01*
X59862295Y-95342856D02*
X59062295Y-95076189D01*
X59062295Y-95076189D02*
X59862295Y-94809523D01*
%TO.C,R93*%
D11*
X130987258Y-102477500D02*
X130512742Y-102477500D01*
X130987258Y-103522500D02*
X130512742Y-103522500D01*
%TO.C,R27*%
X105237258Y-80477500D02*
X104762742Y-80477500D01*
X105237258Y-81522500D02*
X104762742Y-81522500D01*
%TO.C,C33*%
D12*
X106375000Y-82900000D02*
X106375000Y-85100000D01*
X106375000Y-85100000D02*
X108912500Y-85100000D01*
X108912500Y-82900000D02*
X106375000Y-82900000D01*
%TO.C,R25*%
D11*
X105262742Y-76477500D02*
X105737258Y-76477500D01*
X105262742Y-77522500D02*
X105737258Y-77522500D01*
%TO.C,C61*%
D12*
X105925000Y-100575000D02*
X105925000Y-102825000D01*
X107675000Y-100575000D02*
X105925000Y-100575000D01*
X107675000Y-102825000D02*
X107675000Y-100575000D01*
%TO.C,R33*%
D11*
X109237258Y-72477500D02*
X108762742Y-72477500D01*
X109237258Y-73522500D02*
X108762742Y-73522500D01*
%TO.C,R32*%
X108762742Y-76477500D02*
X109237258Y-76477500D01*
X108762742Y-77522500D02*
X109237258Y-77522500D01*
%TO.C,Q16*%
D12*
X105350018Y-70800094D02*
G75*
G02*
X104950222Y-70800094I-199898J0D01*
G01*
X104950222Y-70800094D02*
G75*
G02*
X105350018Y-70800094I199898J0D01*
G01*
%TO.C,U9*%
X109143000Y-114270000D02*
G75*
G02*
X108889000Y-114270000I-127000J0D01*
G01*
X108889000Y-114270000D02*
G75*
G02*
X109143000Y-114270000I127000J0D01*
G01*
%TO.C,R14*%
D11*
X88237258Y-78477500D02*
X87762742Y-78477500D01*
X88237258Y-79522500D02*
X87762742Y-79522500D01*
%TO.C,R100*%
X137762742Y-103477500D02*
X138237258Y-103477500D01*
X137762742Y-104522500D02*
X138237258Y-104522500D01*
%TO.C,U17*%
D12*
X84477780Y-129530092D02*
G75*
G02*
X84177552Y-129530092I-150114J0D01*
G01*
X84177552Y-129530092D02*
G75*
G02*
X84477780Y-129530092I150114J0D01*
G01*
X85245114Y-127423924D02*
G75*
G02*
X84944886Y-127423924I-150114J0D01*
G01*
X84944886Y-127423924D02*
G75*
G02*
X85245114Y-127423924I150114J0D01*
G01*
%TO.C,R18*%
D11*
X82012742Y-93477500D02*
X82487258Y-93477500D01*
X82012742Y-94522500D02*
X82487258Y-94522500D01*
%TO.C,C12*%
D12*
X71490000Y-96346100D02*
X71490000Y-98596100D01*
X73240000Y-96346100D02*
X71490000Y-96346100D01*
X73240000Y-98596100D02*
X73240000Y-96346100D01*
%TO.C,R56*%
D11*
X99762742Y-113477500D02*
X100237258Y-113477500D01*
X99762742Y-114522500D02*
X100237258Y-114522500D01*
%TO.C,R105*%
X68737258Y-94477500D02*
X68262742Y-94477500D01*
X68737258Y-95522500D02*
X68262742Y-95522500D01*
%TO.C,R70*%
X87737258Y-111477500D02*
X87262742Y-111477500D01*
X87737258Y-112522500D02*
X87262742Y-112522500D01*
%TO.C,C40*%
D12*
X104175000Y-121875000D02*
X106425000Y-121875000D01*
X106425000Y-120125000D02*
X104175000Y-120125000D01*
X106425000Y-121875000D02*
X106425000Y-120125000D01*
%TO.C,R59*%
D11*
X102762742Y-126477500D02*
X103237258Y-126477500D01*
X102762742Y-127522500D02*
X103237258Y-127522500D01*
%TO.C,R45*%
X120737258Y-126977500D02*
X120262742Y-126977500D01*
X120737258Y-128022500D02*
X120262742Y-128022500D01*
%TO.C,R2*%
X65762742Y-75477500D02*
X66237258Y-75477500D01*
X65762742Y-76522500D02*
X66237258Y-76522500D01*
%TO.C,R111*%
X75237258Y-101477500D02*
X74762742Y-101477500D01*
X75237258Y-102522500D02*
X74762742Y-102522500D01*
%TO.C,C36*%
D12*
X99425000Y-108875000D02*
X101675000Y-108875000D01*
X101675000Y-107125000D02*
X99425000Y-107125000D01*
X101675000Y-108875000D02*
X101675000Y-107125000D01*
%TO.C,C56*%
X63075000Y-115125000D02*
X63075000Y-116875000D01*
X63075000Y-116875000D02*
X65325000Y-116875000D01*
X65325000Y-115125000D02*
X63075000Y-115125000D01*
%TO.C,U16*%
X76420839Y-115921069D02*
X76493933Y-115698039D01*
X76493933Y-115698039D02*
X76728636Y-115698039D01*
X76610014Y-116059987D02*
X76420839Y-115921069D01*
X76672600Y-108659900D02*
X77434600Y-108659900D01*
X76672600Y-115314700D02*
X76672600Y-108659900D01*
X76728636Y-115698039D02*
X76801729Y-115921069D01*
X76801729Y-115921069D02*
X76612554Y-116059987D01*
X77104400Y-108659900D02*
X83302000Y-108659900D01*
X83302000Y-108659900D02*
X83302000Y-115314700D01*
X83302000Y-115314700D02*
X76672600Y-115314700D01*
%TO.C,C62*%
X91225000Y-95275000D02*
X91225000Y-98962500D01*
X93775000Y-95275000D02*
X91225000Y-95275000D01*
X93775000Y-98962500D02*
X93775000Y-95275000D01*
%TO.C,C41*%
X101075000Y-132125000D02*
X101075000Y-133875000D01*
X101075000Y-133875000D02*
X103325000Y-133875000D01*
X103325000Y-132125000D02*
X101075000Y-132125000D01*
%TO.C,R85*%
D11*
X115737258Y-132977500D02*
X115262742Y-132977500D01*
X115737258Y-134022500D02*
X115262742Y-134022500D01*
%TO.C,R15*%
X87762742Y-72477500D02*
X88237258Y-72477500D01*
X87762742Y-73522500D02*
X88237258Y-73522500D01*
%TO.C,C70*%
D12*
X88475000Y-102600100D02*
X88475000Y-104850100D01*
X90225000Y-102600100D02*
X88475000Y-102600100D01*
X90225000Y-104850100D02*
X90225000Y-102600100D01*
%TO.C,Q12*%
X129350018Y-111800094D02*
G75*
G02*
X128950222Y-111800094I-199898J0D01*
G01*
X128950222Y-111800094D02*
G75*
G02*
X129350018Y-111800094I199898J0D01*
G01*
%TO.C,C69*%
X76475000Y-102600100D02*
X76475000Y-104850100D01*
X78225000Y-102600100D02*
X76475000Y-102600100D01*
X78225000Y-104850100D02*
X78225000Y-102600100D01*
%TO.C,R48*%
D11*
X110762742Y-108477500D02*
X111237258Y-108477500D01*
X110762742Y-109522500D02*
X111237258Y-109522500D01*
%TO.C,R65*%
X105762742Y-133477500D02*
X106237258Y-133477500D01*
X105762742Y-134522500D02*
X106237258Y-134522500D01*
%TO.C,R108*%
X84012742Y-81477500D02*
X84487258Y-81477500D01*
%TO.C,C9*%
D12*
X75425000Y-64375000D02*
X77675000Y-64375000D01*
X77675000Y-62625000D02*
X75425000Y-62625000D01*
X77675000Y-64375000D02*
X77675000Y-62625000D01*
%TO.C,R68*%
D11*
X117262742Y-72977500D02*
X117737258Y-72977500D01*
X117262742Y-74022500D02*
X117737258Y-74022500D01*
%TO.C,R6*%
X65762742Y-77977500D02*
X66237258Y-77977500D01*
X65762742Y-79022500D02*
X66237258Y-79022500D01*
%TO.C,R44*%
X127262742Y-102227500D02*
X127737258Y-102227500D01*
X127262742Y-103272500D02*
X127737258Y-103272500D01*
%TO.C,Q13*%
D12*
X129350018Y-120800094D02*
G75*
G02*
X128950222Y-120800094I-199898J0D01*
G01*
X128950222Y-120800094D02*
G75*
G02*
X129350018Y-120800094I199898J0D01*
G01*
%TO.C,R11*%
D11*
X85762742Y-69477500D02*
X86237258Y-69477500D01*
X85762742Y-70522500D02*
X86237258Y-70522500D01*
%TO.C,R1*%
X86237258Y-63477500D02*
X85762742Y-63477500D01*
X86237258Y-64522500D02*
X85762742Y-64522500D01*
%TO.C,R94*%
X123512742Y-97477500D02*
X123987258Y-97477500D01*
X123512742Y-98522500D02*
X123987258Y-98522500D01*
%TO.C,Q9*%
D12*
X121350018Y-120800094D02*
G75*
G02*
X120950222Y-120800094I-199898J0D01*
G01*
X120950222Y-120800094D02*
G75*
G02*
X121350018Y-120800094I199898J0D01*
G01*
%TO.C,R80*%
D11*
X91762742Y-123227500D02*
X92237258Y-123227500D01*
X91762742Y-124272500D02*
X92237258Y-124272500D01*
%TO.C,R98*%
X124762742Y-99477500D02*
X125237258Y-99477500D01*
X124762742Y-100522500D02*
X125237258Y-100522500D01*
%TO.C,C4*%
D12*
X77075000Y-79125000D02*
X77075000Y-80875000D01*
X77075000Y-80875000D02*
X79155000Y-80875000D01*
X79325000Y-79125000D02*
X77075000Y-79125000D01*
%TO.C,R12*%
D11*
X74737258Y-82977500D02*
X74262742Y-82977500D01*
X74737258Y-84022500D02*
X74262742Y-84022500D01*
%TO.C,R49*%
X110762742Y-117477500D02*
X111237258Y-117477500D01*
X110762742Y-118522500D02*
X111237258Y-118522500D01*
%TO.C,C2*%
D12*
X69525000Y-70375000D02*
X69525000Y-72625000D01*
X69525000Y-72625000D02*
X71275000Y-72625000D01*
X71275000Y-72625000D02*
X71275000Y-70375000D01*
%TO.C,R43*%
D11*
X123762742Y-126977500D02*
X124237258Y-126977500D01*
X123762742Y-128022500D02*
X124237258Y-128022500D01*
%TO.C,R40*%
X120762742Y-83477500D02*
X121237258Y-83477500D01*
X120762742Y-84522500D02*
X121237258Y-84522500D01*
%TO.C,C21*%
D12*
X97287500Y-71775000D02*
X100975000Y-71775000D01*
X100975000Y-69225000D02*
X97287500Y-69225000D01*
X100975000Y-71775000D02*
X100975000Y-69225000D01*
%TO.C,R53*%
D11*
X136762742Y-118477500D02*
X137237258Y-118477500D01*
X136762742Y-119522500D02*
X137237258Y-119522500D01*
%TO.C,C37*%
D12*
X103425000Y-113875000D02*
X105675000Y-113875000D01*
X105675000Y-112125000D02*
X103425000Y-112125000D01*
X105675000Y-113875000D02*
X105675000Y-112125000D01*
%TO.C,Q8*%
X121350018Y-111800094D02*
G75*
G02*
X120950222Y-111800094I-199898J0D01*
G01*
X120950222Y-111800094D02*
G75*
G02*
X121350018Y-111800094I199898J0D01*
G01*
%TO.C,R72*%
D11*
X72262742Y-113227500D02*
X72737258Y-113227500D01*
%TO.C,C47*%
D12*
X70537500Y-117025000D02*
X74225000Y-117025000D01*
X74225000Y-114475000D02*
X70537500Y-114475000D01*
X74225000Y-117025000D02*
X74225000Y-114475000D01*
%TO.C,R102*%
D11*
X85762742Y-96977500D02*
X86237258Y-96977500D01*
X85762742Y-98022500D02*
X86237258Y-98022500D01*
%TO.C,R83*%
X115012742Y-127477500D02*
X115487258Y-127477500D01*
X115012742Y-128522500D02*
X115487258Y-128522500D01*
%TO.C,R86*%
X118512742Y-133477500D02*
X118987258Y-133477500D01*
X118512742Y-134522500D02*
X118987258Y-134522500D01*
D13*
%TO.C,J7*%
X87000022Y-141499995D02*
X108999978Y-141499995D01*
X108999978Y-136500005D01*
X87000022Y-136500005D01*
X87000022Y-141499995D01*
%TO.C,Q11*%
D12*
X113350018Y-119800094D02*
G75*
G02*
X112950222Y-119800094I-199898J0D01*
G01*
X112950222Y-119800094D02*
G75*
G02*
X113350018Y-119800094I199898J0D01*
G01*
%TO.C,R9*%
D11*
X75762742Y-69477500D02*
X76237258Y-69477500D01*
X75762742Y-70522500D02*
X76237258Y-70522500D01*
%TO.C,C29*%
D12*
X105875000Y-87375000D02*
X105875000Y-89625000D01*
X105875000Y-89625000D02*
X107625000Y-89625000D01*
X107625000Y-89625000D02*
X107625000Y-87375000D01*
%TO.C,C49*%
X83575000Y-118125000D02*
X83575000Y-119875000D01*
X83575000Y-119875000D02*
X85825000Y-119875000D01*
X85825000Y-118125000D02*
X83575000Y-118125000D01*
%TO.C,C14*%
X71075000Y-87875000D02*
X73325000Y-87875000D01*
X73325000Y-86125000D02*
X71075000Y-86125000D01*
X73325000Y-87875000D02*
X73325000Y-86125000D01*
%TO.C,C11*%
X73725000Y-96275000D02*
X73725000Y-99962500D01*
X76275000Y-96275000D02*
X73725000Y-96275000D01*
X76275000Y-99962500D02*
X76275000Y-96275000D01*
%TO.C,R71*%
D11*
X87262742Y-109477500D02*
X87737258Y-109477500D01*
X87262742Y-110522500D02*
X87737258Y-110522500D01*
%TO.C,C50*%
D12*
X90575000Y-120125000D02*
X90575000Y-121875000D01*
X90575000Y-121875000D02*
X92825000Y-121875000D01*
X92825000Y-120125000D02*
X90575000Y-120125000D01*
%TO.C,U21*%
X59443114Y-113167000D02*
G75*
G02*
X59142886Y-113167000I-150114J0D01*
G01*
X59142886Y-113167000D02*
G75*
G02*
X59443114Y-113167000I150114J0D01*
G01*
X60205114Y-111269112D02*
G75*
G02*
X59904886Y-111269112I-150114J0D01*
G01*
X59904886Y-111269112D02*
G75*
G02*
X60205114Y-111269112I150114J0D01*
G01*
%TO.C,R46*%
D11*
X110762742Y-106477500D02*
X111237258Y-106477500D01*
X110762742Y-107522500D02*
X111237258Y-107522500D01*
%TO.C,C45*%
D12*
X80375000Y-117825000D02*
X80375000Y-120075000D01*
X82125000Y-117825000D02*
X80375000Y-117825000D01*
X82125000Y-120075000D02*
X82125000Y-117825000D01*
%TO.C,R87*%
D11*
X121762742Y-133477500D02*
X122237258Y-133477500D01*
X121762742Y-134522500D02*
X122237258Y-134522500D01*
%TO.C,C42*%
D12*
X113575000Y-65625000D02*
X113575000Y-67375000D01*
X113575000Y-67375000D02*
X115825000Y-67375000D01*
X115825000Y-65625000D02*
X113575000Y-65625000D01*
%TO.C,C57*%
X59575000Y-115125000D02*
X59575000Y-116875000D01*
X59575000Y-116875000D02*
X61825000Y-116875000D01*
X61825000Y-115125000D02*
X59575000Y-115125000D01*
%TO.C,C25*%
X103400000Y-100375000D02*
X103400000Y-102912500D01*
X105240000Y-100375000D02*
X103400000Y-100375000D01*
X105600000Y-102912500D02*
X105600000Y-100554823D01*
%TO.C,C22*%
X136249797Y-78000000D02*
G75*
G02*
X123749949Y-78000000I-6249924J0D01*
G01*
X123749949Y-78000000D02*
G75*
G02*
X136249797Y-78000000I6249924J0D01*
G01*
%TO.C,C72*%
X75925000Y-84375000D02*
X73675000Y-84375000D01*
X75925000Y-85925000D02*
X75925000Y-84375000D01*
%TO.C,Q10*%
X113350018Y-110800094D02*
G75*
G02*
X112950222Y-110800094I-199898J0D01*
G01*
X112950222Y-110800094D02*
G75*
G02*
X113350018Y-110800094I199898J0D01*
G01*
%TO.C,R34*%
D11*
X95262742Y-94477500D02*
X95737258Y-94477500D01*
X95262742Y-95522500D02*
X95737258Y-95522500D01*
%TO.C,C71*%
D12*
X73575000Y-103625000D02*
X73575000Y-105375000D01*
X73575000Y-105375000D02*
X75825000Y-105375000D01*
X75825000Y-103625000D02*
X73575000Y-103625000D01*
%TO.C,C16*%
X83587500Y-84850000D02*
X86125000Y-84850000D01*
X86125000Y-82650000D02*
X83587500Y-82650000D01*
X86125000Y-84850000D02*
X86125000Y-82650000D01*
%TO.C,C10*%
X83175000Y-77875000D02*
X85425000Y-77875000D01*
X85425000Y-76125000D02*
X83175000Y-76125000D01*
X85425000Y-77875000D02*
X85425000Y-76125000D01*
%TO.C,C48*%
X86075000Y-113125000D02*
X86075000Y-114875000D01*
X86075000Y-114875000D02*
X88325000Y-114875000D01*
X88325000Y-113125000D02*
X86075000Y-113125000D01*
%TO.C,U24*%
X88979936Y-100910082D02*
G75*
G02*
X88879860Y-100910082I-50038J0D01*
G01*
X88879860Y-100910082D02*
G75*
G02*
X88979936Y-100910082I50038J0D01*
G01*
X89270004Y-100260096D02*
G75*
G02*
X89169928Y-100260096I-50038J0D01*
G01*
X89169928Y-100260096D02*
G75*
G02*
X89270004Y-100260096I50038J0D01*
G01*
%TO.C,C38*%
X91175000Y-110875000D02*
X93425000Y-110875000D01*
X93425000Y-109125000D02*
X91175000Y-109125000D01*
X93425000Y-110875000D02*
X93425000Y-109125000D01*
%TO.C,C64*%
X89075000Y-84825000D02*
X89075000Y-86575000D01*
X89075000Y-86575000D02*
X91325000Y-86575000D01*
X91325000Y-84825000D02*
X89075000Y-84825000D01*
%TO.C,R104*%
D11*
X93737258Y-92477500D02*
X93262742Y-92477500D01*
X93737258Y-93522500D02*
X93262742Y-93522500D01*
%TO.C,R28*%
X92762742Y-74477500D02*
X93237258Y-74477500D01*
X92762742Y-75522500D02*
X93237258Y-75522500D01*
%TO.C,R95*%
X140012742Y-91477500D02*
X140487258Y-91477500D01*
X140012742Y-92522500D02*
X140487258Y-92522500D01*
%TO.C,R20*%
X102762742Y-70477500D02*
X103237258Y-70477500D01*
X102762742Y-71522500D02*
X103237258Y-71522500D01*
%TO.C,R21*%
X96262742Y-74477500D02*
X96737258Y-74477500D01*
X96262742Y-75522500D02*
X96737258Y-75522500D01*
%TO.C,U19*%
D12*
X66245114Y-124516000D02*
G75*
G02*
X65944886Y-124516000I-150114J0D01*
G01*
X65944886Y-124516000D02*
G75*
G02*
X66245114Y-124516000I150114J0D01*
G01*
%TO.C,C13*%
X73575000Y-86125000D02*
X73575000Y-87875000D01*
X73575000Y-87875000D02*
X75825000Y-87875000D01*
X75825000Y-86125000D02*
X73575000Y-86125000D01*
%TO.C,R91*%
D11*
X134237258Y-102477500D02*
X133762742Y-102477500D01*
X134237258Y-103522500D02*
X133762742Y-103522500D01*
%TO.C,R90*%
X126762742Y-130477500D02*
X127237258Y-130477500D01*
X126762742Y-131522500D02*
X127237258Y-131522500D01*
%TO.C,R30*%
X109237258Y-74477500D02*
X108762742Y-74477500D01*
X109237258Y-75522500D02*
X108762742Y-75522500D01*
%TO.C,R3*%
X75762742Y-65477500D02*
X76237258Y-65477500D01*
X75762742Y-66522500D02*
X76237258Y-66522500D01*
%TO.C,R76*%
X77762742Y-130977500D02*
X78237258Y-130977500D01*
X77762742Y-132022500D02*
X78237258Y-132022500D01*
%TO.C,C1*%
D12*
X68175000Y-81875000D02*
X70425000Y-81875000D01*
X70425000Y-80125000D02*
X68175000Y-80125000D01*
X70425000Y-81875000D02*
X70425000Y-80125000D01*
%TO.C,R16*%
D11*
X79237258Y-92227500D02*
X78762742Y-92227500D01*
X79237258Y-93272500D02*
X78762742Y-93272500D01*
%TO.C,R107*%
X77512742Y-83477500D02*
X77987258Y-83477500D01*
X77512742Y-84522500D02*
X77987258Y-84522500D01*
%TO.C,R64*%
X98762742Y-127477500D02*
X99237258Y-127477500D01*
X98762742Y-128522500D02*
X99237258Y-128522500D01*
%TO.C,R63*%
X107262742Y-116477500D02*
X107737258Y-116477500D01*
X107262742Y-117522500D02*
X107737258Y-117522500D01*
%TO.C,C52*%
D12*
X99125000Y-104125000D02*
X99125000Y-106375000D01*
X100875000Y-104125000D02*
X99125000Y-104125000D01*
X100875000Y-106375000D02*
X100875000Y-104125000D01*
%TO.C,R77*%
D11*
X95487258Y-127477500D02*
X95012742Y-127477500D01*
X95487258Y-128522500D02*
X95012742Y-128522500D01*
%TO.C,R17*%
X77512742Y-96727500D02*
X77987258Y-96727500D01*
X77512742Y-97772500D02*
X77987258Y-97772500D01*
%TO.C,C35*%
D12*
X108375000Y-103400000D02*
X108375000Y-105600000D01*
X108375000Y-105600000D02*
X110912500Y-105600000D01*
X110912500Y-103400000D02*
X108375000Y-103400000D01*
%TO.C,C63*%
X87490000Y-96116100D02*
X87490000Y-97346100D01*
X89240000Y-95096100D02*
X87750000Y-95096100D01*
X89240000Y-97346100D02*
X89240000Y-95096100D01*
%TO.C,C26*%
X108125000Y-100575000D02*
X108125000Y-102825000D01*
X109875000Y-100575000D02*
X108125000Y-100575000D01*
X109875000Y-102825000D02*
X109875000Y-100575000D01*
%TO.C,C60*%
X59075000Y-104325000D02*
X59075000Y-106075000D01*
X59075000Y-106075000D02*
X61325000Y-106075000D01*
X61325000Y-104325000D02*
X59075000Y-104325000D01*
%TO.C,Q6*%
X113350018Y-87800094D02*
G75*
G02*
X112950222Y-87800094I-199898J0D01*
G01*
X112950222Y-87800094D02*
G75*
G02*
X113350018Y-87800094I199898J0D01*
G01*
%TO.C,Q3*%
X69865032Y-83099848D02*
X69865032Y-83899923D01*
X69865032Y-83899923D02*
X69975039Y-83899923D01*
X69975039Y-83099848D02*
X69865032Y-83099848D01*
X69975090Y-83899923D02*
X70146794Y-83899923D01*
X70145372Y-83099899D02*
X69975090Y-83099899D01*
X70353423Y-83899923D02*
X70424975Y-83899923D01*
X70353423Y-83899923D02*
X70462262Y-83899923D01*
X70353423Y-83899923D02*
X70625152Y-83899923D01*
X70404706Y-83099899D02*
X70354922Y-83099899D01*
X70625965Y-83099899D02*
X70354922Y-83099899D01*
X70625965Y-83099899D02*
X70354922Y-83099899D01*
X70974910Y-83899923D02*
X71125100Y-83899923D01*
X71125100Y-83099899D02*
X70974097Y-83099899D01*
X71125100Y-83099899D02*
X70974097Y-83099899D01*
X71125100Y-83899923D02*
X71125100Y-83099899D01*
%TO.C,R79*%
D11*
X88762742Y-131977500D02*
X89237258Y-131977500D01*
X88762742Y-133022500D02*
X89237258Y-133022500D01*
%TO.C,C34*%
D12*
X95875000Y-103900000D02*
X95875000Y-106100000D01*
X95875000Y-106100000D02*
X98412500Y-106100000D01*
X98412500Y-103900000D02*
X95875000Y-103900000D01*
%TO.C,R35*%
D11*
X106262742Y-104477500D02*
X106737258Y-104477500D01*
X106262742Y-105522500D02*
X106737258Y-105522500D01*
%TO.C,R41*%
X123712742Y-94477500D02*
X124187258Y-94477500D01*
X123712742Y-95522500D02*
X124187258Y-95522500D01*
%TO.C,R103*%
X88237258Y-81477500D02*
X87762742Y-81477500D01*
X88237258Y-82522500D02*
X87762742Y-82522500D01*
%TO.C,R61*%
X112762742Y-121477500D02*
X113237258Y-121477500D01*
X112762742Y-122522500D02*
X113237258Y-122522500D01*
%TO.C,C66*%
D12*
X93375000Y-88900000D02*
X93375000Y-91100000D01*
X93375000Y-91100000D02*
X95912500Y-91100000D01*
X95912500Y-88900000D02*
X93375000Y-88900000D01*
%TO.C,C18*%
X104075000Y-72125000D02*
X104075000Y-73875000D01*
X104075000Y-73875000D02*
X106325000Y-73875000D01*
X106325000Y-72125000D02*
X104075000Y-72125000D01*
%TO.C,R89*%
D11*
X125012742Y-133477500D02*
X125487258Y-133477500D01*
X125012742Y-134522500D02*
X125487258Y-134522500D01*
%TO.C,R51*%
X136762742Y-116477500D02*
X137237258Y-116477500D01*
X136762742Y-117522500D02*
X137237258Y-117522500D01*
%TO.C,C23*%
D12*
X138249797Y-92000000D02*
G75*
G02*
X125749949Y-92000000I-6249924J0D01*
G01*
X125749949Y-92000000D02*
G75*
G02*
X138249797Y-92000000I6249924J0D01*
G01*
%TO.C,C54*%
X67775000Y-129375000D02*
X70025000Y-129375000D01*
X70025000Y-127625000D02*
X67775000Y-127625000D01*
X70025000Y-129375000D02*
X70025000Y-127625000D01*
%TO.C,R82*%
D11*
X116487258Y-120727500D02*
X116012742Y-120727500D01*
X116487258Y-121772500D02*
X116012742Y-121772500D01*
%TO.C,R38*%
X111262742Y-83227500D02*
X111737258Y-83227500D01*
X111262742Y-84272500D02*
X111737258Y-84272500D01*
%TO.C,R73*%
X91762742Y-127227500D02*
X92237258Y-127227500D01*
X91762742Y-128272500D02*
X92237258Y-128272500D01*
%TO.C,R47*%
X110762742Y-115477500D02*
X111237258Y-115477500D01*
X110762742Y-116522500D02*
X111237258Y-116522500D01*
%TO.C,U1*%
D12*
X68703457Y-77404873D02*
G75*
G02*
X68503305Y-77404873I-100076J0D01*
G01*
X68503305Y-77404873D02*
G75*
G02*
X68703457Y-77404873I100076J0D01*
G01*
%TO.C,C8*%
X75125000Y-79325000D02*
X75125000Y-81575000D01*
X76855000Y-79325000D02*
X75125000Y-79325000D01*
X76875000Y-81575000D02*
X76875000Y-80975000D01*
%TO.C,C3*%
X74575000Y-71125000D02*
X74575000Y-72875000D01*
X74575000Y-72875000D02*
X76825000Y-72875000D01*
X76825000Y-71125000D02*
X74575000Y-71125000D01*
%TO.C,R13*%
D11*
X82762742Y-71977500D02*
X83237258Y-71977500D01*
%TO.C,R50*%
X136762742Y-107477500D02*
X137237258Y-107477500D01*
X136762742Y-108522500D02*
X137237258Y-108522500D01*
%TO.C,U6*%
D12*
X99222000Y-77540127D02*
G75*
G02*
X98968000Y-77540127I-127000J0D01*
G01*
X98968000Y-77540127D02*
G75*
G02*
X99222000Y-77540127I127000J0D01*
G01*
%TO.C,C46*%
X76375000Y-117825000D02*
X76375000Y-120075000D01*
X78125000Y-117825000D02*
X76375000Y-117825000D01*
X78125000Y-120075000D02*
X78125000Y-117825000D01*
%TO.C,C28*%
X113475000Y-92825000D02*
X113475000Y-95075000D01*
X115225000Y-92825000D02*
X113475000Y-92825000D01*
X115225000Y-95075000D02*
X115225000Y-92825000D01*
%TO.C,R75*%
D11*
X59762742Y-122477500D02*
X60237258Y-122477500D01*
X59762742Y-123522500D02*
X60237258Y-123522500D01*
%TO.C,C7*%
D12*
X73125000Y-79325000D02*
X73125000Y-81575000D01*
X74875000Y-79325000D02*
X73125000Y-79325000D01*
X74875000Y-81575000D02*
X74875000Y-79325000D01*
%TO.C,R4*%
D11*
X86237258Y-65477500D02*
X85762742Y-65477500D01*
X86237258Y-66522500D02*
X85762742Y-66522500D01*
%TO.C,R106*%
X69762742Y-103477500D02*
X70237258Y-103477500D01*
X69762742Y-104522500D02*
X70237258Y-104522500D01*
%TO.C,Q7*%
D12*
X116850018Y-96800094D02*
G75*
G02*
X116450222Y-96800094I-199898J0D01*
G01*
X116450222Y-96800094D02*
G75*
G02*
X116850018Y-96800094I199898J0D01*
G01*
%TO.C,C53*%
X102475000Y-106175000D02*
X104725000Y-106175000D01*
X104725000Y-104425000D02*
X102475000Y-104425000D01*
X104725000Y-106175000D02*
X104725000Y-104425000D01*
%TO.C,C24*%
X107675000Y-79875000D02*
X109925000Y-79875000D01*
X109925000Y-78125000D02*
X107675000Y-78125000D01*
X109925000Y-79875000D02*
X109925000Y-78125000D01*
%TO.C,U23*%
X76979936Y-100910082D02*
G75*
G02*
X76879860Y-100910082I-50038J0D01*
G01*
X76879860Y-100910082D02*
G75*
G02*
X76979936Y-100910082I50038J0D01*
G01*
X77270004Y-100260096D02*
G75*
G02*
X77169928Y-100260096I-50038J0D01*
G01*
X77169928Y-100260096D02*
G75*
G02*
X77270004Y-100260096I50038J0D01*
G01*
%TO.C,C39*%
X91175000Y-115875000D02*
X93425000Y-115875000D01*
X93425000Y-114125000D02*
X91175000Y-114125000D01*
X93425000Y-115875000D02*
X93425000Y-114125000D01*
%TO.C,Q2*%
X81865032Y-79599848D02*
X81865032Y-80399923D01*
X81865032Y-80399923D02*
X81975039Y-80399923D01*
X81975039Y-79599848D02*
X81865032Y-79599848D01*
X81975090Y-80399923D02*
X82146794Y-80399923D01*
X82145372Y-79599899D02*
X81975090Y-79599899D01*
X82353423Y-80399923D02*
X82424975Y-80399923D01*
X82353423Y-80399923D02*
X82462262Y-80399923D01*
X82353423Y-80399923D02*
X82625152Y-80399923D01*
X82404706Y-79599899D02*
X82354922Y-79599899D01*
X82625965Y-79599899D02*
X82354922Y-79599899D01*
X82625965Y-79599899D02*
X82354922Y-79599899D01*
X82974910Y-80399923D02*
X83125100Y-80399923D01*
X83125100Y-79599899D02*
X82974097Y-79599899D01*
X83125100Y-79599899D02*
X82974097Y-79599899D01*
X83125100Y-80399923D02*
X83125100Y-79599899D01*
%TO.C,Q4*%
X89350018Y-70800094D02*
G75*
G02*
X88950222Y-70800094I-199898J0D01*
G01*
X88950222Y-70800094D02*
G75*
G02*
X89350018Y-70800094I199898J0D01*
G01*
%TO.C,C6*%
X71125000Y-78325000D02*
X71125000Y-80575000D01*
X72875000Y-78325000D02*
X71125000Y-78325000D01*
X72875000Y-80575000D02*
X72875000Y-78325000D01*
%TO.C,C27*%
X107900000Y-87087500D02*
X107900000Y-89625000D01*
X107900000Y-89625000D02*
X110100000Y-89625000D01*
X110100000Y-89625000D02*
X110100000Y-87087500D01*
%TO.C,R39*%
D11*
X123712742Y-92477500D02*
X124187258Y-92477500D01*
X123712742Y-93522500D02*
X124187258Y-93522500D01*
%TO.C,C65*%
D12*
X86375000Y-86475000D02*
X88625000Y-86475000D01*
X88625000Y-84725000D02*
X86375000Y-84725000D01*
X88625000Y-86475000D02*
X88625000Y-84725000D01*
%TO.C,R84*%
D11*
X112012742Y-133477500D02*
X112487258Y-133477500D01*
X112012742Y-134522500D02*
X112487258Y-134522500D01*
%TO.C,R29*%
X102487258Y-85227500D02*
X102012742Y-85227500D01*
X102487258Y-86272500D02*
X102012742Y-86272500D01*
%TO.C,C51*%
D12*
X81875000Y-121825000D02*
X81875000Y-124075000D01*
X83625000Y-121825000D02*
X81875000Y-121825000D01*
X83625000Y-124075000D02*
X83625000Y-121825000D01*
%TO.C,U20*%
X76245114Y-127016000D02*
G75*
G02*
X75944886Y-127016000I-150114J0D01*
G01*
X75944886Y-127016000D02*
G75*
G02*
X76245114Y-127016000I150114J0D01*
G01*
%TO.C,C19*%
X100675000Y-81625000D02*
X102925000Y-81625000D01*
X102925000Y-79875000D02*
X100675000Y-79875000D01*
X102925000Y-81625000D02*
X102925000Y-79875000D01*
%TO.C,C15*%
X79375000Y-82900000D02*
X79375000Y-84340000D01*
X79734646Y-85100000D02*
X80074311Y-85100000D01*
X80573819Y-85100000D02*
X81912500Y-85100000D01*
X81912500Y-82900000D02*
X79375000Y-82900000D01*
%TO.C,C17*%
X79375000Y-80900000D02*
X79375000Y-82680000D01*
X81912500Y-80900000D02*
X79375000Y-80900000D01*
%TO.C,C68*%
X96375000Y-78900000D02*
X96375000Y-80310000D01*
X96674705Y-81100000D02*
X98912500Y-81100000D01*
X98912500Y-78900000D02*
X96375000Y-78900000D01*
%TO.C,C73*%
X68075000Y-100875000D02*
X68075000Y-102625000D01*
X68075000Y-102625000D02*
X70325000Y-102625000D01*
X70325000Y-100875000D02*
X68075000Y-100875000D01*
%TO.C,R67*%
D11*
X98762742Y-125477500D02*
X99237258Y-125477500D01*
X98762742Y-126522500D02*
X99237258Y-126522500D01*
%TO.C,R37*%
X111737258Y-84977500D02*
X111262742Y-84977500D01*
X111737258Y-86022500D02*
X111262742Y-86022500D01*
%TO.C,R81*%
X104262742Y-114727500D02*
X104737258Y-114727500D01*
X104262742Y-115772500D02*
X104737258Y-115772500D01*
%TO.C,C44*%
D12*
X78375000Y-117825000D02*
X78375000Y-120075000D01*
X80125000Y-117825000D02*
X78375000Y-117825000D01*
X80125000Y-120075000D02*
X80125000Y-117825000D01*
%TO.C,R24*%
D11*
X96262742Y-72477500D02*
X96737258Y-72477500D01*
X96262742Y-73522500D02*
X96737258Y-73522500D01*
%TO.C,R22*%
X105262742Y-74477500D02*
X105737258Y-74477500D01*
X105262742Y-75522500D02*
X105737258Y-75522500D01*
%TO.C,R19*%
X101262742Y-78477500D02*
X101737258Y-78477500D01*
X101262742Y-79522500D02*
X101737258Y-79522500D01*
%TO.C,R78*%
X102262742Y-134227500D02*
X102737258Y-134227500D01*
X102262742Y-135272500D02*
X102737258Y-135272500D01*
%TO.C,C32*%
D12*
X113875000Y-97400000D02*
X113875000Y-99600000D01*
X113875000Y-99600000D02*
X116412500Y-99600000D01*
X116412500Y-97400000D02*
X113875000Y-97400000D01*
%TO.C,U3*%
X79245114Y-67016000D02*
G75*
G02*
X78944886Y-67016000I-150114J0D01*
G01*
X78944886Y-67016000D02*
G75*
G02*
X79245114Y-67016000I150114J0D01*
G01*
%TO.C,R74*%
D11*
X95012742Y-96227500D02*
X95487258Y-96227500D01*
X95012742Y-97272500D02*
X95487258Y-97272500D01*
%TO.C,R26*%
X104762742Y-78477500D02*
X105237258Y-78477500D01*
X104762742Y-79522500D02*
X105237258Y-79522500D01*
%TO.C,R58*%
X99762742Y-111477500D02*
X100237258Y-111477500D01*
X99762742Y-112522500D02*
X100237258Y-112522500D01*
%TO.C,R60*%
X107262742Y-118477500D02*
X107737258Y-118477500D01*
X107262742Y-119522500D02*
X107737258Y-119522500D01*
%TO.C,R101*%
X140012742Y-96477500D02*
X140487258Y-96477500D01*
X140012742Y-97522500D02*
X140487258Y-97522500D01*
%TO.C,SW1*%
D12*
X82899922Y-140000000D02*
G75*
G02*
X81100078Y-140000000I-899922J0D01*
G01*
X81100078Y-140000000D02*
G75*
G02*
X82899922Y-140000000I899922J0D01*
G01*
%TO.C,R88*%
D11*
X103762742Y-110477500D02*
X104237258Y-110477500D01*
X103762742Y-111522500D02*
X104237258Y-111522500D01*
%TO.C,R31*%
X92762742Y-72477500D02*
X93237258Y-72477500D01*
X92762742Y-73522500D02*
X93237258Y-73522500D01*
%TO.C,C20*%
D12*
X91575000Y-76305000D02*
X91575000Y-77875000D01*
X91575000Y-77875000D02*
X93825000Y-77875000D01*
X93825000Y-76125000D02*
X91685000Y-76125000D01*
%TO.C,C43*%
X114125000Y-72575000D02*
X114125000Y-74825000D01*
X115875000Y-72575000D02*
X114125000Y-72575000D01*
X115875000Y-74825000D02*
X115875000Y-72575000D01*
%TO.C,C67*%
X93087500Y-81100000D02*
X95235384Y-81100000D01*
X95625000Y-78900000D02*
X93087500Y-78900000D01*
X95625000Y-80360000D02*
X95625000Y-78900000D01*
%TO.C,C30*%
X102875000Y-82900000D02*
X102875000Y-85100000D01*
X102875000Y-85100000D02*
X105412500Y-85100000D01*
X105412500Y-82900000D02*
X102875000Y-82900000D01*
%TO.C,R8*%
D11*
X79737258Y-71977500D02*
X79262742Y-71977500D01*
%TO.C,R5*%
X75762742Y-67477500D02*
X76237258Y-67477500D01*
X75762742Y-68522500D02*
X76237258Y-68522500D01*
%TO.C,R97*%
X137262742Y-120477500D02*
X137737258Y-120477500D01*
X137262742Y-121522500D02*
X137737258Y-121522500D01*
%TO.C,C58*%
D12*
X63075000Y-117125000D02*
X63075000Y-118875000D01*
X63075000Y-118875000D02*
X65325000Y-118875000D01*
X65325000Y-117125000D02*
X63075000Y-117125000D01*
%TO.C,R69*%
D11*
X119762742Y-70977500D02*
X120237258Y-70977500D01*
X119762742Y-72022500D02*
X120237258Y-72022500D01*
%TO.C,R96*%
X127762742Y-126227500D02*
X128237258Y-126227500D01*
X127762742Y-127272500D02*
X128237258Y-127272500D01*
%TO.C,R52*%
X136762742Y-109477500D02*
X137237258Y-109477500D01*
X136762742Y-110522500D02*
X137237258Y-110522500D01*
%TO.C,U7*%
D14*
X105600018Y-100299964D02*
G75*
G02*
X105399866Y-100299964I-100076J0D01*
G01*
X105399866Y-100299964D02*
G75*
G02*
X105600018Y-100299964I100076J0D01*
G01*
D15*
X105728796Y-97671318D02*
G75*
G02*
X105428568Y-97671318I-150114J0D01*
G01*
X105428568Y-97671318D02*
G75*
G02*
X105728796Y-97671318I150114J0D01*
G01*
%TO.C,C55*%
D12*
X72425000Y-124375000D02*
X74675000Y-124375000D01*
X74675000Y-122625000D02*
X72425000Y-122625000D01*
X74675000Y-124375000D02*
X74675000Y-122625000D01*
%TO.C,R99*%
D11*
X132262742Y-98727500D02*
X132737258Y-98727500D01*
X132262742Y-99772500D02*
X132737258Y-99772500D01*
%TO.C,R57*%
X91762742Y-112477500D02*
X92237258Y-112477500D01*
X91762742Y-113522500D02*
X92237258Y-113522500D01*
%TO.C,R62*%
X112237258Y-126477500D02*
X111762742Y-126477500D01*
X112237258Y-127522500D02*
X111762742Y-127522500D01*
%TO.C,R36*%
X114662742Y-88227500D02*
X115137258Y-88227500D01*
X114662742Y-89272500D02*
X115137258Y-89272500D01*
%TO.C,R7*%
X81762742Y-70227500D02*
X82237258Y-70227500D01*
X81762742Y-71272500D02*
X82237258Y-71272500D01*
%TO.C,R55*%
X95762742Y-116477500D02*
X96237258Y-116477500D01*
X95762742Y-117522500D02*
X96237258Y-117522500D01*
%TO.C,R23*%
X96737258Y-76477500D02*
X96262742Y-76477500D01*
X96737258Y-77522500D02*
X96262742Y-77522500D01*
%TO.C,R54*%
X99762742Y-109477500D02*
X100237258Y-109477500D01*
X99762742Y-110522500D02*
X100237258Y-110522500D01*
%TO.C,C5*%
D12*
X79275000Y-73225000D02*
X79275000Y-75775000D01*
X79275000Y-75775000D02*
X82962500Y-75775000D01*
X82962500Y-73225000D02*
X79275000Y-73225000D01*
%TO.C,C31*%
X94675000Y-99375000D02*
X96925000Y-99375000D01*
X96925000Y-97625000D02*
X94675000Y-97625000D01*
X96925000Y-99375000D02*
X96925000Y-97625000D01*
%TO.C,U2*%
X74249940Y-78389886D02*
G75*
G02*
X74049788Y-78389886I-100076J0D01*
G01*
X74049788Y-78389886D02*
G75*
G02*
X74249940Y-78389886I100076J0D01*
G01*
%TO.C,U15*%
X114481842Y-71301496D02*
G75*
G02*
X114181614Y-71301496I-150114J0D01*
G01*
X114181614Y-71301496D02*
G75*
G02*
X114481842Y-71301496I150114J0D01*
G01*
%TO.C,R92*%
D11*
X138237258Y-105477500D02*
X137762742Y-105477500D01*
X138237258Y-106522500D02*
X137762742Y-106522500D01*
%TO.C,U18*%
D12*
X101829892Y-98889995D02*
G75*
G02*
X101430096Y-98889995I-199898J0D01*
G01*
X101430096Y-98889995D02*
G75*
G02*
X101829892Y-98889995I199898J0D01*
G01*
%TO.C,D15*%
X67960811Y-99689203D02*
X67960811Y-97910797D01*
X71039189Y-99689203D02*
X71039189Y-97910797D01*
X67981842Y-100101496D02*
G75*
G02*
X67681614Y-100101496I-150114J0D01*
G01*
X67681614Y-100101496D02*
G75*
G02*
X67981842Y-100101496I150114J0D01*
G01*
%TO.C,C59*%
X59575000Y-117125000D02*
X59575000Y-118875000D01*
X59575000Y-118875000D02*
X61825000Y-118875000D01*
X61825000Y-117125000D02*
X59575000Y-117125000D01*
%TO.C,R42*%
D11*
X123762742Y-101977500D02*
X124237258Y-101977500D01*
X123762742Y-103022500D02*
X124237258Y-103022500D01*
%TO.C,U8*%
D12*
X105143000Y-109270000D02*
G75*
G02*
X104889000Y-109270000I-127000J0D01*
G01*
X104889000Y-109270000D02*
G75*
G02*
X105143000Y-109270000I127000J0D01*
G01*
%TO.C,R66*%
D11*
X87737258Y-133727500D02*
X87262742Y-133727500D01*
X87737258Y-134772500D02*
X87262742Y-134772500D01*
%TD*%
%LPC*%
D16*
%TO.C,R93*%
X131575000Y-103000000D03*
X129925000Y-103000000D03*
%TD*%
%TO.C,R27*%
X105825000Y-81000000D03*
X104175000Y-81000000D03*
%TD*%
D17*
%TO.C,C33*%
X107087500Y-84000000D03*
X108912500Y-84000000D03*
%TD*%
D18*
%TO.C,Q14*%
X100000002Y-116050040D03*
X100000002Y-117949960D03*
X101999998Y-117000000D03*
%TD*%
D16*
%TO.C,R25*%
X104675000Y-77000000D03*
X106325000Y-77000000D03*
%TD*%
D19*
%TO.C,C61*%
X106800000Y-101175000D03*
X106800000Y-102825000D03*
%TD*%
D16*
%TO.C,R33*%
X109825000Y-73000000D03*
X108175000Y-73000000D03*
%TD*%
%TO.C,R32*%
X108175000Y-77000000D03*
X109825000Y-77000000D03*
%TD*%
D20*
%TO.C,Q16*%
X106095000Y-70025394D03*
X107365000Y-70025394D03*
X108635000Y-70025394D03*
X109905000Y-70025394D03*
X109905000Y-63974606D03*
X108635000Y-63974606D03*
X107365000Y-63974606D03*
X106095000Y-63974606D03*
D21*
X108000000Y-66350014D03*
%TD*%
D22*
%TO.C,U9*%
X108899922Y-113649986D03*
X108899922Y-113000000D03*
X108899922Y-112350014D03*
X107100078Y-112350014D03*
X107100078Y-113000000D03*
X107100078Y-113649986D03*
%TD*%
D16*
%TO.C,R14*%
X88825000Y-79000000D03*
X87175000Y-79000000D03*
%TD*%
D23*
%TO.C,TP_ENC_I*%
X97500000Y-135000000D03*
%TD*%
D16*
%TO.C,R100*%
X137175000Y-104000000D03*
X138825000Y-104000000D03*
%TD*%
D24*
%TO.C,D6*%
X114192402Y-125000000D03*
X110807598Y-125000000D03*
%TD*%
D25*
%TO.C,U17*%
X85095000Y-129530092D03*
X86365000Y-129530092D03*
X87635000Y-129530092D03*
X88905000Y-129530092D03*
X88905000Y-122469908D03*
X87635000Y-122469908D03*
X86365000Y-122469908D03*
X85095000Y-122469908D03*
%TD*%
D16*
%TO.C,R18*%
X81425000Y-94000000D03*
X83075000Y-94000000D03*
%TD*%
D19*
%TO.C,C12*%
X72365000Y-96946100D03*
X72365000Y-98596100D03*
%TD*%
D18*
%TO.C,Q22*%
X118999998Y-131949960D03*
X118999998Y-130050040D03*
X117000002Y-131000000D03*
%TD*%
D23*
%TO.C,TP_ENC_3V3*%
X90000000Y-135000000D03*
%TD*%
D16*
%TO.C,R56*%
X99175000Y-114000000D03*
X100825000Y-114000000D03*
%TD*%
%TO.C,R105*%
X69325000Y-95000000D03*
X67675000Y-95000000D03*
%TD*%
%TO.C,R70*%
X88325000Y-112000000D03*
X86675000Y-112000000D03*
%TD*%
%TO.C,C40*%
X105825000Y-121000000D03*
X104175000Y-121000000D03*
%TD*%
%TO.C,R59*%
X102175000Y-127000000D03*
X103825000Y-127000000D03*
%TD*%
%TO.C,R45*%
X121325000Y-127500000D03*
X119675000Y-127500000D03*
%TD*%
%TO.C,R2*%
X65175000Y-76000000D03*
X66825000Y-76000000D03*
%TD*%
%TO.C,R111*%
X75825000Y-102000000D03*
X74175000Y-102000000D03*
%TD*%
%TO.C,C36*%
X101075000Y-108000000D03*
X99425000Y-108000000D03*
%TD*%
D23*
%TO.C,TP_ENC_A*%
X92500000Y-135000000D03*
%TD*%
D16*
%TO.C,C56*%
X63675000Y-116000000D03*
X65325000Y-116000000D03*
%TD*%
D26*
%TO.C,U16*%
X77249942Y-116249928D03*
X77750068Y-116249928D03*
X78249940Y-116249928D03*
X78750066Y-116249928D03*
X79249938Y-116249928D03*
X79750064Y-116249928D03*
X80249936Y-116249928D03*
X80750062Y-116249928D03*
X81249934Y-116249928D03*
X81750060Y-116249928D03*
X82249932Y-116249928D03*
X82750058Y-116249928D03*
D27*
X84249928Y-114750058D03*
X84249928Y-114249932D03*
X84249928Y-113750060D03*
X84249928Y-113249934D03*
X84249928Y-112750062D03*
X84249928Y-112249936D03*
X84249928Y-111750064D03*
X84249928Y-111249938D03*
X84249928Y-110750066D03*
X84249928Y-110249940D03*
X84249928Y-109750068D03*
X84249928Y-109249942D03*
D26*
X82750058Y-107750072D03*
X82249932Y-107750072D03*
X81750060Y-107750072D03*
X81249934Y-107750072D03*
X80750062Y-107750072D03*
X80249936Y-107750072D03*
X79750064Y-107750072D03*
X79249938Y-107750072D03*
X78750066Y-107750072D03*
X78249940Y-107750072D03*
X77750068Y-107750072D03*
X77249942Y-107750072D03*
D27*
X75750072Y-109249942D03*
X75750072Y-109750068D03*
X75750072Y-110249940D03*
X75750072Y-110750066D03*
X75750072Y-111249938D03*
X75750072Y-111750064D03*
X75750072Y-112249936D03*
X75750072Y-112750062D03*
X75750072Y-113249934D03*
X75750072Y-113750060D03*
X75750072Y-114249932D03*
X75750072Y-114750058D03*
%TD*%
D28*
%TO.C,C62*%
X92500000Y-96037500D03*
X92500000Y-98962500D03*
%TD*%
D16*
%TO.C,C41*%
X101675000Y-133000000D03*
X103325000Y-133000000D03*
%TD*%
%TO.C,R85*%
X116325000Y-133500000D03*
X114675000Y-133500000D03*
%TD*%
D23*
%TO.C,TP_SWDIO*%
X80500000Y-133800000D03*
%TD*%
D18*
%TO.C,Q17*%
X93999998Y-131949960D03*
X93999998Y-130050040D03*
X92000002Y-131000000D03*
%TD*%
D16*
%TO.C,R15*%
X87175000Y-73000000D03*
X88825000Y-73000000D03*
%TD*%
D19*
%TO.C,C70*%
X89350000Y-103200100D03*
X89350000Y-104850100D03*
%TD*%
D20*
%TO.C,Q12*%
X130095000Y-111025394D03*
X131365000Y-111025394D03*
X132635000Y-111025394D03*
X133905000Y-111025394D03*
X133905000Y-104974606D03*
X132635000Y-104974606D03*
X131365000Y-104974606D03*
X130095000Y-104974606D03*
D21*
X132000000Y-107350014D03*
%TD*%
D24*
%TO.C,D8*%
X138307598Y-112000000D03*
X141692402Y-112000000D03*
%TD*%
D29*
%TO.C,Q1*%
X77149985Y-60449960D03*
X77149985Y-58550040D03*
X74850015Y-59500000D03*
%TD*%
D30*
%TO.C,U13*%
X110300099Y-122949960D03*
X110300099Y-122000000D03*
X110300099Y-121050040D03*
X107699901Y-121050040D03*
X107699901Y-122949960D03*
%TD*%
D19*
%TO.C,C69*%
X77350000Y-103200100D03*
X77350000Y-104850100D03*
%TD*%
D16*
%TO.C,R48*%
X110175000Y-109000000D03*
X111825000Y-109000000D03*
%TD*%
%TO.C,R65*%
X105175000Y-134000000D03*
X106825000Y-134000000D03*
%TD*%
%TO.C,R108*%
X83425000Y-82000000D03*
X85075000Y-82000000D03*
%TD*%
%TO.C,C9*%
X77075000Y-63500000D03*
X75425000Y-63500000D03*
%TD*%
D31*
%TO.C,D11*%
X117800106Y-66000000D03*
X122199894Y-66000000D03*
%TD*%
D16*
%TO.C,R68*%
X116675000Y-73500000D03*
X118325000Y-73500000D03*
%TD*%
%TO.C,R6*%
X65175000Y-78500000D03*
X66825000Y-78500000D03*
%TD*%
D32*
%TO.C,J1*%
X65064647Y-82109988D03*
X65064647Y-87890012D03*
D33*
X65544454Y-80679968D03*
X65544454Y-89320032D03*
D34*
X61364376Y-89320032D03*
X61364375Y-80679968D03*
D35*
X66109603Y-88350006D03*
X66109603Y-88050032D03*
X66109858Y-87549906D03*
X66109858Y-87249932D03*
X66109603Y-86750060D03*
X66110619Y-86249680D03*
X66109603Y-85750062D03*
X66109603Y-85249936D03*
X66109603Y-84750064D03*
X66109603Y-84249938D03*
X66109603Y-83750066D03*
X66110619Y-83249940D03*
X66109603Y-82750068D03*
X66109603Y-82450094D03*
X66109603Y-81949968D03*
X66109603Y-81649994D03*
%TD*%
D16*
%TO.C,R44*%
X126675000Y-102750000D03*
X128325000Y-102750000D03*
%TD*%
D20*
%TO.C,Q13*%
X130095000Y-120025394D03*
X131365000Y-120025394D03*
X132635000Y-120025394D03*
X133905000Y-120025394D03*
X133905000Y-113974606D03*
X132635000Y-113974606D03*
X131365000Y-113974606D03*
X130095000Y-113974606D03*
D21*
X132000000Y-116350014D03*
%TD*%
D16*
%TO.C,R11*%
X85175000Y-70000000D03*
X86825000Y-70000000D03*
%TD*%
%TO.C,R1*%
X86825000Y-64000000D03*
X85175000Y-64000000D03*
%TD*%
%TO.C,R94*%
X122925000Y-98000000D03*
X124575000Y-98000000D03*
%TD*%
D20*
%TO.C,Q9*%
X122095000Y-120025394D03*
X123365000Y-120025394D03*
X124635000Y-120025394D03*
X125905000Y-120025394D03*
X125905000Y-113974606D03*
X124635000Y-113974606D03*
X123365000Y-113974606D03*
X122095000Y-113974606D03*
D21*
X124000000Y-116350014D03*
%TD*%
D16*
%TO.C,R80*%
X91175000Y-123750000D03*
X92825000Y-123750000D03*
%TD*%
D24*
%TO.C,D5*%
X99307598Y-120000000D03*
X102692402Y-120000000D03*
%TD*%
D16*
%TO.C,R98*%
X124175000Y-100000000D03*
X125825000Y-100000000D03*
%TD*%
D36*
%TO.C,L2*%
X93897008Y-85000000D03*
X99102992Y-85000000D03*
%TD*%
D16*
%TO.C,C4*%
X77675000Y-80000000D03*
X79325000Y-80000000D03*
%TD*%
%TO.C,R12*%
X75325000Y-83500000D03*
X73675000Y-83500000D03*
%TD*%
D23*
%TO.C,TP_SWCLK*%
X78750000Y-135800000D03*
%TD*%
D16*
%TO.C,R49*%
X110175000Y-118000000D03*
X111825000Y-118000000D03*
%TD*%
D19*
%TO.C,C2*%
X70400000Y-72025000D03*
X70400000Y-70375000D03*
%TD*%
D16*
%TO.C,R43*%
X123175000Y-127500000D03*
X124825000Y-127500000D03*
%TD*%
%TO.C,R40*%
X120175000Y-84000000D03*
X121825000Y-84000000D03*
%TD*%
D37*
%TO.C,C21*%
X100212500Y-70500000D03*
X97287500Y-70500000D03*
%TD*%
D16*
%TO.C,R53*%
X136175000Y-119000000D03*
X137825000Y-119000000D03*
%TD*%
D38*
%TO.C,*%
X75500000Y-138400000D03*
%TD*%
D16*
%TO.C,C37*%
X105075000Y-113000000D03*
X103425000Y-113000000D03*
%TD*%
D20*
%TO.C,Q8*%
X122095000Y-111025394D03*
X123365000Y-111025394D03*
X124635000Y-111025394D03*
X125905000Y-111025394D03*
X125905000Y-104974606D03*
X124635000Y-104974606D03*
X123365000Y-104974606D03*
X122095000Y-104974606D03*
D21*
X124000000Y-107350014D03*
%TD*%
D16*
%TO.C,R72*%
X71675000Y-113750000D03*
X73325000Y-113750000D03*
%TD*%
D38*
%TO.C,*%
X138400000Y-124500000D03*
%TD*%
D37*
%TO.C,C47*%
X73462500Y-115750000D03*
X70537500Y-115750000D03*
%TD*%
D16*
%TO.C,R102*%
X85175000Y-97500000D03*
X86825000Y-97500000D03*
%TD*%
%TO.C,R83*%
X114425000Y-128000000D03*
X116075000Y-128000000D03*
%TD*%
%TO.C,R86*%
X117925000Y-134000000D03*
X119575000Y-134000000D03*
%TD*%
D39*
%TO.C,D3*%
X73601344Y-131699960D03*
X73601344Y-129800040D03*
X71398656Y-130750000D03*
%TD*%
D40*
%TO.C,J7*%
X106999982Y-139999871D03*
X106999982Y-137999875D03*
X104999986Y-139999871D03*
X104999986Y-137999875D03*
X102999990Y-139999871D03*
X102999990Y-137999875D03*
X100999994Y-139999871D03*
X100999994Y-137999875D03*
X98999998Y-139999871D03*
X98999998Y-137999875D03*
X97000002Y-139999871D03*
X97000002Y-137999875D03*
X95000006Y-139999871D03*
X95000006Y-137999875D03*
X93000010Y-139999871D03*
X93000010Y-137999875D03*
X91000014Y-139999871D03*
X91000014Y-137999875D03*
X89000018Y-139999871D03*
X89000018Y-137999875D03*
%TD*%
D24*
%TO.C,D4*%
X90807598Y-125750000D03*
X94192402Y-125750000D03*
%TD*%
D20*
%TO.C,Q11*%
X114095000Y-119025394D03*
X115365000Y-119025394D03*
X116635000Y-119025394D03*
X117905000Y-119025394D03*
X117905000Y-112974606D03*
X116635000Y-112974606D03*
X115365000Y-112974606D03*
X114095000Y-112974606D03*
D21*
X116000000Y-115350014D03*
%TD*%
D16*
%TO.C,R9*%
X75175000Y-70000000D03*
X76825000Y-70000000D03*
%TD*%
D19*
%TO.C,C29*%
X106750000Y-89025000D03*
X106750000Y-87375000D03*
%TD*%
D16*
%TO.C,C49*%
X84175000Y-119000000D03*
X85825000Y-119000000D03*
%TD*%
%TO.C,C14*%
X72725000Y-87000000D03*
X71075000Y-87000000D03*
%TD*%
D28*
%TO.C,C11*%
X75000000Y-97037500D03*
X75000000Y-99962500D03*
%TD*%
D16*
%TO.C,R71*%
X86675000Y-110000000D03*
X88325000Y-110000000D03*
%TD*%
%TO.C,C50*%
X91175000Y-121000000D03*
X92825000Y-121000000D03*
%TD*%
D41*
%TO.C,U21*%
X60055000Y-113235580D03*
X61325000Y-113235580D03*
X62595000Y-113235580D03*
X63865000Y-113235580D03*
X65135000Y-113235580D03*
X66405000Y-113235580D03*
X67675000Y-113235580D03*
X68945000Y-113235580D03*
X68945000Y-107764420D03*
X67675000Y-107764420D03*
X66405000Y-107764420D03*
X65135000Y-107764420D03*
X63865000Y-107764420D03*
X62595000Y-107764420D03*
X61325000Y-107764420D03*
X60055000Y-107764420D03*
%TD*%
D16*
%TO.C,R46*%
X110175000Y-107000000D03*
X111825000Y-107000000D03*
%TD*%
D19*
%TO.C,C45*%
X81250000Y-118425000D03*
X81250000Y-120075000D03*
%TD*%
D16*
%TO.C,R87*%
X121175000Y-134000000D03*
X122825000Y-134000000D03*
%TD*%
%TO.C,C42*%
X114175000Y-66500000D03*
X115825000Y-66500000D03*
%TD*%
D42*
%TO.C,R110*%
X127933712Y-124000000D03*
X134066288Y-124000000D03*
%TD*%
D31*
%TO.C,D12*%
X86199894Y-60000000D03*
X81800106Y-60000000D03*
%TD*%
D16*
%TO.C,C57*%
X60175000Y-116000000D03*
X61825000Y-116000000D03*
%TD*%
D43*
%TO.C,C25*%
X104500000Y-101087500D03*
X104500000Y-102912500D03*
%TD*%
D44*
%TO.C,C22*%
X127500005Y-78000000D03*
X132499995Y-78000000D03*
%TD*%
D45*
%TO.C,J3*%
X98019816Y-63500000D03*
D46*
X101980184Y-63500000D03*
%TD*%
D16*
%TO.C,C72*%
X75325000Y-85250000D03*
X73675000Y-85250000D03*
%TD*%
D20*
%TO.C,Q10*%
X114095000Y-110025394D03*
X115365000Y-110025394D03*
X116635000Y-110025394D03*
X117905000Y-110025394D03*
X117905000Y-103974606D03*
X116635000Y-103974606D03*
X115365000Y-103974606D03*
X114095000Y-103974606D03*
D21*
X116000000Y-106350014D03*
%TD*%
D16*
%TO.C,R34*%
X94675000Y-95000000D03*
X96325000Y-95000000D03*
%TD*%
%TO.C,C71*%
X74175000Y-104500000D03*
X75825000Y-104500000D03*
%TD*%
D17*
%TO.C,C16*%
X85412500Y-83750000D03*
X83587500Y-83750000D03*
%TD*%
D16*
%TO.C,C10*%
X84825000Y-77000000D03*
X83175000Y-77000000D03*
%TD*%
%TO.C,C48*%
X86675000Y-114000000D03*
X88325000Y-114000000D03*
%TD*%
D47*
%TO.C,U24*%
X89350014Y-101100074D03*
X90000000Y-101100074D03*
X90649986Y-101100074D03*
X90649986Y-98899926D03*
X90000000Y-98899926D03*
X89350014Y-98899926D03*
%TD*%
D16*
%TO.C,C38*%
X92825000Y-110000000D03*
X91175000Y-110000000D03*
%TD*%
D24*
%TO.C,D7*%
X113807598Y-101800000D03*
X117192402Y-101800000D03*
%TD*%
D16*
%TO.C,C64*%
X89675000Y-85700000D03*
X91325000Y-85700000D03*
%TD*%
%TO.C,R104*%
X94325000Y-93000000D03*
X92675000Y-93000000D03*
%TD*%
D18*
%TO.C,Q19*%
X108999998Y-131949960D03*
X108999998Y-130050040D03*
X107000002Y-131000000D03*
%TD*%
D16*
%TO.C,R28*%
X92175000Y-75000000D03*
X93825000Y-75000000D03*
%TD*%
%TO.C,R95*%
X139425000Y-92000000D03*
X141075000Y-92000000D03*
%TD*%
%TO.C,R20*%
X102175000Y-71000000D03*
X103825000Y-71000000D03*
%TD*%
%TO.C,R21*%
X95675000Y-75000000D03*
X97325000Y-75000000D03*
%TD*%
D48*
%TO.C,U19*%
X66095000Y-126099944D03*
X67365000Y-126099944D03*
X68635000Y-126099944D03*
X69905000Y-126099944D03*
X69905000Y-120900056D03*
X68635000Y-120900056D03*
X67365000Y-120900056D03*
X66095000Y-120900056D03*
%TD*%
D16*
%TO.C,C13*%
X74175000Y-87000000D03*
X75825000Y-87000000D03*
%TD*%
%TO.C,R91*%
X134825000Y-103000000D03*
X133175000Y-103000000D03*
%TD*%
%TO.C,R90*%
X126175000Y-131000000D03*
X127825000Y-131000000D03*
%TD*%
%TO.C,R30*%
X109825000Y-75000000D03*
X108175000Y-75000000D03*
%TD*%
%TO.C,R3*%
X75175000Y-66000000D03*
X76825000Y-66000000D03*
%TD*%
%TO.C,R76*%
X77175000Y-131500000D03*
X78825000Y-131500000D03*
%TD*%
%TO.C,C1*%
X69825000Y-81000000D03*
X68175000Y-81000000D03*
%TD*%
%TO.C,R16*%
X79825000Y-92750000D03*
X78175000Y-92750000D03*
%TD*%
D23*
%TO.C,TP_ENC_B*%
X95000000Y-135000000D03*
%TD*%
D16*
%TO.C,R107*%
X76925000Y-84000000D03*
X78575000Y-84000000D03*
%TD*%
%TO.C,R64*%
X98175000Y-128000000D03*
X99825000Y-128000000D03*
%TD*%
%TO.C,R63*%
X106675000Y-117000000D03*
X108325000Y-117000000D03*
%TD*%
D19*
%TO.C,C52*%
X100000000Y-104725000D03*
X100000000Y-106375000D03*
%TD*%
D16*
%TO.C,R77*%
X96075000Y-128000000D03*
X94425000Y-128000000D03*
%TD*%
D30*
%TO.C,U14*%
X104300099Y-130949960D03*
X104300099Y-130000000D03*
X104300099Y-129050040D03*
X101699901Y-129050040D03*
X101699901Y-130949960D03*
%TD*%
D16*
%TO.C,R17*%
X76925000Y-97250000D03*
X78575000Y-97250000D03*
%TD*%
D17*
%TO.C,C35*%
X109087500Y-104500000D03*
X110912500Y-104500000D03*
%TD*%
D19*
%TO.C,C63*%
X88365000Y-95696100D03*
X88365000Y-97346100D03*
%TD*%
%TO.C,C26*%
X109000000Y-101175000D03*
X109000000Y-102825000D03*
%TD*%
D16*
%TO.C,C60*%
X59675000Y-105200000D03*
X61325000Y-105200000D03*
%TD*%
D20*
%TO.C,Q6*%
X114095000Y-87025394D03*
X115365000Y-87025394D03*
X116635000Y-87025394D03*
X117905000Y-87025394D03*
X117905000Y-80974606D03*
X116635000Y-80974606D03*
X115365000Y-80974606D03*
X114095000Y-80974606D03*
D21*
X116000000Y-83350014D03*
%TD*%
D49*
%TO.C,Q3*%
X70849866Y-83675006D03*
X70849866Y-83324994D03*
D50*
X70200134Y-83500000D03*
%TD*%
D16*
%TO.C,R79*%
X88175000Y-132500000D03*
X89825000Y-132500000D03*
%TD*%
D17*
%TO.C,C34*%
X96587500Y-105000000D03*
X98412500Y-105000000D03*
%TD*%
D16*
%TO.C,R35*%
X105675000Y-105000000D03*
X107325000Y-105000000D03*
%TD*%
%TO.C,R41*%
X123125000Y-95000000D03*
X124775000Y-95000000D03*
%TD*%
D51*
%TO.C,U12*%
X104235075Y-124949960D03*
X104235075Y-123050040D03*
X101764925Y-124000000D03*
%TD*%
D18*
%TO.C,Q23*%
X123999998Y-131949960D03*
X123999998Y-130050040D03*
X122000002Y-131000000D03*
%TD*%
D16*
%TO.C,R103*%
X88825000Y-82000000D03*
X87175000Y-82000000D03*
%TD*%
D52*
%TO.C,D2*%
X73999998Y-127449960D03*
X73999998Y-125550040D03*
X72000002Y-126500000D03*
%TD*%
D16*
%TO.C,R61*%
X112175000Y-122000000D03*
X113825000Y-122000000D03*
%TD*%
D17*
%TO.C,C66*%
X94087500Y-90000000D03*
X95912500Y-90000000D03*
%TD*%
D16*
%TO.C,C18*%
X104675000Y-73000000D03*
X106325000Y-73000000D03*
%TD*%
D53*
%TO.C,U22*%
X87095000Y-93846070D03*
X88365000Y-93846070D03*
X89635000Y-93846070D03*
X90905000Y-93846070D03*
X90905000Y-88153930D03*
X89635000Y-88153930D03*
X88365000Y-88153930D03*
X87095000Y-88153930D03*
D54*
X89000000Y-91000000D03*
%TD*%
D16*
%TO.C,R89*%
X124425000Y-134000000D03*
X126075000Y-134000000D03*
%TD*%
%TO.C,R51*%
X136175000Y-117000000D03*
X137825000Y-117000000D03*
%TD*%
D44*
%TO.C,C23*%
X129500005Y-92000000D03*
X134499995Y-92000000D03*
%TD*%
D16*
%TO.C,C54*%
X69425000Y-128500000D03*
X67775000Y-128500000D03*
%TD*%
D18*
%TO.C,Q18*%
X97000002Y-130050040D03*
X97000002Y-131949960D03*
X98999998Y-131000000D03*
%TD*%
D16*
%TO.C,R82*%
X117075000Y-121250000D03*
X115425000Y-121250000D03*
%TD*%
%TO.C,R38*%
X110675000Y-83750000D03*
X112325000Y-83750000D03*
%TD*%
%TO.C,R73*%
X91175000Y-127750000D03*
X92825000Y-127750000D03*
%TD*%
%TO.C,R47*%
X110175000Y-116000000D03*
X111825000Y-116000000D03*
%TD*%
D55*
%TO.C,U1*%
X69200027Y-76999997D03*
X69600077Y-76999997D03*
X70000127Y-76999997D03*
X70400177Y-76999997D03*
X70800227Y-76999997D03*
D56*
X71499997Y-76300227D03*
X71499997Y-75900177D03*
X71499997Y-75500127D03*
X71499997Y-75100331D03*
X71499997Y-74700281D03*
D55*
X70800227Y-74000003D03*
X70400177Y-74000003D03*
X70000127Y-74000003D03*
X69600077Y-74000003D03*
X69200027Y-74000003D03*
D56*
X68500003Y-74700027D03*
X68500003Y-75100077D03*
X68500003Y-75499873D03*
X68500003Y-75899923D03*
X68500003Y-76299973D03*
D57*
X70000127Y-75500127D03*
%TD*%
D19*
%TO.C,C8*%
X76000000Y-79925000D03*
X76000000Y-81575000D03*
%TD*%
D16*
%TO.C,C3*%
X75175000Y-72000000D03*
X76825000Y-72000000D03*
%TD*%
%TO.C,R13*%
X82175000Y-72500000D03*
X83825000Y-72500000D03*
%TD*%
D53*
%TO.C,U5*%
X71095000Y-94846070D03*
X72365000Y-94846070D03*
X73635000Y-94846070D03*
X74905000Y-94846070D03*
X74905000Y-89153930D03*
X73635000Y-89153930D03*
X72365000Y-89153930D03*
X71095000Y-89153930D03*
D54*
X73000000Y-92000000D03*
%TD*%
D18*
%TO.C,Q25*%
X137999998Y-101199960D03*
X137999998Y-99300040D03*
X136000002Y-100250000D03*
%TD*%
D36*
%TO.C,L1*%
X78397008Y-88500000D03*
X83602992Y-88500000D03*
%TD*%
D16*
%TO.C,R50*%
X136175000Y-108000000D03*
X137825000Y-108000000D03*
%TD*%
D58*
%TO.C,U6*%
X99750066Y-76941957D03*
X100249938Y-76941957D03*
X100750064Y-76941957D03*
X101249936Y-76941957D03*
X101750062Y-76941957D03*
X102249934Y-76941957D03*
D59*
X102948180Y-76250061D03*
X102948180Y-75749935D03*
X102948180Y-75250063D03*
X102948180Y-74750191D03*
X102948180Y-74250065D03*
X102948180Y-73750193D03*
D58*
X102249934Y-73058043D03*
X101750062Y-73058043D03*
X101249936Y-73058043D03*
X100750064Y-73058043D03*
X100249938Y-73058043D03*
X99750066Y-73058043D03*
D59*
X99051820Y-73750193D03*
X99051820Y-74250065D03*
X99051820Y-74750191D03*
X99051820Y-75250063D03*
X99051820Y-75749935D03*
X99051820Y-76250061D03*
D60*
X101000762Y-75000889D03*
%TD*%
D19*
%TO.C,C46*%
X77250000Y-118425000D03*
X77250000Y-120075000D03*
%TD*%
%TO.C,C28*%
X114350000Y-93425000D03*
X114350000Y-95075000D03*
%TD*%
D16*
%TO.C,R75*%
X59175000Y-123000000D03*
X60825000Y-123000000D03*
%TD*%
D19*
%TO.C,C7*%
X74000000Y-79925000D03*
X74000000Y-81575000D03*
%TD*%
D16*
%TO.C,R4*%
X86825000Y-66000000D03*
X85175000Y-66000000D03*
%TD*%
%TO.C,R106*%
X69175000Y-104000000D03*
X70825000Y-104000000D03*
%TD*%
D20*
%TO.C,Q7*%
X117595000Y-96025394D03*
X118865000Y-96025394D03*
X120135000Y-96025394D03*
X121405000Y-96025394D03*
X121405000Y-89974606D03*
X120135000Y-89974606D03*
X118865000Y-89974606D03*
X117595000Y-89974606D03*
D21*
X119500000Y-92350014D03*
%TD*%
D16*
%TO.C,C53*%
X104125000Y-105300000D03*
X102475000Y-105300000D03*
%TD*%
%TO.C,C24*%
X109325000Y-79000000D03*
X107675000Y-79000000D03*
%TD*%
D47*
%TO.C,U23*%
X77350014Y-101100074D03*
X78000000Y-101100074D03*
X78649986Y-101100074D03*
X78649986Y-98899926D03*
X78000000Y-98899926D03*
X77350014Y-98899926D03*
%TD*%
D16*
%TO.C,C39*%
X92825000Y-115000000D03*
X91175000Y-115000000D03*
%TD*%
D49*
%TO.C,Q2*%
X82849866Y-80175006D03*
X82849866Y-79824994D03*
D50*
X82200134Y-80000000D03*
%TD*%
D24*
%TO.C,D9*%
X135807598Y-114250000D03*
X139192402Y-114250000D03*
%TD*%
D20*
%TO.C,Q4*%
X90095000Y-70025394D03*
X91365000Y-70025394D03*
X92635000Y-70025394D03*
X93905000Y-70025394D03*
X93905000Y-63974606D03*
X92635000Y-63974606D03*
X91365000Y-63974606D03*
X90095000Y-63974606D03*
D21*
X92000000Y-66350014D03*
%TD*%
D19*
%TO.C,C6*%
X72000000Y-78925000D03*
X72000000Y-80575000D03*
%TD*%
D43*
%TO.C,C27*%
X109000000Y-88912500D03*
X109000000Y-87087500D03*
%TD*%
D16*
%TO.C,R39*%
X123125000Y-93000000D03*
X124775000Y-93000000D03*
%TD*%
%TO.C,C65*%
X88025000Y-85600000D03*
X86375000Y-85600000D03*
%TD*%
%TO.C,R84*%
X111425000Y-134000000D03*
X113075000Y-134000000D03*
%TD*%
%TO.C,R29*%
X103075000Y-85750000D03*
X101425000Y-85750000D03*
%TD*%
D19*
%TO.C,C51*%
X82750000Y-122425000D03*
X82750000Y-124075000D03*
%TD*%
D48*
%TO.C,U20*%
X76095000Y-128599944D03*
X77365000Y-128599944D03*
X78635000Y-128599944D03*
X79905000Y-128599944D03*
X79905000Y-123400056D03*
X78635000Y-123400056D03*
X77365000Y-123400056D03*
X76095000Y-123400056D03*
%TD*%
D16*
%TO.C,C19*%
X102325000Y-80750000D03*
X100675000Y-80750000D03*
%TD*%
D18*
%TO.C,Q21*%
X113999998Y-131949960D03*
X113999998Y-130050040D03*
X112000002Y-131000000D03*
%TD*%
D17*
%TO.C,C15*%
X80087500Y-84000000D03*
X81912500Y-84000000D03*
%TD*%
D23*
%TO.C,TP_ENC_GND*%
X100000000Y-135000000D03*
%TD*%
D24*
%TO.C,D1*%
X94307598Y-123500000D03*
X97692402Y-123500000D03*
%TD*%
D17*
%TO.C,C17*%
X80087500Y-82000000D03*
X81912500Y-82000000D03*
%TD*%
%TO.C,C68*%
X97087500Y-80000000D03*
X98912500Y-80000000D03*
%TD*%
D16*
%TO.C,C73*%
X68675000Y-101750000D03*
X70325000Y-101750000D03*
%TD*%
%TO.C,R67*%
X98175000Y-126000000D03*
X99825000Y-126000000D03*
%TD*%
%TO.C,R37*%
X112325000Y-85500000D03*
X110675000Y-85500000D03*
%TD*%
%TO.C,R81*%
X103675000Y-115250000D03*
X105325000Y-115250000D03*
%TD*%
D19*
%TO.C,C44*%
X79250000Y-118425000D03*
X79250000Y-120075000D03*
%TD*%
D38*
%TO.C,*%
X61600000Y-75500000D03*
%TD*%
D30*
%TO.C,U11*%
X97300099Y-114949960D03*
X97300099Y-114000000D03*
X97300099Y-113050040D03*
X94699901Y-113050040D03*
X94699901Y-114949960D03*
%TD*%
D23*
%TO.C,TP_STATUS*%
X83000000Y-136300000D03*
%TD*%
D45*
%TO.C,J2*%
X114059956Y-139000000D03*
D46*
X118020070Y-139000000D03*
X121980184Y-139000000D03*
X125940044Y-139000000D03*
%TD*%
D23*
%TO.C,TP_SWD_GND*%
X83000000Y-133800000D03*
%TD*%
D16*
%TO.C,R24*%
X95675000Y-73000000D03*
X97325000Y-73000000D03*
%TD*%
%TO.C,R22*%
X104675000Y-75000000D03*
X106325000Y-75000000D03*
%TD*%
%TO.C,R19*%
X100675000Y-79000000D03*
X102325000Y-79000000D03*
%TD*%
%TO.C,R78*%
X101675000Y-134750000D03*
X103325000Y-134750000D03*
%TD*%
D17*
%TO.C,C32*%
X114587500Y-98500000D03*
X116412500Y-98500000D03*
%TD*%
D48*
%TO.C,U3*%
X79095000Y-68599944D03*
X80365000Y-68599944D03*
X81635000Y-68599944D03*
X82905000Y-68599944D03*
X82905000Y-63400056D03*
X81635000Y-63400056D03*
X80365000Y-63400056D03*
X79095000Y-63400056D03*
%TD*%
D16*
%TO.C,R74*%
X94425000Y-96750000D03*
X96075000Y-96750000D03*
%TD*%
D32*
%TO.C,J10*%
X65064647Y-96109988D03*
X65064647Y-101890012D03*
D33*
X65544454Y-94679968D03*
X65544454Y-103320032D03*
D34*
X61364376Y-103320032D03*
X61364375Y-94679968D03*
D35*
X66109603Y-102350006D03*
X66109603Y-102050032D03*
X66109858Y-101549906D03*
X66109858Y-101249932D03*
X66109603Y-100750060D03*
X66110619Y-100249680D03*
X66109603Y-99750062D03*
X66109603Y-99249936D03*
X66109603Y-98750064D03*
X66109603Y-98249938D03*
X66109603Y-97750066D03*
X66110619Y-97249940D03*
X66109603Y-96750068D03*
X66109603Y-96450094D03*
X66109603Y-95949968D03*
X66109603Y-95649994D03*
%TD*%
D16*
%TO.C,R26*%
X104175000Y-79000000D03*
X105825000Y-79000000D03*
%TD*%
D18*
%TO.C,Q15*%
X96999998Y-120949960D03*
X96999998Y-119050040D03*
X95000002Y-120000000D03*
%TD*%
D23*
%TO.C,TP_SWD_3V3*%
X78000000Y-133800000D03*
%TD*%
D38*
%TO.C,*%
X124500000Y-61600000D03*
%TD*%
D16*
%TO.C,R58*%
X99175000Y-112000000D03*
X100825000Y-112000000D03*
%TD*%
%TO.C,R60*%
X106675000Y-119000000D03*
X108325000Y-119000000D03*
%TD*%
%TO.C,R101*%
X139425000Y-97000000D03*
X141075000Y-97000000D03*
%TD*%
D61*
%TO.C,SW1*%
X79815092Y-140000000D03*
X84184908Y-140000000D03*
%TD*%
D16*
%TO.C,R88*%
X103175000Y-111000000D03*
X104825000Y-111000000D03*
%TD*%
D42*
%TO.C,R109*%
X116933712Y-124000000D03*
X123066288Y-124000000D03*
%TD*%
D16*
%TO.C,R31*%
X92175000Y-73000000D03*
X93825000Y-73000000D03*
%TD*%
%TO.C,C20*%
X92175000Y-77000000D03*
X93825000Y-77000000D03*
%TD*%
D19*
%TO.C,C43*%
X115000000Y-73175000D03*
X115000000Y-74825000D03*
%TD*%
D17*
%TO.C,C67*%
X94912500Y-80000000D03*
X93087500Y-80000000D03*
%TD*%
%TO.C,C30*%
X103587500Y-84000000D03*
X105412500Y-84000000D03*
%TD*%
D16*
%TO.C,R8*%
X80325000Y-72500000D03*
X78675000Y-72500000D03*
%TD*%
D24*
%TO.C,D10*%
X140692402Y-82000000D03*
X137307598Y-82000000D03*
%TD*%
D16*
%TO.C,R5*%
X75175000Y-68000000D03*
X76825000Y-68000000D03*
%TD*%
%TO.C,R97*%
X136675000Y-121000000D03*
X138325000Y-121000000D03*
%TD*%
%TO.C,C58*%
X63675000Y-118000000D03*
X65325000Y-118000000D03*
%TD*%
%TO.C,R69*%
X119175000Y-71500000D03*
X120825000Y-71500000D03*
%TD*%
D29*
%TO.C,Q5*%
X93149985Y-61449960D03*
X93149985Y-59550040D03*
X90850015Y-60500000D03*
%TD*%
D16*
%TO.C,R96*%
X127175000Y-126750000D03*
X128825000Y-126750000D03*
%TD*%
%TO.C,R52*%
X136175000Y-110000000D03*
X137825000Y-110000000D03*
%TD*%
D30*
%TO.C,U4*%
X89300099Y-76949960D03*
X89300099Y-76000000D03*
X89300099Y-75050040D03*
X86699901Y-75050040D03*
X86699901Y-76949960D03*
%TD*%
D18*
%TO.C,Q24*%
X129999998Y-101199960D03*
X129999998Y-99300040D03*
X128000002Y-100250000D03*
%TD*%
D62*
%TO.C,U7*%
X105499942Y-99199890D03*
X106000068Y-99199890D03*
X106499940Y-99199890D03*
X107000066Y-99199890D03*
X107499938Y-99199890D03*
X108000064Y-99199890D03*
X108499936Y-99199890D03*
X109000062Y-99199890D03*
X109499934Y-99199890D03*
X110000060Y-99199890D03*
X110499932Y-99199890D03*
X111000058Y-99199890D03*
D63*
X112449890Y-97750058D03*
X112449890Y-97249932D03*
X112449890Y-96750060D03*
X112449890Y-96249934D03*
X112449890Y-95750062D03*
X112449890Y-95249936D03*
X112449890Y-94750064D03*
X112449890Y-94249938D03*
X112449890Y-93750066D03*
X112449890Y-93249940D03*
X112449890Y-92750068D03*
X112449890Y-92249942D03*
D62*
X111000058Y-90800110D03*
X110499932Y-90800110D03*
X110000060Y-90800110D03*
X109499934Y-90800110D03*
X109000062Y-90800110D03*
X108499936Y-90800110D03*
X108000064Y-90800110D03*
X107499938Y-90800110D03*
X107000066Y-90800110D03*
X106499940Y-90800110D03*
X106000068Y-90800110D03*
X105499942Y-90800110D03*
D63*
X104050110Y-92249942D03*
X104050110Y-92750068D03*
X104050110Y-93249940D03*
X104050110Y-93750066D03*
X104050110Y-94249938D03*
X104050110Y-94750064D03*
X104050110Y-95249936D03*
X104050110Y-95750062D03*
X104050110Y-96249934D03*
X104050110Y-96750060D03*
X104050110Y-97249932D03*
X104050110Y-97750058D03*
D64*
X108250000Y-95000000D03*
%TD*%
D16*
%TO.C,C55*%
X74075000Y-123500000D03*
X72425000Y-123500000D03*
%TD*%
%TO.C,R99*%
X131675000Y-99250000D03*
X133325000Y-99250000D03*
%TD*%
%TO.C,R57*%
X91175000Y-113000000D03*
X92825000Y-113000000D03*
%TD*%
%TO.C,R62*%
X112825000Y-127000000D03*
X111175000Y-127000000D03*
%TD*%
D23*
%TO.C,TP_NRST*%
X80750000Y-136300000D03*
%TD*%
D16*
%TO.C,R36*%
X114075000Y-88750000D03*
X115725000Y-88750000D03*
%TD*%
%TO.C,R7*%
X81175000Y-70750000D03*
X82825000Y-70750000D03*
%TD*%
%TO.C,R55*%
X95175000Y-117000000D03*
X96825000Y-117000000D03*
%TD*%
%TO.C,R23*%
X97325000Y-77000000D03*
X95675000Y-77000000D03*
%TD*%
%TO.C,R54*%
X99175000Y-110000000D03*
X100825000Y-110000000D03*
%TD*%
D65*
%TO.C,Y1*%
X87899926Y-118850011D03*
X90100074Y-118850011D03*
X90100074Y-117149989D03*
X87899926Y-117149989D03*
%TD*%
D37*
%TO.C,C5*%
X80037500Y-74500000D03*
X82962500Y-74500000D03*
%TD*%
D16*
%TO.C,C31*%
X96325000Y-98500000D03*
X94675000Y-98500000D03*
%TD*%
D66*
%TO.C,U2*%
X74599952Y-78050034D03*
X74999748Y-78050034D03*
X75399798Y-78050034D03*
X75799848Y-78050034D03*
X76199898Y-78050034D03*
X76599948Y-78050034D03*
X76999744Y-78050034D03*
X77399794Y-78050034D03*
D67*
X78050034Y-77400048D03*
X78050034Y-76999998D03*
X78050034Y-76599948D03*
X78050034Y-76199898D03*
X78050034Y-75800102D03*
X78050034Y-75400052D03*
X78050034Y-75000002D03*
X78050034Y-74599952D03*
D66*
X77399794Y-73949966D03*
X76999744Y-73949966D03*
X76599948Y-73949966D03*
X76199898Y-73949966D03*
X75799848Y-73949966D03*
X75399798Y-73949966D03*
X74999748Y-73949966D03*
X74599952Y-73949966D03*
D67*
X73949966Y-74599952D03*
X73949966Y-75000002D03*
X73949966Y-75400052D03*
X73949966Y-75800102D03*
X73949966Y-76199898D03*
X73949966Y-76599948D03*
X73949966Y-76999998D03*
X73949966Y-77400048D03*
D68*
X76000000Y-76000000D03*
%TD*%
D69*
%TO.C,U15*%
X115050040Y-71149096D03*
X116000000Y-71149096D03*
X116949960Y-71149096D03*
X116949960Y-68850904D03*
X116000000Y-68850904D03*
X115050040Y-68850904D03*
%TD*%
D16*
%TO.C,R92*%
X138825000Y-106000000D03*
X137175000Y-106000000D03*
%TD*%
D70*
%TO.C,U18*%
X101949958Y-97199904D03*
X101299972Y-97199904D03*
X100649986Y-97199904D03*
X100000000Y-97199904D03*
X99350014Y-97199904D03*
X98700028Y-97199904D03*
X98050042Y-97199904D03*
X98050042Y-102800096D03*
X98700028Y-102800096D03*
X99350014Y-102800096D03*
X100000000Y-102800096D03*
X100649986Y-102800096D03*
X101299972Y-102800096D03*
X101949958Y-102800096D03*
%TD*%
D18*
%TO.C,Q20*%
X108999998Y-127449960D03*
X108999998Y-125550040D03*
X107000002Y-126500000D03*
%TD*%
D69*
%TO.C,D15*%
X68550040Y-99949096D03*
X69500000Y-99949096D03*
X70449960Y-99949096D03*
X70449960Y-97650904D03*
X69500000Y-97650904D03*
X68550040Y-97650904D03*
%TD*%
D16*
%TO.C,C59*%
X60175000Y-118000000D03*
X61825000Y-118000000D03*
%TD*%
%TO.C,R42*%
X123175000Y-102500000D03*
X124825000Y-102500000D03*
%TD*%
D30*
%TO.C,U10*%
X97300099Y-109949960D03*
X97300099Y-109000000D03*
X97300099Y-108050040D03*
X94699901Y-108050040D03*
X94699901Y-109949960D03*
%TD*%
D22*
%TO.C,U8*%
X104899922Y-108649986D03*
X104899922Y-108000000D03*
X104899922Y-107350014D03*
X103100078Y-107350014D03*
X103100078Y-108000000D03*
X103100078Y-108649986D03*
%TD*%
D16*
%TO.C,R66*%
X88325000Y-134250000D03*
X86675000Y-134250000D03*
%TD*%
%LPD*%
M02*
