M48
; DRILL file KiCad 10.0.5 date 2026-10-10T15:12:49
; FORMAT={-:-/ absolute / metric / decimal}
; #@! TF.CreationDate,2026-10-10T15:12:49+05:30
; #@! TF.GenerationSoftware,Kicad,Pcbnew,10.0.5
; #@! TF.FileFunction,Plated,1,4,PTH
FMAT,2
METRIC
; #@! TA.AperFunction,Plated,PTH,ViaDrill
T1C0.300
; #@! TA.AperFunction,Plated,PTH,ComponentDrill
T2C0.700
; #@! TA.AperFunction,Plated,PTH,ComponentDrill
T3C0.914
; #@! TA.AperFunction,Plated,PTH,ComponentDrill
T4C1.200
; #@! TA.AperFunction,Plated,PTH,ComponentDrill
T5C1.800
%
G90
G05
T1
X60.055Y-111.931
X60.175Y-115.199
X60.957Y-116.085
X61.639Y-114.791
X62.145Y-114.343
X62.157Y-115.2
X62.225Y-105.2
X62.595Y-109.084
X62.956Y-118.009
X63.066Y-116.725
X63.239Y-107.637
X63.239Y-112.611
X64.628Y-122.88
X64.636Y-125.131
X64.879Y-111.928
X65.05Y-83.212
X65.227Y-115.188
X65.744Y-106.809
X65.779Y-107.705
X66.0Y-76.787
X66.8Y-83.25
X66.875Y-128.5
X66.966Y-106.305
X67.083Y-100.822
X67.11Y-86.7
X67.273Y-86.13
X67.277Y-75.494
X67.327Y-84.435
X67.475Y-77.6
X67.625Y-74.0
X67.757Y-76.249
X67.778Y-75.108
X67.874Y-72.698
X67.949Y-96.948
X67.953Y-85.733
X67.953Y-86.633
X68.067Y-104.0
X68.3Y-72.2
X68.45Y-80.15
X68.6Y-92.0
X68.65Y-73.537
X68.778Y-77.005
X68.853Y-87.533
X69.144Y-100.816
X69.675Y-71.75
X69.9Y-100.8
X70.0Y-112.0
X70.1Y-73.1
X70.181Y-94.468
X70.2Y-82.91
X70.4Y-69.475
X70.518Y-126.1
X70.6Y-72.5
X70.625Y-78.65
X70.636Y-113.26
X70.645Y-111.019
X70.647Y-102.568
X70.85Y-73.45
X71.15Y-72.85
X71.217Y-77.22
X71.294Y-84.435
X71.375Y-74.15
X71.525Y-123.5
X72.0Y-81.475
X72.104Y-76.676
X72.228Y-75.204
X72.25Y-60.825
X72.25Y-69.587
X72.365Y-99.496
X72.4Y-63.825
X72.4Y-65.325
X72.442Y-75.819
X72.5Y-66.675
X72.544Y-103.661
X72.865Y-76.35
X72.974Y-69.548
X73.0Y-72.412
X73.365Y-70.15
X73.395Y-99.953
X73.524Y-74.174
X73.6Y-64.875
X73.675Y-70.688
X73.719Y-109.867
X73.768Y-130.399
X73.874Y-68.648
X74.0Y-82.475
X74.05Y-78.3
X74.117Y-113.097
X74.15Y-112.4
X74.154Y-110.27
X74.175Y-100.9
X74.24Y-89.998
X74.411Y-113.611
X74.55Y-73.975
X74.677Y-109.627
X74.812Y-127.159
X74.9Y-70.725
X75.1Y-66.075
X75.1Y-71.962
X75.124Y-81.087
X75.4Y-68.5
X75.4Y-69.5
X75.468Y-130.705
X75.599Y-94.846
X75.693Y-108.772
X75.825Y-87.9
X75.835Y-119.847
X75.849Y-126.039
X75.898Y-115.339
X76.0Y-72.675
X76.0Y-82.475
X76.011Y-105.957
X76.05Y-73.3
X76.095Y-125.4
X76.288Y-131.157
X76.311Y-107.216
X76.358Y-85.079
X76.402Y-106.402
X76.43Y-79.182
X76.512Y-127.18
X76.515Y-71.45
X76.588Y-95.253
X76.6Y-68.5
X76.6Y-69.5
X76.961Y-111.953
X76.962Y-114.75
X76.97Y-114.145
X77.013Y-78.723
X77.047Y-111.163
X77.242Y-92.086
X77.25Y-120.975
X77.417Y-81.004
X77.43Y-117.34
X77.69Y-111.185
X77.707Y-112.613
X77.739Y-106.674
X77.826Y-78.395
X77.901Y-110.631
X78.027Y-115.11
X78.058Y-91.955
X78.085Y-113.069
X78.117Y-134.985
X78.271Y-106.413
X78.275Y-109.404
X78.281Y-98.14
X78.331Y-127.423
X78.395Y-110.304
X78.537Y-99.711
X78.579Y-108.841
X78.727Y-77.4
X78.742Y-75.031
X78.805Y-105.645
X78.847Y-73.472
X78.884Y-132.916
X78.9Y-121.833
X79.198Y-106.661
X79.208Y-111.709
X79.25Y-120.975
X79.428Y-133.8
X79.435Y-93.568
X79.5Y-68.125
X79.5Y-69.725
X79.65Y-106.2
X79.782Y-96.734
X79.8Y-70.325
X79.825Y-72.5
X79.881Y-111.827
X79.9Y-74.825
X80.0Y-117.815
X80.302Y-105.131
X80.364Y-109.381
X80.367Y-94.0
X80.4Y-74.0
X80.45Y-76.975
X80.526Y-128.6
X81.0Y-69.325
X81.075Y-71.25
X81.097Y-123.713
X81.212Y-72.5
X81.25Y-120.975
X81.3Y-67.975
X81.455Y-109.807
X81.675Y-79.4
X81.75Y-76.675
X81.808Y-87.557
X81.883Y-136.393
X81.9Y-106.4
X81.903Y-114.632
X81.941Y-74.438
X82.1Y-68.775
X82.151Y-80.593
X82.309Y-117.316
X82.356Y-79.427
X82.5Y-65.375
X82.535Y-135.302
X82.629Y-114.422
X82.671Y-110.25
X82.75Y-124.975
X82.845Y-67.7
X83.0Y-61.587
X83.103Y-105.638
X83.119Y-112.129
X83.175Y-76.0
X83.177Y-112.75
X83.182Y-109.636
X83.184Y-111.02
X83.228Y-107.062
X83.3Y-65.312
X83.309Y-108.494
X83.4Y-68.062
X83.425Y-81.203
X83.538Y-107.586
X83.795Y-94.157
X84.02Y-80.603
X84.112Y-79.317
X84.195Y-67.4
X84.231Y-96.186
X84.345Y-74.1
X84.4Y-123.284
X84.65Y-92.75
X84.925Y-70.825
X84.95Y-60.55
X84.951Y-116.416
X85.0Y-61.587
X85.013Y-107.95
X85.25Y-93.275
X85.325Y-104.833
X85.427Y-109.597
X85.467Y-115.201
X85.47Y-114.608
X85.549Y-110.83
X85.615Y-68.9
X85.615Y-74.1
X85.646Y-107.827
X85.688Y-112.25
X85.708Y-112.955
X85.845Y-92.905
X85.874Y-60.998
X86.233Y-107.741
X86.272Y-116.248
X86.616Y-63.971
X86.628Y-130.971
X86.794Y-118.209
X86.8Y-103.275
X86.825Y-96.7
X87.02Y-127.36
X87.025Y-99.7
X87.025Y-102.3
X87.264Y-113.061
X87.346Y-120.989
X87.461Y-105.151
X87.67Y-74.717
X87.751Y-119.955
X87.875Y-57.77
X87.876Y-64.998
X87.892Y-67.531
X88.365Y-98.246
X88.479Y-120.065
X88.775Y-57.77
X88.775Y-58.67
X88.845Y-98.9
X88.885Y-72.6
X88.953Y-77.853
X89.049Y-134.17
X89.09Y-121.027
X89.35Y-105.75
X89.475Y-61.65
X89.675Y-57.77
X89.75Y-72.725
X89.909Y-131.326
X89.916Y-119.793
X90.271Y-101.854
X90.275Y-110.0
X90.275Y-115.0
X90.286Y-82.589
X90.5Y-73.575
X90.542Y-131.284
X90.682Y-104.134
X90.763Y-86.979
X90.85Y-61.225
X90.911Y-109.181
X91.175Y-112.197
X91.325Y-86.6
X91.5Y-65.85
X91.5Y-66.85
X91.551Y-109.091
X91.578Y-94.22
X91.603Y-125.705
X91.925Y-73.05
X92.084Y-127.853
X92.155Y-71.105
X92.155Y-72.005
X92.392Y-92.897
X92.5Y-65.85
X92.5Y-66.85
X92.5Y-75.801
X92.504Y-131.953
X92.511Y-97.447
X92.684Y-133.036
X92.975Y-73.0
X92.986Y-124.548
X93.033Y-69.022
X93.055Y-71.105
X93.055Y-72.005
X93.135Y-94.024
X93.516Y-60.713
X93.833Y-72.05
X93.836Y-131.269
X93.866Y-132.923
X94.087Y-127.206
X94.116Y-87.853
X94.665Y-104.801
X94.682Y-128.891
X94.764Y-133.808
X94.773Y-95.213
X94.86Y-95.978
X94.904Y-77.06
X94.996Y-75.679
X95.446Y-97.114
X95.569Y-113.006
X95.812Y-107.957
X95.886Y-134.441
X95.91Y-124.222
X96.022Y-84.835
X96.188Y-70.5
X96.419Y-114.95
X96.421Y-109.787
X96.446Y-76.526
X96.496Y-120.212
X96.558Y-116.182
X96.576Y-65.147
X96.706Y-111.856
X96.725Y-106.0
X97.16Y-97.146
X97.28Y-127.343
X97.518Y-96.674
X97.519Y-128.817
X97.603Y-105.766
X97.716Y-106.348
X97.829Y-98.603
X97.857Y-133.621
X97.908Y-115.591
X97.961Y-78.676
X98.103Y-75.839
X98.234Y-106.724
X98.325Y-93.9
X98.371Y-118.332
X98.375Y-73.0
X98.525Y-108.0
X98.559Y-134.111
X99.017Y-131.725
X99.124Y-133.494
X99.411Y-94.601
X99.825Y-125.0
X99.942Y-130.83
X100.0Y-107.275
X100.0Y-98.394
X100.65Y-98.795
X100.748Y-77.609
X100.912Y-72.364
X101.389Y-77.612
X101.887Y-108.485
X101.926Y-84.948
X102.094Y-81.541
X102.124Y-103.976
X102.4Y-125.45
X102.5Y-116.324
X102.525Y-113.0
X102.663Y-97.975
X102.73Y-72.838
X102.883Y-71.632
X102.939Y-76.779
X103.0Y-92.775
X103.025Y-127.0
X103.038Y-78.994
X103.094Y-71.0
X103.1Y-125.45
X103.18Y-88.624
X103.2Y-124.675
X103.207Y-109.486
X103.275Y-121.0
X103.288Y-79.966
X103.355Y-90.769
X103.432Y-130.84
X103.488Y-77.004
X103.568Y-94.55
X103.618Y-76.257
X103.631Y-74.565
X103.717Y-73.772
X103.864Y-107.367
X103.883Y-72.39
X104.197Y-80.939
X104.225Y-133.0
X104.37Y-95.27
X104.717Y-110.202
X104.84Y-71.569
X104.996Y-127.772
X105.422Y-109.172
X105.525Y-118.835
X105.659Y-96.613
X105.762Y-101.825
X105.931Y-85.57
X105.933Y-78.199
X106.138Y-133.353
X106.299Y-107.41
X106.349Y-110.483
X106.421Y-96.45
X106.645Y-115.763
X106.676Y-125.812
X106.691Y-100.75
X106.788Y-85.326
X106.847Y-112.139
X106.997Y-130.297
X107.047Y-75.496
X107.5Y-65.85
X107.5Y-66.85
X107.575Y-122.275
X107.608Y-119.15
X107.825Y-82.023
X108.109Y-80.729
X108.183Y-95.352
X108.208Y-105.0
X108.231Y-98.084
X108.5Y-65.85
X108.5Y-66.85
X108.647Y-111.717
X108.877Y-97.635
X108.9Y-77.975
X108.9Y-79.725
X108.95Y-76.099
X108.97Y-108.713
X108.977Y-72.289
X109.178Y-122.679
X109.53Y-117.604
X109.781Y-94.244
X109.915Y-102.912
X109.968Y-82.0
X109.99Y-76.178
X110.01Y-84.835
X110.204Y-80.351
X110.647Y-76.109
X110.957Y-118.907
X111.364Y-118.328
X111.507Y-95.627
X111.783Y-102.0
X111.783Y-102.9
X111.85Y-90.5
X111.85Y-91.5
X111.85Y-106.5
X111.85Y-107.5
X112.683Y-102.0
X112.683Y-102.9
X112.85Y-90.5
X112.85Y-91.5
X112.85Y-106.5
X112.85Y-107.5
X113.15Y-96.5
X113.15Y-97.5
X113.15Y-112.5
X113.15Y-113.5
X113.21Y-93.891
X113.443Y-64.5
X113.48Y-132.973
X113.481Y-122.05
X114.11Y-93.891
X114.15Y-96.5
X114.15Y-97.5
X114.15Y-112.5
X114.15Y-113.5
X114.459Y-122.292
X114.459Y-123.642
X114.608Y-120.642
X114.608Y-121.542
X114.957Y-106.998
X115.263Y-123.704
X115.879Y-60.0
X115.919Y-126.948
X116.0Y-118.0
X116.0Y-119.0
X116.275Y-102.65
X116.485Y-132.699
X116.546Y-86.351
X116.669Y-128.408
X116.677Y-125.119
X117.0Y-118.0
X117.0Y-119.0
X117.09Y-101.752
X117.326Y-129.934
X117.508Y-100.345
X118.049Y-96.04
X118.175Y-119.198
X118.302Y-99.387
X118.448Y-82.425
X118.46Y-83.83
X118.618Y-107.059
X118.625Y-108.0
X118.625Y-113.005
X118.655Y-99.916
X118.657Y-100.759
X118.681Y-98.931
X118.717Y-104.153
X118.795Y-96.49
X118.847Y-134.003
X119.026Y-112.227
X119.394Y-94.0
X119.518Y-89.892
X119.593Y-92.985
X119.593Y-112.402
X119.847Y-103.703
X119.919Y-97.733
X119.975Y-91.117
X120.0Y-122.275
X120.333Y-82.333
X120.809Y-85.326
X120.863Y-90.5
X120.997Y-97.953
X121.0Y-124.825
X121.225Y-94.0
X121.26Y-107.064
X121.351Y-120.609
X121.381Y-91.508
X121.823Y-106.338
X122.251Y-119.709
X122.251Y-120.609
X122.251Y-121.509
X122.502Y-106.275
X122.584Y-81.369
X122.911Y-79.843
X123.0Y-83.27
X123.25Y-110.212
X123.8Y-91.575
X124.75Y-94.8
X124.8Y-106.35
X125.078Y-111.5
X125.25Y-109.925
X125.371Y-130.416
X125.433Y-89.893
X125.705Y-124.365
X125.75Y-106.327
X125.85Y-95.0
X126.5Y-92.475
X126.843Y-103.104
X126.906Y-83.257
X126.95Y-98.75
X126.95Y-99.75
X126.95Y-100.5
X126.95Y-102.25
X126.993Y-119.086
X127.064Y-101.354
X127.173Y-127.881
X127.217Y-96.443
X127.222Y-105.672
X127.354Y-136.686
X127.354Y-137.586
X127.4Y-91.487
X127.893Y-118.186
X127.893Y-119.086
X127.893Y-119.986
X127.94Y-112.782
X128.2Y-97.5
X128.2Y-104.5
X128.203Y-105.717
X128.254Y-137.586
X128.254Y-138.486
X128.304Y-87.325
X128.6Y-108.212
X128.6Y-109.112
X128.6Y-110.012
X129.117Y-104.263
X129.175Y-119.707
X129.194Y-106.129
X129.271Y-99.003
X129.316Y-103.114
X129.326Y-99.905
X129.405Y-101.8
X129.679Y-91.775
X130.0Y-122.275
X130.143Y-88.723
X130.143Y-112.108
X130.76Y-109.989
X130.893Y-104.475
X131.075Y-119.235
X131.16Y-91.887
X131.16Y-92.787
X131.334Y-98.371
X131.454Y-90.154
X133.549Y-104.325
X133.699Y-102.675
X133.699Y-103.575
X134.45Y-93.5
X134.45Y-94.5
X134.45Y-111.5
X134.45Y-112.5
X135.108Y-127.995
X135.199Y-104.625
X135.45Y-93.5
X135.45Y-94.5
X135.45Y-111.5
X135.45Y-112.5
X135.738Y-121.353
X135.738Y-127.357
X135.75Y-100.5
X135.75Y-101.5
X135.75Y-118.1
X135.75Y-119.1
X136.408Y-90.513
X136.75Y-101.5
X136.75Y-100.5
X136.75Y-118.1
X136.75Y-119.1
X137.377Y-121.337
X139.201Y-90.813
X139.629Y-93.726
X140.068Y-93.014
X140.161Y-118.877
X140.2Y-105.449
X140.214Y-97.939
X140.659Y-90.799
X140.692Y-74.895
X140.989Y-118.493
X141.035Y-101.193
X141.042Y-111.2
X141.299Y-92.506
X142.008Y-110.91
T3
X89.0Y-138.0
X89.0Y-140.0
X91.0Y-138.0
X91.0Y-140.0
X93.0Y-138.0
X93.0Y-140.0
X95.0Y-138.0
X95.0Y-140.0
X97.0Y-138.0
X97.0Y-140.0
X99.0Y-138.0
X99.0Y-140.0
X101.0Y-138.0
X101.0Y-140.0
X103.0Y-138.0
X103.0Y-140.0
X105.0Y-138.0
X105.0Y-140.0
X107.0Y-138.0
X107.0Y-140.0
T4
X117.5Y-72.0
X122.5Y-72.0
X132.5Y-82.0
X137.5Y-82.0
T5
X98.02Y-63.5
X101.98Y-63.5
X114.06Y-139.0
X118.02Y-139.0
X121.98Y-139.0
X125.94Y-139.0
T2
X61.714Y-80.68G85X61.014Y-80.68
G05
X61.714Y-94.68G85X61.014Y-94.68
G05
X61.714Y-89.32G85X61.014Y-89.32
G05
X61.714Y-103.32G85X61.014Y-103.32
G05
X66.044Y-80.68G85X65.044Y-80.68
G05
X66.044Y-89.32G85X65.044Y-89.32
G05
X66.044Y-94.68G85X65.044Y-94.68
G05
X66.044Y-103.32G85X65.044Y-103.32
G05
M30
