%TF.GenerationSoftware,KiCad,Pcbnew,10.0.5*%
%TF.CreationDate,2026-10-06T19:19:32+05:30*%
%TF.ProjectId,pd1180-epr-r0.3,70643131-3830-42d6-9570-722d72302e33,rev?*%
%TF.SameCoordinates,Original*%
%TF.FileFunction,Legend,Bot*%
%TF.FilePolarity,Positive*%
%FSLAX46Y46*%
G04 Gerber Fmt 4.6, Leading zero omitted, Abs format (unit mm)*
G04 Created by KiCad (PCBNEW 10.0.5) date 2026-10-06 19:19:32*
%MOMM*%
%LPD*%
G01*
G04 APERTURE LIST*
%ADD10C,0.350000*%
%ADD11C,0.150000*%
%ADD12R,1.399997X1.399997*%
%ADD13C,1.399997*%
%ADD14C,4.200000*%
%ADD15R,2.499995X2.499995*%
%ADD16C,2.499995*%
%ADD17C,2.099996*%
%ADD18C,1.599997*%
%ADD19C,1.499997*%
%ADD20C,0.649986*%
%ADD21O,2.099996X1.099998*%
%ADD22O,1.799996X1.099998*%
G04 APERTURE END LIST*
D10*
X101428571Y-95492085D02*
X100514285Y-95492085D01*
X101085714Y-94692085D02*
X101085714Y-96749228D01*
X101085714Y-96749228D02*
X100971428Y-96977800D01*
X100971428Y-96977800D02*
X100742857Y-97092085D01*
X100742857Y-97092085D02*
X100514285Y-97092085D01*
X99828571Y-96977800D02*
X99599999Y-97092085D01*
X99599999Y-97092085D02*
X99142856Y-97092085D01*
X99142856Y-97092085D02*
X98914285Y-96977800D01*
X98914285Y-96977800D02*
X98799999Y-96749228D01*
X98799999Y-96749228D02*
X98799999Y-96634942D01*
X98799999Y-96634942D02*
X98914285Y-96406371D01*
X98914285Y-96406371D02*
X99142856Y-96292085D01*
X99142856Y-96292085D02*
X99485714Y-96292085D01*
X99485714Y-96292085D02*
X99714285Y-96177800D01*
X99714285Y-96177800D02*
X99828571Y-95949228D01*
X99828571Y-95949228D02*
X99828571Y-95834942D01*
X99828571Y-95834942D02*
X99714285Y-95606371D01*
X99714285Y-95606371D02*
X99485714Y-95492085D01*
X99485714Y-95492085D02*
X99142856Y-95492085D01*
X99142856Y-95492085D02*
X98914285Y-95606371D01*
D11*
X106300000Y-98908557D02*
X106300000Y-98008557D01*
X106300000Y-98008557D02*
X106000000Y-98651414D01*
X106000000Y-98651414D02*
X105700000Y-98008557D01*
X105700000Y-98008557D02*
X105700000Y-98908557D01*
X104885715Y-98908557D02*
X104885715Y-98437128D01*
X104885715Y-98437128D02*
X104928572Y-98351414D01*
X104928572Y-98351414D02*
X105014286Y-98308557D01*
X105014286Y-98308557D02*
X105185715Y-98308557D01*
X105185715Y-98308557D02*
X105271429Y-98351414D01*
X104885715Y-98865700D02*
X104971429Y-98908557D01*
X104971429Y-98908557D02*
X105185715Y-98908557D01*
X105185715Y-98908557D02*
X105271429Y-98865700D01*
X105271429Y-98865700D02*
X105314286Y-98779985D01*
X105314286Y-98779985D02*
X105314286Y-98694271D01*
X105314286Y-98694271D02*
X105271429Y-98608557D01*
X105271429Y-98608557D02*
X105185715Y-98565700D01*
X105185715Y-98565700D02*
X104971429Y-98565700D01*
X104971429Y-98565700D02*
X104885715Y-98522842D01*
X104071429Y-98908557D02*
X104071429Y-98008557D01*
X104071429Y-98865700D02*
X104157143Y-98908557D01*
X104157143Y-98908557D02*
X104328571Y-98908557D01*
X104328571Y-98908557D02*
X104414286Y-98865700D01*
X104414286Y-98865700D02*
X104457143Y-98822842D01*
X104457143Y-98822842D02*
X104500000Y-98737128D01*
X104500000Y-98737128D02*
X104500000Y-98479985D01*
X104500000Y-98479985D02*
X104457143Y-98394271D01*
X104457143Y-98394271D02*
X104414286Y-98351414D01*
X104414286Y-98351414D02*
X104328571Y-98308557D01*
X104328571Y-98308557D02*
X104157143Y-98308557D01*
X104157143Y-98308557D02*
X104071429Y-98351414D01*
X103300000Y-98865700D02*
X103385714Y-98908557D01*
X103385714Y-98908557D02*
X103557143Y-98908557D01*
X103557143Y-98908557D02*
X103642857Y-98865700D01*
X103642857Y-98865700D02*
X103685714Y-98779985D01*
X103685714Y-98779985D02*
X103685714Y-98437128D01*
X103685714Y-98437128D02*
X103642857Y-98351414D01*
X103642857Y-98351414D02*
X103557143Y-98308557D01*
X103557143Y-98308557D02*
X103385714Y-98308557D01*
X103385714Y-98308557D02*
X103300000Y-98351414D01*
X103300000Y-98351414D02*
X103257143Y-98437128D01*
X103257143Y-98437128D02*
X103257143Y-98522842D01*
X103257143Y-98522842D02*
X103685714Y-98608557D01*
X102271428Y-98308557D02*
X102100000Y-98908557D01*
X102100000Y-98908557D02*
X101928571Y-98479985D01*
X101928571Y-98479985D02*
X101757142Y-98908557D01*
X101757142Y-98908557D02*
X101585714Y-98308557D01*
X101242857Y-98908557D02*
X101242857Y-98308557D01*
X101242857Y-98008557D02*
X101285714Y-98051414D01*
X101285714Y-98051414D02*
X101242857Y-98094271D01*
X101242857Y-98094271D02*
X101200000Y-98051414D01*
X101200000Y-98051414D02*
X101242857Y-98008557D01*
X101242857Y-98008557D02*
X101242857Y-98094271D01*
X100942857Y-98308557D02*
X100600000Y-98308557D01*
X100814286Y-98008557D02*
X100814286Y-98779985D01*
X100814286Y-98779985D02*
X100771429Y-98865700D01*
X100771429Y-98865700D02*
X100685714Y-98908557D01*
X100685714Y-98908557D02*
X100600000Y-98908557D01*
X100300000Y-98908557D02*
X100300000Y-98008557D01*
X99914286Y-98908557D02*
X99914286Y-98437128D01*
X99914286Y-98437128D02*
X99957143Y-98351414D01*
X99957143Y-98351414D02*
X100042857Y-98308557D01*
X100042857Y-98308557D02*
X100171428Y-98308557D01*
X100171428Y-98308557D02*
X100257143Y-98351414D01*
X100257143Y-98351414D02*
X100300000Y-98394271D01*
X98928571Y-98308557D02*
X98585714Y-98308557D01*
X98800000Y-98008557D02*
X98800000Y-98779985D01*
X98800000Y-98779985D02*
X98757143Y-98865700D01*
X98757143Y-98865700D02*
X98671428Y-98908557D01*
X98671428Y-98908557D02*
X98585714Y-98908557D01*
X98328571Y-98865700D02*
X98242857Y-98908557D01*
X98242857Y-98908557D02*
X98071428Y-98908557D01*
X98071428Y-98908557D02*
X97985714Y-98865700D01*
X97985714Y-98865700D02*
X97942857Y-98779985D01*
X97942857Y-98779985D02*
X97942857Y-98737128D01*
X97942857Y-98737128D02*
X97985714Y-98651414D01*
X97985714Y-98651414D02*
X98071428Y-98608557D01*
X98071428Y-98608557D02*
X98200000Y-98608557D01*
X98200000Y-98608557D02*
X98285714Y-98565700D01*
X98285714Y-98565700D02*
X98328571Y-98479985D01*
X98328571Y-98479985D02*
X98328571Y-98437128D01*
X98328571Y-98437128D02*
X98285714Y-98351414D01*
X98285714Y-98351414D02*
X98200000Y-98308557D01*
X98200000Y-98308557D02*
X98071428Y-98308557D01*
X98071428Y-98308557D02*
X97985714Y-98351414D01*
X97171429Y-98865700D02*
X97257143Y-98908557D01*
X97257143Y-98908557D02*
X97428571Y-98908557D01*
X97428571Y-98908557D02*
X97514286Y-98865700D01*
X97514286Y-98865700D02*
X97557143Y-98822842D01*
X97557143Y-98822842D02*
X97600000Y-98737128D01*
X97600000Y-98737128D02*
X97600000Y-98479985D01*
X97600000Y-98479985D02*
X97557143Y-98394271D01*
X97557143Y-98394271D02*
X97514286Y-98351414D01*
X97514286Y-98351414D02*
X97428571Y-98308557D01*
X97428571Y-98308557D02*
X97257143Y-98308557D01*
X97257143Y-98308557D02*
X97171429Y-98351414D01*
X96785714Y-98908557D02*
X96785714Y-98308557D01*
X96785714Y-98008557D02*
X96828571Y-98051414D01*
X96828571Y-98051414D02*
X96785714Y-98094271D01*
X96785714Y-98094271D02*
X96742857Y-98051414D01*
X96742857Y-98051414D02*
X96785714Y-98008557D01*
X96785714Y-98008557D02*
X96785714Y-98094271D01*
X96357143Y-98908557D02*
X96357143Y-98308557D01*
X96357143Y-98479985D02*
X96314286Y-98394271D01*
X96314286Y-98394271D02*
X96271429Y-98351414D01*
X96271429Y-98351414D02*
X96185714Y-98308557D01*
X96185714Y-98308557D02*
X96100000Y-98308557D01*
X95414286Y-98865700D02*
X95500000Y-98908557D01*
X95500000Y-98908557D02*
X95671428Y-98908557D01*
X95671428Y-98908557D02*
X95757143Y-98865700D01*
X95757143Y-98865700D02*
X95800000Y-98822842D01*
X95800000Y-98822842D02*
X95842857Y-98737128D01*
X95842857Y-98737128D02*
X95842857Y-98479985D01*
X95842857Y-98479985D02*
X95800000Y-98394271D01*
X95800000Y-98394271D02*
X95757143Y-98351414D01*
X95757143Y-98351414D02*
X95671428Y-98308557D01*
X95671428Y-98308557D02*
X95500000Y-98308557D01*
X95500000Y-98308557D02*
X95414286Y-98351414D01*
X94642857Y-98308557D02*
X94642857Y-98908557D01*
X95028571Y-98308557D02*
X95028571Y-98779985D01*
X95028571Y-98779985D02*
X94985714Y-98865700D01*
X94985714Y-98865700D02*
X94899999Y-98908557D01*
X94899999Y-98908557D02*
X94771428Y-98908557D01*
X94771428Y-98908557D02*
X94685714Y-98865700D01*
X94685714Y-98865700D02*
X94642857Y-98822842D01*
X94214285Y-98908557D02*
X94214285Y-98308557D01*
X94214285Y-98008557D02*
X94257142Y-98051414D01*
X94257142Y-98051414D02*
X94214285Y-98094271D01*
X94214285Y-98094271D02*
X94171428Y-98051414D01*
X94171428Y-98051414D02*
X94214285Y-98008557D01*
X94214285Y-98008557D02*
X94214285Y-98094271D01*
X93914285Y-98308557D02*
X93571428Y-98308557D01*
X93785714Y-98008557D02*
X93785714Y-98779985D01*
X93785714Y-98779985D02*
X93742857Y-98865700D01*
X93742857Y-98865700D02*
X93657142Y-98908557D01*
X93657142Y-98908557D02*
X93571428Y-98908557D01*
%LPC*%
D12*
%TO.C,J6*%
X91499986Y-102000000D03*
D13*
X89499990Y-102000000D03*
X87499994Y-102000000D03*
X85499998Y-102000000D03*
X83500002Y-102000000D03*
X81500006Y-102000000D03*
X79500010Y-102000000D03*
X77500014Y-102000000D03*
%TD*%
D14*
%TO.C,MH4*%
X129050000Y-138400000D03*
%TD*%
D15*
%TO.C,J3*%
X98019816Y-63500000D03*
D16*
X101980184Y-63500000D03*
%TD*%
D12*
%TO.C,J5*%
X90999992Y-137000000D03*
D13*
X88999996Y-137000000D03*
X87000000Y-137000000D03*
X85000004Y-137000000D03*
X83000008Y-137000000D03*
%TD*%
D14*
%TO.C,MH3*%
X61600000Y-129050000D03*
%TD*%
D17*
%TO.C,C23*%
X129500005Y-94000000D03*
X134499995Y-94000000D03*
%TD*%
D18*
%TO.C,J9*%
X116999994Y-61050000D03*
X114999998Y-61050000D03*
X113000002Y-61050000D03*
X111000006Y-61050000D03*
%TD*%
%TO.C,J8*%
X117999994Y-138550000D03*
X115999998Y-138550000D03*
X114000002Y-138550000D03*
X112000006Y-138550000D03*
%TD*%
D19*
%TO.C,J4*%
X75999990Y-137000000D03*
X73999994Y-137000000D03*
X71999998Y-137000000D03*
X70000002Y-137000000D03*
X68000006Y-137000000D03*
X66000010Y-137000000D03*
%TD*%
D17*
%TO.C,C22*%
X129500005Y-81000000D03*
X134499995Y-81000000D03*
%TD*%
D19*
%TO.C,J7*%
X106999990Y-138500000D03*
X104999994Y-138500000D03*
X102999998Y-138500000D03*
X101000002Y-138500000D03*
X99000006Y-138500000D03*
X97000010Y-138500000D03*
%TD*%
D14*
%TO.C,MH2*%
X138400000Y-70950000D03*
%TD*%
%TO.C,MH1*%
X70950000Y-61600000D03*
%TD*%
D15*
%TO.C,J2*%
X122059956Y-65000000D03*
D16*
X126020070Y-65000000D03*
X129980184Y-65000000D03*
X133940044Y-65000000D03*
%TD*%
D20*
%TO.C,J1*%
X65064646Y-64109988D03*
X65064646Y-69890012D03*
D21*
X65544453Y-62679968D03*
X65544453Y-71320032D03*
D22*
X61364375Y-71320032D03*
X61364374Y-62679968D03*
%TD*%
%LPD*%
M02*
