%TF.GenerationSoftware,KiCad,Pcbnew,10.0.5*%
%TF.CreationDate,2026-10-07T16:57:02+05:30*%
%TF.ProjectId,pd1180-epr-r0.3,70643131-3830-42d6-9570-722d72302e33,rev?*%
%TF.SameCoordinates,Original*%
%TF.FileFunction,Legend,Bot*%
%TF.FilePolarity,Positive*%
%FSLAX46Y46*%
G04 Gerber Fmt 4.6, Leading zero omitted, Abs format (unit mm)*
G04 Created by KiCad (PCBNEW 10.0.5) date 2026-10-07 16:57:02*
%MOMM*%
%LPD*%
G01*
G04 APERTURE LIST*
G04 Aperture macros list*
%AMRoundRect*
0 Rectangle with rounded corners*
0 $1 Rounding radius*
0 $2 $3 $4 $5 $6 $7 $8 $9 X,Y pos of 4 corners*
0 Add a 4 corners polygon primitive as box body*
4,1,4,$2,$3,$4,$5,$6,$7,$8,$9,$2,$3,0*
0 Add four circle primitives for the rounded corners*
1,1,$1+$1,$2,$3*
1,1,$1+$1,$4,$5*
1,1,$1+$1,$6,$7*
1,1,$1+$1,$8,$9*
0 Add four rect primitives between the rounded corners*
20,1,$1+$1,$2,$3,$4,$5,0*
20,1,$1+$1,$4,$5,$6,$7,0*
20,1,$1+$1,$6,$7,$8,$9,0*
20,1,$1+$1,$8,$9,$2,$3,0*%
G04 Aperture macros list end*
%ADD10C,0.150000*%
%ADD11C,0.100000*%
%ADD12C,0.120000*%
%ADD13C,1.599997*%
%ADD14C,0.649986*%
%ADD15O,2.099996X1.099998*%
%ADD16O,1.799996X1.099998*%
%ADD17C,4.200000*%
%ADD18C,2.099996*%
%ADD19R,2.499995X2.499995*%
%ADD20C,2.499995*%
%ADD21R,1.399997X1.399997*%
%ADD22C,1.399997*%
%ADD23R,0.800000X0.950000*%
%ADD24C,1.400000*%
%ADD25RoundRect,0.350000X0.000010X0.499998X-0.000010X0.499998X-0.000010X-0.499998X0.000010X-0.499998X0*%
%ADD26R,3.499993X2.499995*%
%ADD27R,2.474011X5.020005*%
%ADD28R,0.950011X1.150010*%
%ADD29R,1.025000X1.400000*%
%ADD30R,1.250010X0.699999*%
%ADD31R,1.999996X1.999996*%
%ADD32R,1.750000X1.125000*%
%ADD33R,0.950000X0.800000*%
%ADD34R,0.399999X1.699997*%
G04 APERTURE END LIST*
D10*
X85399999Y-128324200D02*
X85299999Y-128362295D01*
X85299999Y-128362295D02*
X85133333Y-128362295D01*
X85133333Y-128362295D02*
X85066666Y-128324200D01*
X85066666Y-128324200D02*
X85033333Y-128286104D01*
X85033333Y-128286104D02*
X84999999Y-128209914D01*
X84999999Y-128209914D02*
X84999999Y-128133723D01*
X84999999Y-128133723D02*
X85033333Y-128057533D01*
X85033333Y-128057533D02*
X85066666Y-128019438D01*
X85066666Y-128019438D02*
X85133333Y-127981342D01*
X85133333Y-127981342D02*
X85266666Y-127943247D01*
X85266666Y-127943247D02*
X85333333Y-127905152D01*
X85333333Y-127905152D02*
X85366666Y-127867057D01*
X85366666Y-127867057D02*
X85399999Y-127790866D01*
X85399999Y-127790866D02*
X85399999Y-127714676D01*
X85399999Y-127714676D02*
X85366666Y-127638485D01*
X85366666Y-127638485D02*
X85333333Y-127600390D01*
X85333333Y-127600390D02*
X85266666Y-127562295D01*
X85266666Y-127562295D02*
X85099999Y-127562295D01*
X85099999Y-127562295D02*
X84999999Y-127600390D01*
X84766666Y-127562295D02*
X84599999Y-128362295D01*
X84599999Y-128362295D02*
X84466666Y-127790866D01*
X84466666Y-127790866D02*
X84333332Y-128362295D01*
X84333332Y-128362295D02*
X84166666Y-127562295D01*
X83899999Y-128362295D02*
X83899999Y-127562295D01*
X83899999Y-127562295D02*
X83733332Y-127562295D01*
X83733332Y-127562295D02*
X83633332Y-127600390D01*
X83633332Y-127600390D02*
X83566666Y-127676580D01*
X83566666Y-127676580D02*
X83533332Y-127752771D01*
X83533332Y-127752771D02*
X83499999Y-127905152D01*
X83499999Y-127905152D02*
X83499999Y-128019438D01*
X83499999Y-128019438D02*
X83533332Y-128171819D01*
X83533332Y-128171819D02*
X83566666Y-128248009D01*
X83566666Y-128248009D02*
X83633332Y-128324200D01*
X83633332Y-128324200D02*
X83733332Y-128362295D01*
X83733332Y-128362295D02*
X83899999Y-128362295D01*
X82766666Y-127562295D02*
X82366666Y-127562295D01*
X82566666Y-128362295D02*
X82566666Y-127562295D01*
X82133333Y-127943247D02*
X81900000Y-127943247D01*
X81800000Y-128362295D02*
X82133333Y-128362295D01*
X82133333Y-128362295D02*
X82133333Y-127562295D01*
X82133333Y-127562295D02*
X81800000Y-127562295D01*
X81533333Y-128324200D02*
X81433333Y-128362295D01*
X81433333Y-128362295D02*
X81266667Y-128362295D01*
X81266667Y-128362295D02*
X81200000Y-128324200D01*
X81200000Y-128324200D02*
X81166667Y-128286104D01*
X81166667Y-128286104D02*
X81133333Y-128209914D01*
X81133333Y-128209914D02*
X81133333Y-128133723D01*
X81133333Y-128133723D02*
X81166667Y-128057533D01*
X81166667Y-128057533D02*
X81200000Y-128019438D01*
X81200000Y-128019438D02*
X81266667Y-127981342D01*
X81266667Y-127981342D02*
X81400000Y-127943247D01*
X81400000Y-127943247D02*
X81466667Y-127905152D01*
X81466667Y-127905152D02*
X81500000Y-127867057D01*
X81500000Y-127867057D02*
X81533333Y-127790866D01*
X81533333Y-127790866D02*
X81533333Y-127714676D01*
X81533333Y-127714676D02*
X81500000Y-127638485D01*
X81500000Y-127638485D02*
X81466667Y-127600390D01*
X81466667Y-127600390D02*
X81400000Y-127562295D01*
X81400000Y-127562295D02*
X81233333Y-127562295D01*
X81233333Y-127562295D02*
X81133333Y-127600390D01*
X80933333Y-127562295D02*
X80533333Y-127562295D01*
X80733333Y-128362295D02*
X80733333Y-127562295D01*
X96316665Y-131943247D02*
X96083332Y-131943247D01*
X95983332Y-132362295D02*
X96316665Y-132362295D01*
X96316665Y-132362295D02*
X96316665Y-131562295D01*
X96316665Y-131562295D02*
X95983332Y-131562295D01*
X95683332Y-132362295D02*
X95683332Y-131562295D01*
X95683332Y-131562295D02*
X95283332Y-132362295D01*
X95283332Y-132362295D02*
X95283332Y-131562295D01*
X94549999Y-132286104D02*
X94583332Y-132324200D01*
X94583332Y-132324200D02*
X94683332Y-132362295D01*
X94683332Y-132362295D02*
X94749999Y-132362295D01*
X94749999Y-132362295D02*
X94849999Y-132324200D01*
X94849999Y-132324200D02*
X94916666Y-132248009D01*
X94916666Y-132248009D02*
X94949999Y-132171819D01*
X94949999Y-132171819D02*
X94983332Y-132019438D01*
X94983332Y-132019438D02*
X94983332Y-131905152D01*
X94983332Y-131905152D02*
X94949999Y-131752771D01*
X94949999Y-131752771D02*
X94916666Y-131676580D01*
X94916666Y-131676580D02*
X94849999Y-131600390D01*
X94849999Y-131600390D02*
X94749999Y-131562295D01*
X94749999Y-131562295D02*
X94683332Y-131562295D01*
X94683332Y-131562295D02*
X94583332Y-131600390D01*
X94583332Y-131600390D02*
X94549999Y-131638485D01*
X93816666Y-131562295D02*
X93416666Y-131562295D01*
X93616666Y-132362295D02*
X93616666Y-131562295D01*
X93183333Y-131943247D02*
X92950000Y-131943247D01*
X92850000Y-132362295D02*
X93183333Y-132362295D01*
X93183333Y-132362295D02*
X93183333Y-131562295D01*
X93183333Y-131562295D02*
X92850000Y-131562295D01*
X92583333Y-132324200D02*
X92483333Y-132362295D01*
X92483333Y-132362295D02*
X92316667Y-132362295D01*
X92316667Y-132362295D02*
X92250000Y-132324200D01*
X92250000Y-132324200D02*
X92216667Y-132286104D01*
X92216667Y-132286104D02*
X92183333Y-132209914D01*
X92183333Y-132209914D02*
X92183333Y-132133723D01*
X92183333Y-132133723D02*
X92216667Y-132057533D01*
X92216667Y-132057533D02*
X92250000Y-132019438D01*
X92250000Y-132019438D02*
X92316667Y-131981342D01*
X92316667Y-131981342D02*
X92450000Y-131943247D01*
X92450000Y-131943247D02*
X92516667Y-131905152D01*
X92516667Y-131905152D02*
X92550000Y-131867057D01*
X92550000Y-131867057D02*
X92583333Y-131790866D01*
X92583333Y-131790866D02*
X92583333Y-131714676D01*
X92583333Y-131714676D02*
X92550000Y-131638485D01*
X92550000Y-131638485D02*
X92516667Y-131600390D01*
X92516667Y-131600390D02*
X92450000Y-131562295D01*
X92450000Y-131562295D02*
X92283333Y-131562295D01*
X92283333Y-131562295D02*
X92183333Y-131600390D01*
X91983333Y-131562295D02*
X91583333Y-131562295D01*
X91783333Y-132362295D02*
X91783333Y-131562295D01*
X114495241Y-80362295D02*
X114495241Y-79562295D01*
X114495241Y-79562295D02*
X114190479Y-79562295D01*
X114190479Y-79562295D02*
X114114289Y-79600390D01*
X114114289Y-79600390D02*
X114076194Y-79638485D01*
X114076194Y-79638485D02*
X114038098Y-79714676D01*
X114038098Y-79714676D02*
X114038098Y-79828961D01*
X114038098Y-79828961D02*
X114076194Y-79905152D01*
X114076194Y-79905152D02*
X114114289Y-79943247D01*
X114114289Y-79943247D02*
X114190479Y-79981342D01*
X114190479Y-79981342D02*
X114495241Y-79981342D01*
X113695241Y-80362295D02*
X113695241Y-79562295D01*
X113695241Y-79562295D02*
X113504765Y-79562295D01*
X113504765Y-79562295D02*
X113390479Y-79600390D01*
X113390479Y-79600390D02*
X113314289Y-79676580D01*
X113314289Y-79676580D02*
X113276194Y-79752771D01*
X113276194Y-79752771D02*
X113238098Y-79905152D01*
X113238098Y-79905152D02*
X113238098Y-80019438D01*
X113238098Y-80019438D02*
X113276194Y-80171819D01*
X113276194Y-80171819D02*
X113314289Y-80248009D01*
X113314289Y-80248009D02*
X113390479Y-80324200D01*
X113390479Y-80324200D02*
X113504765Y-80362295D01*
X113504765Y-80362295D02*
X113695241Y-80362295D01*
X112476194Y-80362295D02*
X112933337Y-80362295D01*
X112704765Y-80362295D02*
X112704765Y-79562295D01*
X112704765Y-79562295D02*
X112780956Y-79676580D01*
X112780956Y-79676580D02*
X112857146Y-79752771D01*
X112857146Y-79752771D02*
X112933337Y-79790866D01*
X111714289Y-80362295D02*
X112171432Y-80362295D01*
X111942860Y-80362295D02*
X111942860Y-79562295D01*
X111942860Y-79562295D02*
X112019051Y-79676580D01*
X112019051Y-79676580D02*
X112095241Y-79752771D01*
X112095241Y-79752771D02*
X112171432Y-79790866D01*
X111257146Y-79905152D02*
X111333336Y-79867057D01*
X111333336Y-79867057D02*
X111371431Y-79828961D01*
X111371431Y-79828961D02*
X111409527Y-79752771D01*
X111409527Y-79752771D02*
X111409527Y-79714676D01*
X111409527Y-79714676D02*
X111371431Y-79638485D01*
X111371431Y-79638485D02*
X111333336Y-79600390D01*
X111333336Y-79600390D02*
X111257146Y-79562295D01*
X111257146Y-79562295D02*
X111104765Y-79562295D01*
X111104765Y-79562295D02*
X111028574Y-79600390D01*
X111028574Y-79600390D02*
X110990479Y-79638485D01*
X110990479Y-79638485D02*
X110952384Y-79714676D01*
X110952384Y-79714676D02*
X110952384Y-79752771D01*
X110952384Y-79752771D02*
X110990479Y-79828961D01*
X110990479Y-79828961D02*
X111028574Y-79867057D01*
X111028574Y-79867057D02*
X111104765Y-79905152D01*
X111104765Y-79905152D02*
X111257146Y-79905152D01*
X111257146Y-79905152D02*
X111333336Y-79943247D01*
X111333336Y-79943247D02*
X111371431Y-79981342D01*
X111371431Y-79981342D02*
X111409527Y-80057533D01*
X111409527Y-80057533D02*
X111409527Y-80209914D01*
X111409527Y-80209914D02*
X111371431Y-80286104D01*
X111371431Y-80286104D02*
X111333336Y-80324200D01*
X111333336Y-80324200D02*
X111257146Y-80362295D01*
X111257146Y-80362295D02*
X111104765Y-80362295D01*
X111104765Y-80362295D02*
X111028574Y-80324200D01*
X111028574Y-80324200D02*
X110990479Y-80286104D01*
X110990479Y-80286104D02*
X110952384Y-80209914D01*
X110952384Y-80209914D02*
X110952384Y-80057533D01*
X110952384Y-80057533D02*
X110990479Y-79981342D01*
X110990479Y-79981342D02*
X111028574Y-79943247D01*
X111028574Y-79943247D02*
X111104765Y-79905152D01*
X110457145Y-79562295D02*
X110380955Y-79562295D01*
X110380955Y-79562295D02*
X110304764Y-79600390D01*
X110304764Y-79600390D02*
X110266669Y-79638485D01*
X110266669Y-79638485D02*
X110228574Y-79714676D01*
X110228574Y-79714676D02*
X110190479Y-79867057D01*
X110190479Y-79867057D02*
X110190479Y-80057533D01*
X110190479Y-80057533D02*
X110228574Y-80209914D01*
X110228574Y-80209914D02*
X110266669Y-80286104D01*
X110266669Y-80286104D02*
X110304764Y-80324200D01*
X110304764Y-80324200D02*
X110380955Y-80362295D01*
X110380955Y-80362295D02*
X110457145Y-80362295D01*
X110457145Y-80362295D02*
X110533336Y-80324200D01*
X110533336Y-80324200D02*
X110571431Y-80286104D01*
X110571431Y-80286104D02*
X110609526Y-80209914D01*
X110609526Y-80209914D02*
X110647622Y-80057533D01*
X110647622Y-80057533D02*
X110647622Y-79867057D01*
X110647622Y-79867057D02*
X110609526Y-79714676D01*
X110609526Y-79714676D02*
X110571431Y-79638485D01*
X110571431Y-79638485D02*
X110533336Y-79600390D01*
X110533336Y-79600390D02*
X110457145Y-79562295D01*
X109847621Y-80057533D02*
X109238098Y-80057533D01*
X108857145Y-79943247D02*
X108590479Y-79943247D01*
X108476193Y-80362295D02*
X108857145Y-80362295D01*
X108857145Y-80362295D02*
X108857145Y-79562295D01*
X108857145Y-79562295D02*
X108476193Y-79562295D01*
X108133335Y-80362295D02*
X108133335Y-79562295D01*
X108133335Y-79562295D02*
X107828573Y-79562295D01*
X107828573Y-79562295D02*
X107752383Y-79600390D01*
X107752383Y-79600390D02*
X107714288Y-79638485D01*
X107714288Y-79638485D02*
X107676192Y-79714676D01*
X107676192Y-79714676D02*
X107676192Y-79828961D01*
X107676192Y-79828961D02*
X107714288Y-79905152D01*
X107714288Y-79905152D02*
X107752383Y-79943247D01*
X107752383Y-79943247D02*
X107828573Y-79981342D01*
X107828573Y-79981342D02*
X108133335Y-79981342D01*
X106876192Y-80362295D02*
X107142859Y-79981342D01*
X107333335Y-80362295D02*
X107333335Y-79562295D01*
X107333335Y-79562295D02*
X107028573Y-79562295D01*
X107028573Y-79562295D02*
X106952383Y-79600390D01*
X106952383Y-79600390D02*
X106914288Y-79638485D01*
X106914288Y-79638485D02*
X106876192Y-79714676D01*
X106876192Y-79714676D02*
X106876192Y-79828961D01*
X106876192Y-79828961D02*
X106914288Y-79905152D01*
X106914288Y-79905152D02*
X106952383Y-79943247D01*
X106952383Y-79943247D02*
X107028573Y-79981342D01*
X107028573Y-79981342D02*
X107333335Y-79981342D01*
X106000002Y-80095628D02*
X105314288Y-80095628D01*
X104400001Y-80362295D02*
X104400001Y-79562295D01*
X104400001Y-79562295D02*
X103942858Y-80362295D01*
X103942858Y-80362295D02*
X103942858Y-79562295D01*
X103561906Y-79943247D02*
X103295240Y-79943247D01*
X103180954Y-80362295D02*
X103561906Y-80362295D01*
X103561906Y-80362295D02*
X103561906Y-79562295D01*
X103561906Y-79562295D02*
X103180954Y-79562295D01*
X102838096Y-80362295D02*
X102838096Y-79562295D01*
X102838096Y-79562295D02*
X102571430Y-80133723D01*
X102571430Y-80133723D02*
X102304763Y-79562295D01*
X102304763Y-79562295D02*
X102304763Y-80362295D01*
X101961906Y-80133723D02*
X101580953Y-80133723D01*
X102038096Y-80362295D02*
X101771429Y-79562295D01*
X101771429Y-79562295D02*
X101504763Y-80362295D01*
X100704763Y-79562295D02*
X100209525Y-79562295D01*
X100209525Y-79562295D02*
X100476191Y-79867057D01*
X100476191Y-79867057D02*
X100361906Y-79867057D01*
X100361906Y-79867057D02*
X100285715Y-79905152D01*
X100285715Y-79905152D02*
X100247620Y-79943247D01*
X100247620Y-79943247D02*
X100209525Y-80019438D01*
X100209525Y-80019438D02*
X100209525Y-80209914D01*
X100209525Y-80209914D02*
X100247620Y-80286104D01*
X100247620Y-80286104D02*
X100285715Y-80324200D01*
X100285715Y-80324200D02*
X100361906Y-80362295D01*
X100361906Y-80362295D02*
X100590477Y-80362295D01*
X100590477Y-80362295D02*
X100666668Y-80324200D01*
X100666668Y-80324200D02*
X100704763Y-80286104D01*
X99523810Y-79828961D02*
X99523810Y-80362295D01*
X99714286Y-79524200D02*
X99904763Y-80095628D01*
X99904763Y-80095628D02*
X99409524Y-80095628D01*
X98533334Y-80324200D02*
X98419048Y-80362295D01*
X98419048Y-80362295D02*
X98228572Y-80362295D01*
X98228572Y-80362295D02*
X98152381Y-80324200D01*
X98152381Y-80324200D02*
X98114286Y-80286104D01*
X98114286Y-80286104D02*
X98076191Y-80209914D01*
X98076191Y-80209914D02*
X98076191Y-80133723D01*
X98076191Y-80133723D02*
X98114286Y-80057533D01*
X98114286Y-80057533D02*
X98152381Y-80019438D01*
X98152381Y-80019438D02*
X98228572Y-79981342D01*
X98228572Y-79981342D02*
X98380953Y-79943247D01*
X98380953Y-79943247D02*
X98457143Y-79905152D01*
X98457143Y-79905152D02*
X98495238Y-79867057D01*
X98495238Y-79867057D02*
X98533334Y-79790866D01*
X98533334Y-79790866D02*
X98533334Y-79714676D01*
X98533334Y-79714676D02*
X98495238Y-79638485D01*
X98495238Y-79638485D02*
X98457143Y-79600390D01*
X98457143Y-79600390D02*
X98380953Y-79562295D01*
X98380953Y-79562295D02*
X98190476Y-79562295D01*
X98190476Y-79562295D02*
X98076191Y-79600390D01*
X97733333Y-80362295D02*
X97733333Y-79828961D01*
X97733333Y-79905152D02*
X97695238Y-79867057D01*
X97695238Y-79867057D02*
X97619048Y-79828961D01*
X97619048Y-79828961D02*
X97504762Y-79828961D01*
X97504762Y-79828961D02*
X97428571Y-79867057D01*
X97428571Y-79867057D02*
X97390476Y-79943247D01*
X97390476Y-79943247D02*
X97390476Y-80362295D01*
X97390476Y-79943247D02*
X97352381Y-79867057D01*
X97352381Y-79867057D02*
X97276190Y-79828961D01*
X97276190Y-79828961D02*
X97161905Y-79828961D01*
X97161905Y-79828961D02*
X97085714Y-79867057D01*
X97085714Y-79867057D02*
X97047619Y-79943247D01*
X97047619Y-79943247D02*
X97047619Y-80362295D01*
X96323809Y-80362295D02*
X96323809Y-79943247D01*
X96323809Y-79943247D02*
X96361904Y-79867057D01*
X96361904Y-79867057D02*
X96438095Y-79828961D01*
X96438095Y-79828961D02*
X96590476Y-79828961D01*
X96590476Y-79828961D02*
X96666666Y-79867057D01*
X96323809Y-80324200D02*
X96400000Y-80362295D01*
X96400000Y-80362295D02*
X96590476Y-80362295D01*
X96590476Y-80362295D02*
X96666666Y-80324200D01*
X96666666Y-80324200D02*
X96704762Y-80248009D01*
X96704762Y-80248009D02*
X96704762Y-80171819D01*
X96704762Y-80171819D02*
X96666666Y-80095628D01*
X96666666Y-80095628D02*
X96590476Y-80057533D01*
X96590476Y-80057533D02*
X96400000Y-80057533D01*
X96400000Y-80057533D02*
X96323809Y-80019438D01*
X95942856Y-80362295D02*
X95942856Y-79828961D01*
X95942856Y-79981342D02*
X95904761Y-79905152D01*
X95904761Y-79905152D02*
X95866666Y-79867057D01*
X95866666Y-79867057D02*
X95790475Y-79828961D01*
X95790475Y-79828961D02*
X95714285Y-79828961D01*
X95561904Y-79828961D02*
X95257142Y-79828961D01*
X95447618Y-79562295D02*
X95447618Y-80248009D01*
X95447618Y-80248009D02*
X95409523Y-80324200D01*
X95409523Y-80324200D02*
X95333333Y-80362295D01*
X95333333Y-80362295D02*
X95257142Y-80362295D01*
X94380951Y-80362295D02*
X94380951Y-79562295D01*
X94380951Y-79562295D02*
X94114285Y-80133723D01*
X94114285Y-80133723D02*
X93847618Y-79562295D01*
X93847618Y-79562295D02*
X93847618Y-80362295D01*
X93352380Y-80362295D02*
X93428570Y-80324200D01*
X93428570Y-80324200D02*
X93466665Y-80286104D01*
X93466665Y-80286104D02*
X93504761Y-80209914D01*
X93504761Y-80209914D02*
X93504761Y-79981342D01*
X93504761Y-79981342D02*
X93466665Y-79905152D01*
X93466665Y-79905152D02*
X93428570Y-79867057D01*
X93428570Y-79867057D02*
X93352380Y-79828961D01*
X93352380Y-79828961D02*
X93238094Y-79828961D01*
X93238094Y-79828961D02*
X93161903Y-79867057D01*
X93161903Y-79867057D02*
X93123808Y-79905152D01*
X93123808Y-79905152D02*
X93085713Y-79981342D01*
X93085713Y-79981342D02*
X93085713Y-80209914D01*
X93085713Y-80209914D02*
X93123808Y-80286104D01*
X93123808Y-80286104D02*
X93161903Y-80324200D01*
X93161903Y-80324200D02*
X93238094Y-80362295D01*
X93238094Y-80362295D02*
X93352380Y-80362295D01*
X92857141Y-79828961D02*
X92552379Y-79828961D01*
X92742855Y-79562295D02*
X92742855Y-80248009D01*
X92742855Y-80248009D02*
X92704760Y-80324200D01*
X92704760Y-80324200D02*
X92628570Y-80362295D01*
X92628570Y-80362295D02*
X92552379Y-80362295D01*
X92171427Y-80362295D02*
X92247617Y-80324200D01*
X92247617Y-80324200D02*
X92285712Y-80286104D01*
X92285712Y-80286104D02*
X92323808Y-80209914D01*
X92323808Y-80209914D02*
X92323808Y-79981342D01*
X92323808Y-79981342D02*
X92285712Y-79905152D01*
X92285712Y-79905152D02*
X92247617Y-79867057D01*
X92247617Y-79867057D02*
X92171427Y-79828961D01*
X92171427Y-79828961D02*
X92057141Y-79828961D01*
X92057141Y-79828961D02*
X91980950Y-79867057D01*
X91980950Y-79867057D02*
X91942855Y-79905152D01*
X91942855Y-79905152D02*
X91904760Y-79981342D01*
X91904760Y-79981342D02*
X91904760Y-80209914D01*
X91904760Y-80209914D02*
X91942855Y-80286104D01*
X91942855Y-80286104D02*
X91980950Y-80324200D01*
X91980950Y-80324200D02*
X92057141Y-80362295D01*
X92057141Y-80362295D02*
X92171427Y-80362295D01*
X91561902Y-80362295D02*
X91561902Y-79828961D01*
X91561902Y-79981342D02*
X91523807Y-79905152D01*
X91523807Y-79905152D02*
X91485712Y-79867057D01*
X91485712Y-79867057D02*
X91409521Y-79828961D01*
X91409521Y-79828961D02*
X91333331Y-79828961D01*
X91066664Y-80057533D02*
X90457141Y-80057533D01*
X90076188Y-80362295D02*
X90076188Y-79562295D01*
X90076188Y-79562295D02*
X89809522Y-80133723D01*
X89809522Y-80133723D02*
X89542855Y-79562295D01*
X89542855Y-79562295D02*
X89542855Y-80362295D01*
X89047617Y-80362295D02*
X89123807Y-80324200D01*
X89123807Y-80324200D02*
X89161902Y-80286104D01*
X89161902Y-80286104D02*
X89199998Y-80209914D01*
X89199998Y-80209914D02*
X89199998Y-79981342D01*
X89199998Y-79981342D02*
X89161902Y-79905152D01*
X89161902Y-79905152D02*
X89123807Y-79867057D01*
X89123807Y-79867057D02*
X89047617Y-79828961D01*
X89047617Y-79828961D02*
X88933331Y-79828961D01*
X88933331Y-79828961D02*
X88857140Y-79867057D01*
X88857140Y-79867057D02*
X88819045Y-79905152D01*
X88819045Y-79905152D02*
X88780950Y-79981342D01*
X88780950Y-79981342D02*
X88780950Y-80209914D01*
X88780950Y-80209914D02*
X88819045Y-80286104D01*
X88819045Y-80286104D02*
X88857140Y-80324200D01*
X88857140Y-80324200D02*
X88933331Y-80362295D01*
X88933331Y-80362295D02*
X89047617Y-80362295D01*
X88095235Y-79828961D02*
X88095235Y-80362295D01*
X88438092Y-79828961D02*
X88438092Y-80248009D01*
X88438092Y-80248009D02*
X88399997Y-80324200D01*
X88399997Y-80324200D02*
X88323807Y-80362295D01*
X88323807Y-80362295D02*
X88209521Y-80362295D01*
X88209521Y-80362295D02*
X88133330Y-80324200D01*
X88133330Y-80324200D02*
X88095235Y-80286104D01*
X87714282Y-79828961D02*
X87714282Y-80362295D01*
X87714282Y-79905152D02*
X87676187Y-79867057D01*
X87676187Y-79867057D02*
X87599997Y-79828961D01*
X87599997Y-79828961D02*
X87485711Y-79828961D01*
X87485711Y-79828961D02*
X87409520Y-79867057D01*
X87409520Y-79867057D02*
X87371425Y-79943247D01*
X87371425Y-79943247D02*
X87371425Y-80362295D01*
X87104758Y-79828961D02*
X86799996Y-79828961D01*
X86990472Y-79562295D02*
X86990472Y-80248009D01*
X86990472Y-80248009D02*
X86952377Y-80324200D01*
X86952377Y-80324200D02*
X86876187Y-80362295D01*
X86876187Y-80362295D02*
X86799996Y-80362295D01*
X86228567Y-80324200D02*
X86304758Y-80362295D01*
X86304758Y-80362295D02*
X86457139Y-80362295D01*
X86457139Y-80362295D02*
X86533329Y-80324200D01*
X86533329Y-80324200D02*
X86571425Y-80248009D01*
X86571425Y-80248009D02*
X86571425Y-79943247D01*
X86571425Y-79943247D02*
X86533329Y-79867057D01*
X86533329Y-79867057D02*
X86457139Y-79828961D01*
X86457139Y-79828961D02*
X86304758Y-79828961D01*
X86304758Y-79828961D02*
X86228567Y-79867057D01*
X86228567Y-79867057D02*
X86190472Y-79943247D01*
X86190472Y-79943247D02*
X86190472Y-80019438D01*
X86190472Y-80019438D02*
X86571425Y-80095628D01*
X85504758Y-80362295D02*
X85504758Y-79562295D01*
X85504758Y-80324200D02*
X85580949Y-80362295D01*
X85580949Y-80362295D02*
X85733330Y-80362295D01*
X85733330Y-80362295D02*
X85809520Y-80324200D01*
X85809520Y-80324200D02*
X85847615Y-80286104D01*
X85847615Y-80286104D02*
X85885711Y-80209914D01*
X85885711Y-80209914D02*
X85885711Y-79981342D01*
X85885711Y-79981342D02*
X85847615Y-79905152D01*
X85847615Y-79905152D02*
X85809520Y-79867057D01*
X85809520Y-79867057D02*
X85733330Y-79828961D01*
X85733330Y-79828961D02*
X85580949Y-79828961D01*
X85580949Y-79828961D02*
X85504758Y-79867057D01*
X115238097Y-81524200D02*
X115123811Y-81562295D01*
X115123811Y-81562295D02*
X114933335Y-81562295D01*
X114933335Y-81562295D02*
X114857144Y-81524200D01*
X114857144Y-81524200D02*
X114819049Y-81486104D01*
X114819049Y-81486104D02*
X114780954Y-81409914D01*
X114780954Y-81409914D02*
X114780954Y-81333723D01*
X114780954Y-81333723D02*
X114819049Y-81257533D01*
X114819049Y-81257533D02*
X114857144Y-81219438D01*
X114857144Y-81219438D02*
X114933335Y-81181342D01*
X114933335Y-81181342D02*
X115085716Y-81143247D01*
X115085716Y-81143247D02*
X115161906Y-81105152D01*
X115161906Y-81105152D02*
X115200001Y-81067057D01*
X115200001Y-81067057D02*
X115238097Y-80990866D01*
X115238097Y-80990866D02*
X115238097Y-80914676D01*
X115238097Y-80914676D02*
X115200001Y-80838485D01*
X115200001Y-80838485D02*
X115161906Y-80800390D01*
X115161906Y-80800390D02*
X115085716Y-80762295D01*
X115085716Y-80762295D02*
X114895239Y-80762295D01*
X114895239Y-80762295D02*
X114780954Y-80800390D01*
X114552382Y-81028961D02*
X114247620Y-81028961D01*
X114438096Y-80762295D02*
X114438096Y-81448009D01*
X114438096Y-81448009D02*
X114400001Y-81524200D01*
X114400001Y-81524200D02*
X114323811Y-81562295D01*
X114323811Y-81562295D02*
X114247620Y-81562295D01*
X113676191Y-81524200D02*
X113752382Y-81562295D01*
X113752382Y-81562295D02*
X113904763Y-81562295D01*
X113904763Y-81562295D02*
X113980953Y-81524200D01*
X113980953Y-81524200D02*
X114019049Y-81448009D01*
X114019049Y-81448009D02*
X114019049Y-81143247D01*
X114019049Y-81143247D02*
X113980953Y-81067057D01*
X113980953Y-81067057D02*
X113904763Y-81028961D01*
X113904763Y-81028961D02*
X113752382Y-81028961D01*
X113752382Y-81028961D02*
X113676191Y-81067057D01*
X113676191Y-81067057D02*
X113638096Y-81143247D01*
X113638096Y-81143247D02*
X113638096Y-81219438D01*
X113638096Y-81219438D02*
X114019049Y-81295628D01*
X113295239Y-81028961D02*
X113295239Y-81828961D01*
X113295239Y-81067057D02*
X113219049Y-81028961D01*
X113219049Y-81028961D02*
X113066668Y-81028961D01*
X113066668Y-81028961D02*
X112990477Y-81067057D01*
X112990477Y-81067057D02*
X112952382Y-81105152D01*
X112952382Y-81105152D02*
X112914287Y-81181342D01*
X112914287Y-81181342D02*
X112914287Y-81409914D01*
X112914287Y-81409914D02*
X112952382Y-81486104D01*
X112952382Y-81486104D02*
X112990477Y-81524200D01*
X112990477Y-81524200D02*
X113066668Y-81562295D01*
X113066668Y-81562295D02*
X113219049Y-81562295D01*
X113219049Y-81562295D02*
X113295239Y-81524200D01*
X112571429Y-81028961D02*
X112571429Y-81828961D01*
X112571429Y-81067057D02*
X112495239Y-81028961D01*
X112495239Y-81028961D02*
X112342858Y-81028961D01*
X112342858Y-81028961D02*
X112266667Y-81067057D01*
X112266667Y-81067057D02*
X112228572Y-81105152D01*
X112228572Y-81105152D02*
X112190477Y-81181342D01*
X112190477Y-81181342D02*
X112190477Y-81409914D01*
X112190477Y-81409914D02*
X112228572Y-81486104D01*
X112228572Y-81486104D02*
X112266667Y-81524200D01*
X112266667Y-81524200D02*
X112342858Y-81562295D01*
X112342858Y-81562295D02*
X112495239Y-81562295D01*
X112495239Y-81562295D02*
X112571429Y-81524200D01*
X111542857Y-81524200D02*
X111619048Y-81562295D01*
X111619048Y-81562295D02*
X111771429Y-81562295D01*
X111771429Y-81562295D02*
X111847619Y-81524200D01*
X111847619Y-81524200D02*
X111885715Y-81448009D01*
X111885715Y-81448009D02*
X111885715Y-81143247D01*
X111885715Y-81143247D02*
X111847619Y-81067057D01*
X111847619Y-81067057D02*
X111771429Y-81028961D01*
X111771429Y-81028961D02*
X111619048Y-81028961D01*
X111619048Y-81028961D02*
X111542857Y-81067057D01*
X111542857Y-81067057D02*
X111504762Y-81143247D01*
X111504762Y-81143247D02*
X111504762Y-81219438D01*
X111504762Y-81219438D02*
X111885715Y-81295628D01*
X111161905Y-81562295D02*
X111161905Y-81028961D01*
X111161905Y-81181342D02*
X111123810Y-81105152D01*
X111123810Y-81105152D02*
X111085715Y-81067057D01*
X111085715Y-81067057D02*
X111009524Y-81028961D01*
X111009524Y-81028961D02*
X110933334Y-81028961D01*
X109600000Y-81486104D02*
X109638096Y-81524200D01*
X109638096Y-81524200D02*
X109752381Y-81562295D01*
X109752381Y-81562295D02*
X109828572Y-81562295D01*
X109828572Y-81562295D02*
X109942858Y-81524200D01*
X109942858Y-81524200D02*
X110019048Y-81448009D01*
X110019048Y-81448009D02*
X110057143Y-81371819D01*
X110057143Y-81371819D02*
X110095239Y-81219438D01*
X110095239Y-81219438D02*
X110095239Y-81105152D01*
X110095239Y-81105152D02*
X110057143Y-80952771D01*
X110057143Y-80952771D02*
X110019048Y-80876580D01*
X110019048Y-80876580D02*
X109942858Y-80800390D01*
X109942858Y-80800390D02*
X109828572Y-80762295D01*
X109828572Y-80762295D02*
X109752381Y-80762295D01*
X109752381Y-80762295D02*
X109638096Y-80800390D01*
X109638096Y-80800390D02*
X109600000Y-80838485D01*
X109142858Y-81562295D02*
X109219048Y-81524200D01*
X109219048Y-81524200D02*
X109257143Y-81486104D01*
X109257143Y-81486104D02*
X109295239Y-81409914D01*
X109295239Y-81409914D02*
X109295239Y-81181342D01*
X109295239Y-81181342D02*
X109257143Y-81105152D01*
X109257143Y-81105152D02*
X109219048Y-81067057D01*
X109219048Y-81067057D02*
X109142858Y-81028961D01*
X109142858Y-81028961D02*
X109028572Y-81028961D01*
X109028572Y-81028961D02*
X108952381Y-81067057D01*
X108952381Y-81067057D02*
X108914286Y-81105152D01*
X108914286Y-81105152D02*
X108876191Y-81181342D01*
X108876191Y-81181342D02*
X108876191Y-81409914D01*
X108876191Y-81409914D02*
X108914286Y-81486104D01*
X108914286Y-81486104D02*
X108952381Y-81524200D01*
X108952381Y-81524200D02*
X109028572Y-81562295D01*
X109028572Y-81562295D02*
X109142858Y-81562295D01*
X108533333Y-81028961D02*
X108533333Y-81562295D01*
X108533333Y-81105152D02*
X108495238Y-81067057D01*
X108495238Y-81067057D02*
X108419048Y-81028961D01*
X108419048Y-81028961D02*
X108304762Y-81028961D01*
X108304762Y-81028961D02*
X108228571Y-81067057D01*
X108228571Y-81067057D02*
X108190476Y-81143247D01*
X108190476Y-81143247D02*
X108190476Y-81562295D01*
X107923809Y-81028961D02*
X107619047Y-81028961D01*
X107809523Y-80762295D02*
X107809523Y-81448009D01*
X107809523Y-81448009D02*
X107771428Y-81524200D01*
X107771428Y-81524200D02*
X107695238Y-81562295D01*
X107695238Y-81562295D02*
X107619047Y-81562295D01*
X107352380Y-81562295D02*
X107352380Y-81028961D01*
X107352380Y-81181342D02*
X107314285Y-81105152D01*
X107314285Y-81105152D02*
X107276190Y-81067057D01*
X107276190Y-81067057D02*
X107199999Y-81028961D01*
X107199999Y-81028961D02*
X107123809Y-81028961D01*
X106742857Y-81562295D02*
X106819047Y-81524200D01*
X106819047Y-81524200D02*
X106857142Y-81486104D01*
X106857142Y-81486104D02*
X106895238Y-81409914D01*
X106895238Y-81409914D02*
X106895238Y-81181342D01*
X106895238Y-81181342D02*
X106857142Y-81105152D01*
X106857142Y-81105152D02*
X106819047Y-81067057D01*
X106819047Y-81067057D02*
X106742857Y-81028961D01*
X106742857Y-81028961D02*
X106628571Y-81028961D01*
X106628571Y-81028961D02*
X106552380Y-81067057D01*
X106552380Y-81067057D02*
X106514285Y-81105152D01*
X106514285Y-81105152D02*
X106476190Y-81181342D01*
X106476190Y-81181342D02*
X106476190Y-81409914D01*
X106476190Y-81409914D02*
X106514285Y-81486104D01*
X106514285Y-81486104D02*
X106552380Y-81524200D01*
X106552380Y-81524200D02*
X106628571Y-81562295D01*
X106628571Y-81562295D02*
X106742857Y-81562295D01*
X106019047Y-81562295D02*
X106095237Y-81524200D01*
X106095237Y-81524200D02*
X106133332Y-81448009D01*
X106133332Y-81448009D02*
X106133332Y-80762295D01*
X105599999Y-81562295D02*
X105676189Y-81524200D01*
X105676189Y-81524200D02*
X105714284Y-81448009D01*
X105714284Y-81448009D02*
X105714284Y-80762295D01*
X104990474Y-81524200D02*
X105066665Y-81562295D01*
X105066665Y-81562295D02*
X105219046Y-81562295D01*
X105219046Y-81562295D02*
X105295236Y-81524200D01*
X105295236Y-81524200D02*
X105333332Y-81448009D01*
X105333332Y-81448009D02*
X105333332Y-81143247D01*
X105333332Y-81143247D02*
X105295236Y-81067057D01*
X105295236Y-81067057D02*
X105219046Y-81028961D01*
X105219046Y-81028961D02*
X105066665Y-81028961D01*
X105066665Y-81028961D02*
X104990474Y-81067057D01*
X104990474Y-81067057D02*
X104952379Y-81143247D01*
X104952379Y-81143247D02*
X104952379Y-81219438D01*
X104952379Y-81219438D02*
X105333332Y-81295628D01*
X104609522Y-81562295D02*
X104609522Y-81028961D01*
X104609522Y-81181342D02*
X104571427Y-81105152D01*
X104571427Y-81105152D02*
X104533332Y-81067057D01*
X104533332Y-81067057D02*
X104457141Y-81028961D01*
X104457141Y-81028961D02*
X104380951Y-81028961D01*
X103580951Y-81028961D02*
X103428570Y-81562295D01*
X103428570Y-81562295D02*
X103276189Y-81181342D01*
X103276189Y-81181342D02*
X103123808Y-81562295D01*
X103123808Y-81562295D02*
X102971427Y-81028961D01*
X102666665Y-81562295D02*
X102666665Y-81028961D01*
X102666665Y-80762295D02*
X102704761Y-80800390D01*
X102704761Y-80800390D02*
X102666665Y-80838485D01*
X102666665Y-80838485D02*
X102628570Y-80800390D01*
X102628570Y-80800390D02*
X102666665Y-80762295D01*
X102666665Y-80762295D02*
X102666665Y-80838485D01*
X102399999Y-81028961D02*
X102095237Y-81028961D01*
X102285713Y-80762295D02*
X102285713Y-81448009D01*
X102285713Y-81448009D02*
X102247618Y-81524200D01*
X102247618Y-81524200D02*
X102171428Y-81562295D01*
X102171428Y-81562295D02*
X102095237Y-81562295D01*
X101828570Y-81562295D02*
X101828570Y-80762295D01*
X101485713Y-81562295D02*
X101485713Y-81143247D01*
X101485713Y-81143247D02*
X101523808Y-81067057D01*
X101523808Y-81067057D02*
X101599999Y-81028961D01*
X101599999Y-81028961D02*
X101714285Y-81028961D01*
X101714285Y-81028961D02*
X101790475Y-81067057D01*
X101790475Y-81067057D02*
X101828570Y-81105152D01*
X100495236Y-80762295D02*
X100495236Y-81409914D01*
X100495236Y-81409914D02*
X100457141Y-81486104D01*
X100457141Y-81486104D02*
X100419046Y-81524200D01*
X100419046Y-81524200D02*
X100342855Y-81562295D01*
X100342855Y-81562295D02*
X100190474Y-81562295D01*
X100190474Y-81562295D02*
X100114284Y-81524200D01*
X100114284Y-81524200D02*
X100076189Y-81486104D01*
X100076189Y-81486104D02*
X100038093Y-81409914D01*
X100038093Y-81409914D02*
X100038093Y-80762295D01*
X99695237Y-81524200D02*
X99580951Y-81562295D01*
X99580951Y-81562295D02*
X99390475Y-81562295D01*
X99390475Y-81562295D02*
X99314284Y-81524200D01*
X99314284Y-81524200D02*
X99276189Y-81486104D01*
X99276189Y-81486104D02*
X99238094Y-81409914D01*
X99238094Y-81409914D02*
X99238094Y-81333723D01*
X99238094Y-81333723D02*
X99276189Y-81257533D01*
X99276189Y-81257533D02*
X99314284Y-81219438D01*
X99314284Y-81219438D02*
X99390475Y-81181342D01*
X99390475Y-81181342D02*
X99542856Y-81143247D01*
X99542856Y-81143247D02*
X99619046Y-81105152D01*
X99619046Y-81105152D02*
X99657141Y-81067057D01*
X99657141Y-81067057D02*
X99695237Y-80990866D01*
X99695237Y-80990866D02*
X99695237Y-80914676D01*
X99695237Y-80914676D02*
X99657141Y-80838485D01*
X99657141Y-80838485D02*
X99619046Y-80800390D01*
X99619046Y-80800390D02*
X99542856Y-80762295D01*
X99542856Y-80762295D02*
X99352379Y-80762295D01*
X99352379Y-80762295D02*
X99238094Y-80800390D01*
X98628570Y-81143247D02*
X98514284Y-81181342D01*
X98514284Y-81181342D02*
X98476189Y-81219438D01*
X98476189Y-81219438D02*
X98438093Y-81295628D01*
X98438093Y-81295628D02*
X98438093Y-81409914D01*
X98438093Y-81409914D02*
X98476189Y-81486104D01*
X98476189Y-81486104D02*
X98514284Y-81524200D01*
X98514284Y-81524200D02*
X98590474Y-81562295D01*
X98590474Y-81562295D02*
X98895236Y-81562295D01*
X98895236Y-81562295D02*
X98895236Y-80762295D01*
X98895236Y-80762295D02*
X98628570Y-80762295D01*
X98628570Y-80762295D02*
X98552379Y-80800390D01*
X98552379Y-80800390D02*
X98514284Y-80838485D01*
X98514284Y-80838485D02*
X98476189Y-80914676D01*
X98476189Y-80914676D02*
X98476189Y-80990866D01*
X98476189Y-80990866D02*
X98514284Y-81067057D01*
X98514284Y-81067057D02*
X98552379Y-81105152D01*
X98552379Y-81105152D02*
X98628570Y-81143247D01*
X98628570Y-81143247D02*
X98895236Y-81143247D01*
X98095236Y-81257533D02*
X97485713Y-81257533D01*
X96647617Y-81486104D02*
X96685713Y-81524200D01*
X96685713Y-81524200D02*
X96799998Y-81562295D01*
X96799998Y-81562295D02*
X96876189Y-81562295D01*
X96876189Y-81562295D02*
X96990475Y-81524200D01*
X96990475Y-81524200D02*
X97066665Y-81448009D01*
X97066665Y-81448009D02*
X97104760Y-81371819D01*
X97104760Y-81371819D02*
X97142856Y-81219438D01*
X97142856Y-81219438D02*
X97142856Y-81105152D01*
X97142856Y-81105152D02*
X97104760Y-80952771D01*
X97104760Y-80952771D02*
X97066665Y-80876580D01*
X97066665Y-80876580D02*
X96990475Y-80800390D01*
X96990475Y-80800390D02*
X96876189Y-80762295D01*
X96876189Y-80762295D02*
X96799998Y-80762295D01*
X96799998Y-80762295D02*
X96685713Y-80800390D01*
X96685713Y-80800390D02*
X96647617Y-80838485D01*
X95695236Y-81562295D02*
X95695236Y-80762295D01*
X95695236Y-80762295D02*
X95390474Y-80762295D01*
X95390474Y-80762295D02*
X95314284Y-80800390D01*
X95314284Y-80800390D02*
X95276189Y-80838485D01*
X95276189Y-80838485D02*
X95238093Y-80914676D01*
X95238093Y-80914676D02*
X95238093Y-81028961D01*
X95238093Y-81028961D02*
X95276189Y-81105152D01*
X95276189Y-81105152D02*
X95314284Y-81143247D01*
X95314284Y-81143247D02*
X95390474Y-81181342D01*
X95390474Y-81181342D02*
X95695236Y-81181342D01*
X94895236Y-81562295D02*
X94895236Y-80762295D01*
X94895236Y-80762295D02*
X94704760Y-80762295D01*
X94704760Y-80762295D02*
X94590474Y-80800390D01*
X94590474Y-80800390D02*
X94514284Y-80876580D01*
X94514284Y-80876580D02*
X94476189Y-80952771D01*
X94476189Y-80952771D02*
X94438093Y-81105152D01*
X94438093Y-81105152D02*
X94438093Y-81219438D01*
X94438093Y-81219438D02*
X94476189Y-81371819D01*
X94476189Y-81371819D02*
X94514284Y-81448009D01*
X94514284Y-81448009D02*
X94590474Y-81524200D01*
X94590474Y-81524200D02*
X94704760Y-81562295D01*
X94704760Y-81562295D02*
X94895236Y-81562295D01*
X93561903Y-80762295D02*
X93066665Y-80762295D01*
X93066665Y-80762295D02*
X93333331Y-81067057D01*
X93333331Y-81067057D02*
X93219046Y-81067057D01*
X93219046Y-81067057D02*
X93142855Y-81105152D01*
X93142855Y-81105152D02*
X93104760Y-81143247D01*
X93104760Y-81143247D02*
X93066665Y-81219438D01*
X93066665Y-81219438D02*
X93066665Y-81409914D01*
X93066665Y-81409914D02*
X93104760Y-81486104D01*
X93104760Y-81486104D02*
X93142855Y-81524200D01*
X93142855Y-81524200D02*
X93219046Y-81562295D01*
X93219046Y-81562295D02*
X93447617Y-81562295D01*
X93447617Y-81562295D02*
X93523808Y-81524200D01*
X93523808Y-81524200D02*
X93561903Y-81486104D01*
X92723807Y-81486104D02*
X92685712Y-81524200D01*
X92685712Y-81524200D02*
X92723807Y-81562295D01*
X92723807Y-81562295D02*
X92761903Y-81524200D01*
X92761903Y-81524200D02*
X92723807Y-81486104D01*
X92723807Y-81486104D02*
X92723807Y-81562295D01*
X91923808Y-81562295D02*
X92380951Y-81562295D01*
X92152379Y-81562295D02*
X92152379Y-80762295D01*
X92152379Y-80762295D02*
X92228570Y-80876580D01*
X92228570Y-80876580D02*
X92304760Y-80952771D01*
X92304760Y-80952771D02*
X92380951Y-80990866D01*
X90971426Y-81143247D02*
X90704760Y-81143247D01*
X90590474Y-81562295D02*
X90971426Y-81562295D01*
X90971426Y-81562295D02*
X90971426Y-80762295D01*
X90971426Y-80762295D02*
X90590474Y-80762295D01*
X90247616Y-81562295D02*
X90247616Y-80762295D01*
X90247616Y-80762295D02*
X89942854Y-80762295D01*
X89942854Y-80762295D02*
X89866664Y-80800390D01*
X89866664Y-80800390D02*
X89828569Y-80838485D01*
X89828569Y-80838485D02*
X89790473Y-80914676D01*
X89790473Y-80914676D02*
X89790473Y-81028961D01*
X89790473Y-81028961D02*
X89828569Y-81105152D01*
X89828569Y-81105152D02*
X89866664Y-81143247D01*
X89866664Y-81143247D02*
X89942854Y-81181342D01*
X89942854Y-81181342D02*
X90247616Y-81181342D01*
X88990473Y-81562295D02*
X89257140Y-81181342D01*
X89447616Y-81562295D02*
X89447616Y-80762295D01*
X89447616Y-80762295D02*
X89142854Y-80762295D01*
X89142854Y-80762295D02*
X89066664Y-80800390D01*
X89066664Y-80800390D02*
X89028569Y-80838485D01*
X89028569Y-80838485D02*
X88990473Y-80914676D01*
X88990473Y-80914676D02*
X88990473Y-81028961D01*
X88990473Y-81028961D02*
X89028569Y-81105152D01*
X89028569Y-81105152D02*
X89066664Y-81143247D01*
X89066664Y-81143247D02*
X89142854Y-81181342D01*
X89142854Y-81181342D02*
X89447616Y-81181342D01*
X87923807Y-81219438D02*
X87961902Y-81257533D01*
X87961902Y-81257533D02*
X87923807Y-81295628D01*
X87923807Y-81295628D02*
X87885711Y-81257533D01*
X87885711Y-81257533D02*
X87923807Y-81219438D01*
X87923807Y-81219438D02*
X87923807Y-81295628D01*
X86819044Y-81562295D02*
X86819044Y-81028961D01*
X86819044Y-81181342D02*
X86780949Y-81105152D01*
X86780949Y-81105152D02*
X86742854Y-81067057D01*
X86742854Y-81067057D02*
X86666663Y-81028961D01*
X86666663Y-81028961D02*
X86590473Y-81028961D01*
X86171425Y-80762295D02*
X86095235Y-80762295D01*
X86095235Y-80762295D02*
X86019044Y-80800390D01*
X86019044Y-80800390D02*
X85980949Y-80838485D01*
X85980949Y-80838485D02*
X85942854Y-80914676D01*
X85942854Y-80914676D02*
X85904759Y-81067057D01*
X85904759Y-81067057D02*
X85904759Y-81257533D01*
X85904759Y-81257533D02*
X85942854Y-81409914D01*
X85942854Y-81409914D02*
X85980949Y-81486104D01*
X85980949Y-81486104D02*
X86019044Y-81524200D01*
X86019044Y-81524200D02*
X86095235Y-81562295D01*
X86095235Y-81562295D02*
X86171425Y-81562295D01*
X86171425Y-81562295D02*
X86247616Y-81524200D01*
X86247616Y-81524200D02*
X86285711Y-81486104D01*
X86285711Y-81486104D02*
X86323806Y-81409914D01*
X86323806Y-81409914D02*
X86361902Y-81257533D01*
X86361902Y-81257533D02*
X86361902Y-81067057D01*
X86361902Y-81067057D02*
X86323806Y-80914676D01*
X86323806Y-80914676D02*
X86285711Y-80838485D01*
X86285711Y-80838485D02*
X86247616Y-80800390D01*
X86247616Y-80800390D02*
X86171425Y-80762295D01*
X85561901Y-81486104D02*
X85523806Y-81524200D01*
X85523806Y-81524200D02*
X85561901Y-81562295D01*
X85561901Y-81562295D02*
X85599997Y-81524200D01*
X85599997Y-81524200D02*
X85561901Y-81486104D01*
X85561901Y-81486104D02*
X85561901Y-81562295D01*
X85257140Y-80762295D02*
X84761902Y-80762295D01*
X84761902Y-80762295D02*
X85028568Y-81067057D01*
X85028568Y-81067057D02*
X84914283Y-81067057D01*
X84914283Y-81067057D02*
X84838092Y-81105152D01*
X84838092Y-81105152D02*
X84799997Y-81143247D01*
X84799997Y-81143247D02*
X84761902Y-81219438D01*
X84761902Y-81219438D02*
X84761902Y-81409914D01*
X84761902Y-81409914D02*
X84799997Y-81486104D01*
X84799997Y-81486104D02*
X84838092Y-81524200D01*
X84838092Y-81524200D02*
X84914283Y-81562295D01*
X84914283Y-81562295D02*
X85142854Y-81562295D01*
X85142854Y-81562295D02*
X85219045Y-81524200D01*
X85219045Y-81524200D02*
X85257140Y-81486104D01*
X104057142Y-91562295D02*
X104057142Y-92209914D01*
X104057142Y-92209914D02*
X104019047Y-92286104D01*
X104019047Y-92286104D02*
X103980952Y-92324200D01*
X103980952Y-92324200D02*
X103904761Y-92362295D01*
X103904761Y-92362295D02*
X103752380Y-92362295D01*
X103752380Y-92362295D02*
X103676190Y-92324200D01*
X103676190Y-92324200D02*
X103638095Y-92286104D01*
X103638095Y-92286104D02*
X103599999Y-92209914D01*
X103599999Y-92209914D02*
X103599999Y-91562295D01*
X102800000Y-92362295D02*
X103257143Y-92362295D01*
X103028571Y-92362295D02*
X103028571Y-91562295D01*
X103028571Y-91562295D02*
X103104762Y-91676580D01*
X103104762Y-91676580D02*
X103180952Y-91752771D01*
X103180952Y-91752771D02*
X103257143Y-91790866D01*
X102342857Y-91905152D02*
X102419047Y-91867057D01*
X102419047Y-91867057D02*
X102457142Y-91828961D01*
X102457142Y-91828961D02*
X102495238Y-91752771D01*
X102495238Y-91752771D02*
X102495238Y-91714676D01*
X102495238Y-91714676D02*
X102457142Y-91638485D01*
X102457142Y-91638485D02*
X102419047Y-91600390D01*
X102419047Y-91600390D02*
X102342857Y-91562295D01*
X102342857Y-91562295D02*
X102190476Y-91562295D01*
X102190476Y-91562295D02*
X102114285Y-91600390D01*
X102114285Y-91600390D02*
X102076190Y-91638485D01*
X102076190Y-91638485D02*
X102038095Y-91714676D01*
X102038095Y-91714676D02*
X102038095Y-91752771D01*
X102038095Y-91752771D02*
X102076190Y-91828961D01*
X102076190Y-91828961D02*
X102114285Y-91867057D01*
X102114285Y-91867057D02*
X102190476Y-91905152D01*
X102190476Y-91905152D02*
X102342857Y-91905152D01*
X102342857Y-91905152D02*
X102419047Y-91943247D01*
X102419047Y-91943247D02*
X102457142Y-91981342D01*
X102457142Y-91981342D02*
X102495238Y-92057533D01*
X102495238Y-92057533D02*
X102495238Y-92209914D01*
X102495238Y-92209914D02*
X102457142Y-92286104D01*
X102457142Y-92286104D02*
X102419047Y-92324200D01*
X102419047Y-92324200D02*
X102342857Y-92362295D01*
X102342857Y-92362295D02*
X102190476Y-92362295D01*
X102190476Y-92362295D02*
X102114285Y-92324200D01*
X102114285Y-92324200D02*
X102076190Y-92286104D01*
X102076190Y-92286104D02*
X102038095Y-92209914D01*
X102038095Y-92209914D02*
X102038095Y-92057533D01*
X102038095Y-92057533D02*
X102076190Y-91981342D01*
X102076190Y-91981342D02*
X102114285Y-91943247D01*
X102114285Y-91943247D02*
X102190476Y-91905152D01*
X101085713Y-91943247D02*
X100819047Y-91943247D01*
X100704761Y-92362295D02*
X101085713Y-92362295D01*
X101085713Y-92362295D02*
X101085713Y-91562295D01*
X101085713Y-91562295D02*
X100704761Y-91562295D01*
X100361903Y-92362295D02*
X100361903Y-91562295D01*
X100361903Y-91562295D02*
X99904760Y-92362295D01*
X99904760Y-92362295D02*
X99904760Y-91562295D01*
X99066665Y-92286104D02*
X99104761Y-92324200D01*
X99104761Y-92324200D02*
X99219046Y-92362295D01*
X99219046Y-92362295D02*
X99295237Y-92362295D01*
X99295237Y-92362295D02*
X99409523Y-92324200D01*
X99409523Y-92324200D02*
X99485713Y-92248009D01*
X99485713Y-92248009D02*
X99523808Y-92171819D01*
X99523808Y-92171819D02*
X99561904Y-92019438D01*
X99561904Y-92019438D02*
X99561904Y-91905152D01*
X99561904Y-91905152D02*
X99523808Y-91752771D01*
X99523808Y-91752771D02*
X99485713Y-91676580D01*
X99485713Y-91676580D02*
X99409523Y-91600390D01*
X99409523Y-91600390D02*
X99295237Y-91562295D01*
X99295237Y-91562295D02*
X99219046Y-91562295D01*
X99219046Y-91562295D02*
X99104761Y-91600390D01*
X99104761Y-91600390D02*
X99066665Y-91638485D01*
X98571427Y-91562295D02*
X98419046Y-91562295D01*
X98419046Y-91562295D02*
X98342856Y-91600390D01*
X98342856Y-91600390D02*
X98266665Y-91676580D01*
X98266665Y-91676580D02*
X98228570Y-91828961D01*
X98228570Y-91828961D02*
X98228570Y-92095628D01*
X98228570Y-92095628D02*
X98266665Y-92248009D01*
X98266665Y-92248009D02*
X98342856Y-92324200D01*
X98342856Y-92324200D02*
X98419046Y-92362295D01*
X98419046Y-92362295D02*
X98571427Y-92362295D01*
X98571427Y-92362295D02*
X98647618Y-92324200D01*
X98647618Y-92324200D02*
X98723808Y-92248009D01*
X98723808Y-92248009D02*
X98761904Y-92095628D01*
X98761904Y-92095628D02*
X98761904Y-91828961D01*
X98761904Y-91828961D02*
X98723808Y-91676580D01*
X98723808Y-91676580D02*
X98647618Y-91600390D01*
X98647618Y-91600390D02*
X98571427Y-91562295D01*
X97885713Y-92362295D02*
X97885713Y-91562295D01*
X97885713Y-91562295D02*
X97695237Y-91562295D01*
X97695237Y-91562295D02*
X97580951Y-91600390D01*
X97580951Y-91600390D02*
X97504761Y-91676580D01*
X97504761Y-91676580D02*
X97466666Y-91752771D01*
X97466666Y-91752771D02*
X97428570Y-91905152D01*
X97428570Y-91905152D02*
X97428570Y-92019438D01*
X97428570Y-92019438D02*
X97466666Y-92171819D01*
X97466666Y-92171819D02*
X97504761Y-92248009D01*
X97504761Y-92248009D02*
X97580951Y-92324200D01*
X97580951Y-92324200D02*
X97695237Y-92362295D01*
X97695237Y-92362295D02*
X97885713Y-92362295D01*
X97085713Y-91943247D02*
X96819047Y-91943247D01*
X96704761Y-92362295D02*
X97085713Y-92362295D01*
X97085713Y-92362295D02*
X97085713Y-91562295D01*
X97085713Y-91562295D02*
X96704761Y-91562295D01*
X95904760Y-92362295D02*
X96171427Y-91981342D01*
X96361903Y-92362295D02*
X96361903Y-91562295D01*
X96361903Y-91562295D02*
X96057141Y-91562295D01*
X96057141Y-91562295D02*
X95980951Y-91600390D01*
X95980951Y-91600390D02*
X95942856Y-91638485D01*
X95942856Y-91638485D02*
X95904760Y-91714676D01*
X95904760Y-91714676D02*
X95904760Y-91828961D01*
X95904760Y-91828961D02*
X95942856Y-91905152D01*
X95942856Y-91905152D02*
X95980951Y-91943247D01*
X95980951Y-91943247D02*
X96057141Y-91981342D01*
X96057141Y-91981342D02*
X96361903Y-91981342D01*
X106300000Y-84408557D02*
X106300000Y-83508557D01*
X106300000Y-83508557D02*
X106000000Y-84151414D01*
X106000000Y-84151414D02*
X105700000Y-83508557D01*
X105700000Y-83508557D02*
X105700000Y-84408557D01*
X104885715Y-84408557D02*
X104885715Y-83937128D01*
X104885715Y-83937128D02*
X104928572Y-83851414D01*
X104928572Y-83851414D02*
X105014286Y-83808557D01*
X105014286Y-83808557D02*
X105185715Y-83808557D01*
X105185715Y-83808557D02*
X105271429Y-83851414D01*
X104885715Y-84365700D02*
X104971429Y-84408557D01*
X104971429Y-84408557D02*
X105185715Y-84408557D01*
X105185715Y-84408557D02*
X105271429Y-84365700D01*
X105271429Y-84365700D02*
X105314286Y-84279985D01*
X105314286Y-84279985D02*
X105314286Y-84194271D01*
X105314286Y-84194271D02*
X105271429Y-84108557D01*
X105271429Y-84108557D02*
X105185715Y-84065700D01*
X105185715Y-84065700D02*
X104971429Y-84065700D01*
X104971429Y-84065700D02*
X104885715Y-84022842D01*
X104071429Y-84408557D02*
X104071429Y-83508557D01*
X104071429Y-84365700D02*
X104157143Y-84408557D01*
X104157143Y-84408557D02*
X104328571Y-84408557D01*
X104328571Y-84408557D02*
X104414286Y-84365700D01*
X104414286Y-84365700D02*
X104457143Y-84322842D01*
X104457143Y-84322842D02*
X104500000Y-84237128D01*
X104500000Y-84237128D02*
X104500000Y-83979985D01*
X104500000Y-83979985D02*
X104457143Y-83894271D01*
X104457143Y-83894271D02*
X104414286Y-83851414D01*
X104414286Y-83851414D02*
X104328571Y-83808557D01*
X104328571Y-83808557D02*
X104157143Y-83808557D01*
X104157143Y-83808557D02*
X104071429Y-83851414D01*
X103300000Y-84365700D02*
X103385714Y-84408557D01*
X103385714Y-84408557D02*
X103557143Y-84408557D01*
X103557143Y-84408557D02*
X103642857Y-84365700D01*
X103642857Y-84365700D02*
X103685714Y-84279985D01*
X103685714Y-84279985D02*
X103685714Y-83937128D01*
X103685714Y-83937128D02*
X103642857Y-83851414D01*
X103642857Y-83851414D02*
X103557143Y-83808557D01*
X103557143Y-83808557D02*
X103385714Y-83808557D01*
X103385714Y-83808557D02*
X103300000Y-83851414D01*
X103300000Y-83851414D02*
X103257143Y-83937128D01*
X103257143Y-83937128D02*
X103257143Y-84022842D01*
X103257143Y-84022842D02*
X103685714Y-84108557D01*
X102271428Y-83808557D02*
X102100000Y-84408557D01*
X102100000Y-84408557D02*
X101928571Y-83979985D01*
X101928571Y-83979985D02*
X101757142Y-84408557D01*
X101757142Y-84408557D02*
X101585714Y-83808557D01*
X101242857Y-84408557D02*
X101242857Y-83808557D01*
X101242857Y-83508557D02*
X101285714Y-83551414D01*
X101285714Y-83551414D02*
X101242857Y-83594271D01*
X101242857Y-83594271D02*
X101200000Y-83551414D01*
X101200000Y-83551414D02*
X101242857Y-83508557D01*
X101242857Y-83508557D02*
X101242857Y-83594271D01*
X100942857Y-83808557D02*
X100600000Y-83808557D01*
X100814286Y-83508557D02*
X100814286Y-84279985D01*
X100814286Y-84279985D02*
X100771429Y-84365700D01*
X100771429Y-84365700D02*
X100685714Y-84408557D01*
X100685714Y-84408557D02*
X100600000Y-84408557D01*
X100300000Y-84408557D02*
X100300000Y-83508557D01*
X99914286Y-84408557D02*
X99914286Y-83937128D01*
X99914286Y-83937128D02*
X99957143Y-83851414D01*
X99957143Y-83851414D02*
X100042857Y-83808557D01*
X100042857Y-83808557D02*
X100171428Y-83808557D01*
X100171428Y-83808557D02*
X100257143Y-83851414D01*
X100257143Y-83851414D02*
X100300000Y-83894271D01*
X98928571Y-83808557D02*
X98585714Y-83808557D01*
X98800000Y-83508557D02*
X98800000Y-84279985D01*
X98800000Y-84279985D02*
X98757143Y-84365700D01*
X98757143Y-84365700D02*
X98671428Y-84408557D01*
X98671428Y-84408557D02*
X98585714Y-84408557D01*
X98328571Y-84365700D02*
X98242857Y-84408557D01*
X98242857Y-84408557D02*
X98071428Y-84408557D01*
X98071428Y-84408557D02*
X97985714Y-84365700D01*
X97985714Y-84365700D02*
X97942857Y-84279985D01*
X97942857Y-84279985D02*
X97942857Y-84237128D01*
X97942857Y-84237128D02*
X97985714Y-84151414D01*
X97985714Y-84151414D02*
X98071428Y-84108557D01*
X98071428Y-84108557D02*
X98200000Y-84108557D01*
X98200000Y-84108557D02*
X98285714Y-84065700D01*
X98285714Y-84065700D02*
X98328571Y-83979985D01*
X98328571Y-83979985D02*
X98328571Y-83937128D01*
X98328571Y-83937128D02*
X98285714Y-83851414D01*
X98285714Y-83851414D02*
X98200000Y-83808557D01*
X98200000Y-83808557D02*
X98071428Y-83808557D01*
X98071428Y-83808557D02*
X97985714Y-83851414D01*
X97171429Y-84365700D02*
X97257143Y-84408557D01*
X97257143Y-84408557D02*
X97428571Y-84408557D01*
X97428571Y-84408557D02*
X97514286Y-84365700D01*
X97514286Y-84365700D02*
X97557143Y-84322842D01*
X97557143Y-84322842D02*
X97600000Y-84237128D01*
X97600000Y-84237128D02*
X97600000Y-83979985D01*
X97600000Y-83979985D02*
X97557143Y-83894271D01*
X97557143Y-83894271D02*
X97514286Y-83851414D01*
X97514286Y-83851414D02*
X97428571Y-83808557D01*
X97428571Y-83808557D02*
X97257143Y-83808557D01*
X97257143Y-83808557D02*
X97171429Y-83851414D01*
X96785714Y-84408557D02*
X96785714Y-83808557D01*
X96785714Y-83508557D02*
X96828571Y-83551414D01*
X96828571Y-83551414D02*
X96785714Y-83594271D01*
X96785714Y-83594271D02*
X96742857Y-83551414D01*
X96742857Y-83551414D02*
X96785714Y-83508557D01*
X96785714Y-83508557D02*
X96785714Y-83594271D01*
X96357143Y-84408557D02*
X96357143Y-83808557D01*
X96357143Y-83979985D02*
X96314286Y-83894271D01*
X96314286Y-83894271D02*
X96271429Y-83851414D01*
X96271429Y-83851414D02*
X96185714Y-83808557D01*
X96185714Y-83808557D02*
X96100000Y-83808557D01*
X95414286Y-84365700D02*
X95500000Y-84408557D01*
X95500000Y-84408557D02*
X95671428Y-84408557D01*
X95671428Y-84408557D02*
X95757143Y-84365700D01*
X95757143Y-84365700D02*
X95800000Y-84322842D01*
X95800000Y-84322842D02*
X95842857Y-84237128D01*
X95842857Y-84237128D02*
X95842857Y-83979985D01*
X95842857Y-83979985D02*
X95800000Y-83894271D01*
X95800000Y-83894271D02*
X95757143Y-83851414D01*
X95757143Y-83851414D02*
X95671428Y-83808557D01*
X95671428Y-83808557D02*
X95500000Y-83808557D01*
X95500000Y-83808557D02*
X95414286Y-83851414D01*
X94642857Y-83808557D02*
X94642857Y-84408557D01*
X95028571Y-83808557D02*
X95028571Y-84279985D01*
X95028571Y-84279985D02*
X94985714Y-84365700D01*
X94985714Y-84365700D02*
X94899999Y-84408557D01*
X94899999Y-84408557D02*
X94771428Y-84408557D01*
X94771428Y-84408557D02*
X94685714Y-84365700D01*
X94685714Y-84365700D02*
X94642857Y-84322842D01*
X94214285Y-84408557D02*
X94214285Y-83808557D01*
X94214285Y-83508557D02*
X94257142Y-83551414D01*
X94257142Y-83551414D02*
X94214285Y-83594271D01*
X94214285Y-83594271D02*
X94171428Y-83551414D01*
X94171428Y-83551414D02*
X94214285Y-83508557D01*
X94214285Y-83508557D02*
X94214285Y-83594271D01*
X93914285Y-83808557D02*
X93571428Y-83808557D01*
X93785714Y-83508557D02*
X93785714Y-84279985D01*
X93785714Y-84279985D02*
X93742857Y-84365700D01*
X93742857Y-84365700D02*
X93657142Y-84408557D01*
X93657142Y-84408557D02*
X93571428Y-84408557D01*
%TO.C,C12*%
D11*
X76275000Y-97625000D02*
X78525000Y-97625000D01*
X76275000Y-99375000D02*
X76275000Y-97625000D01*
X78525000Y-99375000D02*
X76275000Y-99375000D01*
%TO.C,R96*%
D12*
X130237258Y-117477500D02*
X129762742Y-117477500D01*
X130237258Y-118522500D02*
X129762742Y-118522500D01*
%TO.C,R1*%
X81762742Y-63477500D02*
X82237258Y-63477500D01*
X81762742Y-64522500D02*
X82237258Y-64522500D01*
%TO.C,C17*%
D11*
X88087500Y-86900000D02*
X90625000Y-86900000D01*
X90625000Y-86900000D02*
X90625000Y-89100000D01*
X90625000Y-89100000D02*
X88087500Y-89100000D01*
%TO.C,R2*%
D12*
X66237258Y-77477500D02*
X65762742Y-77477500D01*
X66237258Y-78522500D02*
X65762742Y-78522500D01*
%TO.C,R98*%
X118237258Y-126477500D02*
X117762742Y-126477500D01*
X118237258Y-127522500D02*
X117762742Y-127522500D01*
%TO.C,R94*%
X134237258Y-99477500D02*
X133762742Y-99477500D01*
X134237258Y-100522500D02*
X133762742Y-100522500D01*
%TO.C,C11*%
D11*
X77725000Y-89275000D02*
X80275000Y-89275000D01*
X77725000Y-92962500D02*
X77725000Y-89275000D01*
X80275000Y-89275000D02*
X80275000Y-92962500D01*
%TO.C,R99*%
D12*
X122237258Y-130477500D02*
X121762742Y-130477500D01*
X122237258Y-131522500D02*
X121762742Y-131522500D01*
%TO.C,C53*%
D11*
X104575000Y-104125000D02*
X106825000Y-104125000D01*
X104575000Y-105875000D02*
X104575000Y-104125000D01*
X106825000Y-105875000D02*
X104575000Y-105875000D01*
%TO.C,C15*%
X84087500Y-86900000D02*
X86625000Y-86900000D01*
X86625000Y-86900000D02*
X86625000Y-89100000D01*
X86625000Y-89100000D02*
X84087500Y-89100000D01*
%TO.C,C1*%
X72175000Y-83125000D02*
X74425000Y-83125000D01*
X74425000Y-83125000D02*
X74425000Y-84875000D01*
X74425000Y-84875000D02*
X72175000Y-84875000D01*
%TO.C,R93*%
D12*
X134237258Y-102477500D02*
X133762742Y-102477500D01*
X134237258Y-103522500D02*
X133762742Y-103522500D01*
%TO.C,R17*%
X81237258Y-97977500D02*
X80762742Y-97977500D01*
X81237258Y-99022500D02*
X80762742Y-99022500D01*
%TO.C,C16*%
D11*
X79375000Y-86900000D02*
X81912500Y-86900000D01*
X79375000Y-89100000D02*
X79375000Y-86900000D01*
X81912500Y-89100000D02*
X79375000Y-89100000D01*
%TO.C,R11*%
D12*
X86237258Y-69477500D02*
X85762742Y-69477500D01*
X86237258Y-70522500D02*
X85762742Y-70522500D01*
%TO.C,R18*%
X70237258Y-96477500D02*
X69762742Y-96477500D01*
X70237258Y-97522500D02*
X69762742Y-97522500D01*
%TO.C,C26*%
D11*
X107125000Y-99375000D02*
X108875000Y-99375000D01*
X107125000Y-101625000D02*
X107125000Y-99375000D01*
X108875000Y-99375000D02*
X108875000Y-101625000D01*
%TO.C,R100*%
D12*
X127237258Y-126477500D02*
X126762742Y-126477500D01*
X127237258Y-127522500D02*
X126762742Y-127522500D01*
%TO.C,R74*%
X92237258Y-94977500D02*
X91762742Y-94977500D01*
X92237258Y-96022500D02*
X91762742Y-96022500D01*
%TO.C,R7*%
X80237258Y-68477500D02*
X79762742Y-68477500D01*
X80237258Y-69522500D02*
X79762742Y-69522500D01*
%TO.C,R95*%
X133762742Y-96477500D02*
X134237258Y-96477500D01*
X133762742Y-97522500D02*
X134237258Y-97522500D01*
%TO.C,R101*%
X130237258Y-127977500D02*
X129762742Y-127977500D01*
X130237258Y-129022500D02*
X129762742Y-129022500D01*
%TO.C,R91*%
X133762742Y-111477500D02*
X134237258Y-111477500D01*
X133762742Y-112522500D02*
X134237258Y-112522500D01*
%TO.C,C71*%
D11*
X72175000Y-103125000D02*
X74425000Y-103125000D01*
X74425000Y-103125000D02*
X74425000Y-104875000D01*
X74425000Y-104875000D02*
X72175000Y-104875000D01*
%TO.C,C13*%
X69175000Y-92125000D02*
X71425000Y-92125000D01*
X71425000Y-92125000D02*
X71425000Y-93875000D01*
X71425000Y-93875000D02*
X69175000Y-93875000D01*
%TO.C,R16*%
D12*
X70237258Y-90477500D02*
X69762742Y-90477500D01*
X70237258Y-91522500D02*
X69762742Y-91522500D01*
%TO.C,C14*%
D11*
X69175000Y-94125000D02*
X71425000Y-94125000D01*
X71425000Y-94125000D02*
X71425000Y-95875000D01*
X71425000Y-95875000D02*
X69175000Y-95875000D01*
%TO.C,R92*%
D12*
X137762742Y-105477500D02*
X138237258Y-105477500D01*
X137762742Y-106522500D02*
X138237258Y-106522500D01*
%TD*%
%LPC*%
D13*
%TO.C,J9*%
X116999994Y-61050037D03*
X114999998Y-61050037D03*
X113000002Y-61050037D03*
X111000006Y-61050037D03*
%TD*%
D14*
%TO.C,J10*%
X65064647Y-95109988D03*
X65064647Y-100890012D03*
D15*
X65544454Y-93679968D03*
X65544454Y-102320032D03*
D16*
X61364376Y-102320032D03*
X61364375Y-93679968D03*
%TD*%
D14*
%TO.C,J1*%
X65064647Y-82109988D03*
X65064647Y-87890012D03*
D15*
X65544454Y-80679968D03*
X65544454Y-89320032D03*
D16*
X61364376Y-89320032D03*
X61364375Y-80679968D03*
%TD*%
D17*
%TO.C,*%
X75500000Y-138400000D03*
%TD*%
%TO.C,*%
X138400000Y-124500000D03*
%TD*%
D18*
%TO.C,C23*%
X129500005Y-92000000D03*
X134499995Y-92000000D03*
%TD*%
D19*
%TO.C,J3*%
X98019816Y-63500000D03*
D20*
X101980184Y-63500000D03*
%TD*%
D21*
%TO.C,J6*%
X91499986Y-102000000D03*
D22*
X89499990Y-102000000D03*
X87499994Y-102000000D03*
X85499998Y-102000000D03*
X83500002Y-102000000D03*
X81500006Y-102000000D03*
X79500010Y-102000000D03*
X77500014Y-102000000D03*
%TD*%
D18*
%TO.C,C22*%
X127500005Y-78000000D03*
X132499995Y-78000000D03*
%TD*%
D19*
%TO.C,J2*%
X114059956Y-139000000D03*
D20*
X118020070Y-139000000D03*
X121980184Y-139000000D03*
X125940044Y-139000000D03*
%TD*%
D17*
%TO.C,*%
X61600000Y-75500000D03*
%TD*%
%TO.C,*%
X124500000Y-61600000D03*
%TD*%
D21*
%TO.C,J7*%
X108999986Y-138500000D03*
D22*
X106999990Y-138500000D03*
X104999994Y-138500000D03*
X102999998Y-138500000D03*
X101000002Y-138500000D03*
X99000006Y-138500000D03*
X97000010Y-138500000D03*
X95000014Y-138500000D03*
%TD*%
D23*
%TO.C,C12*%
X76875000Y-98500000D03*
X78525000Y-98500000D03*
%TD*%
D24*
%TO.C,TP_ENC_B*%
X94000000Y-134000000D03*
%TD*%
D23*
%TO.C,R96*%
X130825000Y-118000000D03*
X129175000Y-118000000D03*
%TD*%
D25*
%TO.C,U5*%
X76905000Y-95846070D03*
X75635000Y-95846070D03*
X74365000Y-95846070D03*
X73095000Y-95846070D03*
X73095000Y-90153930D03*
X74365000Y-90153930D03*
X75635000Y-90153930D03*
X76905000Y-90153930D03*
D26*
X75000000Y-93000000D03*
%TD*%
D27*
%TO.C,L1*%
X87602992Y-93000000D03*
X82397008Y-93000000D03*
%TD*%
D28*
%TO.C,D10*%
X139692402Y-85000000D03*
X136307598Y-85000000D03*
%TD*%
D23*
%TO.C,R1*%
X81175000Y-64000000D03*
X82825000Y-64000000D03*
%TD*%
D29*
%TO.C,C17*%
X89912500Y-88000000D03*
X88087500Y-88000000D03*
%TD*%
D24*
%TO.C,TP_SWD_GND*%
X86000000Y-133000000D03*
%TD*%
D30*
%TO.C,Q24*%
X117000002Y-131949960D03*
X117000002Y-130050040D03*
X118999998Y-131000000D03*
%TD*%
D23*
%TO.C,R2*%
X66825000Y-78000000D03*
X65175000Y-78000000D03*
%TD*%
%TO.C,R98*%
X118825000Y-127000000D03*
X117175000Y-127000000D03*
%TD*%
D24*
%TO.C,TP_ENC_3V3*%
X88000000Y-134000000D03*
%TD*%
D31*
%TO.C,D11*%
X125199894Y-70000000D03*
X120800106Y-70000000D03*
%TD*%
D23*
%TO.C,R94*%
X134825000Y-100000000D03*
X133175000Y-100000000D03*
%TD*%
D32*
%TO.C,C11*%
X79000000Y-90037500D03*
X79000000Y-92962500D03*
%TD*%
D23*
%TO.C,R99*%
X122825000Y-131000000D03*
X121175000Y-131000000D03*
%TD*%
%TO.C,C53*%
X105175000Y-105000000D03*
X106825000Y-105000000D03*
%TD*%
D29*
%TO.C,C15*%
X85912500Y-88000000D03*
X84087500Y-88000000D03*
%TD*%
D23*
%TO.C,C1*%
X73825000Y-84000000D03*
X72175000Y-84000000D03*
%TD*%
%TO.C,R93*%
X134825000Y-103000000D03*
X133175000Y-103000000D03*
%TD*%
D24*
%TO.C,TP_SWDIO*%
X83000000Y-133000000D03*
%TD*%
%TO.C,TP_STATUS*%
X86000000Y-130000000D03*
%TD*%
%TO.C,TP_ENC_A*%
X91000000Y-134000000D03*
%TD*%
%TO.C,TP_ENC_GND*%
X100000000Y-134000000D03*
%TD*%
D28*
%TO.C,D8*%
X139692402Y-109000000D03*
X136307598Y-109000000D03*
%TD*%
D23*
%TO.C,R17*%
X81825000Y-98500000D03*
X80175000Y-98500000D03*
%TD*%
D28*
%TO.C,D5*%
X105692402Y-124000000D03*
X102307598Y-124000000D03*
%TD*%
%TO.C,D9*%
X135692402Y-121000000D03*
X132307598Y-121000000D03*
%TD*%
D24*
%TO.C,TP_ENC_I*%
X97000000Y-134000000D03*
%TD*%
D29*
%TO.C,C16*%
X80087500Y-88000000D03*
X81912500Y-88000000D03*
%TD*%
D23*
%TO.C,R11*%
X86825000Y-70000000D03*
X85175000Y-70000000D03*
%TD*%
%TO.C,R18*%
X70825000Y-97000000D03*
X69175000Y-97000000D03*
%TD*%
D28*
%TO.C,D6*%
X111692402Y-124000000D03*
X108307598Y-124000000D03*
%TD*%
D33*
%TO.C,C26*%
X108000000Y-99975000D03*
X108000000Y-101625000D03*
%TD*%
D24*
%TO.C,TP_SWD_3V3*%
X80000000Y-133000000D03*
%TD*%
D30*
%TO.C,Q25*%
X126000002Y-131949960D03*
X126000002Y-130050040D03*
X127999998Y-131000000D03*
%TD*%
D28*
%TO.C,D4*%
X97692402Y-124000000D03*
X94307598Y-124000000D03*
%TD*%
D23*
%TO.C,R100*%
X127825000Y-127000000D03*
X126175000Y-127000000D03*
%TD*%
D24*
%TO.C,TP_NRST*%
X83000000Y-130000000D03*
%TD*%
D23*
%TO.C,R74*%
X92825000Y-95500000D03*
X91175000Y-95500000D03*
%TD*%
%TO.C,R7*%
X80825000Y-69000000D03*
X79175000Y-69000000D03*
%TD*%
%TO.C,R95*%
X133175000Y-97000000D03*
X134825000Y-97000000D03*
%TD*%
%TO.C,R101*%
X130825000Y-128500000D03*
X129175000Y-128500000D03*
%TD*%
%TO.C,R91*%
X133175000Y-112000000D03*
X134825000Y-112000000D03*
%TD*%
%TO.C,C71*%
X73825000Y-104000000D03*
X72175000Y-104000000D03*
%TD*%
D33*
%TO.C,C52*%
X100000000Y-104975000D03*
X100000000Y-106625000D03*
%TD*%
D23*
%TO.C,C13*%
X70825000Y-93000000D03*
X69175000Y-93000000D03*
%TD*%
D24*
%TO.C,TP_SWCLK*%
X80000000Y-130000000D03*
%TD*%
D23*
%TO.C,R16*%
X70825000Y-91000000D03*
X69175000Y-91000000D03*
%TD*%
%TO.C,C14*%
X70825000Y-95000000D03*
X69175000Y-95000000D03*
%TD*%
D34*
%TO.C,U18*%
X98050042Y-97199904D03*
X98700028Y-97199904D03*
X99350014Y-97199904D03*
X100000000Y-97199904D03*
X100649986Y-97199904D03*
X101299972Y-97199904D03*
X101949958Y-97199904D03*
X101949958Y-102800096D03*
X101299972Y-102800096D03*
X100649986Y-102800096D03*
X100000000Y-102800096D03*
X99350014Y-102800096D03*
X98700028Y-102800096D03*
X98050042Y-102800096D03*
%TD*%
D23*
%TO.C,R92*%
X137175000Y-106000000D03*
X138825000Y-106000000D03*
%TD*%
%LPD*%
M02*
