%TF.GenerationSoftware,KiCad,Pcbnew,10.0.5*%
%TF.CreationDate,2026-10-10T14:49:25+05:30*%
%TF.ProjectId,pd1180-epr-r0.3,70643131-3830-42d6-9570-722d72302e33,rev?*%
%TF.SameCoordinates,Original*%
%TF.FileFunction,Soldermask,Top*%
%TF.FilePolarity,Negative*%
%FSLAX46Y46*%
G04 Gerber Fmt 4.6, Leading zero omitted, Abs format (unit mm)*
G04 Created by KiCad (PCBNEW 10.0.5) date 2026-10-10 14:49:25*
%MOMM*%
%LPD*%
G01*
G04 APERTURE LIST*
G04 Aperture macros list*
%AMRoundRect*
0 Rectangle with rounded corners*
0 $1 Rounding radius*
0 $2 $3 $4 $5 $6 $7 $8 $9 X,Y pos of 4 corners*
0 Add a 4 corners polygon primitive as box body*
4,1,4,$2,$3,$4,$5,$6,$7,$8,$9,$2,$3,0*
0 Add four circle primitives for the rounded corners*
1,1,$1+$1,$2,$3*
1,1,$1+$1,$4,$5*
1,1,$1+$1,$6,$7*
1,1,$1+$1,$8,$9*
0 Add four rect primitives between the rounded corners*
20,1,$1+$1,$2,$3,$4,$5,0*
20,1,$1+$1,$4,$5,$6,$7,0*
20,1,$1+$1,$6,$7,$8,$9,0*
20,1,$1+$1,$8,$9,$2,$3,0*%
G04 Aperture macros list end*
%ADD10R,0.950000X0.800000*%
%ADD11R,0.800000X0.950000*%
%ADD12C,1.400000*%
%ADD13R,1.321003X0.799998*%
%ADD14R,3.599993X4.599991*%
%ADD15R,1.229995X1.859991*%
%ADD16R,1.250010X0.699999*%
%ADD17R,1.207516X1.701013*%
%ADD18C,2.099996*%
%ADD19R,1.099998X0.599999*%
%ADD20R,1.400000X1.025000*%
%ADD21R,0.950011X1.150010*%
%ADD22RoundRect,0.350000X-0.000010X-0.499998X0.000010X-0.499998X0.000010X0.499998X-0.000010X0.499998X0*%
%ADD23R,3.499993X2.499995*%
%ADD24R,1.999996X1.999996*%
%ADD25RoundRect,0.294005X-0.000010X-0.605993X0.000010X-0.605993X0.000010X0.605993X-0.000010X0.605993X0*%
%ADD26R,1.150010X0.950011*%
%ADD27R,0.999998X0.799998*%
%ADD28R,1.399997X1.199998*%
%ADD29C,0.649986*%
%ADD30O,2.099996X1.099998*%
%ADD31O,1.799996X1.099998*%
%ADD32R,1.150010X0.299999*%
%ADD33R,0.250012X0.150114*%
%ADD34R,0.350012X0.499999*%
%ADD35C,4.200000*%
%ADD36RoundRect,0.284201X-0.690905X0.000010X-0.690905X-0.000010X0.690905X-0.000010X0.690905X0.000010X0*%
%ADD37R,0.270002X1.499997*%
%ADD38R,1.499997X0.270002*%
%ADD39R,1.125000X1.750000*%
%ADD40R,0.899998X0.399999*%
%ADD41R,1.025000X1.400000*%
%ADD42R,0.850011X0.350012*%
%ADD43R,0.399999X1.699997*%
%ADD44R,0.599999X0.299999*%
%ADD45R,0.350012X0.850011*%
%ADD46RoundRect,0.301003X-0.000010X-0.684491X0.000010X-0.684491X0.000010X0.684491X-0.000010X0.684491X0*%
%ADD47C,1.524000*%
%ADD48R,2.474011X5.020005*%
%ADD49R,1.999996X3.299993*%
%ADD50R,2.499995X2.499995*%
%ADD51C,2.499995*%
%ADD52R,0.299974X0.699999*%
%ADD53R,0.699999X0.299974*%
%ADD54R,2.599995X2.599995*%
%ADD55R,0.532003X1.072007*%
%ADD56R,0.200000X0.799998*%
%ADD57R,0.799998X0.200000*%
%ADD58R,1.699997X1.699997*%
%ADD59R,1.750000X1.125000*%
%ADD60RoundRect,0.140005X-0.000010X-0.670001X0.000010X-0.670001X0.000010X0.670001X-0.000010X0.670001X0*%
%ADD61R,0.399999X0.899998*%
%ADD62RoundRect,0.140005X0.000010X0.659993X-0.000010X0.659993X-0.000010X-0.659993X0.000010X-0.659993X0*%
%ADD63RoundRect,0.140005X0.659993X0.000010X-0.659993X0.000010X-0.659993X-0.000010X0.659993X-0.000010X0*%
%ADD64R,4.999990X4.999990*%
%ADD65R,2.500000X3.500000*%
%ADD66R,0.799998X1.321003*%
%ADD67R,4.599991X3.599993*%
%ADD68R,0.999998X0.650011*%
%ADD69R,1.037488X0.532003*%
%ADD70RoundRect,0.314998X-0.000010X-0.810006X0.000010X-0.810006X0.000010X0.810006X-0.000010X0.810006X0*%
%ADD71RoundRect,0.100000X-0.000010X-0.249999X0.000010X-0.249999X0.000010X0.249999X-0.000010X0.249999X0*%
%ADD72RoundRect,0.100000X-0.249999X-0.000010X0.249999X-0.000010X0.249999X0.000010X-0.249999X0.000010X0*%
%ADD73R,2.799994X2.799994*%
%ADD74R,0.599999X1.099998*%
G04 APERTURE END LIST*
D10*
%TO.C,R98*%
X119250000Y-83825000D03*
X119250000Y-82175000D03*
%TD*%
D11*
%TO.C,R113*%
X77175000Y-94500000D03*
X78825000Y-94500000D03*
%TD*%
D10*
%TO.C,R101*%
X127500000Y-87325000D03*
X127500000Y-85675000D03*
%TD*%
D12*
%TO.C,TP_SWCLK*%
X78750000Y-135800000D03*
%TD*%
D13*
%TO.C,Q11*%
X132574606Y-99095000D03*
X132574606Y-100365000D03*
X132574606Y-101635000D03*
X132574606Y-102905000D03*
X138625394Y-102905000D03*
X138625394Y-101635000D03*
X138625394Y-100365000D03*
X138625394Y-99095000D03*
D14*
X136249986Y-101000000D03*
%TD*%
D15*
%TO.C,SW1*%
X79815092Y-140000000D03*
X84184908Y-140000000D03*
%TD*%
D11*
%TO.C,R57*%
X91175000Y-113000000D03*
X92825000Y-113000000D03*
%TD*%
%TO.C,C36*%
X101075000Y-108000000D03*
X99425000Y-108000000D03*
%TD*%
D10*
%TO.C,R41*%
X104800000Y-100175000D03*
X104800000Y-101825000D03*
%TD*%
D16*
%TO.C,Q15*%
X96999998Y-120949960D03*
X96999998Y-119050040D03*
X95000002Y-120000000D03*
%TD*%
D11*
%TO.C,R2*%
X65175000Y-74000000D03*
X66825000Y-74000000D03*
%TD*%
%TO.C,R14*%
X88825000Y-79000000D03*
X87175000Y-79000000D03*
%TD*%
D10*
%TO.C,C26*%
X123800000Y-94125000D03*
X123800000Y-92475000D03*
%TD*%
D11*
%TO.C,C75*%
X84475000Y-99700000D03*
X86125000Y-99700000D03*
%TD*%
%TO.C,R55*%
X95175000Y-117000000D03*
X96825000Y-117000000D03*
%TD*%
%TO.C,C79*%
X118675000Y-94000000D03*
X120325000Y-94000000D03*
%TD*%
D10*
%TO.C,C70*%
X89350000Y-103200100D03*
X89350000Y-104850100D03*
%TD*%
D17*
%TO.C,R115*%
X116478788Y-120500000D03*
X113521212Y-120500000D03*
%TD*%
D11*
%TO.C,R51*%
X142025000Y-110100000D03*
X140375000Y-110100000D03*
%TD*%
%TO.C,R19*%
X100675000Y-79000000D03*
X102325000Y-79000000D03*
%TD*%
D18*
%TO.C,C22*%
X117500005Y-72000000D03*
X122499995Y-72000000D03*
%TD*%
D11*
%TO.C,C76*%
X84475000Y-102300000D03*
X86125000Y-102300000D03*
%TD*%
D19*
%TO.C,U11*%
X97300099Y-114949960D03*
X97300099Y-114000000D03*
X97300099Y-113050040D03*
X94699901Y-113050040D03*
X94699901Y-114949960D03*
%TD*%
D11*
%TO.C,R33*%
X114325000Y-79500000D03*
X112675000Y-79500000D03*
%TD*%
%TO.C,R112*%
X78675000Y-104000000D03*
X80325000Y-104000000D03*
%TD*%
D20*
%TO.C,C92*%
X87500000Y-64912500D03*
X87500000Y-63087500D03*
%TD*%
D11*
%TO.C,R67*%
X98175000Y-126000000D03*
X99825000Y-126000000D03*
%TD*%
D21*
%TO.C,D4*%
X90807598Y-125750000D03*
X94192402Y-125750000D03*
%TD*%
D11*
%TO.C,C59*%
X60175000Y-118000000D03*
X61825000Y-118000000D03*
%TD*%
%TO.C,R17*%
X76925000Y-97250000D03*
X78575000Y-97250000D03*
%TD*%
%TO.C,R13*%
X83175000Y-78500000D03*
X84825000Y-78500000D03*
%TD*%
D22*
%TO.C,U34*%
X74095000Y-71846070D03*
X75365000Y-71846070D03*
X76635000Y-71846070D03*
X77905000Y-71846070D03*
X77905000Y-66153930D03*
X76635000Y-66153930D03*
X75365000Y-66153930D03*
X74095000Y-66153930D03*
D23*
X76000000Y-69000000D03*
%TD*%
D10*
%TO.C,C12*%
X72365000Y-96946100D03*
X72365000Y-98596100D03*
%TD*%
D24*
%TO.C,D11*%
X112800106Y-60000000D03*
X117199894Y-60000000D03*
%TD*%
D11*
%TO.C,R23*%
X97325000Y-77000000D03*
X95675000Y-77000000D03*
%TD*%
D10*
%TO.C,C74*%
X85250000Y-95825000D03*
X85250000Y-94175000D03*
%TD*%
D25*
%TO.C,U20*%
X76095000Y-128599944D03*
X77365000Y-128599944D03*
X78635000Y-128599944D03*
X79905000Y-128599944D03*
X79905000Y-123400056D03*
X78635000Y-123400056D03*
X77365000Y-123400056D03*
X76095000Y-123400056D03*
%TD*%
D10*
%TO.C,C77*%
X86800000Y-105825000D03*
X86800000Y-104175000D03*
%TD*%
D11*
%TO.C,C42*%
X114175000Y-64500000D03*
X115825000Y-64500000D03*
%TD*%
%TO.C,R30*%
X112325000Y-77000000D03*
X110675000Y-77000000D03*
%TD*%
D13*
%TO.C,Q6*%
X116025394Y-92905000D03*
X116025394Y-91635000D03*
X116025394Y-90365000D03*
X116025394Y-89095000D03*
X109974606Y-89095000D03*
X109974606Y-90365000D03*
X109974606Y-91635000D03*
X109974606Y-92905000D03*
D14*
X112350014Y-91000000D03*
%TD*%
D11*
%TO.C,R104*%
X98325000Y-95000000D03*
X96675000Y-95000000D03*
%TD*%
D12*
%TO.C,TP_STATUS*%
X83000000Y-136300000D03*
%TD*%
D11*
%TO.C,R24*%
X95675000Y-73000000D03*
X97325000Y-73000000D03*
%TD*%
%TO.C,R6*%
X67925000Y-78500000D03*
X69575000Y-78500000D03*
%TD*%
%TO.C,R53*%
X140375000Y-112300000D03*
X142025000Y-112300000D03*
%TD*%
D19*
%TO.C,U10*%
X97300099Y-109949960D03*
X97300099Y-109000000D03*
X97300099Y-108050040D03*
X94699901Y-108050040D03*
X94699901Y-109949960D03*
%TD*%
D11*
%TO.C,R58*%
X99175000Y-112000000D03*
X100825000Y-112000000D03*
%TD*%
D26*
%TO.C,D7*%
X120000000Y-113192402D03*
X120000000Y-109807598D03*
%TD*%
D12*
%TO.C,TP_SWD_GND*%
X83000000Y-133800000D03*
%TD*%
D27*
%TO.C,Q5*%
X93149985Y-61449960D03*
X93149985Y-59550040D03*
X90850015Y-60500000D03*
%TD*%
D11*
%TO.C,R80*%
X91175000Y-123750000D03*
X92825000Y-123750000D03*
%TD*%
%TO.C,R29*%
X103075000Y-85750000D03*
X101425000Y-85750000D03*
%TD*%
%TO.C,R108*%
X83425000Y-82000000D03*
X85075000Y-82000000D03*
%TD*%
D12*
%TO.C,TP_SWDIO*%
X80500000Y-133800000D03*
%TD*%
D28*
%TO.C,Y1*%
X87899926Y-118850011D03*
X90100074Y-118850011D03*
X90100074Y-117149989D03*
X87899926Y-117149989D03*
%TD*%
D12*
%TO.C,TP_SWD_3V3*%
X78000000Y-133800000D03*
%TD*%
D20*
%TO.C,C27*%
X123250000Y-107287500D03*
X123250000Y-109112500D03*
%TD*%
D10*
%TO.C,R118*%
X130000000Y-127675000D03*
X130000000Y-129325000D03*
%TD*%
D29*
%TO.C,J1*%
X65064647Y-82109988D03*
X65064647Y-87890012D03*
D30*
X65544454Y-80679968D03*
X65544454Y-89320032D03*
D31*
X61364376Y-89320032D03*
X61364375Y-80679968D03*
D32*
X66109603Y-88350006D03*
X66109603Y-88050032D03*
X66109858Y-87549906D03*
X66109858Y-87249932D03*
X66109603Y-86750060D03*
X66110619Y-86249680D03*
X66109603Y-85750062D03*
X66109603Y-85249936D03*
X66109603Y-84750064D03*
X66109603Y-84249938D03*
X66109603Y-83750066D03*
X66110619Y-83249940D03*
X66109603Y-82750068D03*
X66109603Y-82450094D03*
X66109603Y-81949968D03*
X66109603Y-81649994D03*
%TD*%
D19*
%TO.C,U14*%
X104300099Y-130949960D03*
X104300099Y-130000000D03*
X104300099Y-129050040D03*
X101699901Y-129050040D03*
X101699901Y-130949960D03*
%TD*%
D10*
%TO.C,C3*%
X79500000Y-74425000D03*
X79500000Y-76075000D03*
%TD*%
D11*
%TO.C,R73*%
X91175000Y-127750000D03*
X92825000Y-127750000D03*
%TD*%
D16*
%TO.C,Q25*%
X126999998Y-83949960D03*
X126999998Y-82050040D03*
X125000002Y-83000000D03*
%TD*%
D10*
%TO.C,R47*%
X130100000Y-106125000D03*
X130100000Y-104475000D03*
%TD*%
D20*
%TO.C,C91*%
X85000000Y-64412500D03*
X85000000Y-62587500D03*
%TD*%
D10*
%TO.C,C43*%
X108900000Y-77175000D03*
X108900000Y-78825000D03*
%TD*%
D11*
%TO.C,R1*%
X87675000Y-61500000D03*
X89325000Y-61500000D03*
%TD*%
D20*
%TO.C,C87*%
X72250000Y-72412500D03*
X72250000Y-70587500D03*
%TD*%
D10*
%TO.C,R68*%
X112550000Y-71825000D03*
X112550000Y-70175000D03*
%TD*%
D11*
%TO.C,C37*%
X105075000Y-113000000D03*
X103425000Y-113000000D03*
%TD*%
%TO.C,C4*%
X77675000Y-80000000D03*
X79325000Y-80000000D03*
%TD*%
%TO.C,R83*%
X115675000Y-131000000D03*
X117325000Y-131000000D03*
%TD*%
%TO.C,R90*%
X126175000Y-131000000D03*
X127825000Y-131000000D03*
%TD*%
%TO.C,C48*%
X86675000Y-114000000D03*
X88325000Y-114000000D03*
%TD*%
D10*
%TO.C,R74*%
X100000000Y-95325000D03*
X100000000Y-93675000D03*
%TD*%
D11*
%TO.C,C58*%
X63675000Y-118000000D03*
X65325000Y-118000000D03*
%TD*%
D16*
%TO.C,Q21*%
X101500002Y-89150040D03*
X101500002Y-91049960D03*
X103499998Y-90100000D03*
%TD*%
D33*
%TO.C,Q2*%
X82849866Y-80175006D03*
X82849866Y-79824994D03*
D34*
X82200134Y-80000000D03*
%TD*%
D11*
%TO.C,R54*%
X99175000Y-110000000D03*
X100825000Y-110000000D03*
%TD*%
D16*
%TO.C,Q19*%
X108999998Y-131949960D03*
X108999998Y-130050040D03*
X107000002Y-131000000D03*
%TD*%
D35*
%TO.C,*%
X75500000Y-138400000D03*
%TD*%
D10*
%TO.C,R5*%
X72250000Y-62325000D03*
X72250000Y-60675000D03*
%TD*%
D20*
%TO.C,C25*%
X127400000Y-94412500D03*
X127400000Y-92587500D03*
%TD*%
D10*
%TO.C,R122*%
X79500000Y-70575000D03*
X79500000Y-68925000D03*
%TD*%
D35*
%TO.C,*%
X138400000Y-124500000D03*
%TD*%
D19*
%TO.C,U12*%
X101399990Y-123550040D03*
X101399990Y-124500000D03*
X101399990Y-125449960D03*
X104100010Y-125449960D03*
X104100010Y-124500000D03*
X104100010Y-123550040D03*
%TD*%
D16*
%TO.C,Q18*%
X97000002Y-130050040D03*
X97000002Y-131949960D03*
X98999998Y-131000000D03*
%TD*%
D10*
%TO.C,C88*%
X79500000Y-65675000D03*
X79500000Y-67325000D03*
%TD*%
D36*
%TO.C,U32*%
X122294900Y-123095000D03*
X122294900Y-124365000D03*
X122294900Y-125635000D03*
X122294900Y-126905000D03*
X127705100Y-126905000D03*
X127705100Y-125635000D03*
X127705100Y-124365000D03*
X127705100Y-123095000D03*
%TD*%
D37*
%TO.C,U16*%
X77249942Y-116249928D03*
X77750068Y-116249928D03*
X78249940Y-116249928D03*
X78750066Y-116249928D03*
X79249938Y-116249928D03*
X79750064Y-116249928D03*
X80249936Y-116249928D03*
X80750062Y-116249928D03*
X81249934Y-116249928D03*
X81750060Y-116249928D03*
X82249932Y-116249928D03*
X82750058Y-116249928D03*
D38*
X84249928Y-114750058D03*
X84249928Y-114249932D03*
X84249928Y-113750060D03*
X84249928Y-113249934D03*
X84249928Y-112750062D03*
X84249928Y-112249936D03*
X84249928Y-111750064D03*
X84249928Y-111249938D03*
X84249928Y-110750066D03*
X84249928Y-110249940D03*
X84249928Y-109750068D03*
X84249928Y-109249942D03*
D37*
X82750058Y-107750072D03*
X82249932Y-107750072D03*
X81750060Y-107750072D03*
X81249934Y-107750072D03*
X80750062Y-107750072D03*
X80249936Y-107750072D03*
X79750064Y-107750072D03*
X79249938Y-107750072D03*
X78750066Y-107750072D03*
X78249940Y-107750072D03*
X77750068Y-107750072D03*
X77249942Y-107750072D03*
D38*
X75750072Y-109249942D03*
X75750072Y-109750068D03*
X75750072Y-110249940D03*
X75750072Y-110750066D03*
X75750072Y-111249938D03*
X75750072Y-111750064D03*
X75750072Y-112249936D03*
X75750072Y-112750062D03*
X75750072Y-113249934D03*
X75750072Y-113750060D03*
X75750072Y-114249932D03*
X75750072Y-114750058D03*
%TD*%
D39*
%TO.C,C21*%
X100212500Y-70500000D03*
X97287500Y-70500000D03*
%TD*%
D11*
%TO.C,R22*%
X104675000Y-75000000D03*
X106325000Y-75000000D03*
%TD*%
%TO.C,R12*%
X75325000Y-83500000D03*
X73675000Y-83500000D03*
%TD*%
%TO.C,R95*%
X139175000Y-90000000D03*
X140825000Y-90000000D03*
%TD*%
D18*
%TO.C,C23*%
X132500005Y-82000000D03*
X137499995Y-82000000D03*
%TD*%
D11*
%TO.C,C83*%
X116675000Y-129200000D03*
X118325000Y-129200000D03*
%TD*%
D10*
%TO.C,C45*%
X81250000Y-118425000D03*
X81250000Y-120075000D03*
%TD*%
D11*
%TO.C,R42*%
X106375000Y-114900000D03*
X108025000Y-114900000D03*
%TD*%
D40*
%TO.C,U8*%
X104899922Y-108649986D03*
X104899922Y-108000000D03*
X104899922Y-107350014D03*
X103100078Y-107350014D03*
X103100078Y-108000000D03*
X103100078Y-108649986D03*
%TD*%
D11*
%TO.C,R85*%
X116325000Y-133500000D03*
X114675000Y-133500000D03*
%TD*%
%TO.C,C18*%
X104675000Y-73000000D03*
X106325000Y-73000000D03*
%TD*%
D10*
%TO.C,C2*%
X70500000Y-72075000D03*
X70500000Y-70425000D03*
%TD*%
D11*
%TO.C,R20*%
X102175000Y-71000000D03*
X103825000Y-71000000D03*
%TD*%
D41*
%TO.C,C16*%
X85412500Y-83750000D03*
X83587500Y-83750000D03*
%TD*%
D39*
%TO.C,C86*%
X79787500Y-72500000D03*
X82712500Y-72500000D03*
%TD*%
D42*
%TO.C,U27*%
X95100074Y-104149986D03*
X95100074Y-103500000D03*
X95100074Y-102850014D03*
X92899926Y-102850014D03*
X92899926Y-103500000D03*
X92899926Y-104149986D03*
%TD*%
D10*
%TO.C,C31*%
X128800000Y-112825000D03*
X128800000Y-111175000D03*
%TD*%
D11*
%TO.C,R86*%
X117925000Y-134000000D03*
X119575000Y-134000000D03*
%TD*%
D43*
%TO.C,U18*%
X101949958Y-97199904D03*
X101299972Y-97199904D03*
X100649986Y-97199904D03*
X100000000Y-97199904D03*
X99350014Y-97199904D03*
X98700028Y-97199904D03*
X98050042Y-97199904D03*
X98050042Y-102800096D03*
X98700028Y-102800096D03*
X99350014Y-102800096D03*
X100000000Y-102800096D03*
X100649986Y-102800096D03*
X101299972Y-102800096D03*
X101949958Y-102800096D03*
%TD*%
D44*
%TO.C,U29*%
X120749986Y-92499999D03*
X120749986Y-92000127D03*
X120749986Y-91500001D03*
X119250014Y-91500001D03*
X119250014Y-92000127D03*
X119250014Y-92499999D03*
%TD*%
D20*
%TO.C,C33*%
X127500000Y-107287500D03*
X127500000Y-109112500D03*
%TD*%
D45*
%TO.C,U24*%
X89350014Y-101100074D03*
X90000000Y-101100074D03*
X90649986Y-101100074D03*
X90649986Y-98899926D03*
X90000000Y-98899926D03*
X89350014Y-98899926D03*
%TD*%
D11*
%TO.C,C72*%
X75325000Y-85250000D03*
X73675000Y-85250000D03*
%TD*%
D46*
%TO.C,U21*%
X60055000Y-113235580D03*
X61325000Y-113235580D03*
X62595000Y-113235580D03*
X63865000Y-113235580D03*
X65135000Y-113235580D03*
X66405000Y-113235580D03*
X67675000Y-113235580D03*
X68945000Y-113235580D03*
X68945000Y-107764420D03*
X67675000Y-107764420D03*
X66405000Y-107764420D03*
X65135000Y-107764420D03*
X63865000Y-107764420D03*
X62595000Y-107764420D03*
X61325000Y-107764420D03*
X60055000Y-107764420D03*
%TD*%
D47*
%TO.C,J7*%
X106999982Y-139999871D03*
X106999982Y-137999875D03*
X104999986Y-139999871D03*
X104999986Y-137999875D03*
X102999990Y-139999871D03*
X102999990Y-137999875D03*
X100999994Y-139999871D03*
X100999994Y-137999875D03*
X98999998Y-139999871D03*
X98999998Y-137999875D03*
X97000002Y-139999871D03*
X97000002Y-137999875D03*
X95000006Y-139999871D03*
X95000006Y-137999875D03*
X93000010Y-139999871D03*
X93000010Y-137999875D03*
X91000014Y-139999871D03*
X91000014Y-137999875D03*
X89000018Y-139999871D03*
X89000018Y-137999875D03*
%TD*%
D11*
%TO.C,R7*%
X81175000Y-74500000D03*
X82825000Y-74500000D03*
%TD*%
D16*
%TO.C,Q22*%
X105000002Y-85050040D03*
X105000002Y-86949960D03*
X106999998Y-86000000D03*
%TD*%
D11*
%TO.C,R28*%
X92175000Y-75000000D03*
X93825000Y-75000000D03*
%TD*%
D48*
%TO.C,L1*%
X78397008Y-88500000D03*
X83602992Y-88500000D03*
%TD*%
D10*
%TO.C,R3*%
X72500000Y-68325000D03*
X72500000Y-66675000D03*
%TD*%
D13*
%TO.C,Q9*%
X116025394Y-108905000D03*
X116025394Y-107635000D03*
X116025394Y-106365000D03*
X116025394Y-105095000D03*
X109974606Y-105095000D03*
X109974606Y-106365000D03*
X109974606Y-107635000D03*
X109974606Y-108905000D03*
D14*
X112350014Y-107000000D03*
%TD*%
D11*
%TO.C,C10*%
X84825000Y-77000000D03*
X83175000Y-77000000D03*
%TD*%
%TO.C,C13*%
X74175000Y-87000000D03*
X75825000Y-87000000D03*
%TD*%
D33*
%TO.C,Q3*%
X70849866Y-83675006D03*
X70849866Y-83324994D03*
D34*
X70200134Y-83500000D03*
%TD*%
D13*
%TO.C,Q10*%
X138625394Y-95905000D03*
X138625394Y-94635000D03*
X138625394Y-93365000D03*
X138625394Y-92095000D03*
X132574606Y-92095000D03*
X132574606Y-93365000D03*
X132574606Y-94635000D03*
X132574606Y-95905000D03*
D14*
X134950014Y-94000000D03*
%TD*%
D11*
%TO.C,C39*%
X92825000Y-115000000D03*
X91175000Y-115000000D03*
%TD*%
D10*
%TO.C,R93*%
X130500000Y-112825000D03*
X130500000Y-111175000D03*
%TD*%
D11*
%TO.C,C84*%
X126675000Y-129200000D03*
X128325000Y-129200000D03*
%TD*%
%TO.C,R36*%
X114175000Y-87000000D03*
X115825000Y-87000000D03*
%TD*%
%TO.C,R32*%
X110675000Y-82000000D03*
X112325000Y-82000000D03*
%TD*%
%TO.C,R106*%
X69175000Y-104000000D03*
X70825000Y-104000000D03*
%TD*%
D13*
%TO.C,Q7*%
X109974606Y-95095000D03*
X109974606Y-96365000D03*
X109974606Y-97635000D03*
X109974606Y-98905000D03*
X116025394Y-98905000D03*
X116025394Y-97635000D03*
X116025394Y-96365000D03*
X116025394Y-95095000D03*
D14*
X113649986Y-97000000D03*
%TD*%
D11*
%TO.C,R60*%
X106675000Y-119000000D03*
X108325000Y-119000000D03*
%TD*%
D21*
%TO.C,D5*%
X99307598Y-120000000D03*
X102692402Y-120000000D03*
%TD*%
D10*
%TO.C,C24*%
X111000000Y-80325000D03*
X111000000Y-78675000D03*
%TD*%
D11*
%TO.C,C1*%
X69825000Y-81000000D03*
X68175000Y-81000000D03*
%TD*%
%TO.C,R88*%
X103175000Y-111000000D03*
X104825000Y-111000000D03*
%TD*%
%TO.C,R75*%
X59175000Y-123000000D03*
X60825000Y-123000000D03*
%TD*%
D24*
%TO.C,D12*%
X61800106Y-92000000D03*
X66199894Y-92000000D03*
%TD*%
D29*
%TO.C,J10*%
X65064647Y-96109988D03*
X65064647Y-101890012D03*
D30*
X65544454Y-94679968D03*
X65544454Y-103320032D03*
D31*
X61364376Y-103320032D03*
X61364375Y-94679968D03*
D32*
X66109603Y-102350006D03*
X66109603Y-102050032D03*
X66109858Y-101549906D03*
X66109858Y-101249932D03*
X66109603Y-100750060D03*
X66110619Y-100249680D03*
X66109603Y-99750062D03*
X66109603Y-99249936D03*
X66109603Y-98750064D03*
X66109603Y-98249938D03*
X66109603Y-97750066D03*
X66110619Y-97249940D03*
X66109603Y-96750068D03*
X66109603Y-96450094D03*
X66109603Y-95949968D03*
X66109603Y-95649994D03*
%TD*%
D21*
%TO.C,D9*%
X127307598Y-115000000D03*
X130692402Y-115000000D03*
%TD*%
D11*
%TO.C,R107*%
X78575000Y-84000000D03*
X76925000Y-84000000D03*
%TD*%
D13*
%TO.C,Q13*%
X138625394Y-113905000D03*
X138625394Y-112635000D03*
X138625394Y-111365000D03*
X138625394Y-110095000D03*
X132574606Y-110095000D03*
X132574606Y-111365000D03*
X132574606Y-112635000D03*
X132574606Y-113905000D03*
D14*
X134950014Y-112000000D03*
%TD*%
D12*
%TO.C,TP_ENC_I*%
X97500000Y-135000000D03*
%TD*%
D11*
%TO.C,C28*%
X117925000Y-101750000D03*
X116275000Y-101750000D03*
%TD*%
D10*
%TO.C,R111*%
X72500000Y-102825000D03*
X72500000Y-101175000D03*
%TD*%
D11*
%TO.C,C41*%
X101675000Y-133000000D03*
X103325000Y-133000000D03*
%TD*%
D26*
%TO.C,D8*%
X141000000Y-117692402D03*
X141000000Y-114307598D03*
%TD*%
D11*
%TO.C,C64*%
X89675000Y-85700000D03*
X91325000Y-85700000D03*
%TD*%
%TO.C,C69*%
X75825000Y-101800000D03*
X74175000Y-101800000D03*
%TD*%
%TO.C,R72*%
X71675000Y-113750000D03*
X73325000Y-113750000D03*
%TD*%
D20*
%TO.C,C32*%
X130450000Y-101087500D03*
X130450000Y-102912500D03*
%TD*%
D49*
%TO.C,R109*%
X114166288Y-102000000D03*
X108033712Y-102000000D03*
%TD*%
D50*
%TO.C,J2*%
X114059956Y-139000000D03*
D51*
X118020070Y-139000000D03*
X121980184Y-139000000D03*
X125940044Y-139000000D03*
%TD*%
D50*
%TO.C,J3*%
X98019816Y-63500000D03*
D51*
X101980184Y-63500000D03*
%TD*%
D11*
%TO.C,C78*%
X94175000Y-106000000D03*
X95825000Y-106000000D03*
%TD*%
D10*
%TO.C,C52*%
X100000000Y-104725000D03*
X100000000Y-106375000D03*
%TD*%
D22*
%TO.C,U22*%
X87095000Y-93846070D03*
X88365000Y-93846070D03*
X89635000Y-93846070D03*
X90905000Y-93846070D03*
X90905000Y-88153930D03*
X89635000Y-88153930D03*
X88365000Y-88153930D03*
X87095000Y-88153930D03*
D23*
X89000000Y-91000000D03*
%TD*%
D11*
%TO.C,C49*%
X84175000Y-119000000D03*
X85825000Y-119000000D03*
%TD*%
D36*
%TO.C,U31*%
X112294900Y-123095000D03*
X112294900Y-124365000D03*
X112294900Y-125635000D03*
X112294900Y-126905000D03*
X117705100Y-126905000D03*
X117705100Y-125635000D03*
X117705100Y-124365000D03*
X117705100Y-123095000D03*
%TD*%
D11*
%TO.C,R119*%
X72825000Y-107000000D03*
X71175000Y-107000000D03*
%TD*%
%TO.C,R103*%
X88825000Y-82000000D03*
X87175000Y-82000000D03*
%TD*%
%TO.C,C73*%
X68675000Y-101750000D03*
X70325000Y-101750000D03*
%TD*%
%TO.C,C14*%
X72725000Y-87000000D03*
X71075000Y-87000000D03*
%TD*%
D41*
%TO.C,C66*%
X95912500Y-90000000D03*
X94087500Y-90000000D03*
%TD*%
D11*
%TO.C,C60*%
X59675000Y-105200000D03*
X61325000Y-105200000D03*
%TD*%
D52*
%TO.C,U6*%
X99750066Y-76941957D03*
X100249938Y-76941957D03*
X100750064Y-76941957D03*
X101249936Y-76941957D03*
X101750062Y-76941957D03*
X102249934Y-76941957D03*
D53*
X102948180Y-76250061D03*
X102948180Y-75749935D03*
X102948180Y-75250063D03*
X102948180Y-74750191D03*
X102948180Y-74250065D03*
X102948180Y-73750193D03*
D52*
X102249934Y-73058043D03*
X101750062Y-73058043D03*
X101249936Y-73058043D03*
X100750064Y-73058043D03*
X100249938Y-73058043D03*
X99750066Y-73058043D03*
D53*
X99051820Y-73750193D03*
X99051820Y-74250065D03*
X99051820Y-74750191D03*
X99051820Y-75250063D03*
X99051820Y-75749935D03*
X99051820Y-76250061D03*
D54*
X101000762Y-75000889D03*
%TD*%
D12*
%TO.C,TP_ENC_GND*%
X100000000Y-135000000D03*
%TD*%
D11*
%TO.C,R70*%
X88325000Y-112000000D03*
X86675000Y-112000000D03*
%TD*%
D10*
%TO.C,C94*%
X105750000Y-124075000D03*
X105750000Y-122425000D03*
%TD*%
D11*
%TO.C,C80*%
X96675000Y-93000000D03*
X98325000Y-93000000D03*
%TD*%
D16*
%TO.C,Q20*%
X108999998Y-127449960D03*
X108999998Y-125550040D03*
X107000002Y-126500000D03*
%TD*%
D55*
%TO.C,D15*%
X68550040Y-99949096D03*
X69500000Y-99949096D03*
X70449960Y-99949096D03*
X70449960Y-97650904D03*
X69500000Y-97650904D03*
X68550040Y-97650904D03*
%TD*%
D11*
%TO.C,R82*%
X119825000Y-120000000D03*
X118175000Y-120000000D03*
%TD*%
D10*
%TO.C,R81*%
X104500000Y-116325000D03*
X104500000Y-114675000D03*
%TD*%
D11*
%TO.C,R61*%
X112175000Y-117500000D03*
X113825000Y-117500000D03*
%TD*%
D10*
%TO.C,R69*%
X112550000Y-68625000D03*
X112550000Y-66975000D03*
%TD*%
%TO.C,R11*%
X81750000Y-77575000D03*
X81750000Y-75925000D03*
%TD*%
D56*
%TO.C,U1*%
X69200027Y-76999997D03*
X69600077Y-76999997D03*
X70000127Y-76999997D03*
X70400177Y-76999997D03*
X70800227Y-76999997D03*
D57*
X71499997Y-76300227D03*
X71499997Y-75900177D03*
X71499997Y-75500127D03*
X71499997Y-75100331D03*
X71499997Y-74700281D03*
D56*
X70800227Y-74000003D03*
X70400177Y-74000003D03*
X70000127Y-74000003D03*
X69600077Y-74000003D03*
X69200027Y-74000003D03*
D57*
X68500003Y-74700027D03*
X68500003Y-75100077D03*
X68500003Y-75499873D03*
X68500003Y-75899923D03*
X68500003Y-76299973D03*
D58*
X70000127Y-75500127D03*
%TD*%
D10*
%TO.C,R15*%
X89750000Y-73575000D03*
X89750000Y-71925000D03*
%TD*%
%TO.C,C8*%
X76000000Y-79925000D03*
X76000000Y-81575000D03*
%TD*%
D21*
%TO.C,D1*%
X94307598Y-123500000D03*
X97692402Y-123500000D03*
%TD*%
D45*
%TO.C,U23*%
X77350014Y-101100074D03*
X78000000Y-101100074D03*
X78649986Y-101100074D03*
X78649986Y-98899926D03*
X78000000Y-98899926D03*
X77350014Y-98899926D03*
%TD*%
D11*
%TO.C,R105*%
X69325000Y-95000000D03*
X67675000Y-95000000D03*
%TD*%
D59*
%TO.C,C11*%
X75000000Y-97037500D03*
X75000000Y-99962500D03*
%TD*%
D22*
%TO.C,U5*%
X71095000Y-94846070D03*
X72365000Y-94846070D03*
X73635000Y-94846070D03*
X74905000Y-94846070D03*
X74905000Y-89153930D03*
X73635000Y-89153930D03*
X72365000Y-89153930D03*
X71095000Y-89153930D03*
D23*
X73000000Y-92000000D03*
%TD*%
D11*
%TO.C,R89*%
X124425000Y-134000000D03*
X126075000Y-134000000D03*
%TD*%
%TO.C,R87*%
X121175000Y-134000000D03*
X122825000Y-134000000D03*
%TD*%
D10*
%TO.C,R43*%
X117800000Y-108325000D03*
X117800000Y-106675000D03*
%TD*%
D11*
%TO.C,C54*%
X69425000Y-128500000D03*
X67775000Y-128500000D03*
%TD*%
D60*
%TO.C,U30*%
X93000002Y-97109978D03*
X93500128Y-97109978D03*
X94000000Y-97109978D03*
X94500126Y-97109978D03*
X94999998Y-97109978D03*
X94999998Y-92890022D03*
X94500126Y-92890022D03*
X94000000Y-92890022D03*
X93500128Y-92890022D03*
X93000002Y-92890022D03*
%TD*%
D10*
%TO.C,C46*%
X77250000Y-118425000D03*
X77250000Y-120075000D03*
%TD*%
D19*
%TO.C,U33*%
X107300099Y-96449960D03*
X107300099Y-95500000D03*
X107300099Y-94550040D03*
X104699901Y-94550040D03*
X104699901Y-96449960D03*
%TD*%
D11*
%TO.C,R4*%
X87675000Y-60000000D03*
X89325000Y-60000000D03*
%TD*%
D10*
%TO.C,C29*%
X125250000Y-107375000D03*
X125250000Y-109025000D03*
%TD*%
%TO.C,C89*%
X72250000Y-65325000D03*
X72250000Y-63675000D03*
%TD*%
D11*
%TO.C,R64*%
X98175000Y-128000000D03*
X99825000Y-128000000D03*
%TD*%
%TO.C,R16*%
X79825000Y-92750000D03*
X78175000Y-92750000D03*
%TD*%
%TO.C,R102*%
X85175000Y-97500000D03*
X86825000Y-97500000D03*
%TD*%
%TO.C,R79*%
X88175000Y-132500000D03*
X89825000Y-132500000D03*
%TD*%
D19*
%TO.C,U13*%
X110050099Y-122949960D03*
X110050099Y-122000000D03*
X110050099Y-121050040D03*
X107449901Y-121050040D03*
X107449901Y-122949960D03*
%TD*%
D10*
%TO.C,R45*%
X117800000Y-110175000D03*
X117800000Y-111825000D03*
%TD*%
D12*
%TO.C,TP_ENC_B*%
X95000000Y-135000000D03*
%TD*%
D61*
%TO.C,U9*%
X108149986Y-111100078D03*
X107500000Y-111100078D03*
X106850014Y-111100078D03*
X106850014Y-112899922D03*
X107500000Y-112899922D03*
X108149986Y-112899922D03*
%TD*%
D10*
%TO.C,C7*%
X74000000Y-79925000D03*
X74000000Y-81575000D03*
%TD*%
D11*
%TO.C,R100*%
X135675000Y-90000000D03*
X137325000Y-90000000D03*
%TD*%
D16*
%TO.C,Q14*%
X100000002Y-116050040D03*
X100000002Y-117949960D03*
X101999998Y-117000000D03*
%TD*%
D10*
%TO.C,R117*%
X120000000Y-127675000D03*
X120000000Y-129325000D03*
%TD*%
D11*
%TO.C,R21*%
X95675000Y-75000000D03*
X97325000Y-75000000D03*
%TD*%
D39*
%TO.C,C47*%
X73462500Y-115750000D03*
X70537500Y-115750000D03*
%TD*%
D11*
%TO.C,R84*%
X111425000Y-134000000D03*
X113075000Y-134000000D03*
%TD*%
D42*
%TO.C,U26*%
X84100074Y-105649986D03*
X84100074Y-105000000D03*
X84100074Y-104350014D03*
X81899926Y-104350014D03*
X81899926Y-105000000D03*
X81899926Y-105649986D03*
%TD*%
D11*
%TO.C,C55*%
X74075000Y-123500000D03*
X72425000Y-123500000D03*
%TD*%
D16*
%TO.C,Q23*%
X107000002Y-81050040D03*
X107000002Y-82949960D03*
X108999998Y-82000000D03*
%TD*%
D20*
%TO.C,C90*%
X83000000Y-64412500D03*
X83000000Y-62587500D03*
%TD*%
D10*
%TO.C,R96*%
X131750000Y-126925000D03*
X131750000Y-128575000D03*
%TD*%
D62*
%TO.C,U7*%
X126750058Y-96800110D03*
X126249932Y-96800110D03*
X125750060Y-96800110D03*
X125249934Y-96800110D03*
X124750062Y-96800110D03*
X124249936Y-96800110D03*
X123750064Y-96800110D03*
X123249938Y-96800110D03*
X122750066Y-96800110D03*
X122249940Y-96800110D03*
X121750068Y-96800110D03*
X121249942Y-96800110D03*
D63*
X119800110Y-98249942D03*
X119800110Y-98750068D03*
X119800110Y-99249940D03*
X119800110Y-99750066D03*
X119800110Y-100249938D03*
X119800110Y-100750064D03*
X119800110Y-101249936D03*
X119800110Y-101750062D03*
X119800110Y-102249934D03*
X119800110Y-102750060D03*
X119800110Y-103249932D03*
X119800110Y-103750058D03*
D62*
X121249942Y-105199890D03*
X121750068Y-105199890D03*
X122249940Y-105199890D03*
X122750066Y-105199890D03*
X123249938Y-105199890D03*
X123750064Y-105199890D03*
X124249936Y-105199890D03*
X124750062Y-105199890D03*
X125249934Y-105199890D03*
X125750060Y-105199890D03*
X126249932Y-105199890D03*
X126750058Y-105199890D03*
D63*
X128199890Y-103750058D03*
X128199890Y-103249932D03*
X128199890Y-102750060D03*
X128199890Y-102249934D03*
X128199890Y-101750062D03*
X128199890Y-101249936D03*
X128199890Y-100750064D03*
X128199890Y-100249938D03*
X128199890Y-99750066D03*
X128199890Y-99249940D03*
X128199890Y-98750068D03*
X128199890Y-98249942D03*
D64*
X124000000Y-101000000D03*
%TD*%
D41*
%TO.C,C30*%
X124087500Y-111500000D03*
X125912500Y-111500000D03*
%TD*%
D12*
%TO.C,TP_NRST*%
X80750000Y-136300000D03*
%TD*%
D10*
%TO.C,C51*%
X82750000Y-122425000D03*
X82750000Y-124075000D03*
%TD*%
%TO.C,R92*%
X141000000Y-106825000D03*
X141000000Y-105175000D03*
%TD*%
%TO.C,R62*%
X111750000Y-121325000D03*
X111750000Y-119675000D03*
%TD*%
D11*
%TO.C,C38*%
X92825000Y-110000000D03*
X91175000Y-110000000D03*
%TD*%
%TO.C,C71*%
X75825000Y-104500000D03*
X74175000Y-104500000D03*
%TD*%
D20*
%TO.C,C34*%
X129500000Y-94612500D03*
X129500000Y-92787500D03*
%TD*%
D25*
%TO.C,U3*%
X84345000Y-72599944D03*
X85615000Y-72599944D03*
X86885000Y-72599944D03*
X88155000Y-72599944D03*
X88155000Y-67400056D03*
X86885000Y-67400056D03*
X85615000Y-67400056D03*
X84345000Y-67400056D03*
%TD*%
D10*
%TO.C,R27*%
X105000000Y-82325000D03*
X105000000Y-80675000D03*
%TD*%
D11*
%TO.C,R26*%
X104175000Y-79000000D03*
X105825000Y-79000000D03*
%TD*%
D10*
%TO.C,C6*%
X72000000Y-78925000D03*
X72000000Y-80575000D03*
%TD*%
D55*
%TO.C,U15*%
X109050040Y-75149096D03*
X110000000Y-75149096D03*
X110949960Y-75149096D03*
X110949960Y-72850904D03*
X110000000Y-72850904D03*
X109050040Y-72850904D03*
%TD*%
D10*
%TO.C,C63*%
X88365000Y-95696100D03*
X88365000Y-97346100D03*
%TD*%
D65*
%TO.C,L3*%
X74550000Y-61250000D03*
X80450000Y-61250000D03*
%TD*%
D12*
%TO.C,TP_ENC_A*%
X92500000Y-135000000D03*
%TD*%
D11*
%TO.C,C56*%
X63675000Y-116000000D03*
X65325000Y-116000000D03*
%TD*%
D66*
%TO.C,Q4*%
X90095000Y-70025394D03*
X91365000Y-70025394D03*
X92635000Y-70025394D03*
X93905000Y-70025394D03*
X93905000Y-63974606D03*
X92635000Y-63974606D03*
X91365000Y-63974606D03*
X90095000Y-63974606D03*
D67*
X92000000Y-66350014D03*
%TD*%
D19*
%TO.C,U28*%
X83350010Y-97949960D03*
X83350010Y-97000000D03*
X83350010Y-96050040D03*
X80649990Y-96050040D03*
X80649990Y-97000000D03*
X80649990Y-97949960D03*
%TD*%
D16*
%TO.C,Q17*%
X93999998Y-131949960D03*
X93999998Y-130050040D03*
X92000002Y-131000000D03*
%TD*%
D11*
%TO.C,R56*%
X99175000Y-114000000D03*
X100825000Y-114000000D03*
%TD*%
%TO.C,C57*%
X60175000Y-116000000D03*
X61825000Y-116000000D03*
%TD*%
%TO.C,C40*%
X105825000Y-121000000D03*
X104175000Y-121000000D03*
%TD*%
%TO.C,R44*%
X108025000Y-117000000D03*
X106375000Y-117000000D03*
%TD*%
D10*
%TO.C,C61*%
X125600000Y-94125000D03*
X125600000Y-92475000D03*
%TD*%
D41*
%TO.C,C15*%
X80087500Y-84000000D03*
X81912500Y-84000000D03*
%TD*%
%TO.C,C17*%
X80087500Y-82000000D03*
X81912500Y-82000000D03*
%TD*%
D11*
%TO.C,R66*%
X88325000Y-134250000D03*
X86675000Y-134250000D03*
%TD*%
D41*
%TO.C,C68*%
X97087500Y-80000000D03*
X98912500Y-80000000D03*
%TD*%
D11*
%TO.C,R9*%
X67425000Y-71750000D03*
X69075000Y-71750000D03*
%TD*%
%TO.C,R78*%
X101675000Y-134750000D03*
X103325000Y-134750000D03*
%TD*%
%TO.C,R38*%
X119625000Y-89100000D03*
X117975000Y-89100000D03*
%TD*%
%TO.C,R40*%
X117975000Y-87000000D03*
X119625000Y-87000000D03*
%TD*%
D35*
%TO.C,*%
X61600000Y-75500000D03*
%TD*%
D10*
%TO.C,C81*%
X120000000Y-124825000D03*
X120000000Y-123175000D03*
%TD*%
D11*
%TO.C,C50*%
X91175000Y-121000000D03*
X92825000Y-121000000D03*
%TD*%
D17*
%TO.C,R116*%
X126478788Y-120500000D03*
X123521212Y-120500000D03*
%TD*%
D39*
%TO.C,C62*%
X92537500Y-99500000D03*
X95462500Y-99500000D03*
%TD*%
D11*
%TO.C,C65*%
X88025000Y-85600000D03*
X86375000Y-85600000D03*
%TD*%
D10*
%TO.C,C44*%
X79250000Y-118425000D03*
X79250000Y-120075000D03*
%TD*%
D11*
%TO.C,R91*%
X133825000Y-90000000D03*
X132175000Y-90000000D03*
%TD*%
D68*
%TO.C,D2*%
X73999998Y-127449960D03*
X73999998Y-125550040D03*
X72000002Y-126500000D03*
%TD*%
D69*
%TO.C,D3*%
X73601344Y-131699960D03*
X73601344Y-129800040D03*
X71398656Y-130750000D03*
%TD*%
D48*
%TO.C,L2*%
X93897008Y-85000000D03*
X99102992Y-85000000D03*
%TD*%
D11*
%TO.C,R37*%
X112325000Y-85500000D03*
X110675000Y-85500000D03*
%TD*%
D10*
%TO.C,R49*%
X130100000Y-109325000D03*
X130100000Y-107675000D03*
%TD*%
D11*
%TO.C,R31*%
X92175000Y-73000000D03*
X93825000Y-73000000D03*
%TD*%
D10*
%TO.C,R63*%
X110000000Y-118325000D03*
X110000000Y-116675000D03*
%TD*%
D11*
%TO.C,C20*%
X92175000Y-77000000D03*
X93825000Y-77000000D03*
%TD*%
D35*
%TO.C,*%
X124500000Y-61600000D03*
%TD*%
D41*
%TO.C,C67*%
X94912500Y-80000000D03*
X93087500Y-80000000D03*
%TD*%
D11*
%TO.C,R65*%
X105175000Y-134000000D03*
X106825000Y-134000000D03*
%TD*%
%TO.C,R25*%
X104675000Y-77000000D03*
X106325000Y-77000000D03*
%TD*%
D27*
%TO.C,Q1*%
X86149985Y-60949960D03*
X86149985Y-59050040D03*
X83850015Y-60000000D03*
%TD*%
D11*
%TO.C,R39*%
X106375000Y-98900000D03*
X108025000Y-98900000D03*
%TD*%
%TO.C,R35*%
X105675000Y-105000000D03*
X107325000Y-105000000D03*
%TD*%
%TO.C,R77*%
X96075000Y-128000000D03*
X94425000Y-128000000D03*
%TD*%
D19*
%TO.C,U4*%
X89300099Y-76949960D03*
X89300099Y-76000000D03*
X89300099Y-75050040D03*
X86699901Y-75050040D03*
X86699901Y-76949960D03*
%TD*%
D21*
%TO.C,D6*%
X114192402Y-130500000D03*
X110807598Y-130500000D03*
%TD*%
D13*
%TO.C,Q8*%
X109974606Y-111095000D03*
X109974606Y-112365000D03*
X109974606Y-113635000D03*
X109974606Y-114905000D03*
X116025394Y-114905000D03*
X116025394Y-113635000D03*
X116025394Y-112365000D03*
X116025394Y-111095000D03*
D14*
X113649986Y-113000000D03*
%TD*%
D10*
%TO.C,C82*%
X130000000Y-124825000D03*
X130000000Y-123175000D03*
%TD*%
D13*
%TO.C,Q12*%
X132574606Y-116695000D03*
X132574606Y-117965000D03*
X132574606Y-119235000D03*
X132574606Y-120505000D03*
X138625394Y-120505000D03*
X138625394Y-119235000D03*
X138625394Y-117965000D03*
X138625394Y-116695000D03*
D14*
X136249986Y-118600000D03*
%TD*%
D11*
%TO.C,R76*%
X77175000Y-131500000D03*
X78825000Y-131500000D03*
%TD*%
%TO.C,R48*%
X140375000Y-94300000D03*
X142025000Y-94300000D03*
%TD*%
%TO.C,C53*%
X104125000Y-105300000D03*
X102475000Y-105300000D03*
%TD*%
D10*
%TO.C,R97*%
X140500000Y-121325000D03*
X140500000Y-119675000D03*
%TD*%
D11*
%TO.C,R52*%
X129175000Y-118300000D03*
X130825000Y-118300000D03*
%TD*%
D66*
%TO.C,Q16*%
X106095000Y-70025394D03*
X107365000Y-70025394D03*
X108635000Y-70025394D03*
X109905000Y-70025394D03*
X109905000Y-63974606D03*
X108635000Y-63974606D03*
X107365000Y-63974606D03*
X106095000Y-63974606D03*
D67*
X108000000Y-66350014D03*
%TD*%
D25*
%TO.C,U19*%
X66095000Y-126099944D03*
X67365000Y-126099944D03*
X68635000Y-126099944D03*
X69905000Y-126099944D03*
X69905000Y-120900056D03*
X68635000Y-120900056D03*
X67365000Y-120900056D03*
X66095000Y-120900056D03*
%TD*%
D70*
%TO.C,U17*%
X85095000Y-129530092D03*
X86365000Y-129530092D03*
X87635000Y-129530092D03*
X88905000Y-129530092D03*
X88905000Y-122469908D03*
X87635000Y-122469908D03*
X86365000Y-122469908D03*
X85095000Y-122469908D03*
%TD*%
D10*
%TO.C,R121*%
X81000000Y-67675000D03*
X81000000Y-69325000D03*
%TD*%
D12*
%TO.C,TP_ENC_3V3*%
X90000000Y-135000000D03*
%TD*%
D10*
%TO.C,R114*%
X126000000Y-90825000D03*
X126000000Y-89175000D03*
%TD*%
D11*
%TO.C,R18*%
X81425000Y-94000000D03*
X83075000Y-94000000D03*
%TD*%
%TO.C,R34*%
X119425000Y-108000000D03*
X121075000Y-108000000D03*
%TD*%
D49*
%TO.C,R110*%
X138666288Y-106500000D03*
X132533712Y-106500000D03*
%TD*%
D11*
%TO.C,R94*%
X124325000Y-90500000D03*
X122675000Y-90500000D03*
%TD*%
D71*
%TO.C,U2*%
X74599952Y-78050034D03*
X74999748Y-78050034D03*
X75399798Y-78050034D03*
X75799848Y-78050034D03*
X76199898Y-78050034D03*
X76599948Y-78050034D03*
X76999744Y-78050034D03*
X77399794Y-78050034D03*
D72*
X78050034Y-77400048D03*
X78050034Y-76999998D03*
X78050034Y-76599948D03*
X78050034Y-76199898D03*
X78050034Y-75800102D03*
X78050034Y-75400052D03*
X78050034Y-75000002D03*
X78050034Y-74599952D03*
D71*
X77399794Y-73949966D03*
X76999744Y-73949966D03*
X76599948Y-73949966D03*
X76199898Y-73949966D03*
X75799848Y-73949966D03*
X75399798Y-73949966D03*
X74999748Y-73949966D03*
X74599952Y-73949966D03*
D72*
X73949966Y-74599952D03*
X73949966Y-75000002D03*
X73949966Y-75400052D03*
X73949966Y-75800102D03*
X73949966Y-76199898D03*
X73949966Y-76599948D03*
X73949966Y-76999998D03*
X73949966Y-77400048D03*
D73*
X76000000Y-76000000D03*
%TD*%
D11*
%TO.C,R46*%
X142025000Y-92100000D03*
X140375000Y-92100000D03*
%TD*%
%TO.C,R50*%
X129175000Y-120500000D03*
X130825000Y-120500000D03*
%TD*%
%TO.C,C93*%
X102175000Y-127000000D03*
X103825000Y-127000000D03*
%TD*%
D10*
%TO.C,C85*%
X103000000Y-95325000D03*
X103000000Y-93675000D03*
%TD*%
D21*
%TO.C,D10*%
X140692402Y-74000000D03*
X137307598Y-74000000D03*
%TD*%
D10*
%TO.C,R99*%
X140500000Y-98675000D03*
X140500000Y-100325000D03*
%TD*%
D74*
%TO.C,U25*%
X82949960Y-99699901D03*
X82000000Y-99699901D03*
X81050040Y-99699901D03*
X81050040Y-102300099D03*
X82949960Y-102300099D03*
%TD*%
D11*
%TO.C,R120*%
X72825000Y-109000000D03*
X71175000Y-109000000D03*
%TD*%
%TO.C,R71*%
X71675000Y-111500000D03*
X73325000Y-111500000D03*
%TD*%
D16*
%TO.C,Q24*%
X122999998Y-83949960D03*
X122999998Y-82050040D03*
X121000002Y-83000000D03*
%TD*%
D10*
%TO.C,C9*%
X82500000Y-67825000D03*
X82500000Y-66175000D03*
%TD*%
D59*
%TO.C,C5*%
X66000000Y-78712500D03*
X66000000Y-75787500D03*
%TD*%
D20*
%TO.C,C35*%
X130450000Y-99312500D03*
X130450000Y-97487500D03*
%TD*%
M02*
