%TF.GenerationSoftware,KiCad,Pcbnew,10.0.5*%
%TF.CreationDate,2026-10-06T19:19:32+05:30*%
%TF.ProjectId,pd1180-epr-r0.3,70643131-3830-42d6-9570-722d72302e33,rev?*%
%TF.SameCoordinates,Original*%
%TF.FileFunction,Profile,NP*%
%FSLAX46Y46*%
G04 Gerber Fmt 4.6, Leading zero omitted, Abs format (unit mm)*
G04 Created by KiCad (PCBNEW 10.0.5) date 2026-10-06 19:19:32*
%MOMM*%
%LPD*%
G01*
G04 APERTURE LIST*
%TA.AperFunction,Profile*%
%ADD10C,0.100000*%
%TD*%
G04 APERTURE END LIST*
D10*
X57050000Y-62950000D02*
X57050000Y-137050000D01*
X57050000Y-137050000D02*
X57050842Y-137149648D01*
X57050842Y-62850352D02*
X57050000Y-62950000D01*
X57050842Y-137149648D02*
X57053366Y-137249267D01*
X57053366Y-62750733D02*
X57050842Y-62850352D01*
X57053366Y-137249267D02*
X57057573Y-137348830D01*
X57057573Y-62651170D02*
X57053366Y-62750733D01*
X57057573Y-137348830D02*
X57063460Y-137448308D01*
X57063460Y-62551692D02*
X57057573Y-62651170D01*
X57063460Y-137448308D02*
X57071027Y-137547671D01*
X57071027Y-62452329D02*
X57063460Y-62551692D01*
X57071027Y-137547671D02*
X57080271Y-137646893D01*
X57080271Y-62353107D02*
X57071027Y-62452329D01*
X57080271Y-137646893D02*
X57091189Y-137745945D01*
X57091189Y-62254055D02*
X57080271Y-62353107D01*
X57091189Y-137745945D02*
X57103779Y-137844798D01*
X57103779Y-62155202D02*
X57091189Y-62254055D01*
X57103779Y-137844798D02*
X57118037Y-137943424D01*
X57118037Y-62056576D02*
X57103779Y-62155202D01*
X57118037Y-137943424D02*
X57133958Y-138041795D01*
X57133958Y-61958205D02*
X57118037Y-62056576D01*
X57133958Y-138041795D02*
X57151539Y-138139884D01*
X57151539Y-61860116D02*
X57133958Y-61958205D01*
X57151539Y-138139884D02*
X57170773Y-138237661D01*
X57170773Y-61762339D02*
X57151539Y-61860116D01*
X57170773Y-138237661D02*
X57191657Y-138335100D01*
X57191657Y-61664900D02*
X57170773Y-61762339D01*
X57191657Y-138335100D02*
X57214183Y-138432172D01*
X57214183Y-61567828D02*
X57191657Y-61664900D01*
X57214183Y-138432172D02*
X57238345Y-138528850D01*
X57238345Y-61471150D02*
X57214183Y-61567828D01*
X57238345Y-138528850D02*
X57264137Y-138625106D01*
X57264137Y-61374894D02*
X57238345Y-61471150D01*
X57264137Y-138625106D02*
X57291550Y-138720912D01*
X57291550Y-61279088D02*
X57264137Y-61374894D01*
X57291550Y-138720912D02*
X57320578Y-138816242D01*
X57320578Y-61183758D02*
X57291550Y-61279088D01*
X57320578Y-138816242D02*
X57351212Y-138911068D01*
X57351212Y-61088932D02*
X57320578Y-61183758D01*
X57351212Y-138911068D02*
X57383443Y-139005364D01*
X57383443Y-60994636D02*
X57351212Y-61088932D01*
X57383443Y-139005364D02*
X57417262Y-139099101D01*
X57417262Y-60900899D02*
X57383443Y-60994636D01*
X57417262Y-139099101D02*
X57452660Y-139192254D01*
X57452660Y-60807746D02*
X57417262Y-60900899D01*
X57452660Y-139192254D02*
X57489626Y-139284795D01*
X57489626Y-60715205D02*
X57452660Y-60807746D01*
X57489626Y-139284795D02*
X57528149Y-139376700D01*
X57528149Y-60623300D02*
X57489626Y-60715205D01*
X57528149Y-139376700D02*
X57568219Y-139467940D01*
X57568219Y-60532060D02*
X57528149Y-60623300D01*
X57568219Y-139467940D02*
X57609824Y-139558491D01*
X57609824Y-60441509D02*
X57568219Y-60532060D01*
X57609824Y-139558491D02*
X57652953Y-139648325D01*
X57652953Y-60351675D02*
X57609824Y-60441509D01*
X57652953Y-139648325D02*
X57697593Y-139737419D01*
X57697593Y-60262581D02*
X57652953Y-60351675D01*
X57697593Y-139737419D02*
X57743731Y-139825746D01*
X57743731Y-60174254D02*
X57697593Y-60262581D01*
X57743731Y-139825746D02*
X57791355Y-139913282D01*
X57791355Y-60086718D02*
X57743731Y-60174254D01*
X57791355Y-139913282D02*
X57840450Y-140000000D01*
X57840450Y-60000000D02*
X57791355Y-60086718D01*
X57840450Y-140000000D02*
X57891003Y-140085877D01*
X57891003Y-59914123D02*
X57840450Y-60000000D01*
X57891003Y-140085877D02*
X57942999Y-140170888D01*
X57942999Y-59829112D02*
X57891003Y-59914123D01*
X57942999Y-140170888D02*
X57996423Y-140255008D01*
X57996423Y-59744992D02*
X57942999Y-59829112D01*
X57996423Y-140255008D02*
X58051261Y-140338214D01*
X58051261Y-59661786D02*
X57996423Y-59744992D01*
X58051261Y-140338214D02*
X58107496Y-140420482D01*
X58107496Y-59579518D02*
X58051261Y-59661786D01*
X58107496Y-140420482D02*
X58165112Y-140501789D01*
X58165112Y-59498211D02*
X58107496Y-59579518D01*
X58165112Y-140501789D02*
X58224094Y-140582111D01*
X58224094Y-59417889D02*
X58165112Y-59498211D01*
X58224094Y-140582111D02*
X58284423Y-140661425D01*
X58284423Y-59338575D02*
X58224094Y-59417889D01*
X58284423Y-140661425D02*
X58346084Y-140739709D01*
X58346084Y-59260291D02*
X58284423Y-59338575D01*
X58346084Y-140739709D02*
X58409058Y-140816941D01*
X58409058Y-59183059D02*
X58346084Y-59260291D01*
X58409058Y-140816941D02*
X58473327Y-140893098D01*
X58473327Y-59106902D02*
X58409058Y-59183059D01*
X58473327Y-140893098D02*
X58538874Y-140968158D01*
X58538874Y-59031842D02*
X58473327Y-59106902D01*
X58538874Y-140968158D02*
X58605678Y-141042101D01*
X58605678Y-58957899D02*
X58538874Y-59031842D01*
X58605678Y-141042101D02*
X58673723Y-141114905D01*
X58673723Y-58885095D02*
X58605678Y-58957899D01*
X58673723Y-141114905D02*
X58742987Y-141186549D01*
X58742987Y-58813451D02*
X58673723Y-58885095D01*
X58742987Y-141186549D02*
X58813451Y-141257013D01*
X58813451Y-58742987D02*
X58742987Y-58813451D01*
X58813451Y-141257013D02*
X58885095Y-141326277D01*
X58885095Y-58673723D02*
X58813451Y-58742987D01*
X58885095Y-141326277D02*
X58957899Y-141394322D01*
X58957899Y-58605678D02*
X58885095Y-58673723D01*
X58957899Y-141394322D02*
X59031842Y-141461126D01*
X59031842Y-58538874D02*
X58957899Y-58605678D01*
X59031842Y-141461126D02*
X59106902Y-141526673D01*
X59106902Y-58473327D02*
X59031842Y-58538874D01*
X59106902Y-141526673D02*
X59183059Y-141590942D01*
X59183059Y-58409058D02*
X59106902Y-58473327D01*
X59183059Y-141590942D02*
X59260291Y-141653916D01*
X59260291Y-58346084D02*
X59183059Y-58409058D01*
X59260291Y-141653916D02*
X59338575Y-141715577D01*
X59338575Y-58284423D02*
X59260291Y-58346084D01*
X59338575Y-141715577D02*
X59417889Y-141775906D01*
X59417889Y-58224094D02*
X59338575Y-58284423D01*
X59417889Y-141775906D02*
X59498211Y-141834888D01*
X59498211Y-58165112D02*
X59417889Y-58224094D01*
X59498211Y-141834888D02*
X59579518Y-141892504D01*
X59579518Y-58107496D02*
X59498211Y-58165112D01*
X59579518Y-141892504D02*
X59661786Y-141948739D01*
X59661786Y-58051261D02*
X59579518Y-58107496D01*
X59661786Y-141948739D02*
X59744992Y-142003577D01*
X59744992Y-57996423D02*
X59661786Y-58051261D01*
X59744992Y-142003577D02*
X59829112Y-142057001D01*
X59829112Y-57942999D02*
X59744992Y-57996423D01*
X59829112Y-142057001D02*
X59914123Y-142108997D01*
X59914123Y-57891003D02*
X59829112Y-57942999D01*
X59914123Y-142108997D02*
X60000000Y-142159550D01*
X60000000Y-57840450D02*
X59914123Y-57891003D01*
X60000000Y-142159550D02*
X60086718Y-142208645D01*
X60086718Y-57791355D02*
X60000000Y-57840450D01*
X60086718Y-142208645D02*
X60174254Y-142256269D01*
X60174254Y-57743731D02*
X60086718Y-57791355D01*
X60174254Y-142256269D02*
X60262581Y-142302407D01*
X60262581Y-57697593D02*
X60174254Y-57743731D01*
X60262581Y-142302407D02*
X60351675Y-142347047D01*
X60351675Y-57652953D02*
X60262581Y-57697593D01*
X60351675Y-142347047D02*
X60441509Y-142390176D01*
X60441509Y-57609824D02*
X60351675Y-57652953D01*
X60441509Y-142390176D02*
X60532060Y-142431781D01*
X60532060Y-57568219D02*
X60441509Y-57609824D01*
X60532060Y-142431781D02*
X60623300Y-142471851D01*
X60623300Y-57528149D02*
X60532060Y-57568219D01*
X60623300Y-142471851D02*
X60715205Y-142510374D01*
X60715205Y-57489626D02*
X60623300Y-57528149D01*
X60715205Y-142510374D02*
X60807746Y-142547340D01*
X60807746Y-57452660D02*
X60715205Y-57489626D01*
X60807746Y-142547340D02*
X60900899Y-142582738D01*
X60900899Y-57417262D02*
X60807746Y-57452660D01*
X60900899Y-142582738D02*
X60994636Y-142616557D01*
X60994636Y-57383443D02*
X60900899Y-57417262D01*
X60994636Y-142616557D02*
X61088932Y-142648788D01*
X61088932Y-57351212D02*
X60994636Y-57383443D01*
X61088932Y-142648788D02*
X61183758Y-142679422D01*
X61183758Y-57320578D02*
X61088932Y-57351212D01*
X61183758Y-142679422D02*
X61279088Y-142708450D01*
X61279088Y-57291550D02*
X61183758Y-57320578D01*
X61279088Y-142708450D02*
X61374894Y-142735863D01*
X61374894Y-57264137D02*
X61279088Y-57291550D01*
X61374894Y-142735863D02*
X61471150Y-142761655D01*
X61471150Y-57238345D02*
X61374894Y-57264137D01*
X61471150Y-142761655D02*
X61567828Y-142785817D01*
X61567828Y-57214183D02*
X61471150Y-57238345D01*
X61567828Y-142785817D02*
X61664900Y-142808343D01*
X61664900Y-57191657D02*
X61567828Y-57214183D01*
X61664900Y-142808343D02*
X61762339Y-142829227D01*
X61762339Y-57170773D02*
X61664900Y-57191657D01*
X61762339Y-142829227D02*
X61860116Y-142848461D01*
X61860116Y-57151539D02*
X61762339Y-57170773D01*
X61860116Y-142848461D02*
X61958205Y-142866042D01*
X61958205Y-57133958D02*
X61860116Y-57151539D01*
X61958205Y-142866042D02*
X62056576Y-142881963D01*
X62056576Y-57118037D02*
X61958205Y-57133958D01*
X62056576Y-142881963D02*
X62155202Y-142896221D01*
X62155202Y-57103779D02*
X62056576Y-57118037D01*
X62155202Y-142896221D02*
X62254055Y-142908811D01*
X62254055Y-57091189D02*
X62155202Y-57103779D01*
X62254055Y-142908811D02*
X62353107Y-142919729D01*
X62353107Y-57080271D02*
X62254055Y-57091189D01*
X62353107Y-142919729D02*
X62452329Y-142928973D01*
X62452329Y-57071027D02*
X62353107Y-57080271D01*
X62452329Y-142928973D02*
X62551692Y-142936540D01*
X62551692Y-57063460D02*
X62452329Y-57071027D01*
X62551692Y-142936540D02*
X62651170Y-142942427D01*
X62651170Y-57057573D02*
X62551692Y-57063460D01*
X62651170Y-142942427D02*
X62750733Y-142946634D01*
X62750733Y-57053366D02*
X62651170Y-57057573D01*
X62750733Y-142946634D02*
X62850352Y-142949158D01*
X62850352Y-57050842D02*
X62750733Y-57053366D01*
X62850352Y-142949158D02*
X62950000Y-142950000D01*
X62950000Y-57050000D02*
X62850352Y-57050842D01*
X62950000Y-142950000D02*
X137050000Y-142950000D01*
X137050000Y-57050000D02*
X62950000Y-57050000D01*
X137050000Y-142950000D02*
X137149648Y-142949158D01*
X137149648Y-57050842D02*
X137050000Y-57050000D01*
X137149648Y-142949158D02*
X137249267Y-142946634D01*
X137249267Y-57053366D02*
X137149648Y-57050842D01*
X137249267Y-142946634D02*
X137348830Y-142942427D01*
X137348830Y-57057573D02*
X137249267Y-57053366D01*
X137348830Y-142942427D02*
X137448308Y-142936540D01*
X137448308Y-57063460D02*
X137348830Y-57057573D01*
X137448308Y-142936540D02*
X137547671Y-142928973D01*
X137547671Y-57071027D02*
X137448308Y-57063460D01*
X137547671Y-142928973D02*
X137646893Y-142919729D01*
X137646893Y-57080271D02*
X137547671Y-57071027D01*
X137646893Y-142919729D02*
X137745945Y-142908811D01*
X137745945Y-57091189D02*
X137646893Y-57080271D01*
X137745945Y-142908811D02*
X137844798Y-142896221D01*
X137844798Y-57103779D02*
X137745945Y-57091189D01*
X137844798Y-142896221D02*
X137943424Y-142881963D01*
X137943424Y-57118037D02*
X137844798Y-57103779D01*
X137943424Y-142881963D02*
X138041795Y-142866042D01*
X138041795Y-57133958D02*
X137943424Y-57118037D01*
X138041795Y-142866042D02*
X138139884Y-142848461D01*
X138139884Y-57151539D02*
X138041795Y-57133958D01*
X138139884Y-142848461D02*
X138237661Y-142829227D01*
X138237661Y-57170773D02*
X138139884Y-57151539D01*
X138237661Y-142829227D02*
X138335100Y-142808343D01*
X138335100Y-57191657D02*
X138237661Y-57170773D01*
X138335100Y-142808343D02*
X138432172Y-142785817D01*
X138432172Y-57214183D02*
X138335100Y-57191657D01*
X138432172Y-142785817D02*
X138528850Y-142761655D01*
X138528850Y-57238345D02*
X138432172Y-57214183D01*
X138528850Y-142761655D02*
X138625106Y-142735863D01*
X138625106Y-57264137D02*
X138528850Y-57238345D01*
X138625106Y-142735863D02*
X138720912Y-142708450D01*
X138720912Y-57291550D02*
X138625106Y-57264137D01*
X138720912Y-142708450D02*
X138816242Y-142679422D01*
X138816242Y-57320578D02*
X138720912Y-57291550D01*
X138816242Y-142679422D02*
X138911068Y-142648788D01*
X138911068Y-57351212D02*
X138816242Y-57320578D01*
X138911068Y-142648788D02*
X139005364Y-142616557D01*
X139005364Y-57383443D02*
X138911068Y-57351212D01*
X139005364Y-142616557D02*
X139099101Y-142582738D01*
X139099101Y-57417262D02*
X139005364Y-57383443D01*
X139099101Y-142582738D02*
X139192254Y-142547340D01*
X139192254Y-57452660D02*
X139099101Y-57417262D01*
X139192254Y-142547340D02*
X139284795Y-142510374D01*
X139284795Y-57489626D02*
X139192254Y-57452660D01*
X139284795Y-142510374D02*
X139376700Y-142471851D01*
X139376700Y-57528149D02*
X139284795Y-57489626D01*
X139376700Y-142471851D02*
X139467940Y-142431781D01*
X139467940Y-57568219D02*
X139376700Y-57528149D01*
X139467940Y-142431781D02*
X139558491Y-142390176D01*
X139558491Y-57609824D02*
X139467940Y-57568219D01*
X139558491Y-142390176D02*
X139648325Y-142347047D01*
X139648325Y-57652953D02*
X139558491Y-57609824D01*
X139648325Y-142347047D02*
X139737419Y-142302407D01*
X139737419Y-57697593D02*
X139648325Y-57652953D01*
X139737419Y-142302407D02*
X139825746Y-142256269D01*
X139825746Y-57743731D02*
X139737419Y-57697593D01*
X139825746Y-142256269D02*
X139913282Y-142208645D01*
X139913282Y-57791355D02*
X139825746Y-57743731D01*
X139913282Y-142208645D02*
X140000000Y-142159550D01*
X140000000Y-57840450D02*
X139913282Y-57791355D01*
X140000000Y-142159550D02*
X140085877Y-142108997D01*
X140085877Y-57891003D02*
X140000000Y-57840450D01*
X140085877Y-142108997D02*
X140170888Y-142057001D01*
X140170888Y-57942999D02*
X140085877Y-57891003D01*
X140170888Y-142057001D02*
X140255008Y-142003577D01*
X140255008Y-57996423D02*
X140170888Y-57942999D01*
X140255008Y-142003577D02*
X140338214Y-141948739D01*
X140338214Y-58051261D02*
X140255008Y-57996423D01*
X140338214Y-141948739D02*
X140420482Y-141892504D01*
X140420482Y-58107496D02*
X140338214Y-58051261D01*
X140420482Y-141892504D02*
X140501789Y-141834888D01*
X140501789Y-58165112D02*
X140420482Y-58107496D01*
X140501789Y-141834888D02*
X140582111Y-141775906D01*
X140582111Y-58224094D02*
X140501789Y-58165112D01*
X140582111Y-141775906D02*
X140661425Y-141715577D01*
X140661425Y-58284423D02*
X140582111Y-58224094D01*
X140661425Y-141715577D02*
X140739709Y-141653916D01*
X140739709Y-58346084D02*
X140661425Y-58284423D01*
X140739709Y-141653916D02*
X140816941Y-141590942D01*
X140816941Y-58409058D02*
X140739709Y-58346084D01*
X140816941Y-141590942D02*
X140893098Y-141526673D01*
X140893098Y-58473327D02*
X140816941Y-58409058D01*
X140893098Y-141526673D02*
X140968158Y-141461126D01*
X140968158Y-58538874D02*
X140893098Y-58473327D01*
X140968158Y-141461126D02*
X141042101Y-141394322D01*
X141042101Y-58605678D02*
X140968158Y-58538874D01*
X141042101Y-141394322D02*
X141114905Y-141326277D01*
X141114905Y-58673723D02*
X141042101Y-58605678D01*
X141114905Y-141326277D02*
X141186549Y-141257013D01*
X141186549Y-58742987D02*
X141114905Y-58673723D01*
X141186549Y-141257013D02*
X141257013Y-141186549D01*
X141257013Y-58813451D02*
X141186549Y-58742987D01*
X141257013Y-141186549D02*
X141326277Y-141114905D01*
X141326277Y-58885095D02*
X141257013Y-58813451D01*
X141326277Y-141114905D02*
X141394322Y-141042101D01*
X141394322Y-58957899D02*
X141326277Y-58885095D01*
X141394322Y-141042101D02*
X141461126Y-140968158D01*
X141461126Y-59031842D02*
X141394322Y-58957899D01*
X141461126Y-140968158D02*
X141526673Y-140893098D01*
X141526673Y-59106902D02*
X141461126Y-59031842D01*
X141526673Y-140893098D02*
X141590942Y-140816941D01*
X141590942Y-59183059D02*
X141526673Y-59106902D01*
X141590942Y-140816941D02*
X141653916Y-140739709D01*
X141653916Y-59260291D02*
X141590942Y-59183059D01*
X141653916Y-140739709D02*
X141715577Y-140661425D01*
X141715577Y-59338575D02*
X141653916Y-59260291D01*
X141715577Y-140661425D02*
X141775906Y-140582111D01*
X141775906Y-59417889D02*
X141715577Y-59338575D01*
X141775906Y-140582111D02*
X141834888Y-140501789D01*
X141834888Y-59498211D02*
X141775906Y-59417889D01*
X141834888Y-140501789D02*
X141892504Y-140420482D01*
X141892504Y-59579518D02*
X141834888Y-59498211D01*
X141892504Y-140420482D02*
X141948739Y-140338214D01*
X141948739Y-59661786D02*
X141892504Y-59579518D01*
X141948739Y-140338214D02*
X142003577Y-140255008D01*
X142003577Y-59744992D02*
X141948739Y-59661786D01*
X142003577Y-140255008D02*
X142057001Y-140170888D01*
X142057001Y-59829112D02*
X142003577Y-59744992D01*
X142057001Y-140170888D02*
X142108997Y-140085877D01*
X142108997Y-59914123D02*
X142057001Y-59829112D01*
X142108997Y-140085877D02*
X142159550Y-140000000D01*
X142159550Y-60000000D02*
X142108997Y-59914123D01*
X142159550Y-140000000D02*
X142208645Y-139913282D01*
X142208645Y-60086718D02*
X142159550Y-60000000D01*
X142208645Y-139913282D02*
X142256269Y-139825746D01*
X142256269Y-60174254D02*
X142208645Y-60086718D01*
X142256269Y-139825746D02*
X142302407Y-139737419D01*
X142302407Y-60262581D02*
X142256269Y-60174254D01*
X142302407Y-139737419D02*
X142347047Y-139648325D01*
X142347047Y-60351675D02*
X142302407Y-60262581D01*
X142347047Y-139648325D02*
X142390176Y-139558491D01*
X142390176Y-60441509D02*
X142347047Y-60351675D01*
X142390176Y-139558491D02*
X142431781Y-139467940D01*
X142431781Y-60532060D02*
X142390176Y-60441509D01*
X142431781Y-139467940D02*
X142471851Y-139376700D01*
X142471851Y-60623300D02*
X142431781Y-60532060D01*
X142471851Y-139376700D02*
X142510374Y-139284795D01*
X142510374Y-60715205D02*
X142471851Y-60623300D01*
X142510374Y-139284795D02*
X142547340Y-139192254D01*
X142547340Y-60807746D02*
X142510374Y-60715205D01*
X142547340Y-139192254D02*
X142582738Y-139099101D01*
X142582738Y-60900899D02*
X142547340Y-60807746D01*
X142582738Y-139099101D02*
X142616557Y-139005364D01*
X142616557Y-60994636D02*
X142582738Y-60900899D01*
X142616557Y-139005364D02*
X142648788Y-138911068D01*
X142648788Y-61088932D02*
X142616557Y-60994636D01*
X142648788Y-138911068D02*
X142679422Y-138816242D01*
X142679422Y-61183758D02*
X142648788Y-61088932D01*
X142679422Y-138816242D02*
X142708450Y-138720912D01*
X142708450Y-61279088D02*
X142679422Y-61183758D01*
X142708450Y-138720912D02*
X142735863Y-138625106D01*
X142735863Y-61374894D02*
X142708450Y-61279088D01*
X142735863Y-138625106D02*
X142761655Y-138528850D01*
X142761655Y-61471150D02*
X142735863Y-61374894D01*
X142761655Y-138528850D02*
X142785817Y-138432172D01*
X142785817Y-61567828D02*
X142761655Y-61471150D01*
X142785817Y-138432172D02*
X142808343Y-138335100D01*
X142808343Y-61664900D02*
X142785817Y-61567828D01*
X142808343Y-138335100D02*
X142829227Y-138237661D01*
X142829227Y-61762339D02*
X142808343Y-61664900D01*
X142829227Y-138237661D02*
X142848461Y-138139884D01*
X142848461Y-61860116D02*
X142829227Y-61762339D01*
X142848461Y-138139884D02*
X142866042Y-138041795D01*
X142866042Y-61958205D02*
X142848461Y-61860116D01*
X142866042Y-138041795D02*
X142881963Y-137943424D01*
X142881963Y-62056576D02*
X142866042Y-61958205D01*
X142881963Y-137943424D02*
X142896221Y-137844798D01*
X142896221Y-62155202D02*
X142881963Y-62056576D01*
X142896221Y-137844798D02*
X142908811Y-137745945D01*
X142908811Y-62254055D02*
X142896221Y-62155202D01*
X142908811Y-137745945D02*
X142919729Y-137646893D01*
X142919729Y-62353107D02*
X142908811Y-62254055D01*
X142919729Y-137646893D02*
X142928973Y-137547671D01*
X142928973Y-62452329D02*
X142919729Y-62353107D01*
X142928973Y-137547671D02*
X142936540Y-137448308D01*
X142936540Y-62551692D02*
X142928973Y-62452329D01*
X142936540Y-137448308D02*
X142942427Y-137348830D01*
X142942427Y-62651170D02*
X142936540Y-62551692D01*
X142942427Y-137348830D02*
X142946634Y-137249267D01*
X142946634Y-62750733D02*
X142942427Y-62651170D01*
X142946634Y-137249267D02*
X142949158Y-137149648D01*
X142949158Y-62850352D02*
X142946634Y-62750733D01*
X142949158Y-137149648D02*
X142950000Y-137050000D01*
X142950000Y-62950000D02*
X142949158Y-62850352D01*
X142950000Y-137050000D02*
X142950000Y-62950000D01*
M02*
