M48
; DRILL file KiCad 10.0.5 date 2026-10-06T16:54:32
; FORMAT={-:-/ absolute / metric / decimal}
; #@! TF.CreationDate,2026-10-06T16:54:32+05:30
; #@! TF.GenerationSoftware,Kicad,Pcbnew,10.0.5
; #@! TF.FileFunction,Plated,1,4,PTH
FMAT,2
METRIC
; #@! TA.AperFunction,Plated,PTH,ViaDrill
T1C0.200
; #@! TA.AperFunction,Plated,PTH,ViaDrill
T2C0.300
; #@! TA.AperFunction,Plated,PTH,ViaDrill
T3C0.304
; #@! TA.AperFunction,Plated,PTH,ComponentDrill
T4C0.700
; #@! TA.AperFunction,Plated,PTH,ComponentDrill
T5C0.900
; #@! TA.AperFunction,Plated,PTH,ComponentDrill
T6C1.000
; #@! TA.AperFunction,Plated,PTH,ComponentDrill
T7C1.200
; #@! TA.AperFunction,Plated,PTH,ComponentDrill
T8C1.800
%
G90
G05
T1
X66.11Y-69.25
X76.184Y-77.7
X89.437Y-60.74
X92.635Y-70.025
X99.5Y-78.5
X101.9Y-130.577
X102.2Y-127.5
X105.475Y-121.175
X112.1Y-136.101
X116.153Y-131.577
T2
X58.081Y-100.855
X58.714Y-103.134
X59.753Y-98.978
X60.972Y-80.211
X61.642Y-96.76
X61.791Y-78.135
X61.876Y-92.443
X61.913Y-111.762
X61.915Y-106.449
X62.0Y-112.667
X62.325Y-103.654
X62.342Y-96.053
X63.0Y-108.913
X63.221Y-77.453
X63.325Y-82.38
X63.33Y-78.67
X63.37Y-99.786
X63.517Y-75.933
X63.673Y-78.004
X63.809Y-110.364
X64.373Y-67.34
X64.374Y-79.4
X64.395Y-105.915
X64.956Y-111.392
X65.0Y-94.666
X65.106Y-65.516
X65.175Y-82.395
X65.435Y-109.395
X65.774Y-80.574
X66.14Y-109.124
X66.325Y-111.602
X66.798Y-101.193
X67.036Y-121.056
X67.344Y-94.696
X67.365Y-126.793
X67.392Y-76.173
X67.436Y-87.431
X67.445Y-67.257
X67.641Y-74.689
X67.825Y-97.615
X67.839Y-79.513
X68.045Y-101.196
X68.185Y-121.334
X68.308Y-77.712
X68.365Y-76.684
X68.478Y-67.927
X68.749Y-75.923
X68.816Y-75.17
X68.978Y-78.187
X68.99Y-100.885
X69.57Y-111.772
X69.584Y-117.835
X70.074Y-114.429
X70.077Y-75.979
X70.332Y-130.047
X70.566Y-81.7
X70.649Y-107.99
X70.876Y-83.31
X71.075Y-76.37
X71.102Y-127.096
X71.237Y-71.0
X71.399Y-130.314
X71.635Y-79.75
X72.186Y-75.938
X72.444Y-113.807
X72.697Y-120.0
X72.828Y-88.123
X72.912Y-126.402
X73.0Y-100.932
X73.109Y-81.814
X73.146Y-72.893
X73.151Y-103.325
X73.191Y-76.502
X73.192Y-75.399
X73.194Y-77.292
X73.25Y-123.237
X73.279Y-117.624
X73.292Y-98.735
X73.57Y-110.699
X73.694Y-74.092
X73.742Y-108.773
X74.068Y-103.129
X74.457Y-114.083
X74.523Y-113.034
X74.725Y-73.102
X75.29Y-78.901
X75.409Y-124.641
X75.425Y-64.377
X75.428Y-121.312
X75.757Y-103.382
X75.912Y-89.113
X75.918Y-107.963
X76.0Y-82.377
X76.06Y-108.709
X76.101Y-126.437
X76.373Y-120.006
X76.6Y-78.806
X76.754Y-73.084
X76.766Y-65.121
X76.779Y-67.027
X77.036Y-112.449
X77.251Y-110.052
X77.254Y-111.111
X77.274Y-114.406
X77.318Y-71.0
X77.355Y-78.81
X77.678Y-109.468
X78.031Y-106.329
X78.097Y-78.89
X78.122Y-72.943
X78.184Y-121.779
X78.203Y-126.83
X78.357Y-111.196
X78.365Y-119.983
X78.5Y-80.248
X78.765Y-108.904
X78.836Y-112.407
X78.873Y-76.559
X79.155Y-110.819
X79.24Y-121.395
X79.303Y-106.585
X79.316Y-91.093
X79.54Y-77.989
X79.653Y-131.6
X79.688Y-77.17
X79.912Y-89.122
X80.135Y-81.938
X80.183Y-79.883
X80.25Y-121.341
X80.257Y-112.558
X80.274Y-114.27
X80.605Y-123.21
X80.75Y-106.589
X80.775Y-62.215
X81.017Y-74.128
X81.131Y-109.373
X81.153Y-96.608
X81.163Y-94.551
X81.351Y-77.358
X81.397Y-110.756
X81.479Y-113.775
X81.696Y-115.082
X81.958Y-86.664
X81.985Y-74.39
X82.138Y-120.102
X82.186Y-129.689
X82.34Y-93.602
X82.35Y-77.036
X82.365Y-109.869
X82.38Y-113.179
X82.553Y-126.909
X82.59Y-73.185
X82.607Y-117.722
X82.627Y-96.391
X82.639Y-80.149
X82.75Y-123.25
X83.004Y-111.186
X83.005Y-72.524
X83.087Y-114.279
X83.1Y-106.635
X83.425Y-116.914
X83.605Y-67.9
X83.608Y-63.4
X83.994Y-106.383
X84.275Y-115.636
X84.357Y-118.117
X84.527Y-79.216
X84.863Y-81.363
X85.0Y-91.661
X85.004Y-86.222
X85.023Y-119.061
X85.088Y-117.397
X85.138Y-96.702
X85.223Y-115.58
X85.44Y-105.124
X85.447Y-114.304
X85.488Y-84.236
X85.495Y-109.43
X85.686Y-113.351
X85.721Y-128.331
X85.745Y-75.279
X85.796Y-111.144
X85.946Y-76.214
X86.16Y-107.329
X86.346Y-112.972
X87.075Y-128.069
X87.216Y-110.924
X87.242Y-89.076
X87.489Y-61.29
X87.502Y-113.942
X87.574Y-127.201
X87.665Y-86.466
X87.678Y-92.073
X87.903Y-116.145
X87.919Y-119.87
X88.0Y-78.629
X88.118Y-82.179
X88.142Y-88.176
X88.142Y-89.076
X88.34Y-75.341
X88.355Y-96.684
X88.537Y-59.84
X88.537Y-60.74
X88.564Y-99.648
X88.825Y-73.877
X89.042Y-89.076
X89.147Y-109.611
X89.185Y-108.657
X89.218Y-131.643
X89.437Y-59.84
X89.645Y-129.403
X89.902Y-112.928
X90.065Y-93.929
X90.151Y-94.675
X90.316Y-109.705
X90.354Y-115.182
X90.462Y-91.743
X90.6Y-64.95
X90.6Y-65.85
X90.6Y-66.85
X90.752Y-119.852
X91.093Y-97.03
X91.5Y-64.95
X91.5Y-67.75
X91.735Y-70.025
X91.735Y-70.925
X92.0Y-112.956
X92.175Y-74.12
X92.192Y-106.519
X92.4Y-67.75
X92.5Y-64.95
X92.635Y-69.125
X92.683Y-126.879
X93.0Y-75.146
X93.087Y-78.888
X93.215Y-121.883
X93.261Y-111.414
X93.4Y-65.85
X93.4Y-66.75
X93.4Y-67.75
X94.057Y-73.903
X94.062Y-100.628
X94.628Y-77.103
X94.644Y-127.757
X94.816Y-74.509
X94.912Y-91.126
X94.918Y-111.414
X95.0Y-119.247
X95.048Y-129.776
X95.13Y-92.098
X95.833Y-108.513
X95.835Y-103.956
X95.837Y-73.927
X96.015Y-71.225
X96.133Y-62.543
X96.296Y-70.309
X96.325Y-134.897
X96.338Y-112.893
X96.339Y-109.739
X96.34Y-113.98
X96.708Y-75.966
X96.797Y-123.744
X96.927Y-106.125
X97.0Y-132.703
X97.151Y-94.743
X97.325Y-73.895
X97.584Y-124.546
X97.594Y-95.901
X97.827Y-105.225
X97.827Y-106.125
X98.034Y-118.817
X98.093Y-95.251
X98.132Y-77.06
X98.145Y-75.493
X98.175Y-134.889
X98.56Y-107.746
X98.7Y-95.946
X98.727Y-105.225
X98.804Y-101.481
X98.912Y-78.896
X98.95Y-130.232
X99.026Y-114.901
X99.107Y-93.514
X99.196Y-77.403
X99.85Y-80.814
X99.897Y-99.953
X99.985Y-109.736
X100.0Y-111.845
X100.0Y-121.371
X100.001Y-85.154
X100.023Y-88.246
X100.134Y-101.412
X100.332Y-104.062
X100.4Y-79.4
X100.534Y-82.0
X100.561Y-77.99
X100.671Y-114.995
X100.68Y-69.2
X100.781Y-122.558
X100.838Y-125.839
X101.148Y-95.162
X101.152Y-104.171
X101.283Y-88.521
X101.334Y-72.279
X101.34Y-79.913
X101.538Y-101.159
X101.64Y-118.212
X101.794Y-92.418
X101.797Y-106.047
X101.797Y-110.965
X101.858Y-95.872
X101.915Y-70.099
X102.042Y-94.75
X102.044Y-107.237
X102.178Y-77.724
X102.236Y-108.889
X102.251Y-104.075
X102.389Y-94.083
X102.5Y-133.309
X102.523Y-85.024
X102.582Y-72.311
X102.596Y-96.03
X102.596Y-116.229
X102.597Y-93.231
X102.683Y-98.066
X102.707Y-124.23
X102.932Y-76.922
X103.215Y-100.923
X103.254Y-106.261
X103.34Y-73.186
X103.39Y-103.254
X103.425Y-113.877
X103.455Y-99.58
X103.701Y-75.75
X103.817Y-72.588
X103.837Y-121.885
X104.01Y-89.594
X104.04Y-98.608
X104.163Y-85.154
X104.218Y-109.196
X104.273Y-106.757
X104.373Y-88.371
X104.452Y-110.111
X104.513Y-87.341
X104.675Y-76.114
X104.69Y-91.303
X104.699Y-99.676
X104.872Y-71.602
X104.923Y-104.12
X104.958Y-80.321
X104.975Y-89.335
X105.012Y-93.805
X105.015Y-96.278
X105.016Y-92.883
X105.092Y-94.808
X105.257Y-130.0
X105.264Y-126.034
X105.368Y-87.906
X105.522Y-72.7
X105.539Y-106.432
X105.615Y-103.012
X105.626Y-77.756
X105.753Y-108.108
X105.867Y-88.937
X105.873Y-116.76
X106.003Y-105.332
X106.095Y-71.103
X106.11Y-75.884
X106.137Y-114.952
X106.236Y-112.19
X106.598Y-125.67
X106.64Y-78.736
X106.75Y-88.181
X106.955Y-106.058
X107.117Y-82.777
X107.481Y-76.249
X107.5Y-64.95
X107.5Y-67.75
X107.732Y-104.297
X107.747Y-89.591
X107.855Y-102.258
X107.893Y-87.143
X108.051Y-110.717
X108.051Y-115.588
X108.31Y-78.034
X108.352Y-85.102
X108.4Y-64.95
X108.5Y-67.75
X108.5Y-78.961
X108.635Y-71.093
X109.0Y-72.659
X109.016Y-134.903
X109.228Y-126.439
X109.384Y-119.086
X109.4Y-64.95
X109.4Y-65.85
X109.4Y-66.85
X109.4Y-67.75
X109.563Y-78.103
X109.673Y-117.067
X109.759Y-113.933
X109.77Y-112.799
X110.031Y-130.05
X110.04Y-80.113
X110.043Y-125.791
X110.178Y-102.689
X110.353Y-101.61
X110.356Y-124.758
X110.369Y-89.595
X110.471Y-86.801
X110.707Y-69.476
X110.906Y-92.545
X110.907Y-94.993
X110.911Y-95.71
X110.95Y-94.288
X110.992Y-97.102
X111.017Y-126.171
X111.259Y-121.641
X111.268Y-73.278
X111.268Y-87.679
X111.277Y-123.121
X111.297Y-99.747
X111.307Y-91.357
X111.409Y-89.291
X111.549Y-98.311
X111.787Y-90.098
X111.845Y-114.895
X112.302Y-107.889
X112.398Y-131.758
X112.427Y-67.34
X112.51Y-99.03
X112.744Y-101.822
X112.746Y-98.294
X113.001Y-104.143
X113.017Y-133.809
X113.353Y-91.434
X113.353Y-111.875
X114.057Y-91.055
X114.141Y-96.785
X114.6Y-81.95
X114.6Y-82.95
X114.6Y-83.85
X114.6Y-113.95
X114.6Y-114.85
X114.918Y-94.433
X115.0Y-75.635
X115.033Y-129.851
X115.5Y-81.95
X115.665Y-97.447
X115.725Y-88.61
X116.0Y-67.882
X116.4Y-81.95
X116.688Y-91.912
X117.4Y-81.95
X117.4Y-82.95
X117.4Y-83.85
X117.4Y-105.85
X117.4Y-106.75
X117.4Y-113.95
X117.4Y-114.95
X117.4Y-115.85
X117.634Y-66.825
X118.07Y-101.954
X118.1Y-90.95
X118.25Y-133.541
X118.714Y-118.643
X118.719Y-110.554
X118.85Y-70.599
X119.0Y-90.95
X119.079Y-97.625
X119.614Y-119.543
X119.9Y-90.95
X119.979Y-96.725
X119.979Y-97.625
X119.979Y-98.525
X120.0Y-71.385
X120.0Y-93.75
X120.0Y-133.541
X120.053Y-129.95
X120.783Y-101.793
X120.849Y-108.946
X120.849Y-112.083
X120.9Y-90.95
X120.9Y-93.75
X121.712Y-128.386
X122.239Y-130.234
X122.34Y-93.671
X122.6Y-106.95
X122.6Y-107.85
X122.6Y-108.75
X122.6Y-115.85
X122.6Y-116.75
X122.6Y-117.75
X123.5Y-105.95
X123.5Y-114.95
X123.5Y-117.75
X124.0Y-130.81
X124.4Y-105.95
X124.491Y-123.751
X124.5Y-114.95
X124.5Y-117.75
X124.708Y-125.765
X125.034Y-131.912
X125.4Y-105.95
X125.4Y-106.95
X125.4Y-107.75
X125.4Y-114.95
X125.4Y-115.85
X125.4Y-116.85
X125.4Y-117.75
X125.76Y-133.666
X126.469Y-131.902
X126.539Y-85.154
X126.55Y-122.076
X127.091Y-111.729
X127.118Y-104.269
X127.334Y-130.11
X127.439Y-84.254
X127.439Y-85.154
X127.439Y-86.054
X127.5Y-102.588
X127.915Y-73.278
X128.655Y-130.387
X130.192Y-132.509
X130.6Y-105.95
X130.6Y-106.85
X130.6Y-107.75
X130.6Y-114.95
X130.6Y-115.85
X130.6Y-116.85
X131.363Y-133.064
X131.5Y-114.95
X131.5Y-117.75
X132.104Y-103.519
X132.4Y-117.75
X132.5Y-114.95
X132.641Y-123.751
X133.004Y-103.519
X133.022Y-131.476
X133.048Y-128.827
X133.4Y-106.95
X133.4Y-107.75
X133.4Y-115.85
X133.4Y-116.75
X133.4Y-117.75
X134.552Y-127.299
X134.837Y-129.393
X135.077Y-103.195
X135.221Y-108.29
X135.349Y-102.242
X135.371Y-107.571
X135.554Y-116.148
X135.6Y-134.482
X136.012Y-137.998
X136.149Y-112.942
X136.698Y-106.773
X136.857Y-139.825
X137.42Y-134.809
X137.5Y-125.38
X137.573Y-123.707
X137.793Y-114.844
X138.036Y-104.84
X138.161Y-131.728
X138.291Y-133.509
X138.648Y-111.875
X139.069Y-128.827
X139.287Y-114.681
X139.308Y-105.175
X139.325Y-138.885
X139.402Y-126.721
T3
X91.5Y-65.85
X91.5Y-66.85
X92.5Y-65.85
X92.5Y-66.85
X107.5Y-65.85
X107.5Y-66.85
X108.5Y-65.85
X108.5Y-66.85
X115.5Y-82.85
X115.5Y-83.85
X115.5Y-105.85
X115.5Y-106.85
X115.5Y-114.85
X115.5Y-115.85
X116.5Y-82.85
X116.5Y-83.85
X116.5Y-105.85
X116.5Y-106.85
X116.5Y-114.85
X116.5Y-115.85
X119.0Y-91.85
X119.0Y-92.85
X120.0Y-91.85
X120.0Y-92.85
X123.5Y-106.85
X123.5Y-107.85
X123.5Y-115.85
X123.5Y-116.85
X124.5Y-106.85
X124.5Y-107.85
X124.5Y-115.85
X124.5Y-116.85
X131.5Y-106.85
X131.5Y-107.85
X131.5Y-115.85
X131.5Y-116.85
X132.5Y-106.85
X132.5Y-107.85
X132.5Y-115.85
X132.5Y-116.85
T5
X66.0Y-137.0
X68.0Y-137.0
X70.0Y-137.0
X72.0Y-137.0
X74.0Y-137.0
X76.0Y-137.0
X77.5Y-102.0
X79.5Y-102.0
X81.5Y-102.0
X83.0Y-137.0
X83.5Y-102.0
X85.0Y-137.0
X85.5Y-102.0
X87.0Y-137.0
X87.5Y-102.0
X89.0Y-137.0
X89.5Y-102.0
X91.0Y-137.0
X91.5Y-102.0
X97.0Y-138.5
X99.0Y-138.5
X101.0Y-138.5
X103.0Y-138.5
X105.0Y-138.5
X107.0Y-138.5
T6
X111.0Y-61.05
X112.0Y-138.55
X113.0Y-61.05
X114.0Y-138.55
X115.0Y-61.05
X116.0Y-138.55
X117.0Y-61.05
X118.0Y-138.55
T7
X129.5Y-81.0
X129.5Y-94.0
X134.5Y-81.0
X134.5Y-94.0
T8
X98.02Y-63.5
X101.98Y-63.5
X122.06Y-65.0
X126.02Y-65.0
X129.98Y-65.0
X133.94Y-65.0
T4
X61.714Y-62.68G85X61.014Y-62.68
G05
X61.714Y-71.32G85X61.014Y-71.32
G05
X66.044Y-62.68G85X65.044Y-62.68
G05
X66.044Y-71.32G85X65.044Y-71.32
G05
M30
