%TF.GenerationSoftware,KiCad,Pcbnew,10.0.5*%
%TF.CreationDate,2026-10-06T19:19:32+05:30*%
%TF.ProjectId,pd1180-epr-r0.3,70643131-3830-42d6-9570-722d72302e33,rev?*%
%TF.SameCoordinates,Original*%
%TF.FileFunction,Soldermask,Bot*%
%TF.FilePolarity,Negative*%
%FSLAX46Y46*%
G04 Gerber Fmt 4.6, Leading zero omitted, Abs format (unit mm)*
G04 Created by KiCad (PCBNEW 10.0.5) date 2026-10-06 19:19:32*
%MOMM*%
%LPD*%
G01*
G04 APERTURE LIST*
%ADD10R,1.399997X1.399997*%
%ADD11C,1.399997*%
%ADD12C,4.200000*%
%ADD13R,2.499995X2.499995*%
%ADD14C,2.499995*%
%ADD15C,2.099996*%
%ADD16C,1.599997*%
%ADD17C,1.499997*%
%ADD18C,0.649986*%
%ADD19O,2.099996X1.099998*%
%ADD20O,1.799996X1.099998*%
G04 APERTURE END LIST*
D10*
%TO.C,J6*%
X91499986Y-102000000D03*
D11*
X89499990Y-102000000D03*
X87499994Y-102000000D03*
X85499998Y-102000000D03*
X83500002Y-102000000D03*
X81500006Y-102000000D03*
X79500010Y-102000000D03*
X77500014Y-102000000D03*
%TD*%
D12*
%TO.C,MH4*%
X129050000Y-138400000D03*
%TD*%
D13*
%TO.C,J3*%
X98019816Y-63500000D03*
D14*
X101980184Y-63500000D03*
%TD*%
D10*
%TO.C,J5*%
X90999992Y-137000000D03*
D11*
X88999996Y-137000000D03*
X87000000Y-137000000D03*
X85000004Y-137000000D03*
X83000008Y-137000000D03*
%TD*%
D12*
%TO.C,MH3*%
X61600000Y-129050000D03*
%TD*%
D15*
%TO.C,C23*%
X129500005Y-94000000D03*
X134499995Y-94000000D03*
%TD*%
D16*
%TO.C,J9*%
X116999994Y-61050000D03*
X114999998Y-61050000D03*
X113000002Y-61050000D03*
X111000006Y-61050000D03*
%TD*%
%TO.C,J8*%
X117999994Y-138550000D03*
X115999998Y-138550000D03*
X114000002Y-138550000D03*
X112000006Y-138550000D03*
%TD*%
D17*
%TO.C,J4*%
X75999990Y-137000000D03*
X73999994Y-137000000D03*
X71999998Y-137000000D03*
X70000002Y-137000000D03*
X68000006Y-137000000D03*
X66000010Y-137000000D03*
%TD*%
D15*
%TO.C,C22*%
X129500005Y-81000000D03*
X134499995Y-81000000D03*
%TD*%
D17*
%TO.C,J7*%
X106999990Y-138500000D03*
X104999994Y-138500000D03*
X102999998Y-138500000D03*
X101000002Y-138500000D03*
X99000006Y-138500000D03*
X97000010Y-138500000D03*
%TD*%
D12*
%TO.C,MH2*%
X138400000Y-70950000D03*
%TD*%
%TO.C,MH1*%
X70950000Y-61600000D03*
%TD*%
D13*
%TO.C,J2*%
X122059956Y-65000000D03*
D14*
X126020070Y-65000000D03*
X129980184Y-65000000D03*
X133940044Y-65000000D03*
%TD*%
D18*
%TO.C,J1*%
X65064646Y-64109988D03*
X65064646Y-69890012D03*
D19*
X65544453Y-62679968D03*
X65544453Y-71320032D03*
D20*
X61364375Y-71320032D03*
X61364374Y-62679968D03*
%TD*%
M02*
