M48
; DRILL file KiCad 10.0.5 date 2026-10-09T19:01:07
; FORMAT={-:-/ absolute / metric / decimal}
; #@! TF.CreationDate,2026-10-09T19:01:07+05:30
; #@! TF.GenerationSoftware,Kicad,Pcbnew,10.0.5
; #@! TF.FileFunction,Plated,1,4,PTH
FMAT,2
METRIC
; #@! TA.AperFunction,Plated,PTH,ViaDrill
T1C0.200
; #@! TA.AperFunction,Plated,PTH,ViaDrill
T2C0.300
; #@! TA.AperFunction,Plated,PTH,ComponentDrill
T3C0.700
; #@! TA.AperFunction,Plated,PTH,ComponentDrill
T4C0.914
; #@! TA.AperFunction,Plated,PTH,ComponentDrill
T5C1.200
; #@! TA.AperFunction,Plated,PTH,ComponentDrill
T6C1.800
%
G90
G05
T1
X61.543Y-122.849
X61.778Y-114.552
X62.623Y-109.07
X63.318Y-108.778
X64.438Y-117.665
X64.677Y-106.65
X65.202Y-86.25
X65.214Y-99.75
X65.454Y-126.1
X65.91Y-75.932
X66.47Y-106.439
X66.825Y-79.302
X67.002Y-99.25
X67.005Y-96.372
X67.767Y-75.817
X67.847Y-100.652
X68.067Y-77.002
X68.121Y-74.266
X68.181Y-83.25
X68.703Y-74.276
X68.906Y-81.283
X69.425Y-127.212
X69.558Y-77.732
X69.706Y-96.79
X69.779Y-79.048
X70.4Y-73.45
X70.529Y-126.1
X70.542Y-82.949
X70.6Y-77.923
X70.915Y-73.944
X70.955Y-113.681
X71.047Y-100.397
X71.522Y-74.265
X71.522Y-77.555
X71.831Y-72.916
X72.219Y-76.188
X72.4Y-73.25
X72.424Y-127.452
X72.448Y-75.1
X72.675Y-79.581
X73.756Y-132.287
X73.783Y-73.341
X73.831Y-84.375
X73.833Y-112.612
X73.885Y-126.194
X73.925Y-123.912
X73.95Y-74.179
X74.155Y-78.272
X74.438Y-129.781
X74.675Y-109.75
X75.044Y-102.642
X75.359Y-116.918
X75.472Y-70.794
X75.538Y-117.661
X75.589Y-94.162
X75.715Y-60.58
X75.715Y-80.652
X75.931Y-73.279
X76.223Y-78.72
X76.271Y-68.786
X76.493Y-127.532
X76.584Y-116.25
X76.782Y-108.667
X76.82Y-111.75
X76.825Y-115.333
X76.825Y-66.802
X76.841Y-114.75
X76.92Y-113.75
X77.0Y-79.096
X77.071Y-110.115
X77.159Y-136.087
X77.183Y-110.665
X77.227Y-73.277
X77.35Y-99.651
X77.422Y-112.505
X77.623Y-69.944
X77.736Y-113.887
X77.826Y-78.05
X77.923Y-106.445
X78.0Y-99.659
X78.038Y-114.352
X78.09Y-127.663
X78.273Y-130.721
X78.361Y-58.336
X78.486Y-115.046
X78.565Y-77.742
X78.582Y-74.281
X78.735Y-75.501
X78.736Y-76.382
X78.913Y-112.007
X79.35Y-119.55
X79.405Y-106.679
X79.409Y-108.943
X79.47Y-133.671
X79.514Y-110.216
X79.771Y-126.492
X79.906Y-94.612
X80.25Y-115.95
X80.309Y-104.763
X80.503Y-73.3
X80.51Y-106.674
X80.521Y-128.6
X80.543Y-110.63
X81.447Y-133.301
X81.458Y-111.513
X81.492Y-79.8
X81.785Y-117.323
X81.984Y-71.116
X82.28Y-91.764
X82.437Y-117.33
X82.528Y-112.608
X82.545Y-137.284
X82.786Y-110.25
X83.175Y-114.129
X83.179Y-114.7
X83.18Y-111.75
X83.311Y-79.551
X83.643Y-108.541
X83.797Y-93.844
X84.146Y-82.12
X84.197Y-60.0
X84.545Y-72.559
X84.556Y-117.06
X84.772Y-77.806
X85.093Y-128.069
X85.175Y-64.8
X85.268Y-88.605
X85.34Y-113.887
X85.349Y-109.634
X85.539Y-117.456
X85.541Y-112.615
X85.876Y-111.523
X85.89Y-109.274
X85.89Y-110.441
X86.098Y-118.202
X86.295Y-104.997
X86.328Y-114.792
X86.734Y-102.638
X87.0Y-106.251
X87.0Y-129.19
X87.132Y-115.454
X87.175Y-72.2
X87.42Y-86.438
X87.749Y-133.493
X88.27Y-122.077
X88.424Y-75.05
X88.428Y-77.057
X88.531Y-105.58
X88.531Y-109.197
X88.667Y-79.8
X88.724Y-98.971
X88.961Y-88.999
X89.081Y-117.416
X89.238Y-109.139
X89.238Y-112.548
X89.391Y-84.89
X90.131Y-121.0
X90.489Y-101.844
X90.495Y-133.157
X90.602Y-109.173
X90.634Y-111.78
X91.169Y-82.338
X91.239Y-135.323
X91.586Y-88.154
X91.653Y-113.807
X91.834Y-60.605
X92.023Y-123.75
X92.082Y-133.643
X92.634Y-106.524
X92.846Y-111.393
X92.971Y-74.771
X93.035Y-133.444
X93.196Y-106.916
X93.434Y-111.809
X93.545Y-127.597
X93.69Y-97.185
X94.543Y-73.454
X94.642Y-74.393
X94.68Y-113.704
X94.68Y-115.851
X94.721Y-99.354
X94.831Y-70.767
X95.0Y-133.977
X95.034Y-76.189
X95.57Y-113.012
X95.585Y-62.469
X95.607Y-108.05
X95.663Y-76.192
X96.142Y-120.0
X96.166Y-114.001
X96.224Y-76.045
X96.325Y-94.205
X96.416Y-114.928
X96.428Y-108.349
X96.8Y-96.99
X96.941Y-101.35
X96.941Y-103.972
X97.034Y-126.492
X97.214Y-98.402
X97.502Y-133.983
X97.635Y-112.424
X97.647Y-116.889
X97.814Y-96.031
X98.065Y-76.94
X98.205Y-107.058
X98.276Y-126.992
X98.29Y-74.65
X98.291Y-98.524
X98.49Y-96.013
X98.501Y-120.0
X98.592Y-119.195
X98.971Y-93.498
X99.171Y-115.447
X99.192Y-106.339
X99.97Y-130.908
X100.018Y-96.032
X100.173Y-136.209
X100.549Y-128.0
X100.575Y-77.992
X100.819Y-96.014
X100.849Y-72.377
X100.974Y-77.619
X101.273Y-106.494
X101.432Y-130.008
X101.472Y-72.371
X101.673Y-124.738
X101.696Y-107.222
X101.794Y-84.951
X102.015Y-109.043
X102.018Y-72.219
X102.047Y-95.268
X102.129Y-128.172
X102.175Y-70.2
X102.318Y-98.333
X102.325Y-81.554
X102.383Y-104.486
X102.437Y-101.783
X102.476Y-97.731
X102.514Y-93.102
X102.519Y-96.934
X102.615Y-99.336
X102.681Y-102.332
X102.735Y-69.808
X102.755Y-84.153
X102.897Y-71.174
X102.921Y-94.875
X102.932Y-94.25
X102.955Y-115.403
X103.043Y-73.205
X103.043Y-77.459
X103.053Y-79.187
X103.224Y-106.452
X103.636Y-71.794
X103.645Y-74.871
X103.654Y-76.819
X103.753Y-79.94
X103.845Y-76.276
X103.872Y-108.569
X104.096Y-111.491
X104.588Y-111.871
X104.634Y-100.202
X104.921Y-117.0
X105.024Y-88.455
X105.026Y-105.921
X105.028Y-91.575
X105.035Y-99.2
X105.051Y-126.718
X105.058Y-82.981
X105.175Y-96.634
X105.175Y-133.195
X105.326Y-113.875
X105.45Y-106.33
X105.529Y-85.998
X105.675Y-108.808
X105.921Y-87.789
X106.051Y-131.0
X106.1Y-91.934
X106.255Y-112.577
X106.327Y-109.341
X106.352Y-100.349
X106.544Y-121.054
X106.623Y-134.797
X106.768Y-85.135
X106.935Y-92.169
X107.056Y-75.369
X107.127Y-73.596
X107.298Y-97.992
X107.411Y-101.94
X107.486Y-100.322
X107.548Y-108.212
X107.549Y-74.296
X107.663Y-116.2
X107.971Y-112.74
X107.972Y-104.292
X108.114Y-114.436
X108.175Y-76.195
X108.255Y-103.67
X108.346Y-86.153
X108.459Y-91.919
X108.699Y-85.033
X108.9Y-98.0
X109.0Y-128.142
X109.0Y-99.2
X109.167Y-79.794
X109.3Y-110.8
X109.958Y-85.5
X110.005Y-115.19
X110.032Y-89.17
X110.338Y-89.659
X110.414Y-105.98
X110.62Y-100.676
X110.63Y-69.4
X110.731Y-91.981
X110.854Y-107.813
X110.942Y-89.682
X111.039Y-97.672
X111.32Y-94.278
X111.322Y-95.25
X111.331Y-96.399
X111.432Y-98.045
X111.432Y-100.091
X111.5Y-117.9
X111.597Y-107.804
X112.897Y-88.961
X113.008Y-101.8
X113.109Y-98.231
X113.222Y-115.451
X113.247Y-77.922
X113.677Y-128.475
X114.087Y-97.472
X114.38Y-69.801
X114.45Y-129.365
X114.51Y-131.0
X114.702Y-121.373
X114.981Y-122.483
X115.725Y-89.548
X115.773Y-117.544
X116.052Y-96.563
X117.0Y-95.7
X117.424Y-126.569
X117.84Y-109.041
X117.942Y-130.926
X118.447Y-134.838
X118.458Y-71.35
X118.551Y-118.161
X119.089Y-131.273
X119.218Y-130.722
X120.375Y-134.0
X120.623Y-107.436
X121.829Y-88.563
X122.077Y-67.342
X122.139Y-96.16
X122.449Y-127.372
X122.59Y-101.748
X123.252Y-92.202
X123.442Y-100.0
X123.75Y-98.001
X125.32Y-126.705
X125.905Y-121.027
X126.508Y-131.95
X126.8Y-100.0
X126.917Y-130.909
X127.175Y-127.555
X127.41Y-102.75
X127.86Y-110.198
X129.612Y-100.25
X133.952Y-103.0
X133.952Y-112.379
X135.037Y-100.236
X135.347Y-115.16
X135.449Y-107.841
X135.654Y-113.23
X135.849Y-102.896
X136.048Y-106.403
X136.06Y-116.19
X136.33Y-111.903
X136.649Y-104.8
X136.952Y-120.202
X138.825Y-106.809
X139.056Y-121.246
X140.25Y-92.112
T2
X62.225Y-105.2
X66.058Y-79.534
X66.875Y-128.5
X66.924Y-80.034
X70.4Y-69.475
X71.525Y-123.5
X72.0Y-81.475
X72.365Y-99.496
X74.0Y-82.475
X74.525Y-63.5
X75.825Y-87.9
X76.0Y-82.475
X77.25Y-120.975
X77.35Y-105.75
X79.25Y-120.975
X81.25Y-120.975
X82.275Y-77.0
X82.75Y-124.975
X88.365Y-98.246
X89.35Y-105.75
X90.275Y-110.0
X90.275Y-115.0
X90.6Y-66.85
X91.325Y-86.6
X91.5Y-65.85
X91.5Y-66.85
X92.5Y-65.85
X92.5Y-66.85
X93.4Y-66.85
X96.188Y-70.5
X96.817Y-128.785
X97.747Y-101.504
X98.525Y-108.0
X99.209Y-72.735
X100.0Y-107.275
X100.109Y-72.735
X100.674Y-98.839
X102.525Y-113.0
X102.834Y-96.292
X103.118Y-78.156
X103.275Y-121.0
X104.032Y-73.822
X104.143Y-98.442
X104.225Y-133.0
X104.5Y-104.012
X104.545Y-90.675
X105.285Y-93.557
X105.509Y-71.835
X105.861Y-88.658
X105.893Y-118.332
X105.893Y-119.232
X106.409Y-71.835
X106.6Y-66.85
X106.621Y-80.1
X106.621Y-81.0
X106.621Y-81.9
X106.75Y-86.475
X106.8Y-103.725
X107.081Y-106.644
X107.5Y-65.85
X107.5Y-66.85
X107.521Y-81.0
X108.1Y-102.825
X108.4Y-109.9
X108.4Y-110.8
X108.5Y-65.85
X108.5Y-66.85
X109.0Y-85.987
X109.4Y-66.85
X110.914Y-103.381
X111.5Y-118.8
X111.814Y-103.381
X112.7Y-108.317
X114.35Y-95.975
X115.0Y-75.725
X115.5Y-81.95
X115.5Y-82.85
X115.5Y-83.85
X115.5Y-84.75
X115.5Y-97.898
X115.5Y-105.85
X115.5Y-106.85
X115.5Y-113.95
X115.5Y-114.85
X115.5Y-115.85
X116.4Y-97.898
X116.4Y-98.798
X116.4Y-116.75
X116.5Y-82.85
X116.5Y-83.85
X116.5Y-105.85
X116.5Y-106.85
X116.5Y-114.85
X116.5Y-115.85
X117.4Y-82.85
X118.1Y-92.85
X118.349Y-125.349
X119.0Y-91.85
X119.0Y-92.85
X119.078Y-119.869
X119.249Y-124.449
X119.249Y-125.349
X119.395Y-96.769
X119.978Y-119.869
X119.978Y-120.769
X120.0Y-91.85
X120.0Y-92.85
X120.295Y-96.769
X120.878Y-119.869
X120.9Y-91.85
X121.195Y-118.219
X121.195Y-119.119
X122.095Y-119.119
X122.095Y-120.019
X123.5Y-106.85
X123.5Y-107.85
X123.5Y-115.85
X123.5Y-116.85
X124.4Y-108.75
X124.4Y-114.95
X124.5Y-106.85
X124.5Y-107.85
X124.5Y-115.85
X124.5Y-116.85
X125.4Y-107.75
X125.4Y-115.85
X125.895Y-103.625
X126.795Y-104.525
X128.225Y-101.833
X128.225Y-102.733
X128.573Y-112.973
X129.125Y-102.733
X129.474Y-112.973
X129.474Y-113.873
X129.495Y-104.525
X130.374Y-112.973
X130.6Y-107.85
X130.6Y-116.85
X131.5Y-106.85
X131.5Y-107.85
X131.5Y-115.85
X131.5Y-116.85
X131.6Y-117.75
X132.5Y-106.85
X132.5Y-107.85
X132.5Y-108.75
X132.5Y-114.95
X132.5Y-115.85
X132.5Y-116.85
T4
X89.0Y-138.0
X89.0Y-140.0
X91.0Y-138.0
X91.0Y-140.0
X93.0Y-138.0
X93.0Y-140.0
X95.0Y-138.0
X95.0Y-140.0
X97.0Y-138.0
X97.0Y-140.0
X99.0Y-138.0
X99.0Y-140.0
X101.0Y-138.0
X101.0Y-140.0
X103.0Y-138.0
X103.0Y-140.0
X105.0Y-138.0
X105.0Y-140.0
X107.0Y-138.0
X107.0Y-140.0
T5
X127.5Y-78.0
X129.5Y-92.0
X132.5Y-78.0
X134.5Y-92.0
T6
X98.02Y-63.5
X101.98Y-63.5
X114.06Y-139.0
X118.02Y-139.0
X121.98Y-139.0
X125.94Y-139.0
T3
X61.714Y-80.68G85X61.014Y-80.68
G05
X61.714Y-94.68G85X61.014Y-94.68
G05
X61.714Y-89.32G85X61.014Y-89.32
G05
X61.714Y-103.32G85X61.014Y-103.32
G05
X66.044Y-80.68G85X65.044Y-80.68
G05
X66.044Y-89.32G85X65.044Y-89.32
G05
X66.044Y-94.68G85X65.044Y-94.68
G05
X66.044Y-103.32G85X65.044Y-103.32
G05
M30
