%TF.GenerationSoftware,KiCad,Pcbnew,10.0.5*%
%TF.CreationDate,2026-10-09T19:01:07+05:30*%
%TF.ProjectId,pd1180-epr-r0.3,70643131-3830-42d6-9570-722d72302e33,rev?*%
%TF.SameCoordinates,Original*%
%TF.FileFunction,Drillmap*%
%TF.FilePolarity,Positive*%
%FSLAX45Y45*%
G04 Gerber Fmt 4.5, Leading zero omitted, Abs format (unit mm)*
G04 Created by KiCad (PCBNEW 10.0.5) date 2026-10-09 19:01:07*
%MOMM*%
%LPD*%
G01*
G04 APERTURE LIST*
%ADD10C,0.100000*%
%ADD11C,0.200000*%
%ADD12C,0.119999*%
%ADD13C,0.179999*%
G04 APERTURE END LIST*
D10*
X5705000Y-7295000D02*
X5905000Y-7095000D01*
X5705000Y-12705000D02*
X5705000Y-7295000D01*
X5905000Y-7095000D02*
X6505000Y-7095000D01*
X5905000Y-12905000D02*
X5705000Y-12705000D01*
X6505000Y-7095000D02*
X6582010Y-7089952D01*
X6505000Y-12905000D02*
X5905000Y-12905000D01*
X6582010Y-7089952D02*
X6657703Y-7074896D01*
X6582010Y-12910047D02*
X6505000Y-12905000D01*
X6657703Y-7074896D02*
X6730783Y-7050089D01*
X6657703Y-12925104D02*
X6582010Y-12910047D01*
X6730783Y-7050089D02*
X6800000Y-7015955D01*
X6730783Y-12949911D02*
X6657703Y-12925104D01*
X6800000Y-7015955D02*
X6864169Y-6973078D01*
X6800000Y-12984045D02*
X6730783Y-12949911D01*
X6864169Y-6973078D02*
X6922193Y-6922193D01*
X6864169Y-13026921D02*
X6800000Y-12984045D01*
X6922193Y-6922193D02*
X6973078Y-6864169D01*
X6922193Y-13077807D02*
X6864169Y-13026921D01*
X6973078Y-6864169D02*
X7015955Y-6800000D01*
X6973078Y-13135831D02*
X6922193Y-13077807D01*
X7015955Y-6800000D02*
X7050089Y-6730783D01*
X7015955Y-13200000D02*
X6973078Y-13135831D01*
X7050089Y-6730783D02*
X7074896Y-6657703D01*
X7050089Y-13269217D02*
X7015955Y-13200000D01*
X7074896Y-6657703D02*
X7089952Y-6582010D01*
X7074896Y-13342297D02*
X7050089Y-13269217D01*
X7089952Y-6582010D02*
X7095000Y-6505000D01*
X7089952Y-13417989D02*
X7074896Y-13342297D01*
X7095000Y-5905000D02*
X7295000Y-5705000D01*
X7095000Y-6505000D02*
X7095000Y-5905000D01*
X7095000Y-13495000D02*
X7089952Y-13417989D01*
X7095000Y-14095000D02*
X7095000Y-13495000D01*
X7295000Y-5705000D02*
X12705000Y-5705000D01*
X7295000Y-14295000D02*
X7095000Y-14095000D01*
X12705000Y-5705000D02*
X12905000Y-5905000D01*
X12705000Y-14295000D02*
X7295000Y-14295000D01*
X12905000Y-5905000D02*
X12905000Y-6505000D01*
X12905000Y-6505000D02*
X12910047Y-6582010D01*
X12905000Y-13495000D02*
X12905000Y-14095000D01*
X12905000Y-14095000D02*
X12705000Y-14295000D01*
X12910047Y-6582010D02*
X12925104Y-6657703D01*
X12910047Y-13417989D02*
X12905000Y-13495000D01*
X12925104Y-6657703D02*
X12949911Y-6730783D01*
X12925104Y-13342297D02*
X12910047Y-13417989D01*
X12949911Y-6730783D02*
X12984045Y-6800000D01*
X12949911Y-13269217D02*
X12925104Y-13342297D01*
X12984045Y-6800000D02*
X13026921Y-6864169D01*
X12984045Y-13200000D02*
X12949911Y-13269217D01*
X13026921Y-6864169D02*
X13077807Y-6922193D01*
X13026921Y-13135831D02*
X12984045Y-13200000D01*
X13077807Y-6922193D02*
X13135831Y-6973078D01*
X13077807Y-13077807D02*
X13026921Y-13135831D01*
X13135831Y-6973078D02*
X13200000Y-7015955D01*
X13135831Y-13026921D02*
X13077807Y-13077807D01*
X13200000Y-7015955D02*
X13269217Y-7050089D01*
X13200000Y-12984045D02*
X13135831Y-13026921D01*
X13269217Y-7050089D02*
X13342297Y-7074896D01*
X13269217Y-12949911D02*
X13200000Y-12984045D01*
X13342297Y-7074896D02*
X13417989Y-7089952D01*
X13342297Y-12925104D02*
X13269217Y-12949911D01*
X13417989Y-7089952D02*
X13495000Y-7095000D01*
X13417989Y-12910047D02*
X13342297Y-12925104D01*
X13495000Y-7095000D02*
X14095000Y-7095000D01*
X13495000Y-12905000D02*
X13417989Y-12910047D01*
X14095000Y-7095000D02*
X14295000Y-7295000D01*
X14095000Y-12905000D02*
X13495000Y-12905000D01*
X14295000Y-7295000D02*
X14295000Y-12705000D01*
X14295000Y-12705000D02*
X14095000Y-12905000D01*
D11*
D10*
X6144320Y-12274850D02*
X6164320Y-12294850D01*
X6164320Y-12274850D02*
X6144320Y-12294850D01*
X6167760Y-11445170D02*
X6187760Y-11465170D01*
X6187760Y-11445170D02*
X6167760Y-11465170D01*
X6252260Y-10897020D02*
X6272260Y-10917020D01*
X6272260Y-10897020D02*
X6252260Y-10917020D01*
X6321790Y-10867800D02*
X6341790Y-10887800D01*
X6341790Y-10867800D02*
X6321790Y-10887800D01*
X6433770Y-11756540D02*
X6453770Y-11776540D01*
X6453770Y-11756540D02*
X6433770Y-11776540D01*
X6457700Y-10654960D02*
X6477700Y-10674960D01*
X6477700Y-10654960D02*
X6457700Y-10674960D01*
X6510170Y-8614970D02*
X6530170Y-8634970D01*
X6530170Y-8614970D02*
X6510170Y-8634970D01*
X6511440Y-9965010D02*
X6531440Y-9985010D01*
X6531440Y-9965010D02*
X6511440Y-9985010D01*
X6535390Y-12599990D02*
X6555390Y-12619990D01*
X6555390Y-12599990D02*
X6535390Y-12619990D01*
X6580990Y-7583250D02*
X6600990Y-7603250D01*
X6600990Y-7583250D02*
X6580990Y-7603250D01*
X6636970Y-10633930D02*
X6656970Y-10653930D01*
X6656970Y-10633930D02*
X6636970Y-10653930D01*
X6672500Y-7920240D02*
X6692500Y-7940240D01*
X6692500Y-7920240D02*
X6672500Y-7940240D01*
X6690160Y-9914990D02*
X6710160Y-9934990D01*
X6710160Y-9914990D02*
X6690160Y-9934990D01*
X6690510Y-9627230D02*
X6710510Y-9647230D01*
X6710510Y-9627230D02*
X6690510Y-9647230D01*
X6766680Y-7571740D02*
X6786680Y-7591740D01*
X6786680Y-7571740D02*
X6766680Y-7591740D01*
X6774740Y-10055180D02*
X6794740Y-10075180D01*
X6794740Y-10055180D02*
X6774740Y-10075180D01*
X6796750Y-7690160D02*
X6816750Y-7710160D01*
X6816750Y-7690160D02*
X6796750Y-7710160D01*
X6802110Y-7416590D02*
X6822110Y-7436590D01*
X6822110Y-7416590D02*
X6802110Y-7436590D01*
X6808070Y-8314990D02*
X6828070Y-8334990D01*
X6828070Y-8314990D02*
X6808070Y-8334990D01*
X6860350Y-7417580D02*
X6880350Y-7437580D01*
X6880350Y-7417580D02*
X6860350Y-7437580D01*
X6880570Y-8118290D02*
X6900570Y-8138290D01*
X6900570Y-8118290D02*
X6880570Y-8138290D01*
X6932500Y-12711200D02*
X6952500Y-12731200D01*
X6952500Y-12711200D02*
X6932500Y-12731200D01*
X6945850Y-7763170D02*
X6965850Y-7783170D01*
X6965850Y-7763170D02*
X6945850Y-7783170D01*
X6960550Y-9668970D02*
X6980550Y-9688970D01*
X6980550Y-9668970D02*
X6960550Y-9688970D01*
X6967930Y-7894780D02*
X6987930Y-7914780D01*
X6987930Y-7894780D02*
X6967930Y-7914780D01*
X7030000Y-7335000D02*
X7050000Y-7355000D01*
X7050000Y-7335000D02*
X7030000Y-7355000D01*
X7042930Y-12599990D02*
X7062930Y-12619990D01*
X7062930Y-12599990D02*
X7042930Y-12619990D01*
X7044180Y-8284880D02*
X7064180Y-8304880D01*
X7064180Y-8284880D02*
X7044180Y-8304880D01*
X7050010Y-7782280D02*
X7070010Y-7802280D01*
X7070010Y-7782280D02*
X7050010Y-7802280D01*
X7081550Y-7384410D02*
X7101550Y-7404410D01*
X7101550Y-7384410D02*
X7081550Y-7404410D01*
X7085470Y-11358100D02*
X7105470Y-11378100D01*
X7105470Y-11358100D02*
X7085470Y-11378100D01*
X7094730Y-10029660D02*
X7114730Y-10049660D01*
X7114730Y-10029660D02*
X7094730Y-10049660D01*
X7142190Y-7416490D02*
X7162190Y-7436490D01*
X7162190Y-7416490D02*
X7142190Y-7436490D01*
X7142190Y-7745530D02*
X7162190Y-7765530D01*
X7162190Y-7745530D02*
X7142190Y-7765530D01*
X7173060Y-7281620D02*
X7193060Y-7301620D01*
X7193060Y-7281620D02*
X7173060Y-7301620D01*
X7211940Y-7608830D02*
X7231940Y-7628830D01*
X7231940Y-7608830D02*
X7211940Y-7628830D01*
X7230000Y-7315000D02*
X7250000Y-7335000D01*
X7250000Y-7315000D02*
X7230000Y-7335000D01*
X7232440Y-12735160D02*
X7252440Y-12755160D01*
X7252440Y-12735160D02*
X7232440Y-12755160D01*
X7234790Y-7500030D02*
X7254790Y-7520030D01*
X7254790Y-7500030D02*
X7234790Y-7520030D01*
X7257540Y-7948070D02*
X7277540Y-7968070D01*
X7277540Y-7948070D02*
X7257540Y-7968070D01*
X7365560Y-13218700D02*
X7385560Y-13238700D01*
X7385560Y-13218700D02*
X7365560Y-13238700D01*
X7368300Y-7324120D02*
X7388300Y-7344120D01*
X7388300Y-7324120D02*
X7368300Y-7344120D01*
X7373090Y-8427500D02*
X7393090Y-8447500D01*
X7393090Y-8427500D02*
X7373090Y-8447500D01*
X7373300Y-11251220D02*
X7393300Y-11271220D01*
X7393300Y-11251220D02*
X7373300Y-11271220D01*
X7378470Y-12609360D02*
X7398470Y-12629360D01*
X7398470Y-12609360D02*
X7378470Y-12629360D01*
X7382500Y-12381200D02*
X7402500Y-12401200D01*
X7402500Y-12381200D02*
X7382500Y-12401200D01*
X7385000Y-7407860D02*
X7405000Y-7427860D01*
X7405000Y-7407860D02*
X7385000Y-7427860D01*
X7405540Y-7817190D02*
X7425540Y-7837190D01*
X7425540Y-7817190D02*
X7405540Y-7837190D01*
X7433800Y-12968060D02*
X7453800Y-12988060D01*
X7453800Y-12968060D02*
X7433800Y-12988060D01*
X7457520Y-10965010D02*
X7477520Y-10985010D01*
X7477520Y-10965010D02*
X7457520Y-10985010D01*
X7494390Y-10254170D02*
X7514390Y-10274170D01*
X7514390Y-10254170D02*
X7494390Y-10274170D01*
X7525940Y-11681760D02*
X7545940Y-11701760D01*
X7545940Y-11681760D02*
X7525940Y-11701760D01*
X7537190Y-7069430D02*
X7557190Y-7089430D01*
X7557190Y-7069430D02*
X7537190Y-7089430D01*
X7543800Y-11756140D02*
X7563800Y-11776140D01*
X7563800Y-11756140D02*
X7543800Y-11776140D01*
X7548890Y-9406220D02*
X7568890Y-9426220D01*
X7568890Y-9406220D02*
X7548890Y-9426220D01*
X7561550Y-6048000D02*
X7581550Y-6068000D01*
X7581550Y-6048000D02*
X7561550Y-6068000D01*
X7561550Y-8055220D02*
X7581550Y-8075220D01*
X7581550Y-8055220D02*
X7561550Y-8075220D01*
X7583100Y-7317890D02*
X7603100Y-7337890D01*
X7603100Y-7317890D02*
X7583100Y-7337890D01*
X7612270Y-7861970D02*
X7632270Y-7881970D01*
X7632270Y-7861970D02*
X7612270Y-7881970D01*
X7617120Y-6868600D02*
X7637120Y-6888600D01*
X7637120Y-6868600D02*
X7617120Y-6888600D01*
X7639340Y-12743210D02*
X7659340Y-12763210D01*
X7659340Y-12743210D02*
X7639340Y-12763210D01*
X7648350Y-11614990D02*
X7668350Y-11634990D01*
X7668350Y-11614990D02*
X7648350Y-11634990D01*
X7668170Y-10856680D02*
X7688170Y-10876680D01*
X7688170Y-10856680D02*
X7668170Y-10876680D01*
X7672020Y-11165010D02*
X7692020Y-11185010D01*
X7692020Y-11165010D02*
X7672020Y-11185010D01*
X7672460Y-11523320D02*
X7692460Y-11543320D01*
X7692460Y-11523320D02*
X7672460Y-11543320D01*
X7672500Y-6670250D02*
X7692500Y-6690250D01*
X7692500Y-6670250D02*
X7672500Y-6690250D01*
X7674060Y-11465010D02*
X7694060Y-11485010D01*
X7694060Y-11465010D02*
X7674060Y-11485010D01*
X7682050Y-11365010D02*
X7702050Y-11385010D01*
X7702050Y-11365010D02*
X7682050Y-11385010D01*
X7689970Y-7899650D02*
X7709970Y-7919650D01*
X7709970Y-7899650D02*
X7689970Y-7919650D01*
X7697130Y-11001500D02*
X7717130Y-11021500D01*
X7717130Y-11001500D02*
X7697130Y-11021500D01*
X7705920Y-13598700D02*
X7725920Y-13618700D01*
X7725920Y-13598700D02*
X7705920Y-13618700D01*
X7708290Y-11056520D02*
X7728290Y-11076520D01*
X7728290Y-11056520D02*
X7708290Y-11076520D01*
X7712740Y-7317730D02*
X7732740Y-7337730D01*
X7732740Y-7317730D02*
X7712740Y-7337730D01*
X7725000Y-9955120D02*
X7745000Y-9975120D01*
X7745000Y-9955120D02*
X7725000Y-9975120D01*
X7732200Y-11240550D02*
X7752200Y-11260550D01*
X7752200Y-11240550D02*
X7732200Y-11260550D01*
X7752260Y-6984420D02*
X7772260Y-7004420D01*
X7772260Y-6984420D02*
X7752260Y-7004420D01*
X7763610Y-11378750D02*
X7783610Y-11398750D01*
X7783610Y-11378750D02*
X7763610Y-11398750D01*
X7772640Y-7795000D02*
X7792640Y-7815000D01*
X7792640Y-7795000D02*
X7772640Y-7815000D01*
X7782320Y-10634510D02*
X7802320Y-10654510D01*
X7802320Y-10634510D02*
X7782320Y-10654510D01*
X7790000Y-9955940D02*
X7810000Y-9975940D01*
X7810000Y-9955940D02*
X7790000Y-9975940D01*
X7793790Y-11425200D02*
X7813790Y-11445200D01*
X7813790Y-11425200D02*
X7793790Y-11445200D01*
X7799050Y-12756300D02*
X7819050Y-12776300D01*
X7819050Y-12756300D02*
X7799050Y-12776300D01*
X7817320Y-13062150D02*
X7837320Y-13082150D01*
X7837320Y-13062150D02*
X7817320Y-13082150D01*
X7826100Y-5823620D02*
X7846100Y-5843620D01*
X7846100Y-5823620D02*
X7826100Y-5843620D01*
X7838620Y-11494570D02*
X7858620Y-11514570D01*
X7858620Y-11494570D02*
X7838620Y-11514570D01*
X7846480Y-7764210D02*
X7866480Y-7784210D01*
X7866480Y-7764210D02*
X7846480Y-7784210D01*
X7848220Y-7418080D02*
X7868220Y-7438080D01*
X7868220Y-7418080D02*
X7848220Y-7438080D01*
X7863510Y-7540150D02*
X7883510Y-7560150D01*
X7883510Y-7540150D02*
X7863510Y-7560150D01*
X7863620Y-7628220D02*
X7883620Y-7648220D01*
X7883620Y-7628220D02*
X7863620Y-7648220D01*
X7881310Y-11190730D02*
X7901310Y-11210730D01*
X7901310Y-11190730D02*
X7881310Y-11210730D01*
X7924994Y-11944993D02*
X7944994Y-11964993D01*
X7944994Y-11944993D02*
X7924994Y-11964993D01*
X7930460Y-10657870D02*
X7950460Y-10677870D01*
X7950460Y-10657870D02*
X7930460Y-10677870D01*
X7930900Y-10884270D02*
X7950900Y-10904270D01*
X7950900Y-10884270D02*
X7930900Y-10904270D01*
X7936960Y-13357090D02*
X7956960Y-13377090D01*
X7956960Y-13357090D02*
X7936960Y-13377090D01*
X7941430Y-11011590D02*
X7961430Y-11031590D01*
X7961430Y-11011590D02*
X7941430Y-11031590D01*
X7967080Y-12639220D02*
X7987080Y-12659220D01*
X7987080Y-12639220D02*
X7967080Y-12659220D01*
X7980600Y-9451160D02*
X8000600Y-9471160D01*
X8000600Y-9451160D02*
X7980600Y-9471160D01*
X8014994Y-11584993D02*
X8034994Y-11604993D01*
X8034994Y-11584993D02*
X8014994Y-11604993D01*
X8020860Y-10466320D02*
X8040860Y-10486320D01*
X8040860Y-10466320D02*
X8020860Y-10486320D01*
X8040270Y-7320000D02*
X8060270Y-7340000D01*
X8060270Y-7320000D02*
X8040270Y-7340000D01*
X8041010Y-10657430D02*
X8061010Y-10677430D01*
X8061010Y-10657430D02*
X8041010Y-10677430D01*
X8042130Y-12849990D02*
X8062130Y-12869990D01*
X8062130Y-12849990D02*
X8042130Y-12869990D01*
X8044300Y-11053050D02*
X8064300Y-11073050D01*
X8064300Y-11053050D02*
X8044300Y-11073050D01*
X8134700Y-13320110D02*
X8154700Y-13340110D01*
X8154700Y-13320110D02*
X8134700Y-13340110D01*
X8135760Y-11141280D02*
X8155760Y-11161280D01*
X8155760Y-11141280D02*
X8135760Y-11161280D01*
X8139220Y-7969990D02*
X8159220Y-7989990D01*
X8159220Y-7969990D02*
X8139220Y-7989990D01*
X8168510Y-11722290D02*
X8188510Y-11742290D01*
X8188510Y-11722290D02*
X8168510Y-11742290D01*
X8188380Y-7101610D02*
X8208380Y-7121610D01*
X8208380Y-7101610D02*
X8188380Y-7121610D01*
X8218000Y-9166380D02*
X8238000Y-9186380D01*
X8238000Y-9166380D02*
X8218000Y-9186380D01*
X8233680Y-11723010D02*
X8253680Y-11743010D01*
X8253680Y-11723010D02*
X8233680Y-11743010D01*
X8242770Y-11250770D02*
X8262770Y-11270770D01*
X8262770Y-11250770D02*
X8242770Y-11270770D01*
X8244520Y-13718380D02*
X8264520Y-13738380D01*
X8264520Y-13718380D02*
X8244520Y-13738380D01*
X8268630Y-11014990D02*
X8288630Y-11034990D01*
X8288630Y-11014990D02*
X8268630Y-11034990D01*
X8307490Y-11402920D02*
X8327490Y-11422920D01*
X8327490Y-11402920D02*
X8307490Y-11422920D01*
X8307940Y-11459970D02*
X8327940Y-11479970D01*
X8327940Y-11459970D02*
X8307940Y-11479970D01*
X8308050Y-11165010D02*
X8328050Y-11185010D01*
X8328050Y-11165010D02*
X8308050Y-11185010D01*
X8321150Y-7945100D02*
X8341150Y-7965100D01*
X8341150Y-7945100D02*
X8321150Y-7965100D01*
X8354300Y-10844060D02*
X8374300Y-10864060D01*
X8374300Y-10844060D02*
X8354300Y-10864060D01*
X8369750Y-9374420D02*
X8389750Y-9394420D01*
X8389750Y-9374420D02*
X8369750Y-9394420D01*
X8404610Y-8201970D02*
X8424610Y-8221970D01*
X8424610Y-8201970D02*
X8404610Y-8221970D01*
X8409670Y-5990000D02*
X8429670Y-6010000D01*
X8429670Y-5990000D02*
X8409670Y-6010000D01*
X8444520Y-7245880D02*
X8464520Y-7265880D01*
X8464520Y-7245880D02*
X8444520Y-7265880D01*
X8445630Y-11696000D02*
X8465630Y-11716000D01*
X8465630Y-11696000D02*
X8445630Y-11716000D01*
X8467220Y-7770620D02*
X8487220Y-7790620D01*
X8487220Y-7770620D02*
X8467220Y-7790620D01*
X8499340Y-12796860D02*
X8519340Y-12816860D01*
X8519340Y-12796860D02*
X8499340Y-12816860D01*
X8507500Y-6470020D02*
X8527500Y-6490020D01*
X8527500Y-6470020D02*
X8507500Y-6490020D01*
X8516760Y-8850450D02*
X8536760Y-8870450D01*
X8536760Y-8850450D02*
X8516760Y-8870450D01*
X8524020Y-11378750D02*
X8544020Y-11398750D01*
X8544020Y-11378750D02*
X8524020Y-11398750D01*
X8524860Y-10953410D02*
X8544860Y-10973410D01*
X8544860Y-10953410D02*
X8524860Y-10973410D01*
X8543920Y-11735560D02*
X8563920Y-11755560D01*
X8563920Y-11735560D02*
X8543920Y-11755560D01*
X8544130Y-11251520D02*
X8564130Y-11271520D01*
X8564130Y-11251520D02*
X8544130Y-11271520D01*
X8577570Y-11142320D02*
X8597570Y-11162320D01*
X8597570Y-11142320D02*
X8577570Y-11162320D01*
X8578960Y-10917360D02*
X8598960Y-10937360D01*
X8598960Y-10917360D02*
X8578960Y-10937360D01*
X8579020Y-11034120D02*
X8599020Y-11054120D01*
X8599020Y-11034120D02*
X8579020Y-11054120D01*
X8599800Y-11810180D02*
X8619800Y-11830180D01*
X8619800Y-11810180D02*
X8599800Y-11830180D01*
X8619490Y-10489700D02*
X8639490Y-10509700D01*
X8639490Y-10489700D02*
X8619490Y-10509700D01*
X8622830Y-11469170D02*
X8642830Y-11489170D01*
X8642830Y-11469170D02*
X8622830Y-11489170D01*
X8663360Y-10253800D02*
X8683360Y-10273800D01*
X8683360Y-10253800D02*
X8663360Y-10273800D01*
X8689970Y-10615120D02*
X8709970Y-10635120D01*
X8709970Y-10615120D02*
X8689970Y-10635120D01*
X8690000Y-12909050D02*
X8710000Y-12929050D01*
X8710000Y-12909050D02*
X8690000Y-12929050D01*
X8703220Y-11535370D02*
X8723220Y-11555370D01*
X8723220Y-11535370D02*
X8703220Y-11555370D01*
X8707500Y-7210040D02*
X8727500Y-7230040D01*
X8727500Y-7210040D02*
X8707500Y-7230040D01*
X8731970Y-8633810D02*
X8751970Y-8653810D01*
X8751970Y-8633810D02*
X8731970Y-8653810D01*
X8764870Y-13339300D02*
X8784870Y-13359300D01*
X8784870Y-13339300D02*
X8764870Y-13359300D01*
X8817000Y-12197680D02*
X8837000Y-12217680D01*
X8837000Y-12197680D02*
X8817000Y-12217680D01*
X8832400Y-7495000D02*
X8852400Y-7515000D01*
X8852400Y-7495000D02*
X8832400Y-7515000D01*
X8832820Y-7695700D02*
X8852820Y-7715700D01*
X8852820Y-7695700D02*
X8832820Y-7715700D01*
X8843070Y-10548010D02*
X8863070Y-10568010D01*
X8863070Y-10548010D02*
X8843070Y-10568010D01*
X8843070Y-10909690D02*
X8863070Y-10929690D01*
X8863070Y-10909690D02*
X8843070Y-10929690D01*
X8856680Y-7969990D02*
X8876680Y-7989990D01*
X8876680Y-7969990D02*
X8856680Y-7989990D01*
X8862350Y-9887060D02*
X8882350Y-9907060D01*
X8882350Y-9887060D02*
X8862350Y-9907060D01*
X8886060Y-8889870D02*
X8906060Y-8909870D01*
X8906060Y-8889870D02*
X8886060Y-8909870D01*
X8898080Y-11731580D02*
X8918080Y-11751580D01*
X8918080Y-11731580D02*
X8898080Y-11751580D01*
X8913840Y-10903880D02*
X8933840Y-10923880D01*
X8933840Y-10903880D02*
X8913840Y-10923880D01*
X8913840Y-11244840D02*
X8933840Y-11264840D01*
X8933840Y-11244840D02*
X8913840Y-11264840D01*
X8929100Y-8479030D02*
X8949100Y-8499030D01*
X8949100Y-8479030D02*
X8929100Y-8499030D01*
X9003090Y-12090000D02*
X9023090Y-12110000D01*
X9023090Y-12090000D02*
X9003090Y-12110000D01*
X9038850Y-10174380D02*
X9058850Y-10194380D01*
X9058850Y-10174380D02*
X9038850Y-10194380D01*
X9039530Y-13305690D02*
X9059530Y-13325690D01*
X9059530Y-13305690D02*
X9039530Y-13325690D01*
X9050210Y-10907350D02*
X9070210Y-10927350D01*
X9070210Y-10907350D02*
X9050210Y-10927350D01*
X9053440Y-11168020D02*
X9073440Y-11188020D01*
X9073440Y-11168020D02*
X9053440Y-11188020D01*
X9106940Y-8223820D02*
X9126940Y-8243820D01*
X9126940Y-8223820D02*
X9106940Y-8243820D01*
X9113940Y-13522300D02*
X9133940Y-13542300D01*
X9133940Y-13522300D02*
X9113940Y-13542300D01*
X9148610Y-8805390D02*
X9168610Y-8825390D01*
X9168610Y-8805390D02*
X9148610Y-8825390D01*
X9155300Y-11370660D02*
X9175300Y-11390660D01*
X9175300Y-11370660D02*
X9155300Y-11390660D01*
X9173410Y-6050500D02*
X9193410Y-6070500D01*
X9193410Y-6050500D02*
X9173410Y-6070500D01*
X9192310Y-12365000D02*
X9212310Y-12385000D01*
X9212310Y-12365000D02*
X9192310Y-12385000D01*
X9198240Y-13354340D02*
X9218240Y-13374340D01*
X9218240Y-13354340D02*
X9198240Y-13374340D01*
X9253430Y-10642410D02*
X9273430Y-10662410D01*
X9273430Y-10642410D02*
X9253430Y-10662410D01*
X9274640Y-11129320D02*
X9294640Y-11149320D01*
X9294640Y-11129320D02*
X9274640Y-11149320D01*
X9287110Y-7467060D02*
X9307110Y-7487060D01*
X9307110Y-7467060D02*
X9287110Y-7487060D01*
X9293510Y-13334440D02*
X9313510Y-13354440D01*
X9313510Y-13334440D02*
X9293510Y-13354440D01*
X9309610Y-10681580D02*
X9329610Y-10701580D01*
X9329610Y-10681580D02*
X9309610Y-10701580D01*
X9333450Y-11170860D02*
X9353450Y-11190860D01*
X9353450Y-11170860D02*
X9333450Y-11190860D01*
X9344500Y-12749670D02*
X9364500Y-12769670D01*
X9364500Y-12749670D02*
X9344500Y-12769670D01*
X9359000Y-9708500D02*
X9379000Y-9728500D01*
X9379000Y-9708500D02*
X9359000Y-9728500D01*
X9444260Y-7335410D02*
X9464260Y-7355410D01*
X9464260Y-7335410D02*
X9444260Y-7355410D01*
X9454210Y-7429270D02*
X9474210Y-7449270D01*
X9474210Y-7429270D02*
X9454210Y-7449270D01*
X9458050Y-11360410D02*
X9478050Y-11380410D01*
X9478050Y-11360410D02*
X9458050Y-11380410D01*
X9458050Y-11575130D02*
X9478050Y-11595130D01*
X9478050Y-11575130D02*
X9458050Y-11595130D01*
X9462120Y-9925400D02*
X9482120Y-9945400D01*
X9482120Y-9925400D02*
X9462120Y-9945400D01*
X9473070Y-7066720D02*
X9493070Y-7086720D01*
X9493070Y-7066720D02*
X9473070Y-7086720D01*
X9490000Y-13387680D02*
X9510000Y-13407680D01*
X9510000Y-13387680D02*
X9490000Y-13407680D01*
X9493380Y-7608880D02*
X9513380Y-7628880D01*
X9513380Y-7608880D02*
X9493380Y-7628880D01*
X9547000Y-11291230D02*
X9567000Y-11311230D01*
X9567000Y-11291230D02*
X9547000Y-11311230D01*
X9548480Y-6236890D02*
X9568480Y-6256890D01*
X9568480Y-6236890D02*
X9548480Y-6256890D01*
X9550690Y-10795000D02*
X9570690Y-10815000D01*
X9570690Y-10795000D02*
X9550690Y-10815000D01*
X9556260Y-7609180D02*
X9576260Y-7629180D01*
X9576260Y-7609180D02*
X9556260Y-7629180D01*
X9604200Y-11990000D02*
X9624200Y-12010000D01*
X9624200Y-11990000D02*
X9604200Y-12010000D01*
X9606610Y-11390120D02*
X9626610Y-11410120D01*
X9626610Y-11390120D02*
X9606610Y-11410120D01*
X9612410Y-7594530D02*
X9632410Y-7614530D01*
X9632410Y-7594530D02*
X9612410Y-7614530D01*
X9622500Y-9410490D02*
X9642500Y-9430490D01*
X9642500Y-9410490D02*
X9622500Y-9430490D01*
X9631650Y-11482770D02*
X9651650Y-11502770D01*
X9651650Y-11482770D02*
X9631650Y-11502770D01*
X9632770Y-10824910D02*
X9652770Y-10844910D01*
X9652770Y-10824910D02*
X9632770Y-10844910D01*
X9670050Y-9688980D02*
X9690050Y-9708980D01*
X9690050Y-9688980D02*
X9670050Y-9708980D01*
X9684140Y-10125010D02*
X9704140Y-10145010D01*
X9704140Y-10125010D02*
X9684140Y-10145010D01*
X9684140Y-10387200D02*
X9704140Y-10407200D01*
X9704140Y-10387200D02*
X9684140Y-10407200D01*
X9693430Y-12639220D02*
X9713430Y-12659220D01*
X9713430Y-12639220D02*
X9693430Y-12659220D01*
X9711390Y-9830230D02*
X9731390Y-9850230D01*
X9731390Y-9830230D02*
X9711390Y-9850230D01*
X9740160Y-13388320D02*
X9760160Y-13408320D01*
X9760160Y-13388320D02*
X9740160Y-13408320D01*
X9753520Y-11232360D02*
X9773520Y-11252360D01*
X9773520Y-11232360D02*
X9753520Y-11252360D01*
X9754690Y-11678920D02*
X9774690Y-11698920D01*
X9774690Y-11678920D02*
X9754690Y-11698920D01*
X9771430Y-9593060D02*
X9791430Y-9613060D01*
X9791430Y-9593060D02*
X9771430Y-9613060D01*
X9796500Y-7684000D02*
X9816500Y-7704000D01*
X9816500Y-7684000D02*
X9796500Y-7704000D01*
X9810520Y-10695780D02*
X9830520Y-10715780D01*
X9830520Y-10695780D02*
X9810520Y-10715780D01*
X9817650Y-12689160D02*
X9837650Y-12709160D01*
X9837650Y-12689160D02*
X9817650Y-12709160D01*
X9818960Y-7454980D02*
X9838960Y-7474980D01*
X9838960Y-7454980D02*
X9818960Y-7474980D01*
X9819080Y-9842450D02*
X9839080Y-9862450D01*
X9839080Y-9842450D02*
X9819080Y-9862450D01*
X9839030Y-9591300D02*
X9859030Y-9611300D01*
X9859030Y-9591300D02*
X9839030Y-9611300D01*
X9840070Y-11990000D02*
X9860070Y-12010000D01*
X9860070Y-11990000D02*
X9840070Y-12010000D01*
X9849230Y-11909500D02*
X9869230Y-11929500D01*
X9869230Y-11909500D02*
X9849230Y-11929500D01*
X9887130Y-9339780D02*
X9907130Y-9359780D01*
X9907130Y-9339780D02*
X9887130Y-9359780D01*
X9907100Y-11534720D02*
X9927100Y-11554720D01*
X9927100Y-11534720D02*
X9907100Y-11554720D01*
X9909190Y-10623860D02*
X9929190Y-10643860D01*
X9929190Y-10623860D02*
X9909190Y-10643860D01*
X9986960Y-13080760D02*
X10006960Y-13100760D01*
X10006960Y-13080760D02*
X9986960Y-13100760D01*
X9991770Y-9593200D02*
X10011770Y-9613200D01*
X10011770Y-9593200D02*
X9991770Y-9613200D01*
X10007270Y-13610930D02*
X10027270Y-13630930D01*
X10027270Y-13610930D02*
X10007270Y-13630930D01*
X10044900Y-12790000D02*
X10064900Y-12810000D01*
X10064900Y-12790000D02*
X10044900Y-12810000D01*
X10047450Y-7789210D02*
X10067450Y-7809210D01*
X10067450Y-7789210D02*
X10047450Y-7809210D01*
X10071890Y-9591430D02*
X10091890Y-9611430D01*
X10091890Y-9591430D02*
X10071890Y-9611430D01*
X10074920Y-7227680D02*
X10094920Y-7247680D01*
X10094920Y-7227680D02*
X10074920Y-7247680D01*
X10087390Y-7751860D02*
X10107390Y-7771860D01*
X10107390Y-7751860D02*
X10087390Y-7771860D01*
X10117330Y-10639420D02*
X10137330Y-10659420D01*
X10137330Y-10639420D02*
X10117330Y-10659420D01*
X10133170Y-12990820D02*
X10153170Y-13010820D01*
X10153170Y-12990820D02*
X10133170Y-13010820D01*
X10137170Y-7227150D02*
X10157170Y-7247150D01*
X10157170Y-7227150D02*
X10137170Y-7247150D01*
X10157280Y-12463850D02*
X10177280Y-12483850D01*
X10177280Y-12463850D02*
X10157280Y-12483850D01*
X10159600Y-10712170D02*
X10179600Y-10732170D01*
X10179600Y-10712170D02*
X10159600Y-10732170D01*
X10169440Y-8485110D02*
X10189440Y-8505110D01*
X10189440Y-8485110D02*
X10169440Y-8505110D01*
X10191550Y-10894330D02*
X10211550Y-10914330D01*
X10211550Y-10894330D02*
X10191550Y-10914330D01*
X10191800Y-7211900D02*
X10211800Y-7231900D01*
X10211800Y-7211900D02*
X10191800Y-7231900D01*
X10194680Y-9516760D02*
X10214680Y-9536760D01*
X10214680Y-9516760D02*
X10194680Y-9536760D01*
X10202920Y-12807210D02*
X10222920Y-12827210D01*
X10222920Y-12807210D02*
X10202920Y-12827210D01*
X10207500Y-7010010D02*
X10227500Y-7030010D01*
X10227500Y-7010010D02*
X10207500Y-7030010D01*
X10221780Y-9823330D02*
X10241780Y-9843330D01*
X10241780Y-9823330D02*
X10221780Y-9843330D01*
X10222500Y-8145450D02*
X10242500Y-8165450D01*
X10242500Y-8145450D02*
X10222500Y-8165450D01*
X10228270Y-10438640D02*
X10248270Y-10458640D01*
X10248270Y-10438640D02*
X10228270Y-10458640D01*
X10233660Y-10168340D02*
X10253660Y-10188340D01*
X10253660Y-10168340D02*
X10233660Y-10188340D01*
X10237560Y-9763130D02*
X10257560Y-9783130D01*
X10257560Y-9763130D02*
X10237560Y-9783130D01*
X10241400Y-9300210D02*
X10261400Y-9320210D01*
X10261400Y-9300210D02*
X10241400Y-9320210D01*
X10241880Y-9683390D02*
X10261880Y-9703390D01*
X10261880Y-9683390D02*
X10241880Y-9703390D01*
X10251540Y-9923600D02*
X10271540Y-9943600D01*
X10271540Y-9923600D02*
X10251540Y-9943600D01*
X10258120Y-10223210D02*
X10278120Y-10243210D01*
X10278120Y-10223210D02*
X10258120Y-10243210D01*
X10263480Y-6970840D02*
X10283480Y-6990840D01*
X10283480Y-6970840D02*
X10263480Y-6990840D01*
X10265480Y-8405350D02*
X10285480Y-8425350D01*
X10285480Y-8405350D02*
X10265480Y-8425350D01*
X10279720Y-7107400D02*
X10299720Y-7127400D01*
X10299720Y-7107400D02*
X10279720Y-7127400D01*
X10282080Y-9477490D02*
X10302080Y-9497490D01*
X10302080Y-9477490D02*
X10282080Y-9497490D01*
X10283220Y-9414990D02*
X10303220Y-9434990D01*
X10303220Y-9414990D02*
X10283220Y-9434990D01*
X10285490Y-11530340D02*
X10305490Y-11550340D01*
X10305490Y-11530340D02*
X10285490Y-11550340D01*
X10294320Y-7310530D02*
X10314320Y-7330530D01*
X10314320Y-7310530D02*
X10294320Y-7330530D01*
X10294320Y-7735870D02*
X10314320Y-7755870D01*
X10314320Y-7735870D02*
X10294320Y-7755870D01*
X10295330Y-7908710D02*
X10315330Y-7928710D01*
X10315330Y-7908710D02*
X10295330Y-7928710D01*
X10312420Y-10635210D02*
X10332420Y-10655210D01*
X10332420Y-10635210D02*
X10312420Y-10655210D01*
X10353580Y-7169450D02*
X10373580Y-7189450D01*
X10373580Y-7169450D02*
X10353580Y-7189450D01*
X10354480Y-7477070D02*
X10374480Y-7497070D01*
X10374480Y-7477070D02*
X10354480Y-7497070D01*
X10355430Y-7671950D02*
X10375430Y-7691950D01*
X10375430Y-7671950D02*
X10355430Y-7691950D01*
X10365350Y-7983960D02*
X10385350Y-8003960D01*
X10385350Y-7983960D02*
X10365350Y-8003960D01*
X10374540Y-7617640D02*
X10394540Y-7637640D01*
X10394540Y-7617640D02*
X10374540Y-7637640D01*
X10377180Y-10846890D02*
X10397180Y-10866890D01*
X10397180Y-10846890D02*
X10377180Y-10866890D01*
X10399630Y-11139110D02*
X10419630Y-11159110D01*
X10419630Y-11139110D02*
X10399630Y-11159110D01*
X10448830Y-11177150D02*
X10468830Y-11197150D01*
X10468830Y-11177150D02*
X10448830Y-11197150D01*
X10453430Y-10010230D02*
X10473430Y-10030230D01*
X10473430Y-10010230D02*
X10453430Y-10030230D01*
X10482070Y-11690000D02*
X10502070Y-11710000D01*
X10502070Y-11690000D02*
X10482070Y-11710000D01*
X10492380Y-8835530D02*
X10512380Y-8855530D01*
X10512380Y-8835530D02*
X10492380Y-8855530D01*
X10492600Y-10582090D02*
X10512600Y-10602090D01*
X10512600Y-10582090D02*
X10492600Y-10602090D01*
X10492810Y-9147540D02*
X10512810Y-9167540D01*
X10512810Y-9147540D02*
X10492810Y-9167540D01*
X10493480Y-9909990D02*
X10513480Y-9929990D01*
X10513480Y-9909990D02*
X10493480Y-9929990D01*
X10495090Y-12661800D02*
X10515090Y-12681800D01*
X10515090Y-12661800D02*
X10495090Y-12681800D01*
X10495850Y-8288110D02*
X10515850Y-8308110D01*
X10515850Y-8288110D02*
X10495850Y-8308110D01*
X10507470Y-9653430D02*
X10527470Y-9673430D01*
X10527470Y-9653430D02*
X10507470Y-9673430D01*
X10507500Y-13309510D02*
X10527500Y-13329510D01*
X10527500Y-13309510D02*
X10507500Y-13329510D01*
X10522650Y-11377490D02*
X10542650Y-11397490D01*
X10542650Y-11377490D02*
X10522650Y-11397490D01*
X10534960Y-10622980D02*
X10554960Y-10642980D01*
X10554960Y-10622980D02*
X10534960Y-10642980D01*
X10542920Y-8589830D02*
X10562920Y-8609830D01*
X10562920Y-8589830D02*
X10542920Y-8609830D01*
X10557460Y-10870800D02*
X10577460Y-10890800D01*
X10577460Y-10870800D02*
X10557460Y-10890800D01*
X10582090Y-8768890D02*
X10602090Y-8788890D01*
X10602090Y-8768890D02*
X10582090Y-8788890D01*
X10595070Y-13090000D02*
X10615070Y-13110000D01*
X10615070Y-13090000D02*
X10595070Y-13110000D01*
X10600020Y-9183360D02*
X10620020Y-9203360D01*
X10620020Y-9183360D02*
X10600020Y-9203360D01*
X10615490Y-11247670D02*
X10635490Y-11267670D01*
X10635490Y-11247670D02*
X10615490Y-11267670D01*
X10622660Y-10924140D02*
X10642660Y-10944140D01*
X10642660Y-10924140D02*
X10622660Y-10944140D01*
X10625200Y-10024890D02*
X10645200Y-10044890D01*
X10645200Y-10024890D02*
X10625200Y-10044890D01*
X10644420Y-12095410D02*
X10664420Y-12115410D01*
X10664420Y-12095410D02*
X10644420Y-12115410D01*
X10652330Y-13469740D02*
X10672330Y-13489740D01*
X10672330Y-13469740D02*
X10652330Y-13489740D01*
X10666770Y-8503510D02*
X10686770Y-8523510D01*
X10686770Y-8503510D02*
X10666770Y-8523510D01*
X10683550Y-9206900D02*
X10703550Y-9226900D01*
X10703550Y-9206900D02*
X10683550Y-9226900D01*
X10695580Y-7526930D02*
X10715580Y-7546930D01*
X10715580Y-7526930D02*
X10695580Y-7546930D01*
X10702720Y-7349620D02*
X10722720Y-7369620D01*
X10722720Y-7349620D02*
X10702720Y-7369620D01*
X10719800Y-9789210D02*
X10739800Y-9809210D01*
X10739800Y-9789210D02*
X10719800Y-9809210D01*
X10731110Y-10184030D02*
X10751110Y-10204030D01*
X10751110Y-10184030D02*
X10731110Y-10204030D01*
X10738610Y-10022180D02*
X10758610Y-10042180D01*
X10758610Y-10022180D02*
X10738610Y-10042180D01*
X10744800Y-10811250D02*
X10764800Y-10831250D01*
X10764800Y-10811250D02*
X10744800Y-10831250D01*
X10744910Y-7419640D02*
X10764910Y-7439640D01*
X10764910Y-7419640D02*
X10744910Y-7439640D01*
X10756310Y-11610000D02*
X10776310Y-11630000D01*
X10776310Y-11610000D02*
X10756310Y-11630000D01*
X10787150Y-11264000D02*
X10807150Y-11284000D01*
X10807150Y-11264000D02*
X10787150Y-11284000D01*
X10787240Y-10419230D02*
X10807240Y-10439230D01*
X10807240Y-10419230D02*
X10787240Y-10439230D01*
X10801410Y-11433580D02*
X10821410Y-11453580D01*
X10821410Y-11433580D02*
X10801410Y-11453580D01*
X10807500Y-7609460D02*
X10827500Y-7629460D01*
X10827500Y-7609460D02*
X10807500Y-7629460D01*
X10815510Y-10357000D02*
X10835510Y-10377000D01*
X10835510Y-10357000D02*
X10815510Y-10377000D01*
X10824600Y-8605320D02*
X10844600Y-8625320D01*
X10844600Y-8605320D02*
X10824600Y-8625320D01*
X10835850Y-9181940D02*
X10855850Y-9201940D01*
X10855850Y-9181940D02*
X10835850Y-9201940D01*
X10859860Y-8493310D02*
X10879860Y-8513310D01*
X10879860Y-8493310D02*
X10859860Y-8513310D01*
X10879993Y-9789989D02*
X10899993Y-9809989D01*
X10899993Y-9789989D02*
X10879993Y-9809989D01*
X10890000Y-12804240D02*
X10910000Y-12824240D01*
X10910000Y-12804240D02*
X10890000Y-12824240D01*
X10890006Y-9909989D02*
X10910006Y-9929989D01*
X10910006Y-9909989D02*
X10890006Y-9929989D01*
X10906710Y-7969440D02*
X10926710Y-7989440D01*
X10926710Y-7969440D02*
X10906710Y-7989440D01*
X10919993Y-11069989D02*
X10939993Y-11089989D01*
X10939993Y-11069989D02*
X10919993Y-11089989D01*
X10985820Y-8540000D02*
X11005820Y-8560000D01*
X11005820Y-8540000D02*
X10985820Y-8560000D01*
X10990520Y-11508970D02*
X11010520Y-11528970D01*
X11010520Y-11508970D02*
X10990520Y-11528970D01*
X10993170Y-8906990D02*
X11013170Y-8926990D01*
X11013170Y-8906990D02*
X10993170Y-8926990D01*
X11023830Y-8955950D02*
X11043830Y-8975950D01*
X11043830Y-8955950D02*
X11023830Y-8975950D01*
X11031360Y-10588000D02*
X11051360Y-10608000D01*
X11051360Y-10588000D02*
X11031360Y-10608000D01*
X11052030Y-10057640D02*
X11072030Y-10077640D01*
X11072030Y-10057640D02*
X11052030Y-10077640D01*
X11053020Y-6930050D02*
X11073020Y-6950050D01*
X11073020Y-6930050D02*
X11053020Y-6950050D01*
X11063070Y-9188100D02*
X11083070Y-9208100D01*
X11083070Y-9188100D02*
X11063070Y-9208100D01*
X11075380Y-10771310D02*
X11095380Y-10791310D01*
X11095380Y-10771310D02*
X11075380Y-10791310D01*
X11084230Y-8958170D02*
X11104230Y-8978170D01*
X11104230Y-8958170D02*
X11084230Y-8978170D01*
X11093870Y-9757210D02*
X11113870Y-9777210D01*
X11113870Y-9757210D02*
X11093870Y-9777210D01*
X11122040Y-9417790D02*
X11142040Y-9437790D01*
X11142040Y-9417790D02*
X11122040Y-9437790D01*
X11122220Y-9514990D02*
X11142220Y-9534990D01*
X11142220Y-9514990D02*
X11122220Y-9534990D01*
X11123070Y-9629920D02*
X11143070Y-9649920D01*
X11143070Y-9629920D02*
X11123070Y-9649920D01*
X11133190Y-9794490D02*
X11153190Y-9814490D01*
X11153190Y-9794490D02*
X11133190Y-9814490D01*
X11133200Y-9999110D02*
X11153200Y-10019110D01*
X11153200Y-9999110D02*
X11133200Y-10019110D01*
X11139993Y-11779989D02*
X11159993Y-11799989D01*
X11159993Y-11779989D02*
X11139993Y-11799989D01*
X11149680Y-10770400D02*
X11169680Y-10790400D01*
X11169680Y-10770400D02*
X11149680Y-10790400D01*
X11279710Y-8886130D02*
X11299710Y-8906130D01*
X11299710Y-8886130D02*
X11279710Y-8906130D01*
X11290800Y-10170000D02*
X11310800Y-10190000D01*
X11310800Y-10170000D02*
X11290800Y-10190000D01*
X11300860Y-9813100D02*
X11320860Y-9833100D01*
X11320860Y-9813100D02*
X11300860Y-9833100D01*
X11312210Y-11535150D02*
X11332210Y-11555150D01*
X11332210Y-11535150D02*
X11312210Y-11555150D01*
X11314690Y-7782160D02*
X11334690Y-7802160D01*
X11334690Y-7782160D02*
X11314690Y-7802160D01*
X11357670Y-12837470D02*
X11377670Y-12857470D01*
X11377670Y-12837470D02*
X11357670Y-12857470D01*
X11398660Y-9737190D02*
X11418660Y-9757190D01*
X11418660Y-9737190D02*
X11398660Y-9757190D01*
X11427970Y-6970110D02*
X11447970Y-6990110D01*
X11447970Y-6970110D02*
X11427970Y-6990110D01*
X11435000Y-12926540D02*
X11455000Y-12946540D01*
X11455000Y-12926540D02*
X11435000Y-12946540D01*
X11441010Y-13090000D02*
X11461010Y-13110000D01*
X11461010Y-13090000D02*
X11441010Y-13110000D01*
X11460220Y-12127310D02*
X11480220Y-12147310D01*
X11480220Y-12127310D02*
X11460220Y-12147310D01*
X11488100Y-12238320D02*
X11508100Y-12258320D01*
X11508100Y-12238320D02*
X11488100Y-12258320D01*
X11562500Y-8944790D02*
X11582500Y-8964790D01*
X11582500Y-8944790D02*
X11562500Y-8964790D01*
X11567330Y-11744370D02*
X11587330Y-11764370D01*
X11587330Y-11744370D02*
X11567330Y-11764370D01*
X11595220Y-9646320D02*
X11615220Y-9666320D01*
X11615220Y-9646320D02*
X11595220Y-9666320D01*
X11690006Y-9559989D02*
X11710006Y-9579989D01*
X11710006Y-9559989D02*
X11690006Y-9579989D01*
X11732370Y-12646900D02*
X11752370Y-12666900D01*
X11752370Y-12646900D02*
X11732370Y-12666900D01*
X11773980Y-10894090D02*
X11793980Y-10914090D01*
X11793980Y-10894090D02*
X11773980Y-10914090D01*
X11784180Y-13082640D02*
X11804180Y-13102640D01*
X11804180Y-13082640D02*
X11784180Y-13102640D01*
X11834750Y-13473810D02*
X11854750Y-13493810D01*
X11854750Y-13473810D02*
X11834750Y-13493810D01*
X11835810Y-7124980D02*
X11855810Y-7144980D01*
X11855810Y-7124980D02*
X11835810Y-7144980D01*
X11845070Y-11806110D02*
X11865070Y-11826110D01*
X11865070Y-11806110D02*
X11845070Y-11826110D01*
X11898880Y-13117270D02*
X11918880Y-13137270D01*
X11918880Y-13117270D02*
X11898880Y-13137270D01*
X11911760Y-13062240D02*
X11931760Y-13082240D01*
X11931760Y-13062240D02*
X11911760Y-13082240D01*
X12027500Y-13390000D02*
X12047500Y-13410000D01*
X12047500Y-13390000D02*
X12027500Y-13410000D01*
X12052310Y-10733590D02*
X12072310Y-10753590D01*
X12072310Y-10733590D02*
X12052310Y-10753590D01*
X12172860Y-8846330D02*
X12192860Y-8866330D01*
X12192860Y-8846330D02*
X12172860Y-8866330D01*
X12197720Y-6724240D02*
X12217720Y-6744240D01*
X12217720Y-6724240D02*
X12197720Y-6744240D01*
X12203930Y-9606050D02*
X12223930Y-9626050D01*
X12223930Y-9606050D02*
X12203930Y-9626050D01*
X12234860Y-12727200D02*
X12254860Y-12747200D01*
X12254860Y-12727200D02*
X12234860Y-12747200D01*
X12249020Y-10164750D02*
X12269020Y-10184750D01*
X12269020Y-10164750D02*
X12249020Y-10184750D01*
X12315190Y-9210200D02*
X12335190Y-9230200D01*
X12335190Y-9210200D02*
X12315190Y-9230200D01*
X12334160Y-9989980D02*
X12354160Y-10009980D01*
X12354160Y-9989980D02*
X12334160Y-10009980D01*
X12365000Y-9790080D02*
X12385000Y-9810080D01*
X12385000Y-9790080D02*
X12365000Y-9810080D01*
X12522000Y-12660510D02*
X12542000Y-12680510D01*
X12542000Y-12660510D02*
X12522000Y-12680510D01*
X12580500Y-12092720D02*
X12600500Y-12112720D01*
X12600500Y-12092720D02*
X12580500Y-12112720D01*
X12640810Y-13185000D02*
X12660810Y-13205000D01*
X12660810Y-13185000D02*
X12640810Y-13205000D01*
X12670000Y-9989980D02*
X12690000Y-10009980D01*
X12690000Y-9989980D02*
X12670000Y-10009980D01*
X12681730Y-13080920D02*
X12701730Y-13100920D01*
X12701730Y-13080920D02*
X12681730Y-13100920D01*
X12707500Y-12745480D02*
X12727500Y-12765480D01*
X12727500Y-12745480D02*
X12707500Y-12765480D01*
X12730960Y-10265000D02*
X12750960Y-10285000D01*
X12750960Y-10265000D02*
X12730960Y-10285000D01*
X12776020Y-11009820D02*
X12796020Y-11029820D01*
X12796020Y-11009820D02*
X12776020Y-11029820D01*
X12951210Y-10015000D02*
X12971210Y-10035000D01*
X12971210Y-10015000D02*
X12951210Y-10035000D01*
X13385180Y-10290000D02*
X13405180Y-10310000D01*
X13405180Y-10290000D02*
X13385180Y-10310000D01*
X13385180Y-11227920D02*
X13405180Y-11247920D01*
X13405180Y-11227920D02*
X13385180Y-11247920D01*
X13493730Y-10013600D02*
X13513730Y-10033600D01*
X13513730Y-10013600D02*
X13493730Y-10033600D01*
X13524740Y-11505990D02*
X13544740Y-11525990D01*
X13544740Y-11505990D02*
X13524740Y-11525990D01*
X13534920Y-10774090D02*
X13554920Y-10794090D01*
X13554920Y-10774090D02*
X13534920Y-10794090D01*
X13555380Y-11312990D02*
X13575380Y-11332990D01*
X13575380Y-11312990D02*
X13555380Y-11332990D01*
X13574860Y-10279570D02*
X13594860Y-10299570D01*
X13594860Y-10279570D02*
X13574860Y-10299570D01*
X13594840Y-10630340D02*
X13614840Y-10650340D01*
X13614840Y-10630340D02*
X13594840Y-10650340D01*
X13596000Y-11609040D02*
X13616000Y-11629040D01*
X13616000Y-11609040D02*
X13596000Y-11629040D01*
X13623020Y-11180260D02*
X13643020Y-11200260D01*
X13643020Y-11180260D02*
X13623020Y-11200260D01*
X13654870Y-10469980D02*
X13674870Y-10489980D01*
X13674870Y-10469980D02*
X13654870Y-10489980D01*
X13685180Y-12010180D02*
X13705180Y-12030180D01*
X13705180Y-12010180D02*
X13685180Y-12030180D01*
X13872500Y-10670920D02*
X13892500Y-10690920D01*
X13892500Y-10670920D02*
X13872500Y-10690920D01*
X13895620Y-12114650D02*
X13915620Y-12134650D01*
X13915620Y-12114650D02*
X13895620Y-12134650D01*
X14015000Y-9201160D02*
X14035000Y-9221160D01*
X14035000Y-9201160D02*
X14015000Y-9221160D01*
X6237500Y-10520000D02*
G75*
G02*
X6207500Y-10520000I-15000J0D01*
G01*
X6207500Y-10520000D02*
G75*
G02*
X6237500Y-10520000I15000J0D01*
G01*
X6620807Y-7953420D02*
G75*
G02*
X6590807Y-7953420I-15000J0D01*
G01*
X6590807Y-7953420D02*
G75*
G02*
X6620807Y-7953420I15000J0D01*
G01*
X6702500Y-12850000D02*
G75*
G02*
X6672500Y-12850000I-15000J0D01*
G01*
X6672500Y-12850000D02*
G75*
G02*
X6702500Y-12850000I15000J0D01*
G01*
X6707410Y-8003420D02*
G75*
G02*
X6677410Y-8003420I-15000J0D01*
G01*
X6677410Y-8003420D02*
G75*
G02*
X6707410Y-8003420I15000J0D01*
G01*
X7055000Y-6947500D02*
G75*
G02*
X7025000Y-6947500I-15000J0D01*
G01*
X7025000Y-6947500D02*
G75*
G02*
X7055000Y-6947500I15000J0D01*
G01*
X7167500Y-12350000D02*
G75*
G02*
X7137500Y-12350000I-15000J0D01*
G01*
X7137500Y-12350000D02*
G75*
G02*
X7167500Y-12350000I15000J0D01*
G01*
X7215000Y-8147500D02*
G75*
G02*
X7185000Y-8147500I-15000J0D01*
G01*
X7185000Y-8147500D02*
G75*
G02*
X7215000Y-8147500I15000J0D01*
G01*
X7251500Y-9949610D02*
G75*
G02*
X7221500Y-9949610I-15000J0D01*
G01*
X7221500Y-9949610D02*
G75*
G02*
X7251500Y-9949610I15000J0D01*
G01*
X7415000Y-8247500D02*
G75*
G02*
X7385000Y-8247500I-15000J0D01*
G01*
X7385000Y-8247500D02*
G75*
G02*
X7415000Y-8247500I15000J0D01*
G01*
X7467500Y-6350000D02*
G75*
G02*
X7437500Y-6350000I-15000J0D01*
G01*
X7437500Y-6350000D02*
G75*
G02*
X7467500Y-6350000I15000J0D01*
G01*
X7597500Y-8790000D02*
G75*
G02*
X7567500Y-8790000I-15000J0D01*
G01*
X7567500Y-8790000D02*
G75*
G02*
X7597500Y-8790000I15000J0D01*
G01*
X7615000Y-8247500D02*
G75*
G02*
X7585000Y-8247500I-15000J0D01*
G01*
X7585000Y-8247500D02*
G75*
G02*
X7615000Y-8247500I15000J0D01*
G01*
X7740000Y-12097500D02*
G75*
G02*
X7710000Y-12097500I-15000J0D01*
G01*
X7710000Y-12097500D02*
G75*
G02*
X7740000Y-12097500I15000J0D01*
G01*
X7750000Y-10575000D02*
G75*
G02*
X7720000Y-10575000I-15000J0D01*
G01*
X7720000Y-10575000D02*
G75*
G02*
X7750000Y-10575000I15000J0D01*
G01*
X7940000Y-12097500D02*
G75*
G02*
X7910000Y-12097500I-15000J0D01*
G01*
X7910000Y-12097500D02*
G75*
G02*
X7940000Y-12097500I15000J0D01*
G01*
X8140000Y-12097500D02*
G75*
G02*
X8110000Y-12097500I-15000J0D01*
G01*
X8110000Y-12097500D02*
G75*
G02*
X8140000Y-12097500I15000J0D01*
G01*
X8242500Y-7700000D02*
G75*
G02*
X8212500Y-7700000I-15000J0D01*
G01*
X8212500Y-7700000D02*
G75*
G02*
X8242500Y-7700000I15000J0D01*
G01*
X8290000Y-12497500D02*
G75*
G02*
X8260000Y-12497500I-15000J0D01*
G01*
X8260000Y-12497500D02*
G75*
G02*
X8290000Y-12497500I15000J0D01*
G01*
X8851500Y-9824610D02*
G75*
G02*
X8821500Y-9824610I-15000J0D01*
G01*
X8821500Y-9824610D02*
G75*
G02*
X8851500Y-9824610I15000J0D01*
G01*
X8950000Y-10575000D02*
G75*
G02*
X8920000Y-10575000I-15000J0D01*
G01*
X8920000Y-10575000D02*
G75*
G02*
X8950000Y-10575000I15000J0D01*
G01*
X9042500Y-11000000D02*
G75*
G02*
X9012500Y-11000000I-15000J0D01*
G01*
X9012500Y-11000000D02*
G75*
G02*
X9042500Y-11000000I15000J0D01*
G01*
X9042500Y-11500000D02*
G75*
G02*
X9012500Y-11500000I-15000J0D01*
G01*
X9012500Y-11500000D02*
G75*
G02*
X9042500Y-11500000I15000J0D01*
G01*
X9075000Y-6685000D02*
G75*
G02*
X9045000Y-6685000I-15000J0D01*
G01*
X9045000Y-6685000D02*
G75*
G02*
X9075000Y-6685000I15000J0D01*
G01*
X9147500Y-8660000D02*
G75*
G02*
X9117500Y-8660000I-15000J0D01*
G01*
X9117500Y-8660000D02*
G75*
G02*
X9147500Y-8660000I15000J0D01*
G01*
X9165000Y-6585000D02*
G75*
G02*
X9135000Y-6585000I-15000J0D01*
G01*
X9135000Y-6585000D02*
G75*
G02*
X9165000Y-6585000I15000J0D01*
G01*
X9165000Y-6685000D02*
G75*
G02*
X9135000Y-6685000I-15000J0D01*
G01*
X9135000Y-6685000D02*
G75*
G02*
X9165000Y-6685000I15000J0D01*
G01*
X9265000Y-6585000D02*
G75*
G02*
X9235000Y-6585000I-15000J0D01*
G01*
X9235000Y-6585000D02*
G75*
G02*
X9265000Y-6585000I15000J0D01*
G01*
X9265000Y-6685000D02*
G75*
G02*
X9235000Y-6685000I-15000J0D01*
G01*
X9235000Y-6685000D02*
G75*
G02*
X9265000Y-6685000I15000J0D01*
G01*
X9355000Y-6685000D02*
G75*
G02*
X9325000Y-6685000I-15000J0D01*
G01*
X9325000Y-6685000D02*
G75*
G02*
X9355000Y-6685000I15000J0D01*
G01*
X9633750Y-7050000D02*
G75*
G02*
X9603750Y-7050000I-15000J0D01*
G01*
X9603750Y-7050000D02*
G75*
G02*
X9633750Y-7050000I15000J0D01*
G01*
X9696670Y-12878530D02*
G75*
G02*
X9666670Y-12878530I-15000J0D01*
G01*
X9666670Y-12878530D02*
G75*
G02*
X9696670Y-12878530I15000J0D01*
G01*
X9789670Y-10150440D02*
G75*
G02*
X9759670Y-10150440I-15000J0D01*
G01*
X9759670Y-10150440D02*
G75*
G02*
X9789670Y-10150440I15000J0D01*
G01*
X9867500Y-10800000D02*
G75*
G02*
X9837500Y-10800000I-15000J0D01*
G01*
X9837500Y-10800000D02*
G75*
G02*
X9867500Y-10800000I15000J0D01*
G01*
X9935860Y-7273520D02*
G75*
G02*
X9905860Y-7273520I-15000J0D01*
G01*
X9905860Y-7273520D02*
G75*
G02*
X9935860Y-7273520I15000J0D01*
G01*
X10015000Y-10727500D02*
G75*
G02*
X9985000Y-10727500I-15000J0D01*
G01*
X9985000Y-10727500D02*
G75*
G02*
X10015000Y-10727500I15000J0D01*
G01*
X10025860Y-7273520D02*
G75*
G02*
X9995860Y-7273520I-15000J0D01*
G01*
X9995860Y-7273520D02*
G75*
G02*
X10025860Y-7273520I15000J0D01*
G01*
X10082450Y-9883940D02*
G75*
G02*
X10052450Y-9883940I-15000J0D01*
G01*
X10052450Y-9883940D02*
G75*
G02*
X10082450Y-9883940I15000J0D01*
G01*
X10267500Y-11300000D02*
G75*
G02*
X10237500Y-11300000I-15000J0D01*
G01*
X10237500Y-11300000D02*
G75*
G02*
X10267500Y-11300000I15000J0D01*
G01*
X10298370Y-9629170D02*
G75*
G02*
X10268370Y-9629170I-15000J0D01*
G01*
X10268370Y-9629170D02*
G75*
G02*
X10298370Y-9629170I15000J0D01*
G01*
X10326820Y-7815620D02*
G75*
G02*
X10296820Y-7815620I-15000J0D01*
G01*
X10296820Y-7815620D02*
G75*
G02*
X10326820Y-7815620I15000J0D01*
G01*
X10342500Y-12100000D02*
G75*
G02*
X10312500Y-12100000I-15000J0D01*
G01*
X10312500Y-12100000D02*
G75*
G02*
X10342500Y-12100000I15000J0D01*
G01*
X10418240Y-7382190D02*
G75*
G02*
X10388240Y-7382190I-15000J0D01*
G01*
X10388240Y-7382190D02*
G75*
G02*
X10418240Y-7382190I15000J0D01*
G01*
X10429290Y-9844160D02*
G75*
G02*
X10399290Y-9844160I-15000J0D01*
G01*
X10399290Y-9844160D02*
G75*
G02*
X10429290Y-9844160I15000J0D01*
G01*
X10437500Y-13300000D02*
G75*
G02*
X10407500Y-13300000I-15000J0D01*
G01*
X10407500Y-13300000D02*
G75*
G02*
X10437500Y-13300000I15000J0D01*
G01*
X10465000Y-10401200D02*
G75*
G02*
X10435000Y-10401200I-15000J0D01*
G01*
X10435000Y-10401200D02*
G75*
G02*
X10465000Y-10401200I15000J0D01*
G01*
X10469490Y-9067540D02*
G75*
G02*
X10439490Y-9067540I-15000J0D01*
G01*
X10439490Y-9067540D02*
G75*
G02*
X10469490Y-9067540I15000J0D01*
G01*
X10543550Y-9355680D02*
G75*
G02*
X10513550Y-9355680I-15000J0D01*
G01*
X10513550Y-9355680D02*
G75*
G02*
X10543550Y-9355680I15000J0D01*
G01*
X10565860Y-7183520D02*
G75*
G02*
X10535860Y-7183520I-15000J0D01*
G01*
X10535860Y-7183520D02*
G75*
G02*
X10565860Y-7183520I15000J0D01*
G01*
X10601060Y-8865770D02*
G75*
G02*
X10571060Y-8865770I-15000J0D01*
G01*
X10571060Y-8865770D02*
G75*
G02*
X10601060Y-8865770I15000J0D01*
G01*
X10604280Y-11833190D02*
G75*
G02*
X10574280Y-11833190I-15000J0D01*
G01*
X10574280Y-11833190D02*
G75*
G02*
X10604280Y-11833190I15000J0D01*
G01*
X10604280Y-11923190D02*
G75*
G02*
X10574280Y-11923190I-15000J0D01*
G01*
X10574280Y-11923190D02*
G75*
G02*
X10604280Y-11923190I15000J0D01*
G01*
X10655860Y-7183520D02*
G75*
G02*
X10625860Y-7183520I-15000J0D01*
G01*
X10625860Y-7183520D02*
G75*
G02*
X10655860Y-7183520I15000J0D01*
G01*
X10675000Y-6685000D02*
G75*
G02*
X10645000Y-6685000I-15000J0D01*
G01*
X10645000Y-6685000D02*
G75*
G02*
X10675000Y-6685000I15000J0D01*
G01*
X10677140Y-8010000D02*
G75*
G02*
X10647140Y-8010000I-15000J0D01*
G01*
X10647140Y-8010000D02*
G75*
G02*
X10677140Y-8010000I15000J0D01*
G01*
X10677140Y-8100000D02*
G75*
G02*
X10647140Y-8100000I-15000J0D01*
G01*
X10647140Y-8100000D02*
G75*
G02*
X10677140Y-8100000I15000J0D01*
G01*
X10677140Y-8190000D02*
G75*
G02*
X10647140Y-8190000I-15000J0D01*
G01*
X10647140Y-8190000D02*
G75*
G02*
X10677140Y-8190000I15000J0D01*
G01*
X10690000Y-8647500D02*
G75*
G02*
X10660000Y-8647500I-15000J0D01*
G01*
X10660000Y-8647500D02*
G75*
G02*
X10690000Y-8647500I15000J0D01*
G01*
X10695000Y-10372500D02*
G75*
G02*
X10665000Y-10372500I-15000J0D01*
G01*
X10665000Y-10372500D02*
G75*
G02*
X10695000Y-10372500I15000J0D01*
G01*
X10723130Y-10664370D02*
G75*
G02*
X10693130Y-10664370I-15000J0D01*
G01*
X10693130Y-10664370D02*
G75*
G02*
X10723130Y-10664370I15000J0D01*
G01*
X10765000Y-6585000D02*
G75*
G02*
X10735000Y-6585000I-15000J0D01*
G01*
X10735000Y-6585000D02*
G75*
G02*
X10765000Y-6585000I15000J0D01*
G01*
X10765000Y-6685000D02*
G75*
G02*
X10735000Y-6685000I-15000J0D01*
G01*
X10735000Y-6685000D02*
G75*
G02*
X10765000Y-6685000I15000J0D01*
G01*
X10767140Y-8100000D02*
G75*
G02*
X10737140Y-8100000I-15000J0D01*
G01*
X10737140Y-8100000D02*
G75*
G02*
X10767140Y-8100000I15000J0D01*
G01*
X10825000Y-10282500D02*
G75*
G02*
X10795000Y-10282500I-15000J0D01*
G01*
X10795000Y-10282500D02*
G75*
G02*
X10825000Y-10282500I15000J0D01*
G01*
X10854993Y-10989989D02*
G75*
G02*
X10824993Y-10989989I-15000J0D01*
G01*
X10824993Y-10989989D02*
G75*
G02*
X10854993Y-10989989I15000J0D01*
G01*
X10854993Y-11079989D02*
G75*
G02*
X10824993Y-11079989I-15000J0D01*
G01*
X10824993Y-11079989D02*
G75*
G02*
X10854993Y-11079989I15000J0D01*
G01*
X10865000Y-6585000D02*
G75*
G02*
X10835000Y-6585000I-15000J0D01*
G01*
X10835000Y-6585000D02*
G75*
G02*
X10865000Y-6585000I15000J0D01*
G01*
X10865000Y-6685000D02*
G75*
G02*
X10835000Y-6685000I-15000J0D01*
G01*
X10835000Y-6685000D02*
G75*
G02*
X10865000Y-6685000I15000J0D01*
G01*
X10915000Y-8598750D02*
G75*
G02*
X10885000Y-8598750I-15000J0D01*
G01*
X10885000Y-8598750D02*
G75*
G02*
X10915000Y-8598750I15000J0D01*
G01*
X10955000Y-6685000D02*
G75*
G02*
X10925000Y-6685000I-15000J0D01*
G01*
X10925000Y-6685000D02*
G75*
G02*
X10955000Y-6685000I15000J0D01*
G01*
X11106410Y-10338120D02*
G75*
G02*
X11076410Y-10338120I-15000J0D01*
G01*
X11076410Y-10338120D02*
G75*
G02*
X11106410Y-10338120I15000J0D01*
G01*
X11164993Y-11879989D02*
G75*
G02*
X11134993Y-11879989I-15000J0D01*
G01*
X11134993Y-11879989D02*
G75*
G02*
X11164993Y-11879989I15000J0D01*
G01*
X11196410Y-10338120D02*
G75*
G02*
X11166410Y-10338120I-15000J0D01*
G01*
X11166410Y-10338120D02*
G75*
G02*
X11196410Y-10338120I15000J0D01*
G01*
X11284990Y-10831720D02*
G75*
G02*
X11254990Y-10831720I-15000J0D01*
G01*
X11254990Y-10831720D02*
G75*
G02*
X11284990Y-10831720I15000J0D01*
G01*
X11450000Y-9597500D02*
G75*
G02*
X11420000Y-9597500I-15000J0D01*
G01*
X11420000Y-9597500D02*
G75*
G02*
X11450000Y-9597500I15000J0D01*
G01*
X11515000Y-7572500D02*
G75*
G02*
X11485000Y-7572500I-15000J0D01*
G01*
X11485000Y-7572500D02*
G75*
G02*
X11515000Y-7572500I15000J0D01*
G01*
X11565000Y-8195000D02*
G75*
G02*
X11535000Y-8195000I-15000J0D01*
G01*
X11535000Y-8195000D02*
G75*
G02*
X11565000Y-8195000I15000J0D01*
G01*
X11565000Y-8285000D02*
G75*
G02*
X11535000Y-8285000I-15000J0D01*
G01*
X11535000Y-8285000D02*
G75*
G02*
X11565000Y-8285000I15000J0D01*
G01*
X11565000Y-8385000D02*
G75*
G02*
X11535000Y-8385000I-15000J0D01*
G01*
X11535000Y-8385000D02*
G75*
G02*
X11565000Y-8385000I15000J0D01*
G01*
X11565000Y-8475000D02*
G75*
G02*
X11535000Y-8475000I-15000J0D01*
G01*
X11535000Y-8475000D02*
G75*
G02*
X11565000Y-8475000I15000J0D01*
G01*
X11565000Y-9789840D02*
G75*
G02*
X11535000Y-9789840I-15000J0D01*
G01*
X11535000Y-9789840D02*
G75*
G02*
X11565000Y-9789840I15000J0D01*
G01*
X11565000Y-10585000D02*
G75*
G02*
X11535000Y-10585000I-15000J0D01*
G01*
X11535000Y-10585000D02*
G75*
G02*
X11565000Y-10585000I15000J0D01*
G01*
X11565000Y-10685000D02*
G75*
G02*
X11535000Y-10685000I-15000J0D01*
G01*
X11535000Y-10685000D02*
G75*
G02*
X11565000Y-10685000I15000J0D01*
G01*
X11565000Y-11395000D02*
G75*
G02*
X11535000Y-11395000I-15000J0D01*
G01*
X11535000Y-11395000D02*
G75*
G02*
X11565000Y-11395000I15000J0D01*
G01*
X11565000Y-11485000D02*
G75*
G02*
X11535000Y-11485000I-15000J0D01*
G01*
X11535000Y-11485000D02*
G75*
G02*
X11565000Y-11485000I15000J0D01*
G01*
X11565000Y-11585000D02*
G75*
G02*
X11535000Y-11585000I-15000J0D01*
G01*
X11535000Y-11585000D02*
G75*
G02*
X11565000Y-11585000I15000J0D01*
G01*
X11655000Y-9789840D02*
G75*
G02*
X11625000Y-9789840I-15000J0D01*
G01*
X11625000Y-9789840D02*
G75*
G02*
X11655000Y-9789840I15000J0D01*
G01*
X11655000Y-9879840D02*
G75*
G02*
X11625000Y-9879840I-15000J0D01*
G01*
X11625000Y-9879840D02*
G75*
G02*
X11655000Y-9879840I15000J0D01*
G01*
X11655000Y-11675000D02*
G75*
G02*
X11625000Y-11675000I-15000J0D01*
G01*
X11625000Y-11675000D02*
G75*
G02*
X11655000Y-11675000I15000J0D01*
G01*
X11665000Y-8285000D02*
G75*
G02*
X11635000Y-8285000I-15000J0D01*
G01*
X11635000Y-8285000D02*
G75*
G02*
X11665000Y-8285000I15000J0D01*
G01*
X11665000Y-8385000D02*
G75*
G02*
X11635000Y-8385000I-15000J0D01*
G01*
X11635000Y-8385000D02*
G75*
G02*
X11665000Y-8385000I15000J0D01*
G01*
X11665000Y-10585000D02*
G75*
G02*
X11635000Y-10585000I-15000J0D01*
G01*
X11635000Y-10585000D02*
G75*
G02*
X11665000Y-10585000I15000J0D01*
G01*
X11665000Y-10685000D02*
G75*
G02*
X11635000Y-10685000I-15000J0D01*
G01*
X11635000Y-10685000D02*
G75*
G02*
X11665000Y-10685000I15000J0D01*
G01*
X11665000Y-11485000D02*
G75*
G02*
X11635000Y-11485000I-15000J0D01*
G01*
X11635000Y-11485000D02*
G75*
G02*
X11665000Y-11485000I15000J0D01*
G01*
X11665000Y-11585000D02*
G75*
G02*
X11635000Y-11585000I-15000J0D01*
G01*
X11635000Y-11585000D02*
G75*
G02*
X11665000Y-11585000I15000J0D01*
G01*
X11755000Y-8285000D02*
G75*
G02*
X11725000Y-8285000I-15000J0D01*
G01*
X11725000Y-8285000D02*
G75*
G02*
X11755000Y-8285000I15000J0D01*
G01*
X11825000Y-9285000D02*
G75*
G02*
X11795000Y-9285000I-15000J0D01*
G01*
X11795000Y-9285000D02*
G75*
G02*
X11825000Y-9285000I15000J0D01*
G01*
X11849890Y-12534910D02*
G75*
G02*
X11819890Y-12534910I-15000J0D01*
G01*
X11819890Y-12534910D02*
G75*
G02*
X11849890Y-12534910I15000J0D01*
G01*
X11915000Y-9185000D02*
G75*
G02*
X11885000Y-9185000I-15000J0D01*
G01*
X11885000Y-9185000D02*
G75*
G02*
X11915000Y-9185000I15000J0D01*
G01*
X11915000Y-9285000D02*
G75*
G02*
X11885000Y-9285000I-15000J0D01*
G01*
X11885000Y-9285000D02*
G75*
G02*
X11915000Y-9285000I15000J0D01*
G01*
X11922790Y-11986910D02*
G75*
G02*
X11892790Y-11986910I-15000J0D01*
G01*
X11892790Y-11986910D02*
G75*
G02*
X11922790Y-11986910I15000J0D01*
G01*
X11939890Y-12444910D02*
G75*
G02*
X11909890Y-12444910I-15000J0D01*
G01*
X11909890Y-12444910D02*
G75*
G02*
X11939890Y-12444910I15000J0D01*
G01*
X11939890Y-12534910D02*
G75*
G02*
X11909890Y-12534910I-15000J0D01*
G01*
X11909890Y-12534910D02*
G75*
G02*
X11939890Y-12534910I15000J0D01*
G01*
X11954500Y-9676910D02*
G75*
G02*
X11924500Y-9676910I-15000J0D01*
G01*
X11924500Y-9676910D02*
G75*
G02*
X11954500Y-9676910I15000J0D01*
G01*
X12012790Y-11986910D02*
G75*
G02*
X11982790Y-11986910I-15000J0D01*
G01*
X11982790Y-11986910D02*
G75*
G02*
X12012790Y-11986910I15000J0D01*
G01*
X12012790Y-12076910D02*
G75*
G02*
X11982790Y-12076910I-15000J0D01*
G01*
X11982790Y-12076910D02*
G75*
G02*
X12012790Y-12076910I15000J0D01*
G01*
X12015000Y-9185000D02*
G75*
G02*
X11985000Y-9185000I-15000J0D01*
G01*
X11985000Y-9185000D02*
G75*
G02*
X12015000Y-9185000I15000J0D01*
G01*
X12015000Y-9285000D02*
G75*
G02*
X11985000Y-9285000I-15000J0D01*
G01*
X11985000Y-9285000D02*
G75*
G02*
X12015000Y-9285000I15000J0D01*
G01*
X12044500Y-9676910D02*
G75*
G02*
X12014500Y-9676910I-15000J0D01*
G01*
X12014500Y-9676910D02*
G75*
G02*
X12044500Y-9676910I15000J0D01*
G01*
X12102790Y-11986910D02*
G75*
G02*
X12072790Y-11986910I-15000J0D01*
G01*
X12072790Y-11986910D02*
G75*
G02*
X12102790Y-11986910I15000J0D01*
G01*
X12105000Y-9185000D02*
G75*
G02*
X12075000Y-9185000I-15000J0D01*
G01*
X12075000Y-9185000D02*
G75*
G02*
X12105000Y-9185000I15000J0D01*
G01*
X12134500Y-11821910D02*
G75*
G02*
X12104500Y-11821910I-15000J0D01*
G01*
X12104500Y-11821910D02*
G75*
G02*
X12134500Y-11821910I15000J0D01*
G01*
X12134500Y-11911910D02*
G75*
G02*
X12104500Y-11911910I-15000J0D01*
G01*
X12104500Y-11911910D02*
G75*
G02*
X12134500Y-11911910I15000J0D01*
G01*
X12224500Y-11911910D02*
G75*
G02*
X12194500Y-11911910I-15000J0D01*
G01*
X12194500Y-11911910D02*
G75*
G02*
X12224500Y-11911910I15000J0D01*
G01*
X12224500Y-12001910D02*
G75*
G02*
X12194500Y-12001910I-15000J0D01*
G01*
X12194500Y-12001910D02*
G75*
G02*
X12224500Y-12001910I15000J0D01*
G01*
X12365000Y-10685000D02*
G75*
G02*
X12335000Y-10685000I-15000J0D01*
G01*
X12335000Y-10685000D02*
G75*
G02*
X12365000Y-10685000I15000J0D01*
G01*
X12365000Y-10785000D02*
G75*
G02*
X12335000Y-10785000I-15000J0D01*
G01*
X12335000Y-10785000D02*
G75*
G02*
X12365000Y-10785000I15000J0D01*
G01*
X12365000Y-11585000D02*
G75*
G02*
X12335000Y-11585000I-15000J0D01*
G01*
X12335000Y-11585000D02*
G75*
G02*
X12365000Y-11585000I15000J0D01*
G01*
X12365000Y-11685000D02*
G75*
G02*
X12335000Y-11685000I-15000J0D01*
G01*
X12335000Y-11685000D02*
G75*
G02*
X12365000Y-11685000I15000J0D01*
G01*
X12455000Y-10875000D02*
G75*
G02*
X12425000Y-10875000I-15000J0D01*
G01*
X12425000Y-10875000D02*
G75*
G02*
X12455000Y-10875000I15000J0D01*
G01*
X12455000Y-11495000D02*
G75*
G02*
X12425000Y-11495000I-15000J0D01*
G01*
X12425000Y-11495000D02*
G75*
G02*
X12455000Y-11495000I15000J0D01*
G01*
X12465000Y-10685000D02*
G75*
G02*
X12435000Y-10685000I-15000J0D01*
G01*
X12435000Y-10685000D02*
G75*
G02*
X12465000Y-10685000I15000J0D01*
G01*
X12465000Y-10785000D02*
G75*
G02*
X12435000Y-10785000I-15000J0D01*
G01*
X12435000Y-10785000D02*
G75*
G02*
X12465000Y-10785000I15000J0D01*
G01*
X12465000Y-11585000D02*
G75*
G02*
X12435000Y-11585000I-15000J0D01*
G01*
X12435000Y-11585000D02*
G75*
G02*
X12465000Y-11585000I15000J0D01*
G01*
X12465000Y-11685000D02*
G75*
G02*
X12435000Y-11685000I-15000J0D01*
G01*
X12435000Y-11685000D02*
G75*
G02*
X12465000Y-11685000I15000J0D01*
G01*
X12555000Y-10775000D02*
G75*
G02*
X12525000Y-10775000I-15000J0D01*
G01*
X12525000Y-10775000D02*
G75*
G02*
X12555000Y-10775000I15000J0D01*
G01*
X12555000Y-11585000D02*
G75*
G02*
X12525000Y-11585000I-15000J0D01*
G01*
X12525000Y-11585000D02*
G75*
G02*
X12555000Y-11585000I15000J0D01*
G01*
X12604500Y-10362460D02*
G75*
G02*
X12574500Y-10362460I-15000J0D01*
G01*
X12574500Y-10362460D02*
G75*
G02*
X12604500Y-10362460I15000J0D01*
G01*
X12694500Y-10452461D02*
G75*
G02*
X12664500Y-10452461I-15000J0D01*
G01*
X12664500Y-10452461D02*
G75*
G02*
X12694500Y-10452461I15000J0D01*
G01*
X12837500Y-10183300D02*
G75*
G02*
X12807500Y-10183300I-15000J0D01*
G01*
X12807500Y-10183300D02*
G75*
G02*
X12837500Y-10183300I15000J0D01*
G01*
X12837500Y-10273300D02*
G75*
G02*
X12807500Y-10273300I-15000J0D01*
G01*
X12807500Y-10273300D02*
G75*
G02*
X12837500Y-10273300I15000J0D01*
G01*
X12872350Y-11297260D02*
G75*
G02*
X12842350Y-11297260I-15000J0D01*
G01*
X12842350Y-11297260D02*
G75*
G02*
X12872350Y-11297260I15000J0D01*
G01*
X12927500Y-10273300D02*
G75*
G02*
X12897500Y-10273300I-15000J0D01*
G01*
X12897500Y-10273300D02*
G75*
G02*
X12927500Y-10273300I15000J0D01*
G01*
X12962350Y-11297260D02*
G75*
G02*
X12932350Y-11297260I-15000J0D01*
G01*
X12932350Y-11297260D02*
G75*
G02*
X12962350Y-11297260I15000J0D01*
G01*
X12962350Y-11387260D02*
G75*
G02*
X12932350Y-11387260I-15000J0D01*
G01*
X12932350Y-11387260D02*
G75*
G02*
X12962350Y-11387260I15000J0D01*
G01*
X12964500Y-10452461D02*
G75*
G02*
X12934500Y-10452461I-15000J0D01*
G01*
X12934500Y-10452461D02*
G75*
G02*
X12964500Y-10452461I15000J0D01*
G01*
X13052350Y-11297260D02*
G75*
G02*
X13022350Y-11297260I-15000J0D01*
G01*
X13022350Y-11297260D02*
G75*
G02*
X13052350Y-11297260I15000J0D01*
G01*
X13075000Y-10785000D02*
G75*
G02*
X13045000Y-10785000I-15000J0D01*
G01*
X13045000Y-10785000D02*
G75*
G02*
X13075000Y-10785000I15000J0D01*
G01*
X13075000Y-11685000D02*
G75*
G02*
X13045000Y-11685000I-15000J0D01*
G01*
X13045000Y-11685000D02*
G75*
G02*
X13075000Y-11685000I15000J0D01*
G01*
X13165000Y-10685000D02*
G75*
G02*
X13135000Y-10685000I-15000J0D01*
G01*
X13135000Y-10685000D02*
G75*
G02*
X13165000Y-10685000I15000J0D01*
G01*
X13165000Y-10785000D02*
G75*
G02*
X13135000Y-10785000I-15000J0D01*
G01*
X13135000Y-10785000D02*
G75*
G02*
X13165000Y-10785000I15000J0D01*
G01*
X13165000Y-11585000D02*
G75*
G02*
X13135000Y-11585000I-15000J0D01*
G01*
X13135000Y-11585000D02*
G75*
G02*
X13165000Y-11585000I15000J0D01*
G01*
X13165000Y-11685000D02*
G75*
G02*
X13135000Y-11685000I-15000J0D01*
G01*
X13135000Y-11685000D02*
G75*
G02*
X13165000Y-11685000I15000J0D01*
G01*
X13175000Y-11775000D02*
G75*
G02*
X13145000Y-11775000I-15000J0D01*
G01*
X13145000Y-11775000D02*
G75*
G02*
X13175000Y-11775000I15000J0D01*
G01*
X13265000Y-10685000D02*
G75*
G02*
X13235000Y-10685000I-15000J0D01*
G01*
X13235000Y-10685000D02*
G75*
G02*
X13265000Y-10685000I15000J0D01*
G01*
X13265000Y-10785000D02*
G75*
G02*
X13235000Y-10785000I-15000J0D01*
G01*
X13235000Y-10785000D02*
G75*
G02*
X13265000Y-10785000I15000J0D01*
G01*
X13265000Y-10875000D02*
G75*
G02*
X13235000Y-10875000I-15000J0D01*
G01*
X13235000Y-10875000D02*
G75*
G02*
X13265000Y-10875000I15000J0D01*
G01*
X13265000Y-11495000D02*
G75*
G02*
X13235000Y-11495000I-15000J0D01*
G01*
X13235000Y-11495000D02*
G75*
G02*
X13265000Y-11495000I15000J0D01*
G01*
X13265000Y-11585000D02*
G75*
G02*
X13235000Y-11585000I-15000J0D01*
G01*
X13235000Y-11585000D02*
G75*
G02*
X13265000Y-11585000I15000J0D01*
G01*
X13265000Y-11685000D02*
G75*
G02*
X13235000Y-11685000I-15000J0D01*
G01*
X13235000Y-11685000D02*
G75*
G02*
X13265000Y-11685000I15000J0D01*
G01*
X6136437Y-8032996D02*
X6136437Y-8102998D01*
X6101436Y-8067997D02*
X6171439Y-8067997D01*
X6171436Y-8032996D02*
X6101439Y-8032996D01*
X6101439Y-8102998D02*
G75*
G02*
X6101439Y-8032996I0J35001D01*
G01*
X6101439Y-8102998D02*
X6171436Y-8102998D01*
X6171436Y-8102998D02*
G75*
G03*
X6171436Y-8032996I0J35001D01*
G01*
X6136437Y-9432996D02*
X6136437Y-9502998D01*
X6101436Y-9467997D02*
X6171439Y-9467997D01*
X6171436Y-9432996D02*
X6101439Y-9432996D01*
X6101439Y-9502998D02*
G75*
G02*
X6101439Y-9432996I0J35001D01*
G01*
X6101439Y-9502998D02*
X6171436Y-9502998D01*
X6171436Y-9502998D02*
G75*
G03*
X6171436Y-9432996I0J35001D01*
G01*
X6136438Y-8897002D02*
X6136438Y-8967004D01*
X6101436Y-8932003D02*
X6171439Y-8932003D01*
X6171436Y-8897002D02*
X6101439Y-8897002D01*
X6101439Y-8967004D02*
G75*
G02*
X6101439Y-8897002I0J35001D01*
G01*
X6101439Y-8967004D02*
X6171436Y-8967004D01*
X6171436Y-8967004D02*
G75*
G03*
X6171436Y-8897002I0J35001D01*
G01*
X6136438Y-10297002D02*
X6136438Y-10367004D01*
X6101436Y-10332003D02*
X6171439Y-10332003D01*
X6171436Y-10297002D02*
X6101439Y-10297002D01*
X6101439Y-10367004D02*
G75*
G02*
X6101439Y-10297002I0J35001D01*
G01*
X6101439Y-10367004D02*
X6171436Y-10367004D01*
X6171436Y-10367004D02*
G75*
G03*
X6171436Y-10297002I0J35001D01*
G01*
X6554445Y-8032996D02*
X6554445Y-8102998D01*
X6519444Y-8067997D02*
X6589447Y-8067997D01*
X6604444Y-8032996D02*
X6504447Y-8032996D01*
X6504447Y-8102998D02*
G75*
G02*
X6504447Y-8032996I0J35001D01*
G01*
X6504447Y-8102998D02*
X6604444Y-8102998D01*
X6604444Y-8102998D02*
G75*
G03*
X6604444Y-8032996I0J35001D01*
G01*
X6554445Y-8897002D02*
X6554445Y-8967004D01*
X6519444Y-8932003D02*
X6589447Y-8932003D01*
X6604444Y-8897002D02*
X6504447Y-8897002D01*
X6504447Y-8967004D02*
G75*
G02*
X6504447Y-8897002I0J35001D01*
G01*
X6504447Y-8967004D02*
X6604444Y-8967004D01*
X6604444Y-8967004D02*
G75*
G03*
X6604444Y-8897002I0J35001D01*
G01*
X6554445Y-9432996D02*
X6554445Y-9502998D01*
X6519444Y-9467997D02*
X6589447Y-9467997D01*
X6604444Y-9432996D02*
X6504447Y-9432996D01*
X6504447Y-9502998D02*
G75*
G02*
X6504447Y-9432996I0J35001D01*
G01*
X6504447Y-9502998D02*
X6604444Y-9502998D01*
X6604444Y-9502998D02*
G75*
G03*
X6604444Y-9432996I0J35001D01*
G01*
X6554445Y-10297002D02*
X6554445Y-10367004D01*
X6519444Y-10332003D02*
X6589447Y-10332003D01*
X6604444Y-10297002D02*
X6504447Y-10297002D01*
X6504447Y-10367004D02*
G75*
G02*
X6504447Y-10297002I0J35001D01*
G01*
X6504447Y-10367004D02*
X6604444Y-10367004D01*
X6604444Y-10367004D02*
G75*
G03*
X6604444Y-10297002I0J35001D01*
G01*
X8932331Y-13832317D02*
X8932331Y-13767658D01*
X8867673Y-13767658D01*
X8867673Y-13832317D01*
X8932331Y-13832317D01*
X8932331Y-14032316D02*
X8932331Y-13967658D01*
X8867673Y-13967658D01*
X8867673Y-14032316D01*
X8932331Y-14032316D01*
X9132331Y-13832317D02*
X9132331Y-13767658D01*
X9067672Y-13767658D01*
X9067672Y-13832317D01*
X9132331Y-13832317D01*
X9132331Y-14032316D02*
X9132331Y-13967658D01*
X9067672Y-13967658D01*
X9067672Y-14032316D01*
X9132331Y-14032316D01*
X9332330Y-13832317D02*
X9332330Y-13767658D01*
X9267672Y-13767658D01*
X9267672Y-13832317D01*
X9332330Y-13832317D01*
X9332330Y-14032316D02*
X9332330Y-13967658D01*
X9267672Y-13967658D01*
X9267672Y-14032316D01*
X9332330Y-14032316D01*
X9532330Y-13832317D02*
X9532330Y-13767658D01*
X9467671Y-13767658D01*
X9467671Y-13832317D01*
X9532330Y-13832317D01*
X9532330Y-14032316D02*
X9532330Y-13967658D01*
X9467671Y-13967658D01*
X9467671Y-14032316D01*
X9532330Y-14032316D01*
X9732329Y-13832317D02*
X9732329Y-13767658D01*
X9667671Y-13767658D01*
X9667671Y-13832317D01*
X9732329Y-13832317D01*
X9732329Y-14032316D02*
X9732329Y-13967658D01*
X9667671Y-13967658D01*
X9667671Y-14032316D01*
X9732329Y-14032316D01*
X9932329Y-13832317D02*
X9932329Y-13767658D01*
X9867671Y-13767658D01*
X9867671Y-13832317D01*
X9932329Y-13832317D01*
X9932329Y-14032316D02*
X9932329Y-13967658D01*
X9867671Y-13967658D01*
X9867671Y-14032316D01*
X9932329Y-14032316D01*
X10132329Y-13832317D02*
X10132329Y-13767658D01*
X10067670Y-13767658D01*
X10067670Y-13832317D01*
X10132329Y-13832317D01*
X10132329Y-14032316D02*
X10132329Y-13967658D01*
X10067670Y-13967658D01*
X10067670Y-14032316D01*
X10132329Y-14032316D01*
X10332328Y-13832317D02*
X10332328Y-13767658D01*
X10267670Y-13767658D01*
X10267670Y-13832317D01*
X10332328Y-13832317D01*
X10332328Y-14032316D02*
X10332328Y-13967658D01*
X10267670Y-13967658D01*
X10267670Y-14032316D01*
X10332328Y-14032316D01*
X10532328Y-13832317D02*
X10532328Y-13767658D01*
X10467669Y-13767658D01*
X10467669Y-13832317D01*
X10532328Y-13832317D01*
X10532328Y-14032316D02*
X10532328Y-13967658D01*
X10467669Y-13967658D01*
X10467669Y-14032316D01*
X10532328Y-14032316D01*
X10732327Y-13832317D02*
X10732327Y-13767658D01*
X10667669Y-13767658D01*
X10667669Y-13832317D01*
X10732327Y-13832317D01*
X10732327Y-14032316D02*
X10732327Y-13967658D01*
X10667669Y-13967658D01*
X10667669Y-14032316D01*
X10732327Y-14032316D01*
D12*
X12750000Y-7860000D02*
X12810000Y-7800000D01*
X12750000Y-7740000D01*
X12690001Y-7800000D01*
X12750000Y-7860000D01*
X12950000Y-9260000D02*
X13010000Y-9200000D01*
X12950000Y-9140000D01*
X12890001Y-9200000D01*
X12950000Y-9260000D01*
X13249999Y-7860000D02*
X13309999Y-7800000D01*
X13249999Y-7740000D01*
X13190000Y-7800000D01*
X13249999Y-7860000D01*
X13449999Y-9260000D02*
X13509999Y-9200000D01*
X13449999Y-9140000D01*
X13390000Y-9200000D01*
X13449999Y-9260000D01*
D13*
X9711982Y-6260000D02*
X9891981Y-6440000D01*
X9891981Y-6260000D02*
X9711982Y-6440000D01*
X9891981Y-6350000D02*
G75*
G02*
X9711982Y-6350000I-90000J0D01*
G01*
X9711982Y-6350000D02*
G75*
G02*
X9891981Y-6350000I90000J0D01*
G01*
X10108019Y-6260000D02*
X10288018Y-6440000D01*
X10288018Y-6260000D02*
X10108019Y-6440000D01*
X10288018Y-6350000D02*
G75*
G02*
X10108019Y-6350000I-90000J0D01*
G01*
X10108019Y-6350000D02*
G75*
G02*
X10288018Y-6350000I90000J0D01*
G01*
X11315996Y-13810000D02*
X11495995Y-13990000D01*
X11495995Y-13810000D02*
X11315996Y-13990000D01*
X11495995Y-13900000D02*
G75*
G02*
X11315996Y-13900000I-90000J0D01*
G01*
X11315996Y-13900000D02*
G75*
G02*
X11495995Y-13900000I90000J0D01*
G01*
X11712007Y-13810000D02*
X11892007Y-13990000D01*
X11892007Y-13810000D02*
X11712007Y-13990000D01*
X11892007Y-13900000D02*
G75*
G02*
X11712007Y-13900000I-90000J0D01*
G01*
X11712007Y-13900000D02*
G75*
G02*
X11892007Y-13900000I90000J0D01*
G01*
X12108019Y-13810000D02*
X12288018Y-13990000D01*
X12288018Y-13810000D02*
X12108019Y-13990000D01*
X12288018Y-13900000D02*
G75*
G02*
X12108019Y-13900000I-90000J0D01*
G01*
X12108019Y-13900000D02*
G75*
G02*
X12288018Y-13900000I90000J0D01*
G01*
X12504005Y-13810000D02*
X12684004Y-13990000D01*
X12684004Y-13810000D02*
X12504005Y-13990000D01*
X12684004Y-13900000D02*
G75*
G02*
X12504005Y-13900000I-90000J0D01*
G01*
X12504005Y-13900000D02*
G75*
G02*
X12684004Y-13900000I90000J0D01*
G01*
D11*
X5960777Y-14611484D02*
X5960777Y-14411484D01*
X5960777Y-14411484D02*
X6008396Y-14411484D01*
X6008396Y-14411484D02*
X6036967Y-14421008D01*
X6036967Y-14421008D02*
X6056015Y-14440055D01*
X6056015Y-14440055D02*
X6065539Y-14459103D01*
X6065539Y-14459103D02*
X6075062Y-14497198D01*
X6075062Y-14497198D02*
X6075062Y-14525769D01*
X6075062Y-14525769D02*
X6065539Y-14563865D01*
X6065539Y-14563865D02*
X6056015Y-14582912D01*
X6056015Y-14582912D02*
X6036967Y-14601960D01*
X6036967Y-14601960D02*
X6008396Y-14611484D01*
X6008396Y-14611484D02*
X5960777Y-14611484D01*
X6160777Y-14611484D02*
X6160777Y-14478150D01*
X6160777Y-14516246D02*
X6170301Y-14497198D01*
X6170301Y-14497198D02*
X6179824Y-14487674D01*
X6179824Y-14487674D02*
X6198872Y-14478150D01*
X6198872Y-14478150D02*
X6217920Y-14478150D01*
X6284586Y-14611484D02*
X6284586Y-14478150D01*
X6284586Y-14411484D02*
X6275062Y-14421008D01*
X6275062Y-14421008D02*
X6284586Y-14430531D01*
X6284586Y-14430531D02*
X6294110Y-14421008D01*
X6294110Y-14421008D02*
X6284586Y-14411484D01*
X6284586Y-14411484D02*
X6284586Y-14430531D01*
X6408396Y-14611484D02*
X6389348Y-14601960D01*
X6389348Y-14601960D02*
X6379824Y-14582912D01*
X6379824Y-14582912D02*
X6379824Y-14411484D01*
X6513158Y-14611484D02*
X6494110Y-14601960D01*
X6494110Y-14601960D02*
X6484586Y-14582912D01*
X6484586Y-14582912D02*
X6484586Y-14411484D01*
X6741729Y-14611484D02*
X6741729Y-14411484D01*
X6741729Y-14411484D02*
X6808396Y-14554341D01*
X6808396Y-14554341D02*
X6875062Y-14411484D01*
X6875062Y-14411484D02*
X6875062Y-14611484D01*
X7056015Y-14611484D02*
X7056015Y-14506722D01*
X7056015Y-14506722D02*
X7046491Y-14487674D01*
X7046491Y-14487674D02*
X7027443Y-14478150D01*
X7027443Y-14478150D02*
X6989348Y-14478150D01*
X6989348Y-14478150D02*
X6970301Y-14487674D01*
X7056015Y-14601960D02*
X7036967Y-14611484D01*
X7036967Y-14611484D02*
X6989348Y-14611484D01*
X6989348Y-14611484D02*
X6970301Y-14601960D01*
X6970301Y-14601960D02*
X6960777Y-14582912D01*
X6960777Y-14582912D02*
X6960777Y-14563865D01*
X6960777Y-14563865D02*
X6970301Y-14544817D01*
X6970301Y-14544817D02*
X6989348Y-14535293D01*
X6989348Y-14535293D02*
X7036967Y-14535293D01*
X7036967Y-14535293D02*
X7056015Y-14525769D01*
X7151253Y-14478150D02*
X7151253Y-14678150D01*
X7151253Y-14487674D02*
X7170301Y-14478150D01*
X7170301Y-14478150D02*
X7208396Y-14478150D01*
X7208396Y-14478150D02*
X7227443Y-14487674D01*
X7227443Y-14487674D02*
X7236967Y-14497198D01*
X7236967Y-14497198D02*
X7246491Y-14516246D01*
X7246491Y-14516246D02*
X7246491Y-14573388D01*
X7246491Y-14573388D02*
X7236967Y-14592436D01*
X7236967Y-14592436D02*
X7227443Y-14601960D01*
X7227443Y-14601960D02*
X7208396Y-14611484D01*
X7208396Y-14611484D02*
X7170301Y-14611484D01*
X7170301Y-14611484D02*
X7151253Y-14601960D01*
X7332205Y-14592436D02*
X7341729Y-14601960D01*
X7341729Y-14601960D02*
X7332205Y-14611484D01*
X7332205Y-14611484D02*
X7322682Y-14601960D01*
X7322682Y-14601960D02*
X7332205Y-14592436D01*
X7332205Y-14592436D02*
X7332205Y-14611484D01*
X7332205Y-14487674D02*
X7341729Y-14497198D01*
X7341729Y-14497198D02*
X7332205Y-14506722D01*
X7332205Y-14506722D02*
X7322682Y-14497198D01*
X7322682Y-14497198D02*
X7332205Y-14487674D01*
X7332205Y-14487674D02*
X7332205Y-14506722D01*
D10*
X5680000Y-14930000D02*
X5700000Y-14950000D01*
X5700000Y-14930000D02*
X5680000Y-14950000D01*
D11*
X5998872Y-14831484D02*
X6017920Y-14831484D01*
X6017920Y-14831484D02*
X6036967Y-14841008D01*
X6036967Y-14841008D02*
X6046491Y-14850531D01*
X6046491Y-14850531D02*
X6056015Y-14869579D01*
X6056015Y-14869579D02*
X6065539Y-14907674D01*
X6065539Y-14907674D02*
X6065539Y-14955293D01*
X6065539Y-14955293D02*
X6056015Y-14993388D01*
X6056015Y-14993388D02*
X6046491Y-15012436D01*
X6046491Y-15012436D02*
X6036967Y-15021960D01*
X6036967Y-15021960D02*
X6017920Y-15031484D01*
X6017920Y-15031484D02*
X5998872Y-15031484D01*
X5998872Y-15031484D02*
X5979824Y-15021960D01*
X5979824Y-15021960D02*
X5970301Y-15012436D01*
X5970301Y-15012436D02*
X5960777Y-14993388D01*
X5960777Y-14993388D02*
X5951253Y-14955293D01*
X5951253Y-14955293D02*
X5951253Y-14907674D01*
X5951253Y-14907674D02*
X5960777Y-14869579D01*
X5960777Y-14869579D02*
X5970301Y-14850531D01*
X5970301Y-14850531D02*
X5979824Y-14841008D01*
X5979824Y-14841008D02*
X5998872Y-14831484D01*
X6151253Y-15012436D02*
X6160777Y-15021960D01*
X6160777Y-15021960D02*
X6151253Y-15031484D01*
X6151253Y-15031484D02*
X6141729Y-15021960D01*
X6141729Y-15021960D02*
X6151253Y-15012436D01*
X6151253Y-15012436D02*
X6151253Y-15031484D01*
X6236967Y-14850531D02*
X6246491Y-14841008D01*
X6246491Y-14841008D02*
X6265539Y-14831484D01*
X6265539Y-14831484D02*
X6313158Y-14831484D01*
X6313158Y-14831484D02*
X6332205Y-14841008D01*
X6332205Y-14841008D02*
X6341729Y-14850531D01*
X6341729Y-14850531D02*
X6351253Y-14869579D01*
X6351253Y-14869579D02*
X6351253Y-14888627D01*
X6351253Y-14888627D02*
X6341729Y-14917198D01*
X6341729Y-14917198D02*
X6227443Y-15031484D01*
X6227443Y-15031484D02*
X6351253Y-15031484D01*
X6475062Y-14831484D02*
X6494110Y-14831484D01*
X6494110Y-14831484D02*
X6513158Y-14841008D01*
X6513158Y-14841008D02*
X6522682Y-14850531D01*
X6522682Y-14850531D02*
X6532205Y-14869579D01*
X6532205Y-14869579D02*
X6541729Y-14907674D01*
X6541729Y-14907674D02*
X6541729Y-14955293D01*
X6541729Y-14955293D02*
X6532205Y-14993388D01*
X6532205Y-14993388D02*
X6522682Y-15012436D01*
X6522682Y-15012436D02*
X6513158Y-15021960D01*
X6513158Y-15021960D02*
X6494110Y-15031484D01*
X6494110Y-15031484D02*
X6475062Y-15031484D01*
X6475062Y-15031484D02*
X6456015Y-15021960D01*
X6456015Y-15021960D02*
X6446491Y-15012436D01*
X6446491Y-15012436D02*
X6436967Y-14993388D01*
X6436967Y-14993388D02*
X6427443Y-14955293D01*
X6427443Y-14955293D02*
X6427443Y-14907674D01*
X6427443Y-14907674D02*
X6436967Y-14869579D01*
X6436967Y-14869579D02*
X6446491Y-14850531D01*
X6446491Y-14850531D02*
X6456015Y-14841008D01*
X6456015Y-14841008D02*
X6475062Y-14831484D01*
X6665539Y-14831484D02*
X6684586Y-14831484D01*
X6684586Y-14831484D02*
X6703634Y-14841008D01*
X6703634Y-14841008D02*
X6713158Y-14850531D01*
X6713158Y-14850531D02*
X6722682Y-14869579D01*
X6722682Y-14869579D02*
X6732205Y-14907674D01*
X6732205Y-14907674D02*
X6732205Y-14955293D01*
X6732205Y-14955293D02*
X6722682Y-14993388D01*
X6722682Y-14993388D02*
X6713158Y-15012436D01*
X6713158Y-15012436D02*
X6703634Y-15021960D01*
X6703634Y-15021960D02*
X6684586Y-15031484D01*
X6684586Y-15031484D02*
X6665539Y-15031484D01*
X6665539Y-15031484D02*
X6646491Y-15021960D01*
X6646491Y-15021960D02*
X6636967Y-15012436D01*
X6636967Y-15012436D02*
X6627443Y-14993388D01*
X6627443Y-14993388D02*
X6617920Y-14955293D01*
X6617920Y-14955293D02*
X6617920Y-14907674D01*
X6617920Y-14907674D02*
X6627443Y-14869579D01*
X6627443Y-14869579D02*
X6636967Y-14850531D01*
X6636967Y-14850531D02*
X6646491Y-14841008D01*
X6646491Y-14841008D02*
X6665539Y-14831484D01*
X6817920Y-15031484D02*
X6817920Y-14898150D01*
X6817920Y-14917198D02*
X6827443Y-14907674D01*
X6827443Y-14907674D02*
X6846491Y-14898150D01*
X6846491Y-14898150D02*
X6875063Y-14898150D01*
X6875063Y-14898150D02*
X6894110Y-14907674D01*
X6894110Y-14907674D02*
X6903634Y-14926722D01*
X6903634Y-14926722D02*
X6903634Y-15031484D01*
X6903634Y-14926722D02*
X6913158Y-14907674D01*
X6913158Y-14907674D02*
X6932205Y-14898150D01*
X6932205Y-14898150D02*
X6960777Y-14898150D01*
X6960777Y-14898150D02*
X6979824Y-14907674D01*
X6979824Y-14907674D02*
X6989348Y-14926722D01*
X6989348Y-14926722D02*
X6989348Y-15031484D01*
X7084586Y-15031484D02*
X7084586Y-14898150D01*
X7084586Y-14917198D02*
X7094110Y-14907674D01*
X7094110Y-14907674D02*
X7113158Y-14898150D01*
X7113158Y-14898150D02*
X7141729Y-14898150D01*
X7141729Y-14898150D02*
X7160777Y-14907674D01*
X7160777Y-14907674D02*
X7170301Y-14926722D01*
X7170301Y-14926722D02*
X7170301Y-15031484D01*
X7170301Y-14926722D02*
X7179824Y-14907674D01*
X7179824Y-14907674D02*
X7198872Y-14898150D01*
X7198872Y-14898150D02*
X7227443Y-14898150D01*
X7227443Y-14898150D02*
X7246491Y-14907674D01*
X7246491Y-14907674D02*
X7256015Y-14926722D01*
X7256015Y-14926722D02*
X7256015Y-15031484D01*
X7646491Y-14821960D02*
X7475063Y-15079103D01*
X7903634Y-14831484D02*
X7922682Y-14831484D01*
X7922682Y-14831484D02*
X7941729Y-14841008D01*
X7941729Y-14841008D02*
X7951253Y-14850531D01*
X7951253Y-14850531D02*
X7960777Y-14869579D01*
X7960777Y-14869579D02*
X7970301Y-14907674D01*
X7970301Y-14907674D02*
X7970301Y-14955293D01*
X7970301Y-14955293D02*
X7960777Y-14993388D01*
X7960777Y-14993388D02*
X7951253Y-15012436D01*
X7951253Y-15012436D02*
X7941729Y-15021960D01*
X7941729Y-15021960D02*
X7922682Y-15031484D01*
X7922682Y-15031484D02*
X7903634Y-15031484D01*
X7903634Y-15031484D02*
X7884586Y-15021960D01*
X7884586Y-15021960D02*
X7875063Y-15012436D01*
X7875063Y-15012436D02*
X7865539Y-14993388D01*
X7865539Y-14993388D02*
X7856015Y-14955293D01*
X7856015Y-14955293D02*
X7856015Y-14907674D01*
X7856015Y-14907674D02*
X7865539Y-14869579D01*
X7865539Y-14869579D02*
X7875063Y-14850531D01*
X7875063Y-14850531D02*
X7884586Y-14841008D01*
X7884586Y-14841008D02*
X7903634Y-14831484D01*
X8056015Y-15012436D02*
X8065539Y-15021960D01*
X8065539Y-15021960D02*
X8056015Y-15031484D01*
X8056015Y-15031484D02*
X8046491Y-15021960D01*
X8046491Y-15021960D02*
X8056015Y-15012436D01*
X8056015Y-15012436D02*
X8056015Y-15031484D01*
X8189348Y-14831484D02*
X8208396Y-14831484D01*
X8208396Y-14831484D02*
X8227444Y-14841008D01*
X8227444Y-14841008D02*
X8236967Y-14850531D01*
X8236967Y-14850531D02*
X8246491Y-14869579D01*
X8246491Y-14869579D02*
X8256015Y-14907674D01*
X8256015Y-14907674D02*
X8256015Y-14955293D01*
X8256015Y-14955293D02*
X8246491Y-14993388D01*
X8246491Y-14993388D02*
X8236967Y-15012436D01*
X8236967Y-15012436D02*
X8227444Y-15021960D01*
X8227444Y-15021960D02*
X8208396Y-15031484D01*
X8208396Y-15031484D02*
X8189348Y-15031484D01*
X8189348Y-15031484D02*
X8170301Y-15021960D01*
X8170301Y-15021960D02*
X8160777Y-15012436D01*
X8160777Y-15012436D02*
X8151253Y-14993388D01*
X8151253Y-14993388D02*
X8141729Y-14955293D01*
X8141729Y-14955293D02*
X8141729Y-14907674D01*
X8141729Y-14907674D02*
X8151253Y-14869579D01*
X8151253Y-14869579D02*
X8160777Y-14850531D01*
X8160777Y-14850531D02*
X8170301Y-14841008D01*
X8170301Y-14841008D02*
X8189348Y-14831484D01*
X8379825Y-14831484D02*
X8398872Y-14831484D01*
X8398872Y-14831484D02*
X8417920Y-14841008D01*
X8417920Y-14841008D02*
X8427444Y-14850531D01*
X8427444Y-14850531D02*
X8436968Y-14869579D01*
X8436968Y-14869579D02*
X8446491Y-14907674D01*
X8446491Y-14907674D02*
X8446491Y-14955293D01*
X8446491Y-14955293D02*
X8436968Y-14993388D01*
X8436968Y-14993388D02*
X8427444Y-15012436D01*
X8427444Y-15012436D02*
X8417920Y-15021960D01*
X8417920Y-15021960D02*
X8398872Y-15031484D01*
X8398872Y-15031484D02*
X8379825Y-15031484D01*
X8379825Y-15031484D02*
X8360777Y-15021960D01*
X8360777Y-15021960D02*
X8351253Y-15012436D01*
X8351253Y-15012436D02*
X8341729Y-14993388D01*
X8341729Y-14993388D02*
X8332206Y-14955293D01*
X8332206Y-14955293D02*
X8332206Y-14907674D01*
X8332206Y-14907674D02*
X8341729Y-14869579D01*
X8341729Y-14869579D02*
X8351253Y-14850531D01*
X8351253Y-14850531D02*
X8360777Y-14841008D01*
X8360777Y-14841008D02*
X8379825Y-14831484D01*
X8513158Y-14831484D02*
X8646491Y-14831484D01*
X8646491Y-14831484D02*
X8560777Y-15031484D01*
X8732206Y-15031484D02*
X8770301Y-15031484D01*
X8770301Y-15031484D02*
X8789349Y-15021960D01*
X8789349Y-15021960D02*
X8798872Y-15012436D01*
X8798872Y-15012436D02*
X8817920Y-14983865D01*
X8817920Y-14983865D02*
X8827444Y-14945769D01*
X8827444Y-14945769D02*
X8827444Y-14869579D01*
X8827444Y-14869579D02*
X8817920Y-14850531D01*
X8817920Y-14850531D02*
X8808396Y-14841008D01*
X8808396Y-14841008D02*
X8789349Y-14831484D01*
X8789349Y-14831484D02*
X8751253Y-14831484D01*
X8751253Y-14831484D02*
X8732206Y-14841008D01*
X8732206Y-14841008D02*
X8722682Y-14850531D01*
X8722682Y-14850531D02*
X8713158Y-14869579D01*
X8713158Y-14869579D02*
X8713158Y-14917198D01*
X8713158Y-14917198D02*
X8722682Y-14936246D01*
X8722682Y-14936246D02*
X8732206Y-14945769D01*
X8732206Y-14945769D02*
X8751253Y-14955293D01*
X8751253Y-14955293D02*
X8789349Y-14955293D01*
X8789349Y-14955293D02*
X8808396Y-14945769D01*
X8808396Y-14945769D02*
X8817920Y-14936246D01*
X8817920Y-14936246D02*
X8827444Y-14917198D01*
X8903634Y-14831484D02*
X8903634Y-14869579D01*
X8979825Y-14831484D02*
X8979825Y-14869579D01*
X9275063Y-15107674D02*
X9265539Y-15098150D01*
X9265539Y-15098150D02*
X9246491Y-15069579D01*
X9246491Y-15069579D02*
X9236968Y-15050531D01*
X9236968Y-15050531D02*
X9227444Y-15021960D01*
X9227444Y-15021960D02*
X9217920Y-14974341D01*
X9217920Y-14974341D02*
X9217920Y-14936246D01*
X9217920Y-14936246D02*
X9227444Y-14888627D01*
X9227444Y-14888627D02*
X9236968Y-14860055D01*
X9236968Y-14860055D02*
X9246491Y-14841008D01*
X9246491Y-14841008D02*
X9265539Y-14812436D01*
X9265539Y-14812436D02*
X9275063Y-14802912D01*
X9332206Y-14831484D02*
X9456015Y-14831484D01*
X9456015Y-14831484D02*
X9389349Y-14907674D01*
X9389349Y-14907674D02*
X9417920Y-14907674D01*
X9417920Y-14907674D02*
X9436968Y-14917198D01*
X9436968Y-14917198D02*
X9446491Y-14926722D01*
X9446491Y-14926722D02*
X9456015Y-14945769D01*
X9456015Y-14945769D02*
X9456015Y-14993388D01*
X9456015Y-14993388D02*
X9446491Y-15012436D01*
X9446491Y-15012436D02*
X9436968Y-15021960D01*
X9436968Y-15021960D02*
X9417920Y-15031484D01*
X9417920Y-15031484D02*
X9360777Y-15031484D01*
X9360777Y-15031484D02*
X9341730Y-15021960D01*
X9341730Y-15021960D02*
X9332206Y-15012436D01*
X9570301Y-14917198D02*
X9551253Y-14907674D01*
X9551253Y-14907674D02*
X9541730Y-14898150D01*
X9541730Y-14898150D02*
X9532206Y-14879103D01*
X9532206Y-14879103D02*
X9532206Y-14869579D01*
X9532206Y-14869579D02*
X9541730Y-14850531D01*
X9541730Y-14850531D02*
X9551253Y-14841008D01*
X9551253Y-14841008D02*
X9570301Y-14831484D01*
X9570301Y-14831484D02*
X9608396Y-14831484D01*
X9608396Y-14831484D02*
X9627444Y-14841008D01*
X9627444Y-14841008D02*
X9636968Y-14850531D01*
X9636968Y-14850531D02*
X9646491Y-14869579D01*
X9646491Y-14869579D02*
X9646491Y-14879103D01*
X9646491Y-14879103D02*
X9636968Y-14898150D01*
X9636968Y-14898150D02*
X9627444Y-14907674D01*
X9627444Y-14907674D02*
X9608396Y-14917198D01*
X9608396Y-14917198D02*
X9570301Y-14917198D01*
X9570301Y-14917198D02*
X9551253Y-14926722D01*
X9551253Y-14926722D02*
X9541730Y-14936246D01*
X9541730Y-14936246D02*
X9532206Y-14955293D01*
X9532206Y-14955293D02*
X9532206Y-14993388D01*
X9532206Y-14993388D02*
X9541730Y-15012436D01*
X9541730Y-15012436D02*
X9551253Y-15021960D01*
X9551253Y-15021960D02*
X9570301Y-15031484D01*
X9570301Y-15031484D02*
X9608396Y-15031484D01*
X9608396Y-15031484D02*
X9627444Y-15021960D01*
X9627444Y-15021960D02*
X9636968Y-15012436D01*
X9636968Y-15012436D02*
X9646491Y-14993388D01*
X9646491Y-14993388D02*
X9646491Y-14955293D01*
X9646491Y-14955293D02*
X9636968Y-14936246D01*
X9636968Y-14936246D02*
X9627444Y-14926722D01*
X9627444Y-14926722D02*
X9608396Y-14917198D01*
X9836968Y-15031484D02*
X9722682Y-15031484D01*
X9779825Y-15031484D02*
X9779825Y-14831484D01*
X9779825Y-14831484D02*
X9760777Y-14860055D01*
X9760777Y-14860055D02*
X9741730Y-14879103D01*
X9741730Y-14879103D02*
X9722682Y-14888627D01*
X10075063Y-15031484D02*
X10075063Y-14831484D01*
X10160777Y-15031484D02*
X10160777Y-14926722D01*
X10160777Y-14926722D02*
X10151253Y-14907674D01*
X10151253Y-14907674D02*
X10132206Y-14898150D01*
X10132206Y-14898150D02*
X10103634Y-14898150D01*
X10103634Y-14898150D02*
X10084587Y-14907674D01*
X10084587Y-14907674D02*
X10075063Y-14917198D01*
X10284587Y-15031484D02*
X10265539Y-15021960D01*
X10265539Y-15021960D02*
X10256015Y-15012436D01*
X10256015Y-15012436D02*
X10246492Y-14993388D01*
X10246492Y-14993388D02*
X10246492Y-14936246D01*
X10246492Y-14936246D02*
X10256015Y-14917198D01*
X10256015Y-14917198D02*
X10265539Y-14907674D01*
X10265539Y-14907674D02*
X10284587Y-14898150D01*
X10284587Y-14898150D02*
X10313158Y-14898150D01*
X10313158Y-14898150D02*
X10332206Y-14907674D01*
X10332206Y-14907674D02*
X10341730Y-14917198D01*
X10341730Y-14917198D02*
X10351253Y-14936246D01*
X10351253Y-14936246D02*
X10351253Y-14993388D01*
X10351253Y-14993388D02*
X10341730Y-15012436D01*
X10341730Y-15012436D02*
X10332206Y-15021960D01*
X10332206Y-15021960D02*
X10313158Y-15031484D01*
X10313158Y-15031484D02*
X10284587Y-15031484D01*
X10465539Y-15031484D02*
X10446492Y-15021960D01*
X10446492Y-15021960D02*
X10436968Y-15002912D01*
X10436968Y-15002912D02*
X10436968Y-14831484D01*
X10617920Y-15021960D02*
X10598873Y-15031484D01*
X10598873Y-15031484D02*
X10560777Y-15031484D01*
X10560777Y-15031484D02*
X10541730Y-15021960D01*
X10541730Y-15021960D02*
X10532206Y-15002912D01*
X10532206Y-15002912D02*
X10532206Y-14926722D01*
X10532206Y-14926722D02*
X10541730Y-14907674D01*
X10541730Y-14907674D02*
X10560777Y-14898150D01*
X10560777Y-14898150D02*
X10598873Y-14898150D01*
X10598873Y-14898150D02*
X10617920Y-14907674D01*
X10617920Y-14907674D02*
X10627444Y-14926722D01*
X10627444Y-14926722D02*
X10627444Y-14945769D01*
X10627444Y-14945769D02*
X10532206Y-14964817D01*
X10703634Y-15021960D02*
X10722682Y-15031484D01*
X10722682Y-15031484D02*
X10760777Y-15031484D01*
X10760777Y-15031484D02*
X10779825Y-15021960D01*
X10779825Y-15021960D02*
X10789349Y-15002912D01*
X10789349Y-15002912D02*
X10789349Y-14993388D01*
X10789349Y-14993388D02*
X10779825Y-14974341D01*
X10779825Y-14974341D02*
X10760777Y-14964817D01*
X10760777Y-14964817D02*
X10732206Y-14964817D01*
X10732206Y-14964817D02*
X10713158Y-14955293D01*
X10713158Y-14955293D02*
X10703634Y-14936246D01*
X10703634Y-14936246D02*
X10703634Y-14926722D01*
X10703634Y-14926722D02*
X10713158Y-14907674D01*
X10713158Y-14907674D02*
X10732206Y-14898150D01*
X10732206Y-14898150D02*
X10760777Y-14898150D01*
X10760777Y-14898150D02*
X10779825Y-14907674D01*
X10856015Y-15107674D02*
X10865539Y-15098150D01*
X10865539Y-15098150D02*
X10884587Y-15069579D01*
X10884587Y-15069579D02*
X10894111Y-15050531D01*
X10894111Y-15050531D02*
X10903634Y-15021960D01*
X10903634Y-15021960D02*
X10913158Y-14974341D01*
X10913158Y-14974341D02*
X10913158Y-14936246D01*
X10913158Y-14936246D02*
X10903634Y-14888627D01*
X10903634Y-14888627D02*
X10894111Y-14860055D01*
X10894111Y-14860055D02*
X10884587Y-14841008D01*
X10884587Y-14841008D02*
X10865539Y-14812436D01*
X10865539Y-14812436D02*
X10856015Y-14802912D01*
D10*
X5700000Y-15204000D02*
G75*
G02*
X5670000Y-15204000I-15000J0D01*
G01*
X5670000Y-15204000D02*
G75*
G02*
X5700000Y-15204000I15000J0D01*
G01*
D11*
X5998872Y-15095484D02*
X6017920Y-15095484D01*
X6017920Y-15095484D02*
X6036967Y-15105008D01*
X6036967Y-15105008D02*
X6046491Y-15114531D01*
X6046491Y-15114531D02*
X6056015Y-15133579D01*
X6056015Y-15133579D02*
X6065539Y-15171674D01*
X6065539Y-15171674D02*
X6065539Y-15219293D01*
X6065539Y-15219293D02*
X6056015Y-15257388D01*
X6056015Y-15257388D02*
X6046491Y-15276436D01*
X6046491Y-15276436D02*
X6036967Y-15285960D01*
X6036967Y-15285960D02*
X6017920Y-15295484D01*
X6017920Y-15295484D02*
X5998872Y-15295484D01*
X5998872Y-15295484D02*
X5979824Y-15285960D01*
X5979824Y-15285960D02*
X5970301Y-15276436D01*
X5970301Y-15276436D02*
X5960777Y-15257388D01*
X5960777Y-15257388D02*
X5951253Y-15219293D01*
X5951253Y-15219293D02*
X5951253Y-15171674D01*
X5951253Y-15171674D02*
X5960777Y-15133579D01*
X5960777Y-15133579D02*
X5970301Y-15114531D01*
X5970301Y-15114531D02*
X5979824Y-15105008D01*
X5979824Y-15105008D02*
X5998872Y-15095484D01*
X6151253Y-15276436D02*
X6160777Y-15285960D01*
X6160777Y-15285960D02*
X6151253Y-15295484D01*
X6151253Y-15295484D02*
X6141729Y-15285960D01*
X6141729Y-15285960D02*
X6151253Y-15276436D01*
X6151253Y-15276436D02*
X6151253Y-15295484D01*
X6227443Y-15095484D02*
X6351253Y-15095484D01*
X6351253Y-15095484D02*
X6284586Y-15171674D01*
X6284586Y-15171674D02*
X6313158Y-15171674D01*
X6313158Y-15171674D02*
X6332205Y-15181198D01*
X6332205Y-15181198D02*
X6341729Y-15190722D01*
X6341729Y-15190722D02*
X6351253Y-15209769D01*
X6351253Y-15209769D02*
X6351253Y-15257388D01*
X6351253Y-15257388D02*
X6341729Y-15276436D01*
X6341729Y-15276436D02*
X6332205Y-15285960D01*
X6332205Y-15285960D02*
X6313158Y-15295484D01*
X6313158Y-15295484D02*
X6256015Y-15295484D01*
X6256015Y-15295484D02*
X6236967Y-15285960D01*
X6236967Y-15285960D02*
X6227443Y-15276436D01*
X6475062Y-15095484D02*
X6494110Y-15095484D01*
X6494110Y-15095484D02*
X6513158Y-15105008D01*
X6513158Y-15105008D02*
X6522682Y-15114531D01*
X6522682Y-15114531D02*
X6532205Y-15133579D01*
X6532205Y-15133579D02*
X6541729Y-15171674D01*
X6541729Y-15171674D02*
X6541729Y-15219293D01*
X6541729Y-15219293D02*
X6532205Y-15257388D01*
X6532205Y-15257388D02*
X6522682Y-15276436D01*
X6522682Y-15276436D02*
X6513158Y-15285960D01*
X6513158Y-15285960D02*
X6494110Y-15295484D01*
X6494110Y-15295484D02*
X6475062Y-15295484D01*
X6475062Y-15295484D02*
X6456015Y-15285960D01*
X6456015Y-15285960D02*
X6446491Y-15276436D01*
X6446491Y-15276436D02*
X6436967Y-15257388D01*
X6436967Y-15257388D02*
X6427443Y-15219293D01*
X6427443Y-15219293D02*
X6427443Y-15171674D01*
X6427443Y-15171674D02*
X6436967Y-15133579D01*
X6436967Y-15133579D02*
X6446491Y-15114531D01*
X6446491Y-15114531D02*
X6456015Y-15105008D01*
X6456015Y-15105008D02*
X6475062Y-15095484D01*
X6665539Y-15095484D02*
X6684586Y-15095484D01*
X6684586Y-15095484D02*
X6703634Y-15105008D01*
X6703634Y-15105008D02*
X6713158Y-15114531D01*
X6713158Y-15114531D02*
X6722682Y-15133579D01*
X6722682Y-15133579D02*
X6732205Y-15171674D01*
X6732205Y-15171674D02*
X6732205Y-15219293D01*
X6732205Y-15219293D02*
X6722682Y-15257388D01*
X6722682Y-15257388D02*
X6713158Y-15276436D01*
X6713158Y-15276436D02*
X6703634Y-15285960D01*
X6703634Y-15285960D02*
X6684586Y-15295484D01*
X6684586Y-15295484D02*
X6665539Y-15295484D01*
X6665539Y-15295484D02*
X6646491Y-15285960D01*
X6646491Y-15285960D02*
X6636967Y-15276436D01*
X6636967Y-15276436D02*
X6627443Y-15257388D01*
X6627443Y-15257388D02*
X6617920Y-15219293D01*
X6617920Y-15219293D02*
X6617920Y-15171674D01*
X6617920Y-15171674D02*
X6627443Y-15133579D01*
X6627443Y-15133579D02*
X6636967Y-15114531D01*
X6636967Y-15114531D02*
X6646491Y-15105008D01*
X6646491Y-15105008D02*
X6665539Y-15095484D01*
X6817920Y-15295484D02*
X6817920Y-15162150D01*
X6817920Y-15181198D02*
X6827443Y-15171674D01*
X6827443Y-15171674D02*
X6846491Y-15162150D01*
X6846491Y-15162150D02*
X6875063Y-15162150D01*
X6875063Y-15162150D02*
X6894110Y-15171674D01*
X6894110Y-15171674D02*
X6903634Y-15190722D01*
X6903634Y-15190722D02*
X6903634Y-15295484D01*
X6903634Y-15190722D02*
X6913158Y-15171674D01*
X6913158Y-15171674D02*
X6932205Y-15162150D01*
X6932205Y-15162150D02*
X6960777Y-15162150D01*
X6960777Y-15162150D02*
X6979824Y-15171674D01*
X6979824Y-15171674D02*
X6989348Y-15190722D01*
X6989348Y-15190722D02*
X6989348Y-15295484D01*
X7084586Y-15295484D02*
X7084586Y-15162150D01*
X7084586Y-15181198D02*
X7094110Y-15171674D01*
X7094110Y-15171674D02*
X7113158Y-15162150D01*
X7113158Y-15162150D02*
X7141729Y-15162150D01*
X7141729Y-15162150D02*
X7160777Y-15171674D01*
X7160777Y-15171674D02*
X7170301Y-15190722D01*
X7170301Y-15190722D02*
X7170301Y-15295484D01*
X7170301Y-15190722D02*
X7179824Y-15171674D01*
X7179824Y-15171674D02*
X7198872Y-15162150D01*
X7198872Y-15162150D02*
X7227443Y-15162150D01*
X7227443Y-15162150D02*
X7246491Y-15171674D01*
X7246491Y-15171674D02*
X7256015Y-15190722D01*
X7256015Y-15190722D02*
X7256015Y-15295484D01*
X7646491Y-15085960D02*
X7475063Y-15343103D01*
X7903634Y-15095484D02*
X7922682Y-15095484D01*
X7922682Y-15095484D02*
X7941729Y-15105008D01*
X7941729Y-15105008D02*
X7951253Y-15114531D01*
X7951253Y-15114531D02*
X7960777Y-15133579D01*
X7960777Y-15133579D02*
X7970301Y-15171674D01*
X7970301Y-15171674D02*
X7970301Y-15219293D01*
X7970301Y-15219293D02*
X7960777Y-15257388D01*
X7960777Y-15257388D02*
X7951253Y-15276436D01*
X7951253Y-15276436D02*
X7941729Y-15285960D01*
X7941729Y-15285960D02*
X7922682Y-15295484D01*
X7922682Y-15295484D02*
X7903634Y-15295484D01*
X7903634Y-15295484D02*
X7884586Y-15285960D01*
X7884586Y-15285960D02*
X7875063Y-15276436D01*
X7875063Y-15276436D02*
X7865539Y-15257388D01*
X7865539Y-15257388D02*
X7856015Y-15219293D01*
X7856015Y-15219293D02*
X7856015Y-15171674D01*
X7856015Y-15171674D02*
X7865539Y-15133579D01*
X7865539Y-15133579D02*
X7875063Y-15114531D01*
X7875063Y-15114531D02*
X7884586Y-15105008D01*
X7884586Y-15105008D02*
X7903634Y-15095484D01*
X8056015Y-15276436D02*
X8065539Y-15285960D01*
X8065539Y-15285960D02*
X8056015Y-15295484D01*
X8056015Y-15295484D02*
X8046491Y-15285960D01*
X8046491Y-15285960D02*
X8056015Y-15276436D01*
X8056015Y-15276436D02*
X8056015Y-15295484D01*
X8189348Y-15095484D02*
X8208396Y-15095484D01*
X8208396Y-15095484D02*
X8227444Y-15105008D01*
X8227444Y-15105008D02*
X8236967Y-15114531D01*
X8236967Y-15114531D02*
X8246491Y-15133579D01*
X8246491Y-15133579D02*
X8256015Y-15171674D01*
X8256015Y-15171674D02*
X8256015Y-15219293D01*
X8256015Y-15219293D02*
X8246491Y-15257388D01*
X8246491Y-15257388D02*
X8236967Y-15276436D01*
X8236967Y-15276436D02*
X8227444Y-15285960D01*
X8227444Y-15285960D02*
X8208396Y-15295484D01*
X8208396Y-15295484D02*
X8189348Y-15295484D01*
X8189348Y-15295484D02*
X8170301Y-15285960D01*
X8170301Y-15285960D02*
X8160777Y-15276436D01*
X8160777Y-15276436D02*
X8151253Y-15257388D01*
X8151253Y-15257388D02*
X8141729Y-15219293D01*
X8141729Y-15219293D02*
X8141729Y-15171674D01*
X8141729Y-15171674D02*
X8151253Y-15133579D01*
X8151253Y-15133579D02*
X8160777Y-15114531D01*
X8160777Y-15114531D02*
X8170301Y-15105008D01*
X8170301Y-15105008D02*
X8189348Y-15095484D01*
X8446491Y-15295484D02*
X8332206Y-15295484D01*
X8389348Y-15295484D02*
X8389348Y-15095484D01*
X8389348Y-15095484D02*
X8370301Y-15124055D01*
X8370301Y-15124055D02*
X8351253Y-15143103D01*
X8351253Y-15143103D02*
X8332206Y-15152627D01*
X8636968Y-15295484D02*
X8522682Y-15295484D01*
X8579825Y-15295484D02*
X8579825Y-15095484D01*
X8579825Y-15095484D02*
X8560777Y-15124055D01*
X8560777Y-15124055D02*
X8541729Y-15143103D01*
X8541729Y-15143103D02*
X8522682Y-15152627D01*
X8751253Y-15181198D02*
X8732206Y-15171674D01*
X8732206Y-15171674D02*
X8722682Y-15162150D01*
X8722682Y-15162150D02*
X8713158Y-15143103D01*
X8713158Y-15143103D02*
X8713158Y-15133579D01*
X8713158Y-15133579D02*
X8722682Y-15114531D01*
X8722682Y-15114531D02*
X8732206Y-15105008D01*
X8732206Y-15105008D02*
X8751253Y-15095484D01*
X8751253Y-15095484D02*
X8789349Y-15095484D01*
X8789349Y-15095484D02*
X8808396Y-15105008D01*
X8808396Y-15105008D02*
X8817920Y-15114531D01*
X8817920Y-15114531D02*
X8827444Y-15133579D01*
X8827444Y-15133579D02*
X8827444Y-15143103D01*
X8827444Y-15143103D02*
X8817920Y-15162150D01*
X8817920Y-15162150D02*
X8808396Y-15171674D01*
X8808396Y-15171674D02*
X8789349Y-15181198D01*
X8789349Y-15181198D02*
X8751253Y-15181198D01*
X8751253Y-15181198D02*
X8732206Y-15190722D01*
X8732206Y-15190722D02*
X8722682Y-15200246D01*
X8722682Y-15200246D02*
X8713158Y-15219293D01*
X8713158Y-15219293D02*
X8713158Y-15257388D01*
X8713158Y-15257388D02*
X8722682Y-15276436D01*
X8722682Y-15276436D02*
X8732206Y-15285960D01*
X8732206Y-15285960D02*
X8751253Y-15295484D01*
X8751253Y-15295484D02*
X8789349Y-15295484D01*
X8789349Y-15295484D02*
X8808396Y-15285960D01*
X8808396Y-15285960D02*
X8817920Y-15276436D01*
X8817920Y-15276436D02*
X8827444Y-15257388D01*
X8827444Y-15257388D02*
X8827444Y-15219293D01*
X8827444Y-15219293D02*
X8817920Y-15200246D01*
X8817920Y-15200246D02*
X8808396Y-15190722D01*
X8808396Y-15190722D02*
X8789349Y-15181198D01*
X8903634Y-15095484D02*
X8903634Y-15133579D01*
X8979825Y-15095484D02*
X8979825Y-15133579D01*
X9275063Y-15371674D02*
X9265539Y-15362150D01*
X9265539Y-15362150D02*
X9246491Y-15333579D01*
X9246491Y-15333579D02*
X9236968Y-15314531D01*
X9236968Y-15314531D02*
X9227444Y-15285960D01*
X9227444Y-15285960D02*
X9217920Y-15238341D01*
X9217920Y-15238341D02*
X9217920Y-15200246D01*
X9217920Y-15200246D02*
X9227444Y-15152627D01*
X9227444Y-15152627D02*
X9236968Y-15124055D01*
X9236968Y-15124055D02*
X9246491Y-15105008D01*
X9246491Y-15105008D02*
X9265539Y-15076436D01*
X9265539Y-15076436D02*
X9275063Y-15066912D01*
X9456015Y-15295484D02*
X9341730Y-15295484D01*
X9398872Y-15295484D02*
X9398872Y-15095484D01*
X9398872Y-15095484D02*
X9379825Y-15124055D01*
X9379825Y-15124055D02*
X9360777Y-15143103D01*
X9360777Y-15143103D02*
X9341730Y-15152627D01*
X9627444Y-15162150D02*
X9627444Y-15295484D01*
X9579825Y-15085960D02*
X9532206Y-15228817D01*
X9532206Y-15228817D02*
X9656015Y-15228817D01*
X9741730Y-15295484D02*
X9779825Y-15295484D01*
X9779825Y-15295484D02*
X9798872Y-15285960D01*
X9798872Y-15285960D02*
X9808396Y-15276436D01*
X9808396Y-15276436D02*
X9827444Y-15247865D01*
X9827444Y-15247865D02*
X9836968Y-15209769D01*
X9836968Y-15209769D02*
X9836968Y-15133579D01*
X9836968Y-15133579D02*
X9827444Y-15114531D01*
X9827444Y-15114531D02*
X9817920Y-15105008D01*
X9817920Y-15105008D02*
X9798872Y-15095484D01*
X9798872Y-15095484D02*
X9760777Y-15095484D01*
X9760777Y-15095484D02*
X9741730Y-15105008D01*
X9741730Y-15105008D02*
X9732206Y-15114531D01*
X9732206Y-15114531D02*
X9722682Y-15133579D01*
X9722682Y-15133579D02*
X9722682Y-15181198D01*
X9722682Y-15181198D02*
X9732206Y-15200246D01*
X9732206Y-15200246D02*
X9741730Y-15209769D01*
X9741730Y-15209769D02*
X9760777Y-15219293D01*
X9760777Y-15219293D02*
X9798872Y-15219293D01*
X9798872Y-15219293D02*
X9817920Y-15209769D01*
X9817920Y-15209769D02*
X9827444Y-15200246D01*
X9827444Y-15200246D02*
X9836968Y-15181198D01*
X10075063Y-15295484D02*
X10075063Y-15095484D01*
X10160777Y-15295484D02*
X10160777Y-15190722D01*
X10160777Y-15190722D02*
X10151253Y-15171674D01*
X10151253Y-15171674D02*
X10132206Y-15162150D01*
X10132206Y-15162150D02*
X10103634Y-15162150D01*
X10103634Y-15162150D02*
X10084587Y-15171674D01*
X10084587Y-15171674D02*
X10075063Y-15181198D01*
X10284587Y-15295484D02*
X10265539Y-15285960D01*
X10265539Y-15285960D02*
X10256015Y-15276436D01*
X10256015Y-15276436D02*
X10246492Y-15257388D01*
X10246492Y-15257388D02*
X10246492Y-15200246D01*
X10246492Y-15200246D02*
X10256015Y-15181198D01*
X10256015Y-15181198D02*
X10265539Y-15171674D01*
X10265539Y-15171674D02*
X10284587Y-15162150D01*
X10284587Y-15162150D02*
X10313158Y-15162150D01*
X10313158Y-15162150D02*
X10332206Y-15171674D01*
X10332206Y-15171674D02*
X10341730Y-15181198D01*
X10341730Y-15181198D02*
X10351253Y-15200246D01*
X10351253Y-15200246D02*
X10351253Y-15257388D01*
X10351253Y-15257388D02*
X10341730Y-15276436D01*
X10341730Y-15276436D02*
X10332206Y-15285960D01*
X10332206Y-15285960D02*
X10313158Y-15295484D01*
X10313158Y-15295484D02*
X10284587Y-15295484D01*
X10465539Y-15295484D02*
X10446492Y-15285960D01*
X10446492Y-15285960D02*
X10436968Y-15266912D01*
X10436968Y-15266912D02*
X10436968Y-15095484D01*
X10617920Y-15285960D02*
X10598873Y-15295484D01*
X10598873Y-15295484D02*
X10560777Y-15295484D01*
X10560777Y-15295484D02*
X10541730Y-15285960D01*
X10541730Y-15285960D02*
X10532206Y-15266912D01*
X10532206Y-15266912D02*
X10532206Y-15190722D01*
X10532206Y-15190722D02*
X10541730Y-15171674D01*
X10541730Y-15171674D02*
X10560777Y-15162150D01*
X10560777Y-15162150D02*
X10598873Y-15162150D01*
X10598873Y-15162150D02*
X10617920Y-15171674D01*
X10617920Y-15171674D02*
X10627444Y-15190722D01*
X10627444Y-15190722D02*
X10627444Y-15209769D01*
X10627444Y-15209769D02*
X10532206Y-15228817D01*
X10703634Y-15285960D02*
X10722682Y-15295484D01*
X10722682Y-15295484D02*
X10760777Y-15295484D01*
X10760777Y-15295484D02*
X10779825Y-15285960D01*
X10779825Y-15285960D02*
X10789349Y-15266912D01*
X10789349Y-15266912D02*
X10789349Y-15257388D01*
X10789349Y-15257388D02*
X10779825Y-15238341D01*
X10779825Y-15238341D02*
X10760777Y-15228817D01*
X10760777Y-15228817D02*
X10732206Y-15228817D01*
X10732206Y-15228817D02*
X10713158Y-15219293D01*
X10713158Y-15219293D02*
X10703634Y-15200246D01*
X10703634Y-15200246D02*
X10703634Y-15190722D01*
X10703634Y-15190722D02*
X10713158Y-15171674D01*
X10713158Y-15171674D02*
X10732206Y-15162150D01*
X10732206Y-15162150D02*
X10760777Y-15162150D01*
X10760777Y-15162150D02*
X10779825Y-15171674D01*
X10856015Y-15371674D02*
X10865539Y-15362150D01*
X10865539Y-15362150D02*
X10884587Y-15333579D01*
X10884587Y-15333579D02*
X10894111Y-15314531D01*
X10894111Y-15314531D02*
X10903634Y-15285960D01*
X10903634Y-15285960D02*
X10913158Y-15238341D01*
X10913158Y-15238341D02*
X10913158Y-15200246D01*
X10913158Y-15200246D02*
X10903634Y-15152627D01*
X10903634Y-15152627D02*
X10894111Y-15124055D01*
X10894111Y-15124055D02*
X10884587Y-15105008D01*
X10884587Y-15105008D02*
X10865539Y-15076436D01*
X10865539Y-15076436D02*
X10856015Y-15066912D01*
D10*
X5664999Y-15432999D02*
X5664999Y-15503001D01*
X5629998Y-15468000D02*
X5700000Y-15468000D01*
D11*
X5998872Y-15359484D02*
X6017920Y-15359484D01*
X6017920Y-15359484D02*
X6036967Y-15369008D01*
X6036967Y-15369008D02*
X6046491Y-15378531D01*
X6046491Y-15378531D02*
X6056015Y-15397579D01*
X6056015Y-15397579D02*
X6065539Y-15435674D01*
X6065539Y-15435674D02*
X6065539Y-15483293D01*
X6065539Y-15483293D02*
X6056015Y-15521388D01*
X6056015Y-15521388D02*
X6046491Y-15540436D01*
X6046491Y-15540436D02*
X6036967Y-15549960D01*
X6036967Y-15549960D02*
X6017920Y-15559484D01*
X6017920Y-15559484D02*
X5998872Y-15559484D01*
X5998872Y-15559484D02*
X5979824Y-15549960D01*
X5979824Y-15549960D02*
X5970301Y-15540436D01*
X5970301Y-15540436D02*
X5960777Y-15521388D01*
X5960777Y-15521388D02*
X5951253Y-15483293D01*
X5951253Y-15483293D02*
X5951253Y-15435674D01*
X5951253Y-15435674D02*
X5960777Y-15397579D01*
X5960777Y-15397579D02*
X5970301Y-15378531D01*
X5970301Y-15378531D02*
X5979824Y-15369008D01*
X5979824Y-15369008D02*
X5998872Y-15359484D01*
X6151253Y-15540436D02*
X6160777Y-15549960D01*
X6160777Y-15549960D02*
X6151253Y-15559484D01*
X6151253Y-15559484D02*
X6141729Y-15549960D01*
X6141729Y-15549960D02*
X6151253Y-15540436D01*
X6151253Y-15540436D02*
X6151253Y-15559484D01*
X6227443Y-15359484D02*
X6360777Y-15359484D01*
X6360777Y-15359484D02*
X6275062Y-15559484D01*
X6475062Y-15359484D02*
X6494110Y-15359484D01*
X6494110Y-15359484D02*
X6513158Y-15369008D01*
X6513158Y-15369008D02*
X6522682Y-15378531D01*
X6522682Y-15378531D02*
X6532205Y-15397579D01*
X6532205Y-15397579D02*
X6541729Y-15435674D01*
X6541729Y-15435674D02*
X6541729Y-15483293D01*
X6541729Y-15483293D02*
X6532205Y-15521388D01*
X6532205Y-15521388D02*
X6522682Y-15540436D01*
X6522682Y-15540436D02*
X6513158Y-15549960D01*
X6513158Y-15549960D02*
X6494110Y-15559484D01*
X6494110Y-15559484D02*
X6475062Y-15559484D01*
X6475062Y-15559484D02*
X6456015Y-15549960D01*
X6456015Y-15549960D02*
X6446491Y-15540436D01*
X6446491Y-15540436D02*
X6436967Y-15521388D01*
X6436967Y-15521388D02*
X6427443Y-15483293D01*
X6427443Y-15483293D02*
X6427443Y-15435674D01*
X6427443Y-15435674D02*
X6436967Y-15397579D01*
X6436967Y-15397579D02*
X6446491Y-15378531D01*
X6446491Y-15378531D02*
X6456015Y-15369008D01*
X6456015Y-15369008D02*
X6475062Y-15359484D01*
X6665539Y-15359484D02*
X6684586Y-15359484D01*
X6684586Y-15359484D02*
X6703634Y-15369008D01*
X6703634Y-15369008D02*
X6713158Y-15378531D01*
X6713158Y-15378531D02*
X6722682Y-15397579D01*
X6722682Y-15397579D02*
X6732205Y-15435674D01*
X6732205Y-15435674D02*
X6732205Y-15483293D01*
X6732205Y-15483293D02*
X6722682Y-15521388D01*
X6722682Y-15521388D02*
X6713158Y-15540436D01*
X6713158Y-15540436D02*
X6703634Y-15549960D01*
X6703634Y-15549960D02*
X6684586Y-15559484D01*
X6684586Y-15559484D02*
X6665539Y-15559484D01*
X6665539Y-15559484D02*
X6646491Y-15549960D01*
X6646491Y-15549960D02*
X6636967Y-15540436D01*
X6636967Y-15540436D02*
X6627443Y-15521388D01*
X6627443Y-15521388D02*
X6617920Y-15483293D01*
X6617920Y-15483293D02*
X6617920Y-15435674D01*
X6617920Y-15435674D02*
X6627443Y-15397579D01*
X6627443Y-15397579D02*
X6636967Y-15378531D01*
X6636967Y-15378531D02*
X6646491Y-15369008D01*
X6646491Y-15369008D02*
X6665539Y-15359484D01*
X6817920Y-15559484D02*
X6817920Y-15426150D01*
X6817920Y-15445198D02*
X6827443Y-15435674D01*
X6827443Y-15435674D02*
X6846491Y-15426150D01*
X6846491Y-15426150D02*
X6875063Y-15426150D01*
X6875063Y-15426150D02*
X6894110Y-15435674D01*
X6894110Y-15435674D02*
X6903634Y-15454722D01*
X6903634Y-15454722D02*
X6903634Y-15559484D01*
X6903634Y-15454722D02*
X6913158Y-15435674D01*
X6913158Y-15435674D02*
X6932205Y-15426150D01*
X6932205Y-15426150D02*
X6960777Y-15426150D01*
X6960777Y-15426150D02*
X6979824Y-15435674D01*
X6979824Y-15435674D02*
X6989348Y-15454722D01*
X6989348Y-15454722D02*
X6989348Y-15559484D01*
X7084586Y-15559484D02*
X7084586Y-15426150D01*
X7084586Y-15445198D02*
X7094110Y-15435674D01*
X7094110Y-15435674D02*
X7113158Y-15426150D01*
X7113158Y-15426150D02*
X7141729Y-15426150D01*
X7141729Y-15426150D02*
X7160777Y-15435674D01*
X7160777Y-15435674D02*
X7170301Y-15454722D01*
X7170301Y-15454722D02*
X7170301Y-15559484D01*
X7170301Y-15454722D02*
X7179824Y-15435674D01*
X7179824Y-15435674D02*
X7198872Y-15426150D01*
X7198872Y-15426150D02*
X7227443Y-15426150D01*
X7227443Y-15426150D02*
X7246491Y-15435674D01*
X7246491Y-15435674D02*
X7256015Y-15454722D01*
X7256015Y-15454722D02*
X7256015Y-15559484D01*
X7646491Y-15349960D02*
X7475063Y-15607103D01*
X7903634Y-15359484D02*
X7922682Y-15359484D01*
X7922682Y-15359484D02*
X7941729Y-15369008D01*
X7941729Y-15369008D02*
X7951253Y-15378531D01*
X7951253Y-15378531D02*
X7960777Y-15397579D01*
X7960777Y-15397579D02*
X7970301Y-15435674D01*
X7970301Y-15435674D02*
X7970301Y-15483293D01*
X7970301Y-15483293D02*
X7960777Y-15521388D01*
X7960777Y-15521388D02*
X7951253Y-15540436D01*
X7951253Y-15540436D02*
X7941729Y-15549960D01*
X7941729Y-15549960D02*
X7922682Y-15559484D01*
X7922682Y-15559484D02*
X7903634Y-15559484D01*
X7903634Y-15559484D02*
X7884586Y-15549960D01*
X7884586Y-15549960D02*
X7875063Y-15540436D01*
X7875063Y-15540436D02*
X7865539Y-15521388D01*
X7865539Y-15521388D02*
X7856015Y-15483293D01*
X7856015Y-15483293D02*
X7856015Y-15435674D01*
X7856015Y-15435674D02*
X7865539Y-15397579D01*
X7865539Y-15397579D02*
X7875063Y-15378531D01*
X7875063Y-15378531D02*
X7884586Y-15369008D01*
X7884586Y-15369008D02*
X7903634Y-15359484D01*
X8056015Y-15540436D02*
X8065539Y-15549960D01*
X8065539Y-15549960D02*
X8056015Y-15559484D01*
X8056015Y-15559484D02*
X8046491Y-15549960D01*
X8046491Y-15549960D02*
X8056015Y-15540436D01*
X8056015Y-15540436D02*
X8056015Y-15559484D01*
X8189348Y-15359484D02*
X8208396Y-15359484D01*
X8208396Y-15359484D02*
X8227444Y-15369008D01*
X8227444Y-15369008D02*
X8236967Y-15378531D01*
X8236967Y-15378531D02*
X8246491Y-15397579D01*
X8246491Y-15397579D02*
X8256015Y-15435674D01*
X8256015Y-15435674D02*
X8256015Y-15483293D01*
X8256015Y-15483293D02*
X8246491Y-15521388D01*
X8246491Y-15521388D02*
X8236967Y-15540436D01*
X8236967Y-15540436D02*
X8227444Y-15549960D01*
X8227444Y-15549960D02*
X8208396Y-15559484D01*
X8208396Y-15559484D02*
X8189348Y-15559484D01*
X8189348Y-15559484D02*
X8170301Y-15549960D01*
X8170301Y-15549960D02*
X8160777Y-15540436D01*
X8160777Y-15540436D02*
X8151253Y-15521388D01*
X8151253Y-15521388D02*
X8141729Y-15483293D01*
X8141729Y-15483293D02*
X8141729Y-15435674D01*
X8141729Y-15435674D02*
X8151253Y-15397579D01*
X8151253Y-15397579D02*
X8160777Y-15378531D01*
X8160777Y-15378531D02*
X8170301Y-15369008D01*
X8170301Y-15369008D02*
X8189348Y-15359484D01*
X8332206Y-15378531D02*
X8341729Y-15369008D01*
X8341729Y-15369008D02*
X8360777Y-15359484D01*
X8360777Y-15359484D02*
X8408396Y-15359484D01*
X8408396Y-15359484D02*
X8427444Y-15369008D01*
X8427444Y-15369008D02*
X8436968Y-15378531D01*
X8436968Y-15378531D02*
X8446491Y-15397579D01*
X8446491Y-15397579D02*
X8446491Y-15416627D01*
X8446491Y-15416627D02*
X8436968Y-15445198D01*
X8436968Y-15445198D02*
X8322682Y-15559484D01*
X8322682Y-15559484D02*
X8446491Y-15559484D01*
X8513158Y-15359484D02*
X8646491Y-15359484D01*
X8646491Y-15359484D02*
X8560777Y-15559484D01*
X8808396Y-15359484D02*
X8770301Y-15359484D01*
X8770301Y-15359484D02*
X8751253Y-15369008D01*
X8751253Y-15369008D02*
X8741729Y-15378531D01*
X8741729Y-15378531D02*
X8722682Y-15407103D01*
X8722682Y-15407103D02*
X8713158Y-15445198D01*
X8713158Y-15445198D02*
X8713158Y-15521388D01*
X8713158Y-15521388D02*
X8722682Y-15540436D01*
X8722682Y-15540436D02*
X8732206Y-15549960D01*
X8732206Y-15549960D02*
X8751253Y-15559484D01*
X8751253Y-15559484D02*
X8789349Y-15559484D01*
X8789349Y-15559484D02*
X8808396Y-15549960D01*
X8808396Y-15549960D02*
X8817920Y-15540436D01*
X8817920Y-15540436D02*
X8827444Y-15521388D01*
X8827444Y-15521388D02*
X8827444Y-15473769D01*
X8827444Y-15473769D02*
X8817920Y-15454722D01*
X8817920Y-15454722D02*
X8808396Y-15445198D01*
X8808396Y-15445198D02*
X8789349Y-15435674D01*
X8789349Y-15435674D02*
X8751253Y-15435674D01*
X8751253Y-15435674D02*
X8732206Y-15445198D01*
X8732206Y-15445198D02*
X8722682Y-15454722D01*
X8722682Y-15454722D02*
X8713158Y-15473769D01*
X8903634Y-15359484D02*
X8903634Y-15397579D01*
X8979825Y-15359484D02*
X8979825Y-15397579D01*
X9275063Y-15635674D02*
X9265539Y-15626150D01*
X9265539Y-15626150D02*
X9246491Y-15597579D01*
X9246491Y-15597579D02*
X9236968Y-15578531D01*
X9236968Y-15578531D02*
X9227444Y-15549960D01*
X9227444Y-15549960D02*
X9217920Y-15502341D01*
X9217920Y-15502341D02*
X9217920Y-15464246D01*
X9217920Y-15464246D02*
X9227444Y-15416627D01*
X9227444Y-15416627D02*
X9236968Y-15388055D01*
X9236968Y-15388055D02*
X9246491Y-15369008D01*
X9246491Y-15369008D02*
X9265539Y-15340436D01*
X9265539Y-15340436D02*
X9275063Y-15330912D01*
X9389349Y-15359484D02*
X9408396Y-15359484D01*
X9408396Y-15359484D02*
X9427444Y-15369008D01*
X9427444Y-15369008D02*
X9436968Y-15378531D01*
X9436968Y-15378531D02*
X9446491Y-15397579D01*
X9446491Y-15397579D02*
X9456015Y-15435674D01*
X9456015Y-15435674D02*
X9456015Y-15483293D01*
X9456015Y-15483293D02*
X9446491Y-15521388D01*
X9446491Y-15521388D02*
X9436968Y-15540436D01*
X9436968Y-15540436D02*
X9427444Y-15549960D01*
X9427444Y-15549960D02*
X9408396Y-15559484D01*
X9408396Y-15559484D02*
X9389349Y-15559484D01*
X9389349Y-15559484D02*
X9370301Y-15549960D01*
X9370301Y-15549960D02*
X9360777Y-15540436D01*
X9360777Y-15540436D02*
X9351253Y-15521388D01*
X9351253Y-15521388D02*
X9341730Y-15483293D01*
X9341730Y-15483293D02*
X9341730Y-15435674D01*
X9341730Y-15435674D02*
X9351253Y-15397579D01*
X9351253Y-15397579D02*
X9360777Y-15378531D01*
X9360777Y-15378531D02*
X9370301Y-15369008D01*
X9370301Y-15369008D02*
X9389349Y-15359484D01*
X9694111Y-15559484D02*
X9694111Y-15359484D01*
X9779825Y-15559484D02*
X9779825Y-15454722D01*
X9779825Y-15454722D02*
X9770301Y-15435674D01*
X9770301Y-15435674D02*
X9751253Y-15426150D01*
X9751253Y-15426150D02*
X9722682Y-15426150D01*
X9722682Y-15426150D02*
X9703634Y-15435674D01*
X9703634Y-15435674D02*
X9694111Y-15445198D01*
X9903634Y-15559484D02*
X9884587Y-15549960D01*
X9884587Y-15549960D02*
X9875063Y-15540436D01*
X9875063Y-15540436D02*
X9865539Y-15521388D01*
X9865539Y-15521388D02*
X9865539Y-15464246D01*
X9865539Y-15464246D02*
X9875063Y-15445198D01*
X9875063Y-15445198D02*
X9884587Y-15435674D01*
X9884587Y-15435674D02*
X9903634Y-15426150D01*
X9903634Y-15426150D02*
X9932206Y-15426150D01*
X9932206Y-15426150D02*
X9951253Y-15435674D01*
X9951253Y-15435674D02*
X9960777Y-15445198D01*
X9960777Y-15445198D02*
X9970301Y-15464246D01*
X9970301Y-15464246D02*
X9970301Y-15521388D01*
X9970301Y-15521388D02*
X9960777Y-15540436D01*
X9960777Y-15540436D02*
X9951253Y-15549960D01*
X9951253Y-15549960D02*
X9932206Y-15559484D01*
X9932206Y-15559484D02*
X9903634Y-15559484D01*
X10084587Y-15559484D02*
X10065539Y-15549960D01*
X10065539Y-15549960D02*
X10056015Y-15530912D01*
X10056015Y-15530912D02*
X10056015Y-15359484D01*
X10236968Y-15549960D02*
X10217920Y-15559484D01*
X10217920Y-15559484D02*
X10179825Y-15559484D01*
X10179825Y-15559484D02*
X10160777Y-15549960D01*
X10160777Y-15549960D02*
X10151253Y-15530912D01*
X10151253Y-15530912D02*
X10151253Y-15454722D01*
X10151253Y-15454722D02*
X10160777Y-15435674D01*
X10160777Y-15435674D02*
X10179825Y-15426150D01*
X10179825Y-15426150D02*
X10217920Y-15426150D01*
X10217920Y-15426150D02*
X10236968Y-15435674D01*
X10236968Y-15435674D02*
X10246492Y-15454722D01*
X10246492Y-15454722D02*
X10246492Y-15473769D01*
X10246492Y-15473769D02*
X10151253Y-15492817D01*
X10322682Y-15549960D02*
X10341730Y-15559484D01*
X10341730Y-15559484D02*
X10379825Y-15559484D01*
X10379825Y-15559484D02*
X10398873Y-15549960D01*
X10398873Y-15549960D02*
X10408396Y-15530912D01*
X10408396Y-15530912D02*
X10408396Y-15521388D01*
X10408396Y-15521388D02*
X10398873Y-15502341D01*
X10398873Y-15502341D02*
X10379825Y-15492817D01*
X10379825Y-15492817D02*
X10351253Y-15492817D01*
X10351253Y-15492817D02*
X10332206Y-15483293D01*
X10332206Y-15483293D02*
X10322682Y-15464246D01*
X10322682Y-15464246D02*
X10322682Y-15454722D01*
X10322682Y-15454722D02*
X10332206Y-15435674D01*
X10332206Y-15435674D02*
X10351253Y-15426150D01*
X10351253Y-15426150D02*
X10379825Y-15426150D01*
X10379825Y-15426150D02*
X10398873Y-15435674D01*
X10646492Y-15483293D02*
X10798873Y-15483293D01*
X10722682Y-15559484D02*
X10722682Y-15407103D01*
X11075063Y-15445198D02*
X11056015Y-15435674D01*
X11056015Y-15435674D02*
X11046492Y-15426150D01*
X11046492Y-15426150D02*
X11036968Y-15407103D01*
X11036968Y-15407103D02*
X11036968Y-15397579D01*
X11036968Y-15397579D02*
X11046492Y-15378531D01*
X11046492Y-15378531D02*
X11056015Y-15369008D01*
X11056015Y-15369008D02*
X11075063Y-15359484D01*
X11075063Y-15359484D02*
X11113158Y-15359484D01*
X11113158Y-15359484D02*
X11132206Y-15369008D01*
X11132206Y-15369008D02*
X11141730Y-15378531D01*
X11141730Y-15378531D02*
X11151254Y-15397579D01*
X11151254Y-15397579D02*
X11151254Y-15407103D01*
X11151254Y-15407103D02*
X11141730Y-15426150D01*
X11141730Y-15426150D02*
X11132206Y-15435674D01*
X11132206Y-15435674D02*
X11113158Y-15445198D01*
X11113158Y-15445198D02*
X11075063Y-15445198D01*
X11075063Y-15445198D02*
X11056015Y-15454722D01*
X11056015Y-15454722D02*
X11046492Y-15464246D01*
X11046492Y-15464246D02*
X11036968Y-15483293D01*
X11036968Y-15483293D02*
X11036968Y-15521388D01*
X11036968Y-15521388D02*
X11046492Y-15540436D01*
X11046492Y-15540436D02*
X11056015Y-15549960D01*
X11056015Y-15549960D02*
X11075063Y-15559484D01*
X11075063Y-15559484D02*
X11113158Y-15559484D01*
X11113158Y-15559484D02*
X11132206Y-15549960D01*
X11132206Y-15549960D02*
X11141730Y-15540436D01*
X11141730Y-15540436D02*
X11151254Y-15521388D01*
X11151254Y-15521388D02*
X11151254Y-15483293D01*
X11151254Y-15483293D02*
X11141730Y-15464246D01*
X11141730Y-15464246D02*
X11132206Y-15454722D01*
X11132206Y-15454722D02*
X11113158Y-15445198D01*
X11379825Y-15549960D02*
X11398873Y-15559484D01*
X11398873Y-15559484D02*
X11436968Y-15559484D01*
X11436968Y-15559484D02*
X11456015Y-15549960D01*
X11456015Y-15549960D02*
X11465539Y-15530912D01*
X11465539Y-15530912D02*
X11465539Y-15521388D01*
X11465539Y-15521388D02*
X11456015Y-15502341D01*
X11456015Y-15502341D02*
X11436968Y-15492817D01*
X11436968Y-15492817D02*
X11408396Y-15492817D01*
X11408396Y-15492817D02*
X11389349Y-15483293D01*
X11389349Y-15483293D02*
X11379825Y-15464246D01*
X11379825Y-15464246D02*
X11379825Y-15454722D01*
X11379825Y-15454722D02*
X11389349Y-15435674D01*
X11389349Y-15435674D02*
X11408396Y-15426150D01*
X11408396Y-15426150D02*
X11436968Y-15426150D01*
X11436968Y-15426150D02*
X11456015Y-15435674D01*
X11579825Y-15559484D02*
X11560777Y-15549960D01*
X11560777Y-15549960D02*
X11551254Y-15530912D01*
X11551254Y-15530912D02*
X11551254Y-15359484D01*
X11684587Y-15559484D02*
X11665539Y-15549960D01*
X11665539Y-15549960D02*
X11656015Y-15540436D01*
X11656015Y-15540436D02*
X11646492Y-15521388D01*
X11646492Y-15521388D02*
X11646492Y-15464246D01*
X11646492Y-15464246D02*
X11656015Y-15445198D01*
X11656015Y-15445198D02*
X11665539Y-15435674D01*
X11665539Y-15435674D02*
X11684587Y-15426150D01*
X11684587Y-15426150D02*
X11713158Y-15426150D01*
X11713158Y-15426150D02*
X11732206Y-15435674D01*
X11732206Y-15435674D02*
X11741730Y-15445198D01*
X11741730Y-15445198D02*
X11751254Y-15464246D01*
X11751254Y-15464246D02*
X11751254Y-15521388D01*
X11751254Y-15521388D02*
X11741730Y-15540436D01*
X11741730Y-15540436D02*
X11732206Y-15549960D01*
X11732206Y-15549960D02*
X11713158Y-15559484D01*
X11713158Y-15559484D02*
X11684587Y-15559484D01*
X11808396Y-15426150D02*
X11884587Y-15426150D01*
X11836968Y-15359484D02*
X11836968Y-15530912D01*
X11836968Y-15530912D02*
X11846492Y-15549960D01*
X11846492Y-15549960D02*
X11865539Y-15559484D01*
X11865539Y-15559484D02*
X11884587Y-15559484D01*
X11941730Y-15549960D02*
X11960777Y-15559484D01*
X11960777Y-15559484D02*
X11998873Y-15559484D01*
X11998873Y-15559484D02*
X12017920Y-15549960D01*
X12017920Y-15549960D02*
X12027444Y-15530912D01*
X12027444Y-15530912D02*
X12027444Y-15521388D01*
X12027444Y-15521388D02*
X12017920Y-15502341D01*
X12017920Y-15502341D02*
X11998873Y-15492817D01*
X11998873Y-15492817D02*
X11970301Y-15492817D01*
X11970301Y-15492817D02*
X11951254Y-15483293D01*
X11951254Y-15483293D02*
X11941730Y-15464246D01*
X11941730Y-15464246D02*
X11941730Y-15454722D01*
X11941730Y-15454722D02*
X11951254Y-15435674D01*
X11951254Y-15435674D02*
X11970301Y-15426150D01*
X11970301Y-15426150D02*
X11998873Y-15426150D01*
X11998873Y-15426150D02*
X12017920Y-15435674D01*
X12094111Y-15635674D02*
X12103635Y-15626150D01*
X12103635Y-15626150D02*
X12122682Y-15597579D01*
X12122682Y-15597579D02*
X12132206Y-15578531D01*
X12132206Y-15578531D02*
X12141730Y-15549960D01*
X12141730Y-15549960D02*
X12151254Y-15502341D01*
X12151254Y-15502341D02*
X12151254Y-15464246D01*
X12151254Y-15464246D02*
X12141730Y-15416627D01*
X12141730Y-15416627D02*
X12132206Y-15388055D01*
X12132206Y-15388055D02*
X12122682Y-15369008D01*
X12122682Y-15369008D02*
X12103635Y-15340436D01*
X12103635Y-15340436D02*
X12094111Y-15330912D01*
D10*
X5686609Y-15764329D02*
X5686609Y-15699671D01*
X5621951Y-15699671D01*
X5621951Y-15764329D01*
X5686609Y-15764329D01*
D11*
X5998872Y-15623484D02*
X6017920Y-15623484D01*
X6017920Y-15623484D02*
X6036967Y-15633008D01*
X6036967Y-15633008D02*
X6046491Y-15642531D01*
X6046491Y-15642531D02*
X6056015Y-15661579D01*
X6056015Y-15661579D02*
X6065539Y-15699674D01*
X6065539Y-15699674D02*
X6065539Y-15747293D01*
X6065539Y-15747293D02*
X6056015Y-15785388D01*
X6056015Y-15785388D02*
X6046491Y-15804436D01*
X6046491Y-15804436D02*
X6036967Y-15813960D01*
X6036967Y-15813960D02*
X6017920Y-15823484D01*
X6017920Y-15823484D02*
X5998872Y-15823484D01*
X5998872Y-15823484D02*
X5979824Y-15813960D01*
X5979824Y-15813960D02*
X5970301Y-15804436D01*
X5970301Y-15804436D02*
X5960777Y-15785388D01*
X5960777Y-15785388D02*
X5951253Y-15747293D01*
X5951253Y-15747293D02*
X5951253Y-15699674D01*
X5951253Y-15699674D02*
X5960777Y-15661579D01*
X5960777Y-15661579D02*
X5970301Y-15642531D01*
X5970301Y-15642531D02*
X5979824Y-15633008D01*
X5979824Y-15633008D02*
X5998872Y-15623484D01*
X6151253Y-15804436D02*
X6160777Y-15813960D01*
X6160777Y-15813960D02*
X6151253Y-15823484D01*
X6151253Y-15823484D02*
X6141729Y-15813960D01*
X6141729Y-15813960D02*
X6151253Y-15804436D01*
X6151253Y-15804436D02*
X6151253Y-15823484D01*
X6256015Y-15823484D02*
X6294110Y-15823484D01*
X6294110Y-15823484D02*
X6313158Y-15813960D01*
X6313158Y-15813960D02*
X6322682Y-15804436D01*
X6322682Y-15804436D02*
X6341729Y-15775865D01*
X6341729Y-15775865D02*
X6351253Y-15737769D01*
X6351253Y-15737769D02*
X6351253Y-15661579D01*
X6351253Y-15661579D02*
X6341729Y-15642531D01*
X6341729Y-15642531D02*
X6332205Y-15633008D01*
X6332205Y-15633008D02*
X6313158Y-15623484D01*
X6313158Y-15623484D02*
X6275062Y-15623484D01*
X6275062Y-15623484D02*
X6256015Y-15633008D01*
X6256015Y-15633008D02*
X6246491Y-15642531D01*
X6246491Y-15642531D02*
X6236967Y-15661579D01*
X6236967Y-15661579D02*
X6236967Y-15709198D01*
X6236967Y-15709198D02*
X6246491Y-15728246D01*
X6246491Y-15728246D02*
X6256015Y-15737769D01*
X6256015Y-15737769D02*
X6275062Y-15747293D01*
X6275062Y-15747293D02*
X6313158Y-15747293D01*
X6313158Y-15747293D02*
X6332205Y-15737769D01*
X6332205Y-15737769D02*
X6341729Y-15728246D01*
X6341729Y-15728246D02*
X6351253Y-15709198D01*
X6541729Y-15823484D02*
X6427443Y-15823484D01*
X6484586Y-15823484D02*
X6484586Y-15623484D01*
X6484586Y-15623484D02*
X6465539Y-15652055D01*
X6465539Y-15652055D02*
X6446491Y-15671103D01*
X6446491Y-15671103D02*
X6427443Y-15680627D01*
X6713158Y-15690150D02*
X6713158Y-15823484D01*
X6665539Y-15613960D02*
X6617920Y-15756817D01*
X6617920Y-15756817D02*
X6741729Y-15756817D01*
X6817920Y-15823484D02*
X6817920Y-15690150D01*
X6817920Y-15709198D02*
X6827443Y-15699674D01*
X6827443Y-15699674D02*
X6846491Y-15690150D01*
X6846491Y-15690150D02*
X6875063Y-15690150D01*
X6875063Y-15690150D02*
X6894110Y-15699674D01*
X6894110Y-15699674D02*
X6903634Y-15718722D01*
X6903634Y-15718722D02*
X6903634Y-15823484D01*
X6903634Y-15718722D02*
X6913158Y-15699674D01*
X6913158Y-15699674D02*
X6932205Y-15690150D01*
X6932205Y-15690150D02*
X6960777Y-15690150D01*
X6960777Y-15690150D02*
X6979824Y-15699674D01*
X6979824Y-15699674D02*
X6989348Y-15718722D01*
X6989348Y-15718722D02*
X6989348Y-15823484D01*
X7084586Y-15823484D02*
X7084586Y-15690150D01*
X7084586Y-15709198D02*
X7094110Y-15699674D01*
X7094110Y-15699674D02*
X7113158Y-15690150D01*
X7113158Y-15690150D02*
X7141729Y-15690150D01*
X7141729Y-15690150D02*
X7160777Y-15699674D01*
X7160777Y-15699674D02*
X7170301Y-15718722D01*
X7170301Y-15718722D02*
X7170301Y-15823484D01*
X7170301Y-15718722D02*
X7179824Y-15699674D01*
X7179824Y-15699674D02*
X7198872Y-15690150D01*
X7198872Y-15690150D02*
X7227443Y-15690150D01*
X7227443Y-15690150D02*
X7246491Y-15699674D01*
X7246491Y-15699674D02*
X7256015Y-15718722D01*
X7256015Y-15718722D02*
X7256015Y-15823484D01*
X7646491Y-15613960D02*
X7475063Y-15871103D01*
X7903634Y-15623484D02*
X7922682Y-15623484D01*
X7922682Y-15623484D02*
X7941729Y-15633008D01*
X7941729Y-15633008D02*
X7951253Y-15642531D01*
X7951253Y-15642531D02*
X7960777Y-15661579D01*
X7960777Y-15661579D02*
X7970301Y-15699674D01*
X7970301Y-15699674D02*
X7970301Y-15747293D01*
X7970301Y-15747293D02*
X7960777Y-15785388D01*
X7960777Y-15785388D02*
X7951253Y-15804436D01*
X7951253Y-15804436D02*
X7941729Y-15813960D01*
X7941729Y-15813960D02*
X7922682Y-15823484D01*
X7922682Y-15823484D02*
X7903634Y-15823484D01*
X7903634Y-15823484D02*
X7884586Y-15813960D01*
X7884586Y-15813960D02*
X7875063Y-15804436D01*
X7875063Y-15804436D02*
X7865539Y-15785388D01*
X7865539Y-15785388D02*
X7856015Y-15747293D01*
X7856015Y-15747293D02*
X7856015Y-15699674D01*
X7856015Y-15699674D02*
X7865539Y-15661579D01*
X7865539Y-15661579D02*
X7875063Y-15642531D01*
X7875063Y-15642531D02*
X7884586Y-15633008D01*
X7884586Y-15633008D02*
X7903634Y-15623484D01*
X8056015Y-15804436D02*
X8065539Y-15813960D01*
X8065539Y-15813960D02*
X8056015Y-15823484D01*
X8056015Y-15823484D02*
X8046491Y-15813960D01*
X8046491Y-15813960D02*
X8056015Y-15804436D01*
X8056015Y-15804436D02*
X8056015Y-15823484D01*
X8189348Y-15623484D02*
X8208396Y-15623484D01*
X8208396Y-15623484D02*
X8227444Y-15633008D01*
X8227444Y-15633008D02*
X8236967Y-15642531D01*
X8236967Y-15642531D02*
X8246491Y-15661579D01*
X8246491Y-15661579D02*
X8256015Y-15699674D01*
X8256015Y-15699674D02*
X8256015Y-15747293D01*
X8256015Y-15747293D02*
X8246491Y-15785388D01*
X8246491Y-15785388D02*
X8236967Y-15804436D01*
X8236967Y-15804436D02*
X8227444Y-15813960D01*
X8227444Y-15813960D02*
X8208396Y-15823484D01*
X8208396Y-15823484D02*
X8189348Y-15823484D01*
X8189348Y-15823484D02*
X8170301Y-15813960D01*
X8170301Y-15813960D02*
X8160777Y-15804436D01*
X8160777Y-15804436D02*
X8151253Y-15785388D01*
X8151253Y-15785388D02*
X8141729Y-15747293D01*
X8141729Y-15747293D02*
X8141729Y-15699674D01*
X8141729Y-15699674D02*
X8151253Y-15661579D01*
X8151253Y-15661579D02*
X8160777Y-15642531D01*
X8160777Y-15642531D02*
X8170301Y-15633008D01*
X8170301Y-15633008D02*
X8189348Y-15623484D01*
X8322682Y-15623484D02*
X8446491Y-15623484D01*
X8446491Y-15623484D02*
X8379825Y-15699674D01*
X8379825Y-15699674D02*
X8408396Y-15699674D01*
X8408396Y-15699674D02*
X8427444Y-15709198D01*
X8427444Y-15709198D02*
X8436968Y-15718722D01*
X8436968Y-15718722D02*
X8446491Y-15737769D01*
X8446491Y-15737769D02*
X8446491Y-15785388D01*
X8446491Y-15785388D02*
X8436968Y-15804436D01*
X8436968Y-15804436D02*
X8427444Y-15813960D01*
X8427444Y-15813960D02*
X8408396Y-15823484D01*
X8408396Y-15823484D02*
X8351253Y-15823484D01*
X8351253Y-15823484D02*
X8332206Y-15813960D01*
X8332206Y-15813960D02*
X8322682Y-15804436D01*
X8617920Y-15623484D02*
X8579825Y-15623484D01*
X8579825Y-15623484D02*
X8560777Y-15633008D01*
X8560777Y-15633008D02*
X8551253Y-15642531D01*
X8551253Y-15642531D02*
X8532206Y-15671103D01*
X8532206Y-15671103D02*
X8522682Y-15709198D01*
X8522682Y-15709198D02*
X8522682Y-15785388D01*
X8522682Y-15785388D02*
X8532206Y-15804436D01*
X8532206Y-15804436D02*
X8541729Y-15813960D01*
X8541729Y-15813960D02*
X8560777Y-15823484D01*
X8560777Y-15823484D02*
X8598872Y-15823484D01*
X8598872Y-15823484D02*
X8617920Y-15813960D01*
X8617920Y-15813960D02*
X8627444Y-15804436D01*
X8627444Y-15804436D02*
X8636968Y-15785388D01*
X8636968Y-15785388D02*
X8636968Y-15737769D01*
X8636968Y-15737769D02*
X8627444Y-15718722D01*
X8627444Y-15718722D02*
X8617920Y-15709198D01*
X8617920Y-15709198D02*
X8598872Y-15699674D01*
X8598872Y-15699674D02*
X8560777Y-15699674D01*
X8560777Y-15699674D02*
X8541729Y-15709198D01*
X8541729Y-15709198D02*
X8532206Y-15718722D01*
X8532206Y-15718722D02*
X8522682Y-15737769D01*
X8760777Y-15623484D02*
X8779825Y-15623484D01*
X8779825Y-15623484D02*
X8798872Y-15633008D01*
X8798872Y-15633008D02*
X8808396Y-15642531D01*
X8808396Y-15642531D02*
X8817920Y-15661579D01*
X8817920Y-15661579D02*
X8827444Y-15699674D01*
X8827444Y-15699674D02*
X8827444Y-15747293D01*
X8827444Y-15747293D02*
X8817920Y-15785388D01*
X8817920Y-15785388D02*
X8808396Y-15804436D01*
X8808396Y-15804436D02*
X8798872Y-15813960D01*
X8798872Y-15813960D02*
X8779825Y-15823484D01*
X8779825Y-15823484D02*
X8760777Y-15823484D01*
X8760777Y-15823484D02*
X8741729Y-15813960D01*
X8741729Y-15813960D02*
X8732206Y-15804436D01*
X8732206Y-15804436D02*
X8722682Y-15785388D01*
X8722682Y-15785388D02*
X8713158Y-15747293D01*
X8713158Y-15747293D02*
X8713158Y-15699674D01*
X8713158Y-15699674D02*
X8722682Y-15661579D01*
X8722682Y-15661579D02*
X8732206Y-15642531D01*
X8732206Y-15642531D02*
X8741729Y-15633008D01*
X8741729Y-15633008D02*
X8760777Y-15623484D01*
X8903634Y-15623484D02*
X8903634Y-15661579D01*
X8979825Y-15623484D02*
X8979825Y-15661579D01*
X9275063Y-15899674D02*
X9265539Y-15890150D01*
X9265539Y-15890150D02*
X9246491Y-15861579D01*
X9246491Y-15861579D02*
X9236968Y-15842531D01*
X9236968Y-15842531D02*
X9227444Y-15813960D01*
X9227444Y-15813960D02*
X9217920Y-15766341D01*
X9217920Y-15766341D02*
X9217920Y-15728246D01*
X9217920Y-15728246D02*
X9227444Y-15680627D01*
X9227444Y-15680627D02*
X9236968Y-15652055D01*
X9236968Y-15652055D02*
X9246491Y-15633008D01*
X9246491Y-15633008D02*
X9265539Y-15604436D01*
X9265539Y-15604436D02*
X9275063Y-15594912D01*
X9341730Y-15642531D02*
X9351253Y-15633008D01*
X9351253Y-15633008D02*
X9370301Y-15623484D01*
X9370301Y-15623484D02*
X9417920Y-15623484D01*
X9417920Y-15623484D02*
X9436968Y-15633008D01*
X9436968Y-15633008D02*
X9446491Y-15642531D01*
X9446491Y-15642531D02*
X9456015Y-15661579D01*
X9456015Y-15661579D02*
X9456015Y-15680627D01*
X9456015Y-15680627D02*
X9446491Y-15709198D01*
X9446491Y-15709198D02*
X9332206Y-15823484D01*
X9332206Y-15823484D02*
X9456015Y-15823484D01*
X9579825Y-15623484D02*
X9598872Y-15623484D01*
X9598872Y-15623484D02*
X9617920Y-15633008D01*
X9617920Y-15633008D02*
X9627444Y-15642531D01*
X9627444Y-15642531D02*
X9636968Y-15661579D01*
X9636968Y-15661579D02*
X9646491Y-15699674D01*
X9646491Y-15699674D02*
X9646491Y-15747293D01*
X9646491Y-15747293D02*
X9636968Y-15785388D01*
X9636968Y-15785388D02*
X9627444Y-15804436D01*
X9627444Y-15804436D02*
X9617920Y-15813960D01*
X9617920Y-15813960D02*
X9598872Y-15823484D01*
X9598872Y-15823484D02*
X9579825Y-15823484D01*
X9579825Y-15823484D02*
X9560777Y-15813960D01*
X9560777Y-15813960D02*
X9551253Y-15804436D01*
X9551253Y-15804436D02*
X9541730Y-15785388D01*
X9541730Y-15785388D02*
X9532206Y-15747293D01*
X9532206Y-15747293D02*
X9532206Y-15699674D01*
X9532206Y-15699674D02*
X9541730Y-15661579D01*
X9541730Y-15661579D02*
X9551253Y-15642531D01*
X9551253Y-15642531D02*
X9560777Y-15633008D01*
X9560777Y-15633008D02*
X9579825Y-15623484D01*
X9884587Y-15823484D02*
X9884587Y-15623484D01*
X9970301Y-15823484D02*
X9970301Y-15718722D01*
X9970301Y-15718722D02*
X9960777Y-15699674D01*
X9960777Y-15699674D02*
X9941730Y-15690150D01*
X9941730Y-15690150D02*
X9913158Y-15690150D01*
X9913158Y-15690150D02*
X9894111Y-15699674D01*
X9894111Y-15699674D02*
X9884587Y-15709198D01*
X10094111Y-15823484D02*
X10075063Y-15813960D01*
X10075063Y-15813960D02*
X10065539Y-15804436D01*
X10065539Y-15804436D02*
X10056015Y-15785388D01*
X10056015Y-15785388D02*
X10056015Y-15728246D01*
X10056015Y-15728246D02*
X10065539Y-15709198D01*
X10065539Y-15709198D02*
X10075063Y-15699674D01*
X10075063Y-15699674D02*
X10094111Y-15690150D01*
X10094111Y-15690150D02*
X10122682Y-15690150D01*
X10122682Y-15690150D02*
X10141730Y-15699674D01*
X10141730Y-15699674D02*
X10151253Y-15709198D01*
X10151253Y-15709198D02*
X10160777Y-15728246D01*
X10160777Y-15728246D02*
X10160777Y-15785388D01*
X10160777Y-15785388D02*
X10151253Y-15804436D01*
X10151253Y-15804436D02*
X10141730Y-15813960D01*
X10141730Y-15813960D02*
X10122682Y-15823484D01*
X10122682Y-15823484D02*
X10094111Y-15823484D01*
X10275063Y-15823484D02*
X10256015Y-15813960D01*
X10256015Y-15813960D02*
X10246492Y-15794912D01*
X10246492Y-15794912D02*
X10246492Y-15623484D01*
X10427444Y-15813960D02*
X10408396Y-15823484D01*
X10408396Y-15823484D02*
X10370301Y-15823484D01*
X10370301Y-15823484D02*
X10351253Y-15813960D01*
X10351253Y-15813960D02*
X10341730Y-15794912D01*
X10341730Y-15794912D02*
X10341730Y-15718722D01*
X10341730Y-15718722D02*
X10351253Y-15699674D01*
X10351253Y-15699674D02*
X10370301Y-15690150D01*
X10370301Y-15690150D02*
X10408396Y-15690150D01*
X10408396Y-15690150D02*
X10427444Y-15699674D01*
X10427444Y-15699674D02*
X10436968Y-15718722D01*
X10436968Y-15718722D02*
X10436968Y-15737769D01*
X10436968Y-15737769D02*
X10341730Y-15756817D01*
X10513158Y-15813960D02*
X10532206Y-15823484D01*
X10532206Y-15823484D02*
X10570301Y-15823484D01*
X10570301Y-15823484D02*
X10589349Y-15813960D01*
X10589349Y-15813960D02*
X10598873Y-15794912D01*
X10598873Y-15794912D02*
X10598873Y-15785388D01*
X10598873Y-15785388D02*
X10589349Y-15766341D01*
X10589349Y-15766341D02*
X10570301Y-15756817D01*
X10570301Y-15756817D02*
X10541730Y-15756817D01*
X10541730Y-15756817D02*
X10522682Y-15747293D01*
X10522682Y-15747293D02*
X10513158Y-15728246D01*
X10513158Y-15728246D02*
X10513158Y-15718722D01*
X10513158Y-15718722D02*
X10522682Y-15699674D01*
X10522682Y-15699674D02*
X10541730Y-15690150D01*
X10541730Y-15690150D02*
X10570301Y-15690150D01*
X10570301Y-15690150D02*
X10589349Y-15699674D01*
X10665539Y-15899674D02*
X10675063Y-15890150D01*
X10675063Y-15890150D02*
X10694111Y-15861579D01*
X10694111Y-15861579D02*
X10703634Y-15842531D01*
X10703634Y-15842531D02*
X10713158Y-15813960D01*
X10713158Y-15813960D02*
X10722682Y-15766341D01*
X10722682Y-15766341D02*
X10722682Y-15728246D01*
X10722682Y-15728246D02*
X10713158Y-15680627D01*
X10713158Y-15680627D02*
X10703634Y-15652055D01*
X10703634Y-15652055D02*
X10694111Y-15633008D01*
X10694111Y-15633008D02*
X10675063Y-15604436D01*
X10675063Y-15604436D02*
X10665539Y-15594912D01*
D12*
X5640000Y-16056000D02*
X5700000Y-15996000D01*
X5640000Y-15936000D01*
X5580000Y-15996000D01*
X5640000Y-16056000D01*
D11*
X6065539Y-16087484D02*
X5951253Y-16087484D01*
X6008396Y-16087484D02*
X6008396Y-15887484D01*
X6008396Y-15887484D02*
X5989348Y-15916055D01*
X5989348Y-15916055D02*
X5970301Y-15935103D01*
X5970301Y-15935103D02*
X5951253Y-15944627D01*
X6151253Y-16068436D02*
X6160777Y-16077960D01*
X6160777Y-16077960D02*
X6151253Y-16087484D01*
X6151253Y-16087484D02*
X6141729Y-16077960D01*
X6141729Y-16077960D02*
X6151253Y-16068436D01*
X6151253Y-16068436D02*
X6151253Y-16087484D01*
X6236967Y-15906531D02*
X6246491Y-15897008D01*
X6246491Y-15897008D02*
X6265539Y-15887484D01*
X6265539Y-15887484D02*
X6313158Y-15887484D01*
X6313158Y-15887484D02*
X6332205Y-15897008D01*
X6332205Y-15897008D02*
X6341729Y-15906531D01*
X6341729Y-15906531D02*
X6351253Y-15925579D01*
X6351253Y-15925579D02*
X6351253Y-15944627D01*
X6351253Y-15944627D02*
X6341729Y-15973198D01*
X6341729Y-15973198D02*
X6227443Y-16087484D01*
X6227443Y-16087484D02*
X6351253Y-16087484D01*
X6475062Y-15887484D02*
X6494110Y-15887484D01*
X6494110Y-15887484D02*
X6513158Y-15897008D01*
X6513158Y-15897008D02*
X6522682Y-15906531D01*
X6522682Y-15906531D02*
X6532205Y-15925579D01*
X6532205Y-15925579D02*
X6541729Y-15963674D01*
X6541729Y-15963674D02*
X6541729Y-16011293D01*
X6541729Y-16011293D02*
X6532205Y-16049388D01*
X6532205Y-16049388D02*
X6522682Y-16068436D01*
X6522682Y-16068436D02*
X6513158Y-16077960D01*
X6513158Y-16077960D02*
X6494110Y-16087484D01*
X6494110Y-16087484D02*
X6475062Y-16087484D01*
X6475062Y-16087484D02*
X6456015Y-16077960D01*
X6456015Y-16077960D02*
X6446491Y-16068436D01*
X6446491Y-16068436D02*
X6436967Y-16049388D01*
X6436967Y-16049388D02*
X6427443Y-16011293D01*
X6427443Y-16011293D02*
X6427443Y-15963674D01*
X6427443Y-15963674D02*
X6436967Y-15925579D01*
X6436967Y-15925579D02*
X6446491Y-15906531D01*
X6446491Y-15906531D02*
X6456015Y-15897008D01*
X6456015Y-15897008D02*
X6475062Y-15887484D01*
X6665539Y-15887484D02*
X6684586Y-15887484D01*
X6684586Y-15887484D02*
X6703634Y-15897008D01*
X6703634Y-15897008D02*
X6713158Y-15906531D01*
X6713158Y-15906531D02*
X6722682Y-15925579D01*
X6722682Y-15925579D02*
X6732205Y-15963674D01*
X6732205Y-15963674D02*
X6732205Y-16011293D01*
X6732205Y-16011293D02*
X6722682Y-16049388D01*
X6722682Y-16049388D02*
X6713158Y-16068436D01*
X6713158Y-16068436D02*
X6703634Y-16077960D01*
X6703634Y-16077960D02*
X6684586Y-16087484D01*
X6684586Y-16087484D02*
X6665539Y-16087484D01*
X6665539Y-16087484D02*
X6646491Y-16077960D01*
X6646491Y-16077960D02*
X6636967Y-16068436D01*
X6636967Y-16068436D02*
X6627443Y-16049388D01*
X6627443Y-16049388D02*
X6617920Y-16011293D01*
X6617920Y-16011293D02*
X6617920Y-15963674D01*
X6617920Y-15963674D02*
X6627443Y-15925579D01*
X6627443Y-15925579D02*
X6636967Y-15906531D01*
X6636967Y-15906531D02*
X6646491Y-15897008D01*
X6646491Y-15897008D02*
X6665539Y-15887484D01*
X6817920Y-16087484D02*
X6817920Y-15954150D01*
X6817920Y-15973198D02*
X6827443Y-15963674D01*
X6827443Y-15963674D02*
X6846491Y-15954150D01*
X6846491Y-15954150D02*
X6875063Y-15954150D01*
X6875063Y-15954150D02*
X6894110Y-15963674D01*
X6894110Y-15963674D02*
X6903634Y-15982722D01*
X6903634Y-15982722D02*
X6903634Y-16087484D01*
X6903634Y-15982722D02*
X6913158Y-15963674D01*
X6913158Y-15963674D02*
X6932205Y-15954150D01*
X6932205Y-15954150D02*
X6960777Y-15954150D01*
X6960777Y-15954150D02*
X6979824Y-15963674D01*
X6979824Y-15963674D02*
X6989348Y-15982722D01*
X6989348Y-15982722D02*
X6989348Y-16087484D01*
X7084586Y-16087484D02*
X7084586Y-15954150D01*
X7084586Y-15973198D02*
X7094110Y-15963674D01*
X7094110Y-15963674D02*
X7113158Y-15954150D01*
X7113158Y-15954150D02*
X7141729Y-15954150D01*
X7141729Y-15954150D02*
X7160777Y-15963674D01*
X7160777Y-15963674D02*
X7170301Y-15982722D01*
X7170301Y-15982722D02*
X7170301Y-16087484D01*
X7170301Y-15982722D02*
X7179824Y-15963674D01*
X7179824Y-15963674D02*
X7198872Y-15954150D01*
X7198872Y-15954150D02*
X7227443Y-15954150D01*
X7227443Y-15954150D02*
X7246491Y-15963674D01*
X7246491Y-15963674D02*
X7256015Y-15982722D01*
X7256015Y-15982722D02*
X7256015Y-16087484D01*
X7646491Y-15877960D02*
X7475063Y-16135103D01*
X7903634Y-15887484D02*
X7922682Y-15887484D01*
X7922682Y-15887484D02*
X7941729Y-15897008D01*
X7941729Y-15897008D02*
X7951253Y-15906531D01*
X7951253Y-15906531D02*
X7960777Y-15925579D01*
X7960777Y-15925579D02*
X7970301Y-15963674D01*
X7970301Y-15963674D02*
X7970301Y-16011293D01*
X7970301Y-16011293D02*
X7960777Y-16049388D01*
X7960777Y-16049388D02*
X7951253Y-16068436D01*
X7951253Y-16068436D02*
X7941729Y-16077960D01*
X7941729Y-16077960D02*
X7922682Y-16087484D01*
X7922682Y-16087484D02*
X7903634Y-16087484D01*
X7903634Y-16087484D02*
X7884586Y-16077960D01*
X7884586Y-16077960D02*
X7875063Y-16068436D01*
X7875063Y-16068436D02*
X7865539Y-16049388D01*
X7865539Y-16049388D02*
X7856015Y-16011293D01*
X7856015Y-16011293D02*
X7856015Y-15963674D01*
X7856015Y-15963674D02*
X7865539Y-15925579D01*
X7865539Y-15925579D02*
X7875063Y-15906531D01*
X7875063Y-15906531D02*
X7884586Y-15897008D01*
X7884586Y-15897008D02*
X7903634Y-15887484D01*
X8056015Y-16068436D02*
X8065539Y-16077960D01*
X8065539Y-16077960D02*
X8056015Y-16087484D01*
X8056015Y-16087484D02*
X8046491Y-16077960D01*
X8046491Y-16077960D02*
X8056015Y-16068436D01*
X8056015Y-16068436D02*
X8056015Y-16087484D01*
X8189348Y-15887484D02*
X8208396Y-15887484D01*
X8208396Y-15887484D02*
X8227444Y-15897008D01*
X8227444Y-15897008D02*
X8236967Y-15906531D01*
X8236967Y-15906531D02*
X8246491Y-15925579D01*
X8246491Y-15925579D02*
X8256015Y-15963674D01*
X8256015Y-15963674D02*
X8256015Y-16011293D01*
X8256015Y-16011293D02*
X8246491Y-16049388D01*
X8246491Y-16049388D02*
X8236967Y-16068436D01*
X8236967Y-16068436D02*
X8227444Y-16077960D01*
X8227444Y-16077960D02*
X8208396Y-16087484D01*
X8208396Y-16087484D02*
X8189348Y-16087484D01*
X8189348Y-16087484D02*
X8170301Y-16077960D01*
X8170301Y-16077960D02*
X8160777Y-16068436D01*
X8160777Y-16068436D02*
X8151253Y-16049388D01*
X8151253Y-16049388D02*
X8141729Y-16011293D01*
X8141729Y-16011293D02*
X8141729Y-15963674D01*
X8141729Y-15963674D02*
X8151253Y-15925579D01*
X8151253Y-15925579D02*
X8160777Y-15906531D01*
X8160777Y-15906531D02*
X8170301Y-15897008D01*
X8170301Y-15897008D02*
X8189348Y-15887484D01*
X8427444Y-15954150D02*
X8427444Y-16087484D01*
X8379825Y-15877960D02*
X8332206Y-16020817D01*
X8332206Y-16020817D02*
X8456015Y-16020817D01*
X8513158Y-15887484D02*
X8646491Y-15887484D01*
X8646491Y-15887484D02*
X8560777Y-16087484D01*
X8713158Y-15906531D02*
X8722682Y-15897008D01*
X8722682Y-15897008D02*
X8741729Y-15887484D01*
X8741729Y-15887484D02*
X8789349Y-15887484D01*
X8789349Y-15887484D02*
X8808396Y-15897008D01*
X8808396Y-15897008D02*
X8817920Y-15906531D01*
X8817920Y-15906531D02*
X8827444Y-15925579D01*
X8827444Y-15925579D02*
X8827444Y-15944627D01*
X8827444Y-15944627D02*
X8817920Y-15973198D01*
X8817920Y-15973198D02*
X8703634Y-16087484D01*
X8703634Y-16087484D02*
X8827444Y-16087484D01*
X8903634Y-15887484D02*
X8903634Y-15925579D01*
X8979825Y-15887484D02*
X8979825Y-15925579D01*
X9275063Y-16163674D02*
X9265539Y-16154150D01*
X9265539Y-16154150D02*
X9246491Y-16125579D01*
X9246491Y-16125579D02*
X9236968Y-16106531D01*
X9236968Y-16106531D02*
X9227444Y-16077960D01*
X9227444Y-16077960D02*
X9217920Y-16030341D01*
X9217920Y-16030341D02*
X9217920Y-15992246D01*
X9217920Y-15992246D02*
X9227444Y-15944627D01*
X9227444Y-15944627D02*
X9236968Y-15916055D01*
X9236968Y-15916055D02*
X9246491Y-15897008D01*
X9246491Y-15897008D02*
X9265539Y-15868436D01*
X9265539Y-15868436D02*
X9275063Y-15858912D01*
X9436968Y-15954150D02*
X9436968Y-16087484D01*
X9389349Y-15877960D02*
X9341730Y-16020817D01*
X9341730Y-16020817D02*
X9465539Y-16020817D01*
X9694111Y-16087484D02*
X9694111Y-15887484D01*
X9779825Y-16087484D02*
X9779825Y-15982722D01*
X9779825Y-15982722D02*
X9770301Y-15963674D01*
X9770301Y-15963674D02*
X9751253Y-15954150D01*
X9751253Y-15954150D02*
X9722682Y-15954150D01*
X9722682Y-15954150D02*
X9703634Y-15963674D01*
X9703634Y-15963674D02*
X9694111Y-15973198D01*
X9903634Y-16087484D02*
X9884587Y-16077960D01*
X9884587Y-16077960D02*
X9875063Y-16068436D01*
X9875063Y-16068436D02*
X9865539Y-16049388D01*
X9865539Y-16049388D02*
X9865539Y-15992246D01*
X9865539Y-15992246D02*
X9875063Y-15973198D01*
X9875063Y-15973198D02*
X9884587Y-15963674D01*
X9884587Y-15963674D02*
X9903634Y-15954150D01*
X9903634Y-15954150D02*
X9932206Y-15954150D01*
X9932206Y-15954150D02*
X9951253Y-15963674D01*
X9951253Y-15963674D02*
X9960777Y-15973198D01*
X9960777Y-15973198D02*
X9970301Y-15992246D01*
X9970301Y-15992246D02*
X9970301Y-16049388D01*
X9970301Y-16049388D02*
X9960777Y-16068436D01*
X9960777Y-16068436D02*
X9951253Y-16077960D01*
X9951253Y-16077960D02*
X9932206Y-16087484D01*
X9932206Y-16087484D02*
X9903634Y-16087484D01*
X10084587Y-16087484D02*
X10065539Y-16077960D01*
X10065539Y-16077960D02*
X10056015Y-16058912D01*
X10056015Y-16058912D02*
X10056015Y-15887484D01*
X10236968Y-16077960D02*
X10217920Y-16087484D01*
X10217920Y-16087484D02*
X10179825Y-16087484D01*
X10179825Y-16087484D02*
X10160777Y-16077960D01*
X10160777Y-16077960D02*
X10151253Y-16058912D01*
X10151253Y-16058912D02*
X10151253Y-15982722D01*
X10151253Y-15982722D02*
X10160777Y-15963674D01*
X10160777Y-15963674D02*
X10179825Y-15954150D01*
X10179825Y-15954150D02*
X10217920Y-15954150D01*
X10217920Y-15954150D02*
X10236968Y-15963674D01*
X10236968Y-15963674D02*
X10246492Y-15982722D01*
X10246492Y-15982722D02*
X10246492Y-16001769D01*
X10246492Y-16001769D02*
X10151253Y-16020817D01*
X10322682Y-16077960D02*
X10341730Y-16087484D01*
X10341730Y-16087484D02*
X10379825Y-16087484D01*
X10379825Y-16087484D02*
X10398873Y-16077960D01*
X10398873Y-16077960D02*
X10408396Y-16058912D01*
X10408396Y-16058912D02*
X10408396Y-16049388D01*
X10408396Y-16049388D02*
X10398873Y-16030341D01*
X10398873Y-16030341D02*
X10379825Y-16020817D01*
X10379825Y-16020817D02*
X10351253Y-16020817D01*
X10351253Y-16020817D02*
X10332206Y-16011293D01*
X10332206Y-16011293D02*
X10322682Y-15992246D01*
X10322682Y-15992246D02*
X10322682Y-15982722D01*
X10322682Y-15982722D02*
X10332206Y-15963674D01*
X10332206Y-15963674D02*
X10351253Y-15954150D01*
X10351253Y-15954150D02*
X10379825Y-15954150D01*
X10379825Y-15954150D02*
X10398873Y-15963674D01*
X10475063Y-16163674D02*
X10484587Y-16154150D01*
X10484587Y-16154150D02*
X10503634Y-16125579D01*
X10503634Y-16125579D02*
X10513158Y-16106531D01*
X10513158Y-16106531D02*
X10522682Y-16077960D01*
X10522682Y-16077960D02*
X10532206Y-16030341D01*
X10532206Y-16030341D02*
X10532206Y-15992246D01*
X10532206Y-15992246D02*
X10522682Y-15944627D01*
X10522682Y-15944627D02*
X10513158Y-15916055D01*
X10513158Y-15916055D02*
X10503634Y-15897008D01*
X10503634Y-15897008D02*
X10484587Y-15868436D01*
X10484587Y-15868436D02*
X10475063Y-15858912D01*
D13*
X5520000Y-16170000D02*
X5700000Y-16350000D01*
X5700000Y-16170000D02*
X5520000Y-16350000D01*
X5700000Y-16260000D02*
G75*
G02*
X5520000Y-16260000I-90000J0D01*
G01*
X5520000Y-16260000D02*
G75*
G02*
X5700000Y-16260000I90000J0D01*
G01*
D11*
X6065539Y-16351484D02*
X5951253Y-16351484D01*
X6008396Y-16351484D02*
X6008396Y-16151484D01*
X6008396Y-16151484D02*
X5989348Y-16180055D01*
X5989348Y-16180055D02*
X5970301Y-16199103D01*
X5970301Y-16199103D02*
X5951253Y-16208627D01*
X6151253Y-16332436D02*
X6160777Y-16341960D01*
X6160777Y-16341960D02*
X6151253Y-16351484D01*
X6151253Y-16351484D02*
X6141729Y-16341960D01*
X6141729Y-16341960D02*
X6151253Y-16332436D01*
X6151253Y-16332436D02*
X6151253Y-16351484D01*
X6275062Y-16237198D02*
X6256015Y-16227674D01*
X6256015Y-16227674D02*
X6246491Y-16218150D01*
X6246491Y-16218150D02*
X6236967Y-16199103D01*
X6236967Y-16199103D02*
X6236967Y-16189579D01*
X6236967Y-16189579D02*
X6246491Y-16170531D01*
X6246491Y-16170531D02*
X6256015Y-16161008D01*
X6256015Y-16161008D02*
X6275062Y-16151484D01*
X6275062Y-16151484D02*
X6313158Y-16151484D01*
X6313158Y-16151484D02*
X6332205Y-16161008D01*
X6332205Y-16161008D02*
X6341729Y-16170531D01*
X6341729Y-16170531D02*
X6351253Y-16189579D01*
X6351253Y-16189579D02*
X6351253Y-16199103D01*
X6351253Y-16199103D02*
X6341729Y-16218150D01*
X6341729Y-16218150D02*
X6332205Y-16227674D01*
X6332205Y-16227674D02*
X6313158Y-16237198D01*
X6313158Y-16237198D02*
X6275062Y-16237198D01*
X6275062Y-16237198D02*
X6256015Y-16246722D01*
X6256015Y-16246722D02*
X6246491Y-16256246D01*
X6246491Y-16256246D02*
X6236967Y-16275293D01*
X6236967Y-16275293D02*
X6236967Y-16313388D01*
X6236967Y-16313388D02*
X6246491Y-16332436D01*
X6246491Y-16332436D02*
X6256015Y-16341960D01*
X6256015Y-16341960D02*
X6275062Y-16351484D01*
X6275062Y-16351484D02*
X6313158Y-16351484D01*
X6313158Y-16351484D02*
X6332205Y-16341960D01*
X6332205Y-16341960D02*
X6341729Y-16332436D01*
X6341729Y-16332436D02*
X6351253Y-16313388D01*
X6351253Y-16313388D02*
X6351253Y-16275293D01*
X6351253Y-16275293D02*
X6341729Y-16256246D01*
X6341729Y-16256246D02*
X6332205Y-16246722D01*
X6332205Y-16246722D02*
X6313158Y-16237198D01*
X6475062Y-16151484D02*
X6494110Y-16151484D01*
X6494110Y-16151484D02*
X6513158Y-16161008D01*
X6513158Y-16161008D02*
X6522682Y-16170531D01*
X6522682Y-16170531D02*
X6532205Y-16189579D01*
X6532205Y-16189579D02*
X6541729Y-16227674D01*
X6541729Y-16227674D02*
X6541729Y-16275293D01*
X6541729Y-16275293D02*
X6532205Y-16313388D01*
X6532205Y-16313388D02*
X6522682Y-16332436D01*
X6522682Y-16332436D02*
X6513158Y-16341960D01*
X6513158Y-16341960D02*
X6494110Y-16351484D01*
X6494110Y-16351484D02*
X6475062Y-16351484D01*
X6475062Y-16351484D02*
X6456015Y-16341960D01*
X6456015Y-16341960D02*
X6446491Y-16332436D01*
X6446491Y-16332436D02*
X6436967Y-16313388D01*
X6436967Y-16313388D02*
X6427443Y-16275293D01*
X6427443Y-16275293D02*
X6427443Y-16227674D01*
X6427443Y-16227674D02*
X6436967Y-16189579D01*
X6436967Y-16189579D02*
X6446491Y-16170531D01*
X6446491Y-16170531D02*
X6456015Y-16161008D01*
X6456015Y-16161008D02*
X6475062Y-16151484D01*
X6665539Y-16151484D02*
X6684586Y-16151484D01*
X6684586Y-16151484D02*
X6703634Y-16161008D01*
X6703634Y-16161008D02*
X6713158Y-16170531D01*
X6713158Y-16170531D02*
X6722682Y-16189579D01*
X6722682Y-16189579D02*
X6732205Y-16227674D01*
X6732205Y-16227674D02*
X6732205Y-16275293D01*
X6732205Y-16275293D02*
X6722682Y-16313388D01*
X6722682Y-16313388D02*
X6713158Y-16332436D01*
X6713158Y-16332436D02*
X6703634Y-16341960D01*
X6703634Y-16341960D02*
X6684586Y-16351484D01*
X6684586Y-16351484D02*
X6665539Y-16351484D01*
X6665539Y-16351484D02*
X6646491Y-16341960D01*
X6646491Y-16341960D02*
X6636967Y-16332436D01*
X6636967Y-16332436D02*
X6627443Y-16313388D01*
X6627443Y-16313388D02*
X6617920Y-16275293D01*
X6617920Y-16275293D02*
X6617920Y-16227674D01*
X6617920Y-16227674D02*
X6627443Y-16189579D01*
X6627443Y-16189579D02*
X6636967Y-16170531D01*
X6636967Y-16170531D02*
X6646491Y-16161008D01*
X6646491Y-16161008D02*
X6665539Y-16151484D01*
X6817920Y-16351484D02*
X6817920Y-16218150D01*
X6817920Y-16237198D02*
X6827443Y-16227674D01*
X6827443Y-16227674D02*
X6846491Y-16218150D01*
X6846491Y-16218150D02*
X6875063Y-16218150D01*
X6875063Y-16218150D02*
X6894110Y-16227674D01*
X6894110Y-16227674D02*
X6903634Y-16246722D01*
X6903634Y-16246722D02*
X6903634Y-16351484D01*
X6903634Y-16246722D02*
X6913158Y-16227674D01*
X6913158Y-16227674D02*
X6932205Y-16218150D01*
X6932205Y-16218150D02*
X6960777Y-16218150D01*
X6960777Y-16218150D02*
X6979824Y-16227674D01*
X6979824Y-16227674D02*
X6989348Y-16246722D01*
X6989348Y-16246722D02*
X6989348Y-16351484D01*
X7084586Y-16351484D02*
X7084586Y-16218150D01*
X7084586Y-16237198D02*
X7094110Y-16227674D01*
X7094110Y-16227674D02*
X7113158Y-16218150D01*
X7113158Y-16218150D02*
X7141729Y-16218150D01*
X7141729Y-16218150D02*
X7160777Y-16227674D01*
X7160777Y-16227674D02*
X7170301Y-16246722D01*
X7170301Y-16246722D02*
X7170301Y-16351484D01*
X7170301Y-16246722D02*
X7179824Y-16227674D01*
X7179824Y-16227674D02*
X7198872Y-16218150D01*
X7198872Y-16218150D02*
X7227443Y-16218150D01*
X7227443Y-16218150D02*
X7246491Y-16227674D01*
X7246491Y-16227674D02*
X7256015Y-16246722D01*
X7256015Y-16246722D02*
X7256015Y-16351484D01*
X7646491Y-16141960D02*
X7475063Y-16399103D01*
X7903634Y-16151484D02*
X7922682Y-16151484D01*
X7922682Y-16151484D02*
X7941729Y-16161008D01*
X7941729Y-16161008D02*
X7951253Y-16170531D01*
X7951253Y-16170531D02*
X7960777Y-16189579D01*
X7960777Y-16189579D02*
X7970301Y-16227674D01*
X7970301Y-16227674D02*
X7970301Y-16275293D01*
X7970301Y-16275293D02*
X7960777Y-16313388D01*
X7960777Y-16313388D02*
X7951253Y-16332436D01*
X7951253Y-16332436D02*
X7941729Y-16341960D01*
X7941729Y-16341960D02*
X7922682Y-16351484D01*
X7922682Y-16351484D02*
X7903634Y-16351484D01*
X7903634Y-16351484D02*
X7884586Y-16341960D01*
X7884586Y-16341960D02*
X7875063Y-16332436D01*
X7875063Y-16332436D02*
X7865539Y-16313388D01*
X7865539Y-16313388D02*
X7856015Y-16275293D01*
X7856015Y-16275293D02*
X7856015Y-16227674D01*
X7856015Y-16227674D02*
X7865539Y-16189579D01*
X7865539Y-16189579D02*
X7875063Y-16170531D01*
X7875063Y-16170531D02*
X7884586Y-16161008D01*
X7884586Y-16161008D02*
X7903634Y-16151484D01*
X8056015Y-16332436D02*
X8065539Y-16341960D01*
X8065539Y-16341960D02*
X8056015Y-16351484D01*
X8056015Y-16351484D02*
X8046491Y-16341960D01*
X8046491Y-16341960D02*
X8056015Y-16332436D01*
X8056015Y-16332436D02*
X8056015Y-16351484D01*
X8189348Y-16151484D02*
X8208396Y-16151484D01*
X8208396Y-16151484D02*
X8227444Y-16161008D01*
X8227444Y-16161008D02*
X8236967Y-16170531D01*
X8236967Y-16170531D02*
X8246491Y-16189579D01*
X8246491Y-16189579D02*
X8256015Y-16227674D01*
X8256015Y-16227674D02*
X8256015Y-16275293D01*
X8256015Y-16275293D02*
X8246491Y-16313388D01*
X8246491Y-16313388D02*
X8236967Y-16332436D01*
X8236967Y-16332436D02*
X8227444Y-16341960D01*
X8227444Y-16341960D02*
X8208396Y-16351484D01*
X8208396Y-16351484D02*
X8189348Y-16351484D01*
X8189348Y-16351484D02*
X8170301Y-16341960D01*
X8170301Y-16341960D02*
X8160777Y-16332436D01*
X8160777Y-16332436D02*
X8151253Y-16313388D01*
X8151253Y-16313388D02*
X8141729Y-16275293D01*
X8141729Y-16275293D02*
X8141729Y-16227674D01*
X8141729Y-16227674D02*
X8151253Y-16189579D01*
X8151253Y-16189579D02*
X8160777Y-16170531D01*
X8160777Y-16170531D02*
X8170301Y-16161008D01*
X8170301Y-16161008D02*
X8189348Y-16151484D01*
X8322682Y-16151484D02*
X8456015Y-16151484D01*
X8456015Y-16151484D02*
X8370301Y-16351484D01*
X8570301Y-16151484D02*
X8589349Y-16151484D01*
X8589349Y-16151484D02*
X8608396Y-16161008D01*
X8608396Y-16161008D02*
X8617920Y-16170531D01*
X8617920Y-16170531D02*
X8627444Y-16189579D01*
X8627444Y-16189579D02*
X8636968Y-16227674D01*
X8636968Y-16227674D02*
X8636968Y-16275293D01*
X8636968Y-16275293D02*
X8627444Y-16313388D01*
X8627444Y-16313388D02*
X8617920Y-16332436D01*
X8617920Y-16332436D02*
X8608396Y-16341960D01*
X8608396Y-16341960D02*
X8589349Y-16351484D01*
X8589349Y-16351484D02*
X8570301Y-16351484D01*
X8570301Y-16351484D02*
X8551253Y-16341960D01*
X8551253Y-16341960D02*
X8541729Y-16332436D01*
X8541729Y-16332436D02*
X8532206Y-16313388D01*
X8532206Y-16313388D02*
X8522682Y-16275293D01*
X8522682Y-16275293D02*
X8522682Y-16227674D01*
X8522682Y-16227674D02*
X8532206Y-16189579D01*
X8532206Y-16189579D02*
X8541729Y-16170531D01*
X8541729Y-16170531D02*
X8551253Y-16161008D01*
X8551253Y-16161008D02*
X8570301Y-16151484D01*
X8732206Y-16351484D02*
X8770301Y-16351484D01*
X8770301Y-16351484D02*
X8789349Y-16341960D01*
X8789349Y-16341960D02*
X8798872Y-16332436D01*
X8798872Y-16332436D02*
X8817920Y-16303865D01*
X8817920Y-16303865D02*
X8827444Y-16265769D01*
X8827444Y-16265769D02*
X8827444Y-16189579D01*
X8827444Y-16189579D02*
X8817920Y-16170531D01*
X8817920Y-16170531D02*
X8808396Y-16161008D01*
X8808396Y-16161008D02*
X8789349Y-16151484D01*
X8789349Y-16151484D02*
X8751253Y-16151484D01*
X8751253Y-16151484D02*
X8732206Y-16161008D01*
X8732206Y-16161008D02*
X8722682Y-16170531D01*
X8722682Y-16170531D02*
X8713158Y-16189579D01*
X8713158Y-16189579D02*
X8713158Y-16237198D01*
X8713158Y-16237198D02*
X8722682Y-16256246D01*
X8722682Y-16256246D02*
X8732206Y-16265769D01*
X8732206Y-16265769D02*
X8751253Y-16275293D01*
X8751253Y-16275293D02*
X8789349Y-16275293D01*
X8789349Y-16275293D02*
X8808396Y-16265769D01*
X8808396Y-16265769D02*
X8817920Y-16256246D01*
X8817920Y-16256246D02*
X8827444Y-16237198D01*
X8903634Y-16151484D02*
X8903634Y-16189579D01*
X8979825Y-16151484D02*
X8979825Y-16189579D01*
X9275063Y-16427674D02*
X9265539Y-16418150D01*
X9265539Y-16418150D02*
X9246491Y-16389579D01*
X9246491Y-16389579D02*
X9236968Y-16370531D01*
X9236968Y-16370531D02*
X9227444Y-16341960D01*
X9227444Y-16341960D02*
X9217920Y-16294341D01*
X9217920Y-16294341D02*
X9217920Y-16256246D01*
X9217920Y-16256246D02*
X9227444Y-16208627D01*
X9227444Y-16208627D02*
X9236968Y-16180055D01*
X9236968Y-16180055D02*
X9246491Y-16161008D01*
X9246491Y-16161008D02*
X9265539Y-16132436D01*
X9265539Y-16132436D02*
X9275063Y-16122912D01*
X9436968Y-16151484D02*
X9398872Y-16151484D01*
X9398872Y-16151484D02*
X9379825Y-16161008D01*
X9379825Y-16161008D02*
X9370301Y-16170531D01*
X9370301Y-16170531D02*
X9351253Y-16199103D01*
X9351253Y-16199103D02*
X9341730Y-16237198D01*
X9341730Y-16237198D02*
X9341730Y-16313388D01*
X9341730Y-16313388D02*
X9351253Y-16332436D01*
X9351253Y-16332436D02*
X9360777Y-16341960D01*
X9360777Y-16341960D02*
X9379825Y-16351484D01*
X9379825Y-16351484D02*
X9417920Y-16351484D01*
X9417920Y-16351484D02*
X9436968Y-16341960D01*
X9436968Y-16341960D02*
X9446491Y-16332436D01*
X9446491Y-16332436D02*
X9456015Y-16313388D01*
X9456015Y-16313388D02*
X9456015Y-16265769D01*
X9456015Y-16265769D02*
X9446491Y-16246722D01*
X9446491Y-16246722D02*
X9436968Y-16237198D01*
X9436968Y-16237198D02*
X9417920Y-16227674D01*
X9417920Y-16227674D02*
X9379825Y-16227674D01*
X9379825Y-16227674D02*
X9360777Y-16237198D01*
X9360777Y-16237198D02*
X9351253Y-16246722D01*
X9351253Y-16246722D02*
X9341730Y-16265769D01*
X9694111Y-16351484D02*
X9694111Y-16151484D01*
X9779825Y-16351484D02*
X9779825Y-16246722D01*
X9779825Y-16246722D02*
X9770301Y-16227674D01*
X9770301Y-16227674D02*
X9751253Y-16218150D01*
X9751253Y-16218150D02*
X9722682Y-16218150D01*
X9722682Y-16218150D02*
X9703634Y-16227674D01*
X9703634Y-16227674D02*
X9694111Y-16237198D01*
X9903634Y-16351484D02*
X9884587Y-16341960D01*
X9884587Y-16341960D02*
X9875063Y-16332436D01*
X9875063Y-16332436D02*
X9865539Y-16313388D01*
X9865539Y-16313388D02*
X9865539Y-16256246D01*
X9865539Y-16256246D02*
X9875063Y-16237198D01*
X9875063Y-16237198D02*
X9884587Y-16227674D01*
X9884587Y-16227674D02*
X9903634Y-16218150D01*
X9903634Y-16218150D02*
X9932206Y-16218150D01*
X9932206Y-16218150D02*
X9951253Y-16227674D01*
X9951253Y-16227674D02*
X9960777Y-16237198D01*
X9960777Y-16237198D02*
X9970301Y-16256246D01*
X9970301Y-16256246D02*
X9970301Y-16313388D01*
X9970301Y-16313388D02*
X9960777Y-16332436D01*
X9960777Y-16332436D02*
X9951253Y-16341960D01*
X9951253Y-16341960D02*
X9932206Y-16351484D01*
X9932206Y-16351484D02*
X9903634Y-16351484D01*
X10084587Y-16351484D02*
X10065539Y-16341960D01*
X10065539Y-16341960D02*
X10056015Y-16322912D01*
X10056015Y-16322912D02*
X10056015Y-16151484D01*
X10236968Y-16341960D02*
X10217920Y-16351484D01*
X10217920Y-16351484D02*
X10179825Y-16351484D01*
X10179825Y-16351484D02*
X10160777Y-16341960D01*
X10160777Y-16341960D02*
X10151253Y-16322912D01*
X10151253Y-16322912D02*
X10151253Y-16246722D01*
X10151253Y-16246722D02*
X10160777Y-16227674D01*
X10160777Y-16227674D02*
X10179825Y-16218150D01*
X10179825Y-16218150D02*
X10217920Y-16218150D01*
X10217920Y-16218150D02*
X10236968Y-16227674D01*
X10236968Y-16227674D02*
X10246492Y-16246722D01*
X10246492Y-16246722D02*
X10246492Y-16265769D01*
X10246492Y-16265769D02*
X10151253Y-16284817D01*
X10322682Y-16341960D02*
X10341730Y-16351484D01*
X10341730Y-16351484D02*
X10379825Y-16351484D01*
X10379825Y-16351484D02*
X10398873Y-16341960D01*
X10398873Y-16341960D02*
X10408396Y-16322912D01*
X10408396Y-16322912D02*
X10408396Y-16313388D01*
X10408396Y-16313388D02*
X10398873Y-16294341D01*
X10398873Y-16294341D02*
X10379825Y-16284817D01*
X10379825Y-16284817D02*
X10351253Y-16284817D01*
X10351253Y-16284817D02*
X10332206Y-16275293D01*
X10332206Y-16275293D02*
X10322682Y-16256246D01*
X10322682Y-16256246D02*
X10322682Y-16246722D01*
X10322682Y-16246722D02*
X10332206Y-16227674D01*
X10332206Y-16227674D02*
X10351253Y-16218150D01*
X10351253Y-16218150D02*
X10379825Y-16218150D01*
X10379825Y-16218150D02*
X10398873Y-16227674D01*
X10475063Y-16427674D02*
X10484587Y-16418150D01*
X10484587Y-16418150D02*
X10503634Y-16389579D01*
X10503634Y-16389579D02*
X10513158Y-16370531D01*
X10513158Y-16370531D02*
X10522682Y-16341960D01*
X10522682Y-16341960D02*
X10532206Y-16294341D01*
X10532206Y-16294341D02*
X10532206Y-16256246D01*
X10532206Y-16256246D02*
X10522682Y-16208627D01*
X10522682Y-16208627D02*
X10513158Y-16180055D01*
X10513158Y-16180055D02*
X10503634Y-16161008D01*
X10503634Y-16161008D02*
X10484587Y-16132436D01*
X10484587Y-16132436D02*
X10475063Y-16122912D01*
M02*
