M48
; DRILL file KiCad 10.0.5 date 2026-10-10T07:25:36
; FORMAT={-:-/ absolute / metric / decimal}
; #@! TF.CreationDate,2026-10-10T07:25:36+05:30
; #@! TF.GenerationSoftware,Kicad,Pcbnew,10.0.5
; #@! TF.FileFunction,Plated,1,4,PTH
FMAT,2
METRIC
; #@! TA.AperFunction,Plated,PTH,ViaDrill
T1C0.200
; #@! TA.AperFunction,Plated,PTH,ViaDrill
T2C0.300
; #@! TA.AperFunction,Plated,PTH,ComponentDrill
T3C0.700
; #@! TA.AperFunction,Plated,PTH,ComponentDrill
T4C0.914
; #@! TA.AperFunction,Plated,PTH,ComponentDrill
T5C1.200
; #@! TA.AperFunction,Plated,PTH,ComponentDrill
T6C1.800
%
G90
G05
T1
X60.055Y-111.931
X60.175Y-115.199
X60.957Y-116.085
X61.638Y-114.79
X62.145Y-114.343
X62.157Y-115.2
X62.595Y-109.084
X62.947Y-118.0
X63.066Y-116.725
X63.229Y-107.637
X63.229Y-112.611
X64.628Y-122.88
X64.628Y-125.119
X64.879Y-111.928
X65.227Y-115.188
X65.744Y-106.809
X65.766Y-107.705
X65.939Y-76.556
X67.083Y-100.822
X67.121Y-86.706
X67.271Y-86.132
X67.316Y-84.435
X67.345Y-83.065
X67.455Y-79.198
X67.776Y-76.249
X67.782Y-75.099
X67.949Y-96.948
X68.067Y-104.0
X68.777Y-77.0
X69.151Y-100.81
X69.283Y-77.733
X70.0Y-77.724
X70.191Y-94.46
X70.2Y-82.91
X70.447Y-73.282
X70.518Y-126.1
X70.538Y-80.287
X70.645Y-113.269
X70.647Y-102.547
X71.1Y-73.1
X71.219Y-77.227
X71.294Y-84.435
X72.089Y-76.66
X72.093Y-109.085
X72.218Y-75.208
X72.375Y-74.1
X72.442Y-75.819
X73.386Y-99.962
X73.524Y-74.174
X73.736Y-109.888
X73.768Y-130.399
X74.128Y-113.108
X74.142Y-110.25
X74.24Y-89.998
X74.62Y-73.282
X74.677Y-109.627
X74.822Y-127.168
X75.124Y-81.076
X75.477Y-130.696
X75.599Y-94.846
X75.713Y-70.79
X75.836Y-119.839
X75.849Y-126.042
X75.915Y-115.333
X76.013Y-105.959
X76.122Y-60.205
X76.2Y-73.275
X76.279Y-131.166
X76.311Y-107.216
X76.358Y-85.079
X76.418Y-79.203
X76.503Y-127.178
X76.578Y-66.8
X76.588Y-95.241
X76.8Y-68.816
X76.942Y-111.967
X76.942Y-114.75
X76.951Y-114.151
X77.023Y-78.733
X77.025Y-59.273
X77.047Y-111.158
X77.242Y-92.086
X77.38Y-70.788
X77.411Y-117.321
X77.42Y-81.0
X77.706Y-112.632
X77.75Y-106.663
X77.828Y-78.397
X77.895Y-110.621
X78.041Y-115.11
X78.058Y-91.955
X78.066Y-113.05
X78.117Y-134.985
X78.258Y-73.485
X78.279Y-106.404
X78.281Y-98.14
X78.294Y-109.423
X78.331Y-127.423
X78.376Y-110.307
X78.526Y-99.728
X78.599Y-74.299
X78.599Y-108.821
X78.727Y-77.4
X78.742Y-75.031
X78.84Y-73.478
X78.884Y-132.916
X79.198Y-106.661
X79.209Y-111.703
X79.393Y-105.348
X79.428Y-133.8
X79.435Y-93.545
X79.65Y-106.2
X79.782Y-96.734
X79.881Y-111.816
X79.992Y-108.983
X80.0Y-117.815
X80.302Y-105.131
X80.37Y-109.38
X80.377Y-94.0
X80.526Y-128.6
X81.0Y-63.111
X81.097Y-123.7
X81.45Y-109.8
X81.635Y-74.699
X81.808Y-87.557
X81.811Y-71.479
X81.883Y-136.393
X81.9Y-106.4
X81.916Y-114.666
X82.151Y-80.583
X82.308Y-117.326
X82.356Y-79.427
X82.535Y-135.302
X82.633Y-114.445
X82.671Y-110.25
X83.103Y-105.638
X83.11Y-112.124
X83.12Y-60.154
X83.177Y-112.75
X83.178Y-111.028
X83.182Y-109.636
X83.207Y-107.063
X83.31Y-108.503
X83.425Y-81.203
X83.549Y-107.597
X83.799Y-94.157
X84.102Y-79.308
X84.145Y-64.0
X84.233Y-96.181
X84.525Y-78.331
X84.981Y-116.415
X84.998Y-107.959
X85.276Y-106.732
X85.325Y-104.828
X85.427Y-109.605
X85.458Y-115.194
X85.479Y-114.614
X85.548Y-110.842
X85.672Y-107.805
X85.701Y-112.25
X85.719Y-112.963
X85.845Y-92.905
X86.214Y-107.765
X86.248Y-116.255
X86.628Y-130.971
X86.81Y-118.21
X86.825Y-96.7
X86.85Y-70.829
X87.02Y-127.36
X87.264Y-113.061
X87.346Y-120.989
X87.461Y-105.144
X87.667Y-74.717
X87.737Y-119.955
X88.164Y-109.198
X88.479Y-120.065
X88.845Y-98.9
X88.953Y-77.853
X89.049Y-134.17
X89.09Y-121.027
X89.907Y-119.798
X90.262Y-101.846
X90.286Y-82.589
X90.531Y-131.274
X90.674Y-104.146
X90.763Y-86.979
X90.85Y-61.225
X90.875Y-109.161
X91.175Y-112.197
X91.571Y-109.083
X91.578Y-94.22
X91.603Y-125.705
X92.084Y-127.853
X92.405Y-92.908
X92.504Y-131.953
X92.513Y-75.8
X92.524Y-97.444
X92.703Y-133.041
X92.984Y-124.549
X93.033Y-69.048
X93.133Y-94.021
X93.516Y-60.713
X93.825Y-72.058
X93.836Y-131.269
X93.85Y-132.923
X94.087Y-127.206
X94.116Y-87.84
X94.665Y-104.814
X94.696Y-128.899
X94.759Y-133.813
X94.781Y-95.213
X94.862Y-95.98
X94.996Y-75.679
X95.459Y-97.11
X95.569Y-113.006
X95.787Y-107.962
X95.886Y-134.441
X95.911Y-124.219
X96.014Y-84.827
X96.419Y-114.95
X96.421Y-109.787
X96.444Y-76.536
X96.496Y-120.207
X96.558Y-116.2
X96.694Y-111.858
X97.177Y-97.129
X97.29Y-127.334
X97.5Y-96.666
X97.615Y-105.778
X97.704Y-106.335
X97.829Y-98.603
X97.849Y-133.628
X97.908Y-115.591
X98.103Y-75.846
X98.234Y-106.724
X98.371Y-118.332
X98.573Y-134.097
X99.008Y-131.734
X99.114Y-133.505
X99.406Y-94.602
X99.942Y-130.83
X100.0Y-98.384
X100.65Y-98.788
X100.748Y-77.609
X100.918Y-72.371
X101.402Y-77.611
X101.881Y-108.481
X101.926Y-84.948
X102.088Y-81.547
X102.111Y-103.976
X102.5Y-116.324
X102.662Y-97.984
X102.73Y-72.838
X102.883Y-71.632
X102.948Y-76.77
X103.044Y-79.0
X103.094Y-71.0
X103.19Y-88.633
X103.207Y-109.486
X103.274Y-79.979
X103.355Y-90.769
X103.432Y-130.84
X103.484Y-77.0
X103.568Y-94.55
X103.617Y-76.25
X103.631Y-74.565
X103.729Y-73.754
X103.867Y-107.367
X103.876Y-72.379
X104.187Y-80.93
X104.37Y-95.27
X104.727Y-110.193
X104.84Y-71.569
X105.058Y-127.772
X105.422Y-109.172
X105.656Y-96.626
X105.931Y-85.57
X105.933Y-78.199
X106.138Y-133.353
X106.299Y-107.404
X106.349Y-110.483
X106.422Y-96.45
X106.645Y-115.763
X106.676Y-125.812
X106.709Y-100.75
X106.788Y-85.326
X106.85Y-112.112
X107.0Y-130.295
X107.047Y-75.496
X107.575Y-122.275
X107.608Y-119.15
X107.815Y-82.014
X108.118Y-80.723
X108.185Y-95.357
X108.208Y-105.0
X108.45Y-98.1
X108.647Y-111.717
X108.685Y-71.998
X108.9Y-77.975
X108.95Y-76.099
X108.975Y-108.713
X109.178Y-122.679
X109.527Y-117.604
X109.769Y-94.258
X109.915Y-102.912
X109.958Y-82.0
X109.992Y-76.179
X110.01Y-84.835
X110.204Y-80.351
X110.647Y-76.109
X111.364Y-118.341
X111.514Y-95.627
X113.443Y-64.5
X113.492Y-122.021
X113.492Y-132.96
X114.957Y-106.998
X115.263Y-123.704
X115.879Y-60.0
X115.919Y-126.948
X116.485Y-132.699
X116.546Y-86.351
X116.675Y-128.402
X116.677Y-125.119
X117.093Y-101.75
X117.332Y-129.928
X117.504Y-100.357
X118.049Y-96.035
X118.175Y-119.198
X118.316Y-99.373
X118.448Y-82.425
X118.455Y-83.825
X118.61Y-107.07
X118.625Y-108.0
X118.625Y-113.001
X118.655Y-99.916
X118.664Y-100.75
X118.668Y-98.944
X118.717Y-104.153
X118.847Y-134.0
X119.017Y-112.231
X119.394Y-94.0
X119.528Y-89.898
X119.589Y-112.398
X119.593Y-92.985
X119.925Y-97.725
X119.988Y-91.114
X120.333Y-82.333
X120.809Y-85.326
X120.863Y-90.5
X121.0Y-97.95
X121.0Y-124.825
X121.26Y-107.064
X121.392Y-91.5
X121.816Y-106.319
X122.502Y-106.275
X122.578Y-81.369
X122.904Y-79.843
X123.0Y-83.27
X124.75Y-94.8
X124.8Y-106.35
X125.078Y-111.5
X125.371Y-130.416
X125.434Y-89.893
X125.705Y-124.365
X125.75Y-106.327
X125.85Y-95.0
X126.836Y-103.104
X126.906Y-83.257
X126.95Y-98.75
X127.064Y-101.354
X127.173Y-127.881
X127.217Y-96.443
X127.222Y-105.672
X127.928Y-112.775
X128.203Y-105.717
X128.304Y-87.325
X129.175Y-119.707
X129.2Y-106.125
X129.27Y-98.988
X129.325Y-103.123
X129.33Y-99.908
X129.415Y-101.814
X129.679Y-91.775
X130.143Y-88.723
X130.143Y-112.108
X130.76Y-109.989
X130.893Y-104.475
X131.454Y-90.154
X135.108Y-127.995
X135.738Y-121.353
X135.738Y-127.357
X136.411Y-90.51
X137.385Y-121.351
X139.201Y-90.813
X139.63Y-93.709
X140.06Y-93.025
X140.169Y-118.886
X140.2Y-105.449
X140.217Y-97.939
X140.659Y-90.799
X140.692Y-74.895
X140.989Y-118.493
X141.022Y-101.193
X141.036Y-111.2
X141.299Y-92.506
X142.008Y-110.91
T2
X62.225Y-105.2
X66.875Y-128.5
X67.953Y-85.733
X67.953Y-86.633
X68.853Y-87.533
X70.4Y-69.475
X71.525Y-123.5
X72.0Y-81.475
X72.365Y-99.496
X74.0Y-82.475
X74.175Y-100.9
X74.525Y-63.5
X75.825Y-87.9
X76.0Y-82.475
X77.25Y-120.975
X79.25Y-120.975
X81.25Y-120.975
X82.275Y-77.0
X82.75Y-124.975
X85.25Y-93.275
X86.8Y-103.275
X87.025Y-99.7
X87.025Y-102.3
X87.875Y-57.77
X88.365Y-98.246
X88.775Y-57.77
X88.775Y-58.67
X89.35Y-105.75
X89.675Y-57.77
X90.275Y-110.0
X90.275Y-115.0
X91.325Y-86.6
X91.5Y-65.85
X91.5Y-66.85
X92.155Y-71.105
X92.155Y-72.005
X92.5Y-65.85
X92.5Y-66.85
X93.055Y-71.105
X93.055Y-72.005
X96.188Y-70.5
X96.725Y-106.0
X97.519Y-128.817
X97.961Y-78.676
X98.325Y-93.9
X98.525Y-108.0
X100.0Y-107.275
X102.525Y-113.0
X103.0Y-92.775
X103.275Y-121.0
X104.225Y-133.0
X105.525Y-118.835
X105.762Y-101.825
X107.5Y-65.85
X107.5Y-66.85
X108.5Y-65.85
X108.5Y-66.85
X108.877Y-97.635
X108.9Y-79.725
X110.957Y-118.907
X111.783Y-102.0
X111.783Y-102.9
X111.85Y-90.5
X111.85Y-91.5
X111.85Y-106.5
X111.85Y-107.5
X112.683Y-102.0
X112.683Y-102.9
X112.85Y-90.5
X112.85Y-91.5
X112.85Y-106.5
X112.85Y-107.5
X113.15Y-96.5
X113.15Y-97.5
X113.15Y-112.5
X113.15Y-113.5
X113.21Y-93.891
X114.11Y-93.891
X114.15Y-96.5
X114.15Y-97.5
X114.15Y-112.5
X114.15Y-113.5
X114.459Y-122.292
X114.459Y-123.642
X114.608Y-120.642
X114.608Y-121.542
X116.275Y-102.65
X118.795Y-96.49
X120.0Y-122.275
X121.225Y-94.0
X121.351Y-120.609
X122.251Y-119.709
X122.251Y-120.609
X122.251Y-121.509
X123.25Y-110.212
X123.8Y-91.575
X125.25Y-109.925
X126.5Y-92.475
X126.95Y-99.75
X126.95Y-100.5
X126.95Y-102.25
X126.993Y-119.086
X127.354Y-136.686
X127.354Y-137.586
X127.4Y-91.487
X127.893Y-118.186
X127.893Y-119.086
X127.893Y-119.986
X128.2Y-97.5
X128.2Y-104.5
X128.254Y-137.586
X128.254Y-138.486
X128.6Y-108.212
X128.6Y-109.112
X128.6Y-110.012
X129.117Y-104.263
X130.0Y-122.275
X131.075Y-119.235
X131.16Y-91.887
X131.16Y-92.787
X131.334Y-98.371
X133.549Y-104.325
X133.699Y-102.675
X133.699Y-103.575
X134.45Y-93.5
X134.45Y-94.5
X134.45Y-111.5
X134.45Y-112.5
X135.199Y-104.625
X135.45Y-93.5
X135.45Y-94.5
X135.45Y-111.5
X135.45Y-112.5
X135.75Y-100.5
X135.75Y-101.5
X135.75Y-118.1
X135.75Y-119.1
X136.75Y-101.5
X136.75Y-100.5
X136.75Y-118.1
X136.75Y-119.1
T4
X89.0Y-138.0
X89.0Y-140.0
X91.0Y-138.0
X91.0Y-140.0
X93.0Y-138.0
X93.0Y-140.0
X95.0Y-138.0
X95.0Y-140.0
X97.0Y-138.0
X97.0Y-140.0
X99.0Y-138.0
X99.0Y-140.0
X101.0Y-138.0
X101.0Y-140.0
X103.0Y-138.0
X103.0Y-140.0
X105.0Y-138.0
X105.0Y-140.0
X107.0Y-138.0
X107.0Y-140.0
T5
X117.5Y-72.0
X122.5Y-72.0
X132.5Y-82.0
X137.5Y-82.0
T6
X98.02Y-63.5
X101.98Y-63.5
X114.06Y-139.0
X118.02Y-139.0
X121.98Y-139.0
X125.94Y-139.0
T3
X61.714Y-80.68G85X61.014Y-80.68
G05
X61.714Y-94.68G85X61.014Y-94.68
G05
X61.714Y-89.32G85X61.014Y-89.32
G05
X61.714Y-103.32G85X61.014Y-103.32
G05
X66.044Y-80.68G85X65.044Y-80.68
G05
X66.044Y-89.32G85X65.044Y-89.32
G05
X66.044Y-94.68G85X65.044Y-94.68
G05
X66.044Y-103.32G85X65.044Y-103.32
G05
M30
