%TF.GenerationSoftware,KiCad,Pcbnew,10.0.5*%
%TF.CreationDate,2026-10-09T19:01:07+05:30*%
%TF.ProjectId,pd1180-epr-r0.3,70643131-3830-42d6-9570-722d72302e33,rev?*%
%TF.SameCoordinates,Original*%
%TF.FileFunction,Copper,L4,Bot*%
%TF.FilePolarity,Positive*%
%FSLAX46Y46*%
G04 Gerber Fmt 4.6, Leading zero omitted, Abs format (unit mm)*
G04 Created by KiCad (PCBNEW 10.0.5) date 2026-10-09 19:01:07*
%MOMM*%
%LPD*%
G01*
G04 APERTURE LIST*
%TA.AperFunction,ComponentPad*%
%ADD10O,2.099996X1.099998*%
%TD*%
%TA.AperFunction,ComponentPad*%
%ADD11O,1.799996X1.099998*%
%TD*%
%TA.AperFunction,ComponentPad*%
%ADD12C,1.524000*%
%TD*%
%TA.AperFunction,ComponentPad*%
%ADD13C,2.099996*%
%TD*%
%TA.AperFunction,ComponentPad*%
%ADD14R,2.499995X2.499995*%
%TD*%
%TA.AperFunction,ComponentPad*%
%ADD15C,2.499995*%
%TD*%
%TA.AperFunction,ViaPad*%
%ADD16C,0.450000*%
%TD*%
%TA.AperFunction,ViaPad*%
%ADD17C,0.600000*%
%TD*%
%TA.AperFunction,Conductor*%
%ADD18C,0.150000*%
%TD*%
%TA.AperFunction,Conductor*%
%ADD19C,0.250000*%
%TD*%
%TA.AperFunction,Conductor*%
%ADD20C,0.300000*%
%TD*%
%TA.AperFunction,Conductor*%
%ADD21C,0.500000*%
%TD*%
G04 APERTURE END LIST*
D10*
%TO.P,J1,1*%
%TO.N,GND*%
X65544454Y-80679968D03*
%TO.P,J1,2*%
X65544454Y-89320032D03*
D11*
%TO.P,J1,3*%
X61364376Y-89320032D03*
%TO.P,J1,4*%
X61364375Y-80679968D03*
%TD*%
D12*
%TO.P,J7,1*%
%TO.N,HOME_24V*%
X106999982Y-139999871D03*
%TO.P,J7,2*%
%TO.N,STOPL_24V*%
X106999982Y-137999875D03*
%TO.P,J7,3*%
%TO.N,STOPR_24V*%
X104999986Y-139999871D03*
%TO.P,J7,4*%
%TO.N,DIN0_24V*%
X104999986Y-137999875D03*
%TO.P,J7,5*%
%TO.N,DIN1_24V*%
X102999990Y-139999871D03*
%TO.P,J7,6*%
%TO.N,STEP_24V*%
X102999990Y-137999875D03*
%TO.P,J7,7*%
%TO.N,DIR_24V*%
X100999994Y-139999871D03*
%TO.P,J7,8*%
%TO.N,GND*%
X100999994Y-137999875D03*
%TO.P,J7,9*%
%TO.N,RS232_TX_CONN*%
X98999998Y-139999871D03*
%TO.P,J7,10*%
%TO.N,RS232_RX_CONN*%
X98999998Y-137999875D03*
%TO.P,J7,11*%
%TO.N,GND*%
X97000002Y-139999871D03*
%TO.P,J7,12*%
%TO.N,CAN_H*%
X97000002Y-137999875D03*
%TO.P,J7,13*%
%TO.N,CAN_L*%
X95000006Y-139999871D03*
%TO.P,J7,14*%
%TO.N,GND*%
X95000006Y-137999875D03*
%TO.P,J7,15*%
%TO.N,RS485_A*%
X93000010Y-139999871D03*
%TO.P,J7,16*%
%TO.N,RS485_B*%
X93000010Y-137999875D03*
%TO.P,J7,17*%
%TO.N,VMOTOR*%
X91000014Y-139999871D03*
%TO.P,J7,18*%
%TO.N,HW_ENABLE_24V*%
X91000014Y-137999875D03*
%TO.P,J7,19*%
%TO.N,OUT0*%
X89000018Y-139999871D03*
%TO.P,J7,20*%
%TO.N,OUT1*%
X89000018Y-137999875D03*
%TD*%
D13*
%TO.P,C22,1*%
%TO.N,VMOTOR*%
X127500005Y-78000000D03*
%TO.P,C22,2*%
%TO.N,GND*%
X132499995Y-78000000D03*
%TD*%
D14*
%TO.P,J3,1*%
%TO.N,VMOTOR*%
X98019816Y-63500000D03*
D15*
%TO.P,J3,2*%
%TO.N,BRAKE_RETURN*%
X101980184Y-63500000D03*
%TD*%
D13*
%TO.P,C23,1*%
%TO.N,VMOTOR*%
X129500005Y-92000000D03*
%TO.P,C23,2*%
%TO.N,GND*%
X134499995Y-92000000D03*
%TD*%
D14*
%TO.P,J2,1*%
%TO.N,MOTOR_A1*%
X114059956Y-139000000D03*
D15*
%TO.P,J2,2*%
%TO.N,MOTOR_A2*%
X118020070Y-139000000D03*
%TO.P,J2,3*%
%TO.N,MOTOR_B1*%
X121980184Y-139000000D03*
%TO.P,J2,4*%
%TO.N,MOTOR_B2*%
X125940044Y-139000000D03*
%TD*%
D10*
%TO.P,J10,1*%
%TO.N,GND*%
X65544454Y-94679968D03*
%TO.P,J10,2*%
X65544454Y-103320032D03*
D11*
%TO.P,J10,3*%
X61364376Y-103320032D03*
%TO.P,J10,4*%
X61364375Y-94679968D03*
%TD*%
D16*
%TO.N,STEP_IN_BASE*%
X136048400Y-106403400D03*
X119088800Y-131272700D03*
X135347400Y-115159900D03*
D17*
%TO.N,GND*%
X104225000Y-133000000D03*
X114350000Y-95975000D03*
X66875000Y-128500000D03*
X106750000Y-86475000D03*
X90275000Y-115000000D03*
X90275000Y-110000000D03*
X109000000Y-85987500D03*
X79250000Y-120975000D03*
X82750000Y-124975000D03*
X71525000Y-123500000D03*
X104500000Y-104012000D03*
X88365000Y-98246100D03*
X74000000Y-82475000D03*
D16*
X80249936Y-115949928D03*
D17*
X74525000Y-63500000D03*
X77250000Y-120975000D03*
X89350000Y-105750000D03*
D16*
X68905700Y-81282900D03*
X86098000Y-118201800D03*
D17*
X115000000Y-75725000D03*
X98525000Y-108000000D03*
X91325000Y-86600000D03*
D16*
X101672800Y-124738500D03*
D17*
X75825000Y-87900000D03*
X72365000Y-99496100D03*
D16*
X115725000Y-89547900D03*
D17*
X77350000Y-105750000D03*
X62225000Y-105200000D03*
X102525000Y-113000000D03*
X70400000Y-69475000D03*
X96187500Y-70500000D03*
D16*
X79349936Y-119549928D03*
D17*
X106800000Y-103725000D03*
X76000000Y-82475000D03*
X100000000Y-107275000D03*
D16*
X88424000Y-75050000D03*
D17*
X72000000Y-81475000D03*
X108100000Y-102825000D03*
X81250000Y-120975000D03*
D16*
X98289600Y-74649800D03*
D17*
X82275000Y-77000000D03*
X103275000Y-121000000D03*
%TO.N,VMOTOR*%
X115500000Y-83850000D03*
X116500000Y-82850000D03*
X105508600Y-71835200D03*
X130600000Y-107850000D03*
X115500000Y-82850000D03*
X106621400Y-81900000D03*
X132500000Y-108750000D03*
X115500000Y-105850000D03*
X116500000Y-106850000D03*
X132500000Y-106850000D03*
X100108600Y-72735200D03*
X117400000Y-82850000D03*
X96816700Y-128785300D03*
X105860600Y-88657700D03*
X107521400Y-81000000D03*
X131500000Y-107850000D03*
X115500000Y-106850000D03*
X131500000Y-106850000D03*
X125400000Y-107750000D03*
X116500000Y-105850000D03*
X115500000Y-81949999D03*
X123500000Y-107850000D03*
X105892800Y-119231900D03*
X116500000Y-83850000D03*
X99208599Y-72735200D03*
X106621400Y-81000000D03*
X106408600Y-71835200D03*
X100674500Y-98839400D03*
X124400000Y-108750000D03*
X106621400Y-80100000D03*
X107081300Y-106643700D03*
X124500000Y-107850000D03*
X124500000Y-106850000D03*
X123500000Y-106850000D03*
X126795000Y-104524605D03*
X129495000Y-104524605D03*
X105892800Y-118331900D03*
X125895000Y-103624604D03*
X132500000Y-107850000D03*
X115500000Y-84750000D03*
D16*
%TO.N,PG_DIV*%
X101471700Y-72371500D03*
X92971100Y-74770600D03*
X103753500Y-79939600D03*
%TO.N,BOOT_A2*%
X106767700Y-85135100D03*
X105023800Y-88455300D03*
X105529200Y-85998300D03*
D17*
%TO.N,MOTOR_A2*%
X124500000Y-115850000D03*
X125400000Y-115850000D03*
X129125000Y-102733000D03*
X123500000Y-115850000D03*
X128225000Y-101833000D03*
X124500000Y-116850000D03*
X124400000Y-114949999D03*
X123500000Y-116850000D03*
X104544900Y-90675400D03*
X128225000Y-102733000D03*
D16*
%TO.N,RUN_BASE*%
X97646900Y-116889200D03*
X99171000Y-115447200D03*
%TO.N,ENABLE_CHAIN*%
X98592300Y-119195000D03*
X96142000Y-120000000D03*
%TO.N,DRV_EN_N*%
X109958200Y-85500000D03*
X104920700Y-117000000D03*
X110338300Y-89659500D03*
%TO.N,ILIM_SET*%
X103644800Y-74870700D03*
X103654300Y-76819500D03*
%TO.N,VMON_ADC*%
X87132200Y-115453700D03*
X109167100Y-79794400D03*
X87419700Y-86438100D03*
X82436800Y-117330100D03*
%TO.N,VMON_MID*%
X107127200Y-73596200D03*
X94542600Y-73454100D03*
X108175000Y-76194600D03*
%TO.N,BRAKE_GATE*%
X118458100Y-71349800D03*
X110630200Y-69400500D03*
D17*
%TO.N,BRAKE_RETURN*%
X109400000Y-66849999D03*
X107500000Y-66850000D03*
X106600000Y-66849999D03*
X108500000Y-66850000D03*
X108500000Y-65850000D03*
X107500000Y-65850000D03*
D16*
%TO.N,DIR_IN*%
X89238400Y-109138800D03*
X139056200Y-121246500D03*
X119217600Y-130722400D03*
X108114100Y-114435800D03*
X89238400Y-112548400D03*
X83643000Y-108540600D03*
%TO.N,STOP_R*%
X93196100Y-106915800D03*
X104096300Y-111491100D03*
X93434500Y-111808600D03*
X105050900Y-126718000D03*
%TO.N,REFR_DIR*%
X110853800Y-107813100D03*
X113108600Y-98231000D03*
X106326600Y-109341400D03*
X106254900Y-112576700D03*
%TO.N,V3V3*%
X77350000Y-99651200D03*
X73925000Y-123912000D03*
X75359400Y-116917600D03*
X94721200Y-99354000D03*
X69425000Y-127212000D03*
X105326500Y-113874900D03*
X136951800Y-120201800D03*
X88723500Y-98970600D03*
X90602100Y-109173500D03*
X106544200Y-121054100D03*
X135848600Y-102895700D03*
X84772200Y-77806200D03*
X129612100Y-100250000D03*
X72675400Y-79580700D03*
X114981000Y-122483200D03*
X114510100Y-131000000D03*
X93690000Y-97185000D03*
%TO.N,SD_MODE*%
X103871800Y-108568900D03*
X107971500Y-112740000D03*
X111320400Y-94277900D03*
X112897100Y-88961300D03*
%TO.N,POWER_PERMIT*%
X88666800Y-79799900D03*
X81492200Y-79799900D03*
X78913100Y-112007300D03*
%TO.N,ENC_I*%
X97501600Y-133983200D03*
X102436600Y-101783400D03*
%TO.N,OUT1_DRIVE*%
X77422000Y-112505500D03*
X136648700Y-104799800D03*
X77182900Y-110665200D03*
%TO.N,FLASH_CS_N*%
X85348600Y-109634100D03*
X85093400Y-128068600D03*
X93545000Y-127596700D03*
%TO.N,SPI_MISO*%
X111330700Y-96399200D03*
X85541300Y-112615200D03*
X87000000Y-129190500D03*
X100818900Y-96014300D03*
X86733600Y-102638000D03*
%TO.N,SPI_MOSI*%
X100017700Y-96032000D03*
X85875700Y-111523200D03*
X86294900Y-104997000D03*
X111038700Y-97672100D03*
%TO.N,SPI_SCK*%
X88270000Y-122076800D03*
X111431900Y-98044900D03*
X86999700Y-106251200D03*
X85340200Y-113887500D03*
X102317800Y-98333300D03*
%TO.N,LOGIC_PG*%
X83797500Y-93844200D03*
X75588900Y-94162200D03*
D17*
%TO.N,PD_VBUS*%
X104032400Y-73821900D03*
X66924100Y-80034200D03*
X103118200Y-78156200D03*
X66058074Y-79534200D03*
D16*
%TO.N,STEP_IN*%
X117941800Y-130926400D03*
X123750000Y-98000800D03*
X102015500Y-109043300D03*
X105674600Y-108808000D03*
X99191900Y-106338600D03*
X120623100Y-107435900D03*
%TO.N,NRST*%
X81447000Y-133301100D03*
X86328300Y-114791700D03*
X81785100Y-117322900D03*
%TO.N,GL_A2*%
X125905000Y-121027200D03*
X125320000Y-126705100D03*
D17*
%TO.N,SENSE_A*%
X120877900Y-119869100D03*
X121195000Y-119119100D03*
X119977900Y-119869100D03*
X121195000Y-118219100D03*
X120295000Y-96769100D03*
D16*
X109000062Y-99199890D03*
D17*
X119977900Y-120769100D03*
X122095000Y-119119100D03*
X119248900Y-125349100D03*
X119248900Y-124449100D03*
X119077900Y-119869100D03*
X119395000Y-96769100D03*
X118348900Y-125349100D03*
X122095000Y-120019100D03*
D16*
X117000062Y-95699890D03*
%TO.N,EPR_EN*%
X76999700Y-79096500D03*
X65909900Y-75932500D03*
X68703500Y-74275800D03*
X78735100Y-75501500D03*
%TO.N,LOGIC_OR_PRIORITY*%
X78000000Y-99659400D03*
X90488500Y-101843800D03*
X75043900Y-102641700D03*
%TO.N,ENC_A*%
X97814300Y-96030600D03*
X91239400Y-135323000D03*
%TO.N,STATUS_GPIO*%
X76583500Y-116249900D03*
X82545200Y-137283800D03*
%TO.N,DIN0*%
X78273200Y-130721500D03*
X90495300Y-133156900D03*
X76824600Y-115333200D03*
%TO.N,DIN1*%
X79770800Y-126492200D03*
X114702200Y-121373100D03*
X99969600Y-130907600D03*
X78486200Y-115045700D03*
%TO.N,OSC_OUT*%
X85539200Y-117455600D03*
X90130900Y-121000000D03*
X89080800Y-117415800D03*
%TO.N,IIN_MON*%
X102734800Y-69808400D03*
X102325000Y-81554500D03*
X84556300Y-117060000D03*
%TO.N,RS485_TX*%
X80521300Y-128599900D03*
X83179400Y-114699700D03*
%TO.N,RS485_RX*%
X83174900Y-114129200D03*
X75538000Y-117661400D03*
X76493400Y-127532100D03*
%TO.N,TMC_CS_N*%
X107972400Y-104292300D03*
X111432000Y-100091100D03*
X82527700Y-112607700D03*
%TO.N,USB_VBUS_SENSE*%
X84146100Y-82119700D03*
X83180500Y-111750100D03*
%TO.N,PD_IRQ_N*%
X79514300Y-110215900D03*
X78736200Y-76382200D03*
%TO.N,EFUSE_FAULT_N*%
X102018000Y-72219000D03*
X107549100Y-74296400D03*
X90634400Y-111780200D03*
%TO.N,RS485_DE*%
X78090500Y-127663000D03*
X82786300Y-110249900D03*
%TO.N,ENC_CS_N*%
X85890200Y-110441200D03*
X96800500Y-96989800D03*
X102475600Y-97731300D03*
%TO.N,STOP_L*%
X106050700Y-131000000D03*
X101273300Y-106494200D03*
X98205200Y-107057800D03*
%TO.N,HOME_IN*%
X133951800Y-112379200D03*
X92846400Y-111393200D03*
X114450000Y-129365400D03*
X92634300Y-106524100D03*
X115773300Y-117543700D03*
X133951800Y-103000000D03*
%TO.N,RS232_TX*%
X80510100Y-106674300D03*
X66469700Y-106439300D03*
%TO.N,RS232_RX*%
X79404600Y-106678700D03*
X64677000Y-106649600D03*
%TO.N,USB_DM*%
X73833000Y-112612200D03*
X79409000Y-108942700D03*
%TO.N,USB_DP*%
X80308600Y-104763200D03*
X88530700Y-109196900D03*
X88530700Y-105580100D03*
%TO.N,SWDIO*%
X79469600Y-133670900D03*
X77923200Y-106445100D03*
%TO.N,SWCLK*%
X76781700Y-108666800D03*
X77159200Y-136087000D03*
%TO.N,CAN_RX*%
X74675200Y-109750100D03*
X70529300Y-126099900D03*
%TO.N,CAN_TX*%
X61543200Y-122848500D03*
X65453900Y-126099900D03*
%TO.N,OUT0_DRIVE*%
X102382700Y-104486400D03*
X103224200Y-106452100D03*
X123441600Y-99999800D03*
X77071300Y-110115000D03*
%TO.N,TMC_DIAG0*%
X81457600Y-111512800D03*
X76820200Y-111750100D03*
X82280000Y-91763800D03*
X110942300Y-89681700D03*
%TO.N,MOTOR_PG*%
X80543000Y-110630500D03*
X100849200Y-72376800D03*
X96427700Y-108349100D03*
X101794400Y-84951100D03*
%TO.N,PD_SCL*%
X77736100Y-113887500D03*
X78564800Y-77742100D03*
%TO.N,PD_SDA*%
X77826400Y-78050000D03*
X66825000Y-79302400D03*
X76920500Y-113750100D03*
%TO.N,TMC_DIAG1*%
X110730700Y-91981000D03*
X78037900Y-114352000D03*
X79906000Y-94611600D03*
%TO.N,VMOTOR_OK*%
X97034300Y-126492200D03*
X96166100Y-114001200D03*
X76840600Y-114750100D03*
X102129200Y-128172100D03*
%TO.N,EFUSE_EN*%
X103043200Y-73205300D03*
X87175000Y-72200400D03*
X102897200Y-71174000D03*
D17*
%TO.N,MOTOR_B2*%
X111814100Y-103381200D03*
X130600000Y-116850000D03*
X128573500Y-112972600D03*
X132500000Y-114949999D03*
X102833700Y-96291700D03*
X129473500Y-113872600D03*
X112699900Y-108317200D03*
X131500000Y-116850000D03*
X131600000Y-117750000D03*
X129473500Y-112972600D03*
X110914100Y-103381200D03*
X132500000Y-115850000D03*
X130373500Y-112972600D03*
X131500000Y-115850000D03*
X132500000Y-116850000D03*
D16*
%TO.N,HOME_IN_BASE*%
X126917300Y-130909200D03*
X135653800Y-113229900D03*
%TO.N,EPR_BLK_GATE*%
X68121100Y-74265900D03*
X71830600Y-72916200D03*
X75715500Y-60580000D03*
%TO.N,VBUS_LV*%
X73783000Y-73341200D03*
X80502700Y-73300000D03*
X67766800Y-75817400D03*
X78361000Y-58336200D03*
%TO.N,BRAKE_ON*%
X107663100Y-116200000D03*
X114379700Y-69801100D03*
%TO.N,GH_B1*%
X117839800Y-109040900D03*
X111596800Y-107804000D03*
D17*
%TO.N,MOTOR_B1*%
X104142900Y-98441600D03*
X115500000Y-114850000D03*
X115500000Y-115850000D03*
X97746700Y-101504400D03*
X116500000Y-114850000D03*
X116400000Y-116750000D03*
X116500000Y-115850000D03*
X115500000Y-113949999D03*
D16*
%TO.N,MOTOR_OVP_SENSE*%
X100549000Y-128000000D03*
X105175000Y-133195100D03*
X101431700Y-130008200D03*
%TO.N,MOTOR_OVP_LOW*%
X93035100Y-133444400D03*
X106623300Y-134797400D03*
X87748700Y-133493000D03*
X92082400Y-133643400D03*
%TO.N,PD_3V3*%
X71521900Y-77555300D03*
X74155400Y-78271900D03*
X71521900Y-74264900D03*
%TO.N,OUT0*%
X118447500Y-134838100D03*
X126800000Y-99999800D03*
X122077200Y-67342400D03*
%TO.N,PD_SBU1_CONN*%
X68067500Y-77001600D03*
X65201700Y-86249700D03*
%TO.N,CC1_CONN*%
X70600100Y-77922800D03*
X72219400Y-76188300D03*
%TO.N,PD_SBU2_CONN*%
X69558500Y-77731700D03*
X68180700Y-83249900D03*
%TO.N,GH_A2*%
X127409600Y-102750000D03*
X127860200Y-110198200D03*
D17*
%TO.N,SENSE_B*%
X111499934Y-118799890D03*
X108399933Y-109899890D03*
D16*
X109299934Y-110799890D03*
D17*
X108399933Y-110799890D03*
D16*
X108899934Y-97999890D03*
X111499934Y-117899890D03*
%TO.N,CC_FAULT_N*%
X72447900Y-75100300D03*
X76222700Y-78719700D03*
X85175000Y-64800200D03*
%TO.N,DIN1_24V*%
X92023100Y-123750000D03*
%TO.N,DIN1_BASE*%
X102954900Y-115403400D03*
X98500700Y-120000000D03*
%TO.N,CC2_PD*%
X70915500Y-73944100D03*
X73950000Y-74178600D03*
X75715500Y-80652200D03*
%TO.N,GL_B1*%
X118550700Y-118161100D03*
X113222100Y-115451500D03*
%TO.N,GL_A2_DRV*%
X106935500Y-92169000D03*
X117423700Y-126569000D03*
X122448600Y-127372000D03*
X116052200Y-96563200D03*
D17*
%TO.N,MOTOR_A1*%
X105285500Y-93556800D03*
X115500000Y-97898400D03*
X116400000Y-98798400D03*
X120000000Y-91850000D03*
X119000000Y-92850000D03*
X120000000Y-92850000D03*
X116400000Y-97898400D03*
X119000000Y-91850000D03*
X118100000Y-92850000D03*
X120900000Y-91850000D03*
D16*
%TO.N,USB_DM_CONN*%
X70954700Y-113681000D03*
X67001600Y-99249900D03*
X71047300Y-100396600D03*
%TO.N,MOTOR_BUCK_FB*%
X91169400Y-82338200D03*
X91586100Y-88153900D03*
%TO.N,STOPL_24V*%
X113676700Y-128474700D03*
%TO.N,STOP_R_BASE*%
X109000000Y-128142400D03*
X113008000Y-101800000D03*
X120375000Y-134000000D03*
%TO.N,RS485_A*%
X73755600Y-132287000D03*
%TO.N,RS485_B*%
X74438000Y-129780600D03*
%TO.N,DIN0_24V*%
X98276500Y-126991600D03*
X100172700Y-136209300D03*
%TO.N,STEP_24V*%
X138825000Y-106809200D03*
%TO.N,DIR_24V*%
X121828600Y-88563300D03*
%TO.N,RS232_TX_CONN*%
X62622600Y-109070200D03*
X95570000Y-113012300D03*
%TO.N,RS232_RX_CONN*%
X97635200Y-112423600D03*
X63317900Y-108778000D03*
%TO.N,CAN_H*%
X72424400Y-127451600D03*
%TO.N,CAN_L*%
X73884700Y-126193600D03*
%TO.N,HW_ENABLE_24V*%
X91653000Y-113806600D03*
%TO.N,OUT1*%
X85267600Y-88604500D03*
X84196700Y-60000000D03*
X135037300Y-100236000D03*
%TO.N,PD_PATH_HV*%
X75471900Y-70794300D03*
X75931000Y-73278900D03*
%TO.N,PD_LEVEL_BASE*%
X81983800Y-71116100D03*
X83311500Y-79551000D03*
X77622600Y-69944200D03*
%TO.N,USB_DP_CONN*%
X67847400Y-100651800D03*
X85889600Y-109273600D03*
X65214400Y-99750100D03*
%TO.N,RS232_VP*%
X61777600Y-114551700D03*
X64437700Y-117665400D03*
%TO.N,GH_B1_DRV*%
X105034800Y-99199900D03*
X105026000Y-105920900D03*
X110413600Y-105980000D03*
%TO.N,TMC_12V*%
X113246900Y-77921600D03*
X106352000Y-100348900D03*
%TO.N,TMC_5V*%
X107486100Y-100321800D03*
X98290800Y-98524500D03*
%TO.N,TMC_VCC*%
X110031700Y-89169900D03*
X96325000Y-94204900D03*
%TO.N,MOTOR_BUCK_VCC*%
X89391000Y-84890300D03*
X88960600Y-88998700D03*
%TO.N,DIR_IN_BASE*%
X127175000Y-127554800D03*
X126508100Y-131950000D03*
X140250000Y-92111600D03*
%TO.N,UVLO_MID*%
X103053300Y-79187100D03*
X102175000Y-70200100D03*
%TO.N,UVLO_DIV*%
X103043200Y-77458700D03*
X96224100Y-76045300D03*
X103635800Y-71794500D03*
%TO.N,EEP_SDA*%
X76825000Y-66802500D03*
X78582200Y-74280800D03*
%TO.N,ENC_B*%
X98490300Y-96013000D03*
X95000000Y-133976800D03*
%TO.N,USB_DATA_VBUS*%
X73830900Y-84375000D03*
X69705500Y-96789700D03*
X67005100Y-96372300D03*
%TO.N,BOOT_B2*%
X108255100Y-103670000D03*
X107411100Y-101940300D03*
X102046800Y-95267600D03*
X104634300Y-100202300D03*
%TO.N,PD_PATH_OK*%
X84545200Y-72558800D03*
X70541800Y-82948800D03*
X69779300Y-79047800D03*
X88428200Y-77057000D03*
%TO.N,BOOT_B1*%
X96941400Y-103972000D03*
X102615400Y-99336000D03*
X96941400Y-101350100D03*
%TO.N,GL_B2_DRV*%
X107298000Y-97992100D03*
X136330200Y-111902600D03*
X136060000Y-116190400D03*
X107548000Y-108212500D03*
%TO.N,GH_A1_DRV*%
X108698600Y-85033100D03*
X102932200Y-94249900D03*
%TO.N,GL_B1_DRV*%
X104588300Y-111871500D03*
X110005200Y-115189700D03*
X102518800Y-96933900D03*
%TO.N,CC1_PD*%
X72400000Y-73250000D03*
X70400000Y-73450000D03*
%TO.N,GH_B2_DRV*%
X105449600Y-106329800D03*
X105174700Y-96634300D03*
X135449200Y-107840900D03*
D17*
%TO.N,EFUSE_IN*%
X91500000Y-66850000D03*
X92500000Y-66850000D03*
X90600000Y-66849999D03*
X93400000Y-66849999D03*
X91500000Y-65850000D03*
X92500000Y-65850000D03*
D16*
%TO.N,BLOCK_GATE*%
X95033800Y-76188800D03*
X94830700Y-70767200D03*
X100574500Y-77992100D03*
X91834100Y-60605000D03*
%TO.N,BLOCK_FAST_GATE*%
X95584800Y-62468900D03*
X100973900Y-77618600D03*
%TO.N,OVP_DIV*%
X94642100Y-74392700D03*
X103845400Y-76276400D03*
X95662600Y-76191800D03*
%TO.N,GL_A1_DRV*%
X102514000Y-93102100D03*
X123251900Y-92202000D03*
%TO.N,RUN_PG*%
X95606900Y-108050000D03*
X96416500Y-114927700D03*
%TO.N,RUN_SAFE*%
X94680500Y-115851300D03*
X94680500Y-113704100D03*
%TO.N,OVP_TOP*%
X107055800Y-75369300D03*
X98065000Y-76940000D03*
%TO.N,BOOT_A1*%
X114086600Y-97471900D03*
X102920800Y-94874900D03*
%TO.N,TMC_CPO*%
X108458500Y-91919400D03*
X102754800Y-84153500D03*
X108346000Y-86153200D03*
%TO.N,TMC_CPI*%
X105920900Y-87788900D03*
X105058500Y-82981100D03*
%TO.N,EEP_IRQ_N*%
X77227400Y-73277300D03*
X76271200Y-68786000D03*
%TO.N,REFL_STEP*%
X111322200Y-95249900D03*
X101696000Y-107221700D03*
X110620300Y-100676400D03*
X102681200Y-102332100D03*
%TO.N,TMC_VCP*%
X106100200Y-91933600D03*
X97213900Y-98402300D03*
X98971300Y-93497800D03*
%TO.N,GH_A2_DRV*%
X122590200Y-101747500D03*
X105028100Y-91575400D03*
X122139300Y-96160500D03*
%TD*%
%TO.N,GND*%
D18*
X80249936Y-115949928D02*
X80249936Y-117899928D01*
X79649936Y-119249928D02*
X79349936Y-119549928D01*
X79799936Y-118949928D02*
X79649936Y-119099927D01*
X90242700Y-114967700D02*
X90275000Y-115000000D01*
X79949936Y-118649928D02*
X79799936Y-118799928D01*
X90275000Y-110000000D02*
X90242700Y-110032300D01*
X79799936Y-118799928D02*
X79799936Y-118949928D01*
X80099936Y-118349927D02*
X79949936Y-118499928D01*
X79949936Y-118499928D02*
X79949936Y-118649928D01*
X79649936Y-119099927D02*
X79649936Y-119249928D01*
X90242700Y-110032300D02*
X90242700Y-114967700D01*
X80099936Y-118049928D02*
X80099936Y-118349927D01*
X80249936Y-117899928D02*
X80099936Y-118049928D01*
%TO.N,VMOTOR*%
D19*
X116500000Y-106850000D02*
X115500000Y-106850000D01*
D20*
X103858600Y-72285200D02*
X102808600Y-72285200D01*
D19*
X115500000Y-82850000D02*
X116500000Y-82850000D01*
D20*
X100708600Y-71835200D02*
X100258600Y-72285200D01*
D19*
X132500000Y-106850000D02*
X132500000Y-107850000D01*
X124500000Y-106850000D02*
X124500000Y-107850000D01*
D20*
X102808600Y-72285200D02*
X102208600Y-71685200D01*
D21*
X89845500Y-141154400D02*
X88519500Y-141154400D01*
D19*
X115500000Y-83850000D02*
X115500000Y-82850000D01*
X124500000Y-107850000D02*
X123500000Y-107850000D01*
D21*
X87843000Y-140477900D02*
X87843000Y-136985000D01*
D20*
X104158600Y-71985200D02*
X103858600Y-72285200D01*
D19*
X116500000Y-83850000D02*
X115500000Y-83850000D01*
D20*
X105358600Y-71985200D02*
X104158600Y-71985200D01*
D21*
X88519500Y-141154400D02*
X87843000Y-140477900D01*
D20*
X100258600Y-72285200D02*
X100258600Y-72585200D01*
X101608600Y-71835200D02*
X100708600Y-71835200D01*
X102208600Y-71685200D02*
X101758600Y-71685200D01*
D19*
X115500000Y-105850000D02*
X116500000Y-105850000D01*
D21*
X91000000Y-139999900D02*
X89845500Y-141154400D01*
X87843000Y-136985000D02*
X96042700Y-128785300D01*
D19*
X123500000Y-106850000D02*
X124500000Y-106850000D01*
X115500000Y-106850000D02*
X115500000Y-105850000D01*
D20*
X105508600Y-71835200D02*
X105358600Y-71985200D01*
D19*
X132500000Y-107850000D02*
X131500000Y-107850000D01*
X123500000Y-107850000D02*
X123500000Y-106850000D01*
X131500000Y-106850000D02*
X132500000Y-106850000D01*
D21*
X96042700Y-128785300D02*
X96816700Y-128785300D01*
D20*
X101758600Y-71685200D02*
X101608600Y-71835200D01*
X100258600Y-72585200D02*
X100108600Y-72735200D01*
D19*
X116500000Y-82850000D02*
X116500000Y-83850000D01*
X131500000Y-107850000D02*
X131500000Y-106850000D01*
D20*
X129495000Y-104524605D02*
X126795000Y-104524605D01*
D19*
X116500000Y-105850000D02*
X116500000Y-106850000D01*
%TO.N,MOTOR_A2*%
X123500000Y-116850000D02*
X123500000Y-115850000D01*
X124500000Y-115850000D02*
X124500000Y-116850000D01*
X123500000Y-115850000D02*
X124500000Y-115850000D01*
X124500000Y-116850000D02*
X123500000Y-116850000D01*
%TO.N,ILIM_SET*%
D18*
X103644800Y-74870700D02*
X103453700Y-75061800D01*
X103453700Y-75061800D02*
X103453700Y-76618900D01*
X103453700Y-76618900D02*
X103654300Y-76819500D01*
%TO.N,BRAKE_RETURN*%
D19*
X108500000Y-65850000D02*
X108500000Y-66850000D01*
X108500000Y-66850000D02*
X107500000Y-66850000D01*
X107500000Y-66850000D02*
X107500000Y-65850000D01*
X107500000Y-65850000D02*
X108500000Y-65850000D01*
%TO.N,V3V3*%
D18*
X69425000Y-127212000D02*
X70024999Y-126612000D01*
X70024999Y-126612000D02*
X71225000Y-126612000D01*
X114510100Y-131000000D02*
X114981000Y-130529100D01*
X71225000Y-126612000D02*
X73925000Y-123912000D01*
X114981000Y-130529100D02*
X114981000Y-122483200D01*
%TO.N,OUT1_DRIVE*%
X77422000Y-110904300D02*
X77182900Y-110665200D01*
X77422000Y-112505500D02*
X77422000Y-110904300D01*
%TO.N,STEP_IN*%
X120623100Y-101127700D02*
X123750000Y-98000800D01*
X120623100Y-107435900D02*
X120623100Y-101127700D01*
%TO.N,SENSE_A*%
X109000062Y-99199890D02*
X110700062Y-99199890D01*
X110800062Y-99099890D02*
X110900062Y-99099890D01*
X114000062Y-96999890D02*
X115000062Y-96999890D01*
X116000062Y-96099890D02*
X116600062Y-96099890D01*
X110700062Y-99199890D02*
X110800062Y-99099890D01*
X111400062Y-98799889D02*
X111600062Y-98799889D01*
X112900062Y-97899890D02*
X113000062Y-97799889D01*
X111900062Y-98599890D02*
X112000062Y-98599890D01*
X111100062Y-98899890D02*
X111300062Y-98899890D01*
X111700062Y-98699890D02*
X111800062Y-98699890D01*
X111300062Y-98899890D02*
X111400062Y-98799889D01*
X112100062Y-98499890D02*
X112200062Y-98499890D01*
X115800062Y-96199890D02*
X115900062Y-96199890D01*
X112800062Y-97899890D02*
X112900062Y-97899890D01*
X115900062Y-96199890D02*
X116000062Y-96099890D01*
X111600062Y-98799889D02*
X111700062Y-98699890D01*
X111800062Y-98699890D02*
X111900062Y-98599890D01*
X113200062Y-97799889D02*
X114000062Y-96999890D01*
X112200062Y-98499890D02*
X112800062Y-97899890D01*
X110900062Y-99099890D02*
X111100062Y-98899890D01*
X112000062Y-98599890D02*
X112100062Y-98499890D01*
X113000062Y-97799889D02*
X113200062Y-97799889D01*
X115000062Y-96999890D02*
X115800062Y-96199890D01*
X116600062Y-96099890D02*
X117000062Y-95699890D01*
%TO.N,ENC_CS_N*%
X86302700Y-108912300D02*
X86302700Y-110028700D01*
X96800500Y-96989800D02*
X96800500Y-98989500D01*
X86302700Y-110028700D02*
X85890200Y-110441200D01*
X89558400Y-106231600D02*
X88983400Y-106231600D01*
X96800500Y-98989500D02*
X89558400Y-106231600D01*
X88983400Y-106231600D02*
X86302700Y-108912300D01*
%TO.N,MOTOR_PG*%
X101794400Y-73322000D02*
X100849200Y-72376800D01*
X101794400Y-84951100D02*
X101794400Y-73322000D01*
%TO.N,MOTOR_B2*%
D19*
X132500000Y-115850000D02*
X132500000Y-116850000D01*
X131500000Y-116850000D02*
X131500000Y-115850000D01*
X131500000Y-115850000D02*
X132500000Y-115850000D01*
X132500000Y-116850000D02*
X131500000Y-116850000D01*
%TO.N,MOTOR_B1*%
X116500000Y-115850000D02*
X115500000Y-115850000D01*
D21*
X97746700Y-101776000D02*
X103256100Y-107285400D01*
D19*
X115500000Y-115850000D02*
X115500000Y-114850000D01*
D21*
X103256100Y-107285400D02*
X107935400Y-107285400D01*
X107935400Y-107285400D02*
X115500000Y-114850000D01*
X97746700Y-101504400D02*
X97746700Y-101776000D01*
D19*
X115500000Y-114850000D02*
X116500000Y-114850000D01*
X116500000Y-114850000D02*
X116500000Y-115850000D01*
%TO.N,SENSE_B*%
D18*
X110199934Y-114399890D02*
X110199934Y-114499890D01*
X110799934Y-115799890D02*
X110899934Y-115899890D01*
X111499934Y-117199890D02*
X111499934Y-117899890D01*
X110899934Y-115899890D02*
X110899934Y-115999890D01*
X109799934Y-113499890D02*
X109799934Y-113599890D01*
X110299934Y-114599890D02*
X110299934Y-114699890D01*
X110599933Y-115399890D02*
X110699934Y-115499890D01*
X110799934Y-115699890D02*
X110799934Y-115799890D01*
X111399934Y-117099890D02*
X111499934Y-117199890D01*
X111199934Y-116699890D02*
X111299934Y-116799890D01*
X109499934Y-112999890D02*
X109599933Y-113099890D01*
X109999934Y-113999890D02*
X110099933Y-114099890D01*
X110999934Y-116199890D02*
X111099933Y-116299890D01*
X109899934Y-113799890D02*
X109999934Y-113899890D01*
X109599933Y-113099890D02*
X109599933Y-113199890D01*
X109999934Y-113899890D02*
X109999934Y-113999890D01*
X111299934Y-116799890D02*
X111299934Y-116899890D01*
X109299934Y-112499890D02*
X109399934Y-112599890D01*
X111199934Y-116599890D02*
X111199934Y-116699890D01*
X110399934Y-114799890D02*
X110399934Y-114899890D01*
X110199934Y-114499890D02*
X110299934Y-114599890D01*
X110999934Y-116099890D02*
X110999934Y-116199890D01*
X110699934Y-115599890D02*
X110799934Y-115699890D01*
X111099933Y-116499890D02*
X111199934Y-116599890D01*
X110499934Y-114999890D02*
X110499934Y-115099890D01*
X109799934Y-113599890D02*
X109899934Y-113699890D01*
X109399934Y-112599890D02*
X109399934Y-112699890D01*
X109399934Y-112699890D02*
X109499934Y-112799890D01*
X110099933Y-114299890D02*
X110199934Y-114399890D01*
X111099933Y-116299890D02*
X111099933Y-116499890D01*
X110099933Y-114099890D02*
X110099933Y-114299890D01*
X109699934Y-113299890D02*
X109699934Y-113399890D01*
X110499934Y-115099890D02*
X110599933Y-115199890D01*
X110299934Y-114699890D02*
X110399934Y-114799890D01*
X110899934Y-115999890D02*
X110999934Y-116099890D01*
X111399934Y-116999890D02*
X111399934Y-117099890D01*
X110699934Y-115499890D02*
X110699934Y-115599890D01*
X109699934Y-113399890D02*
X109799934Y-113499890D01*
X111299934Y-116899890D02*
X111399934Y-116999890D01*
X109899934Y-113699890D02*
X109899934Y-113799890D01*
X109299934Y-110799890D02*
X109299934Y-112499890D01*
X109599933Y-113199890D02*
X109699934Y-113299890D01*
X110599933Y-115199890D02*
X110599933Y-115399890D01*
X110399934Y-114899890D02*
X110499934Y-114999890D01*
X109499934Y-112799890D02*
X109499934Y-112999890D01*
%TO.N,MOTOR_A1*%
D19*
X120000000Y-92850000D02*
X119000000Y-92850000D01*
X120000000Y-91850000D02*
X120000000Y-92850000D01*
X119000000Y-91850000D02*
X120000000Y-91850000D01*
X119000000Y-92850000D02*
X119000000Y-91850000D01*
%TO.N,RS232_VP*%
D18*
X64437700Y-117665400D02*
X61777600Y-115005300D01*
X61777600Y-115005300D02*
X61777600Y-114551700D01*
%TO.N,CC1_PD*%
X72300000Y-73250000D02*
X72400000Y-73250000D01*
X72100000Y-73450000D02*
X72300000Y-73250000D01*
X70400000Y-73450000D02*
X72100000Y-73450000D01*
%TO.N,EFUSE_IN*%
D19*
X91500000Y-65850000D02*
X92500000Y-65850000D01*
X92500000Y-65850000D02*
X92500000Y-66850000D01*
X91500000Y-66850000D02*
X91500000Y-65850000D01*
X92500000Y-66850000D02*
X91500000Y-66850000D01*
%TO.N,OVP_DIV*%
D18*
X95662600Y-76191800D02*
X95662600Y-75413200D01*
X95662600Y-75413200D02*
X94642100Y-74392700D01*
%TO.N,RUN_SAFE*%
X94680500Y-115851300D02*
X94680500Y-113704100D01*
%TD*%
%TA.AperFunction,Conductor*%
%TO.N,SENSE_A*%
G36*
X108496379Y-98021564D02*
G01*
X108515531Y-98054737D01*
X108540704Y-98148683D01*
X108540706Y-98148688D01*
X108566693Y-98193698D01*
X108591458Y-98236592D01*
X108663232Y-98308366D01*
X108727581Y-98345518D01*
X108741191Y-98353376D01*
X108751137Y-98359118D01*
X108751138Y-98359118D01*
X108751140Y-98359119D01*
X108800159Y-98372254D01*
X108849179Y-98385389D01*
X108849180Y-98385390D01*
X108849182Y-98385390D01*
X108950688Y-98385390D01*
X108950688Y-98385389D01*
X109048731Y-98359118D01*
X109136636Y-98308366D01*
X109208410Y-98236592D01*
X109259162Y-98148687D01*
X109273373Y-98095652D01*
X109284337Y-98054737D01*
X109318816Y-98009804D01*
X109355815Y-97999890D01*
X109600062Y-97999890D01*
X109600062Y-98602832D01*
X109003005Y-99199890D01*
X109600062Y-99796946D01*
X109600062Y-100299890D01*
X110103006Y-100299890D01*
X110203006Y-100399890D01*
X107945600Y-100399890D01*
X107893274Y-100378216D01*
X107871600Y-100325890D01*
X107871600Y-100271046D01*
X107871599Y-100271045D01*
X107845329Y-100173006D01*
X107845327Y-100173001D01*
X107809976Y-100111771D01*
X107800062Y-100074771D01*
X107800062Y-98073890D01*
X107821736Y-98021564D01*
X107874062Y-97999890D01*
X108444053Y-97999890D01*
X108496379Y-98021564D01*
G37*
%TD.AperFunction*%
%TD*%
%TA.AperFunction,Conductor*%
%TO.N,SENSE_B*%
G36*
X108699934Y-114599890D02*
G01*
X108573934Y-114599890D01*
X108521608Y-114578216D01*
X108499934Y-114525890D01*
X108499934Y-114385982D01*
X108499934Y-114199890D01*
X108699934Y-114199890D01*
X108699934Y-114599890D01*
G37*
%TD.AperFunction*%
%TA.AperFunction,Conductor*%
G36*
X110878260Y-112121564D02*
G01*
X110899934Y-112173890D01*
X110899934Y-112499890D01*
X110699934Y-112499890D01*
X110699934Y-112099890D01*
X110799933Y-112099890D01*
X110825934Y-112099890D01*
X110878260Y-112121564D01*
G37*
%TD.AperFunction*%
%TD*%
%TA.AperFunction,Conductor*%
%TO.N,MOTOR_A2*%
G36*
X125700000Y-117976000D02*
G01*
X125678326Y-118028326D01*
X125626000Y-118050000D01*
X124700000Y-118050000D01*
X122374000Y-118050000D01*
X122321674Y-118028326D01*
X122300000Y-117976000D01*
X122300000Y-115649999D01*
X125700000Y-115649999D01*
X125700000Y-117976000D01*
G37*
%TD.AperFunction*%
%TD*%
%TA.AperFunction,Conductor*%
%TO.N,SENSE_B*%
G36*
X109899932Y-117196944D02*
G01*
X109899932Y-117399890D01*
X109873934Y-117399890D01*
X109821608Y-117378216D01*
X109799934Y-117325890D01*
X109799934Y-117199890D01*
X109799934Y-117096946D01*
X109899932Y-117196944D01*
G37*
%TD.AperFunction*%
%TA.AperFunction,Conductor*%
G36*
X112178260Y-114921564D02*
G01*
X112199934Y-114973890D01*
X112199934Y-115099890D01*
X112196982Y-115099890D01*
X112146986Y-115049893D01*
X112196990Y-114999890D01*
X112096990Y-114899890D01*
X112099934Y-114899890D01*
X112125934Y-114899890D01*
X112178260Y-114921564D01*
G37*
%TD.AperFunction*%
%TD*%
%TA.AperFunction,Conductor*%
%TO.N,MOTOR_A2*%
G36*
X125678326Y-114671673D02*
G01*
X125700000Y-114723999D01*
X125700000Y-115649999D01*
X122300000Y-115649999D01*
X122300000Y-114723999D01*
X122321674Y-114671673D01*
X122374000Y-114649999D01*
X125626000Y-114649999D01*
X125678326Y-114671673D01*
G37*
%TD.AperFunction*%
%TD*%
%TA.AperFunction,Conductor*%
%TO.N,SENSE_B*%
G36*
X109199934Y-115796946D02*
G01*
X109199934Y-115899890D01*
X109173933Y-115899890D01*
X109121607Y-115878216D01*
X109099933Y-115825890D01*
X109099933Y-115699890D01*
X109099933Y-115696945D01*
X109199934Y-115796946D01*
G37*
%TD.AperFunction*%
%TA.AperFunction,Conductor*%
G36*
X111478260Y-113421564D02*
G01*
X111499934Y-113473890D01*
X111499934Y-113599890D01*
X111496991Y-113599890D01*
X111446990Y-113549889D01*
X111496990Y-113499890D01*
X111396990Y-113399890D01*
X111399934Y-113399890D01*
X111425934Y-113399890D01*
X111478260Y-113421564D01*
G37*
%TD.AperFunction*%
%TD*%
%TA.AperFunction,Conductor*%
%TO.N,SENSE_A*%
G36*
X117800062Y-97211171D02*
G01*
X117794429Y-97239489D01*
X117790118Y-97249897D01*
X117750070Y-97289945D01*
X117750069Y-97289946D01*
X117739661Y-97294257D01*
X117711343Y-97299890D01*
X117100062Y-97299890D01*
X117100062Y-97296945D01*
X117789653Y-96607354D01*
X117789654Y-96607353D01*
X117800062Y-96596944D01*
X117800062Y-97211171D01*
G37*
%TD.AperFunction*%
%TA.AperFunction,Conductor*%
G36*
X115303004Y-94999890D02*
G01*
X114800062Y-94999890D01*
X114800062Y-94988608D01*
X114805691Y-94960299D01*
X114810005Y-94949884D01*
X114850044Y-94909838D01*
X114860473Y-94905518D01*
X114888781Y-94899890D01*
X115403004Y-94899890D01*
X115303004Y-94999890D01*
G37*
%TD.AperFunction*%
%TD*%
%TA.AperFunction,Conductor*%
%TO.N,VMOTOR*%
G36*
X99461544Y-73785200D02*
G01*
X99132600Y-73785200D01*
X99080274Y-73763526D01*
X99058600Y-73711200D01*
X99058600Y-73382256D01*
X99461544Y-73785200D01*
G37*
%TD.AperFunction*%
%TA.AperFunction,Conductor*%
G36*
X101458600Y-73382256D02*
G01*
X101458600Y-73711200D01*
X101436926Y-73763526D01*
X101384600Y-73785200D01*
X100755656Y-73785200D01*
X101308599Y-73232255D01*
X101458600Y-73382256D01*
G37*
%TD.AperFunction*%
%TA.AperFunction,Conductor*%
G36*
X99508600Y-71638143D02*
G01*
X99058600Y-72088143D01*
X99058600Y-71159200D01*
X99080274Y-71106874D01*
X99132600Y-71085200D01*
X99508600Y-71085200D01*
X99508600Y-71638143D01*
G37*
%TD.AperFunction*%
%TD*%
%TA.AperFunction,Conductor*%
%TO.N,VMOTOR*%
G36*
X103487003Y-72153728D02*
G01*
X103487004Y-72153728D01*
X103487006Y-72153729D01*
X103536025Y-72166864D01*
X103585045Y-72179999D01*
X103585046Y-72180000D01*
X103585048Y-72180000D01*
X103686554Y-72180000D01*
X103686554Y-72179999D01*
X103784597Y-72153728D01*
X103813426Y-72137082D01*
X104861544Y-73185200D01*
X103428700Y-73185200D01*
X103428700Y-73154546D01*
X103428699Y-73154545D01*
X103402429Y-73056506D01*
X103402427Y-73056501D01*
X103351675Y-72968597D01*
X103279902Y-72896824D01*
X103259769Y-72885200D01*
X103408600Y-72885200D01*
X103408600Y-72108461D01*
X103487003Y-72153728D01*
G37*
%TD.AperFunction*%
%TA.AperFunction,Conductor*%
G36*
X106558600Y-73111200D02*
G01*
X106536926Y-73163526D01*
X106484600Y-73185200D01*
X105855656Y-73185200D01*
X106558600Y-72482256D01*
X106558600Y-73111200D01*
G37*
%TD.AperFunction*%
%TA.AperFunction,Conductor*%
G36*
X103996298Y-71650443D02*
G01*
X103995029Y-71645706D01*
X103995027Y-71645701D01*
X103981428Y-71622147D01*
X103944276Y-71557798D01*
X103872502Y-71486024D01*
X103866355Y-71482475D01*
X103784598Y-71435272D01*
X103784593Y-71435270D01*
X103686554Y-71409000D01*
X103686552Y-71409000D01*
X103585048Y-71409000D01*
X103585046Y-71409000D01*
X103487006Y-71435270D01*
X103487001Y-71435272D01*
X103399097Y-71486024D01*
X103408600Y-71480537D01*
X103408600Y-70785200D01*
X104861543Y-70785200D01*
X103996298Y-71650443D01*
G37*
%TD.AperFunction*%
%TA.AperFunction,Conductor*%
G36*
X106536926Y-70806874D02*
G01*
X106558600Y-70859200D01*
X106558600Y-71188143D01*
X106155657Y-70785200D01*
X106484600Y-70785200D01*
X106536926Y-70806874D01*
G37*
%TD.AperFunction*%
%TD*%
%TA.AperFunction,Conductor*%
%TO.N,SENSE_A*%
G36*
X112800062Y-99925889D02*
G01*
X112778388Y-99978215D01*
X112726062Y-99999889D01*
X112500062Y-99999889D01*
X112500062Y-99899890D01*
X112800062Y-99899890D01*
X112800062Y-99925889D01*
G37*
%TD.AperFunction*%
%TA.AperFunction,Conductor*%
G36*
X110500062Y-97699890D02*
G01*
X110200062Y-97699890D01*
X110200062Y-97673888D01*
X110221736Y-97621562D01*
X110274062Y-97599888D01*
X110500062Y-97599888D01*
X110500062Y-97699890D01*
G37*
%TD.AperFunction*%
%TD*%
%TA.AperFunction,Conductor*%
%TO.N,SENSE_B*%
G36*
X110996990Y-112499890D02*
G01*
X110899934Y-112499890D01*
X110899934Y-112402833D01*
X110996990Y-112499890D01*
G37*
%TD.AperFunction*%
%TA.AperFunction,Conductor*%
G36*
X108099933Y-112302833D02*
G01*
X108042769Y-112359997D01*
X108120293Y-112380770D01*
X108022254Y-112354500D01*
X108022252Y-112354500D01*
X107926919Y-112354500D01*
X107874593Y-112332826D01*
X107852919Y-112280500D01*
X107874593Y-112228174D01*
X108099933Y-112002834D01*
X108099933Y-112302833D01*
G37*
%TD.AperFunction*%
%TD*%
%TA.AperFunction,Conductor*%
%TO.N,VMOTOR*%
G36*
X102808600Y-72895609D02*
G01*
X102806497Y-72896824D01*
X102734724Y-72968597D01*
X102696270Y-73035200D01*
X102105656Y-73035200D01*
X102255656Y-72885200D01*
X102808600Y-72885200D01*
X102808600Y-72895609D01*
G37*
%TD.AperFunction*%
%TA.AperFunction,Conductor*%
G36*
X100558600Y-71188141D02*
G01*
X100558599Y-71188142D01*
X101016157Y-71645701D01*
X100258600Y-70888143D01*
X99508600Y-71638143D01*
X99508600Y-70709200D01*
X99530274Y-70656874D01*
X99582600Y-70635200D01*
X100211543Y-70635200D01*
X100558600Y-70635200D01*
X100558600Y-71188141D01*
G37*
%TD.AperFunction*%
%TD*%
%TA.AperFunction,Conductor*%
%TO.N,SENSE_A*%
G36*
X116303066Y-97447627D02*
G01*
X116300235Y-97448386D01*
X116223322Y-97468995D01*
X116222323Y-97469245D01*
X116222456Y-97469180D01*
X116222501Y-97469146D01*
X116223241Y-97468749D01*
X116223188Y-97468651D01*
X116241688Y-97455318D01*
X116255625Y-97441380D01*
X116303066Y-97447627D01*
G37*
%TD.AperFunction*%
%TA.AperFunction,Conductor*%
G36*
X116038787Y-94449524D02*
G01*
X116062794Y-94465565D01*
X116300061Y-94702832D01*
X114955330Y-96047564D01*
X116150061Y-94852832D01*
X115862795Y-94565566D01*
X115847527Y-94555365D01*
X115937333Y-94465560D01*
X115961335Y-94449523D01*
X115971745Y-94445212D01*
X116028377Y-94445212D01*
X116038787Y-94449524D01*
G37*
%TD.AperFunction*%
%TD*%
%TA.AperFunction,Conductor*%
%TO.N,MOTOR_B1*%
G36*
X115300000Y-116347056D02*
G01*
X115300000Y-117050000D01*
X114374000Y-117050000D01*
X114321674Y-117028326D01*
X114300000Y-116976000D01*
X114300000Y-116050000D01*
X115002944Y-116050000D01*
X115300000Y-116347056D01*
G37*
%TD.AperFunction*%
%TD*%
%TA.AperFunction,Conductor*%
%TO.N,SENSE_A*%
G36*
X113100057Y-96202835D02*
G01*
X112950061Y-96352832D01*
X112850057Y-96252828D01*
X113000053Y-96102832D01*
X113100057Y-96202835D01*
G37*
%TD.AperFunction*%
%TD*%
%TA.AperFunction,Conductor*%
%TO.N,VMOTOR*%
G36*
X105560925Y-70190468D02*
G01*
X107153330Y-71782874D01*
X107175004Y-71835199D01*
X107153330Y-71887525D01*
X106558600Y-72482255D01*
X106558600Y-72482256D01*
X105855656Y-73185200D01*
X105410926Y-73629930D01*
X105358600Y-73651604D01*
X105306274Y-73629930D01*
X105058600Y-73382256D01*
X103813426Y-72137082D01*
X103872502Y-72102976D01*
X103944276Y-72031202D01*
X103995028Y-71943297D01*
X104021299Y-71845254D01*
X104021300Y-71845254D01*
X104021300Y-71743746D01*
X104021299Y-71743745D01*
X103996298Y-71650444D01*
X105456274Y-70190469D01*
X105508600Y-70168795D01*
X105560925Y-70190468D01*
G37*
%TD.AperFunction*%
%TD*%
%TA.AperFunction,Conductor*%
%TO.N,VMOTOR*%
G36*
X101370084Y-71999628D02*
G01*
X101322905Y-72012271D01*
X101322901Y-72012272D01*
X101234997Y-72063024D01*
X101210126Y-72087896D01*
X101157800Y-72109570D01*
X101105474Y-72087896D01*
X101085902Y-72068324D01*
X100997998Y-72017572D01*
X100997993Y-72017570D01*
X100899954Y-71991300D01*
X100899952Y-71991300D01*
X100798448Y-71991300D01*
X100798446Y-71991300D01*
X100700406Y-72017570D01*
X100700401Y-72017572D01*
X100612497Y-72068324D01*
X100540724Y-72140097D01*
X100489972Y-72228001D01*
X100489970Y-72228006D01*
X100463700Y-72326045D01*
X100463700Y-72427554D01*
X100489970Y-72525593D01*
X100489972Y-72525598D01*
X100537663Y-72608200D01*
X100540724Y-72613502D01*
X100612498Y-72685276D01*
X100700403Y-72736028D01*
X100700404Y-72736028D01*
X100700406Y-72736029D01*
X100747123Y-72748547D01*
X100798445Y-72762299D01*
X100798446Y-72762300D01*
X100871001Y-72762300D01*
X100923327Y-72783974D01*
X101340104Y-73200751D01*
X100755656Y-73785200D01*
X100160926Y-74379930D01*
X100108600Y-74401604D01*
X100056274Y-74379930D01*
X99461544Y-73785200D01*
X99058600Y-73382256D01*
X98463867Y-72787524D01*
X98442194Y-72735199D01*
X98463866Y-72682876D01*
X98561543Y-72585200D01*
X100258600Y-70888143D01*
X101370084Y-71999628D01*
G37*
%TD.AperFunction*%
%TA.AperFunction,Conductor*%
G36*
X101864077Y-72578616D02*
G01*
X101864518Y-72576973D01*
X101895222Y-72585200D01*
X101942883Y-72597971D01*
X101673152Y-72867704D01*
X101635232Y-72829784D01*
X101613558Y-72777458D01*
X101635232Y-72725132D01*
X101650558Y-72713372D01*
X101708402Y-72679976D01*
X101780176Y-72608202D01*
X101780177Y-72608199D01*
X101783128Y-72604355D01*
X101784982Y-72605778D01*
X101823777Y-72575985D01*
X101864077Y-72578616D01*
G37*
%TD.AperFunction*%
%TD*%
%TA.AperFunction,Conductor*%
%TO.N,SENSE_A*%
G36*
X109900061Y-100096945D02*
G01*
X109900061Y-100099890D01*
X109903006Y-100099890D01*
X110103006Y-100299890D01*
X109600062Y-100299890D01*
X109600062Y-99796946D01*
X109900061Y-100096945D01*
G37*
%TD.AperFunction*%
%TA.AperFunction,Conductor*%
G36*
X112100062Y-100225890D02*
G01*
X112078388Y-100278216D01*
X112026062Y-100299890D01*
X111897117Y-100299890D01*
X111950061Y-100246945D01*
X112000062Y-100296946D01*
X112100062Y-100196945D01*
X112100062Y-100225890D01*
G37*
%TD.AperFunction*%
%TA.AperFunction,Conductor*%
G36*
X109900061Y-99796945D02*
G01*
X110203006Y-100099890D01*
X109808715Y-99705600D01*
X109900061Y-99796945D01*
G37*
%TD.AperFunction*%
%TA.AperFunction,Conductor*%
G36*
X109900061Y-98302833D02*
G01*
X109600062Y-98602832D01*
X109600062Y-97973890D01*
X109621736Y-97921564D01*
X109674062Y-97899890D01*
X109900061Y-97899890D01*
X109900061Y-98302833D01*
G37*
%TD.AperFunction*%
%TD*%
%TA.AperFunction,Conductor*%
%TO.N,SENSE_B*%
G36*
X109299934Y-115896946D02*
G01*
X109299934Y-115902831D01*
X109399932Y-115802833D01*
X109202877Y-115999889D01*
X109299934Y-116096946D01*
X109299934Y-116099890D01*
X109273934Y-116099890D01*
X109221608Y-116078216D01*
X109199934Y-116025890D01*
X109199934Y-115899890D01*
X109199934Y-115796946D01*
X109299934Y-115896946D01*
G37*
%TD.AperFunction*%
%TA.AperFunction,Conductor*%
G36*
X111578260Y-113621564D02*
G01*
X111599934Y-113673890D01*
X111599934Y-113799889D01*
X111496989Y-113799889D01*
X111596990Y-113699889D01*
X111496991Y-113599890D01*
X111499934Y-113599890D01*
X111525934Y-113599890D01*
X111578260Y-113621564D01*
G37*
%TD.AperFunction*%
%TD*%
%TA.AperFunction,Conductor*%
%TO.N,SENSE_B*%
G36*
X108852872Y-115049885D02*
G01*
X108802877Y-115099881D01*
X108899932Y-115196936D01*
X108899932Y-115199890D01*
X108873934Y-115199890D01*
X108821608Y-115178216D01*
X108799934Y-115125890D01*
X108799934Y-114999890D01*
X108802877Y-114999890D01*
X108852872Y-115049885D01*
G37*
%TD.AperFunction*%
%TA.AperFunction,Conductor*%
G36*
X111178260Y-112721564D02*
G01*
X111199934Y-112773890D01*
X111199934Y-112899890D01*
X111099934Y-112899890D01*
X111099934Y-112896945D01*
X111196990Y-112799890D01*
X111099934Y-112702833D01*
X111099934Y-112699890D01*
X111125934Y-112699890D01*
X111178260Y-112721564D01*
G37*
%TD.AperFunction*%
%TD*%
%TA.AperFunction,Conductor*%
%TO.N,SENSE_B*%
G36*
X109152878Y-114449888D02*
G01*
X109399932Y-114202835D01*
X108702877Y-114899890D01*
X108802877Y-114999890D01*
X108773934Y-114999890D01*
X108721608Y-114978216D01*
X108699934Y-114925890D01*
X108699934Y-114799890D01*
X108699934Y-114199890D01*
X108902878Y-114199890D01*
X109152878Y-114449888D01*
G37*
%TD.AperFunction*%
%TA.AperFunction,Conductor*%
G36*
X111099934Y-113902833D02*
G01*
X110946987Y-113749886D01*
X111099934Y-113596938D01*
X111099934Y-113902833D01*
G37*
%TD.AperFunction*%
%TA.AperFunction,Conductor*%
G36*
X111078260Y-112521564D02*
G01*
X111099934Y-112573890D01*
X111099934Y-113002827D01*
X110699934Y-112602831D01*
X110699934Y-112499890D01*
X110999934Y-112499890D01*
X111025934Y-112499890D01*
X111078260Y-112521564D01*
G37*
%TD.AperFunction*%
%TD*%
%TA.AperFunction,Conductor*%
%TO.N,SENSE_B*%
G36*
X109702874Y-116799892D02*
G01*
X109702877Y-116799890D01*
X109652877Y-116849889D01*
X109602878Y-116799890D01*
X109702871Y-116799890D01*
X109702874Y-116799892D01*
G37*
%TD.AperFunction*%
%TA.AperFunction,Conductor*%
G36*
X112944662Y-116747562D02*
G01*
X112966336Y-116799888D01*
X112946989Y-116846597D01*
X112946989Y-116849888D01*
X112796985Y-116699884D01*
X112846985Y-116649885D01*
X112944662Y-116747562D01*
G37*
%TD.AperFunction*%
%TD*%
%TA.AperFunction,Conductor*%
%TO.N,VMOTOR*%
G36*
X101436926Y-73297573D02*
G01*
X101458600Y-73349899D01*
X101458600Y-73382256D01*
X101308599Y-73232255D01*
X101340104Y-73200751D01*
X101436926Y-73297573D01*
G37*
%TD.AperFunction*%
%TA.AperFunction,Conductor*%
G36*
X101769183Y-70082210D02*
G01*
X101790857Y-70134536D01*
X101789566Y-70144462D01*
X101790133Y-70144537D01*
X101789500Y-70149346D01*
X101789500Y-70250854D01*
X101815770Y-70348893D01*
X101815772Y-70348898D01*
X101866524Y-70436802D01*
X101938298Y-70508576D01*
X102002647Y-70545728D01*
X102022404Y-70557135D01*
X102026203Y-70559328D01*
X102026204Y-70559328D01*
X102026206Y-70559329D01*
X102075225Y-70572464D01*
X102124245Y-70585599D01*
X102124246Y-70585600D01*
X102124248Y-70585600D01*
X102225754Y-70585600D01*
X102225754Y-70585599D01*
X102323797Y-70559328D01*
X102327592Y-70557136D01*
X102648238Y-70877782D01*
X102588724Y-70937297D01*
X102537972Y-71025201D01*
X102537970Y-71025206D01*
X102511700Y-71123245D01*
X102511700Y-71224754D01*
X102537970Y-71322793D01*
X102537972Y-71322798D01*
X102587741Y-71409000D01*
X102588724Y-71410702D01*
X102660498Y-71482476D01*
X102748403Y-71533228D01*
X102748404Y-71533228D01*
X102748406Y-71533229D01*
X102797425Y-71546364D01*
X102846445Y-71559499D01*
X102846446Y-71559500D01*
X102846448Y-71559500D01*
X102947954Y-71559500D01*
X102947954Y-71559499D01*
X103045997Y-71533228D01*
X103133902Y-71482476D01*
X103193417Y-71422961D01*
X103327788Y-71557332D01*
X103327324Y-71557797D01*
X103276572Y-71645701D01*
X103276570Y-71645706D01*
X103250300Y-71743745D01*
X103250300Y-71845254D01*
X103259873Y-71880982D01*
X101973152Y-73167704D01*
X101673152Y-72867704D01*
X101942882Y-72597971D01*
X101967245Y-72604499D01*
X101967246Y-72604500D01*
X101967248Y-72604500D01*
X102068754Y-72604500D01*
X102068754Y-72604499D01*
X102166797Y-72578228D01*
X102254702Y-72527476D01*
X102326476Y-72455702D01*
X102377228Y-72367797D01*
X102403499Y-72269754D01*
X102403500Y-72269754D01*
X102403500Y-72168246D01*
X102403499Y-72168245D01*
X102377229Y-72070206D01*
X102377227Y-72070201D01*
X102346840Y-72017570D01*
X102326476Y-71982298D01*
X102254702Y-71910524D01*
X102203534Y-71880982D01*
X102166798Y-71859772D01*
X102166793Y-71859770D01*
X102068754Y-71833500D01*
X102068752Y-71833500D01*
X101967248Y-71833500D01*
X101967246Y-71833500D01*
X101869206Y-71859770D01*
X101869201Y-71859772D01*
X101781297Y-71910524D01*
X101709520Y-71982302D01*
X101706566Y-71986152D01*
X101704720Y-71984735D01*
X101665866Y-72014529D01*
X101625621Y-72011887D01*
X101625182Y-72013527D01*
X101522454Y-71986000D01*
X101522452Y-71986000D01*
X101420948Y-71986000D01*
X101420946Y-71986000D01*
X101349485Y-72005148D01*
X101370084Y-71999628D01*
X100558599Y-71188142D01*
X101664534Y-70082208D01*
X101716857Y-70060536D01*
X101769183Y-70082210D01*
G37*
%TD.AperFunction*%
%TD*%
%TA.AperFunction,Conductor*%
%TO.N,SENSE_B*%
G36*
X110199934Y-117899890D02*
G01*
X110073934Y-117899890D01*
X110021608Y-117878216D01*
X109999934Y-117825890D01*
X109999934Y-117699890D01*
X110199934Y-117699890D01*
X110199934Y-117899890D01*
G37*
%TD.AperFunction*%
%TA.AperFunction,Conductor*%
G36*
X112399934Y-115799889D02*
G01*
X112396991Y-115799889D01*
X112399934Y-115796946D01*
X112399934Y-115799889D01*
G37*
%TD.AperFunction*%
%TA.AperFunction,Conductor*%
G36*
X112378260Y-115421564D02*
G01*
X112399934Y-115473890D01*
X112399934Y-115602833D01*
X112299933Y-115502832D01*
X112299933Y-115399890D01*
X112325934Y-115399890D01*
X112378260Y-115421564D01*
G37*
%TD.AperFunction*%
%TD*%
%TA.AperFunction,Conductor*%
%TO.N,VMOTOR*%
G36*
X117678326Y-81671673D02*
G01*
X117700000Y-81723999D01*
X117700000Y-84976000D01*
X117678326Y-85028326D01*
X117626000Y-85050000D01*
X115300000Y-85050000D01*
X115300000Y-81649999D01*
X117626000Y-81649999D01*
X117678326Y-81671673D01*
G37*
%TD.AperFunction*%
%TD*%
%TA.AperFunction,Conductor*%
%TO.N,SENSE_B*%
G36*
X111596990Y-113699889D02*
G01*
X111396991Y-113899887D01*
X111299933Y-113802829D01*
X111299933Y-113696946D01*
X111446990Y-113549889D01*
X111596990Y-113699889D01*
G37*
%TD.AperFunction*%
%TD*%
%TA.AperFunction,Conductor*%
%TO.N,MOTOR_B1*%
G36*
X98925026Y-100326074D02*
G01*
X98946700Y-100378400D01*
X98946700Y-102976000D01*
X96620700Y-102976000D01*
X96568374Y-102954326D01*
X96546700Y-102902000D01*
X96546700Y-102273056D01*
X96546700Y-101395850D01*
X96561366Y-101421253D01*
X96582170Y-101498893D01*
X96582172Y-101498898D01*
X96632924Y-101586802D01*
X96704698Y-101658576D01*
X96792603Y-101709328D01*
X96792604Y-101709328D01*
X96792606Y-101709329D01*
X96841625Y-101722464D01*
X96890645Y-101735599D01*
X96890646Y-101735600D01*
X96890648Y-101735600D01*
X96992154Y-101735600D01*
X96992154Y-101735599D01*
X97090197Y-101709328D01*
X97178102Y-101658576D01*
X97249876Y-101586802D01*
X97300628Y-101498897D01*
X97326899Y-101400854D01*
X97326900Y-101400854D01*
X97326900Y-101299346D01*
X97326899Y-101299345D01*
X97300629Y-101201306D01*
X97300627Y-101201301D01*
X97249875Y-101113397D01*
X97178102Y-101041624D01*
X97090198Y-100990872D01*
X97090193Y-100990870D01*
X96992154Y-100964600D01*
X96992152Y-100964600D01*
X96890648Y-100964600D01*
X96890646Y-100964600D01*
X96792606Y-100990870D01*
X96792601Y-100990872D01*
X96704697Y-101041624D01*
X96673026Y-101073296D01*
X96620700Y-101094970D01*
X96568374Y-101073296D01*
X96546700Y-101020970D01*
X96546700Y-100378400D01*
X96568374Y-100326074D01*
X96620700Y-100304400D01*
X97521243Y-100304400D01*
X97972157Y-100304400D01*
X98872700Y-100304400D01*
X98925026Y-100326074D01*
G37*
%TD.AperFunction*%
%TD*%
%TA.AperFunction,Conductor*%
%TO.N,VMOTOR*%
G36*
X132699999Y-109050000D02*
G01*
X130374000Y-109050000D01*
X130321674Y-109028326D01*
X130300000Y-108976000D01*
X130300000Y-105724605D01*
X130695000Y-105724605D01*
X130695000Y-105649999D01*
X132699999Y-105649999D01*
X132699999Y-109050000D01*
G37*
%TD.AperFunction*%
%TD*%
%TA.AperFunction,Conductor*%
%TO.N,SENSE_B*%
G36*
X108299934Y-113596951D02*
G01*
X108299934Y-113699890D01*
X108173933Y-113699890D01*
X108121607Y-113678216D01*
X108099933Y-113625890D01*
X108099933Y-113496945D01*
X108099933Y-113396952D01*
X108299934Y-113596951D01*
G37*
%TD.AperFunction*%
%TA.AperFunction,Conductor*%
G36*
X109691029Y-109621564D02*
G01*
X110478260Y-110408795D01*
X110499934Y-110461121D01*
X110499934Y-111599890D01*
X109696982Y-111599890D01*
X109599924Y-111502833D01*
X109502868Y-111599890D01*
X108299934Y-111599890D01*
X108299934Y-112537866D01*
X108330727Y-112591201D01*
X108279975Y-112503297D01*
X108208202Y-112431524D01*
X108120298Y-112380772D01*
X108120293Y-112380770D01*
X108099933Y-112375314D01*
X108099933Y-109673890D01*
X108121607Y-109621564D01*
X108173933Y-109599890D01*
X109638703Y-109599890D01*
X109691029Y-109621564D01*
G37*
%TD.AperFunction*%
%TD*%
%TA.AperFunction,Conductor*%
%TO.N,SENSE_A*%
G36*
X110653200Y-97722854D02*
G01*
X110679470Y-97820893D01*
X110679472Y-97820898D01*
X110719882Y-97890890D01*
X110730224Y-97908802D01*
X110801998Y-97980576D01*
X110889903Y-98031328D01*
X110878277Y-98024616D01*
X110303005Y-98599890D01*
X111408716Y-99705600D01*
X111381248Y-99705600D01*
X111381246Y-99705600D01*
X111283206Y-99731870D01*
X111283201Y-99731872D01*
X111195297Y-99782624D01*
X111123524Y-99854397D01*
X111072772Y-99942301D01*
X111072770Y-99942306D01*
X111046500Y-100040345D01*
X111046500Y-100141854D01*
X111072770Y-100239893D01*
X111072772Y-100239898D01*
X111123524Y-100327802D01*
X111194038Y-100398316D01*
X111215712Y-100450642D01*
X111194038Y-100502968D01*
X111110284Y-100586722D01*
X111057958Y-100608396D01*
X111005632Y-100586722D01*
X110986480Y-100553549D01*
X110979528Y-100527603D01*
X110928776Y-100439698D01*
X110857002Y-100367924D01*
X110769098Y-100317172D01*
X110769093Y-100317170D01*
X110671054Y-100290900D01*
X110671052Y-100290900D01*
X110569548Y-100290900D01*
X110569546Y-100290900D01*
X110471506Y-100317170D01*
X110471501Y-100317172D01*
X110439033Y-100335917D01*
X109203005Y-99099890D01*
X110653200Y-97649694D01*
X110653200Y-97722854D01*
G37*
%TD.AperFunction*%
%TA.AperFunction,Conductor*%
G36*
X111400060Y-97502832D02*
G01*
X111391216Y-97511677D01*
X111397927Y-97523301D01*
X111367052Y-97469824D01*
X111400060Y-97502832D01*
G37*
%TD.AperFunction*%
%TD*%
%TA.AperFunction,Conductor*%
%TO.N,VMOTOR*%
G36*
X133678325Y-105671673D02*
G01*
X133699999Y-105723999D01*
X133699999Y-108050000D01*
X132699999Y-108050000D01*
X132699999Y-105649999D01*
X133625999Y-105649999D01*
X133678325Y-105671673D01*
G37*
%TD.AperFunction*%
%TD*%
%TA.AperFunction,Conductor*%
%TO.N,EFUSE_IN*%
G36*
X93678326Y-64671673D02*
G01*
X93700000Y-64723999D01*
X93700000Y-65649999D01*
X92700000Y-65649999D01*
X92700000Y-64649999D01*
X93626000Y-64649999D01*
X93678326Y-64671673D01*
G37*
%TD.AperFunction*%
%TD*%
%TA.AperFunction,Conductor*%
%TO.N,SENSE_B*%
G36*
X108499934Y-114385982D02*
G01*
X108499779Y-114385714D01*
X108473329Y-114287006D01*
X108473327Y-114287001D01*
X108452260Y-114250513D01*
X108499934Y-114202838D01*
X108499934Y-114385982D01*
G37*
%TD.AperFunction*%
%TA.AperFunction,Conductor*%
G36*
X111496995Y-113999890D02*
G01*
X111299933Y-113999890D01*
X111299933Y-113802829D01*
X111496995Y-113999890D01*
G37*
%TD.AperFunction*%
%TD*%
%TA.AperFunction,Conductor*%
%TO.N,SENSE_B*%
G36*
X109752876Y-117049889D02*
G01*
X109702877Y-117099890D01*
X109799934Y-117196946D01*
X109799934Y-117199890D01*
X109773934Y-117199890D01*
X109721608Y-117178216D01*
X109699934Y-117125890D01*
X109699934Y-116999890D01*
X109702877Y-116999890D01*
X109752876Y-117049889D01*
G37*
%TD.AperFunction*%
%TA.AperFunction,Conductor*%
G36*
X112078260Y-114721564D02*
G01*
X112099934Y-114773890D01*
X112099934Y-114899890D01*
X112096990Y-114899890D01*
X111899934Y-114702833D01*
X112046990Y-114849889D01*
X112096990Y-114799890D01*
X111999934Y-114702833D01*
X111999934Y-114699890D01*
X112025934Y-114699890D01*
X112078260Y-114721564D01*
G37*
%TD.AperFunction*%
%TD*%
%TA.AperFunction,Conductor*%
%TO.N,VMOTOR*%
G36*
X88022443Y-142354400D02*
G01*
X87393499Y-142354400D01*
X87341173Y-142332726D01*
X87319499Y-142280400D01*
X87319499Y-141677900D01*
X87345943Y-141677900D01*
X87319499Y-141651455D01*
X88022443Y-142354400D01*
G37*
%TD.AperFunction*%
%TA.AperFunction,Conductor*%
G36*
X89348444Y-142354400D02*
G01*
X89016555Y-142354400D01*
X89182499Y-142188455D01*
X89348444Y-142354400D01*
G37*
%TD.AperFunction*%
%TA.AperFunction,Conductor*%
G36*
X91045500Y-142280400D02*
G01*
X91023826Y-142332726D01*
X90971500Y-142354400D01*
X90342556Y-142354400D01*
X91045500Y-141651455D01*
X91045500Y-142280400D01*
G37*
%TD.AperFunction*%
%TD*%
%TA.AperFunction,Conductor*%
%TO.N,MOTOR_A1*%
G36*
X121200000Y-93976000D02*
G01*
X121178326Y-94028326D01*
X121126000Y-94050000D01*
X120200000Y-94050000D01*
X120200000Y-93050000D01*
X121200000Y-93050000D01*
X121200000Y-93976000D01*
G37*
%TD.AperFunction*%
%TD*%
%TA.AperFunction,Conductor*%
%TO.N,SENSE_A*%
G36*
X111950061Y-100246945D02*
G01*
X111897117Y-100299890D01*
X111871592Y-100299890D01*
X111819266Y-100278216D01*
X111797592Y-100225890D01*
X111800114Y-100206737D01*
X111817499Y-100141854D01*
X111817500Y-100141854D01*
X111817500Y-100114384D01*
X111950061Y-100246945D01*
G37*
%TD.AperFunction*%
%TA.AperFunction,Conductor*%
G36*
X111800062Y-97102831D02*
G01*
X111391216Y-97511677D01*
X111400060Y-97502832D01*
X111367052Y-97469824D01*
X111397927Y-97523301D01*
X111354613Y-97448280D01*
X111800062Y-97002832D01*
X111800062Y-97102831D01*
G37*
%TD.AperFunction*%
%TD*%
%TA.AperFunction,Conductor*%
%TO.N,VMOTOR*%
G36*
X99058600Y-72088143D02*
G01*
X98711543Y-72435199D01*
X98703898Y-72427554D01*
X98613869Y-72337525D01*
X98592195Y-72285199D01*
X98613868Y-72232874D01*
X99058600Y-71788143D01*
X99058600Y-72088143D01*
G37*
%TD.AperFunction*%
%TA.AperFunction,Conductor*%
G36*
X100760925Y-70190468D02*
G01*
X101055656Y-70485199D01*
X100558600Y-70485199D01*
X100558600Y-70635200D01*
X100211543Y-70635200D01*
X100656274Y-70190469D01*
X100708600Y-70168795D01*
X100760925Y-70190468D01*
G37*
%TD.AperFunction*%
%TD*%
%TA.AperFunction,Conductor*%
%TO.N,VMOTOR*%
G36*
X97995026Y-127606974D02*
G01*
X98016700Y-127659300D01*
X98016700Y-129911300D01*
X97995026Y-129963626D01*
X97942700Y-129985300D01*
X94842700Y-129985300D01*
X94842700Y-127659300D01*
X94864374Y-127606974D01*
X94916700Y-127585300D01*
X95545643Y-127585300D01*
X96539757Y-127585300D01*
X97942700Y-127585300D01*
X97995026Y-127606974D01*
G37*
%TD.AperFunction*%
%TD*%
%TA.AperFunction,Conductor*%
%TO.N,VMOTOR*%
G36*
X115300000Y-85050000D02*
G01*
X114374000Y-85050000D01*
X114321674Y-85028326D01*
X114300000Y-84976000D01*
X114300000Y-82649999D01*
X115300000Y-82649999D01*
X115300000Y-85050000D01*
G37*
%TD.AperFunction*%
%TD*%
%TA.AperFunction,Conductor*%
%TO.N,SENSE_A*%
G36*
X113597116Y-99099890D02*
G01*
X113597115Y-99099890D01*
X113400062Y-99296943D01*
X113200060Y-99496945D01*
X113050061Y-99346946D01*
X113397119Y-98999889D01*
X113697117Y-98999889D01*
X113597116Y-99099890D01*
G37*
%TD.AperFunction*%
%TA.AperFunction,Conductor*%
G36*
X114500061Y-98196945D02*
G01*
X114497117Y-98199890D01*
X114497116Y-98199890D01*
X114497114Y-98199890D01*
X114400062Y-98296941D01*
X114400062Y-98096946D01*
X114500061Y-98196945D01*
G37*
%TD.AperFunction*%
%TA.AperFunction,Conductor*%
G36*
X114472100Y-97532915D02*
G01*
X114466968Y-97541801D01*
X114472099Y-97522654D01*
X114472100Y-97522654D01*
X114472100Y-97532915D01*
G37*
%TD.AperFunction*%
%TA.AperFunction,Conductor*%
G36*
X114472100Y-97420162D02*
G01*
X114472100Y-97421146D01*
X114472099Y-97421145D01*
X114470848Y-97416478D01*
X114472100Y-97420162D01*
G37*
%TD.AperFunction*%
%TA.AperFunction,Conductor*%
G36*
X114052388Y-95355158D02*
G01*
X114148983Y-95451753D01*
X114170657Y-95504079D01*
X114148983Y-95556405D01*
X114133657Y-95568165D01*
X114067245Y-95606508D01*
X113981508Y-95692245D01*
X113920884Y-95797248D01*
X113920883Y-95797250D01*
X113920882Y-95797252D01*
X113920882Y-95797253D01*
X113889500Y-95914374D01*
X113889500Y-96035626D01*
X113920882Y-96152747D01*
X113920883Y-96152749D01*
X113920884Y-96152751D01*
X113950457Y-96203972D01*
X113981508Y-96257754D01*
X114065650Y-96341896D01*
X114064597Y-96341459D01*
X114063397Y-96340539D01*
X114063150Y-96340860D01*
X114013324Y-96320222D01*
X113960998Y-96341895D01*
X113355328Y-96947566D01*
X113703005Y-96599888D01*
X113197117Y-96599888D01*
X112950061Y-96352832D01*
X113947739Y-95355156D01*
X114000062Y-95333484D01*
X114052388Y-95355158D01*
G37*
%TD.AperFunction*%
%TD*%
%TA.AperFunction,Conductor*%
%TO.N,BRAKE_RETURN*%
G36*
X109678326Y-64671673D02*
G01*
X109700000Y-64723999D01*
X109700000Y-67050000D01*
X106300000Y-67050000D01*
X106300000Y-64723999D01*
X106321674Y-64671673D01*
X106374000Y-64649999D01*
X109626000Y-64649999D01*
X109678326Y-64671673D01*
G37*
%TD.AperFunction*%
%TD*%
%TA.AperFunction,Conductor*%
%TO.N,SENSE_B*%
G36*
X109399932Y-114202835D02*
G01*
X109152878Y-114449888D01*
X108902878Y-114199890D01*
X109399932Y-114199890D01*
X109399932Y-114202835D01*
G37*
%TD.AperFunction*%
%TA.AperFunction,Conductor*%
G36*
X111396990Y-113299881D02*
G01*
X110946987Y-113749887D01*
X110699934Y-113502833D01*
X110699934Y-112602831D01*
X111396990Y-113299881D01*
G37*
%TD.AperFunction*%
%TA.AperFunction,Conductor*%
G36*
X108299934Y-113596951D02*
G01*
X107955201Y-113252222D01*
X107933527Y-113199896D01*
X107955199Y-113147574D01*
X107955666Y-113147106D01*
X108007924Y-113125500D01*
X108022254Y-113125500D01*
X108022254Y-113125499D01*
X108120297Y-113099228D01*
X108208202Y-113048476D01*
X108279976Y-112976702D01*
X108299934Y-112942133D01*
X108299934Y-113596951D01*
G37*
%TD.AperFunction*%
%TA.AperFunction,Conductor*%
G36*
X109696982Y-111599890D02*
G01*
X109502868Y-111599890D01*
X109599924Y-111502833D01*
X109696982Y-111599890D01*
G37*
%TD.AperFunction*%
%TD*%
%TA.AperFunction,Conductor*%
%TO.N,SENSE_B*%
G36*
X111399934Y-118696946D02*
G01*
X111796990Y-118299890D01*
X112096990Y-118299890D01*
X111499934Y-118896946D01*
X110902878Y-118299890D01*
X111002878Y-118299890D01*
X111399934Y-118696946D01*
G37*
%TD.AperFunction*%
%TA.AperFunction,Conductor*%
G36*
X113144664Y-117147564D02*
G01*
X113166338Y-117199890D01*
X113144664Y-117252216D01*
X112599934Y-117796946D01*
X112599934Y-117496944D01*
X113046989Y-117049889D01*
X113144664Y-117147564D01*
G37*
%TD.AperFunction*%
%TA.AperFunction,Conductor*%
G36*
X109799934Y-117096946D02*
G01*
X109799934Y-117196946D01*
X109702877Y-117099890D01*
X109752877Y-117049889D01*
X109799934Y-117096946D01*
G37*
%TD.AperFunction*%
%TD*%
%TA.AperFunction,Conductor*%
%TO.N,SENSE_A*%
G36*
X111072771Y-99942305D02*
G01*
X111066990Y-99963877D01*
X111072770Y-99942306D01*
X111072772Y-99942301D01*
X111072771Y-99942305D01*
G37*
%TD.AperFunction*%
%TA.AperFunction,Conductor*%
G36*
X111750065Y-97052828D02*
G01*
X111354613Y-97448279D01*
X111347175Y-97435397D01*
X111307338Y-97395560D01*
X111700070Y-97002833D01*
X111750065Y-97052828D01*
G37*
%TD.AperFunction*%
%TD*%
%TA.AperFunction,Conductor*%
%TO.N,SENSE_A*%
G36*
X117038786Y-94049524D02*
G01*
X117062793Y-94065564D01*
X118634383Y-95637155D01*
X118650422Y-95661158D01*
X118654734Y-95671566D01*
X118654738Y-95728203D01*
X118654735Y-95728209D01*
X118650424Y-95738616D01*
X118634384Y-95762622D01*
X117789654Y-96607353D01*
X117789653Y-96607354D01*
X116997118Y-97399890D01*
X116997117Y-97399890D01*
X116837658Y-97559346D01*
X116813653Y-97575386D01*
X116803246Y-97579697D01*
X116746609Y-97579698D01*
X116746608Y-97579698D01*
X116736200Y-97575387D01*
X116712193Y-97559347D01*
X116712192Y-97559346D01*
X116682754Y-97529908D01*
X116682751Y-97529906D01*
X116682750Y-97529905D01*
X116586186Y-97474154D01*
X116582286Y-97471162D01*
X116573210Y-97467402D01*
X116568338Y-97466761D01*
X116460626Y-97437900D01*
X116460625Y-97437900D01*
X116339373Y-97437900D01*
X116303066Y-97447627D01*
X116246914Y-97440233D01*
X116231590Y-97428474D01*
X116203006Y-97399890D01*
X115855724Y-97052608D01*
X115834051Y-97000284D01*
X115855725Y-96947958D01*
X115908051Y-96926284D01*
X115927204Y-96928806D01*
X115933414Y-96930470D01*
X115952425Y-96935564D01*
X115996768Y-96947445D01*
X116000463Y-96948700D01*
X116102954Y-96948700D01*
X116113216Y-96948700D01*
X116122104Y-96943567D01*
X116200997Y-96922428D01*
X116288902Y-96871676D01*
X116360676Y-96799902D01*
X116411428Y-96711997D01*
X116432567Y-96633104D01*
X116437700Y-96624215D01*
X116437700Y-96511462D01*
X116436445Y-96507768D01*
X116411429Y-96414406D01*
X116411427Y-96414402D01*
X116411428Y-96414402D01*
X116360677Y-96326500D01*
X116360676Y-96326499D01*
X116360675Y-96326497D01*
X116288902Y-96254724D01*
X116288899Y-96254722D01*
X116288898Y-96254721D01*
X116200996Y-96203970D01*
X116200992Y-96203969D01*
X116200991Y-96203968D01*
X116102956Y-96177700D01*
X116102954Y-96177700D01*
X116102952Y-96177700D01*
X116001448Y-96177700D01*
X116001446Y-96177700D01*
X116001444Y-96177700D01*
X115903407Y-96203969D01*
X115903406Y-96203969D01*
X115903403Y-96203970D01*
X115903402Y-96203970D01*
X115815500Y-96254721D01*
X115743721Y-96326500D01*
X115692970Y-96414402D01*
X115692970Y-96414403D01*
X115692969Y-96414406D01*
X115692968Y-96414407D01*
X115666700Y-96512442D01*
X115666700Y-96613956D01*
X115686592Y-96688193D01*
X115679200Y-96744346D01*
X115634267Y-96778824D01*
X115578114Y-96771432D01*
X115562788Y-96759672D01*
X114955331Y-96152215D01*
X114933657Y-96099889D01*
X114955330Y-96047564D01*
X116937333Y-94065560D01*
X116961335Y-94049523D01*
X116971745Y-94045211D01*
X117028373Y-94045211D01*
X117038786Y-94049524D01*
G37*
%TD.AperFunction*%
%TD*%
%TA.AperFunction,Conductor*%
%TO.N,SENSE_A*%
G36*
X110889903Y-98031328D02*
G01*
X110889904Y-98031328D01*
X110889906Y-98031329D01*
X110987939Y-98057598D01*
X110987942Y-98057598D01*
X110987948Y-98057600D01*
X110987954Y-98057600D01*
X110988940Y-98057730D01*
X110989381Y-98057984D01*
X110992633Y-98058856D01*
X110992399Y-98059727D01*
X111037991Y-98086045D01*
X111050765Y-98111944D01*
X111072671Y-98193694D01*
X111072672Y-98193698D01*
X111123424Y-98281602D01*
X111195198Y-98353376D01*
X111283103Y-98404128D01*
X111283104Y-98404128D01*
X111283106Y-98404129D01*
X111332125Y-98417264D01*
X111381145Y-98430399D01*
X111381146Y-98430400D01*
X111381148Y-98430400D01*
X111482654Y-98430400D01*
X111482654Y-98430399D01*
X111580697Y-98404128D01*
X111668602Y-98353376D01*
X111740376Y-98281602D01*
X111791128Y-98193697D01*
X111800062Y-98160357D01*
X111800062Y-98180245D01*
X111800062Y-98999889D01*
X113297118Y-98999889D01*
X112150061Y-100146946D01*
X112102923Y-100194084D01*
X112000062Y-100296946D01*
X111817500Y-100114384D01*
X111817500Y-100040346D01*
X111817499Y-100040345D01*
X111791229Y-99942306D01*
X111791227Y-99942301D01*
X111740475Y-99854397D01*
X111668702Y-99782624D01*
X111580798Y-99731872D01*
X111580793Y-99731870D01*
X111482754Y-99705600D01*
X111482752Y-99705600D01*
X111408716Y-99705600D01*
X110303005Y-98599890D01*
X110878277Y-98024616D01*
X110889903Y-98031328D01*
G37*
%TD.AperFunction*%
%TA.AperFunction,Conductor*%
G36*
X111800062Y-97929443D02*
G01*
X111817399Y-97994145D01*
X111791129Y-97896106D01*
X111791127Y-97896101D01*
X111761912Y-97845500D01*
X111740376Y-97808198D01*
X111668602Y-97736424D01*
X111620413Y-97708602D01*
X111580698Y-97685672D01*
X111580693Y-97685670D01*
X111482649Y-97659398D01*
X111481649Y-97659267D01*
X111481208Y-97659012D01*
X111477967Y-97658144D01*
X111478199Y-97657275D01*
X111432601Y-97630946D01*
X111419834Y-97605054D01*
X111397929Y-97523306D01*
X111397927Y-97523301D01*
X111391216Y-97511677D01*
X111800062Y-97102831D01*
X111800062Y-97929443D01*
G37*
%TD.AperFunction*%
%TD*%
%TA.AperFunction,Conductor*%
%TO.N,SENSE_B*%
G36*
X108499934Y-114202838D02*
G01*
X108452260Y-114250512D01*
X108423033Y-114199890D01*
X108499934Y-114199890D01*
X108499934Y-114202838D01*
G37*
%TD.AperFunction*%
%TA.AperFunction,Conductor*%
G36*
X110778259Y-111921564D02*
G01*
X110799933Y-111973890D01*
X110799933Y-112099890D01*
X110699934Y-112099890D01*
X110699934Y-111899890D01*
X110725933Y-111899890D01*
X110778259Y-111921564D01*
G37*
%TD.AperFunction*%
%TD*%
%TA.AperFunction,Conductor*%
%TO.N,VMOTOR*%
G36*
X104362081Y-73478773D02*
G01*
X104325272Y-73463526D01*
X104315154Y-73453408D01*
X104210151Y-73392784D01*
X104210149Y-73392783D01*
X104210148Y-73392782D01*
X104210147Y-73392782D01*
X104093026Y-73361400D01*
X103971774Y-73361400D01*
X103854653Y-73392782D01*
X103854652Y-73392782D01*
X103854650Y-73392783D01*
X103854648Y-73392784D01*
X103749645Y-73453408D01*
X103663907Y-73539146D01*
X103621198Y-73613119D01*
X103576265Y-73647597D01*
X103520112Y-73640203D01*
X103504787Y-73628444D01*
X103379627Y-73503284D01*
X103357953Y-73450958D01*
X103367867Y-73413958D01*
X103380092Y-73392784D01*
X103402428Y-73354097D01*
X103428699Y-73256054D01*
X103428700Y-73256054D01*
X103428700Y-73185200D01*
X104655654Y-73185200D01*
X104362081Y-73478773D01*
G37*
%TD.AperFunction*%
%TA.AperFunction,Conductor*%
G36*
X102806497Y-72896824D02*
G01*
X102808600Y-72895609D01*
X102808600Y-72885200D01*
X102826630Y-72885200D01*
X102806497Y-72896824D01*
G37*
%TD.AperFunction*%
%TA.AperFunction,Conductor*%
G36*
X104210925Y-70340468D02*
G01*
X104655657Y-70785200D01*
X103661542Y-70785200D01*
X104106274Y-70340469D01*
X104158600Y-70318795D01*
X104210925Y-70340468D01*
G37*
%TD.AperFunction*%
%TD*%
%TA.AperFunction,Conductor*%
%TO.N,MOTOR_A1*%
G36*
X121178326Y-90671673D02*
G01*
X121200000Y-90723999D01*
X121200000Y-93050000D01*
X120200000Y-93050000D01*
X120200000Y-90649999D01*
X121126000Y-90649999D01*
X121178326Y-90671673D01*
G37*
%TD.AperFunction*%
%TD*%
%TA.AperFunction,Conductor*%
%TO.N,SENSE_B*%
G36*
X111196990Y-112799890D02*
G01*
X111099934Y-112896945D01*
X111099934Y-112702833D01*
X111196990Y-112799890D01*
G37*
%TD.AperFunction*%
%TA.AperFunction,Conductor*%
G36*
X108099933Y-112375314D02*
G01*
X108120293Y-112380770D01*
X108042769Y-112359997D01*
X108099933Y-112302833D01*
X108099933Y-112375314D01*
G37*
%TD.AperFunction*%
%TD*%
%TA.AperFunction,Conductor*%
%TO.N,SENSE_B*%
G36*
X112946990Y-116849889D02*
G01*
X113044663Y-116947562D01*
X113066337Y-116999888D01*
X113046989Y-117046599D01*
X113046989Y-117049889D01*
X111399934Y-118696946D01*
X109602877Y-116899890D01*
X109902877Y-116599890D01*
X110402878Y-116599890D01*
X110499934Y-116696946D01*
X110596990Y-116599890D01*
X111799933Y-116599890D01*
X111799933Y-115702832D01*
X112946990Y-116849889D01*
G37*
%TD.AperFunction*%
%TD*%
%TA.AperFunction,Conductor*%
%TO.N,SENSE_B*%
G36*
X109052873Y-115549893D02*
G01*
X109102877Y-115499890D01*
X109002877Y-115599890D01*
X109099933Y-115696945D01*
X109099933Y-115699890D01*
X109073934Y-115699890D01*
X109021608Y-115678216D01*
X108999934Y-115625890D01*
X108999934Y-115499890D01*
X109002869Y-115499890D01*
X109052873Y-115549893D01*
G37*
%TD.AperFunction*%
%TA.AperFunction,Conductor*%
G36*
X111378260Y-113221564D02*
G01*
X111399934Y-113273890D01*
X111399934Y-113399890D01*
X111396990Y-113399890D01*
X111346985Y-113349885D01*
X111396990Y-113299881D01*
X111299933Y-113202824D01*
X111299933Y-113199890D01*
X111325934Y-113199890D01*
X111378260Y-113221564D01*
G37*
%TD.AperFunction*%
%TD*%
%TA.AperFunction,Conductor*%
%TO.N,VMOTOR*%
G36*
X115321674Y-104671673D02*
G01*
X115300000Y-104723999D01*
X115300000Y-107976000D01*
X115321674Y-108028326D01*
X115374000Y-108050000D01*
X114388719Y-108050000D01*
X114360404Y-108044368D01*
X114349995Y-108040057D01*
X114309946Y-108000013D01*
X114305629Y-107989591D01*
X114300000Y-107961281D01*
X114300000Y-104738717D01*
X114305629Y-104710408D01*
X114309943Y-104699993D01*
X114349982Y-104659947D01*
X114360411Y-104655627D01*
X114388719Y-104649999D01*
X115374000Y-104649999D01*
X115321674Y-104671673D01*
G37*
%TD.AperFunction*%
%TD*%
%TA.AperFunction,Conductor*%
%TO.N,BRAKE_RETURN*%
G36*
X108700000Y-68050000D02*
G01*
X107300000Y-68050000D01*
X106374000Y-68050000D01*
X106321674Y-68028326D01*
X106300000Y-67976000D01*
X106300000Y-67050000D01*
X108700000Y-67050000D01*
X108700000Y-68050000D01*
G37*
%TD.AperFunction*%
%TD*%
%TA.AperFunction,Conductor*%
%TO.N,SENSE_B*%
G36*
X108299934Y-113899890D02*
G01*
X108273934Y-113899890D01*
X108221608Y-113878216D01*
X108199934Y-113825890D01*
X108199934Y-113699890D01*
X108299934Y-113699890D01*
X108299934Y-113899890D01*
G37*
%TD.AperFunction*%
%TA.AperFunction,Conductor*%
G36*
X110578260Y-111421564D02*
G01*
X110599934Y-111473890D01*
X110599934Y-111599890D01*
X110499934Y-111599890D01*
X110499934Y-111399890D01*
X110525934Y-111399890D01*
X110578260Y-111421564D01*
G37*
%TD.AperFunction*%
%TD*%
%TA.AperFunction,Conductor*%
%TO.N,VMOTOR*%
G36*
X125700000Y-108976000D02*
G01*
X125678326Y-109028326D01*
X125626000Y-109050000D01*
X124700000Y-109050000D01*
X124700000Y-108050000D01*
X125700000Y-108050000D01*
X125700000Y-108976000D01*
G37*
%TD.AperFunction*%
%TD*%
%TA.AperFunction,Conductor*%
%TO.N,SENSE_B*%
G36*
X111002878Y-118299890D02*
G01*
X110273934Y-118299890D01*
X110221608Y-118278216D01*
X110199934Y-118225890D01*
X110199934Y-118099890D01*
X110199934Y-117496946D01*
X111002878Y-118299890D01*
G37*
%TD.AperFunction*%
%TA.AperFunction,Conductor*%
G36*
X112599934Y-118299890D02*
G01*
X111796990Y-118299890D01*
X112599934Y-117496944D01*
X112599934Y-118299890D01*
G37*
%TD.AperFunction*%
%TA.AperFunction,Conductor*%
G36*
X112578260Y-115821563D02*
G01*
X112599934Y-115873889D01*
X112599934Y-116502833D01*
X111899934Y-115802833D01*
X111899934Y-115799889D01*
X112499934Y-115799889D01*
X112525934Y-115799889D01*
X112578260Y-115821563D01*
G37*
%TD.AperFunction*%
%TD*%
%TA.AperFunction,Conductor*%
%TO.N,SENSE_B*%
G36*
X110199934Y-117496946D02*
G01*
X110199934Y-117699890D01*
X109973932Y-117699890D01*
X109921606Y-117678216D01*
X109899932Y-117625890D01*
X109899932Y-117399890D01*
X109899932Y-117196944D01*
X110199934Y-117496946D01*
G37*
%TD.AperFunction*%
%TA.AperFunction,Conductor*%
G36*
X112278259Y-115121564D02*
G01*
X112299933Y-115173890D01*
X112299933Y-115702832D01*
X112046992Y-115449891D01*
X112296989Y-115199898D01*
X112196982Y-115099890D01*
X112199934Y-115099890D01*
X112225933Y-115099890D01*
X112278259Y-115121564D01*
G37*
%TD.AperFunction*%
%TD*%
%TA.AperFunction,Conductor*%
%TO.N,SENSE_B*%
G36*
X112096990Y-114799890D02*
G01*
X112046990Y-114849889D01*
X111899934Y-114702833D01*
X111899934Y-114602833D01*
X112096990Y-114799890D01*
G37*
%TD.AperFunction*%
%TA.AperFunction,Conductor*%
G36*
X108699934Y-114796946D02*
G01*
X108602877Y-114699890D01*
X108699934Y-114602833D01*
X108699934Y-114796946D01*
G37*
%TD.AperFunction*%
%TA.AperFunction,Conductor*%
G36*
X111296990Y-113999890D02*
G01*
X111196991Y-113999890D01*
X111099934Y-113902833D01*
X111099934Y-113896945D01*
X111146989Y-113849889D01*
X111296990Y-113999890D01*
G37*
%TD.AperFunction*%
%TD*%
%TA.AperFunction,Conductor*%
%TO.N,VMOTOR*%
G36*
X124700000Y-109050000D02*
G01*
X122374000Y-109050000D01*
X122321674Y-109028326D01*
X122300000Y-108976000D01*
X122300000Y-105723999D01*
X122321674Y-105671673D01*
X122374000Y-105649999D01*
X124700000Y-105649999D01*
X124700000Y-109050000D01*
G37*
%TD.AperFunction*%
%TD*%
%TA.AperFunction,Conductor*%
%TO.N,SENSE_A*%
G36*
X113000062Y-99799890D02*
G01*
X113000062Y-99825890D01*
X112978388Y-99878216D01*
X112926062Y-99899890D01*
X112497118Y-99899890D01*
X112697118Y-99699890D01*
X113000062Y-99699890D01*
X113000062Y-99799890D01*
G37*
%TD.AperFunction*%
%TA.AperFunction,Conductor*%
G36*
X112968196Y-98592476D02*
G01*
X113000062Y-98601015D01*
X112959806Y-98590229D01*
X112968196Y-98592476D01*
G37*
%TD.AperFunction*%
%TA.AperFunction,Conductor*%
G36*
X110641632Y-97521564D02*
G01*
X110663306Y-97573890D01*
X110660784Y-97593043D01*
X110653200Y-97621345D01*
X110653200Y-97649694D01*
X110500062Y-97802832D01*
X110500062Y-97573890D01*
X110521736Y-97521564D01*
X110574062Y-97499890D01*
X110589306Y-97499890D01*
X110641632Y-97521564D01*
G37*
%TD.AperFunction*%
%TD*%
%TA.AperFunction,Conductor*%
%TO.N,SENSE_B*%
G36*
X112196990Y-114999890D02*
G01*
X110499934Y-116696946D01*
X108941932Y-115138945D01*
X109619700Y-115138945D01*
X109619700Y-115240454D01*
X109645970Y-115338493D01*
X109645972Y-115338498D01*
X109696724Y-115426402D01*
X109768498Y-115498176D01*
X109856403Y-115548928D01*
X109856404Y-115548928D01*
X109856406Y-115548929D01*
X109905425Y-115562064D01*
X109954445Y-115575199D01*
X109954446Y-115575200D01*
X109954448Y-115575200D01*
X110055954Y-115575200D01*
X110055954Y-115575199D01*
X110153997Y-115548928D01*
X110241902Y-115498176D01*
X110313676Y-115426402D01*
X110364428Y-115338497D01*
X110390699Y-115240454D01*
X110390700Y-115240454D01*
X110390700Y-115138946D01*
X110390699Y-115138945D01*
X110364429Y-115040906D01*
X110364427Y-115040901D01*
X110350828Y-115017347D01*
X110313676Y-114952998D01*
X110241902Y-114881224D01*
X110153998Y-114830472D01*
X110153993Y-114830470D01*
X110055954Y-114804200D01*
X110055952Y-114804200D01*
X109954448Y-114804200D01*
X109954446Y-114804200D01*
X109856406Y-114830470D01*
X109856401Y-114830472D01*
X109768497Y-114881224D01*
X109696724Y-114952997D01*
X109645972Y-115040901D01*
X109645970Y-115040906D01*
X109619700Y-115138945D01*
X108941932Y-115138945D01*
X108702877Y-114899890D01*
X109402877Y-114199890D01*
X110699934Y-114199890D01*
X110699934Y-113502833D01*
X112196990Y-114999890D01*
G37*
%TD.AperFunction*%
%TD*%
%TA.AperFunction,Conductor*%
%TO.N,SENSE_B*%
G36*
X110402878Y-116599890D02*
G01*
X109473932Y-116599890D01*
X109421606Y-116578216D01*
X109399932Y-116525890D01*
X109399932Y-116299890D01*
X109399932Y-115596944D01*
X110402878Y-116599890D01*
G37*
%TD.AperFunction*%
%TA.AperFunction,Conductor*%
G36*
X111799933Y-116599890D02*
G01*
X110596990Y-116599890D01*
X111799933Y-115396947D01*
X111799933Y-116599890D01*
G37*
%TD.AperFunction*%
%TA.AperFunction,Conductor*%
G36*
X111778259Y-114021564D02*
G01*
X111799933Y-114073890D01*
X111799933Y-114602832D01*
X111196991Y-113999890D01*
X111699934Y-113999890D01*
X111725933Y-113999890D01*
X111778259Y-114021564D01*
G37*
%TD.AperFunction*%
%TA.AperFunction,Conductor*%
G36*
X109399932Y-114202835D02*
G01*
X109399932Y-114199890D01*
X109402877Y-114199890D01*
X109399932Y-114202835D01*
G37*
%TD.AperFunction*%
%TD*%
%TA.AperFunction,Conductor*%
%TO.N,VMOTOR*%
G36*
X102105656Y-73035200D02*
G01*
X102696270Y-73035200D01*
X102683972Y-73056501D01*
X102683970Y-73056506D01*
X102657700Y-73154545D01*
X102657700Y-73256054D01*
X102683970Y-73354093D01*
X102683972Y-73354098D01*
X102725654Y-73426292D01*
X102734724Y-73442002D01*
X102806498Y-73513776D01*
X102894403Y-73564528D01*
X102894404Y-73564528D01*
X102894406Y-73564529D01*
X102943425Y-73577664D01*
X102992445Y-73590799D01*
X102992446Y-73590800D01*
X103021402Y-73590800D01*
X103073728Y-73612474D01*
X103095402Y-73664800D01*
X103073728Y-73717126D01*
X102860924Y-73929929D01*
X102808598Y-73951603D01*
X102756272Y-73929929D01*
X102311543Y-73485200D01*
X101983599Y-73157256D01*
X102255656Y-72885200D01*
X102105656Y-73035200D01*
G37*
%TD.AperFunction*%
%TA.AperFunction,Conductor*%
G36*
X103402426Y-73354101D02*
G01*
X103380093Y-73392783D01*
X103402426Y-73354099D01*
X103402426Y-73354101D01*
G37*
%TD.AperFunction*%
%TA.AperFunction,Conductor*%
G36*
X102599950Y-70383059D02*
G01*
X102615276Y-70394819D01*
X102705656Y-70485199D01*
X102435079Y-70485199D01*
X102483476Y-70436802D01*
X102498866Y-70410145D01*
X102543797Y-70375668D01*
X102599950Y-70383059D01*
G37*
%TD.AperFunction*%
%TD*%
%TA.AperFunction,Conductor*%
%TO.N,SENSE_B*%
G36*
X110678260Y-111621564D02*
G01*
X110699934Y-111673890D01*
X110699934Y-114199890D01*
X108423033Y-114199890D01*
X108422576Y-114199098D01*
X108350802Y-114127324D01*
X108350799Y-114127322D01*
X108350798Y-114127321D01*
X108336932Y-114119315D01*
X108302455Y-114074380D01*
X108299934Y-114055230D01*
X108299934Y-113899890D01*
X108299934Y-112942133D01*
X108330728Y-112888797D01*
X108356999Y-112790754D01*
X108357000Y-112790754D01*
X108357000Y-112689246D01*
X108356999Y-112689245D01*
X108330729Y-112591206D01*
X108330727Y-112591201D01*
X108299934Y-112537866D01*
X108299934Y-111599890D01*
X110599934Y-111599890D01*
X110625934Y-111599890D01*
X110678260Y-111621564D01*
G37*
%TD.AperFunction*%
%TD*%
%TA.AperFunction,Conductor*%
%TO.N,BRAKE_RETURN*%
G36*
X109700000Y-67976000D02*
G01*
X109678326Y-68028326D01*
X109626000Y-68050000D01*
X108700000Y-68050000D01*
X108700000Y-67050000D01*
X109700000Y-67050000D01*
X109700000Y-67976000D01*
G37*
%TD.AperFunction*%
%TD*%
%TA.AperFunction,Conductor*%
%TO.N,MOTOR_B2*%
G36*
X133678325Y-114671673D02*
G01*
X133699999Y-114723999D01*
X133699999Y-115649999D01*
X130300000Y-115649999D01*
X130300000Y-114723999D01*
X130321674Y-114671673D01*
X130374000Y-114649999D01*
X133625999Y-114649999D01*
X133678325Y-114671673D01*
G37*
%TD.AperFunction*%
%TD*%
%TA.AperFunction,Conductor*%
%TO.N,VMOTOR*%
G36*
X102311543Y-73485200D02*
G01*
X102103900Y-73485200D01*
X102051574Y-73463526D01*
X102029900Y-73411200D01*
X102029900Y-73275156D01*
X102019399Y-73249804D01*
X101994048Y-73188600D01*
X101973152Y-73167704D01*
X101983599Y-73157256D01*
X102311543Y-73485200D01*
G37*
%TD.AperFunction*%
%TA.AperFunction,Conductor*%
G36*
X105058600Y-73382256D02*
G01*
X105058600Y-73411200D01*
X105036926Y-73463526D01*
X104984600Y-73485200D01*
X104377598Y-73485200D01*
X104362081Y-73478772D01*
X104655654Y-73185200D01*
X104861544Y-73185200D01*
X105058600Y-73382256D01*
G37*
%TD.AperFunction*%
%TD*%
%TA.AperFunction,Conductor*%
%TO.N,SENSE_B*%
G36*
X112696990Y-116099890D02*
G01*
X112599934Y-116196945D01*
X112599934Y-116002833D01*
X112696990Y-116099890D01*
G37*
%TD.AperFunction*%
%TA.AperFunction,Conductor*%
G36*
X109399932Y-116196944D02*
G01*
X109202877Y-115999889D01*
X109399932Y-115802833D01*
X109399932Y-116196944D01*
G37*
%TD.AperFunction*%
%TA.AperFunction,Conductor*%
G36*
X112396989Y-115799889D02*
G01*
X111899934Y-115799889D01*
X111899934Y-115302833D01*
X112396989Y-115799889D01*
G37*
%TD.AperFunction*%
%TD*%
%TA.AperFunction,Conductor*%
%TO.N,EFUSE_IN*%
G36*
X93700000Y-67976000D02*
G01*
X93678326Y-68028326D01*
X93626000Y-68050000D01*
X92700000Y-68050000D01*
X90374000Y-68050000D01*
X90321674Y-68028326D01*
X90300000Y-67976000D01*
X90300000Y-65649999D01*
X93700000Y-65649999D01*
X93700000Y-67976000D01*
G37*
%TD.AperFunction*%
%TD*%
%TA.AperFunction,Conductor*%
%TO.N,VMOTOR*%
G36*
X130673326Y-103346278D02*
G01*
X130695000Y-103398604D01*
X130695000Y-105724605D01*
X125668160Y-105724605D01*
X125616674Y-105703279D01*
X125595000Y-105650953D01*
X125595000Y-103398604D01*
X125616674Y-103346278D01*
X125669000Y-103324604D01*
X130621000Y-103324604D01*
X130673326Y-103346278D01*
G37*
%TD.AperFunction*%
%TD*%
%TA.AperFunction,Conductor*%
%TO.N,VMOTOR*%
G36*
X87345943Y-141677900D02*
G01*
X86717000Y-141677900D01*
X86664674Y-141656226D01*
X86643000Y-141603900D01*
X86643000Y-140974956D01*
X87345943Y-141677900D01*
G37*
%TD.AperFunction*%
%TA.AperFunction,Conductor*%
G36*
X87843000Y-138682056D02*
G01*
X88154889Y-138370166D01*
X88112970Y-138268962D01*
X88182508Y-138436842D01*
X88182509Y-138436843D01*
X88283465Y-138587935D01*
X88411958Y-138716428D01*
X88563050Y-138817384D01*
X88730935Y-138886924D01*
X88909160Y-138922375D01*
X88909161Y-138922375D01*
X88969000Y-138922375D01*
X89021326Y-138944049D01*
X89043000Y-138996375D01*
X89043000Y-139003371D01*
X89021326Y-139055697D01*
X88969000Y-139077371D01*
X88909160Y-139077371D01*
X88873902Y-139084384D01*
X88730941Y-139112820D01*
X88730930Y-139112823D01*
X88563050Y-139182361D01*
X88411958Y-139283317D01*
X88411957Y-139283319D01*
X88378716Y-139316559D01*
X87843000Y-138780843D01*
X86643000Y-139980842D01*
X86643000Y-137482056D01*
X87843000Y-138682056D01*
G37*
%TD.AperFunction*%
%TA.AperFunction,Conductor*%
G36*
X86643000Y-136487943D02*
G01*
X86643000Y-135859000D01*
X86664674Y-135806674D01*
X86717000Y-135785000D01*
X87345943Y-135785000D01*
X86643000Y-136487943D01*
G37*
%TD.AperFunction*%
%TD*%
%TA.AperFunction,Conductor*%
%TO.N,SENSE_A*%
G36*
X113200062Y-99725890D02*
G01*
X113178388Y-99778216D01*
X113126062Y-99799890D01*
X113000062Y-99799890D01*
X113000062Y-99699890D01*
X113200062Y-99699890D01*
X113200062Y-99725890D01*
G37*
%TD.AperFunction*%
%TD*%
%TA.AperFunction,Conductor*%
%TO.N,MOTOR_B2*%
G36*
X133699999Y-117976000D02*
G01*
X133678325Y-118028326D01*
X133625999Y-118050000D01*
X132699999Y-118050000D01*
X130374000Y-118050000D01*
X130321674Y-118028326D01*
X130300000Y-117976000D01*
X130300000Y-115649999D01*
X133699999Y-115649999D01*
X133699999Y-117976000D01*
G37*
%TD.AperFunction*%
%TD*%
%TA.AperFunction,Conductor*%
%TO.N,SENSE_A*%
G36*
X110439033Y-100335917D02*
G01*
X110471501Y-100317172D01*
X110383597Y-100367924D01*
X110329645Y-100421877D01*
X110277319Y-100443551D01*
X110224993Y-100421877D01*
X110203006Y-100399890D01*
X109903006Y-100099890D01*
X110203006Y-100099890D01*
X110439033Y-100335917D01*
G37*
%TD.AperFunction*%
%TA.AperFunction,Conductor*%
G36*
X109900061Y-98402833D02*
G01*
X109203005Y-99099890D01*
X109900061Y-99796945D01*
X109900061Y-100096945D01*
X109003005Y-99199890D01*
X109900061Y-98302833D01*
X109900061Y-98402833D01*
G37*
%TD.AperFunction*%
%TD*%
%TA.AperFunction,Conductor*%
%TO.N,SENSE_B*%
G36*
X109702874Y-116799892D02*
G01*
X109702871Y-116799890D01*
X109702877Y-116799890D01*
X109702874Y-116799892D01*
G37*
%TD.AperFunction*%
%TA.AperFunction,Conductor*%
G36*
X112797006Y-116499898D02*
G01*
X112844663Y-116547554D01*
X112866337Y-116599880D01*
X112846985Y-116646601D01*
X112846985Y-116649885D01*
X112796985Y-116699884D01*
X112599934Y-116502833D01*
X112599934Y-116302827D01*
X112797006Y-116499898D01*
G37*
%TD.AperFunction*%
%TD*%
%TA.AperFunction,Conductor*%
%TO.N,SENSE_A*%
G36*
X115838059Y-94549223D02*
G01*
X115838789Y-94549526D01*
X115862795Y-94565566D01*
X116150061Y-94852832D01*
X114955330Y-96047564D01*
X114933657Y-96099889D01*
X114955331Y-96152215D01*
X115562788Y-96759672D01*
X115578114Y-96771432D01*
X115634267Y-96778824D01*
X115679200Y-96744346D01*
X115686591Y-96688194D01*
X115692968Y-96711991D01*
X115692969Y-96711992D01*
X115692970Y-96711995D01*
X115692970Y-96711996D01*
X115743721Y-96799898D01*
X115743722Y-96799899D01*
X115743724Y-96799902D01*
X115815498Y-96871676D01*
X115859450Y-96897052D01*
X115903404Y-96922429D01*
X115927204Y-96928806D01*
X115908051Y-96926284D01*
X115855725Y-96947958D01*
X115834051Y-97000284D01*
X115855724Y-97052608D01*
X116203006Y-97399890D01*
X116231590Y-97428474D01*
X116246914Y-97440233D01*
X116255625Y-97441380D01*
X116241688Y-97455318D01*
X116223188Y-97468651D01*
X116223241Y-97468749D01*
X116222501Y-97469146D01*
X116222456Y-97469180D01*
X116222251Y-97469282D01*
X116117248Y-97529905D01*
X116031506Y-97615647D01*
X116021443Y-97633076D01*
X116002406Y-97654783D01*
X115993471Y-97661639D01*
X115938783Y-97676300D01*
X115937923Y-97676187D01*
X115895237Y-97655144D01*
X115892802Y-97652709D01*
X115881043Y-97637384D01*
X115868492Y-97615646D01*
X115868491Y-97615645D01*
X115782754Y-97529908D01*
X115782751Y-97529906D01*
X115782750Y-97529905D01*
X115686186Y-97474154D01*
X115682286Y-97471162D01*
X115673210Y-97467402D01*
X115668338Y-97466761D01*
X115560626Y-97437900D01*
X115560625Y-97437900D01*
X115439375Y-97437900D01*
X115439374Y-97437900D01*
X115402117Y-97447882D01*
X115323322Y-97468995D01*
X115322319Y-97469247D01*
X115322264Y-97469274D01*
X115217248Y-97529905D01*
X115131505Y-97615648D01*
X115070885Y-97720646D01*
X115070875Y-97720663D01*
X115070847Y-97720719D01*
X115070595Y-97721722D01*
X115049482Y-97800517D01*
X115039500Y-97837774D01*
X115039500Y-97959026D01*
X115070882Y-98076147D01*
X115131508Y-98181154D01*
X115217246Y-98266892D01*
X115255935Y-98289229D01*
X115277642Y-98308266D01*
X115284501Y-98317205D01*
X115299159Y-98371900D01*
X115298506Y-98376865D01*
X115277464Y-98419542D01*
X115062794Y-98634211D01*
X115038788Y-98650251D01*
X115028381Y-98654562D01*
X114971744Y-98654563D01*
X114971743Y-98654563D01*
X114961335Y-98650252D01*
X114937327Y-98634211D01*
X114239461Y-97936345D01*
X114217787Y-97884019D01*
X114239461Y-97831693D01*
X114254787Y-97819933D01*
X114323302Y-97780376D01*
X114395076Y-97708602D01*
X114445828Y-97620697D01*
X114466967Y-97541804D01*
X114472100Y-97532915D01*
X114472100Y-97420162D01*
X114470845Y-97416468D01*
X114445829Y-97323106D01*
X114445827Y-97323102D01*
X114445828Y-97323102D01*
X114395077Y-97235200D01*
X114395076Y-97235199D01*
X114395075Y-97235197D01*
X114323302Y-97163424D01*
X114323299Y-97163422D01*
X114323298Y-97163421D01*
X114235396Y-97112670D01*
X114235392Y-97112669D01*
X114235391Y-97112668D01*
X114137356Y-97086400D01*
X114137354Y-97086400D01*
X114137352Y-97086400D01*
X114035848Y-97086400D01*
X114035846Y-97086400D01*
X114035844Y-97086400D01*
X113937807Y-97112669D01*
X113937806Y-97112669D01*
X113937803Y-97112670D01*
X113937802Y-97112670D01*
X113849900Y-97163421D01*
X113778120Y-97235201D01*
X113738564Y-97303713D01*
X113693631Y-97338191D01*
X113637478Y-97330797D01*
X113622153Y-97319038D01*
X113355330Y-97052215D01*
X113333656Y-96999889D01*
X113355328Y-96947566D01*
X113960998Y-96341895D01*
X114013324Y-96320222D01*
X114063150Y-96340860D01*
X114063397Y-96340539D01*
X114064597Y-96341459D01*
X114065650Y-96341896D01*
X114067246Y-96343492D01*
X114172253Y-96404118D01*
X114289374Y-96435500D01*
X114289376Y-96435500D01*
X114410624Y-96435500D01*
X114410626Y-96435500D01*
X114527747Y-96404118D01*
X114632754Y-96343492D01*
X114718492Y-96257754D01*
X114779118Y-96152747D01*
X114810500Y-96035626D01*
X114810500Y-95914374D01*
X114779118Y-95797253D01*
X114718492Y-95692246D01*
X114716896Y-95690650D01*
X114716459Y-95689597D01*
X114715539Y-95688397D01*
X114715860Y-95688150D01*
X114695222Y-95638324D01*
X114716896Y-95585998D01*
X115737330Y-94565564D01*
X115761333Y-94549526D01*
X115771746Y-94545214D01*
X115828379Y-94545214D01*
X115838059Y-94549223D01*
G37*
%TD.AperFunction*%
%TA.AperFunction,Conductor*%
G36*
X115952425Y-96935564D02*
G01*
X115933414Y-96930470D01*
X115929674Y-96929467D01*
X115952425Y-96935564D01*
G37*
%TD.AperFunction*%
%TD*%
%TA.AperFunction,Conductor*%
%TO.N,VMOTOR*%
G36*
X90560888Y-138816230D02*
G01*
X90563037Y-138817377D01*
X90563046Y-138817384D01*
X90730931Y-138886924D01*
X90909156Y-138922375D01*
X90909157Y-138922375D01*
X91090871Y-138922375D01*
X91090872Y-138922375D01*
X91269097Y-138886924D01*
X91436982Y-138817384D01*
X91436991Y-138817377D01*
X91439113Y-138816244D01*
X91439929Y-138816163D01*
X91440341Y-138815993D01*
X91440392Y-138816117D01*
X91495477Y-138810684D01*
X91526332Y-138829175D01*
X92170709Y-139473552D01*
X92192383Y-139525878D01*
X92183648Y-139560756D01*
X92182500Y-139562902D01*
X92112962Y-139730783D01*
X92112959Y-139730794D01*
X92077510Y-139909013D01*
X92077510Y-140090728D01*
X92112959Y-140268947D01*
X92112962Y-140268958D01*
X92182498Y-140436832D01*
X92182501Y-140436839D01*
X92182504Y-140436844D01*
X92183666Y-140439018D01*
X92183747Y-140439850D01*
X92183892Y-140440198D01*
X92183786Y-140440241D01*
X92189215Y-140495383D01*
X92170728Y-140526225D01*
X91045500Y-141651454D01*
X91045500Y-141651455D01*
X90342556Y-142354400D01*
X89969130Y-142727826D01*
X89916804Y-142749500D01*
X89774196Y-142749500D01*
X89721870Y-142727826D01*
X89348444Y-142354400D01*
X88148443Y-141154400D01*
X88516539Y-140786303D01*
X88563050Y-140817380D01*
X88730935Y-140886920D01*
X88909160Y-140922371D01*
X88909161Y-140922371D01*
X89090875Y-140922371D01*
X89090876Y-140922371D01*
X89269101Y-140886920D01*
X89436986Y-140817380D01*
X89588078Y-140716424D01*
X89716571Y-140587931D01*
X89817527Y-140436839D01*
X89887067Y-140268954D01*
X89922518Y-140090729D01*
X89922518Y-139909013D01*
X89887067Y-139730788D01*
X89817527Y-139562903D01*
X89817520Y-139562894D01*
X89816373Y-139560745D01*
X89816291Y-139559919D01*
X89816136Y-139559544D01*
X89816250Y-139559496D01*
X89810820Y-139504381D01*
X89829305Y-139473537D01*
X90473679Y-138829163D01*
X90526002Y-138807491D01*
X90560888Y-138816230D01*
G37*
%TD.AperFunction*%
%TD*%
%TA.AperFunction,Conductor*%
%TO.N,MOTOR_A1*%
G36*
X120200000Y-94050000D02*
G01*
X118800000Y-94050000D01*
X117874000Y-94050000D01*
X117821674Y-94028326D01*
X117800000Y-93976000D01*
X117800000Y-90723999D01*
X117821674Y-90671673D01*
X117874000Y-90649999D01*
X120200000Y-90649999D01*
X120200000Y-94050000D01*
G37*
%TD.AperFunction*%
%TD*%
%TA.AperFunction,Conductor*%
%TO.N,VMOTOR*%
G36*
X117639591Y-104655628D02*
G01*
X117650003Y-104659941D01*
X117690053Y-104699984D01*
X117690056Y-104699991D01*
X117694367Y-104710399D01*
X117700000Y-104738717D01*
X117700000Y-107961281D01*
X117694367Y-107989599D01*
X117690056Y-108000007D01*
X117650008Y-108040055D01*
X117650007Y-108040056D01*
X117639599Y-108044367D01*
X117611281Y-108050000D01*
X115374000Y-108050000D01*
X115321674Y-108028326D01*
X115300000Y-107976000D01*
X115300000Y-104723999D01*
X115321674Y-104671673D01*
X115374000Y-104649999D01*
X117611281Y-104649999D01*
X117639591Y-104655628D01*
G37*
%TD.AperFunction*%
%TD*%
%TA.AperFunction,Conductor*%
%TO.N,SENSE_B*%
G36*
X108652877Y-114649889D02*
G01*
X108699934Y-114602833D01*
X108602877Y-114699890D01*
X108699934Y-114796946D01*
X108699934Y-114799890D01*
X108673933Y-114799890D01*
X108621607Y-114778216D01*
X108599933Y-114725890D01*
X108599933Y-114599890D01*
X108602878Y-114599890D01*
X108652877Y-114649889D01*
G37*
%TD.AperFunction*%
%TA.AperFunction,Conductor*%
G36*
X110978260Y-112321563D02*
G01*
X110999934Y-112373889D01*
X110999934Y-112499890D01*
X110996990Y-112499890D01*
X110899934Y-112402833D01*
X110899934Y-112299889D01*
X110925934Y-112299889D01*
X110978260Y-112321563D01*
G37*
%TD.AperFunction*%
%TD*%
%TA.AperFunction,Conductor*%
%TO.N,VMOTOR*%
G36*
X125595000Y-105650953D02*
G01*
X125616674Y-105703279D01*
X125668160Y-105724605D01*
X125700000Y-105724605D01*
X125700000Y-108050000D01*
X124700000Y-108050000D01*
X124700000Y-105649999D01*
X125595000Y-105649999D01*
X125595000Y-105650953D01*
G37*
%TD.AperFunction*%
%TD*%
%TA.AperFunction,Conductor*%
%TO.N,SENSE_B*%
G36*
X109702877Y-116799890D02*
G01*
X109573934Y-116799890D01*
X109521608Y-116778216D01*
X109499934Y-116725890D01*
X109499934Y-116599890D01*
X109902877Y-116599890D01*
X109702877Y-116799890D01*
G37*
%TD.AperFunction*%
%TA.AperFunction,Conductor*%
G36*
X111899934Y-115802833D02*
G01*
X111799933Y-115702832D01*
X111799933Y-115396947D01*
X111899934Y-115296946D01*
X111899934Y-115802833D01*
G37*
%TD.AperFunction*%
%TA.AperFunction,Conductor*%
G36*
X111878260Y-114321563D02*
G01*
X111899934Y-114373889D01*
X111899934Y-114702833D01*
X111799933Y-114602832D01*
X111799933Y-114299889D01*
X111825934Y-114299889D01*
X111878260Y-114321563D01*
G37*
%TD.AperFunction*%
%TD*%
%TA.AperFunction,Conductor*%
%TO.N,SENSE_B*%
G36*
X112699934Y-116202842D02*
G01*
X112744663Y-116247571D01*
X112766337Y-116299897D01*
X112744662Y-116352222D01*
X112699934Y-116396948D01*
X112699934Y-116396950D01*
X112699934Y-116396952D01*
X112696996Y-116399889D01*
X112599934Y-116302827D01*
X112599934Y-116196945D01*
X112646986Y-116149893D01*
X112699934Y-116202842D01*
G37*
%TD.AperFunction*%
%TD*%
%TA.AperFunction,Conductor*%
%TO.N,VMOTOR*%
G36*
X133699999Y-108976000D02*
G01*
X133678325Y-109028326D01*
X133625999Y-109050000D01*
X132699999Y-109050000D01*
X132699999Y-108050000D01*
X133699999Y-108050000D01*
X133699999Y-108976000D01*
G37*
%TD.AperFunction*%
%TD*%
%TA.AperFunction,Conductor*%
%TO.N,SENSE_A*%
G36*
X117100062Y-97311171D02*
G01*
X117094429Y-97339489D01*
X117090118Y-97349897D01*
X117050070Y-97389945D01*
X117050069Y-97389946D01*
X117039661Y-97394257D01*
X117011343Y-97399890D01*
X116997118Y-97399890D01*
X117100062Y-97296945D01*
X117100062Y-97311171D01*
G37*
%TD.AperFunction*%
%TA.AperFunction,Conductor*%
G36*
X114716896Y-95585998D02*
G01*
X114695222Y-95638324D01*
X114715860Y-95688150D01*
X114715539Y-95688397D01*
X114716459Y-95689597D01*
X114716896Y-95690650D01*
X114634709Y-95608463D01*
X114622943Y-95593127D01*
X114609970Y-95570649D01*
X114600062Y-95533659D01*
X114600062Y-95088608D01*
X114605691Y-95060299D01*
X114610005Y-95049884D01*
X114650044Y-95009838D01*
X114660473Y-95005518D01*
X114688781Y-94999890D01*
X115303004Y-94999890D01*
X114716896Y-95585998D01*
G37*
%TD.AperFunction*%
%TD*%
%TA.AperFunction,Conductor*%
%TO.N,SENSE_A*%
G36*
X111259349Y-97344729D02*
G01*
X111238131Y-97317077D01*
X111238131Y-97317073D01*
X111259349Y-97344729D01*
G37*
%TD.AperFunction*%
%TA.AperFunction,Conductor*%
G36*
X111452378Y-97155156D02*
G01*
X111500061Y-97202838D01*
X111403009Y-97299889D01*
X111240395Y-97299889D01*
X111239891Y-97303713D01*
X111245525Y-97260925D01*
X111257275Y-97245610D01*
X111347729Y-97155155D01*
X111400053Y-97133483D01*
X111452378Y-97155156D01*
G37*
%TD.AperFunction*%
%TD*%
%TA.AperFunction,Conductor*%
%TO.N,SENSE_A*%
G36*
X113355328Y-96947566D02*
G01*
X113333656Y-96999889D01*
X113355330Y-97052215D01*
X113622153Y-97319038D01*
X113637478Y-97330797D01*
X113693631Y-97338191D01*
X113738564Y-97303713D01*
X113727372Y-97323101D01*
X113727370Y-97323106D01*
X113701100Y-97421145D01*
X113701100Y-97522654D01*
X113727370Y-97620693D01*
X113727372Y-97620698D01*
X113749717Y-97659400D01*
X113778124Y-97708602D01*
X113849898Y-97780376D01*
X113937803Y-97831128D01*
X113937804Y-97831128D01*
X113937806Y-97831129D01*
X113962605Y-97837774D01*
X114035845Y-97857399D01*
X114035846Y-97857400D01*
X114035848Y-97857400D01*
X114137354Y-97857400D01*
X114137354Y-97857399D01*
X114235397Y-97831128D01*
X114254787Y-97819933D01*
X114239461Y-97831693D01*
X114217787Y-97884019D01*
X114239461Y-97936345D01*
X114400062Y-98096946D01*
X114400062Y-98296942D01*
X114400062Y-98925889D01*
X114378388Y-98978215D01*
X114326062Y-98999889D01*
X111800062Y-98999889D01*
X111800062Y-98180245D01*
X112723100Y-98180245D01*
X112723100Y-98281754D01*
X112749370Y-98379793D01*
X112749372Y-98379798D01*
X112800124Y-98467702D01*
X112871898Y-98539476D01*
X112959803Y-98590228D01*
X112959804Y-98590228D01*
X112959806Y-98590229D01*
X113008825Y-98603364D01*
X113057845Y-98616499D01*
X113057846Y-98616500D01*
X113057848Y-98616500D01*
X113159354Y-98616500D01*
X113159354Y-98616499D01*
X113257397Y-98590228D01*
X113345302Y-98539476D01*
X113417076Y-98467702D01*
X113467828Y-98379797D01*
X113494099Y-98281754D01*
X113494100Y-98281754D01*
X113494100Y-98180246D01*
X113494099Y-98180245D01*
X113467829Y-98082206D01*
X113467827Y-98082201D01*
X113417075Y-97994297D01*
X113345302Y-97922524D01*
X113257398Y-97871772D01*
X113257393Y-97871770D01*
X113159354Y-97845500D01*
X113159352Y-97845500D01*
X113057848Y-97845500D01*
X113057846Y-97845500D01*
X112959806Y-97871770D01*
X112959801Y-97871772D01*
X112871897Y-97922524D01*
X112800124Y-97994297D01*
X112749372Y-98082201D01*
X112749370Y-98082206D01*
X112723100Y-98180245D01*
X111800062Y-98180245D01*
X111800062Y-98160357D01*
X111801164Y-98156245D01*
X111817399Y-98095654D01*
X111817400Y-98095654D01*
X111817400Y-97994146D01*
X111817399Y-97994145D01*
X111800062Y-97929443D01*
X111800062Y-96673888D01*
X111821736Y-96621562D01*
X111874062Y-96599888D01*
X112403007Y-96599888D01*
X113703005Y-96599888D01*
X113355328Y-96947566D01*
G37*
%TD.AperFunction*%
%TA.AperFunction,Conductor*%
G36*
X113937806Y-97112670D02*
G01*
X113937801Y-97112672D01*
X113937802Y-97112670D01*
X113937803Y-97112670D01*
X113937806Y-97112669D01*
X113937807Y-97112669D01*
X113937806Y-97112670D01*
G37*
%TD.AperFunction*%
%TA.AperFunction,Conductor*%
G36*
X114235392Y-97112669D02*
G01*
X114235396Y-97112670D01*
X114235398Y-97112672D01*
X114235393Y-97112670D01*
X114235392Y-97112669D01*
G37*
%TD.AperFunction*%
%TD*%
%TA.AperFunction,Conductor*%
%TO.N,SENSE_B*%
G36*
X108941932Y-115138945D02*
G01*
X109399932Y-115596944D01*
X109399932Y-115696941D01*
X108802877Y-115099881D01*
X108852872Y-115049885D01*
X108941932Y-115138945D01*
G37*
%TD.AperFunction*%
%TA.AperFunction,Conductor*%
G36*
X112296989Y-115199898D02*
G01*
X112046992Y-115449891D01*
X111899934Y-115302833D01*
X111899934Y-115296946D01*
X112146986Y-115049893D01*
X112296989Y-115199898D01*
G37*
%TD.AperFunction*%
%TD*%
%TA.AperFunction,Conductor*%
%TO.N,VMOTOR*%
G36*
X88378716Y-139316559D02*
G01*
X88283465Y-139411810D01*
X88283464Y-139411811D01*
X88182508Y-139562903D01*
X88112970Y-139730783D01*
X88112967Y-139730794D01*
X88077518Y-139909013D01*
X88077518Y-140090728D01*
X88112967Y-140268947D01*
X88112970Y-140268958D01*
X88182508Y-140436838D01*
X88182509Y-140436839D01*
X88283465Y-140587931D01*
X88411958Y-140716424D01*
X88563050Y-140817380D01*
X88516539Y-140786303D01*
X88148443Y-141154400D01*
X89182499Y-142188455D01*
X89016555Y-142354400D01*
X88643129Y-142727826D01*
X88590803Y-142749500D01*
X88448195Y-142749500D01*
X88395869Y-142727826D01*
X88022443Y-142354400D01*
X86198269Y-140530225D01*
X86176595Y-140477899D01*
X86198269Y-140425573D01*
X86643000Y-139980842D01*
X87843000Y-138780843D01*
X88378716Y-139316559D01*
G37*
%TD.AperFunction*%
%TD*%
%TA.AperFunction,Conductor*%
%TO.N,SENSE_A*%
G36*
X114503006Y-98199890D02*
G01*
X114497117Y-98199890D01*
X114500061Y-98196945D01*
X114503006Y-98199890D01*
G37*
%TD.AperFunction*%
%TA.AperFunction,Conductor*%
G36*
X115070882Y-97720652D02*
G01*
X115070882Y-97720653D01*
X115070595Y-97721722D01*
X115070847Y-97720719D01*
X115070875Y-97720663D01*
X115070882Y-97720652D01*
G37*
%TD.AperFunction*%
%TA.AperFunction,Conductor*%
G36*
X115969152Y-97680300D02*
G01*
X115938783Y-97676300D01*
X115993471Y-97661639D01*
X115969152Y-97680300D01*
G37*
%TD.AperFunction*%
%TA.AperFunction,Conductor*%
G36*
X115937923Y-97676187D02*
G01*
X115912999Y-97672906D01*
X115895237Y-97655144D01*
X115937923Y-97676187D01*
G37*
%TD.AperFunction*%
%TA.AperFunction,Conductor*%
G36*
X116014085Y-97645822D02*
G01*
X116002406Y-97654783D01*
X116021443Y-97633076D01*
X116014085Y-97645822D01*
G37*
%TD.AperFunction*%
%TA.AperFunction,Conductor*%
G36*
X115892802Y-97652709D02*
G01*
X115885915Y-97645822D01*
X115881043Y-97637384D01*
X115892802Y-97652709D01*
G37*
%TD.AperFunction*%
%TA.AperFunction,Conductor*%
G36*
X115673210Y-97467402D02*
G01*
X115682286Y-97471162D01*
X115686186Y-97474154D01*
X115677751Y-97469284D01*
X115677749Y-97469283D01*
X115677748Y-97469282D01*
X115677747Y-97469282D01*
X115668338Y-97466761D01*
X115673210Y-97467402D01*
G37*
%TD.AperFunction*%
%TA.AperFunction,Conductor*%
G36*
X115322253Y-97469282D02*
G01*
X115322252Y-97469282D01*
X115322250Y-97469283D01*
X115322248Y-97469284D01*
X115322264Y-97469274D01*
X115322319Y-97469247D01*
X115323322Y-97468995D01*
X115322253Y-97469282D01*
G37*
%TD.AperFunction*%
%TA.AperFunction,Conductor*%
G36*
X116001445Y-96948699D02*
G01*
X116001446Y-96948700D01*
X116000463Y-96948700D01*
X115996779Y-96947448D01*
X116001445Y-96948699D01*
G37*
%TD.AperFunction*%
%TA.AperFunction,Conductor*%
G36*
X116113216Y-96948700D02*
G01*
X116102954Y-96948700D01*
X116102954Y-96948699D01*
X116122102Y-96943568D01*
X116113216Y-96948700D01*
G37*
%TD.AperFunction*%
%TA.AperFunction,Conductor*%
G36*
X115903403Y-96922428D02*
G01*
X115903404Y-96922428D01*
X115903406Y-96922429D01*
X115927204Y-96928806D01*
X115903404Y-96922429D01*
X115859450Y-96897052D01*
X115903403Y-96922428D01*
G37*
%TD.AperFunction*%
%TA.AperFunction,Conductor*%
G36*
X115692970Y-96711993D02*
G01*
X115692972Y-96711998D01*
X115692970Y-96711996D01*
X115692970Y-96711995D01*
X115692969Y-96711992D01*
X115692970Y-96711993D01*
G37*
%TD.AperFunction*%
%TA.AperFunction,Conductor*%
G36*
X115686592Y-96688193D02*
G01*
X115686591Y-96688196D01*
X115666700Y-96613956D01*
X115686592Y-96688193D01*
G37*
%TD.AperFunction*%
%TA.AperFunction,Conductor*%
G36*
X115692970Y-96414406D02*
G01*
X115692968Y-96414407D01*
X115692969Y-96414406D01*
X115692970Y-96414403D01*
X115692970Y-96414402D01*
X115692972Y-96414401D01*
X115692970Y-96414406D01*
G37*
%TD.AperFunction*%
%TA.AperFunction,Conductor*%
G36*
X112950061Y-96352832D02*
G01*
X113100057Y-96202835D01*
X113000053Y-96102832D01*
X112850057Y-96252828D01*
X112800062Y-96202833D01*
X112800062Y-95873889D01*
X112821736Y-95821563D01*
X112874062Y-95799889D01*
X113503005Y-95799889D01*
X112950061Y-96352832D01*
G37*
%TD.AperFunction*%
%TA.AperFunction,Conductor*%
G36*
X115903406Y-96203970D02*
G01*
X115903401Y-96203972D01*
X115903402Y-96203970D01*
X115903403Y-96203970D01*
X115903406Y-96203969D01*
X115903407Y-96203969D01*
X115903406Y-96203970D01*
G37*
%TD.AperFunction*%
%TD*%
%TA.AperFunction,Conductor*%
%TO.N,MOTOR_B1*%
G36*
X103486300Y-108518145D02*
G01*
X103486300Y-108619654D01*
X103503264Y-108682963D01*
X103495872Y-108739116D01*
X103484112Y-108754442D01*
X103308425Y-108930129D01*
X103256099Y-108951803D01*
X103203773Y-108930129D01*
X102759044Y-108485400D01*
X103495074Y-108485400D01*
X103486300Y-108518145D01*
G37*
%TD.AperFunction*%
%TA.AperFunction,Conductor*%
G36*
X102056100Y-107782456D02*
G01*
X101919186Y-107645542D01*
X101897512Y-107593216D01*
X101919186Y-107540890D01*
X101929021Y-107533344D01*
X101928855Y-107533128D01*
X101932700Y-107530177D01*
X101932699Y-107530177D01*
X101932702Y-107530176D01*
X102004476Y-107458402D01*
X102055228Y-107370497D01*
X102056100Y-107367242D01*
X102056100Y-107782456D01*
G37*
%TD.AperFunction*%
%TA.AperFunction,Conductor*%
G36*
X101989433Y-104321677D02*
G01*
X102011107Y-104374002D01*
X102008586Y-104393154D01*
X101997200Y-104435648D01*
X101997200Y-104537154D01*
X102023470Y-104635193D01*
X102023472Y-104635198D01*
X102074224Y-104723102D01*
X102145998Y-104794876D01*
X102233903Y-104845628D01*
X102233904Y-104845628D01*
X102233906Y-104845629D01*
X102282925Y-104858764D01*
X102331945Y-104871899D01*
X102331946Y-104871900D01*
X102331948Y-104871900D01*
X102433454Y-104871900D01*
X102465640Y-104863274D01*
X102475943Y-104860514D01*
X102532095Y-104867905D01*
X102547420Y-104879663D01*
X103753156Y-106085400D01*
X103345115Y-106085400D01*
X103274954Y-106066600D01*
X103274952Y-106066600D01*
X103173448Y-106066600D01*
X103173446Y-106066600D01*
X103103284Y-106085400D01*
X102056100Y-106085400D01*
X102056100Y-107076156D01*
X102081499Y-107170945D01*
X102055229Y-107072906D01*
X102055227Y-107072901D01*
X102041628Y-107049347D01*
X102004476Y-106984998D01*
X101932702Y-106913224D01*
X101874637Y-106879700D01*
X101844798Y-106862472D01*
X101844793Y-106862470D01*
X101746754Y-106836200D01*
X101746752Y-106836200D01*
X101649154Y-106836200D01*
X101596828Y-106814526D01*
X101575154Y-106762200D01*
X101585068Y-106725200D01*
X101632527Y-106642998D01*
X101632528Y-106642997D01*
X101658799Y-106544954D01*
X101658800Y-106544954D01*
X101658800Y-106443446D01*
X101651352Y-106415652D01*
X101651352Y-106415651D01*
X101632529Y-106345406D01*
X101632527Y-106345401D01*
X101618928Y-106321847D01*
X101581776Y-106257498D01*
X101510002Y-106185724D01*
X101501825Y-106181003D01*
X101422098Y-106134972D01*
X101422093Y-106134970D01*
X101324054Y-106108700D01*
X101324052Y-106108700D01*
X101222548Y-106108700D01*
X101222546Y-106108700D01*
X101124506Y-106134970D01*
X101124501Y-106134972D01*
X101036597Y-106185724D01*
X100964824Y-106257497D01*
X100914072Y-106345401D01*
X100914070Y-106345406D01*
X100887799Y-106443447D01*
X100887525Y-106445531D01*
X100886995Y-106446447D01*
X100886544Y-106448133D01*
X100886092Y-106448011D01*
X100859200Y-106494577D01*
X100804491Y-106509229D01*
X100761833Y-106488189D01*
X99068519Y-104794875D01*
X97249644Y-102976000D01*
X98946700Y-102976000D01*
X98946700Y-101278943D01*
X101989433Y-104321677D01*
G37*
%TD.AperFunction*%
%TA.AperFunction,Conductor*%
G36*
X96542214Y-101388080D02*
G01*
X96546700Y-101395850D01*
X96546700Y-102273056D01*
X96101969Y-101828325D01*
X96080295Y-101775999D01*
X96101968Y-101723674D01*
X96437563Y-101388079D01*
X96489888Y-101366406D01*
X96542214Y-101388080D01*
G37*
%TD.AperFunction*%
%TA.AperFunction,Conductor*%
G36*
X97799025Y-100131268D02*
G01*
X97972157Y-100304400D01*
X97521243Y-100304400D01*
X97694374Y-100131269D01*
X97746700Y-100109595D01*
X97799025Y-100131268D01*
G37*
%TD.AperFunction*%
%TD*%
%TA.AperFunction,Conductor*%
%TO.N,SENSE_A*%
G36*
X110203006Y-100099890D02*
G01*
X109900061Y-100099890D01*
X109900061Y-99796945D01*
X110203006Y-100099890D01*
G37*
%TD.AperFunction*%
%TA.AperFunction,Conductor*%
G36*
X112500062Y-99999889D02*
G01*
X112500062Y-100025890D01*
X112478388Y-100078216D01*
X112426062Y-100099890D01*
X112297118Y-100099890D01*
X112497118Y-99899890D01*
X112500062Y-99899890D01*
X112500062Y-99999889D01*
G37*
%TD.AperFunction*%
%TA.AperFunction,Conductor*%
G36*
X110500062Y-97802832D02*
G01*
X109900061Y-98402833D01*
X109900061Y-97773890D01*
X109921735Y-97721564D01*
X109974061Y-97699890D01*
X110200062Y-97699890D01*
X110500062Y-97699890D01*
X110500062Y-97802832D01*
G37*
%TD.AperFunction*%
%TD*%
%TA.AperFunction,Conductor*%
%TO.N,MOTOR_B1*%
G36*
X115300000Y-116347056D02*
G01*
X115002944Y-116050000D01*
X115300000Y-116050000D01*
X115300000Y-116347056D01*
G37*
%TD.AperFunction*%
%TA.AperFunction,Conductor*%
G36*
X107974127Y-105635035D02*
G01*
X107998131Y-105651074D01*
X115997055Y-113649999D01*
X115300000Y-113649999D01*
X114300000Y-113649999D01*
X114300000Y-115347056D01*
X111055704Y-112102760D01*
X111039663Y-112078753D01*
X111031161Y-112058227D01*
X111005396Y-112015608D01*
X110991420Y-112005324D01*
X110962701Y-111960159D01*
X110952835Y-111910556D01*
X110931161Y-111858230D01*
X110905395Y-111815608D01*
X110905394Y-111815607D01*
X110905392Y-111815605D01*
X110895576Y-111808382D01*
X110866276Y-111759913D01*
X110865434Y-111748780D01*
X110865434Y-111673890D01*
X110852837Y-111610562D01*
X110852836Y-111610556D01*
X110831162Y-111558230D01*
X110805396Y-111515608D01*
X110805395Y-111515606D01*
X110791424Y-111505327D01*
X110762702Y-111460159D01*
X110752836Y-111410556D01*
X110731162Y-111358230D01*
X110705396Y-111315608D01*
X110705395Y-111315606D01*
X110705393Y-111315605D01*
X110695577Y-111308382D01*
X110666276Y-111259913D01*
X110665434Y-111248779D01*
X110665434Y-110461121D01*
X110652837Y-110397793D01*
X110652836Y-110397787D01*
X110631162Y-110345461D01*
X110595286Y-110291769D01*
X109808055Y-109504538D01*
X109754363Y-109468662D01*
X109754362Y-109468661D01*
X109754360Y-109468660D01*
X109702041Y-109446989D01*
X109702030Y-109446986D01*
X109654320Y-109437496D01*
X109638703Y-109434390D01*
X109638702Y-109434390D01*
X108425633Y-109434390D01*
X108397315Y-109428757D01*
X108384257Y-109423348D01*
X108360251Y-109407308D01*
X107662083Y-108709140D01*
X107646043Y-108685134D01*
X107641732Y-108674727D01*
X107641720Y-108618117D01*
X107642053Y-108617312D01*
X107673426Y-108581523D01*
X107676413Y-108579799D01*
X107694264Y-108572406D01*
X107696797Y-108571728D01*
X107784702Y-108520976D01*
X107856476Y-108449202D01*
X107907228Y-108361297D01*
X107928367Y-108282404D01*
X107933500Y-108273515D01*
X107933500Y-108160762D01*
X107932245Y-108157068D01*
X107907229Y-108063706D01*
X107907227Y-108063702D01*
X107907228Y-108063702D01*
X107856477Y-107975800D01*
X107856476Y-107975799D01*
X107856475Y-107975797D01*
X107784702Y-107904024D01*
X107784699Y-107904022D01*
X107784698Y-107904021D01*
X107696796Y-107853270D01*
X107696792Y-107853269D01*
X107696791Y-107853268D01*
X107598756Y-107827000D01*
X107598754Y-107827000D01*
X107598752Y-107827000D01*
X107497248Y-107827000D01*
X107497246Y-107827000D01*
X107497244Y-107827000D01*
X107399207Y-107853269D01*
X107399206Y-107853269D01*
X107399203Y-107853270D01*
X107399202Y-107853270D01*
X107311300Y-107904021D01*
X107239521Y-107975800D01*
X107188770Y-108063702D01*
X107188770Y-108063703D01*
X107185569Y-108075650D01*
X107151089Y-108120582D01*
X107094936Y-108127973D01*
X107061765Y-108108821D01*
X106290668Y-107337725D01*
X106268994Y-107285399D01*
X106290666Y-107233076D01*
X106602987Y-106920754D01*
X106655312Y-106899081D01*
X106707638Y-106920755D01*
X106711399Y-106925044D01*
X106712806Y-106926451D01*
X106712808Y-106926454D01*
X106798546Y-107012192D01*
X106903553Y-107072818D01*
X107020674Y-107104200D01*
X107020676Y-107104200D01*
X107141924Y-107104200D01*
X107141926Y-107104200D01*
X107259047Y-107072818D01*
X107364054Y-107012192D01*
X107449792Y-106926454D01*
X107510418Y-106821447D01*
X107541800Y-106704326D01*
X107541800Y-106583074D01*
X107510418Y-106465953D01*
X107449792Y-106360946D01*
X107364054Y-106275208D01*
X107364051Y-106275206D01*
X107360624Y-106271779D01*
X107362096Y-106270306D01*
X107337312Y-106227351D01*
X107351985Y-106172647D01*
X107358346Y-106165394D01*
X107872668Y-105651074D01*
X107896671Y-105635036D01*
X107907083Y-105630723D01*
X107963714Y-105630723D01*
X107974127Y-105635035D01*
G37*
%TD.AperFunction*%
%TD*%
%TA.AperFunction,Conductor*%
%TO.N,VMOTOR*%
G36*
X103276570Y-71943293D02*
G01*
X103276572Y-71943298D01*
X103319455Y-72017572D01*
X103327324Y-72031202D01*
X103399098Y-72102976D01*
X103408600Y-72108461D01*
X103408600Y-72885200D01*
X103259769Y-72885200D01*
X103191998Y-72846072D01*
X103191993Y-72846070D01*
X103093954Y-72819800D01*
X103093952Y-72819800D01*
X102992448Y-72819800D01*
X102992446Y-72819800D01*
X102894406Y-72846070D01*
X102894401Y-72846072D01*
X102826630Y-72885200D01*
X102255656Y-72885200D01*
X103259873Y-71880982D01*
X103276570Y-71943293D01*
G37*
%TD.AperFunction*%
%TA.AperFunction,Conductor*%
G36*
X103386926Y-70506873D02*
G01*
X103408600Y-70559199D01*
X103408600Y-71480537D01*
X103399097Y-71486024D01*
X103327324Y-71557797D01*
X103327788Y-71557332D01*
X103193417Y-71422961D01*
X103205676Y-71410702D01*
X103256428Y-71322797D01*
X103282699Y-71224754D01*
X103282700Y-71224754D01*
X103282700Y-71123246D01*
X103282699Y-71123245D01*
X103256429Y-71025206D01*
X103256427Y-71025201D01*
X103205675Y-70937297D01*
X103133902Y-70865524D01*
X103045998Y-70814772D01*
X103045993Y-70814770D01*
X102947954Y-70788500D01*
X102947952Y-70788500D01*
X102846448Y-70788500D01*
X102846446Y-70788500D01*
X102748406Y-70814770D01*
X102748401Y-70814772D01*
X102660497Y-70865524D01*
X102588724Y-70937297D01*
X102648238Y-70877782D01*
X102327592Y-70557136D01*
X102411702Y-70508576D01*
X102435079Y-70485199D01*
X102705656Y-70485199D01*
X103334600Y-70485199D01*
X103386926Y-70506873D01*
G37*
%TD.AperFunction*%
%TA.AperFunction,Conductor*%
G36*
X100558600Y-71188141D02*
G01*
X100558600Y-70485199D01*
X101261543Y-70485199D01*
X100558600Y-71188141D01*
G37*
%TD.AperFunction*%
%TD*%
%TA.AperFunction,Conductor*%
%TO.N,SENSE_B*%
G36*
X111496990Y-113499890D02*
G01*
X111099934Y-113896945D01*
X111099934Y-113596938D01*
X111346985Y-113349885D01*
X111496990Y-113499890D01*
G37*
%TD.AperFunction*%
%TA.AperFunction,Conductor*%
G36*
X108099933Y-113396952D02*
G01*
X108099933Y-113496945D01*
X108055202Y-113452214D01*
X108033528Y-113399888D01*
X108052872Y-113353187D01*
X108052872Y-113349895D01*
X108052873Y-113349893D01*
X108099933Y-113396952D01*
G37*
%TD.AperFunction*%
%TD*%
%TA.AperFunction,Conductor*%
%TO.N,SENSE_A*%
G36*
X112297118Y-100099890D02*
G01*
X112252388Y-100144620D01*
X112200062Y-100166294D01*
X112153349Y-100146945D01*
X112150062Y-100146945D01*
X113297118Y-98999889D01*
X113397119Y-98999889D01*
X112297118Y-100099890D01*
G37*
%TD.AperFunction*%
%TA.AperFunction,Conductor*%
G36*
X113197117Y-96599888D02*
G01*
X112403007Y-96599888D01*
X112800062Y-96202833D01*
X113197117Y-96599888D01*
G37*
%TD.AperFunction*%
%TD*%
%TA.AperFunction,Conductor*%
%TO.N,SENSE_B*%
G36*
X108699934Y-114602833D02*
G01*
X108652877Y-114649889D01*
X108602878Y-114599890D01*
X108699934Y-114599890D01*
X108699934Y-114602833D01*
G37*
%TD.AperFunction*%
%TA.AperFunction,Conductor*%
G36*
X111996990Y-114599890D02*
G01*
X111946990Y-114649889D01*
X111899934Y-114602833D01*
X111899934Y-114502833D01*
X111996990Y-114599890D01*
G37*
%TD.AperFunction*%
%TD*%
%TA.AperFunction,Conductor*%
%TO.N,SENSE_B*%
G36*
X109652877Y-116849889D02*
G01*
X109702877Y-116799890D01*
X109602877Y-116899890D01*
X109702877Y-116999890D01*
X109673933Y-116999890D01*
X109621607Y-116978216D01*
X109599933Y-116925890D01*
X109599933Y-116799890D01*
X109602878Y-116799890D01*
X109652877Y-116849889D01*
G37*
%TD.AperFunction*%
%TA.AperFunction,Conductor*%
G36*
X111978260Y-114521564D02*
G01*
X111999934Y-114573890D01*
X111999934Y-114702833D01*
X111946990Y-114649889D01*
X111996990Y-114599890D01*
X111899934Y-114502833D01*
X111899934Y-114499890D01*
X111925934Y-114499890D01*
X111978260Y-114521564D01*
G37*
%TD.AperFunction*%
%TD*%
%TA.AperFunction,Conductor*%
%TO.N,MOTOR_B1*%
G36*
X103075406Y-106092870D02*
G01*
X103075401Y-106092872D01*
X102987497Y-106143624D01*
X102915724Y-106215397D01*
X102864972Y-106303301D01*
X102864970Y-106303306D01*
X102838700Y-106401345D01*
X102838700Y-106502854D01*
X102864970Y-106600893D01*
X102864972Y-106600898D01*
X102889278Y-106642997D01*
X102915724Y-106688802D01*
X102987498Y-106760576D01*
X103075403Y-106811328D01*
X103075404Y-106811328D01*
X103075406Y-106811329D01*
X103113166Y-106821447D01*
X103173445Y-106837599D01*
X103173446Y-106837600D01*
X103173448Y-106837600D01*
X103274954Y-106837600D01*
X103274954Y-106837599D01*
X103372997Y-106811328D01*
X103460902Y-106760576D01*
X103532676Y-106688802D01*
X103583428Y-106600897D01*
X103609699Y-106502854D01*
X103609700Y-106502854D01*
X103609700Y-106401346D01*
X103609699Y-106401345D01*
X103604127Y-106380552D01*
X103583428Y-106303303D01*
X103532676Y-106215398D01*
X103460902Y-106143624D01*
X103424141Y-106122400D01*
X103372998Y-106092872D01*
X103372993Y-106092870D01*
X103345114Y-106085400D01*
X103753156Y-106085400D01*
X104633114Y-106085400D01*
X104685440Y-106107074D01*
X104697200Y-106122400D01*
X104709454Y-106143624D01*
X104717524Y-106157602D01*
X104789298Y-106229376D01*
X104877203Y-106280128D01*
X104877204Y-106280128D01*
X104877206Y-106280129D01*
X104926225Y-106293264D01*
X104975245Y-106306399D01*
X104975246Y-106306400D01*
X104975248Y-106306400D01*
X104990100Y-106306400D01*
X105042426Y-106328074D01*
X105062238Y-106375906D01*
X105063467Y-106375745D01*
X105064070Y-106380328D01*
X105064100Y-106380400D01*
X105064100Y-106380554D01*
X105090370Y-106478593D01*
X105090372Y-106478598D01*
X105128682Y-106544952D01*
X105141124Y-106566502D01*
X105212898Y-106638276D01*
X105277247Y-106675428D01*
X105300411Y-106688802D01*
X105300803Y-106689028D01*
X105300804Y-106689028D01*
X105300806Y-106689029D01*
X105349825Y-106702164D01*
X105398845Y-106715299D01*
X105398846Y-106715300D01*
X105398848Y-106715300D01*
X105500354Y-106715300D01*
X105500354Y-106715299D01*
X105598397Y-106689028D01*
X105686302Y-106638276D01*
X105758076Y-106566502D01*
X105808828Y-106478597D01*
X105835099Y-106380554D01*
X105835100Y-106380554D01*
X105835100Y-106279046D01*
X105835099Y-106279045D01*
X105808172Y-106178553D01*
X105815564Y-106122401D01*
X105860497Y-106087922D01*
X105879650Y-106085400D01*
X106851131Y-106085400D01*
X106903457Y-106107074D01*
X106925131Y-106159400D01*
X106903457Y-106211726D01*
X106888131Y-106223486D01*
X106798545Y-106275208D01*
X106712808Y-106360945D01*
X106652184Y-106465948D01*
X106652183Y-106465950D01*
X106652182Y-106465952D01*
X106652182Y-106465953D01*
X106620800Y-106583074D01*
X106620800Y-106704326D01*
X106649471Y-106811328D01*
X106652183Y-106821449D01*
X106652184Y-106821451D01*
X106661507Y-106837599D01*
X106712808Y-106926454D01*
X106712806Y-106926451D01*
X106711399Y-106925044D01*
X106707638Y-106920755D01*
X106655312Y-106899081D01*
X106602987Y-106920754D01*
X106290666Y-107233076D01*
X106268994Y-107285399D01*
X106290668Y-107337725D01*
X107061765Y-108108821D01*
X107094936Y-108127973D01*
X107151089Y-108120582D01*
X107185569Y-108075650D01*
X107162500Y-108161745D01*
X107162500Y-108263254D01*
X107188770Y-108361293D01*
X107188772Y-108361298D01*
X107196337Y-108374400D01*
X107203730Y-108430552D01*
X107169251Y-108475486D01*
X107132251Y-108485400D01*
X105906667Y-108485400D01*
X105869667Y-108475486D01*
X105823398Y-108448772D01*
X105823393Y-108448770D01*
X105725354Y-108422500D01*
X105725352Y-108422500D01*
X105623848Y-108422500D01*
X105623846Y-108422500D01*
X105525806Y-108448770D01*
X105525801Y-108448772D01*
X105479533Y-108475486D01*
X105442533Y-108485400D01*
X104305306Y-108485400D01*
X104252980Y-108463726D01*
X104233828Y-108430552D01*
X104231028Y-108420103D01*
X104180276Y-108332198D01*
X104108502Y-108260424D01*
X104020598Y-108209672D01*
X104020593Y-108209670D01*
X103922554Y-108183400D01*
X103922552Y-108183400D01*
X103821048Y-108183400D01*
X103821046Y-108183400D01*
X103723006Y-108209670D01*
X103723001Y-108209672D01*
X103635097Y-108260424D01*
X103563324Y-108332197D01*
X103512572Y-108420101D01*
X103512570Y-108420106D01*
X103495074Y-108485400D01*
X102130100Y-108485400D01*
X102077774Y-108463726D01*
X102056100Y-108411400D01*
X102056100Y-107782456D01*
X102056100Y-107367242D01*
X102081499Y-107272454D01*
X102081500Y-107272454D01*
X102081500Y-107170946D01*
X102081499Y-107170945D01*
X102056100Y-107076156D01*
X102056100Y-106085400D01*
X103103285Y-106085400D01*
X103075406Y-106092870D01*
G37*
%TD.AperFunction*%
%TA.AperFunction,Conductor*%
G36*
X107933500Y-108273515D02*
G01*
X107928368Y-108282401D01*
X107933499Y-108263254D01*
X107933500Y-108263254D01*
X107933500Y-108273515D01*
G37*
%TD.AperFunction*%
%TA.AperFunction,Conductor*%
G36*
X107933500Y-108160762D02*
G01*
X107933500Y-108161746D01*
X107933499Y-108161745D01*
X107932248Y-108157078D01*
X107933500Y-108160762D01*
G37*
%TD.AperFunction*%
%TA.AperFunction,Conductor*%
G36*
X107188770Y-108063706D02*
G01*
X107188770Y-108063703D01*
X107188770Y-108063702D01*
X107188772Y-108063701D01*
X107188770Y-108063706D01*
G37*
%TD.AperFunction*%
%TA.AperFunction,Conductor*%
G36*
X107399206Y-107853270D02*
G01*
X107399201Y-107853272D01*
X107399202Y-107853270D01*
X107399203Y-107853270D01*
X107399206Y-107853269D01*
X107399207Y-107853269D01*
X107399206Y-107853270D01*
G37*
%TD.AperFunction*%
%TA.AperFunction,Conductor*%
G36*
X107696792Y-107853269D02*
G01*
X107696796Y-107853270D01*
X107696798Y-107853272D01*
X107696793Y-107853270D01*
X107696792Y-107853269D01*
G37*
%TD.AperFunction*%
%TA.AperFunction,Conductor*%
G36*
X109113726Y-106107074D02*
G01*
X109135400Y-106159400D01*
X109135400Y-106788343D01*
X108432457Y-106085400D01*
X109061400Y-106085400D01*
X109113726Y-106107074D01*
G37*
%TD.AperFunction*%
%TA.AperFunction,Conductor*%
G36*
X107358346Y-106165394D02*
G01*
X107351985Y-106172647D01*
X107337312Y-106227351D01*
X107362096Y-106270306D01*
X107360624Y-106271779D01*
X107364051Y-106275206D01*
X107364054Y-106275208D01*
X107274468Y-106223485D01*
X107239990Y-106178552D01*
X107247383Y-106122400D01*
X107292317Y-106087921D01*
X107311469Y-106085400D01*
X107438340Y-106085400D01*
X107358346Y-106165394D01*
G37*
%TD.AperFunction*%
%TD*%
%TA.AperFunction,Conductor*%
%TO.N,VMOTOR*%
G36*
X115300000Y-82649999D02*
G01*
X114300000Y-82649999D01*
X114300000Y-81723999D01*
X114321674Y-81671673D01*
X114374000Y-81649999D01*
X115300000Y-81649999D01*
X115300000Y-82649999D01*
G37*
%TD.AperFunction*%
%TD*%
%TA.AperFunction,Conductor*%
%TO.N,SENSE_B*%
G36*
X109299934Y-115596942D02*
G01*
X109299934Y-115896946D01*
X109002877Y-115599890D01*
X109102877Y-115499890D01*
X109202883Y-115499890D01*
X109299934Y-115596942D01*
G37*
%TD.AperFunction*%
%TA.AperFunction,Conductor*%
G36*
X112299933Y-115702832D02*
G01*
X112299933Y-115502832D01*
X112496990Y-115699890D01*
X112396991Y-115799889D01*
X112396989Y-115799889D01*
X112046992Y-115449891D01*
X112299933Y-115702832D01*
G37*
%TD.AperFunction*%
%TD*%
%TA.AperFunction,Conductor*%
%TO.N,SENSE_A*%
G36*
X114100062Y-99025890D02*
G01*
X114078388Y-99078216D01*
X114026062Y-99099890D01*
X113597116Y-99099890D01*
X113697117Y-98999889D01*
X114100062Y-98999889D01*
X114100062Y-99025890D01*
G37*
%TD.AperFunction*%
%TA.AperFunction,Conductor*%
G36*
X111800062Y-97002832D02*
G01*
X111750065Y-97052828D01*
X111700070Y-97002833D01*
X111600062Y-97102839D01*
X111600062Y-96773890D01*
X111621736Y-96721564D01*
X111674062Y-96699890D01*
X111800062Y-96699890D01*
X111800062Y-97002832D01*
G37*
%TD.AperFunction*%
%TD*%
%TA.AperFunction,Conductor*%
%TO.N,EFUSE_IN*%
G36*
X92700000Y-65649999D02*
G01*
X90300000Y-65649999D01*
X90300000Y-64723999D01*
X90321674Y-64671673D01*
X90374000Y-64649999D01*
X92700000Y-64649999D01*
X92700000Y-65649999D01*
G37*
%TD.AperFunction*%
%TD*%
%TA.AperFunction,Conductor*%
%TO.N,SENSE_A*%
G36*
X113400062Y-99625890D02*
G01*
X113378388Y-99678216D01*
X113326062Y-99699890D01*
X112697118Y-99699890D01*
X113050061Y-99346946D01*
X113200060Y-99496945D01*
X113400062Y-99296943D01*
X113400062Y-99625890D01*
G37*
%TD.AperFunction*%
%TA.AperFunction,Conductor*%
G36*
X111307338Y-97395560D02*
G01*
X111275400Y-97363622D01*
X111272606Y-97362009D01*
X111271616Y-97360719D01*
X111271555Y-97360672D01*
X111271567Y-97360655D01*
X111238131Y-97317073D01*
X111240395Y-97299889D01*
X111403010Y-97299889D01*
X111307338Y-97395560D01*
G37*
%TD.AperFunction*%
%TD*%
%TA.AperFunction,Conductor*%
%TO.N,SENSE_B*%
G36*
X112699934Y-119025890D02*
G01*
X112678260Y-119078216D01*
X112625934Y-119099890D01*
X110373934Y-119099890D01*
X110321608Y-119078216D01*
X110299934Y-119025890D01*
X110299934Y-118299890D01*
X110902878Y-118299890D01*
X111499934Y-118896946D01*
X112096990Y-118299890D01*
X112599934Y-118299890D01*
X112599934Y-117796946D01*
X112699934Y-117696946D01*
X112699934Y-119025890D01*
G37*
%TD.AperFunction*%
%TA.AperFunction,Conductor*%
G36*
X112699934Y-116402826D02*
G01*
X112696996Y-116399889D01*
X112699934Y-116396952D01*
X112699934Y-116402826D01*
G37*
%TD.AperFunction*%
%TA.AperFunction,Conductor*%
G36*
X112678260Y-116021564D02*
G01*
X112699934Y-116073890D01*
X112699934Y-116202842D01*
X112646986Y-116149893D01*
X112696990Y-116099890D01*
X112599934Y-116002833D01*
X112599934Y-115999890D01*
X112625934Y-115999890D01*
X112678260Y-116021564D01*
G37*
%TD.AperFunction*%
%TD*%
%TA.AperFunction,Conductor*%
%TO.N,SENSE_B*%
G36*
X109202883Y-115499890D02*
G01*
X108973932Y-115499890D01*
X108921606Y-115478216D01*
X108899932Y-115425890D01*
X108899932Y-115199890D01*
X108899932Y-115196936D01*
X109202883Y-115499890D01*
G37*
%TD.AperFunction*%
%TA.AperFunction,Conductor*%
G36*
X111299933Y-113999890D02*
G01*
X111296990Y-113999890D01*
X111146989Y-113849889D01*
X111299933Y-113696946D01*
X111299933Y-113999890D01*
G37*
%TD.AperFunction*%
%TA.AperFunction,Conductor*%
G36*
X111278259Y-112921564D02*
G01*
X111299933Y-112973890D01*
X111299933Y-113202824D01*
X111099934Y-113002826D01*
X111099934Y-112899890D01*
X111199934Y-112899890D01*
X111225933Y-112899890D01*
X111278259Y-112921564D01*
G37*
%TD.AperFunction*%
%TD*%
%TA.AperFunction,Conductor*%
%TO.N,SENSE_B*%
G36*
X109052873Y-115549893D02*
G01*
X109002869Y-115499890D01*
X109102877Y-115499890D01*
X109052873Y-115549893D01*
G37*
%TD.AperFunction*%
%TD*%
%TA.AperFunction,Conductor*%
%TO.N,SENSE_B*%
G36*
X110199934Y-118099890D02*
G01*
X110173933Y-118099890D01*
X110121607Y-118078216D01*
X110099933Y-118025890D01*
X110099933Y-117899890D01*
X110199934Y-117899890D01*
X110199934Y-118099890D01*
G37*
%TD.AperFunction*%
%TA.AperFunction,Conductor*%
G36*
X112478260Y-115621564D02*
G01*
X112499934Y-115673890D01*
X112499934Y-115799889D01*
X112399934Y-115799889D01*
X112399934Y-115796946D01*
X112496990Y-115699890D01*
X112399934Y-115602833D01*
X112399934Y-115599890D01*
X112425934Y-115599890D01*
X112478260Y-115621564D01*
G37*
%TD.AperFunction*%
%TD*%
%TA.AperFunction,Conductor*%
%TO.N,VMOTOR*%
G36*
X94842700Y-129985300D02*
G01*
X96539756Y-129985300D01*
X93382793Y-133142263D01*
X93330467Y-133163937D01*
X93278141Y-133142263D01*
X93271802Y-133135924D01*
X93183898Y-133085172D01*
X93183893Y-133085170D01*
X93085854Y-133058900D01*
X93085852Y-133058900D01*
X92984348Y-133058900D01*
X92984346Y-133058900D01*
X92886306Y-133085170D01*
X92886301Y-133085172D01*
X92798397Y-133135924D01*
X92726624Y-133207697D01*
X92675872Y-133295601D01*
X92675870Y-133295606D01*
X92649600Y-133393645D01*
X92649600Y-133495154D01*
X92675870Y-133593193D01*
X92675872Y-133593198D01*
X92726624Y-133681102D01*
X92732963Y-133687441D01*
X92754637Y-133739767D01*
X92732963Y-133792093D01*
X91538080Y-134986975D01*
X91485754Y-135008649D01*
X91448755Y-134998735D01*
X91424610Y-134984795D01*
X91388198Y-134963772D01*
X91388193Y-134963770D01*
X91290154Y-134937500D01*
X91290152Y-134937500D01*
X91188648Y-134937500D01*
X91188646Y-134937500D01*
X91090606Y-134963770D01*
X91090601Y-134963772D01*
X91002697Y-135014524D01*
X90930924Y-135086297D01*
X90880172Y-135174201D01*
X90880170Y-135174206D01*
X90853900Y-135272245D01*
X90853900Y-135373754D01*
X90880170Y-135471793D01*
X90880172Y-135471798D01*
X90915135Y-135532354D01*
X90922528Y-135588506D01*
X90903375Y-135621680D01*
X89405270Y-137119784D01*
X89352944Y-137141458D01*
X89324626Y-137135825D01*
X89269105Y-137112827D01*
X89269094Y-137112824D01*
X89134828Y-137086117D01*
X89090876Y-137077375D01*
X88909160Y-137077375D01*
X88873902Y-137084388D01*
X88730941Y-137112824D01*
X88730930Y-137112827D01*
X88563050Y-137182365D01*
X88411958Y-137283321D01*
X88411957Y-137283323D01*
X88283466Y-137411814D01*
X88283464Y-137411815D01*
X88182508Y-137562907D01*
X88112970Y-137730787D01*
X88112967Y-137730798D01*
X88077518Y-137909017D01*
X88077518Y-138090732D01*
X88112967Y-138268951D01*
X88112970Y-138268962D01*
X88154889Y-138370166D01*
X87843000Y-138682056D01*
X86643000Y-137482056D01*
X86444265Y-137283321D01*
X86198269Y-137037325D01*
X86176595Y-136984999D01*
X86198268Y-136932674D01*
X86643000Y-136487943D01*
X89538297Y-133592645D01*
X91696900Y-133592645D01*
X91696900Y-133694154D01*
X91723170Y-133792193D01*
X91723172Y-133792198D01*
X91757831Y-133852228D01*
X91773924Y-133880102D01*
X91845698Y-133951876D01*
X91933603Y-134002628D01*
X91933604Y-134002628D01*
X91933606Y-134002629D01*
X91982625Y-134015764D01*
X92031645Y-134028899D01*
X92031646Y-134028900D01*
X92031648Y-134028900D01*
X92133154Y-134028900D01*
X92133154Y-134028899D01*
X92231197Y-134002628D01*
X92319102Y-133951876D01*
X92390876Y-133880102D01*
X92441628Y-133792197D01*
X92467899Y-133694154D01*
X92467900Y-133694154D01*
X92467900Y-133592646D01*
X92467899Y-133592645D01*
X92441629Y-133494606D01*
X92441627Y-133494601D01*
X92390875Y-133406697D01*
X92319102Y-133334924D01*
X92231198Y-133284172D01*
X92231193Y-133284170D01*
X92133154Y-133257900D01*
X92133152Y-133257900D01*
X92031648Y-133257900D01*
X92031646Y-133257900D01*
X91933606Y-133284170D01*
X91933601Y-133284172D01*
X91845697Y-133334924D01*
X91773924Y-133406697D01*
X91723172Y-133494601D01*
X91723170Y-133494606D01*
X91696900Y-133592645D01*
X89538297Y-133592645D01*
X89983475Y-133147467D01*
X90035800Y-133125794D01*
X90088126Y-133147468D01*
X90109800Y-133199794D01*
X90109800Y-133207654D01*
X90136070Y-133305693D01*
X90136072Y-133305698D01*
X90152946Y-133334924D01*
X90186824Y-133393602D01*
X90258598Y-133465376D01*
X90346503Y-133516128D01*
X90346504Y-133516128D01*
X90346506Y-133516129D01*
X90395525Y-133529264D01*
X90444545Y-133542399D01*
X90444546Y-133542400D01*
X90444548Y-133542400D01*
X90546054Y-133542400D01*
X90546054Y-133542399D01*
X90643380Y-133516320D01*
X90643381Y-133516320D01*
X90643487Y-133516291D01*
X90644097Y-133516128D01*
X90732002Y-133465376D01*
X90803776Y-133393602D01*
X90854528Y-133305697D01*
X90880799Y-133207654D01*
X90880800Y-133207654D01*
X90880800Y-133106146D01*
X90880799Y-133106145D01*
X90854529Y-133008106D01*
X90854527Y-133008101D01*
X90803775Y-132920197D01*
X90732002Y-132848424D01*
X90644098Y-132797672D01*
X90644093Y-132797670D01*
X90546054Y-132771400D01*
X90546052Y-132771400D01*
X90538194Y-132771400D01*
X90485868Y-132749726D01*
X90464194Y-132697400D01*
X90485867Y-132645075D01*
X94842700Y-128288242D01*
X94842700Y-129985300D01*
G37*
%TD.AperFunction*%
%TA.AperFunction,Conductor*%
G36*
X96095025Y-127140568D02*
G01*
X96539757Y-127585300D01*
X95545643Y-127585300D01*
X95990374Y-127140569D01*
X96042700Y-127118895D01*
X96095025Y-127140568D01*
G37*
%TD.AperFunction*%
%TD*%
%TA.AperFunction,Conductor*%
%TO.N,MOTOR_B1*%
G36*
X117678326Y-113671673D02*
G01*
X117700000Y-113723999D01*
X117700000Y-116976000D01*
X117678326Y-117028326D01*
X117626000Y-117050000D01*
X115300000Y-117050000D01*
X115300000Y-113649999D01*
X115997055Y-113649999D01*
X117626000Y-113649999D01*
X117678326Y-113671673D01*
G37*
%TD.AperFunction*%
%TD*%
%TA.AperFunction,Conductor*%
%TO.N,SENSE_B*%
G36*
X109399932Y-116196944D02*
G01*
X109399932Y-116299890D01*
X109373934Y-116299890D01*
X109321608Y-116278216D01*
X109299934Y-116225890D01*
X109299934Y-116099890D01*
X109299934Y-116096946D01*
X109399932Y-116196944D01*
G37*
%TD.AperFunction*%
%TA.AperFunction,Conductor*%
G36*
X109399932Y-115696941D02*
G01*
X109399932Y-115802833D01*
X109299934Y-115902831D01*
X109299934Y-115596942D01*
X109399932Y-115696941D01*
G37*
%TD.AperFunction*%
%TA.AperFunction,Conductor*%
G36*
X111678260Y-113821563D02*
G01*
X111699934Y-113873889D01*
X111699934Y-113999890D01*
X111496995Y-113999890D01*
X111396991Y-113899887D01*
X111496989Y-113799889D01*
X111599934Y-113799889D01*
X111625934Y-113799889D01*
X111678260Y-113821563D01*
G37*
%TD.AperFunction*%
%TD*%
%TA.AperFunction,Conductor*%
%TO.N,MOTOR_B1*%
G36*
X115300000Y-116050000D02*
G01*
X114300000Y-116050000D01*
X114300000Y-113649999D01*
X115300000Y-113649999D01*
X115300000Y-116050000D01*
G37*
%TD.AperFunction*%
%TD*%
M02*
